<svg width="362" height="538" viewBox="0 0 362 538" fill="none" xmlns="http://www.w3.org/2000/svg">
<rect x="1" width="360" height="538" fill="white"/>
<g filter="url(#filter0_d_129_2661)">
<path d="M83 75C83 70.5817 86.5817 67 91 67H312C316.418 67 320 70.5817 320 75V88C320 92.4183 316.418 96 312 96H91C86.5817 96 83 92.4183 83 88V75Z" fill="white"/>
</g>
<path d="M51.268 75.106H52.997V81.047H51.268V75.106ZM52.529 77.355H54.596V78.759H52.529V77.355ZM44.014 75.639H45.743V80.293H44.014V75.639ZM44.014 79.305H45.015C45.8297 79.305 46.679 79.2747 47.563 79.214C48.447 79.1447 49.357 79.019 50.293 78.837L50.488 80.228C49.5173 80.4273 48.5727 80.5617 47.654 80.631C46.744 80.7003 45.8643 80.735 45.015 80.735H44.014V79.305ZM45.054 81.554H52.997V84.882H46.809V86.299H45.067V83.608H51.268V82.893H45.054V81.554ZM45.067 85.662H53.348V87.027H45.067V85.662ZM63.604 75.119H65.32V87.157H63.604V75.119ZM64.514 79.63H66.633V81.06H64.514V79.63ZM56.922 77.082H58.17V78.083C58.17 78.733 58.144 79.3787 58.092 80.02C58.0487 80.6527 57.962 81.2593 57.832 81.84C57.702 82.412 57.5113 82.9363 57.26 83.413C57.0173 83.881 56.6923 84.2753 56.285 84.596L55.219 83.348C55.5917 83.062 55.8907 82.724 56.116 82.334C56.3413 81.9353 56.5103 81.502 56.623 81.034C56.7443 80.566 56.8223 80.085 56.857 79.591C56.9003 79.0883 56.922 78.5857 56.922 78.083V77.082ZM57.312 77.082H58.547V78.083C58.547 78.5423 58.5643 79.019 58.599 79.513C58.6423 80.007 58.7247 80.4967 58.846 80.982C58.9673 81.4587 59.145 81.9093 59.379 82.334C59.6217 82.75 59.9423 83.1183 60.341 83.439L59.418 84.713C58.976 84.375 58.612 83.9547 58.326 83.452C58.0487 82.9493 57.8363 82.399 57.689 81.801C57.5417 81.203 57.442 80.5877 57.39 79.955C57.338 79.3137 57.312 78.6897 57.312 78.083V77.082ZM60.315 77.082H61.537V78.083C61.537 78.6983 61.5067 79.3267 61.446 79.968C61.394 80.6007 61.2943 81.216 61.147 81.814C61.0083 82.412 60.796 82.9623 60.51 83.465C60.2327 83.959 59.8687 84.375 59.418 84.713L58.521 83.439C58.911 83.1183 59.223 82.75 59.457 82.334C59.6997 81.918 59.8817 81.4717 60.003 80.995C60.1243 80.5183 60.2067 80.033 60.25 79.539C60.2933 79.0363 60.315 78.551 60.315 78.083V77.082ZM60.692 77.082H61.953V78.083C61.953 78.5857 61.9703 79.0883 62.005 79.591C62.0483 80.0937 62.1263 80.579 62.239 81.047C62.3603 81.515 62.5337 81.944 62.759 82.334C62.9843 82.724 63.2833 83.062 63.656 83.348L62.59 84.596C62.1827 84.2753 61.8533 83.881 61.602 83.413C61.3507 82.945 61.16 82.425 61.03 81.853C60.9 81.2723 60.809 80.6613 60.757 80.02C60.7137 79.3787 60.692 78.733 60.692 78.083V77.082ZM55.674 76.146H59.223V77.524H55.674V76.146ZM59.626 76.146H62.993V77.524H59.626V76.146Z" fill="black"/>
<path d="M97.6996 85V84.2045L100.161 81.6548C100.423 81.3778 100.64 81.1352 100.81 80.9268C100.983 80.7161 101.112 80.5161 101.197 80.3267C101.283 80.1373 101.325 79.9361 101.325 79.723C101.325 79.4815 101.268 79.2732 101.155 79.098C101.041 78.9205 100.886 78.7843 100.69 78.6896C100.493 78.5926 100.272 78.544 100.026 78.544C99.7652 78.544 99.5379 78.5973 99.3438 78.7038C99.1496 78.8104 99.0005 78.9607 98.8963 79.1548C98.7921 79.349 98.7401 79.5762 98.7401 79.8366H97.6925C97.6925 79.3939 97.7943 79.0069 97.9979 78.6754C98.2015 78.344 98.4808 78.0871 98.8359 77.9048C99.1911 77.7202 99.5947 77.6278 100.047 77.6278C100.504 77.6278 100.906 77.719 101.254 77.9013C101.605 78.0812 101.878 78.3274 102.075 78.6399C102.271 78.95 102.369 79.3004 102.369 79.6911C102.369 79.9609 102.318 80.2249 102.217 80.483C102.117 80.741 101.943 81.0286 101.695 81.3459C101.446 81.6607 101.1 82.0431 100.658 82.4929L99.2124 84.0057V84.0589H102.487V85H97.6996ZM106.364 85.1207C105.803 85.1184 105.324 84.9704 104.926 84.6768C104.528 84.3833 104.224 83.956 104.013 83.3949C103.803 82.8338 103.697 82.1579 103.697 81.3672C103.697 80.5788 103.803 79.9053 104.013 79.3466C104.227 78.7879 104.532 78.3617 104.93 78.0682C105.33 77.7746 105.808 77.6278 106.364 77.6278C106.921 77.6278 107.398 77.7758 107.795 78.0717C108.193 78.3653 108.497 78.7914 108.708 79.3501C108.921 79.9065 109.028 80.5788 109.028 81.3672C109.028 82.1603 108.922 82.8374 108.712 83.3984C108.501 83.9571 108.197 84.3845 107.799 84.6804C107.401 84.974 106.923 85.1207 106.364 85.1207ZM106.364 84.1726C106.857 84.1726 107.241 83.9323 107.518 83.4517C107.798 82.9711 107.938 82.2763 107.938 81.3672C107.938 80.7635 107.874 80.2533 107.746 79.8366C107.62 79.4176 107.439 79.1004 107.202 78.8849C106.968 78.6671 106.689 78.5582 106.364 78.5582C105.874 78.5582 105.49 78.7997 105.21 79.2827C104.931 79.7656 104.79 80.4605 104.788 81.3672C104.788 81.9732 104.85 82.4858 104.976 82.9048C105.104 83.3215 105.285 83.6375 105.519 83.853C105.754 84.0661 106.035 84.1726 106.364 84.1726ZM110.287 85V84.2045L112.748 81.6548C113.011 81.3778 113.228 81.1352 113.398 80.9268C113.571 80.7161 113.7 80.5161 113.785 80.3267C113.871 80.1373 113.913 79.9361 113.913 79.723C113.913 79.4815 113.856 79.2732 113.743 79.098C113.629 78.9205 113.474 78.7843 113.278 78.6896C113.081 78.5926 112.86 78.544 112.613 78.544C112.353 78.544 112.126 78.5973 111.932 78.7038C111.738 78.8104 111.588 78.9607 111.484 79.1548C111.38 79.349 111.328 79.5762 111.328 79.8366H110.28C110.28 79.3939 110.382 79.0069 110.586 78.6754C110.789 78.344 111.069 78.0871 111.424 77.9048C111.779 77.7202 112.183 77.6278 112.635 77.6278C113.092 77.6278 113.494 77.719 113.842 77.9013C114.193 78.0812 114.466 78.3274 114.662 78.6399C114.859 78.95 114.957 79.3004 114.957 79.6911C114.957 79.9609 114.906 80.2249 114.805 80.483C114.705 80.741 114.531 81.0286 114.282 81.3459C114.034 81.6607 113.688 82.0431 113.246 82.4929L111.8 84.0057V84.0589H115.074V85H110.287ZM118.821 85.0994C118.376 85.0994 117.976 85.0142 117.621 84.8438C117.268 84.6709 116.986 84.4342 116.775 84.1335C116.565 83.8329 116.452 83.4896 116.438 83.1037H117.503C117.529 83.4162 117.668 83.6731 117.919 83.8743C118.17 84.0755 118.47 84.1761 118.821 84.1761C119.1 84.1761 119.348 84.1122 119.563 83.9844C119.781 83.8542 119.951 83.6754 120.074 83.4482C120.2 83.2209 120.263 82.9616 120.263 82.6705C120.263 82.3745 120.199 82.1106 120.071 81.8786C119.943 81.6465 119.767 81.4643 119.542 81.3317C119.319 81.1991 119.064 81.1316 118.775 81.1293C118.555 81.1293 118.333 81.1671 118.111 81.2429C117.888 81.3187 117.708 81.4181 117.571 81.5412L116.566 81.392L116.974 77.7273H120.973V78.6683H117.887L117.656 80.7031H117.699C117.841 80.5658 118.029 80.451 118.263 80.3587C118.5 80.2663 118.753 80.2202 119.023 80.2202C119.466 80.2202 119.86 80.3255 120.206 80.5362C120.554 80.7469 120.827 81.0346 121.026 81.3991C121.227 81.7614 121.327 82.178 121.324 82.6491C121.327 83.1203 121.22 83.5405 121.005 83.9098C120.792 84.2791 120.496 84.5703 120.117 84.7834C119.741 84.9941 119.309 85.0994 118.821 85.0994ZM129.032 76.74H129.862V83.44H129.032V76.74ZM126.472 77.91H129.342V78.58H126.472V77.91ZM124.072 84.9H130.102V85.58H124.072V84.9ZM124.072 82.86H124.902V85.2H124.072V82.86ZM122.952 77.39H123.772V81.66H122.952V77.39ZM122.952 81.4H123.632C124.272 81.4 124.905 81.3767 125.532 81.33C126.165 81.2833 126.832 81.1967 127.532 81.07L127.622 81.76C126.902 81.8933 126.222 81.9833 125.582 82.03C124.942 82.07 124.292 82.09 123.632 82.09H122.952V81.4ZM126.472 79.64H129.342V80.31H126.472V79.64ZM136.999 85.1207C136.438 85.1184 135.959 84.9704 135.561 84.6768C135.163 84.3833 134.859 83.956 134.648 83.3949C134.438 82.8338 134.332 82.1579 134.332 81.3672C134.332 80.5788 134.438 79.9053 134.648 79.3466C134.861 78.7879 135.167 78.3617 135.564 78.0682C135.965 77.7746 136.443 77.6278 136.999 77.6278C137.555 77.6278 138.032 77.7758 138.43 78.0717C138.828 78.3653 139.132 78.7914 139.343 79.3501C139.556 79.9065 139.662 80.5788 139.662 81.3672C139.662 82.1603 139.557 82.8374 139.346 83.3984C139.136 83.9571 138.831 84.3845 138.434 84.6804C138.036 84.974 137.558 85.1207 136.999 85.1207ZM136.999 84.1726C137.492 84.1726 137.876 83.9323 138.153 83.4517C138.433 82.9711 138.572 82.2763 138.572 81.3672C138.572 80.7635 138.508 80.2533 138.381 79.8366C138.255 79.4176 138.074 79.1004 137.837 78.8849C137.603 78.6671 137.323 78.5582 136.999 78.5582C136.509 78.5582 136.124 78.7997 135.845 79.2827C135.566 79.7656 135.425 80.4605 135.422 81.3672C135.422 81.9732 135.485 82.4858 135.611 82.9048C135.738 83.3215 135.92 83.6375 136.154 83.853C136.388 84.0661 136.67 84.1726 136.999 84.1726ZM140.972 85L144.147 78.7216V78.6683H140.475V77.7273H145.283V78.7003L142.119 85H140.972ZM148.748 80.47H149.568V82.09H148.748V80.47ZM152.888 76.74H153.718V82.06H152.888V76.74ZM146.388 80.75L146.288 80.14C146.868 80.14 147.488 80.1367 148.148 80.13C148.815 80.1167 149.492 80.0967 150.178 80.07C150.865 80.0367 151.532 79.9833 152.178 79.91L152.228 80.45C151.568 80.5433 150.895 80.6133 150.208 80.66C149.528 80.7 148.862 80.7267 148.208 80.74C147.562 80.7467 146.955 80.75 146.388 80.75ZM147.658 82.39H153.718V84.27H148.498V85.29H147.688V83.71H152.898V82.98H147.658V82.39ZM147.688 85.07H154.018V85.68H147.688V85.07ZM151.088 81.04H153.158V81.58H151.088V81.04ZM149.208 76.91C149.655 76.91 150.045 76.9633 150.378 77.07C150.712 77.1767 150.972 77.3333 151.158 77.54C151.345 77.7467 151.438 77.99 151.438 78.27C151.438 78.5433 151.345 78.7833 151.158 78.99C150.972 79.19 150.712 79.3467 150.378 79.46C150.045 79.5667 149.655 79.62 149.208 79.62C148.762 79.62 148.368 79.5667 148.028 79.46C147.695 79.3467 147.435 79.19 147.248 78.99C147.068 78.7833 146.978 78.5433 146.978 78.27C146.978 77.99 147.068 77.7467 147.248 77.54C147.435 77.3333 147.695 77.1767 148.028 77.07C148.368 76.9633 148.762 76.91 149.208 76.91ZM149.208 77.48C148.768 77.48 148.415 77.55 148.148 77.69C147.888 77.83 147.758 78.0233 147.758 78.27C147.758 78.5033 147.888 78.6933 148.148 78.84C148.415 78.98 148.768 79.05 149.208 79.05C149.648 79.05 149.998 78.98 150.258 78.84C150.525 78.6933 150.658 78.5033 150.658 78.27C150.658 78.0233 150.525 77.83 150.258 77.69C149.998 77.55 149.648 77.48 149.208 77.48ZM158.364 85V84.2045L160.825 81.6548C161.087 81.3778 161.304 81.1352 161.474 80.9268C161.647 80.7161 161.776 80.5161 161.862 80.3267C161.947 80.1373 161.989 79.9361 161.989 79.723C161.989 79.4815 161.933 79.2732 161.819 79.098C161.705 78.9205 161.55 78.7843 161.354 78.6896C161.157 78.5926 160.936 78.544 160.69 78.544C160.429 78.544 160.202 78.5973 160.008 78.7038C159.814 78.8104 159.665 78.9607 159.56 79.1548C159.456 79.349 159.404 79.5762 159.404 79.8366H158.357C158.357 79.3939 158.458 79.0069 158.662 78.6754C158.866 78.344 159.145 78.0871 159.5 77.9048C159.855 77.7202 160.259 77.6278 160.711 77.6278C161.168 77.6278 161.57 77.719 161.918 77.9013C162.269 78.0812 162.542 78.3274 162.739 78.6399C162.935 78.95 163.033 79.3004 163.033 79.6911C163.033 79.9609 162.982 80.2249 162.881 80.483C162.781 80.741 162.607 81.0286 162.359 81.3459C162.11 81.6607 161.764 82.0431 161.322 82.4929L159.876 84.0057V84.0589H163.151V85H158.364ZM167.028 85.0994C166.541 85.0994 166.105 85.0154 165.722 84.8473C165.34 84.6792 165.039 84.446 164.816 84.1477C164.596 83.8471 164.478 83.4991 164.461 83.1037H165.576C165.59 83.3191 165.662 83.5062 165.793 83.6648C165.925 83.821 166.098 83.9418 166.311 84.027C166.524 84.1122 166.761 84.1548 167.021 84.1548C167.308 84.1548 167.561 84.1051 167.781 84.0057C168.004 83.9062 168.178 83.7678 168.303 83.5902C168.429 83.4103 168.491 83.2031 168.491 82.9688C168.491 82.7249 168.429 82.5107 168.303 82.326C168.18 82.139 167.999 81.9922 167.76 81.8857C167.523 81.7791 167.237 81.7259 166.901 81.7259H166.286V80.831H166.901C167.17 80.831 167.407 80.7824 167.611 80.6854C167.817 80.5883 167.978 80.4534 168.094 80.2805C168.21 80.1054 168.268 79.9006 168.268 79.6662C168.268 79.4413 168.217 79.246 168.115 79.0803C168.016 78.9122 167.874 78.7808 167.689 78.6861C167.507 78.5914 167.291 78.544 167.043 78.544C166.806 78.544 166.585 78.5878 166.379 78.6754C166.175 78.7607 166.009 78.8838 165.881 79.0447C165.754 79.2034 165.685 79.3939 165.675 79.6165H164.614C164.625 79.2235 164.741 78.8778 164.962 78.5795C165.184 78.2812 165.478 78.0481 165.842 77.88C166.207 77.7119 166.612 77.6278 167.057 77.6278C167.523 77.6278 167.926 77.719 168.264 77.9013C168.605 78.0812 168.868 78.3215 169.053 78.6222C169.24 78.9228 169.332 79.2519 169.33 79.6094C169.332 80.0166 169.218 80.3622 168.989 80.6463C168.761 80.9304 168.458 81.121 168.08 81.218V81.2749C168.563 81.3482 168.937 81.54 169.202 81.8501C169.469 82.1603 169.602 82.545 169.599 83.0043C169.602 83.4044 169.491 83.763 169.266 84.0803C169.043 84.3975 168.739 84.6473 168.353 84.8295C167.967 85.0095 167.526 85.0994 167.028 85.0994ZM173.282 77.06C173.736 77.06 174.136 77.1467 174.482 77.32C174.836 77.4867 175.112 77.72 175.312 78.02C175.512 78.32 175.612 78.67 175.612 79.07C175.612 79.4633 175.512 79.8133 175.312 80.12C175.112 80.42 174.836 80.6533 174.482 80.82C174.136 80.9867 173.736 81.07 173.282 81.07C172.836 81.07 172.436 80.9867 172.082 80.82C171.729 80.6533 171.449 80.42 171.242 80.12C171.042 79.8133 170.942 79.4633 170.942 79.07C170.942 78.67 171.042 78.32 171.242 78.02C171.449 77.72 171.729 77.4867 172.082 77.32C172.436 77.1467 172.836 77.06 173.282 77.06ZM173.282 77.75C172.989 77.75 172.726 77.8067 172.492 77.92C172.266 78.0267 172.086 78.18 171.952 78.38C171.819 78.58 171.752 78.81 171.752 79.07C171.752 79.33 171.819 79.56 171.952 79.76C172.086 79.9533 172.266 80.1067 172.492 80.22C172.726 80.3333 172.989 80.39 173.282 80.39C173.576 80.39 173.836 80.3333 174.062 80.22C174.296 80.1067 174.479 79.9533 174.612 79.76C174.746 79.56 174.812 79.33 174.812 79.07C174.812 78.81 174.746 78.58 174.612 78.38C174.479 78.18 174.296 78.0267 174.062 77.92C173.836 77.8067 173.576 77.75 173.282 77.75ZM177.322 76.73H178.152V81.36H177.322V76.73ZM172.302 81.81H178.152V84H173.132V85.36H172.332V83.38H177.332V82.47H172.302V81.81ZM172.332 84.99H178.462V85.66H172.332V84.99Z" fill="black"/>
<path d="M299 81L303 85L307 81" stroke="#737373" stroke-linecap="round" stroke-linejoin="round"/>
<g filter="url(#filter1_d_129_2661)">
<path d="M83 118C83 113.582 86.5817 110 91 110H312C316.418 110 320 113.582 320 118V131C320 135.418 316.418 139 312 139H91C86.5817 139 83 135.418 83 131V118Z" fill="white"/>
</g>
<path d="M46.458 119.042H47.875V120.784C47.875 121.564 47.8057 122.314 47.667 123.033C47.5283 123.744 47.316 124.411 47.03 125.035C46.7527 125.65 46.393 126.196 45.951 126.673C45.5177 127.141 45.002 127.514 44.404 127.791L43.377 126.361C43.9057 126.127 44.3607 125.819 44.742 125.438C45.132 125.048 45.4527 124.606 45.704 124.112C45.9553 123.609 46.1417 123.076 46.263 122.513C46.393 121.95 46.458 121.373 46.458 120.784V119.042ZM46.796 119.042H48.2V120.784C48.2 121.347 48.2607 121.898 48.382 122.435C48.5033 122.972 48.6853 123.479 48.928 123.956C49.1793 124.433 49.4913 124.857 49.864 125.23C50.2453 125.594 50.6917 125.884 51.203 126.101L50.202 127.505C49.6213 127.236 49.1143 126.877 48.681 126.426C48.2563 125.975 47.9053 125.455 47.628 124.866C47.3507 124.268 47.1427 123.627 47.004 122.942C46.8653 122.249 46.796 121.529 46.796 120.784V119.042ZM51.788 118.093H53.517V130.17H51.788V118.093ZM63.214 118.119H64.956V126.725H63.214V118.119ZM64.475 121.473H66.555V122.89H64.475V121.473ZM59.873 119.016H61.706C61.706 120.108 61.4893 121.083 61.056 121.941C60.6227 122.799 59.99 123.531 59.158 124.138C58.3347 124.745 57.3207 125.221 56.116 125.568L55.401 124.203C56.3803 123.926 57.1993 123.57 57.858 123.137C58.5253 122.704 59.028 122.21 59.366 121.655C59.704 121.1 59.873 120.502 59.873 119.861V119.016ZM55.921 119.016H60.796V120.394H55.921V119.016ZM57.182 128.558H65.372V129.949H57.182V128.558ZM57.182 125.854H58.911V129.182H57.182V125.854Z" fill="black"/>
<path d="M101.17 124.84H101.99V127.09H101.17V124.84ZM101.58 120.32C102.22 120.32 102.787 120.42 103.28 120.62C103.773 120.813 104.16 121.087 104.44 121.44C104.727 121.793 104.87 122.21 104.87 122.69C104.87 123.17 104.727 123.59 104.44 123.95C104.16 124.303 103.773 124.577 103.28 124.77C102.787 124.963 102.22 125.06 101.58 125.06C100.947 125.06 100.38 124.963 99.88 124.77C99.3867 124.577 99 124.303 98.72 123.95C98.44 123.59 98.3 123.17 98.3 122.69C98.3 122.21 98.44 121.793 98.72 121.44C99 121.087 99.3867 120.813 99.88 120.62C100.38 120.42 100.947 120.32 101.58 120.32ZM101.58 120.99C101.1 120.99 100.673 121.06 100.3 121.2C99.9267 121.34 99.6333 121.54 99.42 121.8C99.2067 122.053 99.1 122.35 99.1 122.69C99.1 123.03 99.2067 123.33 99.42 123.59C99.6333 123.85 99.9267 124.05 100.3 124.19C100.673 124.33 101.1 124.4 101.58 124.4C102.06 124.4 102.487 124.33 102.86 124.19C103.233 124.05 103.527 123.85 103.74 123.59C103.96 123.33 104.07 123.03 104.07 122.69C104.07 122.35 103.96 122.053 103.74 121.8C103.527 121.54 103.233 121.34 102.86 121.2C102.487 121.06 102.06 120.99 101.58 120.99ZM97.5 126.93H105.7V127.62H97.5V126.93ZM107.129 120.76H114.399V121.44H107.129V120.76ZM106.699 125.6H114.899V126.28H106.699V125.6ZM110.369 126.15H111.189V128.79H110.369V126.15ZM110.779 121.96C111.699 121.96 112.419 122.09 112.939 122.35C113.459 122.61 113.719 122.983 113.719 123.47C113.719 123.943 113.459 124.313 112.939 124.58C112.419 124.84 111.699 124.97 110.779 124.97C109.859 124.97 109.139 124.84 108.619 124.58C108.099 124.313 107.839 123.943 107.839 123.47C107.839 122.983 108.099 122.61 108.619 122.35C109.139 122.09 109.859 121.96 110.779 121.96ZM110.779 122.59C110.119 122.59 109.606 122.667 109.239 122.82C108.879 122.967 108.699 123.183 108.699 123.47C108.699 123.743 108.879 123.957 109.239 124.11C109.606 124.263 110.119 124.34 110.779 124.34C111.439 124.34 111.949 124.263 112.309 124.11C112.676 123.957 112.859 123.743 112.859 123.47C112.859 123.183 112.676 122.967 112.309 122.82C111.949 122.667 111.439 122.59 110.779 122.59ZM110.369 119.68H111.189V121.21H110.369V119.68ZM121.504 120.727V128H120.403V121.828H120.36L118.62 122.964V121.913L120.435 120.727H121.504ZM126.003 128.121C125.442 128.118 124.963 127.97 124.565 127.677C124.167 127.383 123.863 126.956 123.652 126.395C123.441 125.834 123.336 125.158 123.336 124.367C123.336 123.579 123.441 122.905 123.652 122.347C123.865 121.788 124.171 121.362 124.568 121.068C124.968 120.775 125.447 120.628 126.003 120.628C126.559 120.628 127.036 120.776 127.434 121.072C127.832 121.365 128.136 121.791 128.347 122.35C128.56 122.906 128.666 123.579 128.666 124.367C128.666 125.16 128.561 125.837 128.35 126.398C128.14 126.957 127.835 127.384 127.438 127.68C127.04 127.974 126.562 128.121 126.003 128.121ZM126.003 127.173C126.495 127.173 126.88 126.932 127.157 126.452C127.436 125.971 127.576 125.276 127.576 124.367C127.576 123.763 127.512 123.253 127.384 122.837C127.259 122.418 127.078 122.1 126.841 121.885C126.607 121.667 126.327 121.558 126.003 121.558C125.513 121.558 125.128 121.8 124.849 122.283C124.57 122.766 124.429 123.46 124.426 124.367C124.426 124.973 124.489 125.486 124.615 125.905C124.742 126.321 124.923 126.638 125.158 126.853C125.392 127.066 125.674 127.173 126.003 127.173ZM130.64 127.098C130.446 127.098 130.279 127.029 130.139 126.892C130 126.752 129.93 126.584 129.93 126.388C129.93 126.194 130 126.028 130.139 125.891C130.279 125.751 130.446 125.681 130.64 125.681C130.834 125.681 131.001 125.751 131.141 125.891C131.28 126.028 131.35 126.194 131.35 126.388C131.35 126.518 131.317 126.638 131.251 126.746C131.187 126.853 131.102 126.938 130.995 127.002C130.888 127.066 130.77 127.098 130.64 127.098ZM130.64 123.455C130.446 123.455 130.279 123.386 130.139 123.249C130 123.109 129.93 122.941 129.93 122.744C129.93 122.55 130 122.384 130.139 122.247C130.279 122.107 130.446 122.038 130.64 122.038C130.834 122.038 131.001 122.107 131.141 122.247C131.28 122.384 131.35 122.55 131.35 122.744C131.35 122.875 131.317 122.994 131.251 123.103C131.187 123.21 131.102 123.295 130.995 123.359C130.888 123.423 130.77 123.455 130.64 123.455ZM135.29 128.121C134.729 128.118 134.25 127.97 133.852 127.677C133.454 127.383 133.15 126.956 132.939 126.395C132.729 125.834 132.623 125.158 132.623 124.367C132.623 123.579 132.729 122.905 132.939 122.347C133.152 121.788 133.458 121.362 133.855 121.068C134.256 120.775 134.734 120.628 135.29 120.628C135.846 120.628 136.324 120.776 136.721 121.072C137.119 121.365 137.423 121.791 137.634 122.35C137.847 122.906 137.953 123.579 137.953 124.367C137.953 125.16 137.848 125.837 137.637 126.398C137.427 126.957 137.123 127.384 136.725 127.68C136.327 127.974 135.849 128.121 135.29 128.121ZM135.29 127.173C135.783 127.173 136.167 126.932 136.444 126.452C136.724 125.971 136.863 125.276 136.863 124.367C136.863 123.763 136.799 123.253 136.672 122.837C136.546 122.418 136.365 122.1 136.128 121.885C135.894 121.667 135.614 121.558 135.29 121.558C134.8 121.558 134.415 121.8 134.136 122.283C133.857 122.766 133.716 123.46 133.713 124.367C133.713 124.973 133.776 125.486 133.902 125.905C134.029 126.321 134.211 126.638 134.445 126.853C134.679 127.066 134.961 127.173 135.29 127.173ZM141.745 128.121C141.184 128.118 140.705 127.97 140.307 127.677C139.909 127.383 139.605 126.956 139.394 126.395C139.184 125.834 139.078 125.158 139.078 124.367C139.078 123.579 139.184 122.905 139.394 122.347C139.607 121.788 139.913 121.362 140.311 121.068C140.711 120.775 141.189 120.628 141.745 120.628C142.302 120.628 142.779 120.776 143.176 121.072C143.574 121.365 143.878 121.791 144.089 122.35C144.302 122.906 144.409 123.579 144.409 124.367C144.409 125.16 144.303 125.837 144.093 126.398C143.882 126.957 143.578 127.384 143.18 127.68C142.782 127.974 142.304 128.121 141.745 128.121ZM141.745 127.173C142.238 127.173 142.622 126.932 142.899 126.452C143.179 125.971 143.318 125.276 143.318 124.367C143.318 123.763 143.254 123.253 143.127 122.837C143.001 122.418 142.82 122.1 142.583 121.885C142.349 121.667 142.07 121.558 141.745 121.558C141.255 121.558 140.87 121.8 140.591 122.283C140.312 122.766 140.171 123.46 140.169 124.367C140.169 124.973 140.231 125.486 140.357 125.905C140.485 126.321 140.666 126.638 140.9 126.853C141.134 127.066 141.416 127.173 141.745 127.173Z" fill="black"/>
<path d="M299 123L303 127L307 123" stroke="#737373" stroke-linecap="round" stroke-linejoin="round"/>
<path d="M44 482C44 477.582 47.5817 474 52 474H312C316.418 474 320 477.582 320 482V501C320 505.418 316.418 509 312 509H52C47.5817 509 44 505.418 44 501V482Z" fill="#EB793C"/>
<path d="M166.177 483.415H168.172V497.35H166.177V483.415ZM163.747 488.275H166.642V489.88H163.747V488.275ZM159.712 485.62H161.302V486.865C161.302 487.705 161.222 488.53 161.062 489.34C160.902 490.15 160.662 490.905 160.342 491.605C160.032 492.305 159.637 492.925 159.157 493.465C158.677 494.005 158.117 494.44 157.477 494.77L156.307 493.195C156.887 492.925 157.392 492.565 157.822 492.115C158.252 491.655 158.607 491.145 158.887 490.585C159.167 490.015 159.372 489.415 159.502 488.785C159.642 488.145 159.712 487.505 159.712 486.865V485.62ZM160.177 485.62H161.737V486.865C161.737 487.475 161.802 488.085 161.932 488.695C162.072 489.295 162.282 489.87 162.562 490.42C162.852 490.96 163.212 491.445 163.642 491.875C164.072 492.305 164.577 492.655 165.157 492.925L164.002 494.485C163.342 494.175 162.772 493.76 162.292 493.24C161.812 492.72 161.417 492.125 161.107 491.455C160.797 490.775 160.562 490.045 160.402 489.265C160.252 488.485 160.177 487.685 160.177 486.865V485.62ZM156.862 484.765H164.587V486.37H156.862V484.765ZM173.406 484.99H175.041V485.86C175.041 486.74 174.896 487.575 174.606 488.365C174.326 489.155 173.896 489.85 173.316 490.45C172.736 491.04 172.001 491.48 171.111 491.77L170.121 490.195C170.881 489.945 171.501 489.595 171.981 489.145C172.471 488.685 172.831 488.17 173.061 487.6C173.291 487.02 173.406 486.44 173.406 485.86V484.99ZM173.811 484.99H175.416V485.86C175.416 486.4 175.526 486.925 175.746 487.435C175.966 487.935 176.306 488.385 176.766 488.785C177.236 489.185 177.846 489.5 178.596 489.73L177.636 491.29C176.756 491.03 176.031 490.63 175.461 490.09C174.901 489.54 174.486 488.905 174.216 488.185C173.946 487.455 173.811 486.68 173.811 485.86V484.99ZM170.631 484.36H178.146V485.95H170.631V484.36ZM179.241 483.445H181.236V491.68H179.241V483.445ZM180.696 486.625H183.081V488.26H180.696V486.625ZM176.706 491.92C177.676 491.92 178.511 492.03 179.211 492.25C179.911 492.46 180.451 492.765 180.831 493.165C181.211 493.565 181.401 494.05 181.401 494.62C181.401 495.19 181.211 495.675 180.831 496.075C180.451 496.485 179.911 496.795 179.211 497.005C178.511 497.225 177.676 497.335 176.706 497.335C175.746 497.335 174.911 497.225 174.201 497.005C173.501 496.795 172.956 496.485 172.566 496.075C172.186 495.675 171.996 495.19 171.996 494.62C171.996 494.05 172.186 493.565 172.566 493.165C172.956 492.765 173.501 492.46 174.201 492.25C174.911 492.03 175.746 491.92 176.706 491.92ZM176.706 493.48C176.116 493.48 175.621 493.52 175.221 493.6C174.821 493.68 174.516 493.805 174.306 493.975C174.096 494.145 173.991 494.36 173.991 494.62C173.991 494.89 174.096 495.11 174.306 495.28C174.516 495.45 174.821 495.58 175.221 495.67C175.621 495.75 176.116 495.79 176.706 495.79C177.296 495.79 177.791 495.75 178.191 495.67C178.601 495.58 178.906 495.45 179.106 495.28C179.316 495.11 179.421 494.89 179.421 494.62C179.421 494.36 179.316 494.145 179.106 493.975C178.906 493.805 178.601 493.68 178.191 493.6C177.791 493.52 177.296 493.48 176.706 493.48ZM193.01 483.445H195.005V497.335H193.01V483.445ZM194.555 488.86H197V490.51H194.555V488.86ZM184.04 485.485H192.14V487.075H184.04V485.485ZM188.12 487.87C188.79 487.87 189.39 488.015 189.92 488.305C190.45 488.585 190.865 488.97 191.165 489.46C191.475 489.95 191.63 490.52 191.63 491.17C191.63 491.82 191.475 492.395 191.165 492.895C190.865 493.385 190.45 493.775 189.92 494.065C189.4 494.345 188.8 494.485 188.12 494.485C187.45 494.485 186.845 494.345 186.305 494.065C185.775 493.775 185.355 493.385 185.045 492.895C184.745 492.395 184.595 491.82 184.595 491.17C184.595 490.52 184.745 489.95 185.045 489.46C185.355 488.97 185.775 488.585 186.305 488.305C186.845 488.015 187.45 487.87 188.12 487.87ZM188.12 489.49C187.8 489.49 187.52 489.555 187.28 489.685C187.04 489.815 186.85 490.005 186.71 490.255C186.57 490.505 186.5 490.81 186.5 491.17C186.5 491.52 186.57 491.825 186.71 492.085C186.85 492.335 187.04 492.53 187.28 492.67C187.52 492.8 187.8 492.865 188.12 492.865C188.43 492.865 188.705 492.8 188.945 492.67C189.185 492.53 189.375 492.335 189.515 492.085C189.655 491.825 189.725 491.52 189.725 491.17C189.725 490.81 189.655 490.505 189.515 490.255C189.375 490.005 189.185 489.815 188.945 489.685C188.705 489.555 188.43 489.49 188.12 489.49ZM187.1 483.67H189.11V486.1H187.1V483.67ZM207.484 483.43H209.479V497.32H207.484V483.43ZM203.389 484.87H205.354C205.354 485.93 205.249 486.945 205.039 487.915C204.839 488.875 204.499 489.78 204.019 490.63C203.549 491.48 202.899 492.27 202.069 493C201.249 493.72 200.224 494.38 198.994 494.98L197.944 493.405C199.284 492.755 200.349 492.04 201.139 491.26C201.939 490.47 202.514 489.58 202.864 488.59C203.214 487.59 203.389 486.47 203.389 485.23V484.87ZM198.694 484.87H204.319V486.46H198.694V484.87Z" fill="white"/>
<g filter="url(#filter2_d_129_2661)">
<path d="M82 161C82 156.582 85.5817 153 90 153H311C315.418 153 319 156.582 319 161V174C319 178.418 315.418 182 311 182H90C85.5817 182 82 178.418 82 174V161Z" fill="white"/>
</g>
<path d="M45.211 162.458H46.628V163.212C46.628 163.975 46.5023 164.698 46.251 165.383C46.0083 166.068 45.6357 166.67 45.133 167.19C44.6303 167.701 43.9933 168.083 43.222 168.334L42.364 166.969C43.0227 166.752 43.56 166.449 43.976 166.059C44.4007 165.66 44.7127 165.214 44.912 164.72C45.1113 164.217 45.211 163.715 45.211 163.212V162.458ZM45.562 162.458H46.953V163.212C46.953 163.68 47.0483 164.135 47.239 164.577C47.4297 165.01 47.7243 165.4 48.123 165.747C48.5303 166.094 49.059 166.367 49.709 166.566L48.877 167.918C48.1143 167.693 47.486 167.346 46.992 166.878C46.5067 166.401 46.147 165.851 45.913 165.227C45.679 164.594 45.562 163.923 45.562 163.212V162.458ZM42.806 161.912H49.319V163.29H42.806V161.912ZM50.268 161.119H51.997V168.256H50.268V161.119ZM51.529 163.875H53.596V165.292H51.529V163.875ZM48.071 168.464C48.9117 168.464 49.6353 168.559 50.242 168.75C50.8487 168.932 51.3167 169.196 51.646 169.543C51.9753 169.89 52.14 170.31 52.14 170.804C52.14 171.298 51.9753 171.718 51.646 172.065C51.3167 172.42 50.8487 172.689 50.242 172.871C49.6353 173.062 48.9117 173.157 48.071 173.157C47.239 173.157 46.5153 173.062 45.9 172.871C45.2933 172.689 44.821 172.42 44.483 172.065C44.1537 171.718 43.989 171.298 43.989 170.804C43.989 170.31 44.1537 169.89 44.483 169.543C44.821 169.196 45.2933 168.932 45.9 168.75C46.5153 168.559 47.239 168.464 48.071 168.464ZM48.071 169.816C47.5597 169.816 47.1307 169.851 46.784 169.92C46.4373 169.989 46.173 170.098 45.991 170.245C45.809 170.392 45.718 170.579 45.718 170.804C45.718 171.038 45.809 171.229 45.991 171.376C46.173 171.523 46.4373 171.636 46.784 171.714C47.1307 171.783 47.5597 171.818 48.071 171.818C48.5823 171.818 49.0113 171.783 49.358 171.714C49.7133 171.636 49.9777 171.523 50.151 171.376C50.333 171.229 50.424 171.038 50.424 170.804C50.424 170.579 50.333 170.392 50.151 170.245C49.9777 170.098 49.7133 169.989 49.358 169.92C49.0113 169.851 48.5823 169.816 48.071 169.816ZM54.492 170.336H65.399V171.74H54.492V170.336ZM59.016 167.658H60.745V170.713H59.016V167.658ZM58.964 161.782H60.472V162.653C60.472 163.164 60.3983 163.658 60.251 164.135C60.1123 164.612 59.9 165.062 59.614 165.487C59.3367 165.912 58.9943 166.297 58.587 166.644C58.1797 166.982 57.7117 167.272 57.183 167.515C56.663 167.758 56.0867 167.935 55.454 168.048L54.739 166.605C55.2937 166.518 55.792 166.38 56.234 166.189C56.676 165.998 57.066 165.773 57.404 165.513C57.7507 165.244 58.0367 164.954 58.262 164.642C58.496 164.321 58.6693 163.992 58.782 163.654C58.9033 163.316 58.964 162.982 58.964 162.653V161.782ZM59.289 161.782H60.81V162.653C60.81 162.991 60.8663 163.329 60.979 163.667C61.1003 164.005 61.2737 164.33 61.499 164.642C61.733 164.954 62.019 165.244 62.357 165.513C62.695 165.773 63.085 165.998 63.527 166.189C63.9777 166.38 64.476 166.518 65.022 166.605L64.307 168.048C63.6743 167.927 63.098 167.749 62.578 167.515C62.058 167.272 61.5943 166.982 61.187 166.644C60.7797 166.306 60.433 165.929 60.147 165.513C59.8697 165.088 59.6573 164.638 59.51 164.161C59.3627 163.676 59.289 163.173 59.289 162.653V161.782Z" fill="black"/>
<path d="M101.26 163.32H102.13C102.13 164.073 101.96 164.757 101.62 165.37C101.28 165.977 100.797 166.497 100.17 166.93C99.55 167.363 98.8067 167.707 97.94 167.96L97.6 167.31C98.36 167.09 99.0133 166.803 99.56 166.45C100.107 166.097 100.527 165.687 100.82 165.22C101.113 164.747 101.26 164.23 101.26 163.67V163.32ZM98.06 163.32H101.82V163.99H98.06V163.32ZM104.11 162.74H104.94V167.89H104.11V162.74ZM102.15 165.06H104.26V165.75H102.15V165.06ZM99.11 168.28H104.94V171.65H99.11V168.28ZM104.12 168.94H99.92V170.98H104.12V168.94ZM108.589 163.28H109.249V164.48C109.249 164.933 109.166 165.383 108.999 165.83C108.839 166.277 108.603 166.68 108.289 167.04C107.976 167.4 107.596 167.68 107.149 167.88L106.699 167.23C107.093 167.05 107.429 166.81 107.709 166.51C107.996 166.21 108.213 165.883 108.359 165.53C108.513 165.177 108.589 164.827 108.589 164.48V163.28ZM108.729 163.28H109.389V164.48C109.389 164.82 109.459 165.157 109.599 165.49C109.746 165.817 109.956 166.113 110.229 166.38C110.503 166.647 110.829 166.857 111.209 167.01L110.769 167.65C110.336 167.47 109.966 167.217 109.659 166.89C109.353 166.563 109.119 166.193 108.959 165.78C108.806 165.367 108.729 164.933 108.729 164.48V163.28ZM113.529 162.74H114.319V168.2H113.529V162.74ZM112.069 165.09H113.769V165.78H112.069V165.09ZM111.589 162.9H112.369V168.15H111.589V162.9ZM108.259 168.7H114.319V171.78H113.499V169.38H108.259V168.7ZM118.308 163.43C118.748 163.43 119.138 163.56 119.478 163.82C119.818 164.073 120.082 164.437 120.268 164.91C120.462 165.383 120.558 165.94 120.558 166.58C120.558 167.22 120.462 167.777 120.268 168.25C120.082 168.723 119.818 169.09 119.478 169.35C119.138 169.61 118.748 169.74 118.308 169.74C117.875 169.74 117.485 169.61 117.138 169.35C116.798 169.09 116.532 168.723 116.338 168.25C116.152 167.777 116.058 167.22 116.058 166.58C116.058 165.94 116.152 165.383 116.338 164.91C116.532 164.437 116.798 164.073 117.138 163.82C117.485 163.56 117.875 163.43 118.308 163.43ZM118.308 164.17C118.022 164.17 117.768 164.27 117.548 164.47C117.328 164.663 117.155 164.943 117.028 165.31C116.908 165.67 116.848 166.093 116.848 166.58C116.848 167.067 116.908 167.493 117.028 167.86C117.155 168.22 117.328 168.5 117.548 168.7C117.768 168.9 118.022 169 118.308 169C118.602 169 118.858 168.9 119.078 168.7C119.298 168.5 119.468 168.22 119.588 167.86C119.715 167.493 119.778 167.067 119.778 166.58C119.778 166.093 119.715 165.67 119.588 165.31C119.468 164.943 119.298 164.663 119.078 164.47C118.858 164.27 118.602 164.17 118.308 164.17ZM122.518 162.73H123.338V171.79H122.518V162.73ZM120.288 166.18H122.888V166.85H120.288V166.18Z" fill="black"/>
<path d="M127 161.5L127 172.5" stroke="#A4A4A4"/>
<rect x="42" y="197" width="278" height="52" fill="white" stroke="#E4E4E7"/>
<path d="M72 233C71.7667 233 71.5667 232.933 71.4 232.8C71.2333 232.667 71.1083 232.492 71.025 232.275C70.7083 231.342 70.3083 230.467 69.825 229.65C69.3583 228.833 68.7 227.875 67.85 226.775C67 225.675 66.3083 224.625 65.775 223.625C65.2583 222.625 65 221.417 65 220C65 218.05 65.675 216.4 67.025 215.05C68.3917 213.683 70.05 213 72 213C73.95 213 75.6 213.683 76.95 215.05C78.3167 216.4 79 218.05 79 220C79 221.517 78.7083 222.783 78.125 223.8C77.5583 224.8 76.9 225.792 76.15 226.775C75.25 227.975 74.5667 228.975 74.1 229.775C73.65 230.558 73.275 231.392 72.975 232.275C72.8917 232.508 72.7583 232.692 72.575 232.825C72.4083 232.942 72.2167 233 72 233ZM72 222.5C72.7 222.5 73.2917 222.258 73.775 221.775C74.2583 221.292 74.5 220.7 74.5 220C74.5 219.3 74.2583 218.708 73.775 218.225C73.2917 217.742 72.7 217.5 72 217.5C71.3 217.5 70.7083 217.742 70.225 218.225C69.7417 218.708 69.5 219.3 69.5 220C69.5 220.7 69.7417 221.292 70.225 221.775C70.7083 222.258 71.3 222.5 72 222.5Z" fill="#783D33"/>
<path d="M109.45 211.16C109.903 211.16 110.303 211.24 110.65 211.4C110.997 211.553 111.267 211.77 111.46 212.05C111.66 212.323 111.76 212.647 111.76 213.02C111.76 213.38 111.66 213.703 111.46 213.99C111.267 214.27 110.997 214.49 110.65 214.65C110.303 214.803 109.903 214.88 109.45 214.88C109.01 214.88 108.617 214.803 108.27 214.65C107.923 214.49 107.65 214.27 107.45 213.99C107.25 213.703 107.15 213.38 107.15 213.02C107.15 212.647 107.25 212.323 107.45 212.05C107.65 211.77 107.923 211.553 108.27 211.4C108.617 211.24 109.01 211.16 109.45 211.16ZM109.45 211.84C109.163 211.84 108.907 211.89 108.68 211.99C108.453 212.09 108.273 212.23 108.14 212.41C108.013 212.583 107.95 212.787 107.95 213.02C107.95 213.247 108.013 213.45 108.14 213.63C108.273 213.803 108.453 213.94 108.68 214.04C108.907 214.14 109.163 214.19 109.45 214.19C109.75 214.19 110.013 214.14 110.24 214.04C110.467 213.94 110.643 213.803 110.77 213.63C110.903 213.45 110.97 213.247 110.97 213.02C110.97 212.787 110.903 212.583 110.77 212.41C110.643 212.23 110.467 212.09 110.24 211.99C110.013 211.89 109.75 211.84 109.45 211.84ZM109.09 215.89H109.92V219.5H109.09V215.89ZM113.09 210.74H113.91V219.78H113.09V210.74ZM106.59 216.34L106.48 215.64C107.04 215.64 107.653 215.633 108.32 215.62C108.993 215.607 109.683 215.577 110.39 215.53C111.103 215.483 111.787 215.41 112.44 215.31L112.5 215.93C111.827 216.057 111.14 216.15 110.44 216.21C109.74 216.263 109.06 216.297 108.4 216.31C107.747 216.323 107.143 216.333 106.59 216.34ZM122.269 210.73H123.109V219.78H122.269V210.73ZM118.209 212.88H118.879V213.66C118.879 214.14 118.816 214.607 118.689 215.06C118.563 215.507 118.383 215.923 118.149 216.31C117.923 216.697 117.653 217.037 117.339 217.33C117.033 217.623 116.696 217.857 116.329 218.03L115.869 217.39C116.203 217.237 116.509 217.03 116.789 216.77C117.076 216.51 117.323 216.217 117.529 215.89C117.743 215.557 117.909 215.2 118.029 214.82C118.149 214.44 118.209 214.053 118.209 213.66V212.88ZM118.359 212.88H119.029V213.66C119.029 214.033 119.089 214.403 119.209 214.77C119.329 215.13 119.496 215.47 119.709 215.79C119.923 216.103 120.173 216.383 120.459 216.63C120.746 216.877 121.059 217.077 121.399 217.23L120.939 217.87C120.573 217.703 120.233 217.48 119.919 217.2C119.606 216.913 119.333 216.587 119.099 216.22C118.866 215.847 118.683 215.443 118.549 215.01C118.423 214.577 118.359 214.127 118.359 213.66V212.88ZM116.109 212.3H121.089V212.97H116.109V212.3ZM118.199 210.9H119.029V212.67H118.199V210.9ZM134.115 210.73H134.945V219.79H134.115V210.73ZM130.175 211.43C130.622 211.43 131.015 211.56 131.355 211.82C131.702 212.073 131.972 212.437 132.165 212.91C132.365 213.383 132.465 213.94 132.465 214.58C132.465 215.22 132.365 215.777 132.165 216.25C131.972 216.723 131.702 217.09 131.355 217.35C131.015 217.61 130.622 217.74 130.175 217.74C129.728 217.74 129.332 217.61 128.985 217.35C128.638 217.09 128.365 216.723 128.165 216.25C127.972 215.777 127.875 215.22 127.875 214.58C127.875 213.94 127.972 213.383 128.165 212.91C128.365 212.437 128.638 212.073 128.985 211.82C129.332 211.56 129.728 211.43 130.175 211.43ZM130.175 212.17C129.875 212.17 129.612 212.27 129.385 212.47C129.165 212.663 128.992 212.943 128.865 213.31C128.738 213.67 128.675 214.093 128.675 214.58C128.675 215.067 128.738 215.493 128.865 215.86C128.992 216.22 129.165 216.5 129.385 216.7C129.612 216.9 129.875 217 130.175 217C130.468 217 130.725 216.9 130.945 216.7C131.172 216.5 131.348 216.22 131.475 215.86C131.602 215.493 131.665 215.067 131.665 214.58C131.665 214.093 131.602 213.67 131.475 213.31C131.348 212.943 131.172 212.663 130.945 212.47C130.725 212.27 130.468 212.17 130.175 212.17ZM136.734 215.4H144.934V216.07H136.734V215.4ZM137.774 210.95H143.884V213.1H138.614V214.29H137.794V212.48H143.064V211.61H137.774V210.95ZM137.794 213.98H144.074V214.63H137.794V213.98ZM137.844 216.89H143.894V219.66H137.844V216.89ZM143.074 217.56H138.654V218.98H143.074V217.56Z" fill="black"/>
<path d="M111.02 227.8H113.53V228.48H111.02V227.8ZM108.83 225.51H109.51V227.13C109.51 227.63 109.447 228.123 109.32 228.61C109.2 229.097 109.027 229.55 108.8 229.97C108.573 230.39 108.307 230.763 108 231.09C107.7 231.417 107.37 231.677 107.01 231.87L106.49 231.2C106.823 231.04 107.13 230.817 107.41 230.53C107.697 230.243 107.947 229.917 108.16 229.55C108.373 229.177 108.537 228.787 108.65 228.38C108.77 227.967 108.83 227.55 108.83 227.13V225.51ZM109 225.51H109.67V227.13C109.67 227.537 109.727 227.94 109.84 228.34C109.96 228.74 110.127 229.117 110.34 229.47C110.553 229.817 110.8 230.127 111.08 230.4C111.367 230.673 111.673 230.887 112 231.04L111.5 231.71C111.14 231.523 110.807 231.273 110.5 230.96C110.193 230.647 109.927 230.287 109.7 229.88C109.48 229.473 109.307 229.037 109.18 228.57C109.06 228.103 109 227.623 109 227.13V225.51ZM113.12 224.73H113.94V233.79H113.12V224.73ZM119.359 228.99H120.189V230.37H119.359V228.99ZM119.779 224.84C120.779 224.84 121.559 224.977 122.119 225.25C122.679 225.517 122.959 225.9 122.959 226.4C122.959 226.907 122.679 227.297 122.119 227.57C121.559 227.837 120.779 227.97 119.779 227.97C118.786 227.97 118.006 227.837 117.439 227.57C116.879 227.297 116.599 226.907 116.599 226.4C116.599 225.9 116.879 225.517 117.439 225.25C118.006 224.977 118.786 224.84 119.779 224.84ZM119.779 225.47C119.293 225.47 118.876 225.507 118.529 225.58C118.183 225.653 117.916 225.76 117.729 225.9C117.549 226.033 117.459 226.2 117.459 226.4C117.459 226.6 117.549 226.773 117.729 226.92C117.916 227.06 118.183 227.167 118.529 227.24C118.876 227.307 119.293 227.34 119.779 227.34C120.273 227.34 120.693 227.307 121.039 227.24C121.386 227.167 121.649 227.06 121.829 226.92C122.016 226.773 122.109 226.6 122.109 226.4C122.109 226.2 122.016 226.033 121.829 225.9C121.649 225.76 121.386 225.653 121.039 225.58C120.693 225.507 120.273 225.47 119.779 225.47ZM115.699 228.56H123.869V229.23H115.699V228.56ZM116.689 230.07H122.819V232.11H117.519V233.2H116.709V231.5H122.009V230.71H116.689V230.07ZM116.709 233.03H123.089V233.68H116.709V233.03ZM127.535 229.98H135.735V230.66H127.535V229.98ZM131.205 230.4H132.025V233.77H131.205V230.4ZM128.585 225.23H134.685V228.76H128.585V225.23ZM133.865 225.9H129.395V228.1H133.865V225.9ZM136.744 229.43H144.914V230.11H136.744V229.43ZM137.794 232.9H144.004V233.58H137.794V232.9ZM137.794 230.98H138.624V233.13H137.794V230.98ZM140.404 224.98H141.124V225.42C141.124 225.753 141.061 226.067 140.934 226.36C140.807 226.653 140.631 226.927 140.404 227.18C140.177 227.427 139.911 227.65 139.604 227.85C139.304 228.043 138.981 228.21 138.634 228.35C138.294 228.483 137.941 228.583 137.574 228.65L137.244 227.99C137.557 227.937 137.867 227.853 138.174 227.74C138.487 227.627 138.777 227.49 139.044 227.33C139.311 227.17 139.547 226.99 139.754 226.79C139.961 226.583 140.121 226.367 140.234 226.14C140.347 225.907 140.404 225.667 140.404 225.42V224.98ZM140.544 224.98H141.254V225.42C141.254 225.667 141.311 225.903 141.424 226.13C141.537 226.357 141.697 226.57 141.904 226.77C142.111 226.97 142.347 227.153 142.614 227.32C142.887 227.487 143.177 227.627 143.484 227.74C143.791 227.853 144.101 227.937 144.414 227.99L144.084 228.65C143.724 228.583 143.371 228.483 143.024 228.35C142.684 228.21 142.361 228.04 142.054 227.84C141.754 227.64 141.491 227.417 141.264 227.17C141.037 226.923 140.861 226.653 140.734 226.36C140.607 226.06 140.544 225.747 140.544 225.42V224.98ZM146.963 225.32H152.623V225.99H146.963V225.32ZM145.943 229.2H154.113V229.89H145.943V229.2ZM149.593 229.66H150.423V233.79H149.593V229.66ZM152.223 225.32H153.043V226.11C153.043 226.423 153.037 226.753 153.023 227.1C153.017 227.447 152.99 227.83 152.943 228.25C152.897 228.663 152.817 229.123 152.703 229.63L151.873 229.52C152.053 228.793 152.157 228.157 152.183 227.61C152.21 227.063 152.223 226.563 152.223 226.11V225.32ZM157.779 229.98H165.979V230.66H157.779V229.98ZM161.449 230.4H162.269V233.77H161.449V230.4ZM158.829 225.23H164.929V228.76H158.829V225.23ZM164.109 225.9H159.639V228.1H164.109V225.9ZM166.988 229.43H175.158V230.11H166.988V229.43ZM168.038 232.9H174.248V233.58H168.038V232.9ZM168.038 230.98H168.868V233.13H168.038V230.98ZM170.648 224.98H171.368V225.42C171.368 225.753 171.305 226.067 171.178 226.36C171.052 226.653 170.875 226.927 170.648 227.18C170.422 227.427 170.155 227.65 169.848 227.85C169.548 228.043 169.225 228.21 168.878 228.35C168.538 228.483 168.185 228.583 167.818 228.65L167.488 227.99C167.802 227.937 168.112 227.853 168.418 227.74C168.732 227.627 169.022 227.49 169.288 227.33C169.555 227.17 169.792 226.99 169.998 226.79C170.205 226.583 170.365 226.367 170.478 226.14C170.592 225.907 170.648 225.667 170.648 225.42V224.98ZM170.788 224.98H171.498V225.42C171.498 225.667 171.555 225.903 171.668 226.13C171.782 226.357 171.942 226.57 172.148 226.77C172.355 226.97 172.592 227.153 172.858 227.32C173.132 227.487 173.422 227.627 173.728 227.74C174.035 227.853 174.345 227.937 174.658 227.99L174.328 228.65C173.968 228.583 173.615 228.483 173.268 228.35C172.928 228.21 172.605 228.04 172.298 227.84C171.998 227.64 171.735 227.417 171.508 227.17C171.282 226.923 171.105 226.653 170.978 226.36C170.852 226.06 170.788 225.747 170.788 225.42V224.98ZM176.188 229.19H184.368V229.86H176.188V229.19ZM179.868 227.74H180.678V229.47H179.868V227.74ZM177.218 227.48H183.408V228.15H177.218V227.48ZM177.218 225.15H183.348V225.81H178.038V227.88H177.218V225.15ZM180.268 230.51C181.234 230.51 181.991 230.653 182.538 230.94C183.084 231.22 183.358 231.62 183.358 232.14C183.358 232.66 183.084 233.06 182.538 233.34C181.991 233.627 181.234 233.77 180.268 233.77C179.301 233.77 178.541 233.627 177.988 233.34C177.441 233.06 177.168 232.66 177.168 232.14C177.168 231.62 177.441 231.22 177.988 230.94C178.541 230.653 179.301 230.51 180.268 230.51ZM180.258 231.16C179.791 231.16 179.388 231.2 179.048 231.28C178.714 231.353 178.458 231.463 178.278 231.61C178.098 231.75 178.008 231.927 178.008 232.14C178.008 232.347 178.098 232.523 178.278 232.67C178.458 232.817 178.714 232.927 179.048 233C179.388 233.08 179.791 233.12 180.258 233.12C180.738 233.12 181.144 233.08 181.478 233C181.818 232.927 182.078 232.817 182.258 232.67C182.438 232.523 182.528 232.347 182.528 232.14C182.528 231.927 182.438 231.75 182.258 231.61C182.078 231.463 181.818 231.353 181.478 231.28C181.144 231.2 180.738 231.16 180.258 231.16Z" fill="#71717A"/>
<rect x="42" y="246" width="278" height="52" fill="white" stroke="#E4E4E7"/>
<path d="M72 282C71.7667 282 71.5667 281.933 71.4 281.8C71.2333 281.667 71.1083 281.492 71.025 281.275C70.7083 280.342 70.3083 279.467 69.825 278.65C69.3583 277.833 68.7 276.875 67.85 275.775C67 274.675 66.3083 273.625 65.775 272.625C65.2583 271.625 65 270.417 65 269C65 267.05 65.675 265.4 67.025 264.05C68.3917 262.683 70.05 262 72 262C73.95 262 75.6 262.683 76.95 264.05C78.3167 265.4 79 267.05 79 269C79 270.517 78.7083 271.783 78.125 272.8C77.5583 273.8 76.9 274.792 76.15 275.775C75.25 276.975 74.5667 277.975 74.1 278.775C73.65 279.558 73.275 280.392 72.975 281.275C72.8917 281.508 72.7583 281.692 72.575 281.825C72.4083 281.942 72.2167 282 72 282ZM72 271.5C72.7 271.5 73.2917 271.258 73.775 270.775C74.2583 270.292 74.5 269.7 74.5 269C74.5 268.3 74.2583 267.708 73.775 267.225C73.2917 266.742 72.7 266.5 72 266.5C71.3 266.5 70.7083 266.742 70.225 267.225C69.7417 267.708 69.5 268.3 69.5 269C69.5 269.7 69.7417 270.292 70.225 270.775C70.7083 271.258 71.3 271.5 72 271.5Z" fill="#783D33"/>
<path d="M109.45 260.16C109.903 260.16 110.303 260.24 110.65 260.4C110.997 260.553 111.267 260.77 111.46 261.05C111.66 261.323 111.76 261.647 111.76 262.02C111.76 262.38 111.66 262.703 111.46 262.99C111.267 263.27 110.997 263.49 110.65 263.65C110.303 263.803 109.903 263.88 109.45 263.88C109.01 263.88 108.617 263.803 108.27 263.65C107.923 263.49 107.65 263.27 107.45 262.99C107.25 262.703 107.15 262.38 107.15 262.02C107.15 261.647 107.25 261.323 107.45 261.05C107.65 260.77 107.923 260.553 108.27 260.4C108.617 260.24 109.01 260.16 109.45 260.16ZM109.45 260.84C109.163 260.84 108.907 260.89 108.68 260.99C108.453 261.09 108.273 261.23 108.14 261.41C108.013 261.583 107.95 261.787 107.95 262.02C107.95 262.247 108.013 262.45 108.14 262.63C108.273 262.803 108.453 262.94 108.68 263.04C108.907 263.14 109.163 263.19 109.45 263.19C109.75 263.19 110.013 263.14 110.24 263.04C110.467 262.94 110.643 262.803 110.77 262.63C110.903 262.45 110.97 262.247 110.97 262.02C110.97 261.787 110.903 261.583 110.77 261.41C110.643 261.23 110.467 261.09 110.24 260.99C110.013 260.89 109.75 260.84 109.45 260.84ZM109.09 264.89H109.92V268.5H109.09V264.89ZM113.09 259.74H113.91V268.78H113.09V259.74ZM106.59 265.34L106.48 264.64C107.04 264.64 107.653 264.633 108.32 264.62C108.993 264.607 109.683 264.577 110.39 264.53C111.103 264.483 111.787 264.41 112.44 264.31L112.5 264.93C111.827 265.057 111.14 265.15 110.44 265.21C109.74 265.263 109.06 265.297 108.4 265.31C107.747 265.323 107.143 265.333 106.59 265.34ZM122.269 259.73H123.109V268.78H122.269V259.73ZM118.209 261.88H118.879V262.66C118.879 263.14 118.816 263.607 118.689 264.06C118.563 264.507 118.383 264.923 118.149 265.31C117.923 265.697 117.653 266.037 117.339 266.33C117.033 266.623 116.696 266.857 116.329 267.03L115.869 266.39C116.203 266.237 116.509 266.03 116.789 265.77C117.076 265.51 117.323 265.217 117.529 264.89C117.743 264.557 117.909 264.2 118.029 263.82C118.149 263.44 118.209 263.053 118.209 262.66V261.88ZM118.359 261.88H119.029V262.66C119.029 263.033 119.089 263.403 119.209 263.77C119.329 264.13 119.496 264.47 119.709 264.79C119.923 265.103 120.173 265.383 120.459 265.63C120.746 265.877 121.059 266.077 121.399 266.23L120.939 266.87C120.573 266.703 120.233 266.48 119.919 266.2C119.606 265.913 119.333 265.587 119.099 265.22C118.866 264.847 118.683 264.443 118.549 264.01C118.423 263.577 118.359 263.127 118.359 262.66V261.88ZM116.109 261.3H121.089V261.97H116.109V261.3ZM118.199 259.9H119.029V261.67H118.199V259.9ZM134.115 259.73H134.945V268.79H134.115V259.73ZM130.175 260.43C130.622 260.43 131.015 260.56 131.355 260.82C131.702 261.073 131.972 261.437 132.165 261.91C132.365 262.383 132.465 262.94 132.465 263.58C132.465 264.22 132.365 264.777 132.165 265.25C131.972 265.723 131.702 266.09 131.355 266.35C131.015 266.61 130.622 266.74 130.175 266.74C129.728 266.74 129.332 266.61 128.985 266.35C128.638 266.09 128.365 265.723 128.165 265.25C127.972 264.777 127.875 264.22 127.875 263.58C127.875 262.94 127.972 262.383 128.165 261.91C128.365 261.437 128.638 261.073 128.985 260.82C129.332 260.56 129.728 260.43 130.175 260.43ZM130.175 261.17C129.875 261.17 129.612 261.27 129.385 261.47C129.165 261.663 128.992 261.943 128.865 262.31C128.738 262.67 128.675 263.093 128.675 263.58C128.675 264.067 128.738 264.493 128.865 264.86C128.992 265.22 129.165 265.5 129.385 265.7C129.612 265.9 129.875 266 130.175 266C130.468 266 130.725 265.9 130.945 265.7C131.172 265.5 131.348 265.22 131.475 264.86C131.602 264.493 131.665 264.067 131.665 263.58C131.665 263.093 131.602 262.67 131.475 262.31C131.348 261.943 131.172 261.663 130.945 261.47C130.725 261.27 130.468 261.17 130.175 261.17ZM136.734 264.4H144.934V265.07H136.734V264.4ZM137.774 259.95H143.884V262.1H138.614V263.29H137.794V261.48H143.064V260.61H137.774V259.95ZM137.794 262.98H144.074V263.63H137.794V262.98ZM137.844 265.89H143.894V268.66H137.844V265.89ZM143.074 266.56H138.654V267.98H143.074V266.56Z" fill="black"/>
<path d="M111.02 276.8H113.53V277.48H111.02V276.8ZM108.83 274.51H109.51V276.13C109.51 276.63 109.447 277.123 109.32 277.61C109.2 278.097 109.027 278.55 108.8 278.97C108.573 279.39 108.307 279.763 108 280.09C107.7 280.417 107.37 280.677 107.01 280.87L106.49 280.2C106.823 280.04 107.13 279.817 107.41 279.53C107.697 279.243 107.947 278.917 108.16 278.55C108.373 278.177 108.537 277.787 108.65 277.38C108.77 276.967 108.83 276.55 108.83 276.13V274.51ZM109 274.51H109.67V276.13C109.67 276.537 109.727 276.94 109.84 277.34C109.96 277.74 110.127 278.117 110.34 278.47C110.553 278.817 110.8 279.127 111.08 279.4C111.367 279.673 111.673 279.887 112 280.04L111.5 280.71C111.14 280.523 110.807 280.273 110.5 279.96C110.193 279.647 109.927 279.287 109.7 278.88C109.48 278.473 109.307 278.037 109.18 277.57C109.06 277.103 109 276.623 109 276.13V274.51ZM113.12 273.73H113.94V282.79H113.12V273.73ZM119.359 277.99H120.189V279.37H119.359V277.99ZM119.779 273.84C120.779 273.84 121.559 273.977 122.119 274.25C122.679 274.517 122.959 274.9 122.959 275.4C122.959 275.907 122.679 276.297 122.119 276.57C121.559 276.837 120.779 276.97 119.779 276.97C118.786 276.97 118.006 276.837 117.439 276.57C116.879 276.297 116.599 275.907 116.599 275.4C116.599 274.9 116.879 274.517 117.439 274.25C118.006 273.977 118.786 273.84 119.779 273.84ZM119.779 274.47C119.293 274.47 118.876 274.507 118.529 274.58C118.183 274.653 117.916 274.76 117.729 274.9C117.549 275.033 117.459 275.2 117.459 275.4C117.459 275.6 117.549 275.773 117.729 275.92C117.916 276.06 118.183 276.167 118.529 276.24C118.876 276.307 119.293 276.34 119.779 276.34C120.273 276.34 120.693 276.307 121.039 276.24C121.386 276.167 121.649 276.06 121.829 275.92C122.016 275.773 122.109 275.6 122.109 275.4C122.109 275.2 122.016 275.033 121.829 274.9C121.649 274.76 121.386 274.653 121.039 274.58C120.693 274.507 120.273 274.47 119.779 274.47ZM115.699 277.56H123.869V278.23H115.699V277.56ZM116.689 279.07H122.819V281.11H117.519V282.2H116.709V280.5H122.009V279.71H116.689V279.07ZM116.709 282.03H123.089V282.68H116.709V282.03ZM127.535 278.98H135.735V279.66H127.535V278.98ZM131.205 279.4H132.025V282.77H131.205V279.4ZM128.585 274.23H134.685V277.76H128.585V274.23ZM133.865 274.9H129.395V277.1H133.865V274.9ZM136.744 278.43H144.914V279.11H136.744V278.43ZM137.794 281.9H144.004V282.58H137.794V281.9ZM137.794 279.98H138.624V282.13H137.794V279.98ZM140.404 273.98H141.124V274.42C141.124 274.753 141.061 275.067 140.934 275.36C140.807 275.653 140.631 275.927 140.404 276.18C140.177 276.427 139.911 276.65 139.604 276.85C139.304 277.043 138.981 277.21 138.634 277.35C138.294 277.483 137.941 277.583 137.574 277.65L137.244 276.99C137.557 276.937 137.867 276.853 138.174 276.74C138.487 276.627 138.777 276.49 139.044 276.33C139.311 276.17 139.547 275.99 139.754 275.79C139.961 275.583 140.121 275.367 140.234 275.14C140.347 274.907 140.404 274.667 140.404 274.42V273.98ZM140.544 273.98H141.254V274.42C141.254 274.667 141.311 274.903 141.424 275.13C141.537 275.357 141.697 275.57 141.904 275.77C142.111 275.97 142.347 276.153 142.614 276.32C142.887 276.487 143.177 276.627 143.484 276.74C143.791 276.853 144.101 276.937 144.414 276.99L144.084 277.65C143.724 277.583 143.371 277.483 143.024 277.35C142.684 277.21 142.361 277.04 142.054 276.84C141.754 276.64 141.491 276.417 141.264 276.17C141.037 275.923 140.861 275.653 140.734 275.36C140.607 275.06 140.544 274.747 140.544 274.42V273.98ZM146.963 274.32H152.623V274.99H146.963V274.32ZM145.943 278.2H154.113V278.89H145.943V278.2ZM149.593 278.66H150.423V282.79H149.593V278.66ZM152.223 274.32H153.043V275.11C153.043 275.423 153.037 275.753 153.023 276.1C153.017 276.447 152.99 276.83 152.943 277.25C152.897 277.663 152.817 278.123 152.703 278.63L151.873 278.52C152.053 277.793 152.157 277.157 152.183 276.61C152.21 276.063 152.223 275.563 152.223 275.11V274.32ZM157.779 278.98H165.979V279.66H157.779V278.98ZM161.449 279.4H162.269V282.77H161.449V279.4ZM158.829 274.23H164.929V277.76H158.829V274.23ZM164.109 274.9H159.639V277.1H164.109V274.9ZM166.988 278.43H175.158V279.11H166.988V278.43ZM168.038 281.9H174.248V282.58H168.038V281.9ZM168.038 279.98H168.868V282.13H168.038V279.98ZM170.648 273.98H171.368V274.42C171.368 274.753 171.305 275.067 171.178 275.36C171.052 275.653 170.875 275.927 170.648 276.18C170.422 276.427 170.155 276.65 169.848 276.85C169.548 277.043 169.225 277.21 168.878 277.35C168.538 277.483 168.185 277.583 167.818 277.65L167.488 276.99C167.802 276.937 168.112 276.853 168.418 276.74C168.732 276.627 169.022 276.49 169.288 276.33C169.555 276.17 169.792 275.99 169.998 275.79C170.205 275.583 170.365 275.367 170.478 275.14C170.592 274.907 170.648 274.667 170.648 274.42V273.98ZM170.788 273.98H171.498V274.42C171.498 274.667 171.555 274.903 171.668 275.13C171.782 275.357 171.942 275.57 172.148 275.77C172.355 275.97 172.592 276.153 172.858 276.32C173.132 276.487 173.422 276.627 173.728 276.74C174.035 276.853 174.345 276.937 174.658 276.99L174.328 277.65C173.968 277.583 173.615 277.483 173.268 277.35C172.928 277.21 172.605 277.04 172.298 276.84C171.998 276.64 171.735 276.417 171.508 276.17C171.282 275.923 171.105 275.653 170.978 275.36C170.852 275.06 170.788 274.747 170.788 274.42V273.98ZM176.188 278.19H184.368V278.86H176.188V278.19ZM179.868 276.74H180.678V278.47H179.868V276.74ZM177.218 276.48H183.408V277.15H177.218V276.48ZM177.218 274.15H183.348V274.81H178.038V276.88H177.218V274.15ZM180.268 279.51C181.234 279.51 181.991 279.653 182.538 279.94C183.084 280.22 183.358 280.62 183.358 281.14C183.358 281.66 183.084 282.06 182.538 282.34C181.991 282.627 181.234 282.77 180.268 282.77C179.301 282.77 178.541 282.627 177.988 282.34C177.441 282.06 177.168 281.66 177.168 281.14C177.168 280.62 177.441 280.22 177.988 279.94C178.541 279.653 179.301 279.51 180.268 279.51ZM180.258 280.16C179.791 280.16 179.388 280.2 179.048 280.28C178.714 280.353 178.458 280.463 178.278 280.61C178.098 280.75 178.008 280.927 178.008 281.14C178.008 281.347 178.098 281.523 178.278 281.67C178.458 281.817 178.714 281.927 179.048 282C179.388 282.08 179.791 282.12 180.258 282.12C180.738 282.12 181.144 282.08 181.478 282C181.818 281.927 182.078 281.817 182.258 281.67C182.438 281.523 182.528 281.347 182.528 281.14C182.528 280.927 182.438 280.75 182.258 280.61C182.078 280.463 181.818 280.353 181.478 280.28C181.144 280.2 180.738 280.16 180.258 280.16Z" fill="#71717A"/>
<rect x="42" y="298" width="278" height="52" fill="white" stroke="#E4E4E7"/>
<path d="M72 334C71.7667 334 71.5667 333.933 71.4 333.8C71.2333 333.667 71.1083 333.492 71.025 333.275C70.7083 332.342 70.3083 331.467 69.825 330.65C69.3583 329.833 68.7 328.875 67.85 327.775C67 326.675 66.3083 325.625 65.775 324.625C65.2583 323.625 65 322.417 65 321C65 319.05 65.675 317.4 67.025 316.05C68.3917 314.683 70.05 314 72 314C73.95 314 75.6 314.683 76.95 316.05C78.3167 317.4 79 319.05 79 321C79 322.517 78.7083 323.783 78.125 324.8C77.5583 325.8 76.9 326.792 76.15 327.775C75.25 328.975 74.5667 329.975 74.1 330.775C73.65 331.558 73.275 332.392 72.975 333.275C72.8917 333.508 72.7583 333.692 72.575 333.825C72.4083 333.942 72.2167 334 72 334ZM72 323.5C72.7 323.5 73.2917 323.258 73.775 322.775C74.2583 322.292 74.5 321.7 74.5 321C74.5 320.3 74.2583 319.708 73.775 319.225C73.2917 318.742 72.7 318.5 72 318.5C71.3 318.5 70.7083 318.742 70.225 319.225C69.7417 319.708 69.5 320.3 69.5 321C69.5 321.7 69.7417 322.292 70.225 322.775C70.7083 323.258 71.3 323.5 72 323.5Z" fill="#783D33"/>
<path d="M109.45 312.16C109.903 312.16 110.303 312.24 110.65 312.4C110.997 312.553 111.267 312.77 111.46 313.05C111.66 313.323 111.76 313.647 111.76 314.02C111.76 314.38 111.66 314.703 111.46 314.99C111.267 315.27 110.997 315.49 110.65 315.65C110.303 315.803 109.903 315.88 109.45 315.88C109.01 315.88 108.617 315.803 108.27 315.65C107.923 315.49 107.65 315.27 107.45 314.99C107.25 314.703 107.15 314.38 107.15 314.02C107.15 313.647 107.25 313.323 107.45 313.05C107.65 312.77 107.923 312.553 108.27 312.4C108.617 312.24 109.01 312.16 109.45 312.16ZM109.45 312.84C109.163 312.84 108.907 312.89 108.68 312.99C108.453 313.09 108.273 313.23 108.14 313.41C108.013 313.583 107.95 313.787 107.95 314.02C107.95 314.247 108.013 314.45 108.14 314.63C108.273 314.803 108.453 314.94 108.68 315.04C108.907 315.14 109.163 315.19 109.45 315.19C109.75 315.19 110.013 315.14 110.24 315.04C110.467 314.94 110.643 314.803 110.77 314.63C110.903 314.45 110.97 314.247 110.97 314.02C110.97 313.787 110.903 313.583 110.77 313.41C110.643 313.23 110.467 313.09 110.24 312.99C110.013 312.89 109.75 312.84 109.45 312.84ZM109.09 316.89H109.92V320.5H109.09V316.89ZM113.09 311.74H113.91V320.78H113.09V311.74ZM106.59 317.34L106.48 316.64C107.04 316.64 107.653 316.633 108.32 316.62C108.993 316.607 109.683 316.577 110.39 316.53C111.103 316.483 111.787 316.41 112.44 316.31L112.5 316.93C111.827 317.057 111.14 317.15 110.44 317.21C109.74 317.263 109.06 317.297 108.4 317.31C107.747 317.323 107.143 317.333 106.59 317.34ZM122.269 311.73H123.109V320.78H122.269V311.73ZM118.209 313.88H118.879V314.66C118.879 315.14 118.816 315.607 118.689 316.06C118.563 316.507 118.383 316.923 118.149 317.31C117.923 317.697 117.653 318.037 117.339 318.33C117.033 318.623 116.696 318.857 116.329 319.03L115.869 318.39C116.203 318.237 116.509 318.03 116.789 317.77C117.076 317.51 117.323 317.217 117.529 316.89C117.743 316.557 117.909 316.2 118.029 315.82C118.149 315.44 118.209 315.053 118.209 314.66V313.88ZM118.359 313.88H119.029V314.66C119.029 315.033 119.089 315.403 119.209 315.77C119.329 316.13 119.496 316.47 119.709 316.79C119.923 317.103 120.173 317.383 120.459 317.63C120.746 317.877 121.059 318.077 121.399 318.23L120.939 318.87C120.573 318.703 120.233 318.48 119.919 318.2C119.606 317.913 119.333 317.587 119.099 317.22C118.866 316.847 118.683 316.443 118.549 316.01C118.423 315.577 118.359 315.127 118.359 314.66V313.88ZM116.109 313.3H121.089V313.97H116.109V313.3ZM118.199 311.9H119.029V313.67H118.199V311.9ZM134.115 311.73H134.945V320.79H134.115V311.73ZM130.175 312.43C130.622 312.43 131.015 312.56 131.355 312.82C131.702 313.073 131.972 313.437 132.165 313.91C132.365 314.383 132.465 314.94 132.465 315.58C132.465 316.22 132.365 316.777 132.165 317.25C131.972 317.723 131.702 318.09 131.355 318.35C131.015 318.61 130.622 318.74 130.175 318.74C129.728 318.74 129.332 318.61 128.985 318.35C128.638 318.09 128.365 317.723 128.165 317.25C127.972 316.777 127.875 316.22 127.875 315.58C127.875 314.94 127.972 314.383 128.165 313.91C128.365 313.437 128.638 313.073 128.985 312.82C129.332 312.56 129.728 312.43 130.175 312.43ZM130.175 313.17C129.875 313.17 129.612 313.27 129.385 313.47C129.165 313.663 128.992 313.943 128.865 314.31C128.738 314.67 128.675 315.093 128.675 315.58C128.675 316.067 128.738 316.493 128.865 316.86C128.992 317.22 129.165 317.5 129.385 317.7C129.612 317.9 129.875 318 130.175 318C130.468 318 130.725 317.9 130.945 317.7C131.172 317.5 131.348 317.22 131.475 316.86C131.602 316.493 131.665 316.067 131.665 315.58C131.665 315.093 131.602 314.67 131.475 314.31C131.348 313.943 131.172 313.663 130.945 313.47C130.725 313.27 130.468 313.17 130.175 313.17ZM136.734 316.4H144.934V317.07H136.734V316.4ZM137.774 311.95H143.884V314.1H138.614V315.29H137.794V313.48H143.064V312.61H137.774V311.95ZM137.794 314.98H144.074V315.63H137.794V314.98ZM137.844 317.89H143.894V320.66H137.844V317.89ZM143.074 318.56H138.654V319.98H143.074V318.56Z" fill="black"/>
<path d="M111.02 328.8H113.53V329.48H111.02V328.8ZM108.83 326.51H109.51V328.13C109.51 328.63 109.447 329.123 109.32 329.61C109.2 330.097 109.027 330.55 108.8 330.97C108.573 331.39 108.307 331.763 108 332.09C107.7 332.417 107.37 332.677 107.01 332.87L106.49 332.2C106.823 332.04 107.13 331.817 107.41 331.53C107.697 331.243 107.947 330.917 108.16 330.55C108.373 330.177 108.537 329.787 108.65 329.38C108.77 328.967 108.83 328.55 108.83 328.13V326.51ZM109 326.51H109.67V328.13C109.67 328.537 109.727 328.94 109.84 329.34C109.96 329.74 110.127 330.117 110.34 330.47C110.553 330.817 110.8 331.127 111.08 331.4C111.367 331.673 111.673 331.887 112 332.04L111.5 332.71C111.14 332.523 110.807 332.273 110.5 331.96C110.193 331.647 109.927 331.287 109.7 330.88C109.48 330.473 109.307 330.037 109.18 329.57C109.06 329.103 109 328.623 109 328.13V326.51ZM113.12 325.73H113.94V334.79H113.12V325.73ZM119.359 329.99H120.189V331.37H119.359V329.99ZM119.779 325.84C120.779 325.84 121.559 325.977 122.119 326.25C122.679 326.517 122.959 326.9 122.959 327.4C122.959 327.907 122.679 328.297 122.119 328.57C121.559 328.837 120.779 328.97 119.779 328.97C118.786 328.97 118.006 328.837 117.439 328.57C116.879 328.297 116.599 327.907 116.599 327.4C116.599 326.9 116.879 326.517 117.439 326.25C118.006 325.977 118.786 325.84 119.779 325.84ZM119.779 326.47C119.293 326.47 118.876 326.507 118.529 326.58C118.183 326.653 117.916 326.76 117.729 326.9C117.549 327.033 117.459 327.2 117.459 327.4C117.459 327.6 117.549 327.773 117.729 327.92C117.916 328.06 118.183 328.167 118.529 328.24C118.876 328.307 119.293 328.34 119.779 328.34C120.273 328.34 120.693 328.307 121.039 328.24C121.386 328.167 121.649 328.06 121.829 327.92C122.016 327.773 122.109 327.6 122.109 327.4C122.109 327.2 122.016 327.033 121.829 326.9C121.649 326.76 121.386 326.653 121.039 326.58C120.693 326.507 120.273 326.47 119.779 326.47ZM115.699 329.56H123.869V330.23H115.699V329.56ZM116.689 331.07H122.819V333.11H117.519V334.2H116.709V332.5H122.009V331.71H116.689V331.07ZM116.709 334.03H123.089V334.68H116.709V334.03ZM127.535 330.98H135.735V331.66H127.535V330.98ZM131.205 331.4H132.025V334.77H131.205V331.4ZM128.585 326.23H134.685V329.76H128.585V326.23ZM133.865 326.9H129.395V329.1H133.865V326.9ZM136.744 330.43H144.914V331.11H136.744V330.43ZM137.794 333.9H144.004V334.58H137.794V333.9ZM137.794 331.98H138.624V334.13H137.794V331.98ZM140.404 325.98H141.124V326.42C141.124 326.753 141.061 327.067 140.934 327.36C140.807 327.653 140.631 327.927 140.404 328.18C140.177 328.427 139.911 328.65 139.604 328.85C139.304 329.043 138.981 329.21 138.634 329.35C138.294 329.483 137.941 329.583 137.574 329.65L137.244 328.99C137.557 328.937 137.867 328.853 138.174 328.74C138.487 328.627 138.777 328.49 139.044 328.33C139.311 328.17 139.547 327.99 139.754 327.79C139.961 327.583 140.121 327.367 140.234 327.14C140.347 326.907 140.404 326.667 140.404 326.42V325.98ZM140.544 325.98H141.254V326.42C141.254 326.667 141.311 326.903 141.424 327.13C141.537 327.357 141.697 327.57 141.904 327.77C142.111 327.97 142.347 328.153 142.614 328.32C142.887 328.487 143.177 328.627 143.484 328.74C143.791 328.853 144.101 328.937 144.414 328.99L144.084 329.65C143.724 329.583 143.371 329.483 143.024 329.35C142.684 329.21 142.361 329.04 142.054 328.84C141.754 328.64 141.491 328.417 141.264 328.17C141.037 327.923 140.861 327.653 140.734 327.36C140.607 327.06 140.544 326.747 140.544 326.42V325.98ZM146.963 326.32H152.623V326.99H146.963V326.32ZM145.943 330.2H154.113V330.89H145.943V330.2ZM149.593 330.66H150.423V334.79H149.593V330.66ZM152.223 326.32H153.043V327.11C153.043 327.423 153.037 327.753 153.023 328.1C153.017 328.447 152.99 328.83 152.943 329.25C152.897 329.663 152.817 330.123 152.703 330.63L151.873 330.52C152.053 329.793 152.157 329.157 152.183 328.61C152.21 328.063 152.223 327.563 152.223 327.11V326.32ZM157.779 330.98H165.979V331.66H157.779V330.98ZM161.449 331.4H162.269V334.77H161.449V331.4ZM158.829 326.23H164.929V329.76H158.829V326.23ZM164.109 326.9H159.639V329.1H164.109V326.9ZM166.988 330.43H175.158V331.11H166.988V330.43ZM168.038 333.9H174.248V334.58H168.038V333.9ZM168.038 331.98H168.868V334.13H168.038V331.98ZM170.648 325.98H171.368V326.42C171.368 326.753 171.305 327.067 171.178 327.36C171.052 327.653 170.875 327.927 170.648 328.18C170.422 328.427 170.155 328.65 169.848 328.85C169.548 329.043 169.225 329.21 168.878 329.35C168.538 329.483 168.185 329.583 167.818 329.65L167.488 328.99C167.802 328.937 168.112 328.853 168.418 328.74C168.732 328.627 169.022 328.49 169.288 328.33C169.555 328.17 169.792 327.99 169.998 327.79C170.205 327.583 170.365 327.367 170.478 327.14C170.592 326.907 170.648 326.667 170.648 326.42V325.98ZM170.788 325.98H171.498V326.42C171.498 326.667 171.555 326.903 171.668 327.13C171.782 327.357 171.942 327.57 172.148 327.77C172.355 327.97 172.592 328.153 172.858 328.32C173.132 328.487 173.422 328.627 173.728 328.74C174.035 328.853 174.345 328.937 174.658 328.99L174.328 329.65C173.968 329.583 173.615 329.483 173.268 329.35C172.928 329.21 172.605 329.04 172.298 328.84C171.998 328.64 171.735 328.417 171.508 328.17C171.282 327.923 171.105 327.653 170.978 327.36C170.852 327.06 170.788 326.747 170.788 326.42V325.98ZM176.188 330.19H184.368V330.86H176.188V330.19ZM179.868 328.74H180.678V330.47H179.868V328.74ZM177.218 328.48H183.408V329.15H177.218V328.48ZM177.218 326.15H183.348V326.81H178.038V328.88H177.218V326.15ZM180.268 331.51C181.234 331.51 181.991 331.653 182.538 331.94C183.084 332.22 183.358 332.62 183.358 333.14C183.358 333.66 183.084 334.06 182.538 334.34C181.991 334.627 181.234 334.77 180.268 334.77C179.301 334.77 178.541 334.627 177.988 334.34C177.441 334.06 177.168 333.66 177.168 333.14C177.168 332.62 177.441 332.22 177.988 331.94C178.541 331.653 179.301 331.51 180.268 331.51ZM180.258 332.16C179.791 332.16 179.388 332.2 179.048 332.28C178.714 332.353 178.458 332.463 178.278 332.61C178.098 332.75 178.008 332.927 178.008 333.14C178.008 333.347 178.098 333.523 178.278 333.67C178.458 333.817 178.714 333.927 179.048 334C179.388 334.08 179.791 334.12 180.258 334.12C180.738 334.12 181.144 334.08 181.478 334C181.818 333.927 182.078 333.817 182.258 333.67C182.438 333.523 182.528 333.347 182.528 333.14C182.528 332.927 182.438 332.75 182.258 332.61C182.078 332.463 181.818 332.353 181.478 332.28C181.144 332.2 180.738 332.16 180.258 332.16Z" fill="#71717A"/>
<g filter="url(#filter3_d_129_2661)">
<rect x="1" width="360" height="45" fill="white"/>
<path d="M45.748 18.396H47.656V19.704H45.748V18.396ZM45.748 20.808H47.656V22.104H45.748V20.808ZM44.632 16.956H46.228V23.508H44.632V16.956ZM38.812 23.964H46.228V28.068H44.632V25.224H38.812V23.964ZM40.576 17.556C41.152 17.556 41.668 17.676 42.124 17.916C42.58 18.148 42.94 18.468 43.204 18.876C43.468 19.276 43.6 19.74 43.6 20.268C43.6 20.804 43.468 21.276 43.204 21.684C42.94 22.092 42.58 22.412 42.124 22.644C41.668 22.876 41.152 22.992 40.576 22.992C40.008 22.992 39.496 22.876 39.04 22.644C38.584 22.412 38.224 22.092 37.96 21.684C37.696 21.276 37.564 20.804 37.564 20.268C37.564 19.74 37.696 19.276 37.96 18.876C38.224 18.468 38.584 18.148 39.04 17.916C39.496 17.676 40.008 17.556 40.576 17.556ZM40.576 18.9C40.304 18.9 40.056 18.956 39.832 19.068C39.608 19.172 39.432 19.328 39.304 19.536C39.184 19.736 39.124 19.98 39.124 20.268C39.124 20.564 39.184 20.816 39.304 21.024C39.432 21.224 39.608 21.38 39.832 21.492C40.056 21.596 40.304 21.648 40.576 21.648C40.864 21.648 41.116 21.596 41.332 21.492C41.548 21.38 41.72 21.224 41.848 21.024C41.976 20.816 42.04 20.564 42.04 20.268C42.04 19.98 41.976 19.736 41.848 19.536C41.72 19.328 41.548 19.172 41.332 19.068C41.116 18.956 40.864 18.9 40.576 18.9ZM48.5191 22.344H58.5871V23.604H48.5191V22.344ZM52.7311 20.904H54.3271V22.896H52.7311V20.904ZM52.7191 17.148H54.0871V17.484C54.0871 17.892 54.0231 18.284 53.8951 18.66C53.7671 19.028 53.5791 19.368 53.3311 19.68C53.0831 19.992 52.7791 20.276 52.4191 20.532C52.0591 20.78 51.6431 20.992 51.1711 21.168C50.7071 21.344 50.1871 21.472 49.6111 21.552L49.0231 20.292C49.5271 20.236 49.9751 20.144 50.3671 20.016C50.7671 19.88 51.1111 19.72 51.3991 19.536C51.6951 19.352 51.9391 19.148 52.1311 18.924C52.3311 18.7 52.4791 18.468 52.5751 18.228C52.6711 17.98 52.7191 17.732 52.7191 17.484V17.148ZM52.9831 17.148H54.3391V17.484C54.3391 17.74 54.3871 17.992 54.4831 18.24C54.5791 18.488 54.7231 18.724 54.9151 18.948C55.1071 19.164 55.3471 19.364 55.6351 19.548C55.9311 19.732 56.2791 19.888 56.6791 20.016C57.0791 20.144 57.5311 20.236 58.0351 20.292L57.4471 21.552C56.8791 21.472 56.3591 21.344 55.8871 21.168C55.4231 20.992 55.0071 20.784 54.6391 20.544C54.2791 20.296 53.9751 20.016 53.7271 19.704C53.4791 19.384 53.2911 19.04 53.1631 18.672C53.0431 18.304 52.9831 17.908 52.9831 17.484V17.148ZM49.6351 24.384H57.3631V28.068H55.7671V25.644H49.6351V24.384ZM65.4675 17.268C66.0435 17.268 66.5515 17.38 66.9915 17.604C67.4395 17.82 67.7915 18.12 68.0475 18.504C68.3115 18.88 68.4435 19.316 68.4435 19.812C68.4435 20.308 68.3115 20.748 68.0475 21.132C67.7915 21.508 67.4395 21.804 66.9915 22.02C66.5515 22.236 66.0435 22.344 65.4675 22.344C64.9075 22.344 64.4035 22.236 63.9555 22.02C63.5075 21.804 63.1515 21.508 62.8875 21.132C62.6315 20.748 62.5035 20.308 62.5035 19.812C62.5035 19.316 62.6315 18.876 62.8875 18.492C63.1515 18.108 63.5075 17.808 63.9555 17.592C64.4035 17.376 64.9075 17.268 65.4675 17.268ZM65.4795 18.564C65.2075 18.564 64.9635 18.616 64.7475 18.72C64.5315 18.816 64.3595 18.956 64.2315 19.14C64.1115 19.324 64.0515 19.548 64.0515 19.812C64.0515 20.076 64.1115 20.304 64.2315 20.496C64.3595 20.68 64.5275 20.82 64.7355 20.916C64.9515 21.012 65.1995 21.06 65.4795 21.06C65.7515 21.06 65.9915 21.012 66.1995 20.916C66.4155 20.82 66.5835 20.68 66.7035 20.496C66.8315 20.304 66.8955 20.076 66.8955 19.812C66.8955 19.548 66.8315 19.324 66.7035 19.14C66.5835 18.956 66.4155 18.816 66.1995 18.72C65.9835 18.616 65.7435 18.564 65.4795 18.564ZM69.9795 16.956H71.5755V22.512H69.9795V16.956ZM64.1715 22.968H71.5755V26.004H65.7555V27.36H64.1835V24.852H69.9915V24.192H64.1715V22.968ZM64.1835 26.7H71.8515V27.948H64.1835V26.7ZM79.4105 19.632H81.5225V20.928H79.4105V19.632ZM81.0785 16.956H82.6865V23.556H81.0785V16.956ZM78.9185 23.796C79.7025 23.796 80.3785 23.88 80.9465 24.048C81.5145 24.216 81.9505 24.46 82.2545 24.78C82.5665 25.1 82.7225 25.484 82.7225 25.932C82.7225 26.62 82.3825 27.148 81.7025 27.516C81.0225 27.892 80.0945 28.08 78.9185 28.08C77.7425 28.08 76.8145 27.892 76.1345 27.516C75.4545 27.148 75.1145 26.62 75.1145 25.932C75.1145 25.484 75.2665 25.1 75.5705 24.78C75.8825 24.46 76.3225 24.216 76.8905 24.048C77.4585 23.88 78.1345 23.796 78.9185 23.796ZM78.9185 25.008C78.4385 25.008 78.0345 25.044 77.7065 25.116C77.3785 25.18 77.1265 25.28 76.9505 25.416C76.7825 25.552 76.6985 25.724 76.6985 25.932C76.6985 26.14 76.7825 26.316 76.9505 26.46C77.1265 26.596 77.3785 26.7 77.7065 26.772C78.0345 26.836 78.4385 26.868 78.9185 26.868C79.3985 26.868 79.8025 26.836 80.1305 26.772C80.4585 26.7 80.7065 26.596 80.8745 26.46C81.0425 26.316 81.1265 26.14 81.1265 25.932C81.1265 25.724 81.0425 25.552 80.8745 25.416C80.7065 25.28 80.4585 25.18 80.1305 25.116C79.8025 25.044 79.3985 25.008 78.9185 25.008ZM75.9545 18.06H77.2505V18.768C77.2505 19.472 77.1385 20.144 76.9145 20.784C76.6905 21.424 76.3465 21.988 75.8825 22.476C75.4265 22.956 74.8425 23.316 74.1305 23.556L73.3265 22.296C73.7825 22.144 74.1745 21.94 74.5025 21.684C74.8385 21.428 75.1105 21.144 75.3185 20.832C75.5345 20.512 75.6945 20.176 75.7985 19.824C75.9025 19.472 75.9545 19.12 75.9545 18.768V18.06ZM76.2905 18.06H77.5625V18.756C77.5625 19.196 77.6505 19.628 77.8265 20.052C78.0025 20.476 78.2745 20.86 78.6425 21.204C79.0185 21.548 79.4985 21.82 80.0825 22.02L79.3025 23.268C78.6145 23.036 78.0465 22.696 77.5985 22.248C77.1585 21.792 76.8305 21.264 76.6145 20.664C76.3985 20.056 76.2905 19.42 76.2905 18.756V18.06ZM73.7585 17.628H79.7345V18.888H73.7585V17.628ZM93.2269 19.632H95.3389V20.928H93.2269V19.632ZM94.8949 16.956H96.5029V23.556H94.8949V16.956ZM92.7349 23.796C93.5189 23.796 94.1949 23.88 94.7629 24.048C95.3309 24.216 95.7669 24.46 96.0709 24.78C96.3829 25.1 96.5389 25.484 96.5389 25.932C96.5389 26.62 96.1989 27.148 95.5189 27.516C94.8389 27.892 93.9109 28.08 92.7349 28.08C91.5589 28.08 90.6309 27.892 89.9509 27.516C89.2709 27.148 88.9309 26.62 88.9309 25.932C88.9309 25.484 89.0829 25.1 89.3869 24.78C89.6989 24.46 90.1389 24.216 90.7069 24.048C91.2749 23.88 91.9509 23.796 92.7349 23.796ZM92.7349 25.008C92.2549 25.008 91.8509 25.044 91.5229 25.116C91.1949 25.18 90.9429 25.28 90.7669 25.416C90.5989 25.552 90.5149 25.724 90.5149 25.932C90.5149 26.14 90.5989 26.316 90.7669 26.46C90.9429 26.596 91.1949 26.7 91.5229 26.772C91.8509 26.836 92.2549 26.868 92.7349 26.868C93.2149 26.868 93.6189 26.836 93.9469 26.772C94.2749 26.7 94.5229 26.596 94.6909 26.46C94.8589 26.316 94.9429 26.14 94.9429 25.932C94.9429 25.724 94.8589 25.552 94.6909 25.416C94.5229 25.28 94.2749 25.18 93.9469 25.116C93.6189 25.044 93.2149 25.008 92.7349 25.008ZM89.7709 18.06H91.0669V18.768C91.0669 19.472 90.9549 20.144 90.7309 20.784C90.5069 21.424 90.1629 21.988 89.6989 22.476C89.2429 22.956 88.6589 23.316 87.9469 23.556L87.1429 22.296C87.5989 22.144 87.9909 21.94 88.3189 21.684C88.6549 21.428 88.9269 21.144 89.1349 20.832C89.3509 20.512 89.5109 20.176 89.6149 19.824C89.7189 19.472 89.7709 19.12 89.7709 18.768V18.06ZM90.1069 18.06H91.3789V18.756C91.3789 19.196 91.4669 19.628 91.6429 20.052C91.8189 20.476 92.0909 20.86 92.4589 21.204C92.8349 21.548 93.3149 21.82 93.8989 22.02L93.1189 23.268C92.4309 23.036 91.8629 22.696 91.4149 22.248C90.9749 21.792 90.6469 21.264 90.4309 20.664C90.2149 20.056 90.1069 19.42 90.1069 18.756V18.06ZM87.5749 17.628H93.5509V18.888H87.5749V17.628ZM105.358 16.956H106.954V28.068H105.358V16.956ZM106.594 21.288H108.55V22.608H106.594V21.288ZM98.182 18.588H104.662V19.86H98.182V18.588ZM101.446 20.496C101.982 20.496 102.462 20.612 102.886 20.844C103.31 21.068 103.642 21.376 103.882 21.768C104.13 22.16 104.254 22.616 104.254 23.136C104.254 23.656 104.13 24.116 103.882 24.516C103.642 24.908 103.31 25.22 102.886 25.452C102.47 25.676 101.99 25.788 101.446 25.788C100.91 25.788 100.426 25.676 99.994 25.452C99.57 25.22 99.234 24.908 98.986 24.516C98.746 24.116 98.626 23.656 98.626 23.136C98.626 22.616 98.746 22.16 98.986 21.768C99.234 21.376 99.57 21.068 99.994 20.844C100.426 20.612 100.91 20.496 101.446 20.496ZM101.446 21.792C101.19 21.792 100.966 21.844 100.774 21.948C100.582 22.052 100.43 22.204 100.318 22.404C100.206 22.604 100.15 22.848 100.15 23.136C100.15 23.416 100.206 23.66 100.318 23.868C100.43 24.068 100.582 24.224 100.774 24.336C100.966 24.44 101.19 24.492 101.446 24.492C101.694 24.492 101.914 24.44 102.106 24.336C102.298 24.224 102.45 24.068 102.562 23.868C102.674 23.66 102.73 23.416 102.73 23.136C102.73 22.848 102.674 22.604 102.562 22.404C102.45 22.204 102.298 22.052 102.106 21.948C101.914 21.844 101.694 21.792 101.446 21.792ZM100.63 17.136H102.238V19.08H100.63V17.136ZM116.937 16.944H118.533V28.056H116.937V16.944ZM113.661 18.096H115.233C115.233 18.944 115.149 19.756 114.981 20.532C114.821 21.3 114.549 22.024 114.165 22.704C113.789 23.384 113.269 24.016 112.605 24.6C111.949 25.176 111.129 25.704 110.145 26.184L109.305 24.924C110.377 24.404 111.229 23.832 111.861 23.208C112.501 22.576 112.961 21.864 113.241 21.072C113.521 20.272 113.661 19.376 113.661 18.384V18.096ZM109.905 18.096H114.405V19.368H109.905V18.096Z" fill="black"/>
<path d="M325 17L313 29M313 17L325 29" stroke="#EB793C" stroke-width="2" stroke-linecap="round" stroke-linejoin="round"/>
</g>
<defs>
<filter id="filter0_d_129_2661" x="81" y="65" width="241" height="33" filterUnits="userSpaceOnUse" color-interpolation-filters="sRGB">
<feFlood flood-opacity="0" result="BackgroundImageFix"/>
<feColorMatrix in="SourceAlpha" type="matrix" values="0 0 0 0 0 0 0 0 0 0 0 0 0 0 0 0 0 0 127 0" result="hardAlpha"/>
<feOffset/>
<feGaussianBlur stdDeviation="1"/>
<feComposite in2="hardAlpha" operator="out"/>
<feColorMatrix type="matrix" values="0 0 0 0 0 0 0 0 0 0 0 0 0 0 0 0 0 0 0.25 0"/>
<feBlend mode="normal" in2="BackgroundImageFix" result="effect1_dropShadow_129_2661"/>
<feBlend mode="normal" in="SourceGraphic" in2="effect1_dropShadow_129_2661" result="shape"/>
</filter>
<filter id="filter1_d_129_2661" x="81" y="108" width="241" height="33" filterUnits="userSpaceOnUse" color-interpolation-filters="sRGB">
<feFlood flood-opacity="0" result="BackgroundImageFix"/>
<feColorMatrix in="SourceAlpha" type="matrix" values="0 0 0 0 0 0 0 0 0 0 0 0 0 0 0 0 0 0 127 0" result="hardAlpha"/>
<feOffset/>
<feGaussianBlur stdDeviation="1"/>
<feComposite in2="hardAlpha" operator="out"/>
<feColorMatrix type="matrix" values="0 0 0 0 0 0 0 0 0 0 0 0 0 0 0 0 0 0 0.25 0"/>
<feBlend mode="normal" in2="BackgroundImageFix" result="effect1_dropShadow_129_2661"/>
<feBlend mode="normal" in="SourceGraphic" in2="effect1_dropShadow_129_2661" result="shape"/>
</filter>
<filter id="filter2_d_129_2661" x="80" y="151" width="241" height="33" filterUnits="userSpaceOnUse" color-interpolation-filters="sRGB">
<feFlood flood-opacity="0" result="BackgroundImageFix"/>
<feColorMatrix in="SourceAlpha" type="matrix" values="0 0 0 0 0 0 0 0 0 0 0 0 0 0 0 0 0 0 127 0" result="hardAlpha"/>
<feOffset/>
<feGaussianBlur stdDeviation="1"/>
<feComposite in2="hardAlpha" operator="out"/>
<feColorMatrix type="matrix" values="0 0 0 0 0 0 0 0 0 0 0 0 0 0 0 0 0 0 0.25 0"/>
<feBlend mode="normal" in2="BackgroundImageFix" result="effect1_dropShadow_129_2661"/>
<feBlend mode="normal" in="SourceGraphic" in2="effect1_dropShadow_129_2661" result="shape"/>
</filter>
<filter id="filter3_d_129_2661" x="0" y="0" width="362" height="47" filterUnits="userSpaceOnUse" color-interpolation-filters="sRGB">
<feFlood flood-opacity="0" result="BackgroundImageFix"/>
<feColorMatrix in="SourceAlpha" type="matrix" values="0 0 0 0 0 0 0 0 0 0 0 0 0 0 0 0 0 0 127 0" result="hardAlpha"/>
<feOffset dy="1"/>
<feGaussianBlur stdDeviation="0.5"/>
<feComposite in2="hardAlpha" operator="out"/>
<feColorMatrix type="matrix" values="0 0 0 0 0 0 0 0 0 0 0 0 0 0 0 0 0 0 0.1 0"/>
<feBlend mode="normal" in2="BackgroundImageFix" result="effect1_dropShadow_129_2661"/>
<feBlend mode="normal" in="SourceGraphic" in2="effect1_dropShadow_129_2661" result="shape"/>
</filter>
</defs>
</svg>
