<svg width="412" height="917" viewBox="0 0 412 917" fill="none" xmlns="http://www.w3.org/2000/svg">
<rect width="412" height="917" fill="white"/>
<path d="M132.343 855.422H133.505V868.106H132.343V855.422ZM123.859 856.5H125.021V859.832H128.675V856.5H129.823V865.054H123.859V856.5ZM125.021 860.756V864.088H128.675V860.756H125.021ZM136.682 856.122H142.59V861.302H136.682V856.122ZM141.456 857.06H137.816V860.378H141.456V857.06ZM145.236 855.422H146.398V861.932H145.236V855.422ZM138.208 862.576H146.398V865.628H139.37V867.406H138.236V864.774H145.25V863.5H138.208V862.576ZM138.236 867.014H146.818V867.952H138.236V867.014ZM158.354 858.992H161.98V859.944H158.354V858.992ZM161.63 855.436H162.792V864.802H161.63V855.436ZM154.658 866.86H163.086V867.812H154.658V866.86ZM154.658 863.892H155.82V867.336H154.658V863.892ZM152.992 856.276H154.154V858.502H157.57V856.276H158.718V862.646H152.992V856.276ZM154.154 859.412V861.708H157.57V859.412H154.154ZM165.815 857.284H176.105V858.236H165.815V857.284ZM165.255 865.656H176.735V866.608H165.255V865.656ZM170.393 863.64H171.541V866.02H170.393V863.64ZM170.967 859.076C171.816 859.076 172.549 859.174 173.165 859.37C173.79 859.557 174.271 859.827 174.607 860.182C174.943 860.537 175.111 860.971 175.111 861.484C175.111 861.988 174.943 862.422 174.607 862.786C174.271 863.15 173.79 863.43 173.165 863.626C172.549 863.813 171.816 863.906 170.967 863.906C170.117 863.906 169.38 863.813 168.755 863.626C168.139 863.43 167.663 863.15 167.327 862.786C166.991 862.422 166.823 861.988 166.823 861.484C166.823 860.971 166.991 860.537 167.327 860.182C167.663 859.827 168.139 859.557 168.755 859.37C169.38 859.174 170.117 859.076 170.967 859.076ZM170.967 860C170.351 860 169.819 860.061 169.371 860.182C168.932 860.294 168.591 860.462 168.349 860.686C168.115 860.901 167.999 861.167 167.999 861.484C167.999 861.792 168.115 862.058 168.349 862.282C168.591 862.506 168.932 862.679 169.371 862.8C169.819 862.912 170.351 862.968 170.967 862.968C171.583 862.968 172.11 862.912 172.549 862.8C172.987 862.679 173.328 862.506 173.571 862.282C173.813 862.058 173.935 861.792 173.935 861.484C173.935 861.167 173.813 860.901 173.571 860.686C173.328 860.462 172.987 860.294 172.549 860.182C172.11 860.061 171.583 860 170.967 860ZM170.393 855.632H171.541V857.858H170.393V855.632ZM178.12 861.302H189.6V862.198H178.12V861.302ZM179.492 863.206H188.172V865.908H180.668V867.392H179.52V865.11H187.024V864.046H179.492V863.206ZM179.52 867.084H188.578V867.924H179.52V867.084ZM179.576 855.8H188.13V858.432H180.752V859.804H179.604V857.648H186.982V856.626H179.576V855.8ZM179.604 859.524H188.354V860.364H179.604V859.524ZM200.239 863.808H201.219V864.158C201.219 864.662 201.098 865.129 200.855 865.558C200.612 865.978 200.276 866.356 199.847 866.692C199.427 867.028 198.937 867.308 198.377 867.532C197.826 867.765 197.238 867.933 196.613 868.036L196.193 867.154C196.734 867.07 197.248 866.935 197.733 866.748C198.228 866.561 198.662 866.337 199.035 866.076C199.408 865.805 199.702 865.507 199.917 865.18C200.132 864.853 200.239 864.513 200.239 864.158V863.808ZM200.449 863.808H201.429V864.158C201.429 864.513 201.536 864.853 201.751 865.18C201.966 865.507 202.26 865.805 202.633 866.076C203.016 866.347 203.45 866.575 203.935 866.762C204.43 866.939 204.952 867.07 205.503 867.154L205.083 868.036C204.458 867.933 203.865 867.77 203.305 867.546C202.745 867.322 202.25 867.042 201.821 866.706C201.392 866.37 201.056 865.987 200.813 865.558C200.57 865.129 200.449 864.662 200.449 864.158V863.808ZM196.711 863.332H204.999V864.326H196.711V863.332ZM203.697 855.436H204.859V862.674H203.697V855.436ZM198.069 856.164C198.713 856.164 199.282 856.29 199.777 856.542C200.272 856.794 200.659 857.139 200.939 857.578C201.228 858.017 201.373 858.525 201.373 859.104C201.373 859.683 201.228 860.191 200.939 860.63C200.659 861.069 200.272 861.414 199.777 861.666C199.282 861.918 198.713 862.044 198.069 862.044C197.434 862.044 196.865 861.918 196.361 861.666C195.866 861.414 195.474 861.069 195.185 860.63C194.905 860.191 194.765 859.683 194.765 859.104C194.765 858.525 194.905 858.017 195.185 857.578C195.474 857.139 195.866 856.794 196.361 856.542C196.865 856.29 197.434 856.164 198.069 856.164ZM198.069 857.144C197.649 857.144 197.276 857.228 196.949 857.396C196.622 857.564 196.366 857.793 196.179 858.082C195.992 858.371 195.899 858.712 195.899 859.104C195.899 859.496 195.992 859.841 196.179 860.14C196.366 860.429 196.622 860.658 196.949 860.826C197.276 860.994 197.649 861.078 198.069 861.078C198.489 861.078 198.862 860.994 199.189 860.826C199.516 860.658 199.772 860.429 199.959 860.14C200.146 859.841 200.239 859.496 200.239 859.104C200.239 858.712 200.146 858.371 199.959 858.082C199.772 857.793 199.516 857.564 199.189 857.396C198.862 857.228 198.489 857.144 198.069 857.144ZM210.738 856.402C211.354 856.402 211.9 856.584 212.376 856.948C212.852 857.303 213.221 857.811 213.482 858.474C213.753 859.137 213.888 859.916 213.888 860.812C213.888 861.708 213.753 862.487 213.482 863.15C213.221 863.813 212.852 864.326 212.376 864.69C211.9 865.054 211.354 865.236 210.738 865.236C210.131 865.236 209.585 865.054 209.1 864.69C208.624 864.326 208.251 863.813 207.98 863.15C207.719 862.487 207.588 861.708 207.588 860.812C207.588 859.916 207.719 859.137 207.98 858.474C208.251 857.811 208.624 857.303 209.1 856.948C209.585 856.584 210.131 856.402 210.738 856.402ZM210.738 857.438C210.337 857.438 209.982 857.578 209.674 857.858C209.366 858.129 209.123 858.521 208.946 859.034C208.778 859.538 208.694 860.131 208.694 860.812C208.694 861.493 208.778 862.091 208.946 862.604C209.123 863.108 209.366 863.5 209.674 863.78C209.982 864.06 210.337 864.2 210.738 864.2C211.149 864.2 211.508 864.06 211.816 863.78C212.124 863.5 212.362 863.108 212.53 862.604C212.707 862.091 212.796 861.493 212.796 860.812C212.796 860.131 212.707 859.538 212.53 859.034C212.362 858.521 212.124 858.129 211.816 857.858C211.508 857.578 211.149 857.438 210.738 857.438ZM216.632 855.422H217.78V868.106H216.632V855.422ZM213.51 860.252H217.15V861.19H213.51V860.252ZM229.511 855.422H230.659V868.106H229.511V855.422ZM226.179 860.126H229.847V861.078H226.179V860.126ZM220.747 856.416H221.909V859.706H225.423V856.416H226.557V864.914H220.747V856.416ZM221.909 860.63V863.962H225.423V860.63H221.909ZM242.348 855.422H243.496V868.106H242.348V855.422ZM233.85 864.074H234.9C235.619 864.074 236.309 864.065 236.972 864.046C237.644 864.018 238.321 863.971 239.002 863.906C239.693 863.841 240.411 863.747 241.158 863.626L241.27 864.578C240.131 864.765 239.058 864.891 238.05 864.956C237.042 865.012 235.992 865.04 234.9 865.04H233.85V864.074ZM233.822 856.598H239.674V861.12H235.026V864.438H233.85V860.182H238.498V857.55H233.822V856.598ZM252.763 856.934H255.605V857.886H252.763V856.934ZM252.763 859.44H255.605V860.378H252.763V859.44ZM255.255 855.422H256.417V862.842H255.255V855.422ZM249.165 855.884H250.117V857.186C250.117 858.017 249.972 858.791 249.683 859.51C249.403 860.219 249.006 860.84 248.493 861.372C247.979 861.895 247.368 862.301 246.659 862.59L246.015 861.666C246.659 861.423 247.214 861.078 247.681 860.63C248.157 860.182 248.521 859.664 248.773 859.076C249.034 858.479 249.165 857.849 249.165 857.186V855.884ZM249.347 855.884H250.299V857.186C250.299 857.653 250.369 858.101 250.509 858.53C250.658 858.959 250.868 859.365 251.139 859.748C251.419 860.131 251.745 860.467 252.119 860.756C252.492 861.045 252.907 861.279 253.365 861.456L252.707 862.38C252.035 862.1 251.447 861.703 250.943 861.19C250.439 860.667 250.047 860.065 249.767 859.384C249.487 858.703 249.347 857.97 249.347 857.186V855.884ZM249.235 863.304H250.131V863.878C250.131 864.429 250.019 864.97 249.795 865.502C249.58 866.034 249.258 866.515 248.829 866.944C248.409 867.364 247.891 867.691 247.275 867.924L246.701 867.056C247.233 866.86 247.685 866.594 248.059 866.258C248.441 865.913 248.731 865.535 248.927 865.124C249.132 864.704 249.235 864.289 249.235 863.878V863.304ZM249.487 863.304H250.355V863.878C250.355 864.307 250.439 864.737 250.607 865.166C250.775 865.586 251.027 865.973 251.363 866.328C251.699 866.673 252.123 866.953 252.637 867.168L252.133 868.036C251.526 867.793 251.027 867.453 250.635 867.014C250.243 866.575 249.953 866.085 249.767 865.544C249.58 864.993 249.487 864.438 249.487 863.878V863.304ZM253.911 863.304H254.779V863.878C254.779 864.373 254.685 864.895 254.499 865.446C254.312 865.987 254.023 866.491 253.631 866.958C253.239 867.425 252.739 867.784 252.133 868.036L251.643 867.168C252.147 866.925 252.567 866.617 252.903 866.244C253.239 865.871 253.491 865.474 253.659 865.054C253.827 864.634 253.911 864.242 253.911 863.878V863.304ZM254.149 863.304H255.045V863.878C255.045 864.317 255.143 864.746 255.339 865.166C255.544 865.586 255.833 865.959 256.207 866.286C256.589 866.613 257.051 866.869 257.593 867.056L257.005 867.924C256.389 867.7 255.866 867.383 255.437 866.972C255.017 866.561 254.695 866.09 254.471 865.558C254.256 865.026 254.149 864.466 254.149 863.878V863.304ZM268.302 860.476H270.626V861.442H268.302V860.476ZM267.448 855.422H268.61V868.078H267.448V855.422ZM259.384 856.668H260.532V864.508H259.384V856.668ZM259.384 863.906H260.392C261.316 863.906 262.263 863.864 263.234 863.78C264.214 863.696 265.226 863.547 266.272 863.332L266.412 864.312C265.329 864.527 264.293 864.676 263.304 864.76C262.324 864.835 261.353 864.872 260.392 864.872H259.384V863.906ZM274.573 861.946H275.721V865.726H274.573V861.946ZM279.249 861.946H280.411V865.726H279.249V861.946ZM271.759 865.502H283.239V866.468H271.759V865.502ZM277.471 856.22C278.367 856.22 279.16 856.355 279.851 856.626C280.541 856.897 281.083 857.275 281.475 857.76C281.876 858.245 282.077 858.819 282.077 859.482C282.077 860.135 281.876 860.709 281.475 861.204C281.083 861.689 280.541 862.067 279.851 862.338C279.16 862.599 278.367 862.73 277.471 862.73C276.584 862.73 275.791 862.599 275.091 862.338C274.4 862.067 273.859 861.689 273.467 861.204C273.075 860.709 272.879 860.135 272.879 859.482C272.879 858.819 273.075 858.245 273.467 857.76C273.859 857.275 274.4 856.897 275.091 856.626C275.791 856.355 276.584 856.22 277.471 856.22ZM277.471 857.144C276.799 857.144 276.201 857.242 275.679 857.438C275.156 857.634 274.745 857.909 274.447 858.264C274.148 858.609 273.999 859.015 273.999 859.482C273.999 859.949 274.148 860.359 274.447 860.714C274.745 861.059 275.156 861.33 275.679 861.526C276.201 861.722 276.799 861.82 277.471 861.82C278.152 861.82 278.754 861.722 279.277 861.526C279.799 861.33 280.21 861.059 280.509 860.714C280.807 860.359 280.957 859.949 280.957 859.482C280.957 859.015 280.807 858.609 280.509 858.264C280.21 857.909 279.799 857.634 279.277 857.438C278.754 857.242 278.152 857.144 277.471 857.144ZM287.649 864.197H286.378C286.382 863.76 286.421 863.402 286.494 863.124C286.572 862.841 286.697 862.584 286.87 862.352C287.043 862.119 287.273 861.855 287.561 861.559C287.77 861.344 287.962 861.144 288.135 860.957C288.312 860.766 288.456 860.561 288.565 860.342C288.675 860.118 288.729 859.852 288.729 859.542C288.729 859.228 288.673 858.956 288.559 858.729C288.449 858.501 288.285 858.325 288.066 858.202C287.852 858.079 287.586 858.018 287.267 858.018C287.002 858.018 286.752 858.065 286.515 858.161C286.278 858.257 286.086 858.405 285.94 858.605C285.795 858.801 285.719 859.059 285.715 859.378H284.45C284.459 858.863 284.587 858.421 284.833 858.052C285.084 857.683 285.421 857.4 285.845 857.204C286.269 857.008 286.743 856.91 287.267 856.91C287.845 856.91 288.338 857.015 288.743 857.225C289.153 857.434 289.465 857.735 289.68 858.127C289.894 858.514 290.001 858.975 290.001 859.508C290.001 859.918 289.917 860.296 289.748 860.643C289.584 860.984 289.372 861.306 289.112 861.606C288.853 861.907 288.577 862.194 288.285 862.468C288.035 862.7 287.866 862.962 287.779 863.254C287.693 863.546 287.649 863.86 287.649 864.197ZM286.323 866.364C286.323 866.159 286.387 865.986 286.515 865.845C286.642 865.703 286.827 865.633 287.068 865.633C287.314 865.633 287.501 865.703 287.629 865.845C287.757 865.986 287.82 866.159 287.82 866.364C287.82 866.56 287.757 866.729 287.629 866.87C287.501 867.011 287.314 867.082 287.068 867.082C286.827 867.082 286.642 867.011 286.515 866.87C286.387 866.729 286.323 866.56 286.323 866.364Z" fill="black"/>
<path d="M93.0306 204.26H95.7106V218.36H93.0306V204.26ZM90.6306 208.86H94.0306V210.98H90.6306V208.86ZM90.6306 212.82H94.0306V214.94H90.6306V212.82ZM80.2506 206.2H90.4306V208.28H80.2506V206.2ZM85.4506 208.94C86.304 208.94 87.0573 209.093 87.7106 209.4C88.364 209.707 88.8773 210.133 89.2506 210.68C89.624 211.227 89.8106 211.86 89.8106 212.58C89.8106 213.287 89.624 213.913 89.2506 214.46C88.8773 215.007 88.364 215.44 87.7106 215.76C87.0573 216.067 86.304 216.22 85.4506 216.22C84.624 216.22 83.8773 216.067 83.2106 215.76C82.5573 215.44 82.044 215.007 81.6706 214.46C81.2973 213.913 81.1106 213.287 81.1106 212.58C81.1106 211.86 81.2973 211.227 81.6706 210.68C82.044 210.133 82.5573 209.707 83.2106 209.4C83.8773 209.093 84.624 208.94 85.4506 208.94ZM85.4706 210.98C84.924 210.98 84.4773 211.12 84.1306 211.4C83.7973 211.667 83.6306 212.06 83.6306 212.58C83.6306 213.087 83.7973 213.48 84.1306 213.76C84.4773 214.04 84.924 214.18 85.4706 214.18C86.004 214.18 86.444 214.04 86.7906 213.76C87.1373 213.48 87.3106 213.087 87.3106 212.58C87.3106 212.06 87.1373 211.667 86.7906 211.4C86.444 211.12 86.004 210.98 85.4706 210.98ZM84.1306 204.2H86.8106V207.48H84.1306V204.2ZM83.4506 220.32H96.1106V222.46H83.4506V220.32ZM83.4506 217.2H86.1106V221.32H83.4506V217.2ZM112.109 204.24H114.649V222.76H112.109V204.24ZM109.909 211.34H112.969V213.5H109.909V211.34ZM108.129 204.54H110.609V221.94H108.129V204.54ZM101.909 207.14H103.929V208.76C103.929 209.907 103.856 211.013 103.709 212.08C103.576 213.133 103.349 214.12 103.029 215.04C102.722 215.947 102.309 216.76 101.789 217.48C101.269 218.2 100.622 218.787 99.8491 219.24L98.2491 217.22C99.1691 216.673 99.8957 215.967 100.429 215.1C100.962 214.233 101.342 213.26 101.569 212.18C101.796 211.087 101.909 209.947 101.909 208.76V207.14ZM102.449 207.14H104.469V208.76C104.469 209.84 104.582 210.887 104.809 211.9C105.049 212.913 105.436 213.82 105.969 214.62C106.516 215.42 107.249 216.06 108.169 216.54L106.649 218.56C105.609 218 104.782 217.227 104.169 216.24C103.556 215.253 103.116 214.12 102.849 212.84C102.582 211.56 102.449 210.2 102.449 208.76V207.14ZM98.8291 206.12H107.249V208.26H98.8291V206.12ZM134.317 204.22H136.977V222.8H134.317V204.22ZM122.517 205.7H125.157V210.22H128.997V205.7H131.637V218.48H122.517V205.7ZM125.157 212.28V216.36H128.997V212.28H125.157ZM140.935 205.16H149.915V213.02H140.935V205.16ZM147.315 207.24H143.555V210.92H147.315V207.24ZM152.735 204.26H155.395V213.58H152.735V204.26ZM143.035 214.4H155.395V219.42H145.695V221.32H143.075V217.52H152.755V216.44H143.035V214.4ZM143.075 220.58H155.855V222.66H143.075V220.58ZM167.154 209.16H171.914V211.3H167.154V209.16ZM171.234 204.26H173.914V217.92H171.234V204.26ZM161.654 220.32H174.314V222.46H161.654V220.32ZM161.654 216.58H164.314V221.54H161.654V216.58ZM159.174 205.48H161.814V208.28H165.334V205.48H167.954V215.04H159.174V205.48ZM161.814 210.32V212.92H165.334V210.32H161.814ZM177.532 206.56H192.792V208.68H177.532V206.56ZM176.812 218.78H193.592V220.92H176.812V218.78ZM183.832 216.32H186.492V219.62H183.832V216.32ZM185.152 209.46C186.432 209.46 187.539 209.607 188.472 209.9C189.419 210.18 190.146 210.593 190.652 211.14C191.159 211.673 191.412 212.32 191.412 213.08C191.412 213.84 191.159 214.493 190.652 215.04C190.146 215.573 189.419 215.987 188.472 216.28C187.539 216.56 186.426 216.7 185.132 216.7C183.852 216.7 182.739 216.56 181.792 216.28C180.859 215.987 180.139 215.573 179.632 215.04C179.126 214.493 178.872 213.84 178.872 213.08C178.872 212.32 179.126 211.673 179.632 211.14C180.139 210.593 180.859 210.18 181.792 209.9C182.739 209.607 183.859 209.46 185.152 209.46ZM185.132 211.52C184.372 211.52 183.726 211.58 183.192 211.7C182.659 211.807 182.252 211.973 181.972 212.2C181.706 212.427 181.572 212.72 181.572 213.08C181.572 213.427 181.706 213.72 181.972 213.96C182.252 214.187 182.659 214.353 183.192 214.46C183.726 214.567 184.372 214.62 185.132 214.62C185.919 214.62 186.572 214.567 187.092 214.46C187.612 214.353 188.006 214.187 188.272 213.96C188.552 213.72 188.692 213.427 188.692 213.08C188.692 212.72 188.552 212.427 188.272 212.2C188.006 211.973 187.612 211.807 187.092 211.7C186.572 211.58 185.919 211.52 185.132 211.52ZM183.832 204.44H186.492V207.88H183.832V204.44ZM195.211 212.56H211.971V214.48H195.211V212.56ZM197.091 215.42H209.991V219.82H199.751V221.4H197.111V218.14H207.371V217.22H197.091V215.42ZM197.111 220.82H210.511V222.62H197.111V220.82ZM197.251 204.56H209.931V208.94H199.911V210.44H197.291V207.26H207.311V206.36H197.251V204.56ZM197.291 209.9H210.271V211.7H197.291V209.9ZM230.938 204.26H233.598V214.2H230.938V204.26ZM221.298 215.02H223.918V216.74H230.958V215.02H233.598V222.58H221.298V215.02ZM223.918 218.78V220.46H230.958V218.78H223.918ZM223.518 205.02C224.478 205.02 225.338 205.207 226.098 205.58C226.858 205.953 227.458 206.467 227.898 207.12C228.338 207.773 228.558 208.527 228.558 209.38C228.558 210.233 228.338 210.993 227.898 211.66C227.458 212.313 226.858 212.827 226.098 213.2C225.338 213.573 224.478 213.76 223.518 213.76C222.558 213.76 221.698 213.573 220.938 213.2C220.178 212.827 219.578 212.313 219.138 211.66C218.698 210.993 218.478 210.233 218.478 209.38C218.478 208.527 218.698 207.773 219.138 207.12C219.578 206.467 220.178 205.953 220.938 205.58C221.698 205.207 222.558 205.02 223.518 205.02ZM223.518 207.2C223.052 207.2 222.632 207.287 222.258 207.46C221.885 207.633 221.592 207.887 221.378 208.22C221.178 208.54 221.078 208.927 221.078 209.38C221.078 209.847 221.178 210.247 221.378 210.58C221.592 210.9 221.885 211.147 222.258 211.32C222.632 211.48 223.052 211.56 223.518 211.56C223.985 211.56 224.398 211.48 224.758 211.32C225.132 211.147 225.425 210.9 225.638 210.58C225.852 210.247 225.958 209.847 225.958 209.38C225.958 208.927 225.852 208.54 225.638 208.22C225.425 207.887 225.132 207.633 224.758 207.46C224.398 207.287 223.985 207.2 223.518 207.2ZM237.317 213.06H238.717C239.877 213.06 240.87 213.053 241.697 213.04C242.537 213.013 243.304 212.967 243.997 212.9C244.69 212.833 245.377 212.74 246.057 212.62L246.337 214.74C245.79 214.833 245.25 214.913 244.717 214.98C244.197 215.047 243.637 215.093 243.037 215.12C242.45 215.147 241.804 215.167 241.097 215.18C240.404 215.193 239.61 215.2 238.717 215.2H237.317V213.06ZM237.277 205.3H245.417V211.14H239.957V214.48H237.317V209.16H242.797V207.42H237.277V205.3ZM249.437 204.26H252.117V215.68H249.437V204.26ZM246.477 206.82H249.937V208.94H246.477V206.82ZM246.477 210.76H249.937V212.88H246.477V210.76ZM239.417 216.52H252.117V222.78H249.437V218.62H239.417V216.52ZM254.995 207.04H263.855V209.14H254.995V207.04ZM259.455 209.98C260.242 209.98 260.935 210.167 261.535 210.54C262.149 210.913 262.629 211.433 262.975 212.1C263.335 212.753 263.515 213.513 263.515 214.38C263.515 215.247 263.335 216.013 262.975 216.68C262.629 217.333 262.149 217.847 261.535 218.22C260.935 218.593 260.242 218.78 259.455 218.78C258.669 218.78 257.969 218.593 257.355 218.22C256.742 217.847 256.262 217.333 255.915 216.68C255.569 216.013 255.395 215.247 255.395 214.38C255.395 213.513 255.569 212.753 255.915 212.1C256.262 211.433 256.742 210.913 257.355 210.54C257.982 210.167 258.682 209.98 259.455 209.98ZM259.455 212.18C259.135 212.18 258.842 212.267 258.575 212.44C258.309 212.613 258.102 212.867 257.955 213.2C257.809 213.52 257.735 213.913 257.735 214.38C257.735 214.847 257.809 215.247 257.955 215.58C258.102 215.913 258.309 216.167 258.575 216.34C258.842 216.5 259.135 216.58 259.455 216.58C259.789 216.58 260.082 216.5 260.335 216.34C260.589 216.167 260.789 215.913 260.935 215.58C261.082 215.247 261.155 214.847 261.155 214.38C261.155 213.913 261.082 213.52 260.935 213.2C260.789 212.867 260.589 212.613 260.335 212.44C260.082 212.267 259.789 212.18 259.455 212.18ZM268.395 204.24H270.915V222.76H268.395V204.24ZM266.175 211.78H269.215V213.92H266.175V211.78ZM264.495 204.58H266.975V221.98H264.495V204.58ZM258.155 204.74H260.775V208.36H258.155V204.74ZM280.254 206.3H282.574V206.86C282.574 207.5 282.467 208.12 282.254 208.72C282.054 209.32 281.747 209.88 281.334 210.4C280.92 210.907 280.414 211.367 279.814 211.78C279.227 212.18 278.547 212.52 277.774 212.8C277 213.08 276.14 213.28 275.194 213.4L274.214 211.34C275.04 211.233 275.774 211.073 276.414 210.86C277.067 210.633 277.634 210.373 278.114 210.08C278.594 209.773 278.994 209.447 279.314 209.1C279.634 208.753 279.867 208.387 280.014 208C280.174 207.613 280.254 207.233 280.254 206.86V206.3ZM281.034 206.3H283.334V206.86C283.334 207.233 283.407 207.613 283.554 208C283.714 208.387 283.954 208.753 284.274 209.1C284.594 209.447 284.994 209.773 285.474 210.08C285.967 210.373 286.534 210.633 287.174 210.86C287.814 211.073 288.547 211.233 289.374 211.34L288.394 213.4C287.447 213.28 286.587 213.08 285.814 212.8C285.04 212.52 284.354 212.18 283.754 211.78C283.167 211.367 282.667 210.907 282.254 210.4C281.854 209.88 281.547 209.32 281.334 208.72C281.134 208.12 281.034 207.5 281.034 206.86V206.3ZM280.394 216H283.054V222.78H280.394V216ZM273.414 214.46H290.174V216.6H273.414V214.46ZM274.894 205.2H288.634V207.3H274.894V205.2ZM299.092 210.48H302.172V212.64H299.092V210.48ZM295.152 205.86H297.172V208.96C297.172 210.013 297.099 211.047 296.952 212.06C296.806 213.073 296.566 214.027 296.232 214.92C295.912 215.813 295.486 216.62 294.952 217.34C294.432 218.047 293.799 218.627 293.052 219.08L291.452 217.08C292.146 216.667 292.726 216.16 293.192 215.56C293.659 214.96 294.039 214.3 294.332 213.58C294.626 212.86 294.832 212.113 294.952 211.34C295.086 210.553 295.152 209.76 295.152 208.96V205.86ZM295.732 205.86H297.712V208.84C297.712 209.6 297.766 210.353 297.872 211.1C297.992 211.847 298.179 212.56 298.432 213.24C298.686 213.92 299.019 214.547 299.432 215.12C299.859 215.693 300.392 216.187 301.032 216.6L299.572 218.68C298.852 218.227 298.239 217.653 297.732 216.96C297.239 216.253 296.846 215.46 296.552 214.58C296.259 213.7 296.046 212.773 295.912 211.8C295.792 210.827 295.732 209.84 295.732 208.84V205.86ZM305.172 204.24H307.712V222.76H305.172V204.24ZM301.412 204.54H303.892V221.94H301.412V204.54ZM313.891 213.66H316.551V218.84H313.891V213.66ZM320.611 213.66H323.271V218.84H320.611V213.66ZM310.211 218.46H326.991V220.62H310.211V218.46ZM318.571 205.16C319.904 205.16 321.091 205.367 322.131 205.78C323.184 206.193 324.004 206.773 324.591 207.52C325.191 208.253 325.491 209.127 325.491 210.14C325.491 211.14 325.191 212.013 324.591 212.76C324.004 213.493 323.184 214.067 322.131 214.48C321.091 214.893 319.904 215.1 318.571 215.1C317.251 215.1 316.064 214.893 315.011 214.48C313.971 214.067 313.151 213.493 312.551 212.76C311.951 212.013 311.651 211.14 311.651 210.14C311.651 209.127 311.951 208.253 312.551 207.52C313.151 206.773 313.971 206.193 315.011 205.78C316.064 205.367 317.251 205.16 318.571 205.16ZM318.571 207.22C317.717 207.22 316.964 207.34 316.311 207.58C315.671 207.807 315.171 208.133 314.811 208.56C314.451 208.987 314.271 209.513 314.271 210.14C314.271 210.74 314.451 211.26 314.811 211.7C315.171 212.127 315.671 212.46 316.311 212.7C316.964 212.927 317.717 213.04 318.571 213.04C319.437 213.04 320.191 212.927 320.831 212.7C321.484 212.46 321.984 212.127 322.331 211.7C322.691 211.26 322.871 210.74 322.871 210.14C322.871 209.513 322.691 208.987 322.331 208.56C321.984 208.133 321.484 207.807 320.831 207.58C320.191 207.34 319.437 207.22 318.571 207.22ZM329.029 219.604C329.029 219.174 329.173 218.816 329.459 218.529C329.745 218.236 330.133 218.09 330.621 218.09C331.109 218.09 331.497 218.236 331.783 218.529C332.07 218.816 332.213 219.174 332.213 219.604C332.213 220.033 332.07 220.391 331.783 220.678C331.497 220.964 331.109 221.107 330.621 221.107C330.133 221.107 329.745 220.964 329.459 220.678C329.173 220.391 329.029 220.033 329.029 219.604Z" fill="black"/>
<circle cx="111.5" cy="320.5" r="6.5" fill="#575757"/>
<circle cx="149.5" cy="320.5" r="6.5" fill="#575757"/>
<circle cx="187.5" cy="320.5" r="6.5" fill="#575757"/>
<circle cx="225.5" cy="320.5" r="6.5" fill="#575757"/>
<circle cx="263.5" cy="320.5" r="6.5" fill="#575757"/>
<circle cx="301.5" cy="320.5" r="6.5" fill="#575757"/>
<path d="M307.008 514.75H307.441V517.539H307.289C306.547 517.539 305.898 517.668 305.344 517.926C304.797 518.176 304.34 518.543 303.973 519.027C303.613 519.504 303.344 520.082 303.164 520.762C302.984 521.434 302.895 522.188 302.895 523.023V525.895C302.895 526.488 302.934 527.012 303.012 527.465C303.098 527.918 303.219 528.297 303.375 528.602C303.539 528.898 303.727 529.121 303.938 529.27C304.156 529.418 304.395 529.492 304.652 529.492C304.918 529.492 305.16 529.414 305.379 529.258C305.598 529.102 305.785 528.887 305.941 528.613C306.098 528.332 306.215 528.008 306.293 527.641C306.379 527.266 306.422 526.852 306.422 526.398C306.422 525.945 306.379 525.531 306.293 525.156C306.207 524.773 306.086 524.445 305.93 524.172C305.773 523.898 305.582 523.688 305.355 523.539C305.137 523.383 304.891 523.305 304.617 523.305C304.219 523.305 303.879 523.426 303.598 523.668C303.316 523.902 303.102 524.207 302.953 524.582C302.805 524.949 302.723 525.336 302.707 525.742L301.723 525.039C301.754 524.445 301.863 523.887 302.051 523.363C302.246 522.832 302.512 522.355 302.848 521.934C303.184 521.512 303.586 521.184 304.055 520.949C304.523 520.707 305.051 520.586 305.637 520.586C306.309 520.586 306.898 520.738 307.406 521.043C307.922 521.348 308.348 521.766 308.684 522.297C309.027 522.828 309.281 523.441 309.445 524.137C309.617 524.832 309.703 525.578 309.703 526.375C309.703 527.203 309.586 527.973 309.352 528.684C309.117 529.395 308.785 530.016 308.355 530.547C307.926 531.078 307.402 531.492 306.785 531.789C306.176 532.086 305.488 532.234 304.723 532.234C303.941 532.234 303.234 532.07 302.602 531.742C301.977 531.414 301.438 530.949 300.984 530.348C300.539 529.738 300.199 529.02 299.965 528.191C299.73 527.363 299.613 526.449 299.613 525.449V524.125C299.613 522.75 299.773 521.492 300.094 520.352C300.414 519.203 300.887 518.211 301.512 517.375C302.145 516.539 302.918 515.895 303.832 515.441C304.754 514.98 305.812 514.75 307.008 514.75Z" fill="black"/>
<path d="M309.387 622.312C309.387 623.391 309.176 624.297 308.754 625.031C308.34 625.758 307.762 626.309 307.02 626.684C306.285 627.051 305.449 627.234 304.512 627.234C303.574 627.234 302.734 627.051 301.992 626.684C301.25 626.309 300.664 625.758 300.234 625.031C299.805 624.297 299.59 623.391 299.59 622.312C299.59 621.586 299.711 620.934 299.953 620.355C300.195 619.777 300.535 619.277 300.973 618.855C301.418 618.434 301.938 618.113 302.531 617.895C303.133 617.668 303.785 617.555 304.488 617.555C305.434 617.555 306.277 617.75 307.02 618.141C307.762 618.531 308.34 619.082 308.754 619.793C309.176 620.504 309.387 621.344 309.387 622.312ZM306.094 622.078C306.094 621.562 306.027 621.121 305.895 620.754C305.77 620.387 305.586 620.105 305.344 619.91C305.102 619.715 304.816 619.617 304.488 619.617C304.16 619.617 303.875 619.715 303.633 619.91C303.398 620.105 303.215 620.387 303.082 620.754C302.949 621.121 302.883 621.562 302.883 622.078C302.883 622.578 302.945 623.008 303.07 623.367C303.203 623.727 303.391 624.008 303.633 624.211C303.883 624.406 304.176 624.504 304.512 624.504C304.848 624.504 305.133 624.406 305.367 624.211C305.609 624.008 305.789 623.727 305.906 623.367C306.031 623.008 306.094 622.578 306.094 622.078ZM309.105 614.473C309.105 615.348 308.91 616.117 308.52 616.781C308.129 617.445 307.586 617.965 306.891 618.34C306.203 618.715 305.41 618.902 304.512 618.902C303.605 618.902 302.801 618.715 302.098 618.34C301.402 617.965 300.859 617.445 300.469 616.781C300.078 616.117 299.883 615.348 299.883 614.473C299.883 613.441 300.078 612.57 300.469 611.859C300.867 611.148 301.414 610.609 302.109 610.242C302.805 609.875 303.602 609.691 304.5 609.691C305.398 609.691 306.195 609.875 306.891 610.242C307.586 610.609 308.129 611.148 308.52 611.859C308.91 612.57 309.105 613.441 309.105 614.473ZM305.824 614.637C305.824 614.191 305.773 613.805 305.672 613.477C305.578 613.141 305.434 612.883 305.238 612.703C305.051 612.516 304.805 612.422 304.5 612.422C304.211 612.422 303.965 612.512 303.762 612.691C303.566 612.863 303.418 613.117 303.316 613.453C303.223 613.781 303.176 614.176 303.176 614.637C303.176 615.082 303.223 615.473 303.316 615.809C303.418 616.145 303.566 616.41 303.762 616.605C303.965 616.793 304.215 616.887 304.512 616.887C304.809 616.887 305.051 616.793 305.238 616.605C305.434 616.41 305.578 616.145 305.672 615.809C305.773 615.473 305.824 615.082 305.824 614.637Z" fill="black"/>
<path d="M301.496 711.957H303.102C303.508 711.957 303.844 711.863 304.109 711.676C304.375 711.48 304.57 711.207 304.695 710.855C304.82 710.496 304.883 710.078 304.883 709.602C304.883 709.18 304.824 708.809 304.707 708.488C304.59 708.16 304.41 707.902 304.168 707.715C303.926 707.52 303.621 707.422 303.254 707.422C302.973 707.422 302.707 707.5 302.457 707.656C302.215 707.805 302.023 708.023 301.883 708.312C301.742 708.602 301.672 708.945 301.672 709.344H298.379C298.379 708.406 298.59 707.59 299.012 706.895C299.441 706.199 300.02 705.66 300.746 705.277C301.473 704.887 302.277 704.691 303.16 704.691C304.152 704.691 305.023 704.875 305.773 705.242C306.523 705.609 307.109 706.156 307.531 706.883C307.953 707.602 308.164 708.492 308.164 709.555C308.164 710.102 308.062 710.629 307.859 711.137C307.656 711.637 307.359 712.09 306.969 712.496C306.578 712.902 306.102 713.223 305.539 713.457C304.977 713.691 304.34 713.809 303.629 713.809H301.496V711.957ZM301.496 714.617V712.824H303.629C304.434 712.824 305.133 712.93 305.727 713.141C306.32 713.344 306.812 713.641 307.203 714.031C307.602 714.422 307.898 714.887 308.094 715.426C308.289 715.957 308.387 716.551 308.387 717.207C308.387 718.004 308.254 718.715 307.988 719.34C307.723 719.965 307.352 720.492 306.875 720.922C306.398 721.352 305.844 721.68 305.211 721.906C304.578 722.125 303.891 722.234 303.148 722.234C302.531 722.234 301.926 722.137 301.332 721.941C300.746 721.746 300.219 721.445 299.75 721.039C299.281 720.633 298.91 720.121 298.637 719.504C298.363 718.887 298.227 718.156 298.227 717.312H301.508C301.508 717.734 301.582 718.113 301.73 718.449C301.887 718.777 302.094 719.035 302.352 719.223C302.609 719.41 302.902 719.504 303.23 719.504C303.613 719.504 303.945 719.406 304.227 719.211C304.508 719.016 304.723 718.742 304.871 718.391C305.02 718.039 305.094 717.633 305.094 717.172C305.094 716.562 305.016 716.074 304.859 715.707C304.703 715.332 304.477 715.059 304.18 714.887C303.883 714.707 303.523 714.617 303.102 714.617H301.496Z" fill="black"/>
<path d="M211.445 521.969V524.934C211.445 526.215 211.324 527.316 211.082 528.238C210.84 529.16 210.5 529.918 210.062 530.512C209.625 531.098 209.105 531.531 208.504 531.812C207.902 532.094 207.238 532.234 206.512 532.234C205.934 532.234 205.391 532.145 204.883 531.965C204.375 531.785 203.914 531.512 203.5 531.145C203.094 530.77 202.742 530.297 202.445 529.727C202.156 529.148 201.934 528.465 201.777 527.676C201.621 526.879 201.543 525.965 201.543 524.934V521.969C201.543 520.688 201.664 519.59 201.906 518.676C202.156 517.754 202.5 517 202.938 516.414C203.375 515.828 203.895 515.398 204.496 515.125C205.105 514.844 205.773 514.703 206.5 514.703C207.07 514.703 207.609 514.793 208.117 514.973C208.625 515.145 209.082 515.414 209.488 515.781C209.895 516.148 210.242 516.621 210.531 517.199C210.828 517.77 211.055 518.453 211.211 519.25C211.367 520.039 211.445 520.945 211.445 521.969ZM208.152 525.391V521.488C208.152 520.887 208.125 520.359 208.07 519.906C208.023 519.453 207.953 519.07 207.859 518.758C207.773 518.445 207.66 518.191 207.52 517.996C207.387 517.801 207.234 517.66 207.062 517.574C206.891 517.48 206.703 517.434 206.5 517.434C206.242 517.434 206.012 517.504 205.809 517.645C205.605 517.785 205.43 518.016 205.281 518.336C205.133 518.648 205.02 519.066 204.941 519.59C204.871 520.105 204.836 520.738 204.836 521.488V525.391C204.836 525.992 204.859 526.523 204.906 526.984C204.961 527.445 205.035 527.84 205.129 528.168C205.23 528.488 205.344 528.746 205.469 528.941C205.602 529.137 205.754 529.281 205.926 529.375C206.105 529.461 206.301 529.504 206.512 529.504C206.762 529.504 206.988 529.434 207.191 529.293C207.402 529.145 207.578 528.91 207.719 528.59C207.859 528.27 207.965 527.848 208.035 527.324C208.113 526.793 208.152 526.148 208.152 525.391Z" fill="black"/>
<path d="M204.52 619.266L201.895 618.609L202.75 609.938H210.988V612.75H205.445L205.129 616.418C205.309 616.293 205.574 616.156 205.926 616.008C206.285 615.859 206.684 615.785 207.121 615.785C207.832 615.785 208.457 615.914 208.996 616.172C209.543 616.43 210.004 616.805 210.379 617.297C210.754 617.789 211.039 618.391 211.234 619.102C211.43 619.812 211.527 620.617 211.527 621.516C211.527 622.273 211.426 622.996 211.223 623.684C211.02 624.371 210.707 624.98 210.285 625.512C209.863 626.043 209.34 626.465 208.715 626.777C208.098 627.082 207.367 627.234 206.523 627.234C205.891 627.234 205.281 627.125 204.695 626.906C204.109 626.688 203.582 626.363 203.113 625.934C202.645 625.496 202.27 624.973 201.988 624.363C201.707 623.746 201.566 623.043 201.566 622.254H204.812C204.852 622.715 204.941 623.113 205.082 623.449C205.23 623.785 205.426 624.047 205.668 624.234C205.91 624.414 206.191 624.504 206.512 624.504C206.832 624.504 207.102 624.426 207.32 624.27C207.547 624.105 207.727 623.879 207.859 623.59C207.992 623.301 208.086 622.965 208.141 622.582C208.203 622.191 208.234 621.773 208.234 621.328C208.234 620.875 208.195 620.465 208.117 620.098C208.039 619.73 207.918 619.414 207.754 619.148C207.59 618.883 207.375 618.68 207.109 618.539C206.852 618.398 206.551 618.328 206.207 618.328C205.723 618.328 205.359 618.43 205.117 618.633C204.883 618.828 204.684 619.039 204.52 619.266Z" fill="black"/>
<path d="M210.738 715.578V718.309H200.32L200.168 716.164L205.969 704.938H208.57L205.91 709.93L203.379 715.578H210.738ZM209.285 704.938V722H205.992V704.938H209.285Z" fill="black"/>
<path opacity="0.9" d="M105.664 529.34H105.828C106.578 529.34 107.219 529.23 107.75 529.012C108.289 528.793 108.727 528.473 109.062 528.051C109.406 527.621 109.656 527.098 109.812 526.48C109.969 525.855 110.047 525.141 110.047 524.336V521.043C110.047 520.434 110.004 519.906 109.918 519.461C109.832 519.008 109.711 518.633 109.555 518.336C109.398 518.031 109.223 517.805 109.027 517.656C108.832 517.508 108.621 517.434 108.395 517.434C108.129 517.434 107.895 517.527 107.691 517.715C107.488 517.895 107.316 518.137 107.176 518.441C107.043 518.746 106.941 519.094 106.871 519.484C106.801 519.875 106.766 520.281 106.766 520.703C106.766 521.133 106.801 521.543 106.871 521.934C106.941 522.316 107.047 522.656 107.188 522.953C107.328 523.242 107.508 523.469 107.727 523.633C107.945 523.797 108.207 523.879 108.512 523.879C108.762 523.879 108.992 523.809 109.203 523.668C109.414 523.52 109.598 523.328 109.754 523.094C109.918 522.852 110.043 522.586 110.129 522.297C110.223 522 110.273 521.699 110.281 521.395L111.348 522.062C111.348 522.594 111.25 523.121 111.055 523.645C110.867 524.168 110.605 524.645 110.27 525.074C109.934 525.504 109.543 525.848 109.098 526.105C108.66 526.355 108.188 526.48 107.68 526.48C107 526.48 106.398 526.336 105.875 526.047C105.352 525.75 104.91 525.344 104.551 524.828C104.199 524.312 103.934 523.707 103.754 523.012C103.574 522.316 103.484 521.559 103.484 520.738C103.484 519.91 103.598 519.133 103.824 518.406C104.059 517.672 104.391 517.027 104.82 516.473C105.25 515.918 105.77 515.484 106.379 515.172C106.988 514.852 107.668 514.691 108.418 514.691C109.16 514.691 109.832 514.855 110.434 515.184C111.035 515.512 111.551 515.984 111.98 516.602C112.41 517.211 112.738 517.945 112.965 518.805C113.199 519.656 113.316 520.609 113.316 521.664V522.836C113.316 523.961 113.219 525.004 113.023 525.965C112.828 526.918 112.531 527.777 112.133 528.543C111.734 529.309 111.238 529.965 110.645 530.512C110.051 531.051 109.355 531.465 108.559 531.754C107.77 532.035 106.875 532.176 105.875 532.176H105.664V529.34Z" fill="black"/>
<path d="M110.832 609.902V627H107.539V613.934L104.281 615.188V612.445L110.469 609.902H110.832Z" fill="black"/>
<path d="M112.539 704.938V706.812L107.148 722H103.68L109.094 707.668H102.227V704.938H112.539Z" fill="black"/>
<path d="M211.598 803.27V806H201.543V803.668L206.16 797.797C206.605 797.188 206.953 796.648 207.203 796.18C207.453 795.711 207.633 795.293 207.742 794.926C207.852 794.551 207.906 794.195 207.906 793.859C207.906 793.359 207.848 792.93 207.73 792.57C207.613 792.203 207.438 791.922 207.203 791.727C206.977 791.523 206.695 791.422 206.359 791.422C205.953 791.422 205.617 791.547 205.352 791.797C205.086 792.047 204.887 792.391 204.754 792.828C204.629 793.258 204.566 793.746 204.566 794.293H201.273C201.273 793.277 201.48 792.344 201.895 791.492C202.316 790.633 202.906 789.953 203.664 789.453C204.43 788.945 205.348 788.691 206.418 788.691C207.457 788.691 208.332 788.887 209.043 789.277C209.754 789.668 210.289 790.227 210.648 790.953C211.016 791.672 211.199 792.535 211.199 793.543C211.199 794.105 211.125 794.656 210.977 795.195C210.828 795.727 210.617 796.258 210.344 796.789C210.07 797.312 209.73 797.848 209.324 798.395C208.926 798.941 208.48 799.508 207.988 800.094L205.762 803.27H211.598Z" fill="black"/>
<path d="M108.59 796.17L103.41 791L102 792.41L107.17 797.58L108.59 796.17ZM112.5 791L114.54 793.04L102 805.59L103.41 807L115.96 794.46L118 796.5V791H112.5ZM112.83 800.41L111.42 801.82L114.55 804.95L112.5 807H118V801.5L115.96 803.54L112.83 800.41Z" fill="#0C0C0C"/>
<path d="M296.946 795.2L298.002 794.144C298.47 793.676 298.47 792.92 298.002 792.452C297.534 791.984 296.778 791.984 296.31 792.452L293.202 795.56C292.734 796.028 292.734 796.784 293.202 797.252L296.298 800.348C296.766 800.816 297.522 800.816 297.99 800.348C298.458 799.88 298.458 799.124 297.99 798.656L296.946 797.6H312.75C313.41 797.6 313.95 797.06 313.95 796.4C313.95 795.74 313.41 795.2 312.75 795.2H296.946Z" fill="#0C0C0C"/>
<path d="M27.416 12.0469V12.7578L23.2939 22H21.9609L26.0762 13.0859H20.6895V12.0469H27.416ZM28.9404 21.3301C28.9404 21.1159 29.0065 20.9359 29.1387 20.79C29.2754 20.6396 29.4714 20.5645 29.7266 20.5645C29.9818 20.5645 30.1755 20.6396 30.3076 20.79C30.4443 20.9359 30.5127 21.1159 30.5127 21.3301C30.5127 21.5397 30.4443 21.7174 30.3076 21.8633C30.1755 22.0091 29.9818 22.082 29.7266 22.082C29.4714 22.082 29.2754 22.0091 29.1387 21.8633C29.0065 21.7174 28.9404 21.5397 28.9404 21.3301ZM28.9473 15.2939C28.9473 15.0798 29.0133 14.8997 29.1455 14.7539C29.2822 14.6035 29.4782 14.5283 29.7334 14.5283C29.9886 14.5283 30.1823 14.6035 30.3145 14.7539C30.4512 14.8997 30.5195 15.0798 30.5195 15.2939C30.5195 15.5036 30.4512 15.6813 30.3145 15.8271C30.1823 15.973 29.9886 16.0459 29.7334 16.0459C29.4782 16.0459 29.2822 15.973 29.1455 15.8271C29.0133 15.6813 28.9473 15.5036 28.9473 15.2939ZM34.0947 16.4014H34.9971C35.4391 16.4014 35.8037 16.3285 36.0908 16.1826C36.3825 16.0322 36.599 15.8294 36.7402 15.5742C36.8861 15.3145 36.959 15.0228 36.959 14.6992C36.959 14.3164 36.8952 13.9951 36.7676 13.7354C36.64 13.4756 36.4486 13.2796 36.1934 13.1475C35.9382 13.0153 35.6146 12.9492 35.2227 12.9492C34.8672 12.9492 34.5527 13.0199 34.2793 13.1611C34.0104 13.2979 33.7985 13.4938 33.6436 13.749C33.4932 14.0042 33.418 14.305 33.418 14.6514H32.1533C32.1533 14.1455 32.2809 13.6852 32.5361 13.2705C32.7913 12.8558 33.1491 12.5254 33.6094 12.2793C34.0742 12.0332 34.612 11.9102 35.2227 11.9102C35.8242 11.9102 36.3506 12.0173 36.8018 12.2314C37.2529 12.4411 37.6038 12.7555 37.8545 13.1748C38.1051 13.5895 38.2305 14.1068 38.2305 14.7266C38.2305 14.9772 38.1712 15.2461 38.0527 15.5332C37.9388 15.8158 37.7588 16.0801 37.5127 16.3262C37.2712 16.5723 36.9567 16.7751 36.5693 16.9346C36.182 17.0895 35.7171 17.167 35.1748 17.167H34.0947V16.4014ZM34.0947 17.4404V16.6816H35.1748C35.8083 16.6816 36.3324 16.7568 36.7471 16.9072C37.1618 17.0576 37.4876 17.2581 37.7246 17.5088C37.9661 17.7594 38.1348 18.0352 38.2305 18.3359C38.3307 18.6322 38.3809 18.9284 38.3809 19.2246C38.3809 19.6895 38.3011 20.1019 38.1416 20.4619C37.9867 20.8219 37.7656 21.1273 37.4785 21.3779C37.196 21.6286 36.8633 21.8177 36.4805 21.9453C36.0977 22.0729 35.6807 22.1367 35.2295 22.1367C34.7965 22.1367 34.3887 22.0752 34.0059 21.9521C33.6276 21.8291 33.2926 21.6514 33.001 21.4189C32.7093 21.182 32.4814 20.8926 32.3174 20.5508C32.1533 20.2044 32.0713 19.8102 32.0713 19.3682H33.3359C33.3359 19.7145 33.4111 20.0176 33.5615 20.2773C33.7165 20.5371 33.9352 20.7399 34.2178 20.8857C34.5049 21.027 34.8421 21.0977 35.2295 21.0977C35.6169 21.0977 35.9495 21.0316 36.2275 20.8994C36.5101 20.7627 36.7266 20.5576 36.877 20.2842C37.0319 20.0107 37.1094 19.6667 37.1094 19.252C37.1094 18.8372 37.0228 18.4977 36.8496 18.2334C36.6764 17.9645 36.4303 17.7663 36.1113 17.6387C35.7969 17.5065 35.4255 17.4404 34.9971 17.4404H34.0947ZM46.3721 16.2305V17.748C46.3721 18.5638 46.2992 19.252 46.1533 19.8125C46.0075 20.373 45.7979 20.8242 45.5244 21.166C45.251 21.5078 44.9206 21.7562 44.5332 21.9111C44.1504 22.0615 43.7174 22.1367 43.2344 22.1367C42.8516 22.1367 42.4984 22.0889 42.1748 21.9932C41.8512 21.8975 41.5596 21.7448 41.2998 21.5352C41.0446 21.321 40.8258 21.043 40.6436 20.7012C40.4613 20.3594 40.3223 19.9447 40.2266 19.457C40.1309 18.9694 40.083 18.3997 40.083 17.748V16.2305C40.083 15.4147 40.1559 14.7311 40.3018 14.1797C40.4521 13.6283 40.6641 13.1862 40.9375 12.8535C41.2109 12.5163 41.5391 12.2747 41.9219 12.1289C42.3092 11.9831 42.7422 11.9102 43.2207 11.9102C43.6081 11.9102 43.9635 11.958 44.2871 12.0537C44.6152 12.1449 44.9069 12.293 45.1621 12.498C45.4173 12.6986 45.6338 12.9674 45.8115 13.3047C45.9938 13.6374 46.1328 14.0452 46.2285 14.5283C46.3242 15.0114 46.3721 15.5788 46.3721 16.2305ZM45.1006 17.9531V16.0186C45.1006 15.5719 45.0732 15.18 45.0186 14.8428C44.9684 14.501 44.8932 14.2093 44.793 13.9678C44.6927 13.7262 44.5651 13.5303 44.4102 13.3799C44.2598 13.2295 44.0843 13.1201 43.8838 13.0518C43.6878 12.9788 43.4668 12.9424 43.2207 12.9424C42.9199 12.9424 42.6533 12.9993 42.4209 13.1133C42.1885 13.2227 41.9925 13.3981 41.833 13.6396C41.6781 13.8812 41.5596 14.1979 41.4775 14.5898C41.3955 14.9818 41.3545 15.458 41.3545 16.0186V17.9531C41.3545 18.3997 41.3796 18.7939 41.4297 19.1357C41.4844 19.4775 41.5641 19.7738 41.6689 20.0244C41.7738 20.2705 41.9014 20.4733 42.0518 20.6328C42.2021 20.7923 42.3753 20.9108 42.5713 20.9883C42.7718 21.0612 42.9928 21.0977 43.2344 21.0977C43.5443 21.0977 43.8154 21.0384 44.0479 20.9199C44.2803 20.8014 44.474 20.6169 44.6289 20.3662C44.7884 20.111 44.9069 19.7852 44.9844 19.3887C45.0618 18.9876 45.1006 18.5091 45.1006 17.9531ZM55.4844 12.9287L52.1895 22H50.8428L54.6367 12.0469H55.5049L55.4844 12.9287ZM58.2461 22L54.9443 12.9287L54.9238 12.0469H55.792L59.5996 22H58.2461ZM58.0752 18.3154V19.3955H52.4834V18.3154H58.0752ZM61.3496 12.0469H62.6279L65.8887 20.1611L69.1426 12.0469H70.4277L66.3809 22H65.3828L61.3496 12.0469ZM60.9326 12.0469H62.0605L62.2451 18.1172V22H60.9326V12.0469ZM69.71 12.0469H70.8379V22H69.5254V18.1172L69.71 12.0469Z" fill="#0C0C0C"/>
<path d="M322.792 12.9478L324.375 14.5311C328.31 10.5966 334.69 10.5966 338.625 14.5311L340.208 12.9478C335.403 8.1424 327.605 8.1424 322.792 12.9478ZM329.125 19.2811L331.5 21.6561L333.875 19.2811C332.569 17.967 330.439 17.967 329.125 19.2811ZM325.958 16.1145L327.542 17.6978C329.727 15.5128 333.273 15.5128 335.458 17.6978L337.042 16.1145C333.986 13.0586 329.022 13.0586 325.958 16.1145Z" fill="#0C0C0C"/>
<path d="M362.75 9.3335H365.25V22.6668H362.75V9.3335ZM352.75 17.6668H355.25V22.6668H352.75V17.6668ZM357.75 13.5002H360.25V22.6668H357.75V13.5002Z" fill="#0C0C0C"/>
<path d="M391.362 9.55847L391.1 24.4572L382.823 24.3114L383.085 9.41273L385.568 9.45645L385.598 7.80104L388.908 7.85934L388.879 9.51475L391.362 9.55847ZM389.678 11.1847L384.712 11.0973L384.653 14.4081L389.62 14.4956L389.678 11.1847Z" fill="#0C0C0C"/>
<rect width="412" height="35" transform="translate(0 38)" fill="white"/>
<path opacity="0.9" d="M152.724 43.864H155.916V66.16H152.724V43.864ZM138.564 45.64H141.732V51.064H146.34V45.64H149.508V60.976H138.564V45.64ZM141.732 53.536V58.432H146.34V53.536H141.732ZM160.666 44.992H171.442V54.424H160.666V44.992ZM168.322 47.488H163.81V51.904H168.322V47.488ZM174.826 43.912H178.018V55.096H174.826V43.912ZM163.186 56.08H178.018V62.104H166.378V64.384H163.234V59.824H174.85V58.528H163.186V56.08ZM163.234 63.496H178.57V65.992H163.234V63.496ZM192.128 49.792H197.84V52.36H192.128V49.792ZM197.024 43.912H200.24V60.304H197.024V43.912ZM185.528 63.184H200.72V65.752H185.528V63.184ZM185.528 58.696H188.72V64.648H185.528V58.696ZM182.552 45.376H185.72V48.736H189.944V45.376H193.088V56.848H182.552V45.376ZM185.72 51.184V54.304H189.944V51.184H185.72ZM204.582 46.672H222.894V49.216H204.582V46.672ZM203.718 61.336H223.854V63.904H203.718V61.336ZM212.142 58.384H215.334V62.344H212.142V58.384ZM213.726 50.152C215.262 50.152 216.59 50.328 217.71 50.68C218.846 51.016 219.718 51.512 220.326 52.168C220.934 52.808 221.238 53.584 221.238 54.496C221.238 55.408 220.934 56.192 220.326 56.848C219.718 57.488 218.846 57.984 217.71 58.336C216.59 58.672 215.254 58.84 213.702 58.84C212.166 58.84 210.83 58.672 209.694 58.336C208.574 57.984 207.71 57.488 207.102 56.848C206.494 56.192 206.19 55.408 206.19 54.496C206.19 53.584 206.494 52.808 207.102 52.168C207.71 51.512 208.574 51.016 209.694 50.68C210.83 50.328 212.174 50.152 213.726 50.152ZM213.702 52.624C212.79 52.624 212.014 52.696 211.374 52.84C210.734 52.968 210.246 53.168 209.91 53.44C209.59 53.712 209.43 54.064 209.43 54.496C209.43 54.912 209.59 55.264 209.91 55.552C210.246 55.824 210.734 56.024 211.374 56.152C212.014 56.28 212.79 56.344 213.702 56.344C214.646 56.344 215.43 56.28 216.054 56.152C216.678 56.024 217.15 55.824 217.47 55.552C217.806 55.264 217.974 54.912 217.974 54.496C217.974 54.064 217.806 53.712 217.47 53.44C217.15 53.168 216.678 52.968 216.054 52.84C215.43 52.696 214.646 52.624 213.702 52.624ZM212.142 44.128H215.334V48.256H212.142V44.128ZM242.224 47.608H247.888V50.152H242.224V47.608ZM242.224 52.384H247.96V54.928H242.224V52.384ZM246.712 43.912H249.928V60.304H246.712V43.912ZM235.216 63.184H250.408V65.752H235.216V63.184ZM235.216 58.696H238.408V64.648H235.216V58.696ZM232.24 45.376H235.408V48.736H239.632V45.376H242.776V56.848H232.24V45.376ZM235.408 51.184V54.304H239.632V51.184H235.408ZM264.11 47.416H269.318V49.936H264.11V47.416ZM263.918 52H269.15V54.568H263.918V52ZM268.79 43.888H272.006V56.68H268.79V43.888ZM261.566 45.4H264.95C264.95 47.416 264.574 49.2 263.822 50.752C263.07 52.288 261.942 53.592 260.438 54.664C258.934 55.72 257.054 56.56 254.798 57.184L253.574 54.688C255.462 54.192 256.99 53.568 258.158 52.816C259.326 52.048 260.182 51.168 260.726 50.176C261.286 49.184 261.566 48.112 261.566 46.96V45.4ZM254.774 45.4H263.798V47.944H254.774V45.4ZM264.638 56.968C266.142 56.968 267.454 57.152 268.574 57.52C269.71 57.888 270.582 58.408 271.19 59.08C271.814 59.752 272.126 60.552 272.126 61.48C272.126 62.408 271.814 63.208 271.19 63.88C270.582 64.552 269.71 65.072 268.574 65.44C267.454 65.824 266.142 66.016 264.638 66.016C263.134 66.016 261.814 65.824 260.678 65.44C259.558 65.072 258.686 64.552 258.062 63.88C257.438 63.208 257.126 62.408 257.126 61.48C257.126 60.552 257.438 59.752 258.062 59.08C258.686 58.408 259.558 57.888 260.678 57.52C261.814 57.152 263.134 56.968 264.638 56.968ZM264.638 59.416C263.726 59.416 262.942 59.496 262.286 59.656C261.646 59.816 261.15 60.048 260.798 60.352C260.446 60.656 260.27 61.032 260.27 61.48C260.27 61.928 260.446 62.312 260.798 62.632C261.15 62.936 261.646 63.168 262.286 63.328C262.942 63.472 263.726 63.544 264.638 63.544C265.55 63.544 266.326 63.472 266.966 63.328C267.606 63.168 268.102 62.936 268.454 62.632C268.806 62.312 268.982 61.928 268.982 61.48C268.982 61.032 268.806 60.656 268.454 60.352C268.102 60.048 267.606 59.816 266.966 59.656C266.326 59.496 265.55 59.416 264.638 59.416Z" fill="#0C0C0C"/>
<path d="M373.75 48.0125L371.988 46.25L365 53.2375L358.012 46.25L356.25 48.0125L363.238 55L356.25 61.9875L358.012 63.75L365 56.7625L371.988 63.75L373.75 61.9875L366.762 55L373.75 48.0125Z" fill="#0C0C0C"/>
</svg>
