<svg width="412" height="917" viewBox="0 0 412 917" fill="none" xmlns="http://www.w3.org/2000/svg">
<g clip-path="url(#clip0_493_6525)">
<rect width="412" height="917" fill="#F9FAFC"/>
<rect width="412" height="32" fill="white"/>
<path d="M27.416 12.0469V12.7578L23.2939 22H21.9609L26.0762 13.0859H20.6895V12.0469H27.416ZM28.9404 21.3301C28.9404 21.1159 29.0065 20.9359 29.1387 20.79C29.2754 20.6396 29.4714 20.5645 29.7266 20.5645C29.9818 20.5645 30.1755 20.6396 30.3076 20.79C30.4443 20.9359 30.5127 21.1159 30.5127 21.3301C30.5127 21.5397 30.4443 21.7174 30.3076 21.8633C30.1755 22.0091 29.9818 22.082 29.7266 22.082C29.4714 22.082 29.2754 22.0091 29.1387 21.8633C29.0065 21.7174 28.9404 21.5397 28.9404 21.3301ZM28.9473 15.2939C28.9473 15.0798 29.0133 14.8997 29.1455 14.7539C29.2822 14.6035 29.4782 14.5283 29.7334 14.5283C29.9886 14.5283 30.1823 14.6035 30.3145 14.7539C30.4512 14.8997 30.5195 15.0798 30.5195 15.2939C30.5195 15.5036 30.4512 15.6813 30.3145 15.8271C30.1823 15.973 29.9886 16.0459 29.7334 16.0459C29.4782 16.0459 29.2822 15.973 29.1455 15.8271C29.0133 15.6813 28.9473 15.5036 28.9473 15.2939ZM34.0947 16.4014H34.9971C35.4391 16.4014 35.8037 16.3285 36.0908 16.1826C36.3825 16.0322 36.599 15.8294 36.7402 15.5742C36.8861 15.3145 36.959 15.0228 36.959 14.6992C36.959 14.3164 36.8952 13.9951 36.7676 13.7354C36.64 13.4756 36.4486 13.2796 36.1934 13.1475C35.9382 13.0153 35.6146 12.9492 35.2227 12.9492C34.8672 12.9492 34.5527 13.0199 34.2793 13.1611C34.0104 13.2979 33.7985 13.4938 33.6436 13.749C33.4932 14.0042 33.418 14.305 33.418 14.6514H32.1533C32.1533 14.1455 32.2809 13.6852 32.5361 13.2705C32.7913 12.8558 33.1491 12.5254 33.6094 12.2793C34.0742 12.0332 34.612 11.9102 35.2227 11.9102C35.8242 11.9102 36.3506 12.0173 36.8018 12.2314C37.2529 12.4411 37.6038 12.7555 37.8545 13.1748C38.1051 13.5895 38.2305 14.1068 38.2305 14.7266C38.2305 14.9772 38.1712 15.2461 38.0527 15.5332C37.9388 15.8158 37.7588 16.0801 37.5127 16.3262C37.2712 16.5723 36.9567 16.7751 36.5693 16.9346C36.182 17.0895 35.7171 17.167 35.1748 17.167H34.0947V16.4014ZM34.0947 17.4404V16.6816H35.1748C35.8083 16.6816 36.3324 16.7568 36.7471 16.9072C37.1618 17.0576 37.4876 17.2581 37.7246 17.5088C37.9661 17.7594 38.1348 18.0352 38.2305 18.3359C38.3307 18.6322 38.3809 18.9284 38.3809 19.2246C38.3809 19.6895 38.3011 20.1019 38.1416 20.4619C37.9867 20.8219 37.7656 21.1273 37.4785 21.3779C37.196 21.6286 36.8633 21.8177 36.4805 21.9453C36.0977 22.0729 35.6807 22.1367 35.2295 22.1367C34.7965 22.1367 34.3887 22.0752 34.0059 21.9521C33.6276 21.8291 33.2926 21.6514 33.001 21.4189C32.7093 21.182 32.4814 20.8926 32.3174 20.5508C32.1533 20.2044 32.0713 19.8102 32.0713 19.3682H33.3359C33.3359 19.7145 33.4111 20.0176 33.5615 20.2773C33.7165 20.5371 33.9352 20.7399 34.2178 20.8857C34.5049 21.027 34.8421 21.0977 35.2295 21.0977C35.6169 21.0977 35.9495 21.0316 36.2275 20.8994C36.5101 20.7627 36.7266 20.5576 36.877 20.2842C37.0319 20.0107 37.1094 19.6667 37.1094 19.252C37.1094 18.8372 37.0228 18.4977 36.8496 18.2334C36.6764 17.9645 36.4303 17.7663 36.1113 17.6387C35.7969 17.5065 35.4255 17.4404 34.9971 17.4404H34.0947ZM46.3721 16.2305V17.748C46.3721 18.5638 46.2992 19.252 46.1533 19.8125C46.0075 20.373 45.7979 20.8242 45.5244 21.166C45.251 21.5078 44.9206 21.7562 44.5332 21.9111C44.1504 22.0615 43.7174 22.1367 43.2344 22.1367C42.8516 22.1367 42.4984 22.0889 42.1748 21.9932C41.8512 21.8975 41.5596 21.7448 41.2998 21.5352C41.0446 21.321 40.8258 21.043 40.6436 20.7012C40.4613 20.3594 40.3223 19.9447 40.2266 19.457C40.1309 18.9694 40.083 18.3997 40.083 17.748V16.2305C40.083 15.4147 40.1559 14.7311 40.3018 14.1797C40.4521 13.6283 40.6641 13.1862 40.9375 12.8535C41.2109 12.5163 41.5391 12.2747 41.9219 12.1289C42.3092 11.9831 42.7422 11.9102 43.2207 11.9102C43.6081 11.9102 43.9635 11.958 44.2871 12.0537C44.6152 12.1449 44.9069 12.293 45.1621 12.498C45.4173 12.6986 45.6338 12.9674 45.8115 13.3047C45.9938 13.6374 46.1328 14.0452 46.2285 14.5283C46.3242 15.0114 46.3721 15.5788 46.3721 16.2305ZM45.1006 17.9531V16.0186C45.1006 15.5719 45.0732 15.18 45.0186 14.8428C44.9684 14.501 44.8932 14.2093 44.793 13.9678C44.6927 13.7262 44.5651 13.5303 44.4102 13.3799C44.2598 13.2295 44.0843 13.1201 43.8838 13.0518C43.6878 12.9788 43.4668 12.9424 43.2207 12.9424C42.9199 12.9424 42.6533 12.9993 42.4209 13.1133C42.1885 13.2227 41.9925 13.3981 41.833 13.6396C41.6781 13.8812 41.5596 14.1979 41.4775 14.5898C41.3955 14.9818 41.3545 15.458 41.3545 16.0186V17.9531C41.3545 18.3997 41.3796 18.7939 41.4297 19.1357C41.4844 19.4775 41.5641 19.7738 41.6689 20.0244C41.7738 20.2705 41.9014 20.4733 42.0518 20.6328C42.2021 20.7923 42.3753 20.9108 42.5713 20.9883C42.7718 21.0612 42.9928 21.0977 43.2344 21.0977C43.5443 21.0977 43.8154 21.0384 44.0479 20.9199C44.2803 20.8014 44.474 20.6169 44.6289 20.3662C44.7884 20.111 44.9069 19.7852 44.9844 19.3887C45.0618 18.9876 45.1006 18.5091 45.1006 17.9531ZM55.4844 12.9287L52.1895 22H50.8428L54.6367 12.0469H55.5049L55.4844 12.9287ZM58.2461 22L54.9443 12.9287L54.9238 12.0469H55.792L59.5996 22H58.2461ZM58.0752 18.3154V19.3955H52.4834V18.3154H58.0752ZM61.3496 12.0469H62.6279L65.8887 20.1611L69.1426 12.0469H70.4277L66.3809 22H65.3828L61.3496 12.0469ZM60.9326 12.0469H62.0605L62.2451 18.1172V22H60.9326V12.0469ZM69.71 12.0469H70.8379V22H69.5254V18.1172L69.71 12.0469Z" fill="#0C0C0C"/>
<path d="M322.792 12.9478L324.375 14.5311C328.31 10.5966 334.69 10.5966 338.625 14.5311L340.208 12.9478C335.403 8.1424 327.605 8.1424 322.792 12.9478ZM329.125 19.2811L331.5 21.6561L333.875 19.2811C332.569 17.967 330.439 17.967 329.125 19.2811ZM325.958 16.1145L327.542 17.6978C329.727 15.5128 333.273 15.5128 335.458 17.6978L337.042 16.1145C333.986 13.0586 329.022 13.0586 325.958 16.1145Z" fill="#0C0C0C"/>
<path d="M362.75 9.33301H365.25V22.6663H362.75V9.33301ZM352.75 17.6663H355.25V22.6663H352.75V17.6663ZM357.75 13.4997H360.25V22.6663H357.75V13.4997Z" fill="#0C0C0C"/>
<path d="M391.362 9.55896L391.1 24.4576L382.823 24.3119L383.085 9.41322L385.568 9.45694L385.598 7.80153L388.908 7.85983L388.879 9.51524L391.362 9.55896ZM389.678 11.1852L384.712 11.0978L384.653 14.4086L389.62 14.496L389.678 11.1852Z" fill="#0C0C0C"/>
<rect width="412" height="35" transform="translate(0 32)" fill="white"/>
<path opacity="0.9" d="M150.995 38.896H165.059V41.416H150.995V38.896ZM148.523 46.888H168.659V49.408H148.523V46.888ZM163.139 38.896H166.283V40.672C166.283 41.616 166.259 42.632 166.211 43.72C166.163 44.808 165.971 46.072 165.635 47.512L162.443 47.488C162.795 46.032 162.995 44.768 163.043 43.696C163.107 42.624 163.139 41.616 163.139 40.672V38.896ZM150.875 51.736H166.187V59.896H150.875V51.736ZM163.067 54.232H154.019V57.376H163.067V54.232ZM175.737 39.256C176.729 39.256 177.601 39.488 178.353 39.952C179.121 40.4 179.721 41.032 180.153 41.848C180.601 42.664 180.825 43.608 180.825 44.68C180.825 45.736 180.601 46.68 180.153 47.512C179.721 48.328 179.121 48.968 178.353 49.432C177.601 49.88 176.729 50.104 175.737 50.104C174.761 50.104 173.889 49.88 173.121 49.432C172.353 48.968 171.753 48.328 171.321 47.512C170.889 46.68 170.673 45.736 170.673 44.68C170.673 43.608 170.889 42.664 171.321 41.848C171.753 41.032 172.353 40.4 173.121 39.952C173.889 39.488 174.761 39.256 175.737 39.256ZM175.737 41.92C175.305 41.92 174.921 42.032 174.585 42.256C174.249 42.48 173.993 42.792 173.817 43.192C173.641 43.592 173.553 44.088 173.553 44.68C173.553 45.256 173.641 45.752 173.817 46.168C173.993 46.584 174.249 46.904 174.585 47.128C174.921 47.336 175.305 47.44 175.737 47.44C176.169 47.44 176.553 47.336 176.889 47.128C177.225 46.904 177.481 46.584 177.657 46.168C177.849 45.752 177.945 45.256 177.945 44.68C177.945 44.088 177.849 43.592 177.657 43.192C177.481 42.792 177.225 42.48 176.889 42.256C176.553 42.032 176.169 41.92 175.737 41.92ZM186.489 37.912H189.537V51.16H186.489V37.912ZM183.849 43.288H187.377V45.856H183.849V43.288ZM181.833 38.296H184.809V51.088H181.833V38.296ZM174.249 52.168H189.537V60.136H186.345V54.712H174.249V52.168ZM214.795 46.288H218.707V48.928H214.795V46.288ZM212.395 37.864H215.611V60.088H212.395V37.864ZM198.883 40H202.051V53.824H198.883V40ZM198.883 52.024H200.779C202.363 52.024 204.011 51.96 205.723 51.832C207.435 51.704 209.187 51.464 210.979 51.112L211.315 53.704C209.459 54.088 207.651 54.352 205.891 54.496C204.131 54.624 202.427 54.688 200.779 54.688H198.883V52.024ZM222.785 44.824H238.313V47.344H222.785V44.824ZM220.289 49.888H240.425V52.456H220.289V49.888ZM228.665 51.4H231.833V60.136H228.665V51.4ZM222.785 38.896H225.977V46H222.785V38.896ZM257.679 37.888H260.871V60.112H257.679V37.888ZM251.127 40.192H254.271C254.271 41.888 254.103 43.512 253.767 45.064C253.447 46.6 252.903 48.048 252.135 49.408C251.383 50.768 250.343 52.032 249.015 53.2C247.703 54.352 246.063 55.408 244.095 56.368L242.415 53.848C244.559 52.808 246.263 51.664 247.527 50.416C248.807 49.152 249.727 47.728 250.287 46.144C250.847 44.544 251.127 42.752 251.127 40.768V40.192ZM243.615 40.192H252.615V42.736H243.615V40.192Z" fill="#0C0C0C"/>
<path d="M32.6312 54.7375L26.9062 49L32.6312 43.2625L30.8687 41.5L23.3687 49L30.8687 56.5L32.6312 54.7375Z" fill="#0C0C0C"/>
<path d="M100.695 120.392H116.055V126.896H100.695V120.392ZM112.935 122.744H103.815V124.52H112.935V122.744ZM99.3028 106.448H117.423V108.872H99.3028V106.448ZM108.399 109.4C110.799 109.4 112.639 109.672 113.919 110.216C115.199 110.744 115.839 111.528 115.839 112.568C115.839 113.624 115.199 114.424 113.919 114.968C112.639 115.496 110.799 115.76 108.399 115.76C106.031 115.76 104.199 115.496 102.903 114.968C101.607 114.424 100.959 113.624 100.959 112.568C100.959 111.528 101.607 110.744 102.903 110.216C104.199 109.672 106.031 109.4 108.399 109.4ZM108.399 111.56C107.039 111.56 106.031 111.64 105.375 111.8C104.719 111.96 104.391 112.216 104.391 112.568C104.391 112.936 104.719 113.2 105.375 113.36C106.031 113.52 107.039 113.6 108.399 113.6C109.791 113.6 110.807 113.52 111.447 113.36C112.103 113.2 112.431 112.936 112.431 112.568C112.431 112.216 112.103 111.96 111.447 111.8C110.807 111.64 109.791 111.56 108.399 111.56ZM106.815 104.744H109.983V108.176H106.815V104.744ZM98.3428 116.792H118.455V119.264H98.3428V116.792ZM106.815 114.992H109.983V118.088H106.815V114.992ZM122.173 105.488H138.757V107.888H122.173V105.488ZM122.341 110.696H138.565V113.096H122.341V110.696ZM125.005 106.424H128.197V112.232H125.005V106.424ZM132.733 106.424H135.925V112.232H132.733V106.424ZM120.421 114.224H140.533V116.72H120.421V114.224ZM122.725 117.944H138.085V123.488H125.917V125.552H122.749V121.352H134.941V120.224H122.725V117.944ZM122.749 124.664H138.685V126.992H122.749V124.664ZM157.931 104.864H161.099V127.16H157.931V104.864ZM154.451 112.88H158.579V115.448H154.451V112.88ZM143.267 119.408H145.091C146.307 119.408 147.443 119.392 148.499 119.36C149.571 119.328 150.619 119.272 151.643 119.192C152.667 119.096 153.715 118.96 154.787 118.784L155.075 121.376C153.971 121.552 152.891 121.688 151.835 121.784C150.779 121.88 149.699 121.944 148.595 121.976C147.507 122.008 146.339 122.024 145.091 122.024H143.267V119.408ZM143.243 106.76H153.251V115.136H146.435V120.176H143.267V112.616H150.107V109.304H143.243V106.76ZM172.857 106.184H175.617V107.792C175.617 108.752 175.481 109.688 175.209 110.6C174.953 111.496 174.569 112.344 174.057 113.144C173.545 113.944 172.913 114.672 172.161 115.328C171.425 115.968 170.577 116.52 169.617 116.984C168.657 117.448 167.601 117.792 166.449 118.016L165.081 115.352C166.073 115.176 166.977 114.912 167.793 114.56C168.625 114.192 169.353 113.752 169.977 113.24C170.601 112.728 171.129 112.176 171.561 111.584C171.993 110.976 172.313 110.352 172.521 109.712C172.745 109.056 172.857 108.416 172.857 107.792V106.184ZM173.481 106.184H176.265V107.792C176.265 108.432 176.369 109.08 176.577 109.736C176.801 110.392 177.121 111.024 177.537 111.632C177.969 112.224 178.497 112.768 179.121 113.264C179.745 113.76 180.465 114.192 181.281 114.56C182.097 114.912 183.017 115.176 184.041 115.352L182.673 118.016C181.521 117.792 180.465 117.448 179.505 116.984C178.545 116.52 177.689 115.968 176.937 115.328C176.201 114.688 175.569 113.968 175.041 113.168C174.529 112.368 174.137 111.512 173.865 110.6C173.609 109.688 173.481 108.752 173.481 107.792V106.184ZM164.601 121.808H184.737V124.424H164.601V121.808ZM196.747 118.952H199.987V127.112H196.747V118.952ZM204.427 118.952H207.667V127.112H204.427V118.952ZM192.211 117.272H212.323V119.84H192.211V117.272ZM202.219 105.656C203.803 105.656 205.195 105.856 206.395 106.256C207.611 106.656 208.555 107.232 209.227 107.984C209.899 108.736 210.235 109.616 210.235 110.624C210.235 111.632 209.899 112.512 209.227 113.264C208.555 114 207.611 114.576 206.395 114.992C205.195 115.392 203.803 115.592 202.219 115.592C200.635 115.592 199.235 115.392 198.019 114.992C196.819 114.576 195.875 114 195.187 113.264C194.515 112.512 194.179 111.632 194.179 110.624C194.179 109.616 194.515 108.736 195.187 107.984C195.875 107.232 196.819 106.656 198.019 106.256C199.235 105.856 200.635 105.656 202.219 105.656ZM202.219 108.176C201.243 108.176 200.395 108.272 199.675 108.464C198.971 108.656 198.427 108.936 198.043 109.304C197.659 109.656 197.467 110.096 197.467 110.624C197.467 111.152 197.659 111.6 198.043 111.968C198.427 112.32 198.971 112.592 199.675 112.784C200.395 112.96 201.243 113.048 202.219 113.048C203.195 113.048 204.035 112.96 204.739 112.784C205.443 112.592 205.987 112.32 206.371 111.968C206.771 111.6 206.971 111.152 206.971 110.624C206.971 110.096 206.771 109.656 206.371 109.304C205.987 108.936 205.443 108.656 204.739 108.464C204.035 108.272 203.195 108.176 202.219 108.176ZM219.449 106.064H222.089V108.032C222.089 109.52 221.857 110.92 221.393 112.232C220.945 113.544 220.257 114.688 219.329 115.664C218.401 116.64 217.209 117.376 215.753 117.872L214.073 115.304C215.353 114.904 216.385 114.328 217.169 113.576C217.953 112.824 218.529 111.968 218.897 111.008C219.265 110.048 219.449 109.056 219.449 108.032V106.064ZM220.097 106.064H222.689V107.888C222.689 108.864 222.857 109.808 223.193 110.72C223.529 111.616 224.065 112.416 224.801 113.12C225.537 113.808 226.489 114.344 227.657 114.728L226.001 117.224C224.641 116.744 223.521 116.048 222.641 115.136C221.777 114.224 221.137 113.152 220.721 111.92C220.305 110.672 220.097 109.328 220.097 107.888V106.064ZM229.673 104.912H232.889V117.92H229.673V104.912ZM225.353 118.496C227.705 118.496 229.561 118.88 230.921 119.648C232.281 120.4 232.961 121.448 232.961 122.792C232.961 124.168 232.281 125.232 230.921 125.984C229.561 126.752 227.705 127.136 225.353 127.136C223.001 127.136 221.145 126.752 219.785 125.984C218.425 125.232 217.745 124.168 217.745 122.792C217.745 121.448 218.425 120.4 219.785 119.648C221.145 118.88 223.001 118.496 225.353 118.496ZM225.353 120.968C224.393 120.968 223.585 121.032 222.929 121.16C222.273 121.288 221.769 121.496 221.417 121.784C221.081 122.056 220.913 122.392 220.913 122.792C220.913 123.208 221.081 123.56 221.417 123.848C221.769 124.12 222.273 124.328 222.929 124.472C223.585 124.6 224.393 124.664 225.353 124.664C226.313 124.664 227.121 124.6 227.777 124.472C228.433 124.328 228.929 124.12 229.265 123.848C229.601 123.56 229.769 123.208 229.769 122.792C229.769 122.392 229.601 122.056 229.265 121.784C228.929 121.496 228.433 121.288 227.777 121.16C227.121 121.032 226.313 120.968 225.353 120.968ZM225.617 108.944H230.153V111.536H225.617V108.944ZM236.343 115.616H256.455V118.136H236.343V115.616ZM244.791 113H247.959V116.312H244.791V113ZM246.351 119.192C248.767 119.192 250.655 119.544 252.015 120.248C253.375 120.936 254.055 121.912 254.055 123.176C254.055 124.456 253.375 125.432 252.015 126.104C250.655 126.792 248.767 127.136 246.351 127.136C243.951 127.136 242.063 126.792 240.687 126.104C239.327 125.432 238.647 124.456 238.647 123.176C238.647 121.912 239.327 120.936 240.687 120.248C242.063 119.544 243.951 119.192 246.351 119.192ZM246.351 121.592C245.359 121.592 244.527 121.648 243.855 121.76C243.199 121.872 242.703 122.048 242.367 122.288C242.031 122.512 241.863 122.808 241.863 123.176C241.863 123.528 242.031 123.824 242.367 124.064C242.703 124.288 243.199 124.464 243.855 124.592C244.527 124.704 245.359 124.76 246.351 124.76C247.359 124.76 248.191 124.704 248.847 124.592C249.503 124.464 249.999 124.288 250.335 124.064C250.671 123.824 250.839 123.528 250.839 123.176C250.839 122.808 250.671 122.512 250.335 122.288C249.999 122.048 249.503 121.872 248.847 121.76C248.191 121.648 247.359 121.592 246.351 121.592ZM238.911 105.536H242.055V107.408H250.743V105.536H253.911V113.96H238.911V105.536ZM242.055 109.784V111.464H250.743V109.784H242.055ZM269.173 108.104H274.837V110.648H269.173V108.104ZM269.173 112.544H274.933V115.088H269.173V112.544ZM273.829 104.912H277.045V117.92H273.829V104.912ZM259.333 106.496H269.845V116.72H259.333V106.496ZM266.725 109.016H262.477V114.224H266.725V109.016ZM269.509 118.496C271.861 118.496 273.717 118.88 275.077 119.648C276.437 120.4 277.117 121.448 277.117 122.792C277.117 124.168 276.437 125.232 275.077 125.984C273.717 126.752 271.861 127.136 269.509 127.136C267.157 127.136 265.301 126.752 263.941 125.984C262.581 125.232 261.901 124.168 261.901 122.792C261.901 121.448 262.581 120.4 263.941 119.648C265.301 118.88 267.157 118.496 269.509 118.496ZM269.509 120.944C268.549 120.944 267.741 121.008 267.085 121.136C266.429 121.264 265.925 121.472 265.573 121.76C265.237 122.032 265.069 122.384 265.069 122.816C265.069 123.232 265.237 123.584 265.573 123.872C265.925 124.144 266.429 124.352 267.085 124.496C267.741 124.624 268.549 124.688 269.509 124.688C270.469 124.688 271.277 124.624 271.933 124.496C272.589 124.352 273.085 124.144 273.421 123.872C273.757 123.584 273.925 123.232 273.925 122.816C273.925 122.384 273.757 122.032 273.421 121.76C273.085 121.472 272.589 121.264 271.933 121.136C271.277 121.008 270.469 120.944 269.509 120.944ZM292.547 110H296.747V112.592H292.547V110ZM295.907 104.912H299.123V117.752H295.907V104.912ZM284.291 118.64H299.123V126.896H284.291V118.64ZM295.979 121.136H287.435V124.376H295.979V121.136ZM285.659 106.952H288.251V108.368C288.251 109.76 288.027 111.088 287.579 112.352C287.131 113.616 286.443 114.728 285.515 115.688C284.603 116.632 283.427 117.336 281.987 117.8L280.403 115.28C281.315 114.976 282.099 114.584 282.755 114.104C283.427 113.608 283.971 113.048 284.387 112.424C284.819 111.8 285.139 111.144 285.347 110.456C285.555 109.768 285.659 109.072 285.659 108.368V106.952ZM286.331 106.952H288.875V108.344C288.875 109.208 289.051 110.072 289.403 110.936C289.755 111.784 290.299 112.552 291.035 113.24C291.787 113.928 292.747 114.472 293.915 114.872L292.355 117.368C290.979 116.904 289.843 116.216 288.947 115.304C288.067 114.392 287.411 113.336 286.979 112.136C286.547 110.936 286.331 109.672 286.331 108.344V106.952ZM281.267 106.016H293.219V108.56H281.267V106.016Z" fill="black"/>
<path d="M122.121 166.379V169.754H112.822V166.379H122.121ZM137.15 153.318V179H132.914V158.346L126.639 160.473V156.975L136.641 153.318H137.15ZM150.492 167.1L147.117 166.273L148.506 153.406H162.305V156.992H152.021L151.318 163.268C151.717 163.033 152.268 162.805 152.971 162.582C153.674 162.348 154.477 162.23 155.379 162.23C156.586 162.23 157.664 162.43 158.613 162.828C159.574 163.215 160.389 163.783 161.057 164.533C161.725 165.271 162.234 166.174 162.586 167.24C162.938 168.295 163.113 169.484 163.113 170.809C163.113 171.992 162.938 173.1 162.586 174.131C162.246 175.162 161.73 176.07 161.039 176.855C160.348 177.641 159.475 178.256 158.42 178.701C157.377 179.135 156.141 179.352 154.711 179.352C153.645 179.352 152.619 179.199 151.635 178.895C150.662 178.578 149.789 178.115 149.016 177.506C148.242 176.885 147.621 176.123 147.152 175.221C146.684 174.307 146.414 173.258 146.344 172.074H150.492C150.598 172.906 150.826 173.615 151.178 174.201C151.541 174.775 152.021 175.215 152.619 175.52C153.217 175.824 153.908 175.977 154.693 175.977C155.408 175.977 156.023 175.854 156.539 175.607C157.055 175.35 157.482 174.986 157.822 174.518C158.174 174.037 158.432 173.475 158.596 172.83C158.771 172.186 158.859 171.471 158.859 170.686C158.859 169.936 158.76 169.25 158.561 168.629C158.373 168.008 158.086 167.469 157.699 167.012C157.324 166.555 156.85 166.203 156.275 165.957C155.701 165.699 155.039 165.57 154.289 165.57C153.281 165.57 152.508 165.717 151.969 166.01C151.441 166.303 150.949 166.666 150.492 167.1ZM183.188 164.059V168.242C183.188 170.246 182.988 171.957 182.59 173.375C182.203 174.781 181.641 175.924 180.902 176.803C180.164 177.682 179.279 178.326 178.248 178.736C177.229 179.146 176.086 179.352 174.82 179.352C173.812 179.352 172.875 179.223 172.008 178.965C171.152 178.707 170.379 178.303 169.688 177.752C168.996 177.201 168.404 176.492 167.912 175.625C167.432 174.746 167.057 173.697 166.787 172.479C166.529 171.26 166.4 169.848 166.4 168.242V164.059C166.4 162.043 166.6 160.344 166.998 158.961C167.396 157.566 167.965 156.436 168.703 155.568C169.441 154.689 170.32 154.051 171.34 153.652C172.371 153.254 173.52 153.055 174.785 153.055C175.805 153.055 176.742 153.184 177.598 153.441C178.465 153.688 179.238 154.08 179.918 154.619C180.609 155.158 181.195 155.861 181.676 156.729C182.168 157.584 182.543 158.621 182.801 159.84C183.059 161.047 183.188 162.453 183.188 164.059ZM178.951 168.84V163.426C178.951 162.406 178.893 161.51 178.775 160.736C178.658 159.951 178.482 159.289 178.248 158.75C178.025 158.199 177.744 157.754 177.404 157.414C177.064 157.062 176.678 156.811 176.244 156.658C175.811 156.494 175.324 156.412 174.785 156.412C174.129 156.412 173.543 156.541 173.027 156.799C172.512 157.045 172.078 157.443 171.727 157.994C171.375 158.545 171.105 159.271 170.918 160.174C170.742 161.064 170.654 162.148 170.654 163.426V168.84C170.654 169.871 170.713 170.779 170.83 171.564C170.947 172.35 171.123 173.023 171.357 173.586C171.592 174.137 171.873 174.594 172.201 174.957C172.541 175.309 172.928 175.566 173.361 175.73C173.807 175.895 174.293 175.977 174.82 175.977C175.488 175.977 176.08 175.848 176.596 175.59C177.111 175.332 177.545 174.922 177.896 174.359C178.248 173.785 178.512 173.041 178.688 172.127C178.863 171.213 178.951 170.117 178.951 168.84ZM191.186 174.922L191.168 177.945C191.168 179.141 190.869 180.371 190.271 181.637C189.674 182.902 188.883 183.945 187.898 184.766L185.631 183.447C185.959 182.92 186.258 182.387 186.527 181.848C186.797 181.309 187.014 180.734 187.178 180.125C187.342 179.516 187.424 178.842 187.424 178.104V174.922H191.186ZM207.814 153.248H208.342V156.711H208.043C206.531 156.711 205.225 156.945 204.123 157.414C203.033 157.883 202.137 158.527 201.434 159.348C200.73 160.168 200.203 161.129 199.852 162.23C199.512 163.32 199.342 164.48 199.342 165.711V169.736C199.342 170.756 199.453 171.658 199.676 172.443C199.898 173.217 200.209 173.867 200.607 174.395C201.018 174.91 201.486 175.303 202.014 175.572C202.541 175.842 203.109 175.977 203.719 175.977C204.352 175.977 204.926 175.848 205.441 175.59C205.957 175.32 206.396 174.951 206.76 174.482C207.123 174.014 207.398 173.457 207.586 172.812C207.773 172.168 207.867 171.465 207.867 170.703C207.867 169.977 207.773 169.297 207.586 168.664C207.41 168.02 207.146 167.457 206.795 166.977C206.443 166.484 206.004 166.104 205.477 165.834C204.961 165.553 204.363 165.412 203.684 165.412C202.84 165.412 202.072 165.611 201.381 166.01C200.701 166.408 200.15 166.93 199.729 167.574C199.318 168.207 199.096 168.881 199.061 169.596L197.443 169.068C197.537 167.979 197.777 167 198.164 166.133C198.562 165.266 199.084 164.527 199.729 163.918C200.373 163.309 201.117 162.846 201.961 162.529C202.816 162.201 203.754 162.037 204.773 162.037C206.016 162.037 207.094 162.271 208.008 162.74C208.922 163.209 209.678 163.848 210.275 164.656C210.885 165.453 211.336 166.367 211.629 167.398C211.934 168.418 212.086 169.484 212.086 170.598C212.086 171.828 211.898 172.977 211.523 174.043C211.148 175.098 210.598 176.023 209.871 176.82C209.156 177.617 208.283 178.238 207.252 178.684C206.232 179.129 205.072 179.352 203.771 179.352C202.4 179.352 201.176 179.088 200.098 178.561C199.031 178.033 198.123 177.307 197.373 176.381C196.635 175.455 196.072 174.389 195.686 173.182C195.299 171.975 195.105 170.697 195.105 169.35V167.592C195.105 165.646 195.352 163.812 195.844 162.09C196.336 160.355 197.092 158.826 198.111 157.502C199.143 156.178 200.461 155.141 202.066 154.391C203.672 153.629 205.588 153.248 207.814 153.248ZM232.16 164.059V168.242C232.16 170.246 231.961 171.957 231.562 173.375C231.176 174.781 230.613 175.924 229.875 176.803C229.137 177.682 228.252 178.326 227.221 178.736C226.201 179.146 225.059 179.352 223.793 179.352C222.785 179.352 221.848 179.223 220.98 178.965C220.125 178.707 219.352 178.303 218.66 177.752C217.969 177.201 217.377 176.492 216.885 175.625C216.404 174.746 216.029 173.697 215.76 172.479C215.502 171.26 215.373 169.848 215.373 168.242V164.059C215.373 162.043 215.572 160.344 215.971 158.961C216.369 157.566 216.938 156.436 217.676 155.568C218.414 154.689 219.293 154.051 220.312 153.652C221.344 153.254 222.492 153.055 223.758 153.055C224.777 153.055 225.715 153.184 226.57 153.441C227.438 153.688 228.211 154.08 228.891 154.619C229.582 155.158 230.168 155.861 230.648 156.729C231.141 157.584 231.516 158.621 231.773 159.84C232.031 161.047 232.16 162.453 232.16 164.059ZM227.924 168.84V163.426C227.924 162.406 227.865 161.51 227.748 160.736C227.631 159.951 227.455 159.289 227.221 158.75C226.998 158.199 226.717 157.754 226.377 157.414C226.037 157.062 225.65 156.811 225.217 156.658C224.783 156.494 224.297 156.412 223.758 156.412C223.102 156.412 222.516 156.541 222 156.799C221.484 157.045 221.051 157.443 220.699 157.994C220.348 158.545 220.078 159.271 219.891 160.174C219.715 161.064 219.627 162.148 219.627 163.426V168.84C219.627 169.871 219.686 170.779 219.803 171.564C219.92 172.35 220.096 173.023 220.33 173.586C220.564 174.137 220.846 174.594 221.174 174.957C221.514 175.309 221.9 175.566 222.334 175.73C222.779 175.895 223.266 175.977 223.793 175.977C224.461 175.977 225.053 175.848 225.568 175.59C226.084 175.332 226.518 174.922 226.869 174.359C227.221 173.785 227.484 173.041 227.66 172.127C227.836 171.213 227.924 170.117 227.924 168.84ZM252.621 164.059V168.242C252.621 170.246 252.422 171.957 252.023 173.375C251.637 174.781 251.074 175.924 250.336 176.803C249.598 177.682 248.713 178.326 247.682 178.736C246.662 179.146 245.52 179.352 244.254 179.352C243.246 179.352 242.309 179.223 241.441 178.965C240.586 178.707 239.812 178.303 239.121 177.752C238.43 177.201 237.838 176.492 237.346 175.625C236.865 174.746 236.49 173.697 236.221 172.479C235.963 171.26 235.834 169.848 235.834 168.242V164.059C235.834 162.043 236.033 160.344 236.432 158.961C236.83 157.566 237.398 156.436 238.137 155.568C238.875 154.689 239.754 154.051 240.773 153.652C241.805 153.254 242.953 153.055 244.219 153.055C245.238 153.055 246.176 153.184 247.031 153.441C247.898 153.688 248.672 154.08 249.352 154.619C250.043 155.158 250.629 155.861 251.109 156.729C251.602 157.584 251.977 158.621 252.234 159.84C252.492 161.047 252.621 162.453 252.621 164.059ZM248.385 168.84V163.426C248.385 162.406 248.326 161.51 248.209 160.736C248.092 159.951 247.916 159.289 247.682 158.75C247.459 158.199 247.178 157.754 246.838 157.414C246.498 157.062 246.111 156.811 245.678 156.658C245.244 156.494 244.758 156.412 244.219 156.412C243.562 156.412 242.977 156.541 242.461 156.799C241.945 157.045 241.512 157.443 241.16 157.994C240.809 158.545 240.539 159.271 240.352 160.174C240.176 161.064 240.088 162.148 240.088 163.426V168.84C240.088 169.871 240.146 170.779 240.264 171.564C240.381 172.35 240.557 173.023 240.791 173.586C241.025 174.137 241.307 174.594 241.635 174.957C241.975 175.309 242.361 175.566 242.795 175.73C243.24 175.895 243.727 175.977 244.254 175.977C244.922 175.977 245.514 175.848 246.029 175.59C246.545 175.332 246.979 174.922 247.33 174.359C247.682 173.785 247.945 173.041 248.121 172.127C248.297 171.213 248.385 170.117 248.385 168.84ZM265.483 165.644H268.471V172.88H265.483V165.644ZM279.919 149.264H282.907V173.996H279.919V149.264ZM260.695 178.64H283.699V181.088H260.695V178.64ZM260.695 171.584H263.683V179.288H260.695V171.584ZM256.483 166.76L256.087 164.276C258.103 164.276 260.287 164.264 262.639 164.24C265.015 164.192 267.439 164.108 269.911 163.988C272.383 163.844 274.771 163.628 277.075 163.34L277.291 165.5C274.963 165.884 272.563 166.172 270.091 166.364C267.643 166.532 265.255 166.64 262.927 166.688C260.599 166.736 258.451 166.76 256.483 166.76ZM273.295 168.488H280.711V170.648H273.295V168.488ZM266.671 150.56C268.279 150.56 269.683 150.8 270.883 151.28C272.083 151.736 273.007 152.396 273.655 153.26C274.327 154.1 274.663 155.096 274.663 156.248C274.663 157.376 274.327 158.372 273.655 159.236C273.007 160.1 272.083 160.76 270.883 161.216C269.683 161.672 268.279 161.9 266.671 161.9C265.087 161.9 263.683 161.672 262.459 161.216C261.259 160.76 260.323 160.1 259.651 159.236C259.003 158.372 258.679 157.376 258.679 156.248C258.679 155.096 259.003 154.1 259.651 153.26C260.323 152.396 261.259 151.736 262.459 151.28C263.683 150.8 265.087 150.56 266.671 150.56ZM266.671 152.792C265.135 152.792 263.887 153.104 262.927 153.728C261.967 154.352 261.487 155.192 261.487 156.248C261.487 157.28 261.967 158.108 262.927 158.732C263.887 159.356 265.135 159.668 266.671 159.668C268.183 159.668 269.419 159.356 270.379 158.732C271.339 158.108 271.819 157.28 271.819 156.248C271.819 155.528 271.603 154.916 271.171 154.412C270.739 153.908 270.139 153.512 269.371 153.224C268.603 152.936 267.703 152.792 266.671 152.792Z" fill="black"/>
<line x1="206.5" y1="194" x2="206.5" y2="774" stroke="#8C8C8C"/>
<g filter="url(#filter0_d_493_6525)">
<rect x="216" y="203" width="182" height="46" rx="16" fill="white"/>
</g>
<path d="M228 229.333C228 230.25 228.675 231 229.5 231H241.5C242.325 231 243 230.25 243 229.333V226.833H228V229.333ZM229.5 228.5H241.5V229.333H229.5V228.5Z" fill="#F89C74"/>
<path d="M240.495 223.083C239.032 223.083 238.927 223.917 237.997 223.917C237.105 223.917 236.932 223.083 235.5 223.083C234.037 223.083 233.932 223.917 233.002 223.917C232.11 223.917 231.937 223.083 230.505 223.083C229.042 223.083 228.937 223.917 228.007 223.917V225.583C229.432 225.583 229.635 224.75 230.52 224.75C231.412 224.75 231.585 225.583 233.017 225.583C234.48 225.583 234.585 224.75 235.515 224.75C236.407 224.75 236.58 225.583 238.012 225.583C239.475 225.583 239.58 224.75 240.51 224.75C241.402 224.75 241.56 225.567 243 225.583L242.992 223.933C241.785 223.658 241.777 223.083 240.495 223.083Z" fill="#F89C74"/>
<path d="M243 221C243.015 217.667 239.79 216 235.5 216C231.217 216 228 217.667 228 221V221.833H243V221ZM229.635 220.167C230.257 218.342 232.957 217.667 235.5 217.667C237.982 217.667 239.947 218.275 240.892 219.325C241.117 219.583 241.282 219.858 241.38 220.167H229.635Z" fill="#F89C74"/>
<path d="M249.909 217.28H251.669V218.688C251.669 219.616 251.515 220.507 251.205 221.36C250.896 222.203 250.427 222.939 249.797 223.568C249.168 224.197 248.373 224.667 247.413 224.976L246.373 223.28C246.992 223.088 247.525 222.832 247.973 222.512C248.421 222.181 248.784 221.813 249.061 221.408C249.349 220.992 249.563 220.555 249.701 220.096C249.84 219.627 249.909 219.157 249.909 218.688V217.28ZM250.341 217.28H252.069V218.688C252.069 219.147 252.139 219.6 252.277 220.048C252.416 220.485 252.619 220.901 252.885 221.296C253.163 221.68 253.52 222.021 253.957 222.32C254.395 222.619 254.917 222.859 255.525 223.04L254.485 224.72C253.536 224.421 252.752 223.973 252.133 223.376C251.525 222.779 251.072 222.08 250.773 221.28C250.485 220.469 250.341 219.605 250.341 218.688V217.28ZM248.645 226.08H258.741V231.424H256.613V227.776H248.645V226.08ZM256.613 216.608H258.741V225.44H256.613V216.608ZM271.316 216.576H273.444V231.44H271.316V216.576ZM261.876 217.76H263.988V221.376H267.06V217.76H269.172V227.984H261.876V217.76ZM263.988 223.024V226.288H267.06V223.024H263.988Z" fill="#F89C74"/>
<path d="M330.367 220.277V231H329.012V221.969L326.28 222.965V221.742L330.154 220.277H330.367ZM336.065 225.924L334.981 225.646L335.516 220.336H340.987V221.588H336.666L336.343 224.489C336.539 224.376 336.785 224.271 337.083 224.174C337.386 224.076 337.732 224.027 338.123 224.027C338.616 224.027 339.058 224.113 339.449 224.284C339.839 224.45 340.171 224.689 340.445 225.001C340.723 225.314 340.936 225.69 341.082 226.129C341.229 226.569 341.302 227.06 341.302 227.602C341.302 228.114 341.231 228.585 341.089 229.015C340.953 229.445 340.745 229.821 340.467 230.143C340.188 230.46 339.837 230.707 339.412 230.883C338.992 231.059 338.497 231.146 337.925 231.146C337.496 231.146 337.088 231.088 336.702 230.971C336.321 230.849 335.979 230.666 335.677 230.421C335.379 230.172 335.135 229.865 334.944 229.499C334.759 229.127 334.642 228.693 334.593 228.195H335.882C335.94 228.595 336.058 228.932 336.233 229.206C336.409 229.479 336.639 229.687 336.922 229.828C337.21 229.965 337.544 230.033 337.925 230.033C338.248 230.033 338.533 229.977 338.782 229.865C339.031 229.752 339.241 229.591 339.412 229.381C339.583 229.171 339.712 228.917 339.8 228.62C339.893 228.322 339.939 227.987 339.939 227.616C339.939 227.279 339.893 226.967 339.8 226.679C339.708 226.391 339.568 226.139 339.383 225.924C339.202 225.709 338.98 225.543 338.716 225.426C338.453 225.304 338.15 225.243 337.808 225.243C337.354 225.243 337.01 225.304 336.775 225.426C336.546 225.548 336.309 225.714 336.065 225.924ZM344.166 229.389V230.48C344.166 230.924 344.053 231.393 343.829 231.886C343.604 232.384 343.289 232.799 342.884 233.131L342.115 232.597C342.271 232.382 342.403 232.162 342.51 231.938C342.618 231.718 342.698 231.488 342.752 231.249C342.811 231.015 342.84 230.766 342.84 230.502V229.389H344.166ZM350.948 220.321H351.065V221.471H350.948C350.23 221.471 349.629 221.588 349.146 221.823C348.663 222.052 348.279 222.362 347.996 222.753C347.713 223.139 347.508 223.573 347.381 224.057C347.259 224.54 347.198 225.031 347.198 225.529V227.096C347.198 227.57 347.254 227.99 347.366 228.356C347.479 228.717 347.632 229.022 347.828 229.271C348.023 229.521 348.243 229.708 348.487 229.835C348.736 229.962 348.995 230.026 349.263 230.026C349.576 230.026 349.854 229.967 350.098 229.85C350.342 229.728 350.547 229.56 350.713 229.345C350.884 229.125 351.014 228.866 351.102 228.568C351.189 228.271 351.233 227.943 351.233 227.587C351.233 227.27 351.194 226.964 351.116 226.671C351.038 226.374 350.918 226.11 350.757 225.88C350.596 225.646 350.394 225.463 350.149 225.331C349.91 225.194 349.625 225.126 349.292 225.126C348.917 225.126 348.565 225.219 348.238 225.404C347.916 225.585 347.649 225.824 347.439 226.122C347.234 226.415 347.117 226.735 347.088 227.082L346.37 227.074C346.438 226.527 346.565 226.061 346.751 225.675C346.941 225.285 347.176 224.967 347.454 224.723C347.737 224.474 348.052 224.293 348.399 224.181C348.75 224.064 349.122 224.005 349.512 224.005C350.044 224.005 350.503 224.105 350.889 224.306C351.275 224.506 351.592 224.774 351.841 225.111C352.09 225.443 352.273 225.819 352.391 226.239C352.513 226.654 352.574 227.082 352.574 227.521C352.574 228.024 352.503 228.495 352.361 228.935C352.22 229.374 352.007 229.76 351.724 230.092C351.446 230.424 351.102 230.683 350.691 230.868C350.281 231.054 349.805 231.146 349.263 231.146C348.687 231.146 348.184 231.029 347.754 230.795C347.325 230.556 346.968 230.238 346.685 229.843C346.402 229.447 346.189 229.008 346.048 228.524C345.906 228.041 345.835 227.55 345.835 227.052V226.415C345.835 225.663 345.911 224.926 346.062 224.203C346.214 223.48 346.475 222.826 346.846 222.24C347.222 221.654 347.742 221.188 348.406 220.841C349.07 220.495 349.917 220.321 350.948 220.321ZM360.879 224.818V226.444C360.879 227.318 360.801 228.056 360.645 228.656C360.489 229.257 360.264 229.74 359.971 230.106C359.678 230.473 359.324 230.739 358.909 230.905C358.499 231.066 358.035 231.146 357.518 231.146C357.107 231.146 356.729 231.095 356.382 230.993C356.036 230.89 355.723 230.727 355.445 230.502C355.171 230.272 354.937 229.975 354.742 229.608C354.546 229.242 354.397 228.798 354.295 228.275C354.192 227.753 354.141 227.143 354.141 226.444V224.818C354.141 223.944 354.219 223.212 354.375 222.621C354.537 222.03 354.764 221.557 355.057 221.2C355.35 220.839 355.701 220.58 356.111 220.424C356.526 220.268 356.99 220.189 357.503 220.189C357.918 220.189 358.299 220.241 358.646 220.343C358.997 220.441 359.31 220.6 359.583 220.819C359.856 221.034 360.088 221.322 360.279 221.684C360.474 222.04 360.623 222.477 360.726 222.995C360.828 223.512 360.879 224.12 360.879 224.818ZM359.517 226.664V224.591C359.517 224.113 359.488 223.693 359.429 223.332C359.375 222.965 359.295 222.653 359.188 222.394C359.08 222.135 358.943 221.925 358.777 221.764C358.616 221.603 358.428 221.486 358.213 221.413C358.003 221.334 357.767 221.295 357.503 221.295C357.181 221.295 356.895 221.356 356.646 221.479C356.397 221.596 356.187 221.784 356.016 222.042C355.85 222.301 355.723 222.641 355.635 223.061C355.547 223.48 355.503 223.991 355.503 224.591V226.664C355.503 227.143 355.53 227.565 355.584 227.931C355.643 228.297 355.728 228.615 355.84 228.883C355.953 229.147 356.089 229.364 356.25 229.535C356.412 229.706 356.597 229.833 356.807 229.916C357.022 229.994 357.259 230.033 357.518 230.033C357.85 230.033 358.14 229.97 358.389 229.843C358.638 229.716 358.846 229.518 359.012 229.25C359.183 228.976 359.31 228.627 359.393 228.202C359.476 227.772 359.517 227.26 359.517 226.664ZM369.317 224.818V226.444C369.317 227.318 369.239 228.056 369.083 228.656C368.926 229.257 368.702 229.74 368.409 230.106C368.116 230.473 367.762 230.739 367.347 230.905C366.937 231.066 366.473 231.146 365.955 231.146C365.545 231.146 365.167 231.095 364.82 230.993C364.473 230.89 364.161 230.727 363.882 230.502C363.609 230.272 363.375 229.975 363.179 229.608C362.984 229.242 362.835 228.798 362.732 228.275C362.63 227.753 362.579 227.143 362.579 226.444V224.818C362.579 223.944 362.657 223.212 362.813 222.621C362.974 222.03 363.201 221.557 363.494 221.2C363.787 220.839 364.139 220.58 364.549 220.424C364.964 220.268 365.428 220.189 365.94 220.189C366.355 220.189 366.736 220.241 367.083 220.343C367.435 220.441 367.747 220.6 368.021 220.819C368.294 221.034 368.526 221.322 368.716 221.684C368.912 222.04 369.061 222.477 369.163 222.995C369.266 223.512 369.317 224.12 369.317 224.818ZM367.955 226.664V224.591C367.955 224.113 367.925 223.693 367.867 223.332C367.813 222.965 367.732 222.653 367.625 222.394C367.518 222.135 367.381 221.925 367.215 221.764C367.054 221.603 366.866 221.486 366.651 221.413C366.441 221.334 366.204 221.295 365.94 221.295C365.618 221.295 365.333 221.356 365.083 221.479C364.834 221.596 364.625 221.784 364.454 222.042C364.288 222.301 364.161 222.641 364.073 223.061C363.985 223.48 363.941 223.991 363.941 224.591V226.664C363.941 227.143 363.968 227.565 364.021 227.931C364.08 228.297 364.166 228.615 364.278 228.883C364.39 229.147 364.527 229.364 364.688 229.535C364.849 229.706 365.035 229.833 365.245 229.916C365.459 229.994 365.696 230.033 365.955 230.033C366.287 230.033 366.578 229.97 366.827 229.843C367.076 229.716 367.283 229.518 367.449 229.25C367.62 228.976 367.747 228.627 367.83 228.202C367.913 227.772 367.955 227.26 367.955 226.664ZM374.764 225.435H376.009V228.45H374.764V225.435ZM380.779 218.61H382.024V228.915H380.779V218.61ZM372.769 230.85H382.354V231.87H372.769V230.85ZM372.769 227.91H374.014V231.12H372.769V227.91ZM371.014 225.9L370.849 224.865C371.689 224.865 372.599 224.86 373.579 224.85C374.569 224.83 375.579 224.795 376.609 224.745C377.639 224.685 378.634 224.595 379.594 224.475L379.684 225.375C378.714 225.535 377.714 225.655 376.684 225.735C375.664 225.805 374.669 225.85 373.699 225.87C372.729 225.89 371.834 225.9 371.014 225.9ZM378.019 226.62H381.109V227.52H378.019V226.62ZM375.259 219.15C375.929 219.15 376.514 219.25 377.014 219.45C377.514 219.64 377.899 219.915 378.169 220.275C378.449 220.625 378.589 221.04 378.589 221.52C378.589 221.99 378.449 222.405 378.169 222.765C377.899 223.125 377.514 223.4 377.014 223.59C376.514 223.78 375.929 223.875 375.259 223.875C374.599 223.875 374.014 223.78 373.504 223.59C373.004 223.4 372.614 223.125 372.334 222.765C372.064 222.405 371.929 221.99 371.929 221.52C371.929 221.04 372.064 220.625 372.334 220.275C372.614 219.915 373.004 219.64 373.504 219.45C374.014 219.25 374.599 219.15 375.259 219.15ZM375.259 220.08C374.619 220.08 374.099 220.21 373.699 220.47C373.299 220.73 373.099 221.08 373.099 221.52C373.099 221.95 373.299 222.295 373.699 222.555C374.099 222.815 374.619 222.945 375.259 222.945C375.889 222.945 376.404 222.815 376.804 222.555C377.204 222.295 377.404 221.95 377.404 221.52C377.404 221.22 377.314 220.965 377.134 220.755C376.954 220.545 376.704 220.38 376.384 220.26C376.064 220.14 375.689 220.08 375.259 220.08Z" fill="#5B5B5B"/>
<g filter="url(#filter1_d_493_6525)">
<rect x="14" y="201" width="176" height="109" rx="16" fill="white"/>
</g>
<path d="M33.3667 243.277V254H32.0117V244.969L29.2798 245.965V244.742L33.1543 243.277H33.3667ZM39.0649 248.924L37.981 248.646L38.5156 243.336H43.9868V244.588H39.6655L39.3433 247.489C39.5386 247.376 39.7852 247.271 40.083 247.174C40.3857 247.076 40.7324 247.027 41.123 247.027C41.6162 247.027 42.0581 247.113 42.4487 247.284C42.8394 247.45 43.1714 247.689 43.4448 248.001C43.7231 248.314 43.9355 248.69 44.082 249.129C44.2285 249.569 44.3018 250.06 44.3018 250.602C44.3018 251.114 44.231 251.585 44.0894 252.015C43.9526 252.445 43.7451 252.821 43.4668 253.143C43.1885 253.46 42.8369 253.707 42.4121 253.883C41.9922 254.059 41.4966 254.146 40.9253 254.146C40.4956 254.146 40.0879 254.088 39.7021 253.971C39.3213 253.849 38.9795 253.666 38.6768 253.421C38.3789 253.172 38.1348 252.865 37.9443 252.499C37.7588 252.127 37.6416 251.693 37.5928 251.195H38.8818C38.9404 251.595 39.0576 251.932 39.2334 252.206C39.4092 252.479 39.6387 252.687 39.9219 252.828C40.21 252.965 40.5444 253.033 40.9253 253.033C41.2476 253.033 41.5332 252.977 41.7822 252.865C42.0312 252.752 42.2412 252.591 42.4121 252.381C42.583 252.171 42.7124 251.917 42.8003 251.62C42.8931 251.322 42.9395 250.987 42.9395 250.616C42.9395 250.279 42.8931 249.967 42.8003 249.679C42.7075 249.391 42.5684 249.139 42.3828 248.924C42.2021 248.709 41.98 248.543 41.7163 248.426C41.4526 248.304 41.1499 248.243 40.8081 248.243C40.354 248.243 40.0098 248.304 39.7754 248.426C39.5459 248.548 39.3091 248.714 39.0649 248.924ZM47.1655 252.389V253.48C47.1655 253.924 47.0532 254.393 46.8286 254.886C46.604 255.384 46.2891 255.799 45.8838 256.131L45.1147 255.597C45.271 255.382 45.4028 255.162 45.5103 254.938C45.6177 254.718 45.6982 254.488 45.752 254.249C45.8105 254.015 45.8398 253.766 45.8398 253.502V252.389H47.1655ZM53.9478 243.321H54.0649V244.471H53.9478C53.23 244.471 52.6294 244.588 52.146 244.823C51.6626 245.052 51.2793 245.362 50.9961 245.753C50.7129 246.139 50.5078 246.573 50.3809 247.057C50.2588 247.54 50.1978 248.031 50.1978 248.529V250.096C50.1978 250.57 50.2539 250.99 50.3662 251.356C50.4785 251.717 50.6323 252.022 50.8276 252.271C51.0229 252.521 51.2427 252.708 51.4868 252.835C51.7358 252.962 51.9946 253.026 52.2632 253.026C52.5757 253.026 52.854 252.967 53.0981 252.85C53.3423 252.728 53.5474 252.56 53.7134 252.345C53.8843 252.125 54.0137 251.866 54.1016 251.568C54.1895 251.271 54.2334 250.943 54.2334 250.587C54.2334 250.27 54.1943 249.964 54.1162 249.671C54.0381 249.374 53.9185 249.11 53.7573 248.88C53.5962 248.646 53.3936 248.463 53.1494 248.331C52.9102 248.194 52.6245 248.126 52.2925 248.126C51.9165 248.126 51.5649 248.219 51.2378 248.404C50.9155 248.585 50.6494 248.824 50.4395 249.122C50.2344 249.415 50.1172 249.735 50.0879 250.082L49.3701 250.074C49.4385 249.527 49.5654 249.061 49.751 248.675C49.9414 248.285 50.1758 247.967 50.4541 247.723C50.7373 247.474 51.0522 247.293 51.3989 247.181C51.7505 247.064 52.1216 247.005 52.5122 247.005C53.0444 247.005 53.5034 247.105 53.8892 247.306C54.2749 247.506 54.5923 247.774 54.8413 248.111C55.0903 248.443 55.2734 248.819 55.3906 249.239C55.5127 249.654 55.5737 250.082 55.5737 250.521C55.5737 251.024 55.5029 251.495 55.3613 251.935C55.2197 252.374 55.0073 252.76 54.7241 253.092C54.4458 253.424 54.1016 253.683 53.6914 253.868C53.2812 254.054 52.8052 254.146 52.2632 254.146C51.687 254.146 51.1841 254.029 50.7544 253.795C50.3247 253.556 49.9683 253.238 49.6851 252.843C49.4019 252.447 49.1895 252.008 49.0479 251.524C48.9062 251.041 48.8354 250.55 48.8354 250.052V249.415C48.8354 248.663 48.9111 247.926 49.0625 247.203C49.2139 246.48 49.4751 245.826 49.8462 245.24C50.2222 244.654 50.7422 244.188 51.4062 243.841C52.0703 243.495 52.9175 243.321 53.9478 243.321ZM63.8794 247.818V249.444C63.8794 250.318 63.8013 251.056 63.645 251.656C63.4888 252.257 63.2642 252.74 62.9712 253.106C62.6782 253.473 62.3242 253.739 61.9092 253.905C61.499 254.066 61.0352 254.146 60.5176 254.146C60.1074 254.146 59.729 254.095 59.3823 253.993C59.0356 253.89 58.7231 253.727 58.4448 253.502C58.1714 253.272 57.937 252.975 57.7417 252.608C57.5464 252.242 57.3975 251.798 57.2949 251.275C57.1924 250.753 57.1411 250.143 57.1411 249.444V247.818C57.1411 246.944 57.2192 246.212 57.3755 245.621C57.5366 245.03 57.7637 244.557 58.0566 244.2C58.3496 243.839 58.7012 243.58 59.1113 243.424C59.5264 243.268 59.9902 243.189 60.5029 243.189C60.918 243.189 61.2988 243.241 61.6455 243.343C61.9971 243.441 62.3096 243.6 62.583 243.819C62.8564 244.034 63.0884 244.322 63.2788 244.684C63.4741 245.04 63.623 245.477 63.7256 245.995C63.8281 246.512 63.8794 247.12 63.8794 247.818ZM62.5171 249.664V247.591C62.5171 247.113 62.4878 246.693 62.4292 246.332C62.3755 245.965 62.2949 245.653 62.1875 245.394C62.0801 245.135 61.9434 244.925 61.7773 244.764C61.6162 244.603 61.4282 244.486 61.2134 244.413C61.0034 244.334 60.7666 244.295 60.5029 244.295C60.1807 244.295 59.895 244.356 59.646 244.479C59.397 244.596 59.187 244.784 59.0161 245.042C58.8501 245.301 58.7231 245.641 58.6353 246.061C58.5474 246.48 58.5034 246.991 58.5034 247.591V249.664C58.5034 250.143 58.5303 250.565 58.584 250.931C58.6426 251.297 58.728 251.615 58.8403 251.883C58.9526 252.147 59.0894 252.364 59.2505 252.535C59.4116 252.706 59.5972 252.833 59.8071 252.916C60.022 252.994 60.2588 253.033 60.5176 253.033C60.8496 253.033 61.1401 252.97 61.3892 252.843C61.6382 252.716 61.8457 252.518 62.0117 252.25C62.1826 251.976 62.3096 251.627 62.3926 251.202C62.4756 250.772 62.5171 250.26 62.5171 249.664ZM72.3169 247.818V249.444C72.3169 250.318 72.2388 251.056 72.0825 251.656C71.9263 252.257 71.7017 252.74 71.4087 253.106C71.1157 253.473 70.7617 253.739 70.3467 253.905C69.9365 254.066 69.4727 254.146 68.9551 254.146C68.5449 254.146 68.1665 254.095 67.8198 253.993C67.4731 253.89 67.1606 253.727 66.8823 253.502C66.6089 253.272 66.3745 252.975 66.1792 252.608C65.9839 252.242 65.835 251.798 65.7324 251.275C65.6299 250.753 65.5786 250.143 65.5786 249.444V247.818C65.5786 246.944 65.6567 246.212 65.813 245.621C65.9741 245.03 66.2012 244.557 66.4941 244.2C66.7871 243.839 67.1387 243.58 67.5488 243.424C67.9639 243.268 68.4277 243.189 68.9404 243.189C69.3555 243.189 69.7363 243.241 70.083 243.343C70.4346 243.441 70.7471 243.6 71.0205 243.819C71.2939 244.034 71.5259 244.322 71.7163 244.684C71.9116 245.04 72.0605 245.477 72.1631 245.995C72.2656 246.512 72.3169 247.12 72.3169 247.818ZM70.9546 249.664V247.591C70.9546 247.113 70.9253 246.693 70.8667 246.332C70.813 245.965 70.7324 245.653 70.625 245.394C70.5176 245.135 70.3809 244.925 70.2148 244.764C70.0537 244.603 69.8657 244.486 69.6509 244.413C69.4409 244.334 69.2041 244.295 68.9404 244.295C68.6182 244.295 68.3325 244.356 68.0835 244.479C67.8345 244.596 67.6245 244.784 67.4536 245.042C67.2876 245.301 67.1606 245.641 67.0728 246.061C66.9849 246.48 66.9409 246.991 66.9409 247.591V249.664C66.9409 250.143 66.9678 250.565 67.0215 250.931C67.0801 251.297 67.1655 251.615 67.2778 251.883C67.3901 252.147 67.5269 252.364 67.688 252.535C67.8491 252.706 68.0347 252.833 68.2446 252.916C68.4595 252.994 68.6963 253.033 68.9551 253.033C69.2871 253.033 69.5776 252.97 69.8267 252.843C70.0757 252.716 70.2832 252.518 70.4492 252.25C70.6201 251.976 70.7471 251.627 70.8301 251.202C70.9131 250.772 70.9546 250.26 70.9546 249.664ZM77.7638 248.435H79.0088V251.45H77.7638V248.435ZM83.7788 241.61H85.0238V251.915H83.7788V241.61ZM75.7688 253.85H85.3538V254.87H75.7688V253.85ZM75.7688 250.91H77.0138V254.12H75.7688V250.91ZM74.0138 248.9L73.8488 247.865C74.6888 247.865 75.5988 247.86 76.5788 247.85C77.5688 247.83 78.5788 247.795 79.6088 247.745C80.6388 247.685 81.6338 247.595 82.5938 247.475L82.6838 248.375C81.7138 248.535 80.7138 248.655 79.6838 248.735C78.6638 248.805 77.6688 248.85 76.6988 248.87C75.7288 248.89 74.8338 248.9 74.0138 248.9ZM81.0188 249.62H84.1088V250.52H81.0188V249.62ZM78.2588 242.15C78.9288 242.15 79.5138 242.25 80.0138 242.45C80.5138 242.64 80.8988 242.915 81.1688 243.275C81.4488 243.625 81.5888 244.04 81.5888 244.52C81.5888 244.99 81.4488 245.405 81.1688 245.765C80.8988 246.125 80.5138 246.4 80.0138 246.59C79.5138 246.78 78.9288 246.875 78.2588 246.875C77.5988 246.875 77.0138 246.78 76.5038 246.59C76.0038 246.4 75.6138 246.125 75.3338 245.765C75.0638 245.405 74.9288 244.99 74.9288 244.52C74.9288 244.04 75.0638 243.625 75.3338 243.275C75.6138 242.915 76.0038 242.64 76.5038 242.45C77.0138 242.25 77.5988 242.15 78.2588 242.15ZM78.2588 243.08C77.6188 243.08 77.0988 243.21 76.6988 243.47C76.2988 243.73 76.0988 244.08 76.0988 244.52C76.0988 244.95 76.2988 245.295 76.6988 245.555C77.0988 245.815 77.6188 245.945 78.2588 245.945C78.8888 245.945 79.4038 245.815 79.8038 245.555C80.2038 245.295 80.4038 244.95 80.4038 244.52C80.4038 244.22 80.3138 243.965 80.1338 243.755C79.9538 243.545 79.7038 243.38 79.3838 243.26C79.0638 243.14 78.6888 243.08 78.2588 243.08Z" fill="#5B5B5B"/>
<path d="M156.106 218.992V229H154.842V220.571L152.292 221.501V220.359L155.908 218.992H156.106ZM169.302 217.422H170.422V230.092H169.302V217.422ZM167.258 222.518H169.694V223.47H167.258V222.518ZM163.996 219.06H165.102C165.102 219.872 165.023 220.665 164.864 221.44C164.705 222.215 164.444 222.961 164.08 223.68C163.725 224.389 163.245 225.057 162.638 225.682C162.031 226.298 161.275 226.863 160.37 227.376L159.698 226.55C160.762 225.953 161.607 225.276 162.232 224.52C162.857 223.764 163.305 222.947 163.576 222.07C163.856 221.183 163.996 220.25 163.996 219.27V219.06ZM160.188 219.06H164.374V220.012H160.188V219.06ZM166.502 217.758H167.594V229.462H166.502V217.758Z" fill="black"/>
<path d="M39.8486 217.941H41.2596V226.662H39.8486V217.941ZM40.8686 221.681H43.5206V222.854H40.8686V221.681ZM35.5816 218.944H37.0776C37.0776 220.236 36.7886 221.403 36.2106 222.446C35.6439 223.477 34.8223 224.361 33.7456 225.098C32.6689 225.835 31.3769 226.413 29.8696 226.832L29.3086 225.693C30.6459 225.342 31.7793 224.866 32.7086 224.265C33.6379 223.653 34.3463 222.95 34.8336 222.157C35.3323 221.364 35.5816 220.497 35.5816 219.556V218.944ZM29.9886 218.944H36.3806V220.083H29.9886V218.944ZM31.5696 227.376H41.2596V233.105H31.5696V227.376ZM39.8656 228.532H32.9636V231.966H39.8656V228.532ZM55.3683 217.941H56.7793V233.326H55.3683V217.941ZM56.4563 223.993H59.2953V225.2H56.4563V223.993ZM45.5763 219.25H46.9703V223.296H51.3393V219.25H52.7333V229.637H45.5763V219.25ZM46.9703 224.418V228.464H51.3393V224.418H46.9703ZM66.7569 218.995H67.9979V220.185C67.9979 220.854 67.8789 221.488 67.6409 222.089C67.4143 222.69 67.0969 223.251 66.6889 223.772C66.2923 224.282 65.8276 224.741 65.2949 225.149C64.7736 225.557 64.2126 225.903 63.6119 226.186C63.0226 226.469 62.4219 226.685 61.8099 226.832L61.1809 225.659C61.7136 225.546 62.2463 225.37 62.7789 225.132C63.3229 224.894 63.8329 224.605 64.3089 224.265C64.7849 223.914 65.2043 223.523 65.5669 223.092C65.9409 222.661 66.2299 222.202 66.4339 221.715C66.6493 221.216 66.7569 220.706 66.7569 220.185V218.995ZM67.0289 218.995H68.2359V220.185C68.2359 220.706 68.3436 221.216 68.5589 221.715C68.7743 222.202 69.0633 222.661 69.4259 223.092C69.7999 223.523 70.2249 223.914 70.7009 224.265C71.1769 224.605 71.6813 224.9 72.2139 225.149C72.7579 225.387 73.3019 225.557 73.8459 225.659L73.1999 226.832C72.5879 226.685 71.9873 226.469 71.3979 226.186C70.8086 225.903 70.2476 225.557 69.7149 225.149C69.1936 224.741 68.7289 224.282 68.3209 223.772C67.9129 223.251 67.5956 222.69 67.3689 222.089C67.1423 221.488 67.0289 220.854 67.0289 220.185V218.995ZM60.6029 230.079H74.5429V231.252H60.6029V230.079ZM81.2574 218.791H88.4314V225.081H81.2574V218.791ZM87.0544 219.93H82.6344V223.959H87.0544V219.93ZM91.6444 217.941H93.0554V225.846H91.6444V217.941ZM83.1104 226.628H93.0554V230.334H84.5214V232.493H83.1444V229.297H91.6614V227.75H83.1104V226.628ZM83.1444 232.017H93.5654V233.156H83.1444V232.017ZM102.914 219.539H104.274C104.274 220.65 104.161 221.738 103.934 222.803C103.707 223.857 103.328 224.866 102.795 225.829C102.262 226.792 101.537 227.693 100.619 228.532C99.7011 229.371 98.5507 230.13 97.1681 230.81L96.4031 229.705C97.6157 229.116 98.6357 228.458 99.4631 227.733C100.302 227.008 100.97 226.226 101.469 225.387C101.979 224.548 102.347 223.653 102.574 222.701C102.801 221.749 102.914 220.746 102.914 219.692V219.539ZM97.2361 219.539H103.628V220.695H97.2361V219.539ZM102.693 223.347V224.452L96.6921 225.013L96.4541 223.772L102.693 223.347ZM107.3 217.941H108.711V233.326H107.3V217.941ZM113.521 226.237H124.078V227.376H113.521V226.237ZM111.736 230.164H125.676V231.337H111.736V230.164ZM113.521 219.267H123.925V220.423H114.949V226.577H113.521V219.267ZM114.507 222.684H123.585V223.823H114.507V222.684Z" fill="black"/>
<rect x="28.25" y="268.25" width="148.5" height="25.5" rx="7.75" fill="white" stroke="#8C8C8C" stroke-width="0.5"/>
<path d="M157 278.5L162 283.5L167 278.5H157Z" fill="#0C0C0C"/>
<path d="M38.1348 286.333C38.1348 287.25 38.8173 288 39.6516 288H51.7864C52.6207 288 53.3033 287.25 53.3033 286.333V283.833H38.1348V286.333ZM39.6516 285.5H51.7864V286.333H39.6516V285.5Z" fill="#F89C74"/>
<path d="M50.7701 280.083C49.2912 280.083 49.185 280.917 48.2446 280.917C47.342 280.917 47.1676 280.083 45.719 280.083C44.2401 280.083 44.1339 280.917 43.1935 280.917C42.2909 280.917 42.1165 280.083 40.6679 280.083C39.189 280.083 39.0828 280.917 38.1423 280.917V282.583C39.5834 282.583 39.7881 281.75 40.6831 281.75C41.5856 281.75 41.76 282.583 43.2086 282.583C44.6876 282.583 44.7937 281.75 45.7342 281.75C46.6367 281.75 46.8111 282.583 48.2597 282.583C49.7387 282.583 49.8448 281.75 50.7853 281.75C51.6878 281.75 51.8471 282.567 53.3033 282.583L53.2957 280.933C52.0746 280.658 52.067 280.083 50.7701 280.083Z" fill="#F89C74"/>
<path d="M53.3033 278C53.3184 274.667 50.0572 273 45.719 273C41.3884 273 38.1348 274.667 38.1348 278V278.833H53.3033V278ZM39.7881 277.167C40.4176 275.342 43.148 274.667 45.719 274.667C48.2294 274.667 50.2165 275.275 51.1721 276.325C51.3996 276.583 51.5665 276.858 51.6651 277.167H39.7881Z" fill="#F89C74"/>
<path d="M60.4093 274.28H62.1693V275.688C62.1693 276.616 62.0146 277.507 61.7053 278.36C61.3959 279.203 60.9266 279.939 60.2973 280.568C59.6679 281.197 58.8733 281.667 57.9133 281.976L56.8733 280.28C57.4919 280.088 58.0253 279.832 58.4733 279.512C58.9213 279.181 59.2839 278.813 59.5613 278.408C59.8493 277.992 60.0626 277.555 60.2013 277.096C60.3399 276.627 60.4093 276.157 60.4093 275.688V274.28ZM60.8413 274.28H62.5693V275.688C62.5693 276.147 62.6386 276.6 62.7773 277.048C62.9159 277.485 63.1186 277.901 63.3853 278.296C63.6626 278.68 64.0199 279.021 64.4573 279.32C64.8946 279.619 65.4173 279.859 66.0253 280.04L64.9853 281.72C64.0359 281.421 63.2519 280.973 62.6333 280.376C62.0253 279.779 61.5719 279.08 61.2733 278.28C60.9853 277.469 60.8413 276.605 60.8413 275.688V274.28ZM59.1453 283.08H69.2413V288.424H67.1133V284.776H59.1453V283.08ZM67.1133 273.608H69.2413V282.44H67.1133V273.608ZM81.816 273.576H83.944V288.44H81.816V273.576ZM72.376 274.76H74.488V278.376H77.56V274.76H79.672V284.984H72.376V274.76ZM74.488 280.024V283.288H77.56V280.024H74.488Z" fill="#F89C74"/>
<path d="M83 335.5H80.5V353C80.5 354.375 81.625 355.5 83 355.5H100.5V353H83V335.5ZM103 330.5H88C86.625 330.5 85.5 331.625 85.5 333V348C85.5 349.375 86.625 350.5 88 350.5H103C104.375 350.5 105.5 349.375 105.5 348V333C105.5 331.625 104.375 330.5 103 330.5ZM103 348H88V333H103V348ZM94.25 346.75H96.75V341.75H101.75V339.25H96.75V334.25H94.25V339.25H89.25V341.75H94.25V346.75Z" fill="#0C0C0C"/>
<rect opacity="0.7" x="1" y="-2" width="411" height="919" fill="#404040"/>
<path d="M1 303C1 289.745 11.7452 279 25 279H389C402.255 279 413 289.745 413 303V963H1V303Z" fill="#F9FAFC"/>
<path d="M398.375 301.211L396.789 299.625L390.5 305.914L384.211 299.625L382.625 301.211L388.914 307.5L382.625 313.789L384.211 315.375L390.5 309.086L396.789 315.375L398.375 313.789L392.086 307.5L398.375 301.211Z" fill="#999999"/>
<path d="M74.502 337.816H78.198V341.736H74.502V337.816ZM64.618 335.688H88.082V338.628H64.618V335.688ZM66.662 324.264H86.01V327.232H66.662V324.264ZM66.858 331.124H85.786V334.064H66.858V331.124ZM69.966 325.328H73.69V333.056H69.966V325.328ZM78.982 325.328H82.706V333.056H78.982V325.328ZM67.362 340.756H85.282V349.212H67.362V340.756ZM81.642 343.668H71.002V346.272H81.642V343.668ZM93.2599 324.572H110.872V333.728H93.2599V324.572ZM107.204 327.484H96.9279V330.816H107.204V327.484ZM90.3759 336.192H113.84V339.132H90.3759V336.192ZM100.232 333.084H103.928V337.004H100.232V333.084ZM92.9799 341.008H111.012V349.492H107.288V343.92H92.9799V341.008ZM132.962 340.14H136.686V349.52H132.962V340.14ZM123.134 339.076H146.598V342.1H123.134V339.076ZM132.934 328.212H136.21V328.828C136.21 329.687 136.061 330.527 135.762 331.348C135.482 332.151 135.053 332.907 134.474 333.616C133.896 334.307 133.177 334.941 132.318 335.52C131.46 336.08 130.47 336.556 129.35 336.948C128.23 337.321 126.989 337.592 125.626 337.76L124.31 334.82C125.486 334.689 126.532 334.475 127.446 334.176C128.38 333.877 129.192 333.523 129.882 333.112C130.573 332.701 131.142 332.263 131.59 331.796C132.057 331.311 132.393 330.816 132.598 330.312C132.822 329.789 132.934 329.295 132.934 328.828V328.212ZM133.438 328.212H136.686V328.828C136.686 329.276 136.798 329.761 137.022 330.284C137.265 330.788 137.61 331.283 138.058 331.768C138.506 332.235 139.076 332.683 139.766 333.112C140.457 333.523 141.26 333.877 142.174 334.176C143.108 334.475 144.153 334.689 145.31 334.82L144.022 337.76C142.641 337.611 141.39 337.34 140.27 336.948C139.169 336.537 138.189 336.052 137.33 335.492C136.472 334.932 135.753 334.297 135.174 333.588C134.596 332.86 134.157 332.095 133.858 331.292C133.578 330.489 133.438 329.668 133.438 328.828V328.212ZM125.234 326.504H144.442V329.444H125.234V326.504ZM132.962 323.62H136.686V327.512H132.962V323.62ZM165.44 323.508H169.192V349.436H165.44V323.508ZM168.24 333.448H172.804V336.5H168.24V333.448ZM158.636 326.196H162.304C162.304 328.791 161.931 331.245 161.184 333.56C160.456 335.875 159.243 338.003 157.544 339.944C155.864 341.867 153.587 343.547 150.712 344.984L148.612 342.156C150.889 340.98 152.765 339.655 154.24 338.18C155.733 336.705 156.835 335.035 157.544 333.168C158.272 331.283 158.636 329.183 158.636 326.868V326.196ZM150.04 326.196H160.568V329.192H150.04V326.196Z" fill="black"/>
<path d="M351.405 653.806H352.567V656.62H351.405V653.806ZM357.019 647.436H358.181V657.054H357.019V647.436ZM349.543 658.86H358.489V659.812H349.543V658.86ZM349.543 656.116H350.705V659.112H349.543V656.116ZM347.905 654.24L347.751 653.274C348.535 653.274 349.384 653.269 350.299 653.26C351.223 653.241 352.166 653.209 353.127 653.162C354.088 653.106 355.017 653.022 355.913 652.91L355.997 653.75C355.092 653.899 354.158 654.011 353.197 654.086C352.245 654.151 351.316 654.193 350.411 654.212C349.506 654.231 348.67 654.24 347.905 654.24ZM354.443 654.912H357.327V655.752H354.443V654.912ZM351.867 647.94C352.492 647.94 353.038 648.033 353.505 648.22C353.972 648.397 354.331 648.654 354.583 648.99C354.844 649.317 354.975 649.704 354.975 650.152C354.975 650.591 354.844 650.978 354.583 651.314C354.331 651.65 353.972 651.907 353.505 652.084C353.038 652.261 352.492 652.35 351.867 652.35C351.251 652.35 350.705 652.261 350.229 652.084C349.762 651.907 349.398 651.65 349.137 651.314C348.885 650.978 348.759 650.591 348.759 650.152C348.759 649.704 348.885 649.317 349.137 648.99C349.398 648.654 349.762 648.397 350.229 648.22C350.705 648.033 351.251 647.94 351.867 647.94ZM351.867 648.808C351.27 648.808 350.784 648.929 350.411 649.172C350.038 649.415 349.851 649.741 349.851 650.152C349.851 650.553 350.038 650.875 350.411 651.118C350.784 651.361 351.27 651.482 351.867 651.482C352.455 651.482 352.936 651.361 353.309 651.118C353.682 650.875 353.869 650.553 353.869 650.152C353.869 649.872 353.785 649.634 353.617 649.438C353.449 649.242 353.216 649.088 352.917 648.976C352.618 648.864 352.268 648.808 351.867 648.808Z" fill="#868686"/>
<path d="M165.821 653.974H177.259V654.926H165.821V653.974ZM170.959 652.42H172.107V654.408H170.959V652.42ZM170.959 647.394H172.107V649.158H170.959V647.394ZM170.903 649.27H171.925V649.466C171.925 649.989 171.79 650.455 171.519 650.866C171.258 651.277 170.889 651.631 170.413 651.93C169.946 652.229 169.405 652.471 168.789 652.658C168.182 652.835 167.534 652.961 166.843 653.036L166.479 652.14C167.095 652.084 167.669 651.981 168.201 651.832C168.733 651.683 169.2 651.491 169.601 651.258C170.012 651.025 170.329 650.759 170.553 650.46C170.786 650.161 170.903 649.83 170.903 649.466V649.27ZM171.155 649.27H172.163V649.466C172.163 649.83 172.275 650.161 172.499 650.46C172.732 650.759 173.05 651.025 173.451 651.258C173.862 651.491 174.333 651.683 174.865 651.832C175.397 651.981 175.971 652.084 176.587 652.14L176.237 653.036C175.546 652.961 174.893 652.835 174.277 652.658C173.67 652.471 173.129 652.229 172.653 651.93C172.186 651.631 171.818 651.277 171.547 650.866C171.286 650.455 171.155 649.989 171.155 649.466V649.27ZM166.997 648.654H176.097V649.592H166.997V648.654ZM171.533 655.864C172.896 655.864 173.955 656.046 174.711 656.41C175.476 656.765 175.859 657.283 175.859 657.964C175.859 658.645 175.476 659.163 174.711 659.518C173.955 659.882 172.896 660.064 171.533 660.064C170.17 660.064 169.106 659.882 168.341 659.518C167.576 659.163 167.193 658.645 167.193 657.964C167.193 657.283 167.576 656.765 168.341 656.41C169.106 656.046 170.17 655.864 171.533 655.864ZM171.533 656.746C170.525 656.746 169.746 656.853 169.195 657.068C168.644 657.273 168.369 657.572 168.369 657.964C168.369 658.356 168.644 658.659 169.195 658.874C169.746 659.079 170.525 659.182 171.533 659.182C172.532 659.182 173.306 659.079 173.857 658.874C174.417 658.659 174.697 658.356 174.697 657.964C174.697 657.572 174.417 657.273 173.857 657.068C173.306 656.853 172.532 656.746 171.533 656.746Z" fill="#868686"/>
<path d="M70.208 444.204H71.18C71.18 444.988 71.104 445.756 70.952 446.508C70.8 447.252 70.54 447.964 70.172 448.644C69.804 449.316 69.3 449.948 68.66 450.54C68.02 451.132 67.216 451.668 66.248 452.148L65.696 451.38C66.56 450.956 67.28 450.488 67.856 449.976C68.432 449.464 68.892 448.912 69.236 448.32C69.58 447.728 69.828 447.096 69.98 446.424C70.132 445.752 70.208 445.048 70.208 444.312V444.204ZM66.296 444.204H70.808V445.02H66.296V444.204ZM70.064 446.892V447.672L65.9 448.068L65.744 447.192L70.064 446.892ZM72.944 443.076H73.94V453.924H72.944V443.076ZM73.676 447.48H75.668V448.308H73.676V447.48ZM81.1511 447.192H83.1911V448.008H81.1511V447.192ZM77.0471 450.516H77.7311C78.2911 450.516 78.7871 450.508 79.2191 450.492C79.6511 450.476 80.0551 450.448 80.4311 450.408C80.8151 450.368 81.2031 450.308 81.5951 450.228L81.6911 451.044C81.2831 451.124 80.8831 451.184 80.4911 451.224C80.0991 451.264 79.6831 451.292 79.2431 451.308C78.8031 451.324 78.2991 451.332 77.7311 451.332H77.0471V450.516ZM77.0471 444.384H81.0671V445.188H77.9951V450.792H77.0471V444.384ZM77.7071 447.324H80.5631V448.104H77.7071V447.324ZM84.8951 443.076H85.8551V453.936H84.8951V443.076ZM82.7111 443.328H83.6471V453.372H82.7111V443.328ZM88.7221 444.168H95.7061V444.984H88.7221V444.168ZM87.6781 451.584H97.4821V452.412H87.6781V451.584ZM91.4941 447.708H92.4781V452.004H91.4941V447.708ZM95.3221 444.168H96.3181V445.236C96.3181 445.684 96.3101 446.156 96.2941 446.652C96.2861 447.148 96.2541 447.692 96.1981 448.284C96.1501 448.876 96.0581 449.536 95.9221 450.264L94.9141 450.144C95.1221 449.104 95.2421 448.192 95.2741 447.408C95.3061 446.616 95.3221 445.892 95.3221 445.236V444.168ZM106.625 443.076H107.609V453.948H106.625V443.076ZM99.3412 450.492H100.241C100.857 450.492 101.449 450.484 102.017 450.468C102.593 450.444 103.173 450.404 103.757 450.348C104.349 450.292 104.965 450.212 105.605 450.108L105.701 450.924C104.725 451.084 103.805 451.192 102.941 451.248C102.077 451.296 101.177 451.32 100.241 451.32H99.3412V450.492ZM99.3172 444.084H104.333V447.96H100.349V450.804H99.3412V447.156H103.325V444.9H99.3172V444.084Z" fill="black"/>
<path d="M70.004 372.848H70.988V374.72H70.004V372.848ZM65.6 372.32H75.404V373.124H65.6V372.32ZM66.512 367.424H74.468V368.24H66.512V367.424ZM66.548 370.496H74.432V371.312H66.548V370.496ZM68.144 367.784H69.14V371.036H68.144V367.784ZM71.84 367.784H72.836V371.036H71.84V367.784ZM66.8 374.396H74.204V377.792H66.8V374.396ZM73.232 375.188H67.772V376.976H73.232V375.188ZM77.8991 367.532H85.1831V371.216H77.8991V367.532ZM84.2111 368.324H78.8711V370.412H84.2111V368.324ZM76.6391 372.572H86.4431V373.388H76.6391V372.572ZM81.0431 371.012H82.0391V372.884H81.0431V371.012ZM77.7311 374.504H85.2311V377.936H84.2351V375.308H77.7311V374.504ZM98.5387 367.076H99.5347V377.948H98.5387V367.076ZM93.8107 367.916C94.3467 367.916 94.8187 368.072 95.2267 368.384C95.6427 368.688 95.9667 369.124 96.1987 369.692C96.4387 370.26 96.5587 370.928 96.5587 371.696C96.5587 372.464 96.4387 373.132 96.1987 373.7C95.9667 374.268 95.6427 374.708 95.2267 375.02C94.8187 375.332 94.3467 375.488 93.8107 375.488C93.2747 375.488 92.7987 375.332 92.3827 375.02C91.9667 374.708 91.6387 374.268 91.3987 373.7C91.1667 373.132 91.0507 372.464 91.0507 371.696C91.0507 370.928 91.1667 370.26 91.3987 369.692C91.6387 369.124 91.9667 368.688 92.3827 368.384C92.7987 368.072 93.2747 367.916 93.8107 367.916ZM93.8107 368.804C93.4507 368.804 93.1347 368.924 92.8627 369.164C92.5987 369.396 92.3907 369.732 92.2387 370.172C92.0867 370.604 92.0107 371.112 92.0107 371.696C92.0107 372.28 92.0867 372.792 92.2387 373.232C92.3907 373.664 92.5987 374 92.8627 374.24C93.1347 374.48 93.4507 374.6 93.8107 374.6C94.1627 374.6 94.4707 374.48 94.7347 374.24C95.0067 374 95.2187 373.664 95.3707 373.232C95.5227 372.792 95.5987 372.28 95.5987 371.696C95.5987 371.112 95.5227 370.604 95.3707 370.172C95.2187 369.732 95.0067 369.396 94.7347 369.164C94.4707 368.924 94.1627 368.804 93.8107 368.804ZM101.682 372.68H111.522V373.484H101.682V372.68ZM102.93 367.34H110.262V369.92H103.938V371.348H102.954V369.176H109.278V368.132H102.93V367.34ZM102.954 370.976H110.49V371.756H102.954V370.976ZM103.014 374.468H110.274V377.792H103.014V374.468ZM109.29 375.272H103.986V376.976H109.29V375.272Z" fill="black"/>
<line x1="23" y1="622.5" x2="383" y2="622.5" stroke="#D9D9D9"/>
<rect x="44" y="787" width="330" height="50" rx="8" fill="#2383BD"/>
<path d="M184.842 809.96H186.482V812.26H184.842V809.96ZM192.462 801.48H194.122V813.6H192.462V801.48ZM193.422 806.94H196.762V808.32H193.422V806.94ZM180.202 813.08L180.002 811.74C181.082 811.74 182.262 811.733 183.542 811.72C184.835 811.693 186.155 811.64 187.502 811.56C188.848 811.48 190.142 811.353 191.382 811.18L191.502 812.36C190.222 812.587 188.908 812.753 187.562 812.86C186.228 812.953 184.928 813.013 183.662 813.04C182.408 813.067 181.255 813.08 180.202 813.08ZM182.222 814.52H194.122V819.56H192.462V815.84H182.222V814.52ZM180.462 803.1H190.842V804.36H180.462V803.1ZM185.642 805.04C186.922 805.04 187.942 805.28 188.702 805.76C189.475 806.24 189.862 806.893 189.862 807.72C189.862 808.547 189.475 809.2 188.702 809.68C187.942 810.16 186.922 810.4 185.642 810.4C184.375 810.4 183.355 810.16 182.582 809.68C181.808 809.2 181.422 808.547 181.422 807.72C181.422 806.893 181.808 806.24 182.582 805.76C183.355 805.28 184.375 805.04 185.642 805.04ZM185.642 806.2C184.842 806.2 184.202 806.333 183.722 806.6C183.242 806.867 183.002 807.24 183.002 807.72C183.002 808.173 183.242 808.547 183.722 808.84C184.202 809.12 184.842 809.26 185.642 809.26C186.442 809.26 187.082 809.12 187.562 808.84C188.042 808.547 188.282 808.173 188.282 807.72C188.282 807.24 188.042 806.867 187.562 806.6C187.082 806.333 186.442 806.2 185.642 806.2ZM184.842 801.32H186.482V803.72H184.842V801.32ZM211.66 801.48H213.32V814.68H211.66V801.48ZM201.7 817.8H213.88V819.16H201.7V817.8ZM201.7 813.34H203.36V818.26H201.7V813.34ZM203.62 802.74C204.527 802.74 205.333 802.927 206.04 803.3C206.747 803.673 207.307 804.2 207.72 804.88C208.133 805.547 208.34 806.313 208.34 807.18C208.34 808.047 208.133 808.82 207.72 809.5C207.307 810.167 206.747 810.693 206.04 811.08C205.333 811.453 204.527 811.64 203.62 811.64C202.727 811.64 201.92 811.453 201.2 811.08C200.493 810.693 199.933 810.167 199.52 809.5C199.107 808.82 198.9 808.047 198.9 807.18C198.9 806.313 199.107 805.547 199.52 804.88C199.933 804.2 200.493 803.673 201.2 803.3C201.92 802.927 202.727 802.74 203.62 802.74ZM203.62 804.18C203.033 804.18 202.507 804.307 202.04 804.56C201.573 804.813 201.2 805.167 200.92 805.62C200.653 806.073 200.52 806.593 200.52 807.18C200.52 807.78 200.653 808.307 200.92 808.76C201.2 809.2 201.573 809.547 202.04 809.8C202.507 810.053 203.033 810.18 203.62 810.18C204.207 810.18 204.733 810.053 205.2 809.8C205.68 809.547 206.053 809.2 206.32 808.76C206.587 808.307 206.72 807.78 206.72 807.18C206.72 806.593 206.587 806.073 206.32 805.62C206.053 805.167 205.68 804.813 205.2 804.56C204.733 804.307 204.207 804.18 203.62 804.18Z" fill="white"/>
<path d="M250.133 651.91V655H242.408V651.91H250.133ZM262.848 642.053V662H258.91V646.592L254.18 648.096V644.992L262.424 642.053H262.848ZM273.033 652.936L269.889 652.184L271.023 642.094H282.207V645.279H274.264L273.771 649.695C274.036 649.54 274.437 649.376 274.975 649.203C275.512 649.021 276.114 648.93 276.779 648.93C277.745 648.93 278.602 649.08 279.35 649.381C280.097 649.682 280.73 650.119 281.25 650.693C281.779 651.268 282.18 651.969 282.453 652.799C282.727 653.628 282.863 654.567 282.863 655.615C282.863 656.499 282.727 657.342 282.453 658.145C282.18 658.938 281.765 659.648 281.209 660.277C280.653 660.897 279.956 661.385 279.117 661.74C278.279 662.096 277.285 662.273 276.137 662.273C275.28 662.273 274.451 662.146 273.648 661.891C272.855 661.635 272.14 661.257 271.502 660.756C270.873 660.255 270.367 659.648 269.984 658.938C269.611 658.217 269.415 657.397 269.396 656.477H273.307C273.361 657.042 273.507 657.529 273.744 657.939C273.99 658.34 274.314 658.65 274.715 658.869C275.116 659.088 275.585 659.197 276.123 659.197C276.624 659.197 277.053 659.102 277.408 658.91C277.764 658.719 278.051 658.454 278.27 658.117C278.488 657.771 278.648 657.37 278.748 656.914C278.857 656.449 278.912 655.948 278.912 655.41C278.912 654.872 278.848 654.385 278.721 653.947C278.593 653.51 278.397 653.132 278.133 652.812C277.868 652.493 277.531 652.247 277.121 652.074C276.72 651.901 276.251 651.814 275.713 651.814C274.984 651.814 274.419 651.928 274.018 652.156C273.626 652.384 273.298 652.644 273.033 652.936ZM289.303 658.678L289.289 661.316C289.289 662.328 289.034 663.349 288.523 664.379C288.022 665.409 287.384 666.252 286.609 666.908L284.559 665.855C284.786 665.436 285.01 665.017 285.229 664.598C285.447 664.178 285.63 663.718 285.775 663.217C285.921 662.715 285.994 662.146 285.994 661.508V658.678H289.303ZM302.455 641.889H303.029V645.033H302.797C301.758 645.033 300.833 645.188 300.021 645.498C299.21 645.808 298.522 646.25 297.957 646.824C297.401 647.389 296.973 648.073 296.672 648.875C296.38 649.677 296.234 650.575 296.234 651.568V654.877C296.234 655.588 296.303 656.217 296.439 656.764C296.585 657.301 296.79 657.753 297.055 658.117C297.328 658.473 297.647 658.742 298.012 658.924C298.376 659.097 298.786 659.184 299.242 659.184C299.671 659.184 300.058 659.092 300.404 658.91C300.76 658.728 301.061 658.473 301.307 658.145C301.562 657.807 301.753 657.415 301.881 656.969C302.018 656.513 302.086 656.016 302.086 655.479C302.086 654.941 302.018 654.444 301.881 653.988C301.753 653.533 301.562 653.141 301.307 652.812C301.051 652.475 300.742 652.215 300.377 652.033C300.012 651.851 299.602 651.76 299.146 651.76C298.527 651.76 297.98 651.906 297.506 652.197C297.041 652.48 296.676 652.844 296.412 653.291C296.148 653.738 296.007 654.207 295.988 654.699L294.799 653.934C294.826 653.232 294.972 652.566 295.236 651.938C295.51 651.309 295.883 650.753 296.357 650.27C296.84 649.777 297.419 649.395 298.094 649.121C298.768 648.839 299.529 648.697 300.377 648.697C301.307 648.697 302.122 648.875 302.824 649.23C303.535 649.586 304.128 650.074 304.602 650.693C305.076 651.313 305.431 652.029 305.668 652.84C305.905 653.651 306.023 654.517 306.023 655.438C306.023 656.404 305.864 657.301 305.545 658.131C305.235 658.96 304.784 659.685 304.191 660.305C303.608 660.924 302.906 661.408 302.086 661.754C301.266 662.1 300.345 662.273 299.324 662.273C298.267 662.273 297.305 662.082 296.439 661.699C295.583 661.307 294.844 660.76 294.225 660.059C293.605 659.357 293.126 658.523 292.789 657.557C292.461 656.59 292.297 655.533 292.297 654.385V652.854C292.297 651.249 292.529 649.782 292.994 648.451C293.468 647.111 294.147 645.954 295.031 644.979C295.915 643.994 296.982 643.233 298.23 642.695C299.479 642.158 300.887 641.889 302.455 641.889ZM321.773 650.297V653.742C321.773 655.237 321.614 656.527 321.295 657.611C320.976 658.687 320.516 659.571 319.914 660.264C319.322 660.947 318.615 661.453 317.795 661.781C316.975 662.109 316.063 662.273 315.061 662.273C314.258 662.273 313.511 662.173 312.818 661.973C312.126 661.763 311.501 661.439 310.945 661.002C310.398 660.564 309.924 660.013 309.523 659.348C309.132 658.673 308.831 657.871 308.621 656.941C308.411 656.012 308.307 654.945 308.307 653.742V650.297C308.307 648.802 308.466 647.521 308.785 646.455C309.113 645.38 309.574 644.5 310.166 643.816C310.768 643.133 311.479 642.632 312.299 642.312C313.119 641.984 314.031 641.82 315.033 641.82C315.835 641.82 316.578 641.925 317.262 642.135C317.954 642.335 318.579 642.65 319.135 643.078C319.691 643.507 320.165 644.058 320.557 644.732C320.949 645.398 321.249 646.195 321.459 647.125C321.669 648.046 321.773 649.103 321.773 650.297ZM317.822 654.262V649.764C317.822 649.044 317.781 648.415 317.699 647.877C317.626 647.339 317.512 646.883 317.357 646.51C317.202 646.127 317.011 645.817 316.783 645.58C316.555 645.343 316.296 645.17 316.004 645.061C315.712 644.951 315.389 644.896 315.033 644.896C314.587 644.896 314.19 644.983 313.844 645.156C313.507 645.329 313.219 645.607 312.982 645.99C312.745 646.364 312.563 646.865 312.436 647.494C312.317 648.114 312.258 648.87 312.258 649.764V654.262C312.258 654.982 312.294 655.615 312.367 656.162C312.449 656.709 312.568 657.178 312.723 657.57C312.887 657.953 313.078 658.268 313.297 658.514C313.525 658.751 313.785 658.924 314.076 659.033C314.377 659.143 314.705 659.197 315.061 659.197C315.498 659.197 315.885 659.111 316.223 658.938C316.569 658.755 316.861 658.473 317.098 658.09C317.344 657.698 317.526 657.188 317.645 656.559C317.763 655.93 317.822 655.164 317.822 654.262ZM337.852 650.297V653.742C337.852 655.237 337.692 656.527 337.373 657.611C337.054 658.687 336.594 659.571 335.992 660.264C335.4 660.947 334.693 661.453 333.873 661.781C333.053 662.109 332.141 662.273 331.139 662.273C330.337 662.273 329.589 662.173 328.896 661.973C328.204 661.763 327.579 661.439 327.023 661.002C326.477 660.564 326.003 660.013 325.602 659.348C325.21 658.673 324.909 657.871 324.699 656.941C324.49 656.012 324.385 654.945 324.385 653.742V650.297C324.385 648.802 324.544 647.521 324.863 646.455C325.191 645.38 325.652 644.5 326.244 643.816C326.846 643.133 327.557 642.632 328.377 642.312C329.197 641.984 330.109 641.82 331.111 641.82C331.913 641.82 332.656 641.925 333.34 642.135C334.033 642.335 334.657 642.65 335.213 643.078C335.769 643.507 336.243 644.058 336.635 644.732C337.027 645.398 337.327 646.195 337.537 647.125C337.747 648.046 337.852 649.103 337.852 650.297ZM333.9 654.262V649.764C333.9 649.044 333.859 648.415 333.777 647.877C333.704 647.339 333.59 646.883 333.436 646.51C333.281 646.127 333.089 645.817 332.861 645.58C332.633 645.343 332.374 645.17 332.082 645.061C331.79 644.951 331.467 644.896 331.111 644.896C330.665 644.896 330.268 644.983 329.922 645.156C329.585 645.329 329.298 645.607 329.061 645.99C328.824 646.364 328.641 646.865 328.514 647.494C328.395 648.114 328.336 648.87 328.336 649.764V654.262C328.336 654.982 328.372 655.615 328.445 656.162C328.527 656.709 328.646 657.178 328.801 657.57C328.965 657.953 329.156 658.268 329.375 658.514C329.603 658.751 329.863 658.924 330.154 659.033C330.455 659.143 330.783 659.197 331.139 659.197C331.576 659.197 331.964 659.111 332.301 658.938C332.647 658.755 332.939 658.473 333.176 658.09C333.422 657.698 333.604 657.188 333.723 656.559C333.841 655.93 333.9 655.164 333.9 654.262Z" fill="black"/>
<rect x="65.5" y="388.5" width="290" height="39" rx="7.5" fill="#FBFCFB"/>
<rect x="65.5" y="388.5" width="290" height="39" rx="7.5" stroke="#2383BD"/>
<path d="M85.704 400.768H87.032V408.976H85.704V400.768ZM86.664 404.288H89.16V405.392H86.664V404.288ZM81.688 401.712H83.096C83.096 402.928 82.824 404.027 82.28 405.008C81.7467 405.979 80.9733 406.811 79.96 407.504C78.9467 408.197 77.7307 408.741 76.312 409.136L75.784 408.064C77.0427 407.733 78.1093 407.285 78.984 406.72C79.8587 406.144 80.5253 405.483 80.984 404.736C81.4533 403.989 81.688 403.173 81.688 402.288V401.712ZM76.424 401.712H82.44V402.784H76.424V401.712ZM77.912 409.648H87.032V415.04H77.912V409.648ZM85.72 410.736H79.224V413.968H85.72V410.736ZM100.311 400.768H101.639V415.248H100.311V400.768ZM101.335 406.464H104.007V407.6H101.335V406.464ZM91.0948 402H92.4068V405.808H96.5188V402H97.8308V411.776H91.0948V402ZM92.4068 406.864V410.672H96.5188V406.864H92.4068ZM111.03 401.76H112.198V402.88C112.198 403.509 112.086 404.107 111.862 404.672C111.648 405.237 111.35 405.765 110.966 406.256C110.592 406.736 110.155 407.168 109.654 407.552C109.163 407.936 108.635 408.261 108.07 408.528C107.515 408.795 106.95 408.997 106.374 409.136L105.782 408.032C106.283 407.925 106.784 407.76 107.286 407.536C107.798 407.312 108.278 407.04 108.726 406.72C109.174 406.389 109.568 406.021 109.91 405.616C110.262 405.211 110.534 404.779 110.726 404.32C110.928 403.851 111.03 403.371 111.03 402.88V401.76ZM111.286 401.76H112.422V402.88C112.422 403.371 112.523 403.851 112.726 404.32C112.928 404.779 113.2 405.211 113.542 405.616C113.894 406.021 114.294 406.389 114.742 406.72C115.19 407.04 115.664 407.317 116.166 407.552C116.678 407.776 117.19 407.936 117.702 408.032L117.094 409.136C116.518 408.997 115.952 408.795 115.398 408.528C114.843 408.261 114.315 407.936 113.814 407.552C113.323 407.168 112.886 406.736 112.502 406.256C112.118 405.765 111.819 405.237 111.606 404.672C111.392 404.107 111.286 403.509 111.286 402.88V401.76ZM105.238 412.192H118.358V413.296H105.238V412.192ZM124.677 401.568H131.429V407.488H124.677V401.568ZM130.133 402.64H125.973V406.432H130.133V402.64ZM134.453 400.768H135.781V408.208H134.453V400.768ZM126.421 408.944H135.781V412.432H127.749V414.464H126.453V411.456H134.469V410H126.421V408.944ZM126.453 414.016H136.261V415.088H126.453V414.016ZM145.06 402.272H146.34C146.34 403.317 146.233 404.341 146.02 405.344C145.806 406.336 145.449 407.285 144.948 408.192C144.446 409.099 143.764 409.947 142.9 410.736C142.036 411.525 140.953 412.24 139.652 412.88L138.932 411.84C140.073 411.285 141.033 410.667 141.812 409.984C142.601 409.301 143.23 408.565 143.7 407.776C144.18 406.987 144.526 406.144 144.74 405.248C144.953 404.352 145.06 403.408 145.06 402.416V402.272ZM139.716 402.272H145.732V403.36H139.716V402.272ZM144.852 405.856V406.896L139.204 407.424L138.98 406.256L144.852 405.856ZM149.188 400.768H150.516V415.248H149.188V400.768ZM155.043 408.576H164.979V409.648H155.043V408.576ZM153.363 412.272H166.483V413.376H153.363V412.272ZM155.043 402.016H164.835V403.104H156.387V408.896H155.043V402.016ZM155.971 405.232H164.515V406.304H155.971V405.232Z" fill="#404040"/>
<rect x="65.5" y="459.5" width="290" height="39" rx="7.5" fill="#FBFCFB"/>
<rect x="65.5" y="459.5" width="290" height="39" rx="7.5" stroke="#2383BD"/>
<path d="M327.711 480.5C328.101 480.89 328.731 480.89 329.121 480.5L334.001 475.62L338.881 480.5C339.271 480.89 339.901 480.89 340.291 480.5C340.681 480.11 340.681 479.48 340.291 479.09L334.701 473.5C334.311 473.11 333.681 473.11 333.291 473.5L327.701 479.09C327.321 479.47 327.321 480.11 327.711 480.5Z" fill="#0C0C0C"/>
<path d="M79.2979 472.92H86.4179V482.888H79.2979V472.92ZM84.3379 474.6H81.3939V481.208H84.3379V474.6ZM88.7379 471.576H90.8659V486.44H88.7379V471.576ZM93.2806 479.176H106.705V480.856H93.2806V479.176ZM99.1046 480.088H101.233V483.208H99.1046V480.088ZM94.8326 484.456H105.217V486.168H94.8326V484.456ZM94.8326 482.088H96.9606V485.176H94.8326V482.088ZM94.9926 472.072H97.0886V473.576H102.881V472.072H104.993V478.152H94.9926V472.072ZM97.0886 475.176V476.504H102.881V475.176H97.0886ZM108.015 480.296H121.423V481.96H108.015V480.296ZM111.103 481.16H113.231V486.424H111.103V481.16ZM116.223 481.16H118.351V486.424H116.223V481.16ZM109.551 472.056H119.887V476.392H111.727V478.696H109.567V474.824H117.727V473.736H109.551V472.056ZM109.567 477.544H120.239V479.24H109.567V477.544Z" fill="#8C8C8C"/>
<path d="M73.832 519.076H74.792V529.936H73.832V519.076ZM72.08 523.444H74.168V524.26H72.08V523.444ZM69.284 520.48H70.232C70.232 521.176 70.164 521.856 70.028 522.52C69.892 523.184 69.668 523.824 69.356 524.44C69.052 525.048 68.64 525.62 68.12 526.156C67.6 526.684 66.952 527.168 66.176 527.608L65.6 526.9C66.512 526.388 67.236 525.808 67.772 525.16C68.308 524.512 68.692 523.812 68.924 523.06C69.164 522.3 69.284 521.5 69.284 520.66V520.48ZM66.02 520.48H69.608V521.296H66.02V520.48ZM71.432 519.364H72.368V529.396H71.432V519.364ZM84.0671 519.076H85.0751V525.532H84.0671V519.076ZM84.7871 521.896H86.6591V522.724H84.7871V521.896ZM81.6071 525.76C82.3351 525.76 82.9631 525.844 83.4911 526.012C84.0271 526.172 84.4391 526.408 84.7271 526.72C85.0231 527.024 85.1711 527.396 85.1711 527.836C85.1711 528.268 85.0231 528.64 84.7271 528.952C84.4391 529.264 84.0271 529.5 83.4911 529.66C82.9631 529.828 82.3351 529.912 81.6071 529.912C80.8711 529.912 80.2351 529.828 79.6991 529.66C79.1631 529.5 78.7511 529.264 78.4631 528.952C78.1751 528.64 78.0311 528.268 78.0311 527.836C78.0311 527.396 78.1751 527.024 78.4631 526.72C78.7511 526.408 79.1631 526.172 79.6991 526.012C80.2351 525.844 80.8711 525.76 81.6071 525.76ZM81.6071 526.564C81.0711 526.564 80.6071 526.616 80.2151 526.72C79.8311 526.816 79.5311 526.96 79.3151 527.152C79.1071 527.336 79.0031 527.564 79.0031 527.836C79.0031 528.1 79.1071 528.328 79.3151 528.52C79.5311 528.712 79.8311 528.86 80.2151 528.964C80.6071 529.06 81.0711 529.108 81.6071 529.108C82.1351 529.108 82.5951 529.06 82.9871 528.964C83.3791 528.86 83.6791 528.712 83.8871 528.52C84.0951 528.328 84.1991 528.1 84.1991 527.836C84.1991 527.564 84.0951 527.336 83.8871 527.152C83.6791 526.96 83.3791 526.816 82.9871 526.72C82.5951 526.616 82.1351 526.564 81.6071 526.564ZM77.1191 523.852H77.9591C78.7191 523.852 79.3791 523.844 79.9391 523.828C80.4991 523.812 81.0151 523.776 81.4871 523.72C81.9591 523.664 82.4391 523.588 82.9271 523.492L83.0351 524.308C82.5391 524.404 82.0471 524.48 81.5591 524.536C81.0791 524.584 80.5511 524.62 79.9751 524.644C79.3991 524.66 78.7271 524.668 77.9591 524.668H77.1191V523.852ZM77.1191 519.904H81.9071V520.72H78.1031V524.392H77.1191V519.904ZM97.9987 519.076H98.9947V529.924H97.9987V519.076ZM98.7307 523.48H100.723V524.308H98.7307V523.48ZM95.2267 520.24H96.1987C96.1987 521.272 96.0307 522.26 95.6947 523.204C95.3587 524.14 94.8307 525.008 94.1107 525.808C93.3907 526.6 92.4427 527.288 91.2667 527.872L90.7147 527.104C91.7227 526.6 92.5587 526.012 93.2227 525.34C93.8947 524.66 94.3947 523.908 94.7227 523.084C95.0587 522.252 95.2267 521.356 95.2267 520.396V520.24ZM91.2187 520.24H95.7307V521.068H91.2187V520.24ZM106.326 519.808H107.37C107.37 520.728 107.162 521.556 106.746 522.292C106.33 523.028 105.738 523.66 104.97 524.188C104.21 524.716 103.302 525.124 102.246 525.412L101.862 524.62C102.79 524.364 103.586 524.024 104.25 523.6C104.922 523.168 105.434 522.672 105.786 522.112C106.146 521.544 106.326 520.924 106.326 520.252V519.808ZM102.414 519.808H106.926V520.624H102.414V519.808ZM103.374 526.036H110.622V529.912H109.626V526.84H103.374V526.036ZM109.626 519.088H110.622V525.556H109.626V519.088ZM106.926 521.02H109.83V521.824H106.926V521.02ZM106.806 523.312H109.746V524.128H106.806V523.312Z" fill="black"/>
<rect x="65.5" y="535.5" width="290" height="39" rx="7.5" fill="#FBFCFB"/>
<rect x="65.5" y="535.5" width="290" height="39" rx="7.5" stroke="#2383BD"/>
<path d="M288.695 548.562V560H287.25V550.367L284.336 551.43V550.125L288.469 548.562H288.695ZM294.773 554.586L293.617 554.289L294.188 548.625H300.023V549.961H295.414L295.07 553.055C295.279 552.935 295.542 552.823 295.859 552.719C296.182 552.615 296.552 552.562 296.969 552.562C297.495 552.562 297.966 552.654 298.383 552.836C298.799 553.013 299.154 553.268 299.445 553.602C299.742 553.935 299.969 554.336 300.125 554.805C300.281 555.273 300.359 555.797 300.359 556.375C300.359 556.922 300.284 557.424 300.133 557.883C299.987 558.341 299.766 558.742 299.469 559.086C299.172 559.424 298.797 559.688 298.344 559.875C297.896 560.062 297.367 560.156 296.758 560.156C296.299 560.156 295.865 560.094 295.453 559.969C295.047 559.839 294.682 559.643 294.359 559.383C294.042 559.117 293.781 558.789 293.578 558.398C293.38 558.003 293.255 557.539 293.203 557.008H294.578C294.641 557.435 294.766 557.794 294.953 558.086C295.141 558.378 295.385 558.599 295.688 558.75C295.995 558.896 296.352 558.969 296.758 558.969C297.102 558.969 297.406 558.909 297.672 558.789C297.938 558.669 298.161 558.497 298.344 558.273C298.526 558.049 298.664 557.779 298.758 557.461C298.857 557.143 298.906 556.786 298.906 556.391C298.906 556.031 298.857 555.698 298.758 555.391C298.659 555.083 298.51 554.815 298.312 554.586C298.12 554.357 297.883 554.18 297.602 554.055C297.32 553.924 296.997 553.859 296.633 553.859C296.148 553.859 295.781 553.924 295.531 554.055C295.286 554.185 295.034 554.362 294.773 554.586ZM303.414 558.281V559.445C303.414 559.919 303.294 560.419 303.055 560.945C302.815 561.477 302.479 561.919 302.047 562.273L301.227 561.703C301.393 561.474 301.534 561.24 301.648 561C301.763 560.766 301.849 560.521 301.906 560.266C301.969 560.016 302 559.75 302 559.469V558.281H303.414ZM310.648 548.609H310.773V549.836H310.648C309.883 549.836 309.242 549.961 308.727 550.211C308.211 550.456 307.802 550.786 307.5 551.203C307.198 551.615 306.979 552.078 306.844 552.594C306.714 553.109 306.648 553.633 306.648 554.164V555.836C306.648 556.341 306.708 556.789 306.828 557.18C306.948 557.565 307.112 557.891 307.32 558.156C307.529 558.422 307.763 558.622 308.023 558.758C308.289 558.893 308.565 558.961 308.852 558.961C309.185 558.961 309.482 558.898 309.742 558.773C310.003 558.643 310.221 558.464 310.398 558.234C310.581 558 310.719 557.724 310.812 557.406C310.906 557.089 310.953 556.74 310.953 556.359C310.953 556.021 310.911 555.695 310.828 555.383C310.745 555.065 310.617 554.784 310.445 554.539C310.273 554.289 310.057 554.094 309.797 553.953C309.542 553.807 309.237 553.734 308.883 553.734C308.482 553.734 308.107 553.833 307.758 554.031C307.414 554.224 307.13 554.479 306.906 554.797C306.688 555.109 306.562 555.451 306.531 555.82L305.766 555.812C305.839 555.229 305.974 554.732 306.172 554.32C306.375 553.904 306.625 553.565 306.922 553.305C307.224 553.039 307.56 552.846 307.93 552.727C308.305 552.602 308.701 552.539 309.117 552.539C309.685 552.539 310.174 552.646 310.586 552.859C310.997 553.073 311.336 553.359 311.602 553.719C311.867 554.073 312.062 554.474 312.188 554.922C312.318 555.365 312.383 555.82 312.383 556.289C312.383 556.826 312.307 557.328 312.156 557.797C312.005 558.266 311.779 558.677 311.477 559.031C311.18 559.385 310.812 559.661 310.375 559.859C309.938 560.057 309.43 560.156 308.852 560.156C308.237 560.156 307.701 560.031 307.242 559.781C306.784 559.526 306.404 559.188 306.102 558.766C305.799 558.344 305.573 557.875 305.422 557.359C305.271 556.844 305.195 556.32 305.195 555.789V555.109C305.195 554.307 305.276 553.521 305.438 552.75C305.599 551.979 305.878 551.281 306.273 550.656C306.674 550.031 307.229 549.534 307.938 549.164C308.646 548.794 309.549 548.609 310.648 548.609ZM321.242 553.406V555.141C321.242 556.073 321.159 556.859 320.992 557.5C320.826 558.141 320.586 558.656 320.273 559.047C319.961 559.438 319.583 559.721 319.141 559.898C318.703 560.07 318.208 560.156 317.656 560.156C317.219 560.156 316.815 560.102 316.445 559.992C316.076 559.883 315.742 559.708 315.445 559.469C315.154 559.224 314.904 558.906 314.695 558.516C314.487 558.125 314.328 557.651 314.219 557.094C314.109 556.536 314.055 555.885 314.055 555.141V553.406C314.055 552.474 314.138 551.693 314.305 551.062C314.477 550.432 314.719 549.927 315.031 549.547C315.344 549.161 315.719 548.885 316.156 548.719C316.599 548.552 317.094 548.469 317.641 548.469C318.083 548.469 318.49 548.523 318.859 548.633C319.234 548.737 319.568 548.906 319.859 549.141C320.151 549.37 320.398 549.677 320.602 550.062C320.81 550.443 320.969 550.909 321.078 551.461C321.188 552.013 321.242 552.661 321.242 553.406ZM319.789 555.375V553.164C319.789 552.654 319.758 552.206 319.695 551.82C319.638 551.43 319.552 551.096 319.438 550.82C319.323 550.544 319.177 550.32 319 550.148C318.828 549.977 318.628 549.852 318.398 549.773C318.174 549.69 317.922 549.648 317.641 549.648C317.297 549.648 316.992 549.714 316.727 549.844C316.461 549.969 316.237 550.169 316.055 550.445C315.878 550.721 315.742 551.083 315.648 551.531C315.555 551.979 315.508 552.523 315.508 553.164V555.375C315.508 555.885 315.536 556.336 315.594 556.727C315.656 557.117 315.747 557.456 315.867 557.742C315.987 558.023 316.133 558.255 316.305 558.438C316.477 558.62 316.674 558.755 316.898 558.844C317.128 558.927 317.38 558.969 317.656 558.969C318.01 558.969 318.32 558.901 318.586 558.766C318.852 558.63 319.073 558.419 319.25 558.133C319.432 557.841 319.568 557.469 319.656 557.016C319.745 556.557 319.789 556.01 319.789 555.375ZM330.242 553.406V555.141C330.242 556.073 330.159 556.859 329.992 557.5C329.826 558.141 329.586 558.656 329.273 559.047C328.961 559.438 328.583 559.721 328.141 559.898C327.703 560.07 327.208 560.156 326.656 560.156C326.219 560.156 325.815 560.102 325.445 559.992C325.076 559.883 324.742 559.708 324.445 559.469C324.154 559.224 323.904 558.906 323.695 558.516C323.487 558.125 323.328 557.651 323.219 557.094C323.109 556.536 323.055 555.885 323.055 555.141V553.406C323.055 552.474 323.138 551.693 323.305 551.062C323.477 550.432 323.719 549.927 324.031 549.547C324.344 549.161 324.719 548.885 325.156 548.719C325.599 548.552 326.094 548.469 326.641 548.469C327.083 548.469 327.49 548.523 327.859 548.633C328.234 548.737 328.568 548.906 328.859 549.141C329.151 549.37 329.398 549.677 329.602 550.062C329.81 550.443 329.969 550.909 330.078 551.461C330.188 552.013 330.242 552.661 330.242 553.406ZM328.789 555.375V553.164C328.789 552.654 328.758 552.206 328.695 551.82C328.638 551.43 328.552 551.096 328.438 550.82C328.323 550.544 328.177 550.32 328 550.148C327.828 549.977 327.628 549.852 327.398 549.773C327.174 549.69 326.922 549.648 326.641 549.648C326.297 549.648 325.992 549.714 325.727 549.844C325.461 549.969 325.237 550.169 325.055 550.445C324.878 550.721 324.742 551.083 324.648 551.531C324.555 551.979 324.508 552.523 324.508 553.164V555.375C324.508 555.885 324.536 556.336 324.594 556.727C324.656 557.117 324.747 557.456 324.867 557.742C324.987 558.023 325.133 558.255 325.305 558.438C325.477 558.62 325.674 558.755 325.898 558.844C326.128 558.927 326.38 558.969 326.656 558.969C327.01 558.969 327.32 558.901 327.586 558.766C327.852 558.63 328.073 558.419 328.25 558.133C328.432 557.841 328.568 557.469 328.656 557.016C328.745 556.557 328.789 556.01 328.789 555.375ZM336.052 554.064H337.38V557.28H336.052V554.064ZM342.468 546.784H343.796V557.776H342.468V546.784ZM333.924 559.84H344.148V560.928H333.924V559.84ZM333.924 556.704H335.252V560.128H333.924V556.704ZM332.052 554.56L331.876 553.456C332.772 553.456 333.743 553.451 334.788 553.44C335.844 553.419 336.922 553.381 338.02 553.328C339.119 553.264 340.18 553.168 341.204 553.04L341.3 554C340.266 554.171 339.199 554.299 338.1 554.384C337.012 554.459 335.951 554.507 334.916 554.528C333.882 554.549 332.927 554.56 332.052 554.56ZM339.524 555.328H342.82V556.288H339.524V555.328ZM336.58 547.36C337.295 547.36 337.919 547.467 338.452 547.68C338.986 547.883 339.396 548.176 339.684 548.56C339.983 548.933 340.132 549.376 340.132 549.888C340.132 550.389 339.983 550.832 339.684 551.216C339.396 551.6 338.986 551.893 338.452 552.096C337.919 552.299 337.295 552.4 336.58 552.4C335.876 552.4 335.252 552.299 334.708 552.096C334.175 551.893 333.759 551.6 333.46 551.216C333.172 550.832 333.028 550.389 333.028 549.888C333.028 549.376 333.172 548.933 333.46 548.56C333.759 548.176 334.175 547.883 334.708 547.68C335.252 547.467 335.876 547.36 336.58 547.36ZM336.58 548.352C335.898 548.352 335.343 548.491 334.916 548.768C334.49 549.045 334.276 549.419 334.276 549.888C334.276 550.347 334.49 550.715 334.916 550.992C335.343 551.269 335.898 551.408 336.58 551.408C337.252 551.408 337.802 551.269 338.228 550.992C338.655 550.715 338.868 550.347 338.868 549.888C338.868 549.568 338.772 549.296 338.58 549.072C338.388 548.848 338.122 548.672 337.78 548.544C337.439 548.416 337.039 548.352 336.58 548.352Z" fill="#404040"/>
<path d="M39.004 632.848H39.988V634.72H39.004V632.848ZM34.6 632.32H44.404V633.124H34.6V632.32ZM35.512 627.424H43.468V628.24H35.512V627.424ZM35.548 630.496H43.432V631.312H35.548V630.496ZM37.144 627.784H38.14V631.036H37.144V627.784ZM40.84 627.784H41.836V631.036H40.84V627.784ZM35.8 634.396H43.204V637.792H35.8V634.396ZM42.232 635.188H36.772V636.976H42.232V635.188ZM46.8991 627.532H54.1831V631.216H46.8991V627.532ZM53.2111 628.324H47.8711V630.412H53.2111V628.324ZM45.6391 632.572H55.4431V633.388H45.6391V632.572ZM50.0431 631.012H51.0391V632.884H50.0431V631.012ZM46.7311 634.504H54.2311V637.936H53.2351V635.308H46.7311V634.504ZM67.8867 627.076H68.8467V637.936H67.8867V627.076ZM66.1347 631.444H68.2227V632.26H66.1347V631.444ZM63.3387 628.48H64.2867C64.2867 629.176 64.2187 629.856 64.0827 630.52C63.9467 631.184 63.7227 631.824 63.4107 632.44C63.1067 633.048 62.6947 633.62 62.1747 634.156C61.6547 634.684 61.0067 635.168 60.2307 635.608L59.6547 634.9C60.5667 634.388 61.2907 633.808 61.8267 633.16C62.3627 632.512 62.7467 631.812 62.9787 631.06C63.2187 630.3 63.3387 629.5 63.3387 628.66V628.48ZM60.0747 628.48H63.6627V629.296H60.0747V628.48ZM65.4867 627.364H66.4227V637.396H65.4867V627.364ZM75.0858 627.46H75.9618V628.072C75.9618 628.488 75.8818 628.88 75.7218 629.248C75.5618 629.608 75.3418 629.94 75.0618 630.244C74.7898 630.548 74.4698 630.82 74.1018 631.06C73.7338 631.3 73.3338 631.5 72.9018 631.66C72.4778 631.82 72.0418 631.936 71.5938 632.008L71.1858 631.204C71.5858 631.148 71.9738 631.052 72.3498 630.916C72.7338 630.78 73.0898 630.616 73.4178 630.424C73.7458 630.224 74.0338 630 74.2818 629.752C74.5378 629.504 74.7338 629.24 74.8698 628.96C75.0138 628.672 75.0858 628.376 75.0858 628.072V627.46ZM75.2538 627.46H76.1178V628.072C76.1178 628.376 76.1898 628.668 76.3338 628.948C76.4778 629.228 76.6738 629.492 76.9218 629.74C77.1778 629.988 77.4698 630.212 77.7978 630.412C78.1258 630.612 78.4778 630.78 78.8538 630.916C79.2378 631.052 79.6258 631.148 80.0178 631.204L79.6218 632.008C79.1738 631.936 78.7378 631.82 78.3138 631.66C77.8898 631.492 77.4898 631.288 77.1138 631.048C76.7458 630.808 76.4218 630.536 76.1418 630.232C75.8698 629.928 75.6538 629.596 75.4938 629.236C75.3338 628.868 75.2538 628.48 75.2538 628.072V627.46ZM75.0858 633.808H76.0698V637.936H75.0858V633.808ZM70.6938 633.184H80.4978V634.012H70.6938V633.184Z" fill="black"/>
<rect x="48.5" y="643.5" width="97" height="29" rx="7.5" stroke="#2383BD"/>
<path d="M129.427 657.694H125.103V661.367H123.662V657.694H119.338V656.469H123.662V652.796H125.103V656.469H129.427V657.694Z" fill="#0C0C0C"/>
<path d="M98.5624 651.655V663.062H96.4921V654.069L93.7499 654.976V653.304L98.3281 651.655H98.5624Z" fill="black"/>
<line x1="62.5525" y1="656.694" x2="73.8169" y2="656.694" stroke="#404040" stroke-width="2"/>
</g>
<defs>
<filter id="filter0_d_493_6525" x="212" y="203" width="190" height="54" filterUnits="userSpaceOnUse" color-interpolation-filters="sRGB">
<feFlood flood-opacity="0" result="BackgroundImageFix"/>
<feColorMatrix in="SourceAlpha" type="matrix" values="0 0 0 0 0 0 0 0 0 0 0 0 0 0 0 0 0 0 127 0" result="hardAlpha"/>
<feOffset dy="4"/>
<feGaussianBlur stdDeviation="2"/>
<feComposite in2="hardAlpha" operator="out"/>
<feColorMatrix type="matrix" values="0 0 0 0 0 0 0 0 0 0 0 0 0 0 0 0 0 0 0.25 0"/>
<feBlend mode="normal" in2="BackgroundImageFix" result="effect1_dropShadow_493_6525"/>
<feBlend mode="normal" in="SourceGraphic" in2="effect1_dropShadow_493_6525" result="shape"/>
</filter>
<filter id="filter1_d_493_6525" x="10" y="201" width="184" height="117" filterUnits="userSpaceOnUse" color-interpolation-filters="sRGB">
<feFlood flood-opacity="0" result="BackgroundImageFix"/>
<feColorMatrix in="SourceAlpha" type="matrix" values="0 0 0 0 0 0 0 0 0 0 0 0 0 0 0 0 0 0 127 0" result="hardAlpha"/>
<feOffset dy="4"/>
<feGaussianBlur stdDeviation="2"/>
<feComposite in2="hardAlpha" operator="out"/>
<feColorMatrix type="matrix" values="0 0 0 0 0 0 0 0 0 0 0 0 0 0 0 0 0 0 0.25 0"/>
<feBlend mode="normal" in2="BackgroundImageFix" result="effect1_dropShadow_493_6525"/>
<feBlend mode="normal" in="SourceGraphic" in2="effect1_dropShadow_493_6525" result="shape"/>
</filter>
<clipPath id="clip0_493_6525">
<rect width="412" height="917" fill="white"/>
</clipPath>
</defs>
</svg>
