<svg width="412" height="917" viewBox="0 0 412 917" fill="none" xmlns="http://www.w3.org/2000/svg">
<rect width="412" height="917" fill="#F9FAFC"/>
<rect width="412" height="32" fill="white"/>
<path d="M27.416 12.0469V12.7578L23.2939 22H21.9609L26.0762 13.0859H20.6895V12.0469H27.416ZM28.9404 21.3301C28.9404 21.1159 29.0065 20.9359 29.1387 20.79C29.2754 20.6396 29.4714 20.5645 29.7266 20.5645C29.9818 20.5645 30.1755 20.6396 30.3076 20.79C30.4443 20.9359 30.5127 21.1159 30.5127 21.3301C30.5127 21.5397 30.4443 21.7174 30.3076 21.8633C30.1755 22.0091 29.9818 22.082 29.7266 22.082C29.4714 22.082 29.2754 22.0091 29.1387 21.8633C29.0065 21.7174 28.9404 21.5397 28.9404 21.3301ZM28.9473 15.2939C28.9473 15.0798 29.0133 14.8997 29.1455 14.7539C29.2822 14.6035 29.4782 14.5283 29.7334 14.5283C29.9886 14.5283 30.1823 14.6035 30.3145 14.7539C30.4512 14.8997 30.5195 15.0798 30.5195 15.2939C30.5195 15.5036 30.4512 15.6813 30.3145 15.8271C30.1823 15.973 29.9886 16.0459 29.7334 16.0459C29.4782 16.0459 29.2822 15.973 29.1455 15.8271C29.0133 15.6813 28.9473 15.5036 28.9473 15.2939ZM34.0947 16.4014H34.9971C35.4391 16.4014 35.8037 16.3285 36.0908 16.1826C36.3825 16.0322 36.599 15.8294 36.7402 15.5742C36.8861 15.3145 36.959 15.0228 36.959 14.6992C36.959 14.3164 36.8952 13.9951 36.7676 13.7354C36.64 13.4756 36.4486 13.2796 36.1934 13.1475C35.9382 13.0153 35.6146 12.9492 35.2227 12.9492C34.8672 12.9492 34.5527 13.0199 34.2793 13.1611C34.0104 13.2979 33.7985 13.4938 33.6436 13.749C33.4932 14.0042 33.418 14.305 33.418 14.6514H32.1533C32.1533 14.1455 32.2809 13.6852 32.5361 13.2705C32.7913 12.8558 33.1491 12.5254 33.6094 12.2793C34.0742 12.0332 34.612 11.9102 35.2227 11.9102C35.8242 11.9102 36.3506 12.0173 36.8018 12.2314C37.2529 12.4411 37.6038 12.7555 37.8545 13.1748C38.1051 13.5895 38.2305 14.1068 38.2305 14.7266C38.2305 14.9772 38.1712 15.2461 38.0527 15.5332C37.9388 15.8158 37.7588 16.0801 37.5127 16.3262C37.2712 16.5723 36.9567 16.7751 36.5693 16.9346C36.182 17.0895 35.7171 17.167 35.1748 17.167H34.0947V16.4014ZM34.0947 17.4404V16.6816H35.1748C35.8083 16.6816 36.3324 16.7568 36.7471 16.9072C37.1618 17.0576 37.4876 17.2581 37.7246 17.5088C37.9661 17.7594 38.1348 18.0352 38.2305 18.3359C38.3307 18.6322 38.3809 18.9284 38.3809 19.2246C38.3809 19.6895 38.3011 20.1019 38.1416 20.4619C37.9867 20.8219 37.7656 21.1273 37.4785 21.3779C37.196 21.6286 36.8633 21.8177 36.4805 21.9453C36.0977 22.0729 35.6807 22.1367 35.2295 22.1367C34.7965 22.1367 34.3887 22.0752 34.0059 21.9521C33.6276 21.8291 33.2926 21.6514 33.001 21.4189C32.7093 21.182 32.4814 20.8926 32.3174 20.5508C32.1533 20.2044 32.0713 19.8102 32.0713 19.3682H33.3359C33.3359 19.7145 33.4111 20.0176 33.5615 20.2773C33.7165 20.5371 33.9352 20.7399 34.2178 20.8857C34.5049 21.027 34.8421 21.0977 35.2295 21.0977C35.6169 21.0977 35.9495 21.0316 36.2275 20.8994C36.5101 20.7627 36.7266 20.5576 36.877 20.2842C37.0319 20.0107 37.1094 19.6667 37.1094 19.252C37.1094 18.8372 37.0228 18.4977 36.8496 18.2334C36.6764 17.9645 36.4303 17.7663 36.1113 17.6387C35.7969 17.5065 35.4255 17.4404 34.9971 17.4404H34.0947ZM46.3721 16.2305V17.748C46.3721 18.5638 46.2992 19.252 46.1533 19.8125C46.0075 20.373 45.7979 20.8242 45.5244 21.166C45.251 21.5078 44.9206 21.7562 44.5332 21.9111C44.1504 22.0615 43.7174 22.1367 43.2344 22.1367C42.8516 22.1367 42.4984 22.0889 42.1748 21.9932C41.8512 21.8975 41.5596 21.7448 41.2998 21.5352C41.0446 21.321 40.8258 21.043 40.6436 20.7012C40.4613 20.3594 40.3223 19.9447 40.2266 19.457C40.1309 18.9694 40.083 18.3997 40.083 17.748V16.2305C40.083 15.4147 40.1559 14.7311 40.3018 14.1797C40.4521 13.6283 40.6641 13.1862 40.9375 12.8535C41.2109 12.5163 41.5391 12.2747 41.9219 12.1289C42.3092 11.9831 42.7422 11.9102 43.2207 11.9102C43.6081 11.9102 43.9635 11.958 44.2871 12.0537C44.6152 12.1449 44.9069 12.293 45.1621 12.498C45.4173 12.6986 45.6338 12.9674 45.8115 13.3047C45.9938 13.6374 46.1328 14.0452 46.2285 14.5283C46.3242 15.0114 46.3721 15.5788 46.3721 16.2305ZM45.1006 17.9531V16.0186C45.1006 15.5719 45.0732 15.18 45.0186 14.8428C44.9684 14.501 44.8932 14.2093 44.793 13.9678C44.6927 13.7262 44.5651 13.5303 44.4102 13.3799C44.2598 13.2295 44.0843 13.1201 43.8838 13.0518C43.6878 12.9788 43.4668 12.9424 43.2207 12.9424C42.9199 12.9424 42.6533 12.9993 42.4209 13.1133C42.1885 13.2227 41.9925 13.3981 41.833 13.6396C41.6781 13.8812 41.5596 14.1979 41.4775 14.5898C41.3955 14.9818 41.3545 15.458 41.3545 16.0186V17.9531C41.3545 18.3997 41.3796 18.7939 41.4297 19.1357C41.4844 19.4775 41.5641 19.7738 41.6689 20.0244C41.7738 20.2705 41.9014 20.4733 42.0518 20.6328C42.2021 20.7923 42.3753 20.9108 42.5713 20.9883C42.7718 21.0612 42.9928 21.0977 43.2344 21.0977C43.5443 21.0977 43.8154 21.0384 44.0479 20.9199C44.2803 20.8014 44.474 20.6169 44.6289 20.3662C44.7884 20.111 44.9069 19.7852 44.9844 19.3887C45.0618 18.9876 45.1006 18.5091 45.1006 17.9531ZM55.4844 12.9287L52.1895 22H50.8428L54.6367 12.0469H55.5049L55.4844 12.9287ZM58.2461 22L54.9443 12.9287L54.9238 12.0469H55.792L59.5996 22H58.2461ZM58.0752 18.3154V19.3955H52.4834V18.3154H58.0752ZM61.3496 12.0469H62.6279L65.8887 20.1611L69.1426 12.0469H70.4277L66.3809 22H65.3828L61.3496 12.0469ZM60.9326 12.0469H62.0605L62.2451 18.1172V22H60.9326V12.0469ZM69.71 12.0469H70.8379V22H69.5254V18.1172L69.71 12.0469Z" fill="#0C0C0C"/>
<path d="M322.792 12.9478L324.375 14.5311C328.309 10.5966 334.69 10.5966 338.625 14.5311L340.208 12.9478C335.403 8.1424 327.605 8.1424 322.792 12.9478ZM329.125 19.2811L331.5 21.6561L333.875 19.2811C332.569 17.967 330.439 17.967 329.125 19.2811ZM325.958 16.1145L327.542 17.6978C329.727 15.5128 333.273 15.5128 335.458 17.6978L337.042 16.1145C333.986 13.0586 329.022 13.0586 325.958 16.1145Z" fill="#0C0C0C"/>
<path d="M362.75 9.33301H365.25V22.6663H362.75V9.33301ZM352.75 17.6663H355.25V22.6663H352.75V17.6663ZM357.75 13.4997H360.25V22.6663H357.75V13.4997Z" fill="#0C0C0C"/>
<path d="M391.362 9.55896L391.1 24.4576L382.823 24.3119L383.085 9.41322L385.568 9.45694L385.597 7.80153L388.908 7.85983L388.879 9.51524L391.362 9.55896ZM389.678 11.1852L384.711 11.0978L384.653 14.4086L389.619 14.496L389.678 11.1852Z" fill="#0C0C0C"/>
<rect width="412" height="35" transform="translate(0 32)" fill="white"/>
<path opacity="0.9" d="M150.995 38.896H165.059V41.416H150.995V38.896ZM148.523 46.888H168.659V49.408H148.523V46.888ZM163.139 38.896H166.283V40.672C166.283 41.616 166.259 42.632 166.211 43.72C166.163 44.808 165.971 46.072 165.635 47.512L162.443 47.488C162.795 46.032 162.995 44.768 163.043 43.696C163.107 42.624 163.139 41.616 163.139 40.672V38.896ZM150.875 51.736H166.187V59.896H150.875V51.736ZM163.067 54.232H154.019V57.376H163.067V54.232ZM175.737 39.256C176.729 39.256 177.601 39.488 178.353 39.952C179.121 40.4 179.721 41.032 180.153 41.848C180.601 42.664 180.825 43.608 180.825 44.68C180.825 45.736 180.601 46.68 180.153 47.512C179.721 48.328 179.121 48.968 178.353 49.432C177.601 49.88 176.729 50.104 175.737 50.104C174.761 50.104 173.889 49.88 173.121 49.432C172.353 48.968 171.753 48.328 171.321 47.512C170.889 46.68 170.673 45.736 170.673 44.68C170.673 43.608 170.889 42.664 171.321 41.848C171.753 41.032 172.353 40.4 173.121 39.952C173.889 39.488 174.761 39.256 175.737 39.256ZM175.737 41.92C175.305 41.92 174.921 42.032 174.585 42.256C174.249 42.48 173.993 42.792 173.817 43.192C173.641 43.592 173.553 44.088 173.553 44.68C173.553 45.256 173.641 45.752 173.817 46.168C173.993 46.584 174.249 46.904 174.585 47.128C174.921 47.336 175.305 47.44 175.737 47.44C176.169 47.44 176.553 47.336 176.889 47.128C177.225 46.904 177.481 46.584 177.657 46.168C177.849 45.752 177.945 45.256 177.945 44.68C177.945 44.088 177.849 43.592 177.657 43.192C177.481 42.792 177.225 42.48 176.889 42.256C176.553 42.032 176.169 41.92 175.737 41.92ZM186.489 37.912H189.537V51.16H186.489V37.912ZM183.849 43.288H187.377V45.856H183.849V43.288ZM181.833 38.296H184.809V51.088H181.833V38.296ZM174.249 52.168H189.537V60.136H186.345V54.712H174.249V52.168ZM214.795 46.288H218.707V48.928H214.795V46.288ZM212.395 37.864H215.611V60.088H212.395V37.864ZM198.883 40H202.051V53.824H198.883V40ZM198.883 52.024H200.779C202.363 52.024 204.011 51.96 205.723 51.832C207.435 51.704 209.187 51.464 210.979 51.112L211.315 53.704C209.459 54.088 207.651 54.352 205.891 54.496C204.131 54.624 202.427 54.688 200.779 54.688H198.883V52.024ZM222.785 44.824H238.313V47.344H222.785V44.824ZM220.289 49.888H240.425V52.456H220.289V49.888ZM228.665 51.4H231.833V60.136H228.665V51.4ZM222.785 38.896H225.977V46H222.785V38.896ZM257.679 37.888H260.871V60.112H257.679V37.888ZM251.127 40.192H254.271C254.271 41.888 254.103 43.512 253.767 45.064C253.447 46.6 252.903 48.048 252.135 49.408C251.383 50.768 250.343 52.032 249.015 53.2C247.703 54.352 246.063 55.408 244.095 56.368L242.415 53.848C244.559 52.808 246.263 51.664 247.527 50.416C248.807 49.152 249.727 47.728 250.287 46.144C250.847 44.544 251.127 42.752 251.127 40.768V40.192ZM243.615 40.192H252.615V42.736H243.615V40.192Z" fill="#0C0C0C"/>
<path d="M32.6312 54.7375L26.9062 49L32.6312 43.2625L30.8687 41.5L23.3687 49L30.8687 56.5L32.6312 54.7375Z" fill="#0C0C0C"/>
<path d="M100.695 120.392H116.055V126.896H100.695V120.392ZM112.935 122.744H103.815V124.52H112.935V122.744ZM99.3028 106.448H117.423V108.872H99.3028V106.448ZM108.399 109.4C110.799 109.4 112.639 109.672 113.919 110.216C115.199 110.744 115.839 111.528 115.839 112.568C115.839 113.624 115.199 114.424 113.919 114.968C112.639 115.496 110.799 115.76 108.399 115.76C106.031 115.76 104.199 115.496 102.903 114.968C101.607 114.424 100.959 113.624 100.959 112.568C100.959 111.528 101.607 110.744 102.903 110.216C104.199 109.672 106.031 109.4 108.399 109.4ZM108.399 111.56C107.039 111.56 106.031 111.64 105.375 111.8C104.719 111.96 104.391 112.216 104.391 112.568C104.391 112.936 104.719 113.2 105.375 113.36C106.031 113.52 107.039 113.6 108.399 113.6C109.791 113.6 110.807 113.52 111.447 113.36C112.103 113.2 112.431 112.936 112.431 112.568C112.431 112.216 112.103 111.96 111.447 111.8C110.807 111.64 109.791 111.56 108.399 111.56ZM106.815 104.744H109.983V108.176H106.815V104.744ZM98.3428 116.792H118.455V119.264H98.3428V116.792ZM106.815 114.992H109.983V118.088H106.815V114.992ZM122.173 105.488H138.757V107.888H122.173V105.488ZM122.341 110.696H138.565V113.096H122.341V110.696ZM125.005 106.424H128.197V112.232H125.005V106.424ZM132.733 106.424H135.925V112.232H132.733V106.424ZM120.421 114.224H140.533V116.72H120.421V114.224ZM122.725 117.944H138.085V123.488H125.917V125.552H122.749V121.352H134.941V120.224H122.725V117.944ZM122.749 124.664H138.685V126.992H122.749V124.664ZM157.931 104.864H161.099V127.16H157.931V104.864ZM154.451 112.88H158.579V115.448H154.451V112.88ZM143.267 119.408H145.091C146.307 119.408 147.443 119.392 148.499 119.36C149.571 119.328 150.619 119.272 151.643 119.192C152.667 119.096 153.715 118.96 154.787 118.784L155.075 121.376C153.971 121.552 152.891 121.688 151.835 121.784C150.779 121.88 149.699 121.944 148.595 121.976C147.507 122.008 146.339 122.024 145.091 122.024H143.267V119.408ZM143.243 106.76H153.251V115.136H146.435V120.176H143.267V112.616H150.107V109.304H143.243V106.76ZM172.857 106.184H175.617V107.792C175.617 108.752 175.481 109.688 175.209 110.6C174.953 111.496 174.569 112.344 174.057 113.144C173.545 113.944 172.913 114.672 172.161 115.328C171.425 115.968 170.577 116.52 169.617 116.984C168.657 117.448 167.601 117.792 166.449 118.016L165.081 115.352C166.073 115.176 166.977 114.912 167.793 114.56C168.625 114.192 169.353 113.752 169.977 113.24C170.601 112.728 171.129 112.176 171.561 111.584C171.993 110.976 172.313 110.352 172.521 109.712C172.745 109.056 172.857 108.416 172.857 107.792V106.184ZM173.481 106.184H176.265V107.792C176.265 108.432 176.369 109.08 176.577 109.736C176.801 110.392 177.121 111.024 177.537 111.632C177.969 112.224 178.497 112.768 179.121 113.264C179.745 113.76 180.465 114.192 181.281 114.56C182.097 114.912 183.017 115.176 184.041 115.352L182.673 118.016C181.521 117.792 180.465 117.448 179.505 116.984C178.545 116.52 177.689 115.968 176.937 115.328C176.201 114.688 175.569 113.968 175.041 113.168C174.529 112.368 174.137 111.512 173.865 110.6C173.609 109.688 173.481 108.752 173.481 107.792V106.184ZM164.601 121.808H184.737V124.424H164.601V121.808ZM196.747 118.952H199.987V127.112H196.747V118.952ZM204.427 118.952H207.667V127.112H204.427V118.952ZM192.211 117.272H212.323V119.84H192.211V117.272ZM202.219 105.656C203.803 105.656 205.195 105.856 206.395 106.256C207.611 106.656 208.555 107.232 209.227 107.984C209.899 108.736 210.235 109.616 210.235 110.624C210.235 111.632 209.899 112.512 209.227 113.264C208.555 114 207.611 114.576 206.395 114.992C205.195 115.392 203.803 115.592 202.219 115.592C200.635 115.592 199.235 115.392 198.019 114.992C196.819 114.576 195.875 114 195.187 113.264C194.515 112.512 194.179 111.632 194.179 110.624C194.179 109.616 194.515 108.736 195.187 107.984C195.875 107.232 196.819 106.656 198.019 106.256C199.235 105.856 200.635 105.656 202.219 105.656ZM202.219 108.176C201.243 108.176 200.395 108.272 199.675 108.464C198.971 108.656 198.427 108.936 198.043 109.304C197.659 109.656 197.467 110.096 197.467 110.624C197.467 111.152 197.659 111.6 198.043 111.968C198.427 112.32 198.971 112.592 199.675 112.784C200.395 112.96 201.243 113.048 202.219 113.048C203.195 113.048 204.035 112.96 204.739 112.784C205.443 112.592 205.987 112.32 206.371 111.968C206.771 111.6 206.971 111.152 206.971 110.624C206.971 110.096 206.771 109.656 206.371 109.304C205.987 108.936 205.443 108.656 204.739 108.464C204.035 108.272 203.195 108.176 202.219 108.176ZM219.449 106.064H222.089V108.032C222.089 109.52 221.857 110.92 221.393 112.232C220.945 113.544 220.257 114.688 219.329 115.664C218.401 116.64 217.209 117.376 215.753 117.872L214.073 115.304C215.353 114.904 216.385 114.328 217.169 113.576C217.953 112.824 218.529 111.968 218.897 111.008C219.265 110.048 219.449 109.056 219.449 108.032V106.064ZM220.097 106.064H222.689V107.888C222.689 108.864 222.857 109.808 223.193 110.72C223.529 111.616 224.065 112.416 224.801 113.12C225.537 113.808 226.489 114.344 227.657 114.728L226.001 117.224C224.641 116.744 223.521 116.048 222.641 115.136C221.777 114.224 221.137 113.152 220.721 111.92C220.305 110.672 220.097 109.328 220.097 107.888V106.064ZM229.673 104.912H232.889V117.92H229.673V104.912ZM225.353 118.496C227.705 118.496 229.561 118.88 230.921 119.648C232.281 120.4 232.961 121.448 232.961 122.792C232.961 124.168 232.281 125.232 230.921 125.984C229.561 126.752 227.705 127.136 225.353 127.136C223.001 127.136 221.145 126.752 219.785 125.984C218.425 125.232 217.745 124.168 217.745 122.792C217.745 121.448 218.425 120.4 219.785 119.648C221.145 118.88 223.001 118.496 225.353 118.496ZM225.353 120.968C224.393 120.968 223.585 121.032 222.929 121.16C222.273 121.288 221.769 121.496 221.417 121.784C221.081 122.056 220.913 122.392 220.913 122.792C220.913 123.208 221.081 123.56 221.417 123.848C221.769 124.12 222.273 124.328 222.929 124.472C223.585 124.6 224.393 124.664 225.353 124.664C226.313 124.664 227.121 124.6 227.777 124.472C228.433 124.328 228.929 124.12 229.265 123.848C229.601 123.56 229.769 123.208 229.769 122.792C229.769 122.392 229.601 122.056 229.265 121.784C228.929 121.496 228.433 121.288 227.777 121.16C227.121 121.032 226.313 120.968 225.353 120.968ZM225.617 108.944H230.153V111.536H225.617V108.944ZM236.343 115.616H256.455V118.136H236.343V115.616ZM244.791 113H247.959V116.312H244.791V113ZM246.351 119.192C248.767 119.192 250.655 119.544 252.015 120.248C253.375 120.936 254.055 121.912 254.055 123.176C254.055 124.456 253.375 125.432 252.015 126.104C250.655 126.792 248.767 127.136 246.351 127.136C243.951 127.136 242.063 126.792 240.687 126.104C239.327 125.432 238.647 124.456 238.647 123.176C238.647 121.912 239.327 120.936 240.687 120.248C242.063 119.544 243.951 119.192 246.351 119.192ZM246.351 121.592C245.359 121.592 244.527 121.648 243.855 121.76C243.199 121.872 242.703 122.048 242.367 122.288C242.031 122.512 241.863 122.808 241.863 123.176C241.863 123.528 242.031 123.824 242.367 124.064C242.703 124.288 243.199 124.464 243.855 124.592C244.527 124.704 245.359 124.76 246.351 124.76C247.359 124.76 248.191 124.704 248.847 124.592C249.503 124.464 249.999 124.288 250.335 124.064C250.671 123.824 250.839 123.528 250.839 123.176C250.839 122.808 250.671 122.512 250.335 122.288C249.999 122.048 249.503 121.872 248.847 121.76C248.191 121.648 247.359 121.592 246.351 121.592ZM238.911 105.536H242.055V107.408H250.743V105.536H253.911V113.96H238.911V105.536ZM242.055 109.784V111.464H250.743V109.784H242.055ZM269.173 108.104H274.837V110.648H269.173V108.104ZM269.173 112.544H274.933V115.088H269.173V112.544ZM273.829 104.912H277.045V117.92H273.829V104.912ZM259.333 106.496H269.845V116.72H259.333V106.496ZM266.725 109.016H262.477V114.224H266.725V109.016ZM269.509 118.496C271.861 118.496 273.717 118.88 275.077 119.648C276.437 120.4 277.117 121.448 277.117 122.792C277.117 124.168 276.437 125.232 275.077 125.984C273.717 126.752 271.861 127.136 269.509 127.136C267.157 127.136 265.301 126.752 263.941 125.984C262.581 125.232 261.901 124.168 261.901 122.792C261.901 121.448 262.581 120.4 263.941 119.648C265.301 118.88 267.157 118.496 269.509 118.496ZM269.509 120.944C268.549 120.944 267.741 121.008 267.085 121.136C266.429 121.264 265.925 121.472 265.573 121.76C265.237 122.032 265.069 122.384 265.069 122.816C265.069 123.232 265.237 123.584 265.573 123.872C265.925 124.144 266.429 124.352 267.085 124.496C267.741 124.624 268.549 124.688 269.509 124.688C270.469 124.688 271.277 124.624 271.933 124.496C272.589 124.352 273.085 124.144 273.421 123.872C273.757 123.584 273.925 123.232 273.925 122.816C273.925 122.384 273.757 122.032 273.421 121.76C273.085 121.472 272.589 121.264 271.933 121.136C271.277 121.008 270.469 120.944 269.509 120.944ZM292.547 110H296.747V112.592H292.547V110ZM295.907 104.912H299.123V117.752H295.907V104.912ZM284.291 118.64H299.123V126.896H284.291V118.64ZM295.979 121.136H287.435V124.376H295.979V121.136ZM285.659 106.952H288.251V108.368C288.251 109.76 288.027 111.088 287.579 112.352C287.131 113.616 286.443 114.728 285.515 115.688C284.603 116.632 283.427 117.336 281.987 117.8L280.403 115.28C281.315 114.976 282.099 114.584 282.755 114.104C283.427 113.608 283.971 113.048 284.387 112.424C284.819 111.8 285.139 111.144 285.347 110.456C285.555 109.768 285.659 109.072 285.659 108.368V106.952ZM286.331 106.952H288.875V108.344C288.875 109.208 289.051 110.072 289.403 110.936C289.755 111.784 290.299 112.552 291.035 113.24C291.787 113.928 292.747 114.472 293.915 114.872L292.355 117.368C290.979 116.904 289.843 116.216 288.947 115.304C288.067 114.392 287.411 113.336 286.979 112.136C286.547 110.936 286.331 109.672 286.331 108.344V106.952ZM281.267 106.016H293.219V108.56H281.267V106.016Z" fill="black"/>
<path d="M122.121 166.379V169.754H112.822V166.379H122.121ZM137.15 153.318V179H132.914V158.346L126.639 160.473V156.975L136.641 153.318H137.15ZM150.492 167.1L147.117 166.273L148.506 153.406H162.305V156.992H152.021L151.318 163.268C151.717 163.033 152.268 162.805 152.971 162.582C153.674 162.348 154.477 162.23 155.379 162.23C156.586 162.23 157.664 162.43 158.613 162.828C159.574 163.215 160.389 163.783 161.057 164.533C161.725 165.271 162.234 166.174 162.586 167.24C162.938 168.295 163.113 169.484 163.113 170.809C163.113 171.992 162.938 173.1 162.586 174.131C162.246 175.162 161.73 176.07 161.039 176.855C160.348 177.641 159.475 178.256 158.42 178.701C157.377 179.135 156.141 179.352 154.711 179.352C153.645 179.352 152.619 179.199 151.635 178.895C150.662 178.578 149.789 178.115 149.016 177.506C148.242 176.885 147.621 176.123 147.152 175.221C146.684 174.307 146.414 173.258 146.344 172.074H150.492C150.598 172.906 150.826 173.615 151.178 174.201C151.541 174.775 152.021 175.215 152.619 175.52C153.217 175.824 153.908 175.977 154.693 175.977C155.408 175.977 156.023 175.854 156.539 175.607C157.055 175.35 157.482 174.986 157.822 174.518C158.174 174.037 158.432 173.475 158.596 172.83C158.771 172.186 158.859 171.471 158.859 170.686C158.859 169.936 158.76 169.25 158.561 168.629C158.373 168.008 158.086 167.469 157.699 167.012C157.324 166.555 156.85 166.203 156.275 165.957C155.701 165.699 155.039 165.57 154.289 165.57C153.281 165.57 152.508 165.717 151.969 166.01C151.441 166.303 150.949 166.666 150.492 167.1ZM183.188 164.059V168.242C183.188 170.246 182.988 171.957 182.59 173.375C182.203 174.781 181.641 175.924 180.902 176.803C180.164 177.682 179.279 178.326 178.248 178.736C177.229 179.146 176.086 179.352 174.82 179.352C173.812 179.352 172.875 179.223 172.008 178.965C171.152 178.707 170.379 178.303 169.688 177.752C168.996 177.201 168.404 176.492 167.912 175.625C167.432 174.746 167.057 173.697 166.787 172.479C166.529 171.26 166.4 169.848 166.4 168.242V164.059C166.4 162.043 166.6 160.344 166.998 158.961C167.396 157.566 167.965 156.436 168.703 155.568C169.441 154.689 170.32 154.051 171.34 153.652C172.371 153.254 173.52 153.055 174.785 153.055C175.805 153.055 176.742 153.184 177.598 153.441C178.465 153.688 179.238 154.08 179.918 154.619C180.609 155.158 181.195 155.861 181.676 156.729C182.168 157.584 182.543 158.621 182.801 159.84C183.059 161.047 183.188 162.453 183.188 164.059ZM178.951 168.84V163.426C178.951 162.406 178.893 161.51 178.775 160.736C178.658 159.951 178.482 159.289 178.248 158.75C178.025 158.199 177.744 157.754 177.404 157.414C177.064 157.062 176.678 156.811 176.244 156.658C175.811 156.494 175.324 156.412 174.785 156.412C174.129 156.412 173.543 156.541 173.027 156.799C172.512 157.045 172.078 157.443 171.727 157.994C171.375 158.545 171.105 159.271 170.918 160.174C170.742 161.064 170.654 162.148 170.654 163.426V168.84C170.654 169.871 170.713 170.779 170.83 171.564C170.947 172.35 171.123 173.023 171.357 173.586C171.592 174.137 171.873 174.594 172.201 174.957C172.541 175.309 172.928 175.566 173.361 175.73C173.807 175.895 174.293 175.977 174.82 175.977C175.488 175.977 176.08 175.848 176.596 175.59C177.111 175.332 177.545 174.922 177.896 174.359C178.248 173.785 178.512 173.041 178.688 172.127C178.863 171.213 178.951 170.117 178.951 168.84ZM191.186 174.922L191.168 177.945C191.168 179.141 190.869 180.371 190.271 181.637C189.674 182.902 188.883 183.945 187.898 184.766L185.631 183.447C185.959 182.92 186.258 182.387 186.527 181.848C186.797 181.309 187.014 180.734 187.178 180.125C187.342 179.516 187.424 178.842 187.424 178.104V174.922H191.186ZM207.814 153.248H208.342V156.711H208.043C206.531 156.711 205.225 156.945 204.123 157.414C203.033 157.883 202.137 158.527 201.434 159.348C200.73 160.168 200.203 161.129 199.852 162.23C199.512 163.32 199.342 164.48 199.342 165.711V169.736C199.342 170.756 199.453 171.658 199.676 172.443C199.898 173.217 200.209 173.867 200.607 174.395C201.018 174.91 201.486 175.303 202.014 175.572C202.541 175.842 203.109 175.977 203.719 175.977C204.352 175.977 204.926 175.848 205.441 175.59C205.957 175.32 206.396 174.951 206.76 174.482C207.123 174.014 207.398 173.457 207.586 172.812C207.773 172.168 207.867 171.465 207.867 170.703C207.867 169.977 207.773 169.297 207.586 168.664C207.41 168.02 207.146 167.457 206.795 166.977C206.443 166.484 206.004 166.104 205.477 165.834C204.961 165.553 204.363 165.412 203.684 165.412C202.84 165.412 202.072 165.611 201.381 166.01C200.701 166.408 200.15 166.93 199.729 167.574C199.318 168.207 199.096 168.881 199.061 169.596L197.443 169.068C197.537 167.979 197.777 167 198.164 166.133C198.562 165.266 199.084 164.527 199.729 163.918C200.373 163.309 201.117 162.846 201.961 162.529C202.816 162.201 203.754 162.037 204.773 162.037C206.016 162.037 207.094 162.271 208.008 162.74C208.922 163.209 209.678 163.848 210.275 164.656C210.885 165.453 211.336 166.367 211.629 167.398C211.934 168.418 212.086 169.484 212.086 170.598C212.086 171.828 211.898 172.977 211.523 174.043C211.148 175.098 210.598 176.023 209.871 176.82C209.156 177.617 208.283 178.238 207.252 178.684C206.232 179.129 205.072 179.352 203.771 179.352C202.4 179.352 201.176 179.088 200.098 178.561C199.031 178.033 198.123 177.307 197.373 176.381C196.635 175.455 196.072 174.389 195.686 173.182C195.299 171.975 195.105 170.697 195.105 169.35V167.592C195.105 165.646 195.352 163.812 195.844 162.09C196.336 160.355 197.092 158.826 198.111 157.502C199.143 156.178 200.461 155.141 202.066 154.391C203.672 153.629 205.588 153.248 207.814 153.248ZM232.16 164.059V168.242C232.16 170.246 231.961 171.957 231.562 173.375C231.176 174.781 230.613 175.924 229.875 176.803C229.137 177.682 228.252 178.326 227.221 178.736C226.201 179.146 225.059 179.352 223.793 179.352C222.785 179.352 221.848 179.223 220.98 178.965C220.125 178.707 219.352 178.303 218.66 177.752C217.969 177.201 217.377 176.492 216.885 175.625C216.404 174.746 216.029 173.697 215.76 172.479C215.502 171.26 215.373 169.848 215.373 168.242V164.059C215.373 162.043 215.572 160.344 215.971 158.961C216.369 157.566 216.938 156.436 217.676 155.568C218.414 154.689 219.293 154.051 220.312 153.652C221.344 153.254 222.492 153.055 223.758 153.055C224.777 153.055 225.715 153.184 226.57 153.441C227.438 153.688 228.211 154.08 228.891 154.619C229.582 155.158 230.168 155.861 230.648 156.729C231.141 157.584 231.516 158.621 231.773 159.84C232.031 161.047 232.16 162.453 232.16 164.059ZM227.924 168.84V163.426C227.924 162.406 227.865 161.51 227.748 160.736C227.631 159.951 227.455 159.289 227.221 158.75C226.998 158.199 226.717 157.754 226.377 157.414C226.037 157.062 225.65 156.811 225.217 156.658C224.783 156.494 224.297 156.412 223.758 156.412C223.102 156.412 222.516 156.541 222 156.799C221.484 157.045 221.051 157.443 220.699 157.994C220.348 158.545 220.078 159.271 219.891 160.174C219.715 161.064 219.627 162.148 219.627 163.426V168.84C219.627 169.871 219.686 170.779 219.803 171.564C219.92 172.35 220.096 173.023 220.33 173.586C220.564 174.137 220.846 174.594 221.174 174.957C221.514 175.309 221.9 175.566 222.334 175.73C222.779 175.895 223.266 175.977 223.793 175.977C224.461 175.977 225.053 175.848 225.568 175.59C226.084 175.332 226.518 174.922 226.869 174.359C227.221 173.785 227.484 173.041 227.66 172.127C227.836 171.213 227.924 170.117 227.924 168.84ZM252.621 164.059V168.242C252.621 170.246 252.422 171.957 252.023 173.375C251.637 174.781 251.074 175.924 250.336 176.803C249.598 177.682 248.713 178.326 247.682 178.736C246.662 179.146 245.52 179.352 244.254 179.352C243.246 179.352 242.309 179.223 241.441 178.965C240.586 178.707 239.812 178.303 239.121 177.752C238.43 177.201 237.838 176.492 237.346 175.625C236.865 174.746 236.49 173.697 236.221 172.479C235.963 171.26 235.834 169.848 235.834 168.242V164.059C235.834 162.043 236.033 160.344 236.432 158.961C236.83 157.566 237.398 156.436 238.137 155.568C238.875 154.689 239.754 154.051 240.773 153.652C241.805 153.254 242.953 153.055 244.219 153.055C245.238 153.055 246.176 153.184 247.031 153.441C247.898 153.688 248.672 154.08 249.352 154.619C250.043 155.158 250.629 155.861 251.109 156.729C251.602 157.584 251.977 158.621 252.234 159.84C252.492 161.047 252.621 162.453 252.621 164.059ZM248.385 168.84V163.426C248.385 162.406 248.326 161.51 248.209 160.736C248.092 159.951 247.916 159.289 247.682 158.75C247.459 158.199 247.178 157.754 246.838 157.414C246.498 157.062 246.111 156.811 245.678 156.658C245.244 156.494 244.758 156.412 244.219 156.412C243.562 156.412 242.977 156.541 242.461 156.799C241.945 157.045 241.512 157.443 241.16 157.994C240.809 158.545 240.539 159.271 240.352 160.174C240.176 161.064 240.088 162.148 240.088 163.426V168.84C240.088 169.871 240.146 170.779 240.264 171.564C240.381 172.35 240.557 173.023 240.791 173.586C241.025 174.137 241.307 174.594 241.635 174.957C241.975 175.309 242.361 175.566 242.795 175.73C243.24 175.895 243.727 175.977 244.254 175.977C244.922 175.977 245.514 175.848 246.029 175.59C246.545 175.332 246.979 174.922 247.33 174.359C247.682 173.785 247.945 173.041 248.121 172.127C248.297 171.213 248.385 170.117 248.385 168.84ZM265.483 165.644H268.471V172.88H265.483V165.644ZM279.919 149.264H282.907V173.996H279.919V149.264ZM260.695 178.64H283.699V181.088H260.695V178.64ZM260.695 171.584H263.683V179.288H260.695V171.584ZM256.483 166.76L256.087 164.276C258.103 164.276 260.287 164.264 262.639 164.24C265.015 164.192 267.439 164.108 269.911 163.988C272.383 163.844 274.771 163.628 277.075 163.34L277.291 165.5C274.963 165.884 272.563 166.172 270.091 166.364C267.643 166.532 265.255 166.64 262.927 166.688C260.599 166.736 258.451 166.76 256.483 166.76ZM273.295 168.488H280.711V170.648H273.295V168.488ZM266.671 150.56C268.279 150.56 269.683 150.8 270.883 151.28C272.083 151.736 273.007 152.396 273.655 153.26C274.327 154.1 274.663 155.096 274.663 156.248C274.663 157.376 274.327 158.372 273.655 159.236C273.007 160.1 272.083 160.76 270.883 161.216C269.683 161.672 268.279 161.9 266.671 161.9C265.087 161.9 263.683 161.672 262.459 161.216C261.259 160.76 260.323 160.1 259.651 159.236C259.003 158.372 258.679 157.376 258.679 156.248C258.679 155.096 259.003 154.1 259.651 153.26C260.323 152.396 261.259 151.736 262.459 151.28C263.683 150.8 265.087 150.56 266.671 150.56ZM266.671 152.792C265.135 152.792 263.887 153.104 262.927 153.728C261.967 154.352 261.487 155.192 261.487 156.248C261.487 157.28 261.967 158.108 262.927 158.732C263.887 159.356 265.135 159.668 266.671 159.668C268.183 159.668 269.419 159.356 270.379 158.732C271.339 158.108 271.819 157.28 271.819 156.248C271.819 155.528 271.603 154.916 271.171 154.412C270.739 153.908 270.139 153.512 269.371 153.224C268.603 152.936 267.703 152.792 266.671 152.792Z" fill="black"/>
<line x1="206.5" y1="194" x2="206.5" y2="774" stroke="#8C8C8C"/>
<g filter="url(#filter0_d_481_6628)">
<rect x="216" y="203" width="182" height="46" rx="16" fill="white"/>
</g>
<path d="M228 229.333C228 230.25 228.675 231 229.5 231H241.5C242.325 231 243 230.25 243 229.333V226.833H228V229.333ZM229.5 228.5H241.5V229.333H229.5V228.5Z" fill="#F89C74"/>
<path d="M240.495 223.083C239.032 223.083 238.927 223.917 237.997 223.917C237.105 223.917 236.932 223.083 235.5 223.083C234.037 223.083 233.932 223.917 233.002 223.917C232.11 223.917 231.937 223.083 230.505 223.083C229.042 223.083 228.937 223.917 228.007 223.917V225.583C229.432 225.583 229.635 224.75 230.52 224.75C231.412 224.75 231.585 225.583 233.017 225.583C234.48 225.583 234.585 224.75 235.515 224.75C236.407 224.75 236.58 225.583 238.012 225.583C239.475 225.583 239.58 224.75 240.51 224.75C241.402 224.75 241.56 225.567 243 225.583L242.992 223.933C241.785 223.658 241.777 223.083 240.495 223.083Z" fill="#F89C74"/>
<path d="M243 221C243.015 217.667 239.79 216 235.5 216C231.217 216 228 217.667 228 221V221.833H243V221ZM229.635 220.167C230.257 218.342 232.957 217.667 235.5 217.667C237.982 217.667 239.947 218.275 240.892 219.325C241.117 219.583 241.282 219.858 241.38 220.167H229.635Z" fill="#F89C74"/>
<path d="M249.909 217.28H251.669V218.688C251.669 219.616 251.515 220.507 251.205 221.36C250.896 222.203 250.427 222.939 249.797 223.568C249.168 224.197 248.373 224.667 247.413 224.976L246.373 223.28C246.992 223.088 247.525 222.832 247.973 222.512C248.421 222.181 248.784 221.813 249.061 221.408C249.349 220.992 249.563 220.555 249.701 220.096C249.84 219.627 249.909 219.157 249.909 218.688V217.28ZM250.341 217.28H252.069V218.688C252.069 219.147 252.139 219.6 252.277 220.048C252.416 220.485 252.619 220.901 252.885 221.296C253.163 221.68 253.52 222.021 253.957 222.32C254.395 222.619 254.917 222.859 255.525 223.04L254.485 224.72C253.536 224.421 252.752 223.973 252.133 223.376C251.525 222.779 251.072 222.08 250.773 221.28C250.485 220.469 250.341 219.605 250.341 218.688V217.28ZM248.645 226.08H258.741V231.424H256.613V227.776H248.645V226.08ZM256.613 216.608H258.741V225.44H256.613V216.608ZM271.316 216.576H273.444V231.44H271.316V216.576ZM261.876 217.76H263.988V221.376H267.06V217.76H269.172V227.984H261.876V217.76ZM263.988 223.024V226.288H267.06V223.024H263.988Z" fill="#F89C74"/>
<path d="M330.367 220.277V231H329.012V221.969L326.28 222.965V221.742L330.154 220.277H330.367ZM336.065 225.924L334.981 225.646L335.516 220.336H340.987V221.588H336.666L336.343 224.489C336.539 224.376 336.785 224.271 337.083 224.174C337.386 224.076 337.732 224.027 338.123 224.027C338.616 224.027 339.058 224.113 339.449 224.284C339.839 224.45 340.171 224.689 340.445 225.001C340.723 225.314 340.936 225.69 341.082 226.129C341.229 226.569 341.302 227.06 341.302 227.602C341.302 228.114 341.231 228.585 341.089 229.015C340.953 229.445 340.745 229.821 340.467 230.143C340.188 230.46 339.837 230.707 339.412 230.883C338.992 231.059 338.497 231.146 337.925 231.146C337.496 231.146 337.088 231.088 336.702 230.971C336.321 230.849 335.979 230.666 335.677 230.421C335.379 230.172 335.135 229.865 334.944 229.499C334.759 229.127 334.642 228.693 334.593 228.195H335.882C335.94 228.595 336.058 228.932 336.233 229.206C336.409 229.479 336.639 229.687 336.922 229.828C337.21 229.965 337.544 230.033 337.925 230.033C338.248 230.033 338.533 229.977 338.782 229.865C339.031 229.752 339.241 229.591 339.412 229.381C339.583 229.171 339.712 228.917 339.8 228.62C339.893 228.322 339.939 227.987 339.939 227.616C339.939 227.279 339.893 226.967 339.8 226.679C339.708 226.391 339.568 226.139 339.383 225.924C339.202 225.709 338.98 225.543 338.716 225.426C338.453 225.304 338.15 225.243 337.808 225.243C337.354 225.243 337.01 225.304 336.775 225.426C336.546 225.548 336.309 225.714 336.065 225.924ZM344.166 229.389V230.48C344.166 230.924 344.053 231.393 343.829 231.886C343.604 232.384 343.289 232.799 342.884 233.131L342.115 232.597C342.271 232.382 342.403 232.162 342.51 231.938C342.618 231.718 342.698 231.488 342.752 231.249C342.811 231.015 342.84 230.766 342.84 230.502V229.389H344.166ZM350.948 220.321H351.065V221.471H350.948C350.23 221.471 349.629 221.588 349.146 221.823C348.663 222.052 348.279 222.362 347.996 222.753C347.713 223.139 347.508 223.573 347.381 224.057C347.259 224.54 347.198 225.031 347.198 225.529V227.096C347.198 227.57 347.254 227.99 347.366 228.356C347.479 228.717 347.632 229.022 347.828 229.271C348.023 229.521 348.243 229.708 348.487 229.835C348.736 229.962 348.995 230.026 349.263 230.026C349.576 230.026 349.854 229.967 350.098 229.85C350.342 229.728 350.547 229.56 350.713 229.345C350.884 229.125 351.014 228.866 351.102 228.568C351.189 228.271 351.233 227.943 351.233 227.587C351.233 227.27 351.194 226.964 351.116 226.671C351.038 226.374 350.918 226.11 350.757 225.88C350.596 225.646 350.394 225.463 350.149 225.331C349.91 225.194 349.625 225.126 349.292 225.126C348.917 225.126 348.565 225.219 348.238 225.404C347.916 225.585 347.649 225.824 347.439 226.122C347.234 226.415 347.117 226.735 347.088 227.082L346.37 227.074C346.438 226.527 346.565 226.061 346.751 225.675C346.941 225.285 347.176 224.967 347.454 224.723C347.737 224.474 348.052 224.293 348.399 224.181C348.75 224.064 349.122 224.005 349.512 224.005C350.044 224.005 350.503 224.105 350.889 224.306C351.275 224.506 351.592 224.774 351.841 225.111C352.09 225.443 352.273 225.819 352.391 226.239C352.513 226.654 352.574 227.082 352.574 227.521C352.574 228.024 352.503 228.495 352.361 228.935C352.22 229.374 352.007 229.76 351.724 230.092C351.446 230.424 351.102 230.683 350.691 230.868C350.281 231.054 349.805 231.146 349.263 231.146C348.687 231.146 348.184 231.029 347.754 230.795C347.325 230.556 346.968 230.238 346.685 229.843C346.402 229.447 346.189 229.008 346.048 228.524C345.906 228.041 345.835 227.55 345.835 227.052V226.415C345.835 225.663 345.911 224.926 346.062 224.203C346.214 223.48 346.475 222.826 346.846 222.24C347.222 221.654 347.742 221.188 348.406 220.841C349.07 220.495 349.917 220.321 350.948 220.321ZM360.879 224.818V226.444C360.879 227.318 360.801 228.056 360.645 228.656C360.489 229.257 360.264 229.74 359.971 230.106C359.678 230.473 359.324 230.739 358.909 230.905C358.499 231.066 358.035 231.146 357.518 231.146C357.107 231.146 356.729 231.095 356.382 230.993C356.036 230.89 355.723 230.727 355.445 230.502C355.171 230.272 354.937 229.975 354.742 229.608C354.546 229.242 354.397 228.798 354.295 228.275C354.192 227.753 354.141 227.143 354.141 226.444V224.818C354.141 223.944 354.219 223.212 354.375 222.621C354.537 222.03 354.764 221.557 355.057 221.2C355.35 220.839 355.701 220.58 356.111 220.424C356.526 220.268 356.99 220.189 357.503 220.189C357.918 220.189 358.299 220.241 358.646 220.343C358.997 220.441 359.31 220.6 359.583 220.819C359.856 221.034 360.088 221.322 360.279 221.684C360.474 222.04 360.623 222.477 360.726 222.995C360.828 223.512 360.879 224.12 360.879 224.818ZM359.517 226.664V224.591C359.517 224.113 359.488 223.693 359.429 223.332C359.375 222.965 359.295 222.653 359.188 222.394C359.08 222.135 358.943 221.925 358.777 221.764C358.616 221.603 358.428 221.486 358.213 221.413C358.003 221.334 357.767 221.295 357.503 221.295C357.181 221.295 356.895 221.356 356.646 221.479C356.397 221.596 356.187 221.784 356.016 222.042C355.85 222.301 355.723 222.641 355.635 223.061C355.547 223.48 355.503 223.991 355.503 224.591V226.664C355.503 227.143 355.53 227.565 355.584 227.931C355.643 228.297 355.728 228.615 355.84 228.883C355.953 229.147 356.089 229.364 356.25 229.535C356.412 229.706 356.597 229.833 356.807 229.916C357.022 229.994 357.259 230.033 357.518 230.033C357.85 230.033 358.14 229.97 358.389 229.843C358.638 229.716 358.846 229.518 359.012 229.25C359.183 228.976 359.31 228.627 359.393 228.202C359.476 227.772 359.517 227.26 359.517 226.664ZM369.317 224.818V226.444C369.317 227.318 369.239 228.056 369.083 228.656C368.926 229.257 368.702 229.74 368.409 230.106C368.116 230.473 367.762 230.739 367.347 230.905C366.937 231.066 366.473 231.146 365.955 231.146C365.545 231.146 365.167 231.095 364.82 230.993C364.473 230.89 364.161 230.727 363.882 230.502C363.609 230.272 363.375 229.975 363.179 229.608C362.984 229.242 362.835 228.798 362.732 228.275C362.63 227.753 362.579 227.143 362.579 226.444V224.818C362.579 223.944 362.657 223.212 362.813 222.621C362.974 222.03 363.201 221.557 363.494 221.2C363.787 220.839 364.139 220.58 364.549 220.424C364.964 220.268 365.428 220.189 365.94 220.189C366.355 220.189 366.736 220.241 367.083 220.343C367.435 220.441 367.747 220.6 368.021 220.819C368.294 221.034 368.526 221.322 368.716 221.684C368.912 222.04 369.061 222.477 369.163 222.995C369.266 223.512 369.317 224.12 369.317 224.818ZM367.955 226.664V224.591C367.955 224.113 367.925 223.693 367.867 223.332C367.813 222.965 367.732 222.653 367.625 222.394C367.518 222.135 367.381 221.925 367.215 221.764C367.054 221.603 366.866 221.486 366.651 221.413C366.441 221.334 366.204 221.295 365.94 221.295C365.618 221.295 365.333 221.356 365.083 221.479C364.834 221.596 364.625 221.784 364.454 222.042C364.288 222.301 364.161 222.641 364.073 223.061C363.985 223.48 363.941 223.991 363.941 224.591V226.664C363.941 227.143 363.968 227.565 364.021 227.931C364.08 228.297 364.166 228.615 364.278 228.883C364.39 229.147 364.527 229.364 364.688 229.535C364.849 229.706 365.035 229.833 365.245 229.916C365.459 229.994 365.696 230.033 365.955 230.033C366.287 230.033 366.578 229.97 366.827 229.843C367.076 229.716 367.283 229.518 367.449 229.25C367.62 228.976 367.747 228.627 367.83 228.202C367.913 227.772 367.955 227.26 367.955 226.664ZM374.764 225.435H376.009V228.45H374.764V225.435ZM380.779 218.61H382.024V228.915H380.779V218.61ZM372.769 230.85H382.354V231.87H372.769V230.85ZM372.769 227.91H374.014V231.12H372.769V227.91ZM371.014 225.9L370.849 224.865C371.689 224.865 372.599 224.86 373.579 224.85C374.569 224.83 375.579 224.795 376.609 224.745C377.639 224.685 378.634 224.595 379.594 224.475L379.684 225.375C378.714 225.535 377.714 225.655 376.684 225.735C375.664 225.805 374.669 225.85 373.699 225.87C372.729 225.89 371.834 225.9 371.014 225.9ZM378.019 226.62H381.109V227.52H378.019V226.62ZM375.259 219.15C375.929 219.15 376.514 219.25 377.014 219.45C377.514 219.64 377.899 219.915 378.169 220.275C378.449 220.625 378.589 221.04 378.589 221.52C378.589 221.99 378.449 222.405 378.169 222.765C377.899 223.125 377.514 223.4 377.014 223.59C376.514 223.78 375.929 223.875 375.259 223.875C374.599 223.875 374.014 223.78 373.504 223.59C373.004 223.4 372.614 223.125 372.334 222.765C372.064 222.405 371.929 221.99 371.929 221.52C371.929 221.04 372.064 220.625 372.334 220.275C372.614 219.915 373.004 219.64 373.504 219.45C374.014 219.25 374.599 219.15 375.259 219.15ZM375.259 220.08C374.619 220.08 374.099 220.21 373.699 220.47C373.299 220.73 373.099 221.08 373.099 221.52C373.099 221.95 373.299 222.295 373.699 222.555C374.099 222.815 374.619 222.945 375.259 222.945C375.889 222.945 376.404 222.815 376.804 222.555C377.204 222.295 377.404 221.95 377.404 221.52C377.404 221.22 377.314 220.965 377.134 220.755C376.954 220.545 376.704 220.38 376.384 220.26C376.064 220.14 375.689 220.08 375.259 220.08Z" fill="#5B5B5B"/>
<g filter="url(#filter1_d_481_6628)">
<rect x="216" y="266" width="182" height="46" rx="16" fill="white"/>
</g>
<path d="M262.67 282.592H264.814V293.424H262.67V282.592ZM260.126 286.912H262.974V288.64H260.126V286.912ZM258.014 283.712H260.238C260.238 285.045 259.971 286.251 259.438 287.328C258.904 288.405 258.131 289.339 257.118 290.128C256.115 290.917 254.894 291.541 253.454 292L252.574 290.304C253.715 289.941 254.691 289.483 255.502 288.928C256.312 288.363 256.931 287.723 257.358 287.008C257.795 286.283 258.014 285.504 258.014 284.672V283.712ZM253.342 283.712H259.358V285.408H253.342V283.712ZM255.102 295.456H265.182V297.168H255.102V295.456ZM255.102 292.352H257.23V296.448H255.102V292.352ZM276.653 282.592H278.781V291.168H276.653V282.592ZM278.205 286.048H280.749V287.808H278.205V286.048ZM272.429 283.568H274.717C274.717 284.891 274.45 286.08 273.917 287.136C273.383 288.181 272.605 289.072 271.581 289.808C270.567 290.544 269.335 291.115 267.885 291.52L267.021 289.824C268.205 289.493 269.197 289.072 269.997 288.56C270.807 288.037 271.415 287.445 271.821 286.784C272.226 286.112 272.429 285.392 272.429 284.624V283.568ZM267.709 283.568H273.709V285.264H267.709V283.568ZM273.981 291.36C274.983 291.36 275.858 291.488 276.605 291.744C277.351 291.989 277.927 292.341 278.333 292.8C278.749 293.248 278.957 293.781 278.957 294.4C278.957 295.019 278.749 295.552 278.333 296C277.927 296.459 277.351 296.811 276.605 297.056C275.858 297.301 274.983 297.424 273.981 297.424C272.989 297.424 272.119 297.301 271.373 297.056C270.626 296.811 270.045 296.459 269.629 296C269.213 295.552 269.005 295.019 269.005 294.4C269.005 293.781 269.213 293.248 269.629 292.8C270.045 292.341 270.626 291.989 271.373 291.744C272.119 291.488 272.989 291.36 273.981 291.36ZM273.981 293.008C273.394 293.008 272.882 293.061 272.445 293.168C272.018 293.275 271.687 293.429 271.453 293.632C271.229 293.835 271.117 294.091 271.117 294.4C271.117 294.699 271.229 294.949 271.453 295.152C271.687 295.355 272.018 295.509 272.445 295.616C272.882 295.723 273.394 295.776 273.981 295.776C274.589 295.776 275.106 295.723 275.533 295.616C275.959 295.509 276.285 295.355 276.509 295.152C276.743 294.949 276.861 294.699 276.861 294.4C276.861 294.091 276.743 293.835 276.509 293.632C276.285 293.429 275.959 293.275 275.533 293.168C275.106 293.061 274.589 293.008 273.981 293.008Z" fill="#00E3CD"/>
<path d="M232.286 293H229.429V290H232.286V287.5H235.714V290H238.571V293H235.714V295.5H232.286V293ZM242 286V297C242 298.1 240.971 299 239.714 299H228.286C227.029 299 226 298.1 226 297V286C226 284.9 227.029 284 228.286 284H239.714C240.971 284 242 284.9 242 286ZM239.714 286H228.286V297H239.714V286ZM240.857 281H227.143V283H240.857V281Z" fill="#00E3CD"/>
<path d="M335.48 292.865H335.619C336.4 292.865 337.035 292.755 337.523 292.535C338.012 292.315 338.388 292.02 338.651 291.649C338.915 291.278 339.096 290.86 339.193 290.396C339.291 289.928 339.34 289.447 339.34 288.954V287.32C339.34 286.837 339.284 286.407 339.171 286.031C339.064 285.655 338.913 285.34 338.717 285.086C338.527 284.833 338.31 284.64 338.065 284.508C337.821 284.376 337.562 284.31 337.289 284.31C336.977 284.31 336.696 284.374 336.447 284.5C336.203 284.623 335.995 284.796 335.824 285.021C335.658 285.245 335.531 285.509 335.443 285.812C335.355 286.114 335.312 286.444 335.312 286.8C335.312 287.118 335.351 287.425 335.429 287.723C335.507 288.021 335.626 288.29 335.788 288.529C335.949 288.768 336.149 288.958 336.388 289.1C336.632 289.237 336.918 289.305 337.245 289.305C337.548 289.305 337.831 289.247 338.095 289.129C338.363 289.007 338.6 288.844 338.805 288.639C339.015 288.429 339.181 288.192 339.303 287.928C339.43 287.665 339.503 287.389 339.523 287.101H340.167C340.167 287.506 340.087 287.906 339.926 288.302C339.77 288.692 339.55 289.049 339.267 289.371C338.983 289.693 338.651 289.952 338.271 290.147C337.89 290.338 337.475 290.433 337.025 290.433C336.498 290.433 336.042 290.331 335.656 290.125C335.27 289.92 334.953 289.647 334.704 289.305C334.459 288.963 334.276 288.583 334.154 288.163C334.037 287.738 333.979 287.308 333.979 286.874C333.979 286.366 334.049 285.89 334.191 285.445C334.333 285.001 334.542 284.61 334.821 284.273C335.099 283.932 335.443 283.666 335.854 283.475C336.269 283.285 336.747 283.189 337.289 283.189C337.899 283.189 338.419 283.312 338.849 283.556C339.279 283.8 339.628 284.127 339.896 284.537C340.17 284.947 340.37 285.409 340.497 285.921C340.624 286.434 340.688 286.961 340.688 287.503V287.994C340.688 288.546 340.651 289.107 340.578 289.679C340.509 290.245 340.375 290.787 340.175 291.305C339.979 291.822 339.694 292.286 339.318 292.696C338.942 293.102 338.451 293.424 337.846 293.663C337.245 293.897 336.503 294.015 335.619 294.015H335.48V292.865ZM343.947 292.389V293.48C343.947 293.924 343.834 294.393 343.61 294.886C343.385 295.384 343.07 295.799 342.665 296.131L341.896 295.597C342.052 295.382 342.184 295.162 342.292 294.938C342.399 294.718 342.479 294.488 342.533 294.249C342.592 294.015 342.621 293.766 342.621 293.502V292.389H343.947ZM350.729 283.321H350.846V284.471H350.729C350.011 284.471 349.411 284.588 348.927 284.823C348.444 285.052 348.061 285.362 347.777 285.753C347.494 286.139 347.289 286.573 347.162 287.057C347.04 287.54 346.979 288.031 346.979 288.529V290.096C346.979 290.57 347.035 290.99 347.147 291.356C347.26 291.717 347.414 292.022 347.609 292.271C347.804 292.521 348.024 292.708 348.268 292.835C348.517 292.962 348.776 293.026 349.044 293.026C349.357 293.026 349.635 292.967 349.879 292.85C350.124 292.728 350.329 292.56 350.495 292.345C350.666 292.125 350.795 291.866 350.883 291.568C350.971 291.271 351.015 290.943 351.015 290.587C351.015 290.27 350.976 289.964 350.897 289.671C350.819 289.374 350.7 289.11 350.539 288.88C350.377 288.646 350.175 288.463 349.931 288.331C349.691 288.194 349.406 288.126 349.074 288.126C348.698 288.126 348.346 288.219 348.019 288.404C347.697 288.585 347.431 288.824 347.221 289.122C347.016 289.415 346.898 289.735 346.869 290.082L346.151 290.074C346.22 289.527 346.347 289.061 346.532 288.675C346.723 288.285 346.957 287.967 347.235 287.723C347.519 287.474 347.833 287.293 348.18 287.181C348.532 287.064 348.903 287.005 349.293 287.005C349.826 287.005 350.285 287.105 350.67 287.306C351.056 287.506 351.374 287.774 351.623 288.111C351.872 288.443 352.055 288.819 352.172 289.239C352.294 289.654 352.355 290.082 352.355 290.521C352.355 291.024 352.284 291.495 352.143 291.935C352.001 292.374 351.789 292.76 351.505 293.092C351.227 293.424 350.883 293.683 350.473 293.868C350.062 294.054 349.586 294.146 349.044 294.146C348.468 294.146 347.965 294.029 347.536 293.795C347.106 293.556 346.75 293.238 346.466 292.843C346.183 292.447 345.971 292.008 345.829 291.524C345.688 291.041 345.617 290.55 345.617 290.052V289.415C345.617 288.663 345.692 287.926 345.844 287.203C345.995 286.48 346.256 285.826 346.627 285.24C347.003 284.654 347.523 284.188 348.188 283.841C348.852 283.495 349.699 283.321 350.729 283.321ZM360.661 287.818V289.444C360.661 290.318 360.583 291.056 360.426 291.656C360.27 292.257 360.045 292.74 359.752 293.106C359.459 293.473 359.105 293.739 358.69 293.905C358.28 294.066 357.816 294.146 357.299 294.146C356.889 294.146 356.51 294.095 356.164 293.993C355.817 293.89 355.504 293.727 355.226 293.502C354.953 293.272 354.718 292.975 354.523 292.608C354.328 292.242 354.179 291.798 354.076 291.275C353.974 290.753 353.922 290.143 353.922 289.444V287.818C353.922 286.944 354 286.212 354.157 285.621C354.318 285.03 354.545 284.557 354.838 284.2C355.131 283.839 355.482 283.58 355.893 283.424C356.308 283.268 356.771 283.189 357.284 283.189C357.699 283.189 358.08 283.241 358.427 283.343C358.778 283.441 359.091 283.6 359.364 283.819C359.638 284.034 359.87 284.322 360.06 284.684C360.255 285.04 360.404 285.477 360.507 285.995C360.609 286.512 360.661 287.12 360.661 287.818ZM359.298 289.664V287.591C359.298 287.113 359.269 286.693 359.21 286.332C359.157 285.965 359.076 285.653 358.969 285.394C358.861 285.135 358.725 284.925 358.559 284.764C358.397 284.603 358.209 284.486 357.995 284.413C357.785 284.334 357.548 284.295 357.284 284.295C356.962 284.295 356.676 284.356 356.427 284.479C356.178 284.596 355.968 284.784 355.797 285.042C355.631 285.301 355.504 285.641 355.417 286.061C355.329 286.48 355.285 286.991 355.285 287.591V289.664C355.285 290.143 355.312 290.565 355.365 290.931C355.424 291.297 355.509 291.615 355.622 291.883C355.734 292.147 355.871 292.364 356.032 292.535C356.193 292.706 356.378 292.833 356.588 292.916C356.803 292.994 357.04 293.033 357.299 293.033C357.631 293.033 357.921 292.97 358.17 292.843C358.419 292.716 358.627 292.518 358.793 292.25C358.964 291.976 359.091 291.627 359.174 291.202C359.257 290.772 359.298 290.26 359.298 289.664ZM369.098 287.818V289.444C369.098 290.318 369.02 291.056 368.864 291.656C368.708 292.257 368.483 292.74 368.19 293.106C367.897 293.473 367.543 293.739 367.128 293.905C366.718 294.066 366.254 294.146 365.736 294.146C365.326 294.146 364.948 294.095 364.601 293.993C364.254 293.89 363.942 293.727 363.664 293.502C363.39 293.272 363.156 292.975 362.96 292.608C362.765 292.242 362.616 291.798 362.514 291.275C362.411 290.753 362.36 290.143 362.36 289.444V287.818C362.36 286.944 362.438 286.212 362.594 285.621C362.755 285.03 362.982 284.557 363.275 284.2C363.568 283.839 363.92 283.58 364.33 283.424C364.745 283.268 365.209 283.189 365.722 283.189C366.137 283.189 366.518 283.241 366.864 283.343C367.216 283.441 367.528 283.6 367.802 283.819C368.075 284.034 368.307 284.322 368.498 284.684C368.693 285.04 368.842 285.477 368.944 285.995C369.047 286.512 369.098 287.12 369.098 287.818ZM367.736 289.664V287.591C367.736 287.113 367.707 286.693 367.648 286.332C367.594 285.965 367.514 285.653 367.406 285.394C367.299 285.135 367.162 284.925 366.996 284.764C366.835 284.603 366.647 284.486 366.432 284.413C366.222 284.334 365.985 284.295 365.722 284.295C365.399 284.295 365.114 284.356 364.865 284.479C364.616 284.596 364.406 284.784 364.235 285.042C364.069 285.301 363.942 285.641 363.854 286.061C363.766 286.48 363.722 286.991 363.722 287.591V289.664C363.722 290.143 363.749 290.565 363.803 290.931C363.861 291.297 363.947 291.615 364.059 291.883C364.171 292.147 364.308 292.364 364.469 292.535C364.63 292.706 364.816 292.833 365.026 292.916C365.241 292.994 365.478 293.033 365.736 293.033C366.068 293.033 366.359 292.97 366.608 292.843C366.857 292.716 367.064 292.518 367.23 292.25C367.401 291.976 367.528 291.627 367.611 291.202C367.694 290.772 367.736 290.26 367.736 289.664ZM374.545 288.435H375.79V291.45H374.545V288.435ZM380.56 281.61H381.805V291.915H380.56V281.61ZM372.55 293.85H382.135V294.87H372.55V293.85ZM372.55 290.91H373.795V294.12H372.55V290.91ZM370.795 288.9L370.63 287.865C371.47 287.865 372.38 287.86 373.36 287.85C374.35 287.83 375.36 287.795 376.39 287.745C377.42 287.685 378.415 287.595 379.375 287.475L379.465 288.375C378.495 288.535 377.495 288.655 376.465 288.735C375.445 288.805 374.45 288.85 373.48 288.87C372.51 288.89 371.615 288.9 370.795 288.9ZM377.8 289.62H380.89V290.52H377.8V289.62ZM375.04 282.15C375.71 282.15 376.295 282.25 376.795 282.45C377.295 282.64 377.68 282.915 377.95 283.275C378.23 283.625 378.37 284.04 378.37 284.52C378.37 284.99 378.23 285.405 377.95 285.765C377.68 286.125 377.295 286.4 376.795 286.59C376.295 286.78 375.71 286.875 375.04 286.875C374.38 286.875 373.795 286.78 373.285 286.59C372.785 286.4 372.395 286.125 372.115 285.765C371.845 285.405 371.71 284.99 371.71 284.52C371.71 284.04 371.845 283.625 372.115 283.275C372.395 282.915 372.785 282.64 373.285 282.45C373.795 282.25 374.38 282.15 375.04 282.15ZM375.04 283.08C374.4 283.08 373.88 283.21 373.48 283.47C373.08 283.73 372.88 284.08 372.88 284.52C372.88 284.95 373.08 285.295 373.48 285.555C373.88 285.815 374.4 285.945 375.04 285.945C375.67 285.945 376.185 285.815 376.585 285.555C376.985 285.295 377.185 284.95 377.185 284.52C377.185 284.22 377.095 283.965 376.915 283.755C376.735 283.545 376.485 283.38 376.165 283.26C375.845 283.14 375.47 283.08 375.04 283.08Z" fill="#5B5B5B"/>
<g filter="url(#filter2_d_481_6628)">
<rect x="14" y="201" width="176" height="109" rx="16" fill="white"/>
</g>
<path d="M33.3667 243.277V254H32.0117V244.969L29.2798 245.965V244.742L33.1543 243.277H33.3667ZM39.0649 248.924L37.981 248.646L38.5156 243.336H43.9868V244.588H39.6655L39.3433 247.489C39.5386 247.376 39.7852 247.271 40.083 247.174C40.3857 247.076 40.7324 247.027 41.123 247.027C41.6162 247.027 42.0581 247.113 42.4487 247.284C42.8394 247.45 43.1714 247.689 43.4448 248.001C43.7231 248.314 43.9355 248.69 44.082 249.129C44.2285 249.569 44.3018 250.06 44.3018 250.602C44.3018 251.114 44.231 251.585 44.0894 252.015C43.9526 252.445 43.7451 252.821 43.4668 253.143C43.1885 253.46 42.8369 253.707 42.4121 253.883C41.9922 254.059 41.4966 254.146 40.9253 254.146C40.4956 254.146 40.0879 254.088 39.7021 253.971C39.3213 253.849 38.9795 253.666 38.6768 253.421C38.3789 253.172 38.1348 252.865 37.9443 252.499C37.7588 252.127 37.6416 251.693 37.5928 251.195H38.8818C38.9404 251.595 39.0576 251.932 39.2334 252.206C39.4092 252.479 39.6387 252.687 39.9219 252.828C40.21 252.965 40.5444 253.033 40.9253 253.033C41.2476 253.033 41.5332 252.977 41.7822 252.865C42.0312 252.752 42.2412 252.591 42.4121 252.381C42.583 252.171 42.7124 251.917 42.8003 251.62C42.8931 251.322 42.9395 250.987 42.9395 250.616C42.9395 250.279 42.8931 249.967 42.8003 249.679C42.7075 249.391 42.5684 249.139 42.3828 248.924C42.2021 248.709 41.98 248.543 41.7163 248.426C41.4526 248.304 41.1499 248.243 40.8081 248.243C40.354 248.243 40.0098 248.304 39.7754 248.426C39.5459 248.548 39.3091 248.714 39.0649 248.924ZM47.1655 252.389V253.48C47.1655 253.924 47.0532 254.393 46.8286 254.886C46.604 255.384 46.2891 255.799 45.8838 256.131L45.1147 255.597C45.271 255.382 45.4028 255.162 45.5103 254.938C45.6177 254.718 45.6982 254.488 45.752 254.249C45.8105 254.015 45.8398 253.766 45.8398 253.502V252.389H47.1655ZM53.9478 243.321H54.0649V244.471H53.9478C53.23 244.471 52.6294 244.588 52.146 244.823C51.6626 245.052 51.2793 245.362 50.9961 245.753C50.7129 246.139 50.5078 246.573 50.3809 247.057C50.2588 247.54 50.1978 248.031 50.1978 248.529V250.096C50.1978 250.57 50.2539 250.99 50.3662 251.356C50.4785 251.717 50.6323 252.022 50.8276 252.271C51.0229 252.521 51.2427 252.708 51.4868 252.835C51.7358 252.962 51.9946 253.026 52.2632 253.026C52.5757 253.026 52.854 252.967 53.0981 252.85C53.3423 252.728 53.5474 252.56 53.7134 252.345C53.8843 252.125 54.0137 251.866 54.1016 251.568C54.1895 251.271 54.2334 250.943 54.2334 250.587C54.2334 250.27 54.1943 249.964 54.1162 249.671C54.0381 249.374 53.9185 249.11 53.7573 248.88C53.5962 248.646 53.3936 248.463 53.1494 248.331C52.9102 248.194 52.6245 248.126 52.2925 248.126C51.9165 248.126 51.5649 248.219 51.2378 248.404C50.9155 248.585 50.6494 248.824 50.4395 249.122C50.2344 249.415 50.1172 249.735 50.0879 250.082L49.3701 250.074C49.4385 249.527 49.5654 249.061 49.751 248.675C49.9414 248.285 50.1758 247.967 50.4541 247.723C50.7373 247.474 51.0522 247.293 51.3989 247.181C51.7505 247.064 52.1216 247.005 52.5122 247.005C53.0444 247.005 53.5034 247.105 53.8892 247.306C54.2749 247.506 54.5923 247.774 54.8413 248.111C55.0903 248.443 55.2734 248.819 55.3906 249.239C55.5127 249.654 55.5737 250.082 55.5737 250.521C55.5737 251.024 55.5029 251.495 55.3613 251.935C55.2197 252.374 55.0073 252.76 54.7241 253.092C54.4458 253.424 54.1016 253.683 53.6914 253.868C53.2812 254.054 52.8052 254.146 52.2632 254.146C51.687 254.146 51.1841 254.029 50.7544 253.795C50.3247 253.556 49.9683 253.238 49.6851 252.843C49.4019 252.447 49.1895 252.008 49.0479 251.524C48.9062 251.041 48.8354 250.55 48.8354 250.052V249.415C48.8354 248.663 48.9111 247.926 49.0625 247.203C49.2139 246.48 49.4751 245.826 49.8462 245.24C50.2222 244.654 50.7422 244.188 51.4062 243.841C52.0703 243.495 52.9175 243.321 53.9478 243.321ZM63.8794 247.818V249.444C63.8794 250.318 63.8013 251.056 63.645 251.656C63.4888 252.257 63.2642 252.74 62.9712 253.106C62.6782 253.473 62.3242 253.739 61.9092 253.905C61.499 254.066 61.0352 254.146 60.5176 254.146C60.1074 254.146 59.729 254.095 59.3823 253.993C59.0356 253.89 58.7231 253.727 58.4448 253.502C58.1714 253.272 57.937 252.975 57.7417 252.608C57.5464 252.242 57.3975 251.798 57.2949 251.275C57.1924 250.753 57.1411 250.143 57.1411 249.444V247.818C57.1411 246.944 57.2192 246.212 57.3755 245.621C57.5366 245.03 57.7637 244.557 58.0566 244.2C58.3496 243.839 58.7012 243.58 59.1113 243.424C59.5264 243.268 59.9902 243.189 60.5029 243.189C60.918 243.189 61.2988 243.241 61.6455 243.343C61.9971 243.441 62.3096 243.6 62.583 243.819C62.8564 244.034 63.0884 244.322 63.2788 244.684C63.4741 245.04 63.623 245.477 63.7256 245.995C63.8281 246.512 63.8794 247.12 63.8794 247.818ZM62.5171 249.664V247.591C62.5171 247.113 62.4878 246.693 62.4292 246.332C62.3755 245.965 62.2949 245.653 62.1875 245.394C62.0801 245.135 61.9434 244.925 61.7773 244.764C61.6162 244.603 61.4282 244.486 61.2134 244.413C61.0034 244.334 60.7666 244.295 60.5029 244.295C60.1807 244.295 59.895 244.356 59.646 244.479C59.397 244.596 59.187 244.784 59.0161 245.042C58.8501 245.301 58.7231 245.641 58.6353 246.061C58.5474 246.48 58.5034 246.991 58.5034 247.591V249.664C58.5034 250.143 58.5303 250.565 58.584 250.931C58.6426 251.297 58.728 251.615 58.8403 251.883C58.9526 252.147 59.0894 252.364 59.2505 252.535C59.4116 252.706 59.5972 252.833 59.8071 252.916C60.022 252.994 60.2588 253.033 60.5176 253.033C60.8496 253.033 61.1401 252.97 61.3892 252.843C61.6382 252.716 61.8457 252.518 62.0117 252.25C62.1826 251.976 62.3096 251.627 62.3926 251.202C62.4756 250.772 62.5171 250.26 62.5171 249.664ZM72.3169 247.818V249.444C72.3169 250.318 72.2388 251.056 72.0825 251.656C71.9263 252.257 71.7017 252.74 71.4087 253.106C71.1157 253.473 70.7617 253.739 70.3467 253.905C69.9365 254.066 69.4727 254.146 68.9551 254.146C68.5449 254.146 68.1665 254.095 67.8198 253.993C67.4731 253.89 67.1606 253.727 66.8823 253.502C66.6089 253.272 66.3745 252.975 66.1792 252.608C65.9839 252.242 65.835 251.798 65.7324 251.275C65.6299 250.753 65.5786 250.143 65.5786 249.444V247.818C65.5786 246.944 65.6567 246.212 65.813 245.621C65.9741 245.03 66.2012 244.557 66.4941 244.2C66.7871 243.839 67.1387 243.58 67.5488 243.424C67.9639 243.268 68.4277 243.189 68.9404 243.189C69.3555 243.189 69.7363 243.241 70.083 243.343C70.4346 243.441 70.7471 243.6 71.0205 243.819C71.2939 244.034 71.5259 244.322 71.7163 244.684C71.9116 245.04 72.0605 245.477 72.1631 245.995C72.2656 246.512 72.3169 247.12 72.3169 247.818ZM70.9546 249.664V247.591C70.9546 247.113 70.9253 246.693 70.8667 246.332C70.813 245.965 70.7324 245.653 70.625 245.394C70.5176 245.135 70.3809 244.925 70.2148 244.764C70.0537 244.603 69.8657 244.486 69.6509 244.413C69.4409 244.334 69.2041 244.295 68.9404 244.295C68.6182 244.295 68.3325 244.356 68.0835 244.479C67.8345 244.596 67.6245 244.784 67.4536 245.042C67.2876 245.301 67.1606 245.641 67.0728 246.061C66.9849 246.48 66.9409 246.991 66.9409 247.591V249.664C66.9409 250.143 66.9678 250.565 67.0215 250.931C67.0801 251.297 67.1655 251.615 67.2778 251.883C67.3901 252.147 67.5269 252.364 67.688 252.535C67.8491 252.706 68.0347 252.833 68.2446 252.916C68.4595 252.994 68.6963 253.033 68.9551 253.033C69.2871 253.033 69.5776 252.97 69.8267 252.843C70.0757 252.716 70.2832 252.518 70.4492 252.25C70.6201 251.976 70.7471 251.627 70.8301 251.202C70.9131 250.772 70.9546 250.26 70.9546 249.664ZM77.7638 248.435H79.0088V251.45H77.7638V248.435ZM83.7788 241.61H85.0238V251.915H83.7788V241.61ZM75.7688 253.85H85.3538V254.87H75.7688V253.85ZM75.7688 250.91H77.0138V254.12H75.7688V250.91ZM74.0138 248.9L73.8488 247.865C74.6888 247.865 75.5988 247.86 76.5788 247.85C77.5688 247.83 78.5788 247.795 79.6088 247.745C80.6388 247.685 81.6338 247.595 82.5938 247.475L82.6838 248.375C81.7138 248.535 80.7138 248.655 79.6838 248.735C78.6638 248.805 77.6688 248.85 76.6988 248.87C75.7288 248.89 74.8338 248.9 74.0138 248.9ZM81.0188 249.62H84.1088V250.52H81.0188V249.62ZM78.2588 242.15C78.9288 242.15 79.5138 242.25 80.0138 242.45C80.5138 242.64 80.8988 242.915 81.1688 243.275C81.4488 243.625 81.5888 244.04 81.5888 244.52C81.5888 244.99 81.4488 245.405 81.1688 245.765C80.8988 246.125 80.5138 246.4 80.0138 246.59C79.5138 246.78 78.9288 246.875 78.2588 246.875C77.5988 246.875 77.0138 246.78 76.5038 246.59C76.0038 246.4 75.6138 246.125 75.3338 245.765C75.0638 245.405 74.9288 244.99 74.9288 244.52C74.9288 244.04 75.0638 243.625 75.3338 243.275C75.6138 242.915 76.0038 242.64 76.5038 242.45C77.0138 242.25 77.5988 242.15 78.2588 242.15ZM78.2588 243.08C77.6188 243.08 77.0988 243.21 76.6988 243.47C76.2988 243.73 76.0988 244.08 76.0988 244.52C76.0988 244.95 76.2988 245.295 76.6988 245.555C77.0988 245.815 77.6188 245.945 78.2588 245.945C78.8888 245.945 79.4038 245.815 79.8038 245.555C80.2038 245.295 80.4038 244.95 80.4038 244.52C80.4038 244.22 80.3138 243.965 80.1338 243.755C79.9538 243.545 79.7038 243.38 79.3838 243.26C79.0638 243.14 78.6888 243.08 78.2588 243.08Z" fill="#5B5B5B"/>
<path d="M156.106 218.992V229H154.842V220.571L152.292 221.501V220.359L155.908 218.992H156.106ZM169.302 217.422H170.422V230.092H169.302V217.422ZM167.258 222.518H169.694V223.47H167.258V222.518ZM163.996 219.06H165.102C165.102 219.872 165.023 220.665 164.864 221.44C164.705 222.215 164.444 222.961 164.08 223.68C163.725 224.389 163.245 225.057 162.638 225.682C162.031 226.298 161.275 226.863 160.37 227.376L159.698 226.55C160.762 225.953 161.607 225.276 162.232 224.52C162.857 223.764 163.305 222.947 163.576 222.07C163.856 221.183 163.996 220.25 163.996 219.27V219.06ZM160.188 219.06H164.374V220.012H160.188V219.06ZM166.502 217.758H167.594V229.462H166.502V217.758Z" fill="black"/>
<path d="M39.8486 217.941H41.2596V226.662H39.8486V217.941ZM40.8686 221.681H43.5206V222.854H40.8686V221.681ZM35.5816 218.944H37.0776C37.0776 220.236 36.7886 221.403 36.2106 222.446C35.6439 223.477 34.8223 224.361 33.7456 225.098C32.6689 225.835 31.3769 226.413 29.8696 226.832L29.3086 225.693C30.6459 225.342 31.7793 224.866 32.7086 224.265C33.6379 223.653 34.3463 222.95 34.8336 222.157C35.3323 221.364 35.5816 220.497 35.5816 219.556V218.944ZM29.9886 218.944H36.3806V220.083H29.9886V218.944ZM31.5696 227.376H41.2596V233.105H31.5696V227.376ZM39.8656 228.532H32.9636V231.966H39.8656V228.532ZM55.3683 217.941H56.7793V233.326H55.3683V217.941ZM56.4563 223.993H59.2953V225.2H56.4563V223.993ZM45.5763 219.25H46.9703V223.296H51.3393V219.25H52.7333V229.637H45.5763V219.25ZM46.9703 224.418V228.464H51.3393V224.418H46.9703ZM66.7569 218.995H67.9979V220.185C67.9979 220.854 67.8789 221.488 67.6409 222.089C67.4143 222.69 67.0969 223.251 66.6889 223.772C66.2923 224.282 65.8276 224.741 65.2949 225.149C64.7736 225.557 64.2126 225.903 63.6119 226.186C63.0226 226.469 62.4219 226.685 61.8099 226.832L61.1809 225.659C61.7136 225.546 62.2463 225.37 62.7789 225.132C63.3229 224.894 63.8329 224.605 64.3089 224.265C64.7849 223.914 65.2043 223.523 65.5669 223.092C65.9409 222.661 66.2299 222.202 66.4339 221.715C66.6493 221.216 66.7569 220.706 66.7569 220.185V218.995ZM67.0289 218.995H68.2359V220.185C68.2359 220.706 68.3436 221.216 68.5589 221.715C68.7743 222.202 69.0633 222.661 69.4259 223.092C69.7999 223.523 70.2249 223.914 70.7009 224.265C71.1769 224.605 71.6813 224.9 72.2139 225.149C72.7579 225.387 73.3019 225.557 73.8459 225.659L73.1999 226.832C72.5879 226.685 71.9873 226.469 71.3979 226.186C70.8086 225.903 70.2476 225.557 69.7149 225.149C69.1936 224.741 68.7289 224.282 68.3209 223.772C67.9129 223.251 67.5956 222.69 67.3689 222.089C67.1423 221.488 67.0289 220.854 67.0289 220.185V218.995ZM60.6029 230.079H74.5429V231.252H60.6029V230.079ZM81.2574 218.791H88.4314V225.081H81.2574V218.791ZM87.0544 219.93H82.6344V223.959H87.0544V219.93ZM91.6444 217.941H93.0554V225.846H91.6444V217.941ZM83.1104 226.628H93.0554V230.334H84.5214V232.493H83.1444V229.297H91.6614V227.75H83.1104V226.628ZM83.1444 232.017H93.5654V233.156H83.1444V232.017ZM102.914 219.539H104.274C104.274 220.65 104.161 221.738 103.934 222.803C103.707 223.857 103.328 224.866 102.795 225.829C102.262 226.792 101.537 227.693 100.619 228.532C99.7011 229.371 98.5507 230.13 97.1681 230.81L96.4031 229.705C97.6157 229.116 98.6357 228.458 99.4631 227.733C100.302 227.008 100.97 226.226 101.469 225.387C101.979 224.548 102.347 223.653 102.574 222.701C102.801 221.749 102.914 220.746 102.914 219.692V219.539ZM97.2361 219.539H103.628V220.695H97.2361V219.539ZM102.693 223.347V224.452L96.6921 225.013L96.4541 223.772L102.693 223.347ZM107.3 217.941H108.711V233.326H107.3V217.941ZM113.521 226.237H124.078V227.376H113.521V226.237ZM111.736 230.164H125.676V231.337H111.736V230.164ZM113.521 219.267H123.925V220.423H114.949V226.577H113.521V219.267ZM114.507 222.684H123.585V223.823H114.507V222.684Z" fill="black"/>
<rect x="28.25" y="268.25" width="148.5" height="25.5" rx="7.75" fill="white" stroke="#8C8C8C" stroke-width="0.5"/>
<path d="M157 278.5L162 283.5L167 278.5H157Z" fill="#0C0C0C"/>
<path d="M38.1348 286.333C38.1348 287.25 38.8173 288 39.6516 288H51.7864C52.6207 288 53.3033 287.25 53.3033 286.333V283.833H38.1348V286.333ZM39.6516 285.5H51.7864V286.333H39.6516V285.5Z" fill="#F89C74"/>
<path d="M50.7701 280.083C49.2912 280.083 49.185 280.917 48.2446 280.917C47.342 280.917 47.1676 280.083 45.719 280.083C44.2401 280.083 44.1339 280.917 43.1935 280.917C42.2909 280.917 42.1165 280.083 40.6679 280.083C39.189 280.083 39.0828 280.917 38.1423 280.917V282.583C39.5834 282.583 39.7881 281.75 40.6831 281.75C41.5856 281.75 41.76 282.583 43.2086 282.583C44.6876 282.583 44.7937 281.75 45.7342 281.75C46.6367 281.75 46.8111 282.583 48.2597 282.583C49.7387 282.583 49.8448 281.75 50.7853 281.75C51.6878 281.75 51.8471 282.567 53.3033 282.583L53.2957 280.933C52.0746 280.658 52.067 280.083 50.7701 280.083Z" fill="#F89C74"/>
<path d="M53.3033 278C53.3184 274.667 50.0572 273 45.719 273C41.3884 273 38.1348 274.667 38.1348 278V278.833H53.3033V278ZM39.7881 277.167C40.4176 275.342 43.148 274.667 45.719 274.667C48.2294 274.667 50.2165 275.275 51.1721 276.325C51.3996 276.583 51.5665 276.858 51.6651 277.167H39.7881Z" fill="#F89C74"/>
<path d="M60.4093 274.28H62.1693V275.688C62.1693 276.616 62.0146 277.507 61.7053 278.36C61.3959 279.203 60.9266 279.939 60.2973 280.568C59.6679 281.197 58.8733 281.667 57.9133 281.976L56.8733 280.28C57.4919 280.088 58.0253 279.832 58.4733 279.512C58.9213 279.181 59.2839 278.813 59.5613 278.408C59.8493 277.992 60.0626 277.555 60.2013 277.096C60.3399 276.627 60.4093 276.157 60.4093 275.688V274.28ZM60.8413 274.28H62.5693V275.688C62.5693 276.147 62.6386 276.6 62.7773 277.048C62.9159 277.485 63.1186 277.901 63.3853 278.296C63.6626 278.68 64.0199 279.021 64.4573 279.32C64.8946 279.619 65.4173 279.859 66.0253 280.04L64.9853 281.72C64.0359 281.421 63.2519 280.973 62.6333 280.376C62.0253 279.779 61.5719 279.08 61.2733 278.28C60.9853 277.469 60.8413 276.605 60.8413 275.688V274.28ZM59.1453 283.08H69.2413V288.424H67.1133V284.776H59.1453V283.08ZM67.1133 273.608H69.2413V282.44H67.1133V273.608ZM81.816 273.576H83.944V288.44H81.816V273.576ZM72.376 274.76H74.488V278.376H77.56V274.76H79.672V284.984H72.376V274.76ZM74.488 280.024V283.288H77.56V280.024H74.488Z" fill="#F89C74"/>
<g filter="url(#filter3_d_481_6628)">
<rect x="14" y="326" width="176" height="109" rx="16" fill="white"/>
</g>
<path d="M38.48 377.865H38.6191C39.4004 377.865 40.0352 377.755 40.5234 377.535C41.0117 377.315 41.3877 377.02 41.6514 376.649C41.915 376.278 42.0957 375.86 42.1934 375.396C42.291 374.928 42.3398 374.447 42.3398 373.954V372.32C42.3398 371.837 42.2837 371.407 42.1714 371.031C42.064 370.655 41.9126 370.34 41.7173 370.086C41.5269 369.833 41.3096 369.64 41.0654 369.508C40.8213 369.376 40.5625 369.31 40.2891 369.31C39.9766 369.31 39.6958 369.374 39.4468 369.5C39.2026 369.623 38.9951 369.796 38.8242 370.021C38.6582 370.245 38.5312 370.509 38.4434 370.812C38.3555 371.114 38.3115 371.444 38.3115 371.8C38.3115 372.118 38.3506 372.425 38.4287 372.723C38.5068 373.021 38.6265 373.29 38.7876 373.529C38.9487 373.768 39.1489 373.958 39.3882 374.1C39.6323 374.237 39.918 374.305 40.2451 374.305C40.5479 374.305 40.8311 374.247 41.0947 374.129C41.3633 374.007 41.6001 373.844 41.8052 373.639C42.0151 373.429 42.1812 373.192 42.3032 372.928C42.4302 372.665 42.5034 372.389 42.5229 372.101H43.1675C43.1675 372.506 43.0869 372.906 42.9258 373.302C42.7695 373.692 42.5498 374.049 42.2666 374.371C41.9834 374.693 41.6514 374.952 41.2705 375.147C40.8896 375.338 40.4746 375.433 40.0254 375.433C39.498 375.433 39.0415 375.331 38.6558 375.125C38.27 374.92 37.9526 374.647 37.7036 374.305C37.4595 373.963 37.2764 373.583 37.1543 373.163C37.0371 372.738 36.9785 372.308 36.9785 371.874C36.9785 371.366 37.0493 370.89 37.1909 370.445C37.3325 370.001 37.5425 369.61 37.8208 369.273C38.0991 368.932 38.4434 368.666 38.8535 368.475C39.2686 368.285 39.7471 368.189 40.2891 368.189C40.8994 368.189 41.4194 368.312 41.8491 368.556C42.2788 368.8 42.6279 369.127 42.8965 369.537C43.1699 369.947 43.3701 370.409 43.4971 370.921C43.624 371.434 43.6875 371.961 43.6875 372.503V372.994C43.6875 373.546 43.6509 374.107 43.5776 374.679C43.5093 375.245 43.375 375.787 43.1748 376.305C42.9795 376.822 42.6938 377.286 42.3179 377.696C41.9419 378.102 41.4512 378.424 40.8457 378.663C40.2451 378.897 39.5029 379.015 38.6191 379.015H38.48V377.865ZM46.9468 377.389V378.48C46.9468 378.924 46.8345 379.393 46.6099 379.886C46.3853 380.384 46.0703 380.799 45.665 381.131L44.896 380.597C45.0522 380.382 45.1841 380.162 45.2915 379.938C45.3989 379.718 45.4795 379.488 45.5332 379.249C45.5918 379.015 45.6211 378.766 45.6211 378.502V377.389H46.9468ZM53.729 368.321H53.8462V369.471H53.729C53.0112 369.471 52.4106 369.588 51.9272 369.823C51.4438 370.052 51.0605 370.362 50.7773 370.753C50.4941 371.139 50.2891 371.573 50.1621 372.057C50.04 372.54 49.979 373.031 49.979 373.529V375.096C49.979 375.57 50.0352 375.99 50.1475 376.356C50.2598 376.717 50.4136 377.022 50.6089 377.271C50.8042 377.521 51.0239 377.708 51.2681 377.835C51.5171 377.962 51.7759 378.026 52.0444 378.026C52.3569 378.026 52.6353 377.967 52.8794 377.85C53.1235 377.728 53.3286 377.56 53.4946 377.345C53.6655 377.125 53.7949 376.866 53.8828 376.568C53.9707 376.271 54.0146 375.943 54.0146 375.587C54.0146 375.27 53.9756 374.964 53.8975 374.671C53.8193 374.374 53.6997 374.11 53.5386 373.88C53.3774 373.646 53.1748 373.463 52.9307 373.331C52.6914 373.194 52.4058 373.126 52.0737 373.126C51.6978 373.126 51.3462 373.219 51.019 373.404C50.6968 373.585 50.4307 373.824 50.2207 374.122C50.0156 374.415 49.8984 374.735 49.8691 375.082L49.1514 375.074C49.2197 374.527 49.3467 374.061 49.5322 373.675C49.7227 373.285 49.957 372.967 50.2354 372.723C50.5186 372.474 50.8335 372.293 51.1802 372.181C51.5317 372.064 51.9028 372.005 52.2935 372.005C52.8257 372.005 53.2847 372.105 53.6704 372.306C54.0562 372.506 54.3735 372.774 54.6226 373.111C54.8716 373.443 55.0547 373.819 55.1719 374.239C55.2939 374.654 55.355 375.082 55.355 375.521C55.355 376.024 55.2842 376.495 55.1426 376.935C55.001 377.374 54.7886 377.76 54.5054 378.092C54.2271 378.424 53.8828 378.683 53.4727 378.868C53.0625 379.054 52.5864 379.146 52.0444 379.146C51.4683 379.146 50.9653 379.029 50.5356 378.795C50.106 378.556 49.7495 378.238 49.4663 377.843C49.1831 377.447 48.9707 377.008 48.8291 376.524C48.6875 376.041 48.6167 375.55 48.6167 375.052V374.415C48.6167 373.663 48.6924 372.926 48.8438 372.203C48.9951 371.48 49.2563 370.826 49.6274 370.24C50.0034 369.654 50.5234 369.188 51.1875 368.841C51.8516 368.495 52.6987 368.321 53.729 368.321ZM63.6606 372.818V374.444C63.6606 375.318 63.5825 376.056 63.4263 376.656C63.27 377.257 63.0454 377.74 62.7524 378.106C62.4595 378.473 62.1055 378.739 61.6904 378.905C61.2803 379.066 60.8164 379.146 60.2988 379.146C59.8887 379.146 59.5103 379.095 59.1636 378.993C58.8169 378.89 58.5044 378.727 58.2261 378.502C57.9526 378.272 57.7183 377.975 57.5229 377.608C57.3276 377.242 57.1787 376.798 57.0762 376.275C56.9736 375.753 56.9224 375.143 56.9224 374.444V372.818C56.9224 371.944 57.0005 371.212 57.1567 370.621C57.3179 370.03 57.5449 369.557 57.8379 369.2C58.1309 368.839 58.4824 368.58 58.8926 368.424C59.3076 368.268 59.7715 368.189 60.2842 368.189C60.6992 368.189 61.0801 368.241 61.4268 368.343C61.7783 368.441 62.0908 368.6 62.3643 368.819C62.6377 369.034 62.8696 369.322 63.0601 369.684C63.2554 370.04 63.4043 370.477 63.5068 370.995C63.6094 371.512 63.6606 372.12 63.6606 372.818ZM62.2983 374.664V372.591C62.2983 372.113 62.269 371.693 62.2104 371.332C62.1567 370.965 62.0762 370.653 61.9688 370.394C61.8613 370.135 61.7246 369.925 61.5586 369.764C61.3975 369.603 61.2095 369.486 60.9946 369.413C60.7847 369.334 60.5479 369.295 60.2842 369.295C59.9619 369.295 59.6763 369.356 59.4272 369.479C59.1782 369.596 58.9683 369.784 58.7974 370.042C58.6313 370.301 58.5044 370.641 58.4165 371.061C58.3286 371.48 58.2847 371.991 58.2847 372.591V374.664C58.2847 375.143 58.3115 375.565 58.3652 375.931C58.4238 376.297 58.5093 376.615 58.6216 376.883C58.7339 377.147 58.8706 377.364 59.0317 377.535C59.1929 377.706 59.3784 377.833 59.5884 377.916C59.8032 377.994 60.04 378.033 60.2988 378.033C60.6309 378.033 60.9214 377.97 61.1704 377.843C61.4194 377.716 61.627 377.518 61.793 377.25C61.9639 376.976 62.0908 376.627 62.1738 376.202C62.2568 375.772 62.2983 375.26 62.2983 374.664ZM72.0981 372.818V374.444C72.0981 375.318 72.02 376.056 71.8638 376.656C71.7075 377.257 71.4829 377.74 71.1899 378.106C70.897 378.473 70.543 378.739 70.1279 378.905C69.7178 379.066 69.2539 379.146 68.7363 379.146C68.3262 379.146 67.9478 379.095 67.6011 378.993C67.2544 378.89 66.9419 378.727 66.6636 378.502C66.3901 378.272 66.1558 377.975 65.9604 377.608C65.7651 377.242 65.6162 376.798 65.5137 376.275C65.4111 375.753 65.3599 375.143 65.3599 374.444V372.818C65.3599 371.944 65.438 371.212 65.5942 370.621C65.7554 370.03 65.9824 369.557 66.2754 369.2C66.5684 368.839 66.9199 368.58 67.3301 368.424C67.7451 368.268 68.209 368.189 68.7217 368.189C69.1367 368.189 69.5176 368.241 69.8643 368.343C70.2158 368.441 70.5283 368.6 70.8018 368.819C71.0752 369.034 71.3071 369.322 71.4976 369.684C71.6929 370.04 71.8418 370.477 71.9443 370.995C72.0469 371.512 72.0981 372.12 72.0981 372.818ZM70.7358 374.664V372.591C70.7358 372.113 70.7065 371.693 70.6479 371.332C70.5942 370.965 70.5137 370.653 70.4062 370.394C70.2988 370.135 70.1621 369.925 69.9961 369.764C69.835 369.603 69.647 369.486 69.4321 369.413C69.2222 369.334 68.9854 369.295 68.7217 369.295C68.3994 369.295 68.1138 369.356 67.8647 369.479C67.6157 369.596 67.4058 369.784 67.2349 370.042C67.0688 370.301 66.9419 370.641 66.854 371.061C66.7661 371.48 66.7222 371.991 66.7222 372.591V374.664C66.7222 375.143 66.749 375.565 66.8027 375.931C66.8613 376.297 66.9468 376.615 67.0591 376.883C67.1714 377.147 67.3081 377.364 67.4692 377.535C67.6304 377.706 67.8159 377.833 68.0259 377.916C68.2407 377.994 68.4775 378.033 68.7363 378.033C69.0684 378.033 69.3589 377.97 69.6079 377.843C69.8569 377.716 70.0645 377.518 70.2305 377.25C70.4014 376.976 70.5283 376.627 70.6113 376.202C70.6943 375.772 70.7358 375.26 70.7358 374.664ZM77.5451 373.435H78.7901V376.45H77.5451V373.435ZM83.5601 366.61H84.8051V376.915H83.5601V366.61ZM75.5501 378.85H85.1351V379.87H75.5501V378.85ZM75.5501 375.91H76.7951V379.12H75.5501V375.91ZM73.7951 373.9L73.6301 372.865C74.4701 372.865 75.3801 372.86 76.3601 372.85C77.3501 372.83 78.3601 372.795 79.3901 372.745C80.4201 372.685 81.4151 372.595 82.3751 372.475L82.4651 373.375C81.4951 373.535 80.4951 373.655 79.4651 373.735C78.4451 373.805 77.4501 373.85 76.4801 373.87C75.5101 373.89 74.6151 373.9 73.7951 373.9ZM80.8001 374.62H83.8901V375.52H80.8001V374.62ZM78.0401 367.15C78.7101 367.15 79.2951 367.25 79.7951 367.45C80.2951 367.64 80.6801 367.915 80.9501 368.275C81.2301 368.625 81.3701 369.04 81.3701 369.52C81.3701 369.99 81.2301 370.405 80.9501 370.765C80.6801 371.125 80.2951 371.4 79.7951 371.59C79.2951 371.78 78.7101 371.875 78.0401 371.875C77.3801 371.875 76.7951 371.78 76.2851 371.59C75.7851 371.4 75.3951 371.125 75.1151 370.765C74.8451 370.405 74.7101 369.99 74.7101 369.52C74.7101 369.04 74.8451 368.625 75.1151 368.275C75.3951 367.915 75.7851 367.64 76.2851 367.45C76.7951 367.25 77.3801 367.15 78.0401 367.15ZM78.0401 368.08C77.4001 368.08 76.8801 368.21 76.4801 368.47C76.0801 368.73 75.8801 369.08 75.8801 369.52C75.8801 369.95 76.0801 370.295 76.4801 370.555C76.8801 370.815 77.4001 370.945 78.0401 370.945C78.6701 370.945 79.1851 370.815 79.5851 370.555C79.9851 370.295 80.1851 369.95 80.1851 369.52C80.1851 369.22 80.0951 368.965 79.9151 368.755C79.7351 368.545 79.4851 368.38 79.1651 368.26C78.8451 368.14 78.4701 368.08 78.0401 368.08Z" fill="#5B5B5B"/>
<path d="M156.106 343.992V354H154.842V345.571L152.292 346.501V345.359L155.908 343.992H156.106ZM169.302 342.422H170.422V355.092H169.302V342.422ZM167.258 347.518H169.694V348.47H167.258V347.518ZM163.996 344.06H165.102C165.102 344.872 165.023 345.665 164.864 346.44C164.705 347.215 164.444 347.961 164.08 348.68C163.725 349.389 163.245 350.057 162.638 350.682C162.031 351.298 161.275 351.863 160.37 352.376L159.698 351.55C160.762 350.953 161.607 350.276 162.232 349.52C162.857 348.764 163.305 347.947 163.576 347.07C163.856 346.183 163.996 345.25 163.996 344.27V344.06ZM160.188 344.06H164.374V345.012H160.188V344.06ZM166.502 342.758H167.594V354.462H166.502V342.758Z" fill="black"/>
<path d="M35.3839 348.415H36.7779V351.271H35.3839V348.415ZM29.1449 350.591H43.0339V351.747H29.1449V350.591ZM36.0809 352.988C37.7243 352.988 39.0106 353.22 39.9399 353.685C40.8693 354.15 41.3339 354.801 41.3339 355.64C41.3339 356.49 40.8693 357.142 39.9399 357.595C39.0106 358.06 37.7243 358.292 36.0809 358.292C34.4263 358.292 33.1343 358.06 32.2049 357.595C31.2756 357.142 30.8109 356.49 30.8109 355.64C30.8109 354.801 31.2756 354.15 32.2049 353.685C33.1343 353.22 34.4263 352.988 36.0809 352.988ZM36.0809 354.093C34.8683 354.093 33.9219 354.229 33.2419 354.501C32.5733 354.762 32.2389 355.141 32.2389 355.64C32.2389 356.15 32.5733 356.541 33.2419 356.813C33.9219 357.074 34.8683 357.204 36.0809 357.204C37.2823 357.204 38.2229 357.074 38.9029 356.813C39.5829 356.541 39.9229 356.15 39.9229 355.64C39.9229 355.141 39.5829 354.762 38.9029 354.501C38.2229 354.229 37.2823 354.093 36.0809 354.093ZM35.1799 344.216H36.4209V344.675C36.4209 345.162 36.3133 345.621 36.0979 346.052C35.8939 346.471 35.6049 346.857 35.2309 347.208C34.8569 347.559 34.4149 347.871 33.9049 348.143C33.4063 348.404 32.8566 348.625 32.2559 348.806C31.6666 348.976 31.0546 349.101 30.4199 349.18L29.9099 348.058C30.4653 348.001 30.9979 347.905 31.5079 347.769C32.0293 347.622 32.5109 347.446 32.9529 347.242C33.4063 347.038 33.7973 346.8 34.1259 346.528C34.4546 346.256 34.7096 345.967 34.8909 345.661C35.0836 345.344 35.1799 345.015 35.1799 344.675V344.216ZM35.7579 344.216H36.9989V344.675C36.9989 345.015 37.0896 345.344 37.2709 345.661C37.4636 345.978 37.7243 346.273 38.0529 346.545C38.3929 346.806 38.7839 347.038 39.2259 347.242C39.6679 347.446 40.1496 347.622 40.6709 347.769C41.1923 347.905 41.7249 348.001 42.2689 348.058L41.7589 349.18C41.1243 349.101 40.5123 348.976 39.9229 348.806C39.3336 348.625 38.7839 348.404 38.2739 348.143C37.7753 347.871 37.3333 347.559 36.9479 347.208C36.5739 346.857 36.2793 346.471 36.0639 346.052C35.8599 345.621 35.7579 345.162 35.7579 344.675V344.216ZM30.4199 343.655H41.7759V344.794H30.4199V343.655ZM55.3066 342.941H56.7176V351.883H55.3066V342.941ZM56.1056 346.868H58.9786V348.058H56.1056V346.868ZM47.0446 352.563H48.4386V354.178H55.3066V352.563H56.7176V358.122H47.0446V352.563ZM48.4386 355.283V356.983H55.3066V355.283H48.4386ZM44.8176 344.522H53.8956V345.661H44.8176V344.522ZM49.3566 346.375C50.0933 346.375 50.7336 346.488 51.2776 346.715C51.8329 346.93 52.2636 347.242 52.5696 347.65C52.8756 348.047 53.0286 348.517 53.0286 349.061C53.0286 349.605 52.8756 350.081 52.5696 350.489C52.2636 350.897 51.8329 351.214 51.2776 351.441C50.7336 351.656 50.0933 351.764 49.3566 351.764C48.6199 351.764 47.9739 351.656 47.4186 351.441C46.8746 351.214 46.4439 350.897 46.1266 350.489C45.8206 350.081 45.6676 349.605 45.6676 349.061C45.6676 348.517 45.8206 348.047 46.1266 347.65C46.4439 347.242 46.8746 346.93 47.4186 346.715C47.9739 346.488 48.6199 346.375 49.3566 346.375ZM49.3566 347.446C48.6539 347.446 48.0873 347.593 47.6566 347.888C47.2373 348.183 47.0276 348.574 47.0276 349.061C47.0276 349.56 47.2373 349.956 47.6566 350.251C48.0873 350.546 48.6539 350.693 49.3566 350.693C50.0479 350.693 50.6089 350.546 51.0396 350.251C51.4703 349.956 51.6856 349.56 51.6856 349.061C51.6856 348.574 51.4703 348.183 51.0396 347.888C50.6203 347.593 50.0593 347.446 49.3566 347.446ZM48.6596 342.805H50.0706V345.134H48.6596V342.805ZM75.1621 342.941H76.5731V351.662H75.1621V342.941ZM76.1821 346.681H78.8341V347.854H76.1821V346.681ZM70.8951 343.944H72.3911C72.3911 345.236 72.1021 346.403 71.5241 347.446C70.9574 348.477 70.1357 349.361 69.0591 350.098C67.9824 350.835 66.6904 351.413 65.1831 351.832L64.6221 350.693C65.9594 350.342 67.0927 349.866 68.0221 349.265C68.9514 348.653 69.6597 347.95 70.1471 347.157C70.6457 346.364 70.8951 345.497 70.8951 344.556V343.944ZM65.3021 343.944H71.6941V345.083H65.3021V343.944ZM66.8831 352.376H76.5731V358.105H66.8831V352.376ZM75.1791 353.532H68.2771V356.966H75.1791V353.532ZM91.4807 342.941H92.8917V358.326H91.4807V342.941ZM86.9757 344.607H88.3697C88.3697 345.718 88.2337 346.789 87.9617 347.82C87.7011 348.851 87.2874 349.832 86.7207 350.761C86.1541 351.679 85.4174 352.535 84.5107 353.328C83.6041 354.121 82.5047 354.83 81.2127 355.453L80.4647 354.314C81.9494 353.6 83.1734 352.767 84.1367 351.815C85.1001 350.863 85.8141 349.803 86.2787 348.636C86.7434 347.457 86.9757 346.188 86.9757 344.828V344.607ZM81.1787 344.607H87.5707V345.746H81.1787V344.607ZM107.425 345.287H110.077V346.46H107.425V345.287ZM107.425 348.568H110.077V349.758H107.425V348.568ZM106.439 342.941H107.85V352.07H106.439V342.941ZM97.8544 352.801H107.85V358.326H106.439V353.957H97.8544V352.801ZM100.2 343.859C100.982 343.859 101.674 344.018 102.274 344.335C102.875 344.641 103.345 345.066 103.685 345.61C104.037 346.154 104.212 346.783 104.212 347.497C104.212 348.222 104.037 348.857 103.685 349.401C103.345 349.945 102.875 350.37 102.274 350.676C101.674 350.982 100.982 351.135 100.2 351.135C99.4411 351.135 98.7554 350.982 98.1434 350.676C97.5427 350.37 97.0667 349.945 96.7154 349.401C96.3641 348.857 96.1884 348.222 96.1884 347.497C96.1884 346.783 96.3641 346.154 96.7154 345.61C97.0667 345.066 97.5427 344.641 98.1434 344.335C98.7554 344.018 99.4411 343.859 100.2 343.859ZM100.2 345.066C99.7017 345.066 99.2541 345.168 98.8574 345.372C98.4607 345.576 98.1434 345.865 97.9054 346.239C97.6787 346.602 97.5654 347.021 97.5654 347.497C97.5654 347.984 97.6787 348.415 97.9054 348.789C98.1434 349.152 98.4607 349.435 98.8574 349.639C99.2541 349.843 99.7017 349.945 100.2 349.945C100.71 349.945 101.164 349.843 101.56 349.639C101.957 349.435 102.269 349.152 102.495 348.789C102.733 348.415 102.852 347.984 102.852 347.497C102.852 347.021 102.733 346.602 102.495 346.239C102.269 345.865 101.957 345.576 101.56 345.372C101.164 345.168 100.71 345.066 100.2 345.066Z" fill="black"/>
<rect x="28.25" y="393.25" width="148.5" height="25.5" rx="7.75" fill="white" stroke="#8C8C8C" stroke-width="0.5"/>
<path d="M74.6698 399.592H76.8138V410.424H74.6698V399.592ZM72.1258 403.912H74.9738V405.64H72.1258V403.912ZM70.0138 400.712H72.2378C72.2378 402.045 71.9711 403.251 71.4378 404.328C70.9045 405.405 70.1311 406.339 69.1178 407.128C68.1151 407.917 66.8938 408.541 65.4538 409L64.5738 407.304C65.7151 406.941 66.6911 406.483 67.5018 405.928C68.3125 405.363 68.9311 404.723 69.3578 404.008C69.7951 403.283 70.0138 402.504 70.0138 401.672V400.712ZM65.3418 400.712H71.3578V402.408H65.3418V400.712ZM67.1018 412.456H77.1818V414.168H67.1018V412.456ZM67.1018 409.352H69.2298V413.448H67.1018V409.352ZM88.6526 399.592H90.7806V408.168H88.6526V399.592ZM90.2046 403.048H92.7486V404.808H90.2046V403.048ZM84.4286 400.568H86.7166C86.7166 401.891 86.4499 403.08 85.9166 404.136C85.3832 405.181 84.6046 406.072 83.5806 406.808C82.5672 407.544 81.3352 408.115 79.8846 408.52L79.0206 406.824C80.2046 406.493 81.1966 406.072 81.9966 405.56C82.8072 405.037 83.4152 404.445 83.8206 403.784C84.2259 403.112 84.4286 402.392 84.4286 401.624V400.568ZM79.7086 400.568H85.7086V402.264H79.7086V400.568ZM85.9806 408.36C86.9832 408.36 87.8579 408.488 88.6046 408.744C89.3512 408.989 89.9272 409.341 90.3326 409.8C90.7486 410.248 90.9566 410.781 90.9566 411.4C90.9566 412.019 90.7486 412.552 90.3326 413C89.9272 413.459 89.3512 413.811 88.6046 414.056C87.8579 414.301 86.9832 414.424 85.9806 414.424C84.9886 414.424 84.1192 414.301 83.3726 414.056C82.6259 413.811 82.0446 413.459 81.6286 413C81.2126 412.552 81.0046 412.019 81.0046 411.4C81.0046 410.781 81.2126 410.248 81.6286 409.8C82.0446 409.341 82.6259 408.989 83.3726 408.744C84.1192 408.488 84.9886 408.36 85.9806 408.36ZM85.9806 410.008C85.3939 410.008 84.8819 410.061 84.4446 410.168C84.0179 410.275 83.6872 410.429 83.4526 410.632C83.2286 410.835 83.1166 411.091 83.1166 411.4C83.1166 411.699 83.2286 411.949 83.4526 412.152C83.6872 412.355 84.0179 412.509 84.4446 412.616C84.8819 412.723 85.3939 412.776 85.9806 412.776C86.5886 412.776 87.1059 412.723 87.5326 412.616C87.9592 412.509 88.2846 412.355 88.5086 412.152C88.7432 411.949 88.8606 411.699 88.8606 411.4C88.8606 411.091 88.7432 410.835 88.5086 410.632C88.2846 410.429 87.9592 410.275 87.5326 410.168C87.1059 410.061 86.5886 410.008 85.9806 410.008Z" fill="#00E3CD"/>
<path d="M44.2857 410H41.4286V407H44.2857V404.5H47.7143V407H50.5714V410H47.7143V412.5H44.2857V410ZM54 403V414C54 415.1 52.9714 416 51.7143 416H40.2857C39.0286 416 38 415.1 38 414V403C38 401.9 39.0286 401 40.2857 401H51.7143C52.9714 401 54 401.9 54 403ZM51.7143 403H40.2857V414H51.7143V403ZM52.8571 398H39.1429V400H52.8571V398Z" fill="#00E3CD"/>
<path d="M157 403.5L162 408.5L167 403.5H157Z" fill="#0C0C0C"/>
<path d="M91 461.5H88.5V479C88.5 480.375 89.625 481.5 91 481.5H108.5V479H91V461.5ZM111 456.5H96C94.625 456.5 93.5 457.625 93.5 459V474C93.5 475.375 94.625 476.5 96 476.5H111C112.375 476.5 113.5 475.375 113.5 474V459C113.5 457.625 112.375 456.5 111 456.5ZM111 474H96V459H111V474ZM102.25 472.75H104.75V467.75H109.75V465.25H104.75V460.25H102.25V465.25H97.25V467.75H102.25V472.75Z" fill="#0C0C0C"/>
<rect x="43" y="778" width="330" height="50" rx="8" fill="#2383BD"/>
<path d="M183.842 800.96H185.482V803.26H183.842V800.96ZM191.462 792.48H193.122V804.6H191.462V792.48ZM192.422 797.94H195.762V799.32H192.422V797.94ZM179.202 804.08L179.002 802.74C180.082 802.74 181.262 802.733 182.542 802.72C183.835 802.693 185.155 802.64 186.502 802.56C187.848 802.48 189.142 802.353 190.382 802.18L190.502 803.36C189.222 803.587 187.908 803.753 186.562 803.86C185.228 803.953 183.928 804.013 182.662 804.04C181.408 804.067 180.255 804.08 179.202 804.08ZM181.222 805.52H193.122V810.56H191.462V806.84H181.222V805.52ZM179.462 794.1H189.842V795.36H179.462V794.1ZM184.642 796.04C185.922 796.04 186.942 796.28 187.702 796.76C188.475 797.24 188.862 797.893 188.862 798.72C188.862 799.547 188.475 800.2 187.702 800.68C186.942 801.16 185.922 801.4 184.642 801.4C183.375 801.4 182.355 801.16 181.582 800.68C180.808 800.2 180.422 799.547 180.422 798.72C180.422 797.893 180.808 797.24 181.582 796.76C182.355 796.28 183.375 796.04 184.642 796.04ZM184.642 797.2C183.842 797.2 183.202 797.333 182.722 797.6C182.242 797.867 182.002 798.24 182.002 798.72C182.002 799.173 182.242 799.547 182.722 799.84C183.202 800.12 183.842 800.26 184.642 800.26C185.442 800.26 186.082 800.12 186.562 799.84C187.042 799.547 187.282 799.173 187.282 798.72C187.282 798.24 187.042 797.867 186.562 797.6C186.082 797.333 185.442 797.2 184.642 797.2ZM183.842 792.32H185.482V794.72H183.842V792.32ZM210.66 792.48H212.32V805.68H210.66V792.48ZM200.7 808.8H212.88V810.16H200.7V808.8ZM200.7 804.34H202.36V809.26H200.7V804.34ZM202.62 793.74C203.527 793.74 204.333 793.927 205.04 794.3C205.747 794.673 206.307 795.2 206.72 795.88C207.133 796.547 207.34 797.313 207.34 798.18C207.34 799.047 207.133 799.82 206.72 800.5C206.307 801.167 205.747 801.693 205.04 802.08C204.333 802.453 203.527 802.64 202.62 802.64C201.727 802.64 200.92 802.453 200.2 802.08C199.493 801.693 198.933 801.167 198.52 800.5C198.107 799.82 197.9 799.047 197.9 798.18C197.9 797.313 198.107 796.547 198.52 795.88C198.933 795.2 199.493 794.673 200.2 794.3C200.92 793.927 201.727 793.74 202.62 793.74ZM202.62 795.18C202.033 795.18 201.507 795.307 201.04 795.56C200.573 795.813 200.2 796.167 199.92 796.62C199.653 797.073 199.52 797.593 199.52 798.18C199.52 798.78 199.653 799.307 199.92 799.76C200.2 800.2 200.573 800.547 201.04 800.8C201.507 801.053 202.033 801.18 202.62 801.18C203.207 801.18 203.733 801.053 204.2 800.8C204.68 800.547 205.053 800.2 205.32 799.76C205.587 799.307 205.72 798.78 205.72 798.18C205.72 797.593 205.587 797.073 205.32 796.62C205.053 796.167 204.68 795.813 204.2 795.56C203.733 795.307 203.207 795.18 202.62 795.18Z" fill="white"/>
<defs>
<filter id="filter0_d_481_6628" x="212" y="203" width="190" height="54" filterUnits="userSpaceOnUse" color-interpolation-filters="sRGB">
<feFlood flood-opacity="0" result="BackgroundImageFix"/>
<feColorMatrix in="SourceAlpha" type="matrix" values="0 0 0 0 0 0 0 0 0 0 0 0 0 0 0 0 0 0 127 0" result="hardAlpha"/>
<feOffset dy="4"/>
<feGaussianBlur stdDeviation="2"/>
<feComposite in2="hardAlpha" operator="out"/>
<feColorMatrix type="matrix" values="0 0 0 0 0 0 0 0 0 0 0 0 0 0 0 0 0 0 0.25 0"/>
<feBlend mode="normal" in2="BackgroundImageFix" result="effect1_dropShadow_481_6628"/>
<feBlend mode="normal" in="SourceGraphic" in2="effect1_dropShadow_481_6628" result="shape"/>
</filter>
<filter id="filter1_d_481_6628" x="212" y="266" width="190" height="54" filterUnits="userSpaceOnUse" color-interpolation-filters="sRGB">
<feFlood flood-opacity="0" result="BackgroundImageFix"/>
<feColorMatrix in="SourceAlpha" type="matrix" values="0 0 0 0 0 0 0 0 0 0 0 0 0 0 0 0 0 0 127 0" result="hardAlpha"/>
<feOffset dy="4"/>
<feGaussianBlur stdDeviation="2"/>
<feComposite in2="hardAlpha" operator="out"/>
<feColorMatrix type="matrix" values="0 0 0 0 0 0 0 0 0 0 0 0 0 0 0 0 0 0 0.25 0"/>
<feBlend mode="normal" in2="BackgroundImageFix" result="effect1_dropShadow_481_6628"/>
<feBlend mode="normal" in="SourceGraphic" in2="effect1_dropShadow_481_6628" result="shape"/>
</filter>
<filter id="filter2_d_481_6628" x="10" y="201" width="184" height="117" filterUnits="userSpaceOnUse" color-interpolation-filters="sRGB">
<feFlood flood-opacity="0" result="BackgroundImageFix"/>
<feColorMatrix in="SourceAlpha" type="matrix" values="0 0 0 0 0 0 0 0 0 0 0 0 0 0 0 0 0 0 127 0" result="hardAlpha"/>
<feOffset dy="4"/>
<feGaussianBlur stdDeviation="2"/>
<feComposite in2="hardAlpha" operator="out"/>
<feColorMatrix type="matrix" values="0 0 0 0 0 0 0 0 0 0 0 0 0 0 0 0 0 0 0.25 0"/>
<feBlend mode="normal" in2="BackgroundImageFix" result="effect1_dropShadow_481_6628"/>
<feBlend mode="normal" in="SourceGraphic" in2="effect1_dropShadow_481_6628" result="shape"/>
</filter>
<filter id="filter3_d_481_6628" x="10" y="326" width="184" height="117" filterUnits="userSpaceOnUse" color-interpolation-filters="sRGB">
<feFlood flood-opacity="0" result="BackgroundImageFix"/>
<feColorMatrix in="SourceAlpha" type="matrix" values="0 0 0 0 0 0 0 0 0 0 0 0 0 0 0 0 0 0 127 0" result="hardAlpha"/>
<feOffset dy="4"/>
<feGaussianBlur stdDeviation="2"/>
<feComposite in2="hardAlpha" operator="out"/>
<feColorMatrix type="matrix" values="0 0 0 0 0 0 0 0 0 0 0 0 0 0 0 0 0 0 0.25 0"/>
<feBlend mode="normal" in2="BackgroundImageFix" result="effect1_dropShadow_481_6628"/>
<feBlend mode="normal" in="SourceGraphic" in2="effect1_dropShadow_481_6628" result="shape"/>
</filter>
</defs>
</svg>
