<svg width="412" height="917" viewBox="0 0 412 917" fill="none" xmlns="http://www.w3.org/2000/svg">
<rect width="412" height="917" fill="#F9FAFC"/>
<rect width="412" height="32" fill="white"/>
<path d="M27.416 12.0469V12.7578L23.2939 22H21.9609L26.0762 13.0859H20.6895V12.0469H27.416ZM28.9404 21.3301C28.9404 21.1159 29.0065 20.9359 29.1387 20.79C29.2754 20.6396 29.4714 20.5645 29.7266 20.5645C29.9818 20.5645 30.1755 20.6396 30.3076 20.79C30.4443 20.9359 30.5127 21.1159 30.5127 21.3301C30.5127 21.5397 30.4443 21.7174 30.3076 21.8633C30.1755 22.0091 29.9818 22.082 29.7266 22.082C29.4714 22.082 29.2754 22.0091 29.1387 21.8633C29.0065 21.7174 28.9404 21.5397 28.9404 21.3301ZM28.9473 15.2939C28.9473 15.0798 29.0133 14.8997 29.1455 14.7539C29.2822 14.6035 29.4782 14.5283 29.7334 14.5283C29.9886 14.5283 30.1823 14.6035 30.3145 14.7539C30.4512 14.8997 30.5195 15.0798 30.5195 15.2939C30.5195 15.5036 30.4512 15.6813 30.3145 15.8271C30.1823 15.973 29.9886 16.0459 29.7334 16.0459C29.4782 16.0459 29.2822 15.973 29.1455 15.8271C29.0133 15.6813 28.9473 15.5036 28.9473 15.2939ZM34.0947 16.4014H34.9971C35.4391 16.4014 35.8037 16.3285 36.0908 16.1826C36.3825 16.0322 36.599 15.8294 36.7402 15.5742C36.8861 15.3145 36.959 15.0228 36.959 14.6992C36.959 14.3164 36.8952 13.9951 36.7676 13.7354C36.64 13.4756 36.4486 13.2796 36.1934 13.1475C35.9382 13.0153 35.6146 12.9492 35.2227 12.9492C34.8672 12.9492 34.5527 13.0199 34.2793 13.1611C34.0104 13.2979 33.7985 13.4938 33.6436 13.749C33.4932 14.0042 33.418 14.305 33.418 14.6514H32.1533C32.1533 14.1455 32.2809 13.6852 32.5361 13.2705C32.7913 12.8558 33.1491 12.5254 33.6094 12.2793C34.0742 12.0332 34.612 11.9102 35.2227 11.9102C35.8242 11.9102 36.3506 12.0173 36.8018 12.2314C37.2529 12.4411 37.6038 12.7555 37.8545 13.1748C38.1051 13.5895 38.2305 14.1068 38.2305 14.7266C38.2305 14.9772 38.1712 15.2461 38.0527 15.5332C37.9388 15.8158 37.7588 16.0801 37.5127 16.3262C37.2712 16.5723 36.9567 16.7751 36.5693 16.9346C36.182 17.0895 35.7171 17.167 35.1748 17.167H34.0947V16.4014ZM34.0947 17.4404V16.6816H35.1748C35.8083 16.6816 36.3324 16.7568 36.7471 16.9072C37.1618 17.0576 37.4876 17.2581 37.7246 17.5088C37.9661 17.7594 38.1348 18.0352 38.2305 18.3359C38.3307 18.6322 38.3809 18.9284 38.3809 19.2246C38.3809 19.6895 38.3011 20.1019 38.1416 20.4619C37.9867 20.8219 37.7656 21.1273 37.4785 21.3779C37.196 21.6286 36.8633 21.8177 36.4805 21.9453C36.0977 22.0729 35.6807 22.1367 35.2295 22.1367C34.7965 22.1367 34.3887 22.0752 34.0059 21.9521C33.6276 21.8291 33.2926 21.6514 33.001 21.4189C32.7093 21.182 32.4814 20.8926 32.3174 20.5508C32.1533 20.2044 32.0713 19.8102 32.0713 19.3682H33.3359C33.3359 19.7145 33.4111 20.0176 33.5615 20.2773C33.7165 20.5371 33.9352 20.7399 34.2178 20.8857C34.5049 21.027 34.8421 21.0977 35.2295 21.0977C35.6169 21.0977 35.9495 21.0316 36.2275 20.8994C36.5101 20.7627 36.7266 20.5576 36.877 20.2842C37.0319 20.0107 37.1094 19.6667 37.1094 19.252C37.1094 18.8372 37.0228 18.4977 36.8496 18.2334C36.6764 17.9645 36.4303 17.7663 36.1113 17.6387C35.7969 17.5065 35.4255 17.4404 34.9971 17.4404H34.0947ZM46.3721 16.2305V17.748C46.3721 18.5638 46.2992 19.252 46.1533 19.8125C46.0075 20.373 45.7979 20.8242 45.5244 21.166C45.251 21.5078 44.9206 21.7562 44.5332 21.9111C44.1504 22.0615 43.7174 22.1367 43.2344 22.1367C42.8516 22.1367 42.4984 22.0889 42.1748 21.9932C41.8512 21.8975 41.5596 21.7448 41.2998 21.5352C41.0446 21.321 40.8258 21.043 40.6436 20.7012C40.4613 20.3594 40.3223 19.9447 40.2266 19.457C40.1309 18.9694 40.083 18.3997 40.083 17.748V16.2305C40.083 15.4147 40.1559 14.7311 40.3018 14.1797C40.4521 13.6283 40.6641 13.1862 40.9375 12.8535C41.2109 12.5163 41.5391 12.2747 41.9219 12.1289C42.3092 11.9831 42.7422 11.9102 43.2207 11.9102C43.6081 11.9102 43.9635 11.958 44.2871 12.0537C44.6152 12.1449 44.9069 12.293 45.1621 12.498C45.4173 12.6986 45.6338 12.9674 45.8115 13.3047C45.9938 13.6374 46.1328 14.0452 46.2285 14.5283C46.3242 15.0114 46.3721 15.5788 46.3721 16.2305ZM45.1006 17.9531V16.0186C45.1006 15.5719 45.0732 15.18 45.0186 14.8428C44.9684 14.501 44.8932 14.2093 44.793 13.9678C44.6927 13.7262 44.5651 13.5303 44.4102 13.3799C44.2598 13.2295 44.0843 13.1201 43.8838 13.0518C43.6878 12.9788 43.4668 12.9424 43.2207 12.9424C42.9199 12.9424 42.6533 12.9993 42.4209 13.1133C42.1885 13.2227 41.9925 13.3981 41.833 13.6396C41.6781 13.8812 41.5596 14.1979 41.4775 14.5898C41.3955 14.9818 41.3545 15.458 41.3545 16.0186V17.9531C41.3545 18.3997 41.3796 18.7939 41.4297 19.1357C41.4844 19.4775 41.5641 19.7738 41.6689 20.0244C41.7738 20.2705 41.9014 20.4733 42.0518 20.6328C42.2021 20.7923 42.3753 20.9108 42.5713 20.9883C42.7718 21.0612 42.9928 21.0977 43.2344 21.0977C43.5443 21.0977 43.8154 21.0384 44.0479 20.9199C44.2803 20.8014 44.474 20.6169 44.6289 20.3662C44.7884 20.111 44.9069 19.7852 44.9844 19.3887C45.0618 18.9876 45.1006 18.5091 45.1006 17.9531ZM55.4844 12.9287L52.1895 22H50.8428L54.6367 12.0469H55.5049L55.4844 12.9287ZM58.2461 22L54.9443 12.9287L54.9238 12.0469H55.792L59.5996 22H58.2461ZM58.0752 18.3154V19.3955H52.4834V18.3154H58.0752ZM61.3496 12.0469H62.6279L65.8887 20.1611L69.1426 12.0469H70.4277L66.3809 22H65.3828L61.3496 12.0469ZM60.9326 12.0469H62.0605L62.2451 18.1172V22H60.9326V12.0469ZM69.71 12.0469H70.8379V22H69.5254V18.1172L69.71 12.0469Z" fill="#0C0C0C"/>
<path d="M322.792 12.9478L324.375 14.5311C328.309 10.5966 334.69 10.5966 338.625 14.5311L340.208 12.9478C335.403 8.1424 327.605 8.1424 322.792 12.9478ZM329.125 19.2811L331.5 21.6561L333.875 19.2811C332.569 17.967 330.439 17.967 329.125 19.2811ZM325.958 16.1145L327.542 17.6978C329.727 15.5128 333.273 15.5128 335.458 17.6978L337.042 16.1145C333.986 13.0586 329.022 13.0586 325.958 16.1145Z" fill="#0C0C0C"/>
<path d="M362.75 9.33301H365.25V22.6663H362.75V9.33301ZM352.75 17.6663H355.25V22.6663H352.75V17.6663ZM357.75 13.4997H360.25V22.6663H357.75V13.4997Z" fill="#0C0C0C"/>
<path d="M391.362 9.55896L391.1 24.4576L382.823 24.3119L383.085 9.41322L385.568 9.45694L385.597 7.80153L388.908 7.85983L388.879 9.51524L391.362 9.55896ZM389.678 11.1852L384.711 11.0978L384.653 14.4086L389.619 14.496L389.678 11.1852Z" fill="#0C0C0C"/>
<rect width="412" height="35" transform="translate(0 32)" fill="white"/>
<path opacity="0.9" d="M150.995 38.896H165.059V41.416H150.995V38.896ZM148.523 46.888H168.659V49.408H148.523V46.888ZM163.139 38.896H166.283V40.672C166.283 41.616 166.259 42.632 166.211 43.72C166.163 44.808 165.971 46.072 165.635 47.512L162.443 47.488C162.795 46.032 162.995 44.768 163.043 43.696C163.107 42.624 163.139 41.616 163.139 40.672V38.896ZM150.875 51.736H166.187V59.896H150.875V51.736ZM163.067 54.232H154.019V57.376H163.067V54.232ZM175.737 39.256C176.729 39.256 177.601 39.488 178.353 39.952C179.121 40.4 179.721 41.032 180.153 41.848C180.601 42.664 180.825 43.608 180.825 44.68C180.825 45.736 180.601 46.68 180.153 47.512C179.721 48.328 179.121 48.968 178.353 49.432C177.601 49.88 176.729 50.104 175.737 50.104C174.761 50.104 173.889 49.88 173.121 49.432C172.353 48.968 171.753 48.328 171.321 47.512C170.889 46.68 170.673 45.736 170.673 44.68C170.673 43.608 170.889 42.664 171.321 41.848C171.753 41.032 172.353 40.4 173.121 39.952C173.889 39.488 174.761 39.256 175.737 39.256ZM175.737 41.92C175.305 41.92 174.921 42.032 174.585 42.256C174.249 42.48 173.993 42.792 173.817 43.192C173.641 43.592 173.553 44.088 173.553 44.68C173.553 45.256 173.641 45.752 173.817 46.168C173.993 46.584 174.249 46.904 174.585 47.128C174.921 47.336 175.305 47.44 175.737 47.44C176.169 47.44 176.553 47.336 176.889 47.128C177.225 46.904 177.481 46.584 177.657 46.168C177.849 45.752 177.945 45.256 177.945 44.68C177.945 44.088 177.849 43.592 177.657 43.192C177.481 42.792 177.225 42.48 176.889 42.256C176.553 42.032 176.169 41.92 175.737 41.92ZM186.489 37.912H189.537V51.16H186.489V37.912ZM183.849 43.288H187.377V45.856H183.849V43.288ZM181.833 38.296H184.809V51.088H181.833V38.296ZM174.249 52.168H189.537V60.136H186.345V54.712H174.249V52.168ZM214.795 46.288H218.707V48.928H214.795V46.288ZM212.395 37.864H215.611V60.088H212.395V37.864ZM198.883 40H202.051V53.824H198.883V40ZM198.883 52.024H200.779C202.363 52.024 204.011 51.96 205.723 51.832C207.435 51.704 209.187 51.464 210.979 51.112L211.315 53.704C209.459 54.088 207.651 54.352 205.891 54.496C204.131 54.624 202.427 54.688 200.779 54.688H198.883V52.024ZM222.785 44.824H238.313V47.344H222.785V44.824ZM220.289 49.888H240.425V52.456H220.289V49.888ZM228.665 51.4H231.833V60.136H228.665V51.4ZM222.785 38.896H225.977V46H222.785V38.896ZM257.679 37.888H260.871V60.112H257.679V37.888ZM251.127 40.192H254.271C254.271 41.888 254.103 43.512 253.767 45.064C253.447 46.6 252.903 48.048 252.135 49.408C251.383 50.768 250.343 52.032 249.015 53.2C247.703 54.352 246.063 55.408 244.095 56.368L242.415 53.848C244.559 52.808 246.263 51.664 247.527 50.416C248.807 49.152 249.727 47.728 250.287 46.144C250.847 44.544 251.127 42.752 251.127 40.768V40.192ZM243.615 40.192H252.615V42.736H243.615V40.192Z" fill="#0C0C0C"/>
<path d="M32.6312 54.7375L26.9062 49L32.6312 43.2625L30.8687 41.5L23.3687 49L30.8687 56.5L32.6312 54.7375Z" fill="#0C0C0C"/>
<path d="M100.695 120.392H116.055V126.896H100.695V120.392ZM112.935 122.744H103.815V124.52H112.935V122.744ZM99.3028 106.448H117.423V108.872H99.3028V106.448ZM108.399 109.4C110.799 109.4 112.639 109.672 113.919 110.216C115.199 110.744 115.839 111.528 115.839 112.568C115.839 113.624 115.199 114.424 113.919 114.968C112.639 115.496 110.799 115.76 108.399 115.76C106.031 115.76 104.199 115.496 102.903 114.968C101.607 114.424 100.959 113.624 100.959 112.568C100.959 111.528 101.607 110.744 102.903 110.216C104.199 109.672 106.031 109.4 108.399 109.4ZM108.399 111.56C107.039 111.56 106.031 111.64 105.375 111.8C104.719 111.96 104.391 112.216 104.391 112.568C104.391 112.936 104.719 113.2 105.375 113.36C106.031 113.52 107.039 113.6 108.399 113.6C109.791 113.6 110.807 113.52 111.447 113.36C112.103 113.2 112.431 112.936 112.431 112.568C112.431 112.216 112.103 111.96 111.447 111.8C110.807 111.64 109.791 111.56 108.399 111.56ZM106.815 104.744H109.983V108.176H106.815V104.744ZM98.3428 116.792H118.455V119.264H98.3428V116.792ZM106.815 114.992H109.983V118.088H106.815V114.992ZM122.173 105.488H138.757V107.888H122.173V105.488ZM122.341 110.696H138.565V113.096H122.341V110.696ZM125.005 106.424H128.197V112.232H125.005V106.424ZM132.733 106.424H135.925V112.232H132.733V106.424ZM120.421 114.224H140.533V116.72H120.421V114.224ZM122.725 117.944H138.085V123.488H125.917V125.552H122.749V121.352H134.941V120.224H122.725V117.944ZM122.749 124.664H138.685V126.992H122.749V124.664ZM157.931 104.864H161.099V127.16H157.931V104.864ZM154.451 112.88H158.579V115.448H154.451V112.88ZM143.267 119.408H145.091C146.307 119.408 147.443 119.392 148.499 119.36C149.571 119.328 150.619 119.272 151.643 119.192C152.667 119.096 153.715 118.96 154.787 118.784L155.075 121.376C153.971 121.552 152.891 121.688 151.835 121.784C150.779 121.88 149.699 121.944 148.595 121.976C147.507 122.008 146.339 122.024 145.091 122.024H143.267V119.408ZM143.243 106.76H153.251V115.136H146.435V120.176H143.267V112.616H150.107V109.304H143.243V106.76ZM172.857 106.184H175.617V107.792C175.617 108.752 175.481 109.688 175.209 110.6C174.953 111.496 174.569 112.344 174.057 113.144C173.545 113.944 172.913 114.672 172.161 115.328C171.425 115.968 170.577 116.52 169.617 116.984C168.657 117.448 167.601 117.792 166.449 118.016L165.081 115.352C166.073 115.176 166.977 114.912 167.793 114.56C168.625 114.192 169.353 113.752 169.977 113.24C170.601 112.728 171.129 112.176 171.561 111.584C171.993 110.976 172.313 110.352 172.521 109.712C172.745 109.056 172.857 108.416 172.857 107.792V106.184ZM173.481 106.184H176.265V107.792C176.265 108.432 176.369 109.08 176.577 109.736C176.801 110.392 177.121 111.024 177.537 111.632C177.969 112.224 178.497 112.768 179.121 113.264C179.745 113.76 180.465 114.192 181.281 114.56C182.097 114.912 183.017 115.176 184.041 115.352L182.673 118.016C181.521 117.792 180.465 117.448 179.505 116.984C178.545 116.52 177.689 115.968 176.937 115.328C176.201 114.688 175.569 113.968 175.041 113.168C174.529 112.368 174.137 111.512 173.865 110.6C173.609 109.688 173.481 108.752 173.481 107.792V106.184ZM164.601 121.808H184.737V124.424H164.601V121.808ZM196.747 118.952H199.987V127.112H196.747V118.952ZM204.427 118.952H207.667V127.112H204.427V118.952ZM192.211 117.272H212.323V119.84H192.211V117.272ZM202.219 105.656C203.803 105.656 205.195 105.856 206.395 106.256C207.611 106.656 208.555 107.232 209.227 107.984C209.899 108.736 210.235 109.616 210.235 110.624C210.235 111.632 209.899 112.512 209.227 113.264C208.555 114 207.611 114.576 206.395 114.992C205.195 115.392 203.803 115.592 202.219 115.592C200.635 115.592 199.235 115.392 198.019 114.992C196.819 114.576 195.875 114 195.187 113.264C194.515 112.512 194.179 111.632 194.179 110.624C194.179 109.616 194.515 108.736 195.187 107.984C195.875 107.232 196.819 106.656 198.019 106.256C199.235 105.856 200.635 105.656 202.219 105.656ZM202.219 108.176C201.243 108.176 200.395 108.272 199.675 108.464C198.971 108.656 198.427 108.936 198.043 109.304C197.659 109.656 197.467 110.096 197.467 110.624C197.467 111.152 197.659 111.6 198.043 111.968C198.427 112.32 198.971 112.592 199.675 112.784C200.395 112.96 201.243 113.048 202.219 113.048C203.195 113.048 204.035 112.96 204.739 112.784C205.443 112.592 205.987 112.32 206.371 111.968C206.771 111.6 206.971 111.152 206.971 110.624C206.971 110.096 206.771 109.656 206.371 109.304C205.987 108.936 205.443 108.656 204.739 108.464C204.035 108.272 203.195 108.176 202.219 108.176ZM219.449 106.064H222.089V108.032C222.089 109.52 221.857 110.92 221.393 112.232C220.945 113.544 220.257 114.688 219.329 115.664C218.401 116.64 217.209 117.376 215.753 117.872L214.073 115.304C215.353 114.904 216.385 114.328 217.169 113.576C217.953 112.824 218.529 111.968 218.897 111.008C219.265 110.048 219.449 109.056 219.449 108.032V106.064ZM220.097 106.064H222.689V107.888C222.689 108.864 222.857 109.808 223.193 110.72C223.529 111.616 224.065 112.416 224.801 113.12C225.537 113.808 226.489 114.344 227.657 114.728L226.001 117.224C224.641 116.744 223.521 116.048 222.641 115.136C221.777 114.224 221.137 113.152 220.721 111.92C220.305 110.672 220.097 109.328 220.097 107.888V106.064ZM229.673 104.912H232.889V117.92H229.673V104.912ZM225.353 118.496C227.705 118.496 229.561 118.88 230.921 119.648C232.281 120.4 232.961 121.448 232.961 122.792C232.961 124.168 232.281 125.232 230.921 125.984C229.561 126.752 227.705 127.136 225.353 127.136C223.001 127.136 221.145 126.752 219.785 125.984C218.425 125.232 217.745 124.168 217.745 122.792C217.745 121.448 218.425 120.4 219.785 119.648C221.145 118.88 223.001 118.496 225.353 118.496ZM225.353 120.968C224.393 120.968 223.585 121.032 222.929 121.16C222.273 121.288 221.769 121.496 221.417 121.784C221.081 122.056 220.913 122.392 220.913 122.792C220.913 123.208 221.081 123.56 221.417 123.848C221.769 124.12 222.273 124.328 222.929 124.472C223.585 124.6 224.393 124.664 225.353 124.664C226.313 124.664 227.121 124.6 227.777 124.472C228.433 124.328 228.929 124.12 229.265 123.848C229.601 123.56 229.769 123.208 229.769 122.792C229.769 122.392 229.601 122.056 229.265 121.784C228.929 121.496 228.433 121.288 227.777 121.16C227.121 121.032 226.313 120.968 225.353 120.968ZM225.617 108.944H230.153V111.536H225.617V108.944ZM236.343 115.616H256.455V118.136H236.343V115.616ZM244.791 113H247.959V116.312H244.791V113ZM246.351 119.192C248.767 119.192 250.655 119.544 252.015 120.248C253.375 120.936 254.055 121.912 254.055 123.176C254.055 124.456 253.375 125.432 252.015 126.104C250.655 126.792 248.767 127.136 246.351 127.136C243.951 127.136 242.063 126.792 240.687 126.104C239.327 125.432 238.647 124.456 238.647 123.176C238.647 121.912 239.327 120.936 240.687 120.248C242.063 119.544 243.951 119.192 246.351 119.192ZM246.351 121.592C245.359 121.592 244.527 121.648 243.855 121.76C243.199 121.872 242.703 122.048 242.367 122.288C242.031 122.512 241.863 122.808 241.863 123.176C241.863 123.528 242.031 123.824 242.367 124.064C242.703 124.288 243.199 124.464 243.855 124.592C244.527 124.704 245.359 124.76 246.351 124.76C247.359 124.76 248.191 124.704 248.847 124.592C249.503 124.464 249.999 124.288 250.335 124.064C250.671 123.824 250.839 123.528 250.839 123.176C250.839 122.808 250.671 122.512 250.335 122.288C249.999 122.048 249.503 121.872 248.847 121.76C248.191 121.648 247.359 121.592 246.351 121.592ZM238.911 105.536H242.055V107.408H250.743V105.536H253.911V113.96H238.911V105.536ZM242.055 109.784V111.464H250.743V109.784H242.055ZM269.173 108.104H274.837V110.648H269.173V108.104ZM269.173 112.544H274.933V115.088H269.173V112.544ZM273.829 104.912H277.045V117.92H273.829V104.912ZM259.333 106.496H269.845V116.72H259.333V106.496ZM266.725 109.016H262.477V114.224H266.725V109.016ZM269.509 118.496C271.861 118.496 273.717 118.88 275.077 119.648C276.437 120.4 277.117 121.448 277.117 122.792C277.117 124.168 276.437 125.232 275.077 125.984C273.717 126.752 271.861 127.136 269.509 127.136C267.157 127.136 265.301 126.752 263.941 125.984C262.581 125.232 261.901 124.168 261.901 122.792C261.901 121.448 262.581 120.4 263.941 119.648C265.301 118.88 267.157 118.496 269.509 118.496ZM269.509 120.944C268.549 120.944 267.741 121.008 267.085 121.136C266.429 121.264 265.925 121.472 265.573 121.76C265.237 122.032 265.069 122.384 265.069 122.816C265.069 123.232 265.237 123.584 265.573 123.872C265.925 124.144 266.429 124.352 267.085 124.496C267.741 124.624 268.549 124.688 269.509 124.688C270.469 124.688 271.277 124.624 271.933 124.496C272.589 124.352 273.085 124.144 273.421 123.872C273.757 123.584 273.925 123.232 273.925 122.816C273.925 122.384 273.757 122.032 273.421 121.76C273.085 121.472 272.589 121.264 271.933 121.136C271.277 121.008 270.469 120.944 269.509 120.944ZM292.547 110H296.747V112.592H292.547V110ZM295.907 104.912H299.123V117.752H295.907V104.912ZM284.291 118.64H299.123V126.896H284.291V118.64ZM295.979 121.136H287.435V124.376H295.979V121.136ZM285.659 106.952H288.251V108.368C288.251 109.76 288.027 111.088 287.579 112.352C287.131 113.616 286.443 114.728 285.515 115.688C284.603 116.632 283.427 117.336 281.987 117.8L280.403 115.28C281.315 114.976 282.099 114.584 282.755 114.104C283.427 113.608 283.971 113.048 284.387 112.424C284.819 111.8 285.139 111.144 285.347 110.456C285.555 109.768 285.659 109.072 285.659 108.368V106.952ZM286.331 106.952H288.875V108.344C288.875 109.208 289.051 110.072 289.403 110.936C289.755 111.784 290.299 112.552 291.035 113.24C291.787 113.928 292.747 114.472 293.915 114.872L292.355 117.368C290.979 116.904 289.843 116.216 288.947 115.304C288.067 114.392 287.411 113.336 286.979 112.136C286.547 110.936 286.331 109.672 286.331 108.344V106.952ZM281.267 106.016H293.219V108.56H281.267V106.016Z" fill="black"/>
<path d="M122.121 166.379V169.754H112.822V166.379H122.121ZM137.15 153.318V179H132.914V158.346L126.639 160.473V156.975L136.641 153.318H137.15ZM150.492 167.1L147.117 166.273L148.506 153.406H162.305V156.992H152.021L151.318 163.268C151.717 163.033 152.268 162.805 152.971 162.582C153.674 162.348 154.477 162.23 155.379 162.23C156.586 162.23 157.664 162.43 158.613 162.828C159.574 163.215 160.389 163.783 161.057 164.533C161.725 165.271 162.234 166.174 162.586 167.24C162.938 168.295 163.113 169.484 163.113 170.809C163.113 171.992 162.938 173.1 162.586 174.131C162.246 175.162 161.73 176.07 161.039 176.855C160.348 177.641 159.475 178.256 158.42 178.701C157.377 179.135 156.141 179.352 154.711 179.352C153.645 179.352 152.619 179.199 151.635 178.895C150.662 178.578 149.789 178.115 149.016 177.506C148.242 176.885 147.621 176.123 147.152 175.221C146.684 174.307 146.414 173.258 146.344 172.074H150.492C150.598 172.906 150.826 173.615 151.178 174.201C151.541 174.775 152.021 175.215 152.619 175.52C153.217 175.824 153.908 175.977 154.693 175.977C155.408 175.977 156.023 175.854 156.539 175.607C157.055 175.35 157.482 174.986 157.822 174.518C158.174 174.037 158.432 173.475 158.596 172.83C158.771 172.186 158.859 171.471 158.859 170.686C158.859 169.936 158.76 169.25 158.561 168.629C158.373 168.008 158.086 167.469 157.699 167.012C157.324 166.555 156.85 166.203 156.275 165.957C155.701 165.699 155.039 165.57 154.289 165.57C153.281 165.57 152.508 165.717 151.969 166.01C151.441 166.303 150.949 166.666 150.492 167.1ZM183.188 164.059V168.242C183.188 170.246 182.988 171.957 182.59 173.375C182.203 174.781 181.641 175.924 180.902 176.803C180.164 177.682 179.279 178.326 178.248 178.736C177.229 179.146 176.086 179.352 174.82 179.352C173.812 179.352 172.875 179.223 172.008 178.965C171.152 178.707 170.379 178.303 169.688 177.752C168.996 177.201 168.404 176.492 167.912 175.625C167.432 174.746 167.057 173.697 166.787 172.479C166.529 171.26 166.4 169.848 166.4 168.242V164.059C166.4 162.043 166.6 160.344 166.998 158.961C167.396 157.566 167.965 156.436 168.703 155.568C169.441 154.689 170.32 154.051 171.34 153.652C172.371 153.254 173.52 153.055 174.785 153.055C175.805 153.055 176.742 153.184 177.598 153.441C178.465 153.688 179.238 154.08 179.918 154.619C180.609 155.158 181.195 155.861 181.676 156.729C182.168 157.584 182.543 158.621 182.801 159.84C183.059 161.047 183.188 162.453 183.188 164.059ZM178.951 168.84V163.426C178.951 162.406 178.893 161.51 178.775 160.736C178.658 159.951 178.482 159.289 178.248 158.75C178.025 158.199 177.744 157.754 177.404 157.414C177.064 157.062 176.678 156.811 176.244 156.658C175.811 156.494 175.324 156.412 174.785 156.412C174.129 156.412 173.543 156.541 173.027 156.799C172.512 157.045 172.078 157.443 171.727 157.994C171.375 158.545 171.105 159.271 170.918 160.174C170.742 161.064 170.654 162.148 170.654 163.426V168.84C170.654 169.871 170.713 170.779 170.83 171.564C170.947 172.35 171.123 173.023 171.357 173.586C171.592 174.137 171.873 174.594 172.201 174.957C172.541 175.309 172.928 175.566 173.361 175.73C173.807 175.895 174.293 175.977 174.82 175.977C175.488 175.977 176.08 175.848 176.596 175.59C177.111 175.332 177.545 174.922 177.896 174.359C178.248 173.785 178.512 173.041 178.688 172.127C178.863 171.213 178.951 170.117 178.951 168.84ZM191.186 174.922L191.168 177.945C191.168 179.141 190.869 180.371 190.271 181.637C189.674 182.902 188.883 183.945 187.898 184.766L185.631 183.447C185.959 182.92 186.258 182.387 186.527 181.848C186.797 181.309 187.014 180.734 187.178 180.125C187.342 179.516 187.424 178.842 187.424 178.104V174.922H191.186ZM207.814 153.248H208.342V156.711H208.043C206.531 156.711 205.225 156.945 204.123 157.414C203.033 157.883 202.137 158.527 201.434 159.348C200.73 160.168 200.203 161.129 199.852 162.23C199.512 163.32 199.342 164.48 199.342 165.711V169.736C199.342 170.756 199.453 171.658 199.676 172.443C199.898 173.217 200.209 173.867 200.607 174.395C201.018 174.91 201.486 175.303 202.014 175.572C202.541 175.842 203.109 175.977 203.719 175.977C204.352 175.977 204.926 175.848 205.441 175.59C205.957 175.32 206.396 174.951 206.76 174.482C207.123 174.014 207.398 173.457 207.586 172.812C207.773 172.168 207.867 171.465 207.867 170.703C207.867 169.977 207.773 169.297 207.586 168.664C207.41 168.02 207.146 167.457 206.795 166.977C206.443 166.484 206.004 166.104 205.477 165.834C204.961 165.553 204.363 165.412 203.684 165.412C202.84 165.412 202.072 165.611 201.381 166.01C200.701 166.408 200.15 166.93 199.729 167.574C199.318 168.207 199.096 168.881 199.061 169.596L197.443 169.068C197.537 167.979 197.777 167 198.164 166.133C198.562 165.266 199.084 164.527 199.729 163.918C200.373 163.309 201.117 162.846 201.961 162.529C202.816 162.201 203.754 162.037 204.773 162.037C206.016 162.037 207.094 162.271 208.008 162.74C208.922 163.209 209.678 163.848 210.275 164.656C210.885 165.453 211.336 166.367 211.629 167.398C211.934 168.418 212.086 169.484 212.086 170.598C212.086 171.828 211.898 172.977 211.523 174.043C211.148 175.098 210.598 176.023 209.871 176.82C209.156 177.617 208.283 178.238 207.252 178.684C206.232 179.129 205.072 179.352 203.771 179.352C202.4 179.352 201.176 179.088 200.098 178.561C199.031 178.033 198.123 177.307 197.373 176.381C196.635 175.455 196.072 174.389 195.686 173.182C195.299 171.975 195.105 170.697 195.105 169.35V167.592C195.105 165.646 195.352 163.812 195.844 162.09C196.336 160.355 197.092 158.826 198.111 157.502C199.143 156.178 200.461 155.141 202.066 154.391C203.672 153.629 205.588 153.248 207.814 153.248ZM232.16 164.059V168.242C232.16 170.246 231.961 171.957 231.562 173.375C231.176 174.781 230.613 175.924 229.875 176.803C229.137 177.682 228.252 178.326 227.221 178.736C226.201 179.146 225.059 179.352 223.793 179.352C222.785 179.352 221.848 179.223 220.98 178.965C220.125 178.707 219.352 178.303 218.66 177.752C217.969 177.201 217.377 176.492 216.885 175.625C216.404 174.746 216.029 173.697 215.76 172.479C215.502 171.26 215.373 169.848 215.373 168.242V164.059C215.373 162.043 215.572 160.344 215.971 158.961C216.369 157.566 216.938 156.436 217.676 155.568C218.414 154.689 219.293 154.051 220.312 153.652C221.344 153.254 222.492 153.055 223.758 153.055C224.777 153.055 225.715 153.184 226.57 153.441C227.438 153.688 228.211 154.08 228.891 154.619C229.582 155.158 230.168 155.861 230.648 156.729C231.141 157.584 231.516 158.621 231.773 159.84C232.031 161.047 232.16 162.453 232.16 164.059ZM227.924 168.84V163.426C227.924 162.406 227.865 161.51 227.748 160.736C227.631 159.951 227.455 159.289 227.221 158.75C226.998 158.199 226.717 157.754 226.377 157.414C226.037 157.062 225.65 156.811 225.217 156.658C224.783 156.494 224.297 156.412 223.758 156.412C223.102 156.412 222.516 156.541 222 156.799C221.484 157.045 221.051 157.443 220.699 157.994C220.348 158.545 220.078 159.271 219.891 160.174C219.715 161.064 219.627 162.148 219.627 163.426V168.84C219.627 169.871 219.686 170.779 219.803 171.564C219.92 172.35 220.096 173.023 220.33 173.586C220.564 174.137 220.846 174.594 221.174 174.957C221.514 175.309 221.9 175.566 222.334 175.73C222.779 175.895 223.266 175.977 223.793 175.977C224.461 175.977 225.053 175.848 225.568 175.59C226.084 175.332 226.518 174.922 226.869 174.359C227.221 173.785 227.484 173.041 227.66 172.127C227.836 171.213 227.924 170.117 227.924 168.84ZM252.621 164.059V168.242C252.621 170.246 252.422 171.957 252.023 173.375C251.637 174.781 251.074 175.924 250.336 176.803C249.598 177.682 248.713 178.326 247.682 178.736C246.662 179.146 245.52 179.352 244.254 179.352C243.246 179.352 242.309 179.223 241.441 178.965C240.586 178.707 239.812 178.303 239.121 177.752C238.43 177.201 237.838 176.492 237.346 175.625C236.865 174.746 236.49 173.697 236.221 172.479C235.963 171.26 235.834 169.848 235.834 168.242V164.059C235.834 162.043 236.033 160.344 236.432 158.961C236.83 157.566 237.398 156.436 238.137 155.568C238.875 154.689 239.754 154.051 240.773 153.652C241.805 153.254 242.953 153.055 244.219 153.055C245.238 153.055 246.176 153.184 247.031 153.441C247.898 153.688 248.672 154.08 249.352 154.619C250.043 155.158 250.629 155.861 251.109 156.729C251.602 157.584 251.977 158.621 252.234 159.84C252.492 161.047 252.621 162.453 252.621 164.059ZM248.385 168.84V163.426C248.385 162.406 248.326 161.51 248.209 160.736C248.092 159.951 247.916 159.289 247.682 158.75C247.459 158.199 247.178 157.754 246.838 157.414C246.498 157.062 246.111 156.811 245.678 156.658C245.244 156.494 244.758 156.412 244.219 156.412C243.562 156.412 242.977 156.541 242.461 156.799C241.945 157.045 241.512 157.443 241.16 157.994C240.809 158.545 240.539 159.271 240.352 160.174C240.176 161.064 240.088 162.148 240.088 163.426V168.84C240.088 169.871 240.146 170.779 240.264 171.564C240.381 172.35 240.557 173.023 240.791 173.586C241.025 174.137 241.307 174.594 241.635 174.957C241.975 175.309 242.361 175.566 242.795 175.73C243.24 175.895 243.727 175.977 244.254 175.977C244.922 175.977 245.514 175.848 246.029 175.59C246.545 175.332 246.979 174.922 247.33 174.359C247.682 173.785 247.945 173.041 248.121 172.127C248.297 171.213 248.385 170.117 248.385 168.84ZM265.483 165.644H268.471V172.88H265.483V165.644ZM279.919 149.264H282.907V173.996H279.919V149.264ZM260.695 178.64H283.699V181.088H260.695V178.64ZM260.695 171.584H263.683V179.288H260.695V171.584ZM256.483 166.76L256.087 164.276C258.103 164.276 260.287 164.264 262.639 164.24C265.015 164.192 267.439 164.108 269.911 163.988C272.383 163.844 274.771 163.628 277.075 163.34L277.291 165.5C274.963 165.884 272.563 166.172 270.091 166.364C267.643 166.532 265.255 166.64 262.927 166.688C260.599 166.736 258.451 166.76 256.483 166.76ZM273.295 168.488H280.711V170.648H273.295V168.488ZM266.671 150.56C268.279 150.56 269.683 150.8 270.883 151.28C272.083 151.736 273.007 152.396 273.655 153.26C274.327 154.1 274.663 155.096 274.663 156.248C274.663 157.376 274.327 158.372 273.655 159.236C273.007 160.1 272.083 160.76 270.883 161.216C269.683 161.672 268.279 161.9 266.671 161.9C265.087 161.9 263.683 161.672 262.459 161.216C261.259 160.76 260.323 160.1 259.651 159.236C259.003 158.372 258.679 157.376 258.679 156.248C258.679 155.096 259.003 154.1 259.651 153.26C260.323 152.396 261.259 151.736 262.459 151.28C263.683 150.8 265.087 150.56 266.671 150.56ZM266.671 152.792C265.135 152.792 263.887 153.104 262.927 153.728C261.967 154.352 261.487 155.192 261.487 156.248C261.487 157.28 261.967 158.108 262.927 158.732C263.887 159.356 265.135 159.668 266.671 159.668C268.183 159.668 269.419 159.356 270.379 158.732C271.339 158.108 271.819 157.28 271.819 156.248C271.819 155.528 271.603 154.916 271.171 154.412C270.739 153.908 270.139 153.512 269.371 153.224C268.603 152.936 267.703 152.792 266.671 152.792Z" fill="black"/>
<line x1="206.5" y1="194" x2="206.5" y2="774" stroke="#8C8C8C"/>
<g filter="url(#filter0_d_481_6468)">
<rect x="13" y="203" width="176" height="109" rx="16" fill="white"/>
</g>
<path d="M32.3667 245.277V256H31.0117V246.969L28.2798 247.965V246.742L32.1543 245.277H32.3667ZM38.0649 250.924L36.981 250.646L37.5156 245.336H42.9868V246.588H38.6655L38.3433 249.489C38.5386 249.376 38.7852 249.271 39.083 249.174C39.3857 249.076 39.7324 249.027 40.123 249.027C40.6162 249.027 41.0581 249.113 41.4487 249.284C41.8394 249.45 42.1714 249.689 42.4448 250.001C42.7231 250.314 42.9355 250.69 43.082 251.129C43.2285 251.569 43.3018 252.06 43.3018 252.602C43.3018 253.114 43.231 253.585 43.0894 254.015C42.9526 254.445 42.7451 254.821 42.4668 255.143C42.1885 255.46 41.8369 255.707 41.4121 255.883C40.9922 256.059 40.4966 256.146 39.9253 256.146C39.4956 256.146 39.0879 256.088 38.7021 255.971C38.3213 255.849 37.9795 255.666 37.6768 255.421C37.3789 255.172 37.1348 254.865 36.9443 254.499C36.7588 254.127 36.6416 253.693 36.5928 253.195H37.8818C37.9404 253.595 38.0576 253.932 38.2334 254.206C38.4092 254.479 38.6387 254.687 38.9219 254.828C39.21 254.965 39.5444 255.033 39.9253 255.033C40.2476 255.033 40.5332 254.977 40.7822 254.865C41.0312 254.752 41.2412 254.591 41.4121 254.381C41.583 254.171 41.7124 253.917 41.8003 253.62C41.8931 253.322 41.9395 252.987 41.9395 252.616C41.9395 252.279 41.8931 251.967 41.8003 251.679C41.7075 251.391 41.5684 251.139 41.3828 250.924C41.2021 250.709 40.98 250.543 40.7163 250.426C40.4526 250.304 40.1499 250.243 39.8081 250.243C39.354 250.243 39.0098 250.304 38.7754 250.426C38.5459 250.548 38.3091 250.714 38.0649 250.924ZM46.1655 254.389V255.48C46.1655 255.924 46.0532 256.393 45.8286 256.886C45.604 257.384 45.2891 257.799 44.8838 258.131L44.1147 257.597C44.271 257.382 44.4028 257.162 44.5103 256.938C44.6177 256.718 44.6982 256.488 44.752 256.249C44.8105 256.015 44.8398 255.766 44.8398 255.502V254.389H46.1655ZM52.9478 245.321H53.0649V246.471H52.9478C52.23 246.471 51.6294 246.588 51.146 246.823C50.6626 247.052 50.2793 247.362 49.9961 247.753C49.7129 248.139 49.5078 248.573 49.3809 249.057C49.2588 249.54 49.1978 250.031 49.1978 250.529V252.096C49.1978 252.57 49.2539 252.99 49.3662 253.356C49.4785 253.717 49.6323 254.022 49.8276 254.271C50.0229 254.521 50.2427 254.708 50.4868 254.835C50.7358 254.962 50.9946 255.026 51.2632 255.026C51.5757 255.026 51.854 254.967 52.0981 254.85C52.3423 254.728 52.5474 254.56 52.7134 254.345C52.8843 254.125 53.0137 253.866 53.1016 253.568C53.1895 253.271 53.2334 252.943 53.2334 252.587C53.2334 252.27 53.1943 251.964 53.1162 251.671C53.0381 251.374 52.9185 251.11 52.7573 250.88C52.5962 250.646 52.3936 250.463 52.1494 250.331C51.9102 250.194 51.6245 250.126 51.2925 250.126C50.9165 250.126 50.5649 250.219 50.2378 250.404C49.9155 250.585 49.6494 250.824 49.4395 251.122C49.2344 251.415 49.1172 251.735 49.0879 252.082L48.3701 252.074C48.4385 251.527 48.5654 251.061 48.751 250.675C48.9414 250.285 49.1758 249.967 49.4541 249.723C49.7373 249.474 50.0522 249.293 50.3989 249.181C50.7505 249.064 51.1216 249.005 51.5122 249.005C52.0444 249.005 52.5034 249.105 52.8892 249.306C53.2749 249.506 53.5923 249.774 53.8413 250.111C54.0903 250.443 54.2734 250.819 54.3906 251.239C54.5127 251.654 54.5737 252.082 54.5737 252.521C54.5737 253.024 54.5029 253.495 54.3613 253.935C54.2197 254.374 54.0073 254.76 53.7241 255.092C53.4458 255.424 53.1016 255.683 52.6914 255.868C52.2812 256.054 51.8052 256.146 51.2632 256.146C50.687 256.146 50.1841 256.029 49.7544 255.795C49.3247 255.556 48.9683 255.238 48.6851 254.843C48.4019 254.447 48.1895 254.008 48.0479 253.524C47.9062 253.041 47.8354 252.55 47.8354 252.052V251.415C47.8354 250.663 47.9111 249.926 48.0625 249.203C48.2139 248.48 48.4751 247.826 48.8462 247.24C49.2222 246.654 49.7422 246.188 50.4062 245.841C51.0703 245.495 51.9175 245.321 52.9478 245.321ZM62.8794 249.818V251.444C62.8794 252.318 62.8013 253.056 62.645 253.656C62.4888 254.257 62.2642 254.74 61.9712 255.106C61.6782 255.473 61.3242 255.739 60.9092 255.905C60.499 256.066 60.0352 256.146 59.5176 256.146C59.1074 256.146 58.729 256.095 58.3823 255.993C58.0356 255.89 57.7231 255.727 57.4448 255.502C57.1714 255.272 56.937 254.975 56.7417 254.608C56.5464 254.242 56.3975 253.798 56.2949 253.275C56.1924 252.753 56.1411 252.143 56.1411 251.444V249.818C56.1411 248.944 56.2192 248.212 56.3755 247.621C56.5366 247.03 56.7637 246.557 57.0566 246.2C57.3496 245.839 57.7012 245.58 58.1113 245.424C58.5264 245.268 58.9902 245.189 59.5029 245.189C59.918 245.189 60.2988 245.241 60.6455 245.343C60.9971 245.441 61.3096 245.6 61.583 245.819C61.8564 246.034 62.0884 246.322 62.2788 246.684C62.4741 247.04 62.623 247.477 62.7256 247.995C62.8281 248.512 62.8794 249.12 62.8794 249.818ZM61.5171 251.664V249.591C61.5171 249.113 61.4878 248.693 61.4292 248.332C61.3755 247.965 61.2949 247.653 61.1875 247.394C61.0801 247.135 60.9434 246.925 60.7773 246.764C60.6162 246.603 60.4282 246.486 60.2134 246.413C60.0034 246.334 59.7666 246.295 59.5029 246.295C59.1807 246.295 58.895 246.356 58.646 246.479C58.397 246.596 58.187 246.784 58.0161 247.042C57.8501 247.301 57.7231 247.641 57.6353 248.061C57.5474 248.48 57.5034 248.991 57.5034 249.591V251.664C57.5034 252.143 57.5303 252.565 57.584 252.931C57.6426 253.297 57.728 253.615 57.8403 253.883C57.9526 254.147 58.0894 254.364 58.2505 254.535C58.4116 254.706 58.5972 254.833 58.8071 254.916C59.022 254.994 59.2588 255.033 59.5176 255.033C59.8496 255.033 60.1401 254.97 60.3892 254.843C60.6382 254.716 60.8457 254.518 61.0117 254.25C61.1826 253.976 61.3096 253.627 61.3926 253.202C61.4756 252.772 61.5171 252.26 61.5171 251.664ZM71.3169 249.818V251.444C71.3169 252.318 71.2388 253.056 71.0825 253.656C70.9263 254.257 70.7017 254.74 70.4087 255.106C70.1157 255.473 69.7617 255.739 69.3467 255.905C68.9365 256.066 68.4727 256.146 67.9551 256.146C67.5449 256.146 67.1665 256.095 66.8198 255.993C66.4731 255.89 66.1606 255.727 65.8823 255.502C65.6089 255.272 65.3745 254.975 65.1792 254.608C64.9839 254.242 64.835 253.798 64.7324 253.275C64.6299 252.753 64.5786 252.143 64.5786 251.444V249.818C64.5786 248.944 64.6567 248.212 64.813 247.621C64.9741 247.03 65.2012 246.557 65.4941 246.2C65.7871 245.839 66.1387 245.58 66.5488 245.424C66.9639 245.268 67.4277 245.189 67.9404 245.189C68.3555 245.189 68.7363 245.241 69.083 245.343C69.4346 245.441 69.7471 245.6 70.0205 245.819C70.2939 246.034 70.5259 246.322 70.7163 246.684C70.9116 247.04 71.0605 247.477 71.1631 247.995C71.2656 248.512 71.3169 249.12 71.3169 249.818ZM69.9546 251.664V249.591C69.9546 249.113 69.9253 248.693 69.8667 248.332C69.813 247.965 69.7324 247.653 69.625 247.394C69.5176 247.135 69.3809 246.925 69.2148 246.764C69.0537 246.603 68.8657 246.486 68.6509 246.413C68.4409 246.334 68.2041 246.295 67.9404 246.295C67.6182 246.295 67.3325 246.356 67.0835 246.479C66.8345 246.596 66.6245 246.784 66.4536 247.042C66.2876 247.301 66.1606 247.641 66.0728 248.061C65.9849 248.48 65.9409 248.991 65.9409 249.591V251.664C65.9409 252.143 65.9678 252.565 66.0215 252.931C66.0801 253.297 66.1655 253.615 66.2778 253.883C66.3901 254.147 66.5269 254.364 66.688 254.535C66.8491 254.706 67.0347 254.833 67.2446 254.916C67.4595 254.994 67.6963 255.033 67.9551 255.033C68.2871 255.033 68.5776 254.97 68.8267 254.843C69.0757 254.716 69.2832 254.518 69.4492 254.25C69.6201 253.976 69.7471 253.627 69.8301 253.202C69.9131 252.772 69.9546 252.26 69.9546 251.664ZM76.7638 250.435H78.0088V253.45H76.7638V250.435ZM82.7788 243.61H84.0238V253.915H82.7788V243.61ZM74.7688 255.85H84.3538V256.87H74.7688V255.85ZM74.7688 252.91H76.0138V256.12H74.7688V252.91ZM73.0138 250.9L72.8488 249.865C73.6888 249.865 74.5988 249.86 75.5788 249.85C76.5688 249.83 77.5788 249.795 78.6088 249.745C79.6388 249.685 80.6338 249.595 81.5938 249.475L81.6838 250.375C80.7138 250.535 79.7138 250.655 78.6838 250.735C77.6638 250.805 76.6688 250.85 75.6988 250.87C74.7288 250.89 73.8338 250.9 73.0138 250.9ZM80.0188 251.62H83.1088V252.52H80.0188V251.62ZM77.2588 244.15C77.9288 244.15 78.5138 244.25 79.0138 244.45C79.5138 244.64 79.8988 244.915 80.1688 245.275C80.4488 245.625 80.5888 246.04 80.5888 246.52C80.5888 246.99 80.4488 247.405 80.1688 247.765C79.8988 248.125 79.5138 248.4 79.0138 248.59C78.5138 248.78 77.9288 248.875 77.2588 248.875C76.5988 248.875 76.0138 248.78 75.5038 248.59C75.0038 248.4 74.6138 248.125 74.3338 247.765C74.0638 247.405 73.9288 246.99 73.9288 246.52C73.9288 246.04 74.0638 245.625 74.3338 245.275C74.6138 244.915 75.0038 244.64 75.5038 244.45C76.0138 244.25 76.5988 244.15 77.2588 244.15ZM77.2588 245.08C76.6188 245.08 76.0988 245.21 75.6988 245.47C75.2988 245.73 75.0988 246.08 75.0988 246.52C75.0988 246.95 75.2988 247.295 75.6988 247.555C76.0988 247.815 76.6188 247.945 77.2588 247.945C77.8888 247.945 78.4038 247.815 78.8038 247.555C79.2038 247.295 79.4038 246.95 79.4038 246.52C79.4038 246.22 79.3138 245.965 79.1338 245.755C78.9538 245.545 78.7038 245.38 78.3838 245.26C78.0638 245.14 77.6888 245.08 77.2588 245.08Z" fill="#5B5B5B"/>
<path d="M155.106 220.992V231H153.842V222.571L151.292 223.501V222.359L154.908 220.992H155.106ZM168.302 219.422H169.422V232.092H168.302V219.422ZM166.258 224.518H168.694V225.47H166.258V224.518ZM162.996 221.06H164.102C164.102 221.872 164.023 222.665 163.864 223.44C163.705 224.215 163.444 224.961 163.08 225.68C162.725 226.389 162.245 227.057 161.638 227.682C161.031 228.298 160.275 228.863 159.37 229.376L158.698 228.55C159.762 227.953 160.607 227.276 161.232 226.52C161.857 225.764 162.305 224.947 162.576 224.07C162.856 223.183 162.996 222.25 162.996 221.27V221.06ZM159.188 221.06H163.374V222.012H159.188V221.06ZM165.502 219.758H166.594V231.462H165.502V219.758Z" fill="black"/>
<path d="M38.8486 219.941H40.2596V228.662H38.8486V219.941ZM39.8686 223.681H42.5206V224.854H39.8686V223.681ZM34.5816 220.944H36.0776C36.0776 222.236 35.7886 223.403 35.2106 224.446C34.6439 225.477 33.8223 226.361 32.7456 227.098C31.6689 227.835 30.3769 228.413 28.8696 228.832L28.3086 227.693C29.6459 227.342 30.7793 226.866 31.7086 226.265C32.6379 225.653 33.3463 224.95 33.8336 224.157C34.3323 223.364 34.5816 222.497 34.5816 221.556V220.944ZM28.9886 220.944H35.3806V222.083H28.9886V220.944ZM30.5696 229.376H40.2596V235.105H30.5696V229.376ZM38.8656 230.532H31.9636V233.966H38.8656V230.532ZM54.3683 219.941H55.7793V235.326H54.3683V219.941ZM55.4563 225.993H58.2953V227.2H55.4563V225.993ZM44.5763 221.25H45.9703V225.296H50.3393V221.25H51.7333V231.637H44.5763V221.25ZM45.9703 226.418V230.464H50.3393V226.418H45.9703ZM65.7569 220.995H66.9979V222.185C66.9979 222.854 66.8789 223.488 66.6409 224.089C66.4143 224.69 66.0969 225.251 65.6889 225.772C65.2923 226.282 64.8276 226.741 64.2949 227.149C63.7736 227.557 63.2126 227.903 62.6119 228.186C62.0226 228.469 61.4219 228.685 60.8099 228.832L60.1809 227.659C60.7136 227.546 61.2463 227.37 61.7789 227.132C62.3229 226.894 62.8329 226.605 63.3089 226.265C63.7849 225.914 64.2043 225.523 64.5669 225.092C64.9409 224.661 65.2299 224.202 65.4339 223.715C65.6493 223.216 65.7569 222.706 65.7569 222.185V220.995ZM66.0289 220.995H67.2359V222.185C67.2359 222.706 67.3436 223.216 67.5589 223.715C67.7743 224.202 68.0633 224.661 68.4259 225.092C68.7999 225.523 69.2249 225.914 69.7009 226.265C70.1769 226.605 70.6813 226.9 71.2139 227.149C71.7579 227.387 72.3019 227.557 72.8459 227.659L72.1999 228.832C71.5879 228.685 70.9873 228.469 70.3979 228.186C69.8086 227.903 69.2476 227.557 68.7149 227.149C68.1936 226.741 67.7289 226.282 67.3209 225.772C66.9129 225.251 66.5956 224.69 66.3689 224.089C66.1423 223.488 66.0289 222.854 66.0289 222.185V220.995ZM59.6029 232.079H73.5429V233.252H59.6029V232.079ZM80.2574 220.791H87.4314V227.081H80.2574V220.791ZM86.0544 221.93H81.6344V225.959H86.0544V221.93ZM90.6444 219.941H92.0554V227.846H90.6444V219.941ZM82.1104 228.628H92.0554V232.334H83.5214V234.493H82.1444V231.297H90.6614V229.75H82.1104V228.628ZM82.1444 234.017H92.5654V235.156H82.1444V234.017ZM101.914 221.539H103.274C103.274 222.65 103.161 223.738 102.934 224.803C102.707 225.857 102.328 226.866 101.795 227.829C101.262 228.792 100.537 229.693 99.6191 230.532C98.7011 231.371 97.5507 232.13 96.1681 232.81L95.4031 231.705C96.6157 231.116 97.6357 230.458 98.4631 229.733C99.3017 229.008 99.9704 228.226 100.469 227.387C100.979 226.548 101.347 225.653 101.574 224.701C101.801 223.749 101.914 222.746 101.914 221.692V221.539ZM96.2361 221.539H102.628V222.695H96.2361V221.539ZM101.693 225.347V226.452L95.6921 227.013L95.4541 225.772L101.693 225.347ZM106.3 219.941H107.711V235.326H106.3V219.941ZM112.521 228.237H123.078V229.376H112.521V228.237ZM110.736 232.164H124.676V233.337H110.736V232.164ZM112.521 221.267H122.925V222.423H113.949V228.577H112.521V221.267ZM113.507 224.684H122.585V225.823H113.507V224.684Z" fill="black"/>
<path d="M91 333.5H88.5V351C88.5 352.375 89.625 353.5 91 353.5H108.5V351H91V333.5ZM111 328.5H96C94.625 328.5 93.5 329.625 93.5 331V346C93.5 347.375 94.625 348.5 96 348.5H111C112.375 348.5 113.5 347.375 113.5 346V331C113.5 329.625 112.375 328.5 111 328.5ZM111 346H96V331H111V346ZM102.25 344.75H104.75V339.75H109.75V337.25H104.75V332.25H102.25V337.25H97.25V339.75H102.25V344.75Z" fill="#0C0C0C"/>
<rect x="27.25" y="270.25" width="148.5" height="91.5" rx="7.75" fill="white" stroke="#8C8C8C" stroke-width="0.5"/>
<path d="M74.6698 336.592H76.8138V347.424H74.6698V336.592ZM72.1258 340.912H74.9738V342.64H72.1258V340.912ZM70.0138 337.712H72.2378C72.2378 339.045 71.9711 340.251 71.4378 341.328C70.9045 342.405 70.1311 343.339 69.1178 344.128C68.1151 344.917 66.8938 345.541 65.4538 346L64.5738 344.304C65.7151 343.941 66.6911 343.483 67.5018 342.928C68.3125 342.363 68.9311 341.723 69.3578 341.008C69.7951 340.283 70.0138 339.504 70.0138 338.672V337.712ZM65.3418 337.712H71.3578V339.408H65.3418V337.712ZM67.1018 349.456H77.1818V351.168H67.1018V349.456ZM67.1018 346.352H69.2298V350.448H67.1018V346.352ZM88.6526 336.592H90.7806V345.168H88.6526V336.592ZM90.2046 340.048H92.7486V341.808H90.2046V340.048ZM84.4286 337.568H86.7166C86.7166 338.891 86.4499 340.08 85.9166 341.136C85.3832 342.181 84.6046 343.072 83.5806 343.808C82.5672 344.544 81.3352 345.115 79.8846 345.52L79.0206 343.824C80.2046 343.493 81.1966 343.072 81.9966 342.56C82.8072 342.037 83.4152 341.445 83.8206 340.784C84.2259 340.112 84.4286 339.392 84.4286 338.624V337.568ZM79.7086 337.568H85.7086V339.264H79.7086V337.568ZM85.9806 345.36C86.9832 345.36 87.8579 345.488 88.6046 345.744C89.3512 345.989 89.9272 346.341 90.3326 346.8C90.7486 347.248 90.9566 347.781 90.9566 348.4C90.9566 349.019 90.7486 349.552 90.3326 350C89.9272 350.459 89.3512 350.811 88.6046 351.056C87.8579 351.301 86.9832 351.424 85.9806 351.424C84.9886 351.424 84.1192 351.301 83.3726 351.056C82.6259 350.811 82.0446 350.459 81.6286 350C81.2126 349.552 81.0046 349.019 81.0046 348.4C81.0046 347.781 81.2126 347.248 81.6286 346.8C82.0446 346.341 82.6259 345.989 83.3726 345.744C84.1192 345.488 84.9886 345.36 85.9806 345.36ZM85.9806 347.008C85.3939 347.008 84.8819 347.061 84.4446 347.168C84.0179 347.275 83.6872 347.429 83.4526 347.632C83.2286 347.835 83.1166 348.091 83.1166 348.4C83.1166 348.699 83.2286 348.949 83.4526 349.152C83.6872 349.355 84.0179 349.509 84.4446 349.616C84.8819 349.723 85.3939 349.776 85.9806 349.776C86.5886 349.776 87.1059 349.723 87.5326 349.616C87.9592 349.509 88.2846 349.355 88.5086 349.152C88.7432 348.949 88.8606 348.699 88.8606 348.4C88.8606 348.091 88.7432 347.835 88.5086 347.632C88.2846 347.429 87.9592 347.275 87.5326 347.168C87.1059 347.061 86.5886 347.008 85.9806 347.008Z" fill="#00E3CD"/>
<path d="M44.2857 347H41.4286V344H44.2857V341.5H47.7143V344H50.5714V347H47.7143V349.5H44.2857V347ZM54 340V351C54 352.1 52.9714 353 51.7143 353H40.2857C39.0286 353 38 352.1 38 351V340C38 338.9 39.0286 338 40.2857 338H51.7143C52.9714 338 54 338.9 54 340ZM51.7143 340H40.2857V351H51.7143V340ZM52.8571 335H39.1429V337H52.8571V335Z" fill="#00E3CD"/>
<path d="M156 285.5L161 280.5L166 285.5H156Z" fill="#0C0C0C"/>
<path d="M37.1348 289.333C37.1348 290.25 37.8173 291 38.6516 291H50.7864C51.6207 291 52.3033 290.25 52.3033 289.333V286.833H37.1348V289.333ZM38.6516 288.5H50.7864V289.333H38.6516V288.5Z" fill="#F89C74"/>
<path d="M49.7701 283.083C48.2912 283.083 48.185 283.917 47.2446 283.917C46.342 283.917 46.1676 283.083 44.719 283.083C43.2401 283.083 43.1339 283.917 42.1935 283.917C41.2909 283.917 41.1165 283.083 39.6679 283.083C38.189 283.083 38.0828 283.917 37.1423 283.917V285.583C38.5834 285.583 38.7881 284.75 39.6831 284.75C40.5856 284.75 40.76 285.583 42.2086 285.583C43.6876 285.583 43.7937 284.75 44.7342 284.75C45.6367 284.75 45.8111 285.583 47.2597 285.583C48.7387 285.583 48.8448 284.75 49.7853 284.75C50.6878 284.75 50.8471 285.567 52.3033 285.583L52.2957 283.933C51.0746 283.658 51.067 283.083 49.7701 283.083Z" fill="#F89C74"/>
<path d="M52.3033 281C52.3184 277.667 49.0572 276 44.719 276C40.3884 276 37.1348 277.667 37.1348 281V281.833H52.3033V281ZM38.7881 280.167C39.4176 278.342 42.148 277.667 44.719 277.667C47.2294 277.667 49.2165 278.275 50.1721 279.325C50.3996 279.583 50.5665 279.858 50.6651 280.167H38.7881Z" fill="#F89C74"/>
<path d="M59.4093 277.28H61.1693V278.688C61.1693 279.616 61.0146 280.507 60.7053 281.36C60.3959 282.203 59.9266 282.939 59.2973 283.568C58.6679 284.197 57.8733 284.667 56.9133 284.976L55.8733 283.28C56.4919 283.088 57.0253 282.832 57.4733 282.512C57.9213 282.181 58.2839 281.813 58.5613 281.408C58.8493 280.992 59.0626 280.555 59.2013 280.096C59.3399 279.627 59.4093 279.157 59.4093 278.688V277.28ZM59.8413 277.28H61.5693V278.688C61.5693 279.147 61.6386 279.6 61.7773 280.048C61.9159 280.485 62.1186 280.901 62.3853 281.296C62.6626 281.68 63.0199 282.021 63.4573 282.32C63.8946 282.619 64.4173 282.859 65.0253 283.04L63.9853 284.72C63.0359 284.421 62.2519 283.973 61.6333 283.376C61.0253 282.779 60.5719 282.08 60.2733 281.28C59.9853 280.469 59.8413 279.605 59.8413 278.688V277.28ZM58.1453 286.08H68.2413V291.424H66.1133V287.776H58.1453V286.08ZM66.1133 276.608H68.2413V285.44H66.1133V276.608ZM80.816 276.576H82.944V291.44H80.816V276.576ZM71.376 277.76H73.488V281.376H76.56V277.76H78.672V287.984H71.376V277.76ZM73.488 283.024V286.288H76.56V283.024H73.488Z" fill="#F89C74"/>
<path d="M52.0356 307.78C51.8467 307.325 51.3178 307 50.6944 307H40.3056C39.6822 307 39.1628 307.325 38.9644 307.78L37 312.409V318.591C37 319.016 37.425 319.364 37.9444 319.364H38.8889C39.4083 319.364 39.8333 319.016 39.8333 318.591V317.818H51.1667V318.591C51.1667 319.016 51.5917 319.364 52.1111 319.364H53.0556C53.575 319.364 54 319.016 54 318.591V312.409L52.0356 307.78ZM40.6361 308.545H50.3544L51.3744 310.949H39.6161L40.6361 308.545ZM52.1111 316.273H38.8889V312.409H52.1111V316.273Z" fill="#66C5CC"/>
<path d="M41.25 315.5C42.0324 315.5 42.6667 314.981 42.6667 314.341C42.6667 313.701 42.0324 313.182 41.25 313.182C40.4676 313.182 39.8333 313.701 39.8333 314.341C39.8333 314.981 40.4676 315.5 41.25 315.5Z" fill="#66C5CC"/>
<path d="M49.75 315.5C50.5324 315.5 51.1667 314.981 51.1667 314.341C51.1667 313.701 50.5324 313.182 49.75 313.182C48.9676 313.182 48.3333 313.701 48.3333 314.341C48.3333 314.981 48.9676 315.5 49.75 315.5Z" fill="#66C5CC"/>
<path d="M40.7778 321.682H44.5556V320.136L50.2222 322.455H46.4444V324L40.7778 321.682Z" fill="#66C5CC"/>
<path d="M58.3504 307.856H67.7264V309.552H58.3504V307.856ZM57.0544 317.904H70.4624V319.632H57.0544V317.904ZM59.8704 313.248H61.9664V318.464H59.8704V313.248ZM67.1184 307.856H69.2464V309.296C69.2464 309.893 69.2358 310.533 69.2144 311.216C69.2038 311.888 69.1611 312.629 69.0864 313.44C69.0224 314.251 68.9051 315.152 68.7344 316.144L66.6224 315.936C66.8678 314.528 67.0118 313.291 67.0544 312.224C67.0971 311.147 67.1184 310.171 67.1184 309.296V307.856ZM63.5344 313.248H65.6144V318.464H63.5344V313.248ZM71.7412 314.224H85.1492V315.888H71.7412V314.224ZM77.3892 312.656H79.5012V314.848H77.3892V312.656ZM73.4212 311.712H83.7412V313.328H73.4212V311.712ZM73.4212 306.976H83.6132V308.592H75.5332V312.64H73.4212V306.976ZM74.9252 309.36H83.2932V310.912H74.9252V309.36ZM78.4292 316.56C80.0612 316.56 81.3252 316.768 82.2212 317.184C83.1279 317.6 83.5812 318.203 83.5812 318.992C83.5812 319.781 83.1279 320.384 82.2212 320.8C81.3252 321.216 80.0612 321.424 78.4292 321.424C76.8079 321.424 75.5439 321.216 74.6372 320.8C73.7412 320.384 73.2932 319.781 73.2932 318.992C73.2932 318.203 73.7412 317.6 74.6372 317.184C75.5439 316.768 76.8079 316.56 78.4292 316.56ZM78.4292 318.112C77.4052 318.112 76.6479 318.181 76.1572 318.32C75.6665 318.459 75.4212 318.683 75.4212 318.992C75.4212 319.301 75.6665 319.525 76.1572 319.664C76.6479 319.792 77.4052 319.856 78.4292 319.856C79.4532 319.856 80.2105 319.792 80.7012 319.664C81.1919 319.525 81.4372 319.301 81.4372 318.992C81.4372 318.683 81.1919 318.459 80.7012 318.32C80.2105 318.181 79.4532 318.112 78.4292 318.112ZM96.6519 306.576H98.7799V321.44H96.6519V306.576ZM87.2119 307.76H89.3239V311.376H92.3959V307.76H94.5079V317.984H87.2119V307.76ZM89.3239 313.024V316.288H92.3959V313.024H89.3239Z" fill="#66C5CC"/>
<line x1="27" y1="299.75" x2="176" y2="299.75" stroke="black" stroke-width="0.5"/>
<line x1="27" y1="329.75" x2="176" y2="329.75" stroke="black" stroke-width="0.5"/>
<g filter="url(#filter1_d_481_6468)">
<rect x="216" y="203" width="182" height="46" rx="16" fill="white"/>
</g>
<path d="M228 229.333C228 230.25 228.675 231 229.5 231H241.5C242.325 231 243 230.25 243 229.333V226.833H228V229.333ZM229.5 228.5H241.5V229.333H229.5V228.5Z" fill="#F89C74"/>
<path d="M240.495 223.083C239.032 223.083 238.927 223.917 237.997 223.917C237.105 223.917 236.932 223.083 235.5 223.083C234.037 223.083 233.932 223.917 233.002 223.917C232.11 223.917 231.937 223.083 230.505 223.083C229.042 223.083 228.937 223.917 228.007 223.917V225.583C229.432 225.583 229.635 224.75 230.52 224.75C231.412 224.75 231.585 225.583 233.017 225.583C234.48 225.583 234.585 224.75 235.515 224.75C236.407 224.75 236.58 225.583 238.012 225.583C239.475 225.583 239.58 224.75 240.51 224.75C241.402 224.75 241.56 225.567 243 225.583L242.992 223.933C241.785 223.658 241.777 223.083 240.495 223.083Z" fill="#F89C74"/>
<path d="M243 221C243.015 217.667 239.79 216 235.5 216C231.217 216 228 217.667 228 221V221.833H243V221ZM229.635 220.167C230.257 218.342 232.957 217.667 235.5 217.667C237.982 217.667 239.947 218.275 240.892 219.325C241.117 219.583 241.282 219.858 241.38 220.167H229.635Z" fill="#F89C74"/>
<path d="M249.909 217.28H251.669V218.688C251.669 219.616 251.515 220.507 251.205 221.36C250.896 222.203 250.427 222.939 249.797 223.568C249.168 224.197 248.373 224.667 247.413 224.976L246.373 223.28C246.992 223.088 247.525 222.832 247.973 222.512C248.421 222.181 248.784 221.813 249.061 221.408C249.349 220.992 249.563 220.555 249.701 220.096C249.84 219.627 249.909 219.157 249.909 218.688V217.28ZM250.341 217.28H252.069V218.688C252.069 219.147 252.139 219.6 252.277 220.048C252.416 220.485 252.619 220.901 252.885 221.296C253.163 221.68 253.52 222.021 253.957 222.32C254.395 222.619 254.917 222.859 255.525 223.04L254.485 224.72C253.536 224.421 252.752 223.973 252.133 223.376C251.525 222.779 251.072 222.08 250.773 221.28C250.485 220.469 250.341 219.605 250.341 218.688V217.28ZM248.645 226.08H258.741V231.424H256.613V227.776H248.645V226.08ZM256.613 216.608H258.741V225.44H256.613V216.608ZM271.316 216.576H273.444V231.44H271.316V216.576ZM261.876 217.76H263.988V221.376H267.06V217.76H269.172V227.984H261.876V217.76ZM263.988 223.024V226.288H267.06V223.024H263.988Z" fill="#F89C74"/>
<path d="M330.367 220.277V231H329.012V221.969L326.28 222.965V221.742L330.154 220.277H330.367ZM336.065 225.924L334.981 225.646L335.516 220.336H340.987V221.588H336.666L336.343 224.489C336.539 224.376 336.785 224.271 337.083 224.174C337.386 224.076 337.732 224.027 338.123 224.027C338.616 224.027 339.058 224.113 339.449 224.284C339.839 224.45 340.171 224.689 340.445 225.001C340.723 225.314 340.936 225.69 341.082 226.129C341.229 226.569 341.302 227.06 341.302 227.602C341.302 228.114 341.231 228.585 341.089 229.015C340.953 229.445 340.745 229.821 340.467 230.143C340.188 230.46 339.837 230.707 339.412 230.883C338.992 231.059 338.497 231.146 337.925 231.146C337.496 231.146 337.088 231.088 336.702 230.971C336.321 230.849 335.979 230.666 335.677 230.421C335.379 230.172 335.135 229.865 334.944 229.499C334.759 229.127 334.642 228.693 334.593 228.195H335.882C335.94 228.595 336.058 228.932 336.233 229.206C336.409 229.479 336.639 229.687 336.922 229.828C337.21 229.965 337.544 230.033 337.925 230.033C338.248 230.033 338.533 229.977 338.782 229.865C339.031 229.752 339.241 229.591 339.412 229.381C339.583 229.171 339.712 228.917 339.8 228.62C339.893 228.322 339.939 227.987 339.939 227.616C339.939 227.279 339.893 226.967 339.8 226.679C339.708 226.391 339.568 226.139 339.383 225.924C339.202 225.709 338.98 225.543 338.716 225.426C338.453 225.304 338.15 225.243 337.808 225.243C337.354 225.243 337.01 225.304 336.775 225.426C336.546 225.548 336.309 225.714 336.065 225.924ZM344.166 229.389V230.48C344.166 230.924 344.053 231.393 343.829 231.886C343.604 232.384 343.289 232.799 342.884 233.131L342.115 232.597C342.271 232.382 342.403 232.162 342.51 231.938C342.618 231.718 342.698 231.488 342.752 231.249C342.811 231.015 342.84 230.766 342.84 230.502V229.389H344.166ZM350.948 220.321H351.065V221.471H350.948C350.23 221.471 349.629 221.588 349.146 221.823C348.663 222.052 348.279 222.362 347.996 222.753C347.713 223.139 347.508 223.573 347.381 224.057C347.259 224.54 347.198 225.031 347.198 225.529V227.096C347.198 227.57 347.254 227.99 347.366 228.356C347.479 228.717 347.632 229.022 347.828 229.271C348.023 229.521 348.243 229.708 348.487 229.835C348.736 229.962 348.995 230.026 349.263 230.026C349.576 230.026 349.854 229.967 350.098 229.85C350.342 229.728 350.547 229.56 350.713 229.345C350.884 229.125 351.014 228.866 351.102 228.568C351.189 228.271 351.233 227.943 351.233 227.587C351.233 227.27 351.194 226.964 351.116 226.671C351.038 226.374 350.918 226.11 350.757 225.88C350.596 225.646 350.394 225.463 350.149 225.331C349.91 225.194 349.625 225.126 349.292 225.126C348.917 225.126 348.565 225.219 348.238 225.404C347.916 225.585 347.649 225.824 347.439 226.122C347.234 226.415 347.117 226.735 347.088 227.082L346.37 227.074C346.438 226.527 346.565 226.061 346.751 225.675C346.941 225.285 347.176 224.967 347.454 224.723C347.737 224.474 348.052 224.293 348.399 224.181C348.75 224.064 349.122 224.005 349.512 224.005C350.044 224.005 350.503 224.105 350.889 224.306C351.275 224.506 351.592 224.774 351.841 225.111C352.09 225.443 352.273 225.819 352.391 226.239C352.513 226.654 352.574 227.082 352.574 227.521C352.574 228.024 352.503 228.495 352.361 228.935C352.22 229.374 352.007 229.76 351.724 230.092C351.446 230.424 351.102 230.683 350.691 230.868C350.281 231.054 349.805 231.146 349.263 231.146C348.687 231.146 348.184 231.029 347.754 230.795C347.325 230.556 346.968 230.238 346.685 229.843C346.402 229.447 346.189 229.008 346.048 228.524C345.906 228.041 345.835 227.55 345.835 227.052V226.415C345.835 225.663 345.911 224.926 346.062 224.203C346.214 223.48 346.475 222.826 346.846 222.24C347.222 221.654 347.742 221.188 348.406 220.841C349.07 220.495 349.917 220.321 350.948 220.321ZM360.879 224.818V226.444C360.879 227.318 360.801 228.056 360.645 228.656C360.489 229.257 360.264 229.74 359.971 230.106C359.678 230.473 359.324 230.739 358.909 230.905C358.499 231.066 358.035 231.146 357.518 231.146C357.107 231.146 356.729 231.095 356.382 230.993C356.036 230.89 355.723 230.727 355.445 230.502C355.171 230.272 354.937 229.975 354.742 229.608C354.546 229.242 354.397 228.798 354.295 228.275C354.192 227.753 354.141 227.143 354.141 226.444V224.818C354.141 223.944 354.219 223.212 354.375 222.621C354.537 222.03 354.764 221.557 355.057 221.2C355.35 220.839 355.701 220.58 356.111 220.424C356.526 220.268 356.99 220.189 357.503 220.189C357.918 220.189 358.299 220.241 358.646 220.343C358.997 220.441 359.31 220.6 359.583 220.819C359.856 221.034 360.088 221.322 360.279 221.684C360.474 222.04 360.623 222.477 360.726 222.995C360.828 223.512 360.879 224.12 360.879 224.818ZM359.517 226.664V224.591C359.517 224.113 359.488 223.693 359.429 223.332C359.375 222.965 359.295 222.653 359.188 222.394C359.08 222.135 358.943 221.925 358.777 221.764C358.616 221.603 358.428 221.486 358.213 221.413C358.003 221.334 357.767 221.295 357.503 221.295C357.181 221.295 356.895 221.356 356.646 221.479C356.397 221.596 356.187 221.784 356.016 222.042C355.85 222.301 355.723 222.641 355.635 223.061C355.547 223.48 355.503 223.991 355.503 224.591V226.664C355.503 227.143 355.53 227.565 355.584 227.931C355.643 228.297 355.728 228.615 355.84 228.883C355.953 229.147 356.089 229.364 356.25 229.535C356.412 229.706 356.597 229.833 356.807 229.916C357.022 229.994 357.259 230.033 357.518 230.033C357.85 230.033 358.14 229.97 358.389 229.843C358.638 229.716 358.846 229.518 359.012 229.25C359.183 228.976 359.31 228.627 359.393 228.202C359.476 227.772 359.517 227.26 359.517 226.664ZM369.317 224.818V226.444C369.317 227.318 369.239 228.056 369.083 228.656C368.926 229.257 368.702 229.74 368.409 230.106C368.116 230.473 367.762 230.739 367.347 230.905C366.937 231.066 366.473 231.146 365.955 231.146C365.545 231.146 365.167 231.095 364.82 230.993C364.473 230.89 364.161 230.727 363.882 230.502C363.609 230.272 363.375 229.975 363.179 229.608C362.984 229.242 362.835 228.798 362.732 228.275C362.63 227.753 362.579 227.143 362.579 226.444V224.818C362.579 223.944 362.657 223.212 362.813 222.621C362.974 222.03 363.201 221.557 363.494 221.2C363.787 220.839 364.139 220.58 364.549 220.424C364.964 220.268 365.428 220.189 365.94 220.189C366.355 220.189 366.736 220.241 367.083 220.343C367.435 220.441 367.747 220.6 368.021 220.819C368.294 221.034 368.526 221.322 368.716 221.684C368.912 222.04 369.061 222.477 369.163 222.995C369.266 223.512 369.317 224.12 369.317 224.818ZM367.955 226.664V224.591C367.955 224.113 367.925 223.693 367.867 223.332C367.813 222.965 367.732 222.653 367.625 222.394C367.518 222.135 367.381 221.925 367.215 221.764C367.054 221.603 366.866 221.486 366.651 221.413C366.441 221.334 366.204 221.295 365.94 221.295C365.618 221.295 365.333 221.356 365.083 221.479C364.834 221.596 364.625 221.784 364.454 222.042C364.288 222.301 364.161 222.641 364.073 223.061C363.985 223.48 363.941 223.991 363.941 224.591V226.664C363.941 227.143 363.968 227.565 364.021 227.931C364.08 228.297 364.166 228.615 364.278 228.883C364.39 229.147 364.527 229.364 364.688 229.535C364.849 229.706 365.035 229.833 365.245 229.916C365.459 229.994 365.696 230.033 365.955 230.033C366.287 230.033 366.578 229.97 366.827 229.843C367.076 229.716 367.283 229.518 367.449 229.25C367.62 228.976 367.747 228.627 367.83 228.202C367.913 227.772 367.955 227.26 367.955 226.664ZM374.764 225.435H376.009V228.45H374.764V225.435ZM380.779 218.61H382.024V228.915H380.779V218.61ZM372.769 230.85H382.354V231.87H372.769V230.85ZM372.769 227.91H374.014V231.12H372.769V227.91ZM371.014 225.9L370.849 224.865C371.689 224.865 372.599 224.86 373.579 224.85C374.569 224.83 375.579 224.795 376.609 224.745C377.639 224.685 378.634 224.595 379.594 224.475L379.684 225.375C378.714 225.535 377.714 225.655 376.684 225.735C375.664 225.805 374.669 225.85 373.699 225.87C372.729 225.89 371.834 225.9 371.014 225.9ZM378.019 226.62H381.109V227.52H378.019V226.62ZM375.259 219.15C375.929 219.15 376.514 219.25 377.014 219.45C377.514 219.64 377.899 219.915 378.169 220.275C378.449 220.625 378.589 221.04 378.589 221.52C378.589 221.99 378.449 222.405 378.169 222.765C377.899 223.125 377.514 223.4 377.014 223.59C376.514 223.78 375.929 223.875 375.259 223.875C374.599 223.875 374.014 223.78 373.504 223.59C373.004 223.4 372.614 223.125 372.334 222.765C372.064 222.405 371.929 221.99 371.929 221.52C371.929 221.04 372.064 220.625 372.334 220.275C372.614 219.915 373.004 219.64 373.504 219.45C374.014 219.25 374.599 219.15 375.259 219.15ZM375.259 220.08C374.619 220.08 374.099 220.21 373.699 220.47C373.299 220.73 373.099 221.08 373.099 221.52C373.099 221.95 373.299 222.295 373.699 222.555C374.099 222.815 374.619 222.945 375.259 222.945C375.889 222.945 376.404 222.815 376.804 222.555C377.204 222.295 377.404 221.95 377.404 221.52C377.404 221.22 377.314 220.965 377.134 220.755C376.954 220.545 376.704 220.38 376.384 220.26C376.064 220.14 375.689 220.08 375.259 220.08Z" fill="#5B5B5B"/>
<g filter="url(#filter2_d_481_6468)">
<rect x="216" y="266" width="182" height="46" rx="16" fill="white"/>
</g>
<path d="M243.036 280.78C242.847 280.325 242.318 280 241.694 280H231.306C230.682 280 230.163 280.325 229.964 280.78L228 285.409V291.591C228 292.016 228.425 292.364 228.944 292.364H229.889C230.408 292.364 230.833 292.016 230.833 291.591V290.818H242.167V291.591C242.167 292.016 242.592 292.364 243.111 292.364H244.056C244.575 292.364 245 292.016 245 291.591V285.409L243.036 280.78ZM231.636 281.545H241.354L242.374 283.949H230.616L231.636 281.545ZM243.111 289.273H229.889V285.409H243.111V289.273Z" fill="#66C5CC"/>
<path d="M232.25 288.5C233.032 288.5 233.667 287.981 233.667 287.341C233.667 286.701 233.032 286.182 232.25 286.182C231.468 286.182 230.833 286.701 230.833 287.341C230.833 287.981 231.468 288.5 232.25 288.5Z" fill="#66C5CC"/>
<path d="M240.75 288.5C241.532 288.5 242.167 287.981 242.167 287.341C242.167 286.701 241.532 286.182 240.75 286.182C239.968 286.182 239.333 286.701 239.333 287.341C239.333 287.981 239.968 288.5 240.75 288.5Z" fill="#66C5CC"/>
<path d="M231.778 294.682H235.556V293.136L241.222 295.455H237.444V297L231.778 294.682Z" fill="#66C5CC"/>
<path d="M249.35 280.856H258.726V282.552H249.35V280.856ZM248.054 290.904H261.462V292.632H248.054V290.904ZM250.87 286.248H252.966V291.464H250.87V286.248ZM258.118 280.856H260.246V282.296C260.246 282.893 260.236 283.533 260.214 284.216C260.204 284.888 260.161 285.629 260.086 286.44C260.022 287.251 259.905 288.152 259.734 289.144L257.622 288.936C257.868 287.528 258.012 286.291 258.054 285.224C258.097 284.147 258.118 283.171 258.118 282.296V280.856ZM254.534 286.248H256.614V291.464H254.534V286.248ZM262.741 287.224H276.149V288.888H262.741V287.224ZM268.389 285.656H270.501V287.848H268.389V285.656ZM264.421 284.712H274.741V286.328H264.421V284.712ZM264.421 279.976H274.613V281.592H266.533V285.64H264.421V279.976ZM265.925 282.36H274.293V283.912H265.925V282.36ZM269.429 289.56C271.061 289.56 272.325 289.768 273.221 290.184C274.128 290.6 274.581 291.203 274.581 291.992C274.581 292.781 274.128 293.384 273.221 293.8C272.325 294.216 271.061 294.424 269.429 294.424C267.808 294.424 266.544 294.216 265.637 293.8C264.741 293.384 264.293 292.781 264.293 291.992C264.293 291.203 264.741 290.6 265.637 290.184C266.544 289.768 267.808 289.56 269.429 289.56ZM269.429 291.112C268.405 291.112 267.648 291.181 267.157 291.32C266.667 291.459 266.421 291.683 266.421 291.992C266.421 292.301 266.667 292.525 267.157 292.664C267.648 292.792 268.405 292.856 269.429 292.856C270.453 292.856 271.211 292.792 271.701 292.664C272.192 292.525 272.437 292.301 272.437 291.992C272.437 291.683 272.192 291.459 271.701 291.32C271.211 291.181 270.453 291.112 269.429 291.112ZM287.652 279.576H289.78V294.44H287.652V279.576ZM278.212 280.76H280.324V284.376H283.396V280.76H285.508V290.984H278.212V280.76ZM280.324 286.024V289.288H283.396V286.024H280.324Z" fill="#66C5CC"/>
<path d="M332.901 292.887V294H325.921V293.026L329.415 289.137C329.844 288.658 330.176 288.253 330.411 287.921C330.65 287.584 330.816 287.284 330.909 287.02C331.006 286.751 331.055 286.478 331.055 286.2C331.055 285.848 330.982 285.531 330.835 285.248C330.694 284.959 330.484 284.73 330.206 284.559C329.927 284.388 329.59 284.303 329.195 284.303C328.721 284.303 328.326 284.396 328.008 284.581C327.696 284.762 327.461 285.016 327.305 285.343C327.149 285.67 327.071 286.046 327.071 286.471H325.716C325.716 285.87 325.848 285.321 326.111 284.823C326.375 284.325 326.766 283.929 327.283 283.636C327.801 283.338 328.438 283.189 329.195 283.189C329.869 283.189 330.445 283.309 330.923 283.548C331.402 283.783 331.768 284.115 332.022 284.544C332.281 284.969 332.41 285.467 332.41 286.039C332.41 286.351 332.356 286.668 332.249 286.991C332.146 287.308 332.002 287.625 331.817 287.943C331.636 288.26 331.424 288.573 331.18 288.88C330.94 289.188 330.684 289.491 330.411 289.789L327.554 292.887H332.901ZM335.699 292.865H335.838C336.619 292.865 337.254 292.755 337.742 292.535C338.23 292.315 338.606 292.02 338.87 291.649C339.134 291.278 339.314 290.86 339.412 290.396C339.51 289.928 339.559 289.447 339.559 288.954V287.32C339.559 286.837 339.502 286.407 339.39 286.031C339.283 285.655 339.131 285.34 338.936 285.086C338.746 284.833 338.528 284.64 338.284 284.508C338.04 284.376 337.781 284.31 337.508 284.31C337.195 284.31 336.915 284.374 336.666 284.5C336.421 284.623 336.214 284.796 336.043 285.021C335.877 285.245 335.75 285.509 335.662 285.812C335.574 286.114 335.53 286.444 335.53 286.8C335.53 287.118 335.569 287.425 335.647 287.723C335.726 288.021 335.845 288.29 336.006 288.529C336.167 288.768 336.368 288.958 336.607 289.1C336.851 289.237 337.137 289.305 337.464 289.305C337.767 289.305 338.05 289.247 338.313 289.129C338.582 289.007 338.819 288.844 339.024 288.639C339.234 288.429 339.4 288.192 339.522 287.928C339.649 287.665 339.722 287.389 339.742 287.101H340.386C340.386 287.506 340.306 287.906 340.145 288.302C339.988 288.692 339.769 289.049 339.485 289.371C339.202 289.693 338.87 289.952 338.489 290.147C338.108 290.338 337.693 290.433 337.244 290.433C336.717 290.433 336.26 290.331 335.875 290.125C335.489 289.92 335.171 289.647 334.922 289.305C334.678 288.963 334.495 288.583 334.373 288.163C334.256 287.738 334.197 287.308 334.197 286.874C334.197 286.366 334.268 285.89 334.41 285.445C334.551 285.001 334.761 284.61 335.04 284.273C335.318 283.932 335.662 283.666 336.072 283.475C336.487 283.285 336.966 283.189 337.508 283.189C338.118 283.189 338.638 283.312 339.068 283.556C339.498 283.8 339.847 284.127 340.115 284.537C340.389 284.947 340.589 285.409 340.716 285.921C340.843 286.434 340.906 286.961 340.906 287.503V287.994C340.906 288.546 340.87 289.107 340.796 289.679C340.728 290.245 340.594 290.787 340.394 291.305C340.198 291.822 339.913 292.286 339.537 292.696C339.161 293.102 338.67 293.424 338.064 293.663C337.464 293.897 336.722 294.015 335.838 294.015H335.699V292.865ZM344.166 292.389V293.48C344.166 293.924 344.053 294.393 343.829 294.886C343.604 295.384 343.289 295.799 342.884 296.131L342.115 295.597C342.271 295.382 342.403 295.162 342.51 294.938C342.618 294.718 342.698 294.488 342.752 294.249C342.811 294.015 342.84 293.766 342.84 293.502V292.389H344.166ZM350.948 283.321H351.065V284.471H350.948C350.23 284.471 349.629 284.588 349.146 284.823C348.663 285.052 348.279 285.362 347.996 285.753C347.713 286.139 347.508 286.573 347.381 287.057C347.259 287.54 347.198 288.031 347.198 288.529V290.096C347.198 290.57 347.254 290.99 347.366 291.356C347.479 291.717 347.632 292.022 347.828 292.271C348.023 292.521 348.243 292.708 348.487 292.835C348.736 292.962 348.995 293.026 349.263 293.026C349.576 293.026 349.854 292.967 350.098 292.85C350.342 292.728 350.547 292.56 350.713 292.345C350.884 292.125 351.014 291.866 351.102 291.568C351.189 291.271 351.233 290.943 351.233 290.587C351.233 290.27 351.194 289.964 351.116 289.671C351.038 289.374 350.918 289.11 350.757 288.88C350.596 288.646 350.394 288.463 350.149 288.331C349.91 288.194 349.625 288.126 349.292 288.126C348.917 288.126 348.565 288.219 348.238 288.404C347.916 288.585 347.649 288.824 347.439 289.122C347.234 289.415 347.117 289.735 347.088 290.082L346.37 290.074C346.438 289.527 346.565 289.061 346.751 288.675C346.941 288.285 347.176 287.967 347.454 287.723C347.737 287.474 348.052 287.293 348.399 287.181C348.75 287.064 349.122 287.005 349.512 287.005C350.044 287.005 350.503 287.105 350.889 287.306C351.275 287.506 351.592 287.774 351.841 288.111C352.09 288.443 352.273 288.819 352.391 289.239C352.513 289.654 352.574 290.082 352.574 290.521C352.574 291.024 352.503 291.495 352.361 291.935C352.22 292.374 352.007 292.76 351.724 293.092C351.446 293.424 351.102 293.683 350.691 293.868C350.281 294.054 349.805 294.146 349.263 294.146C348.687 294.146 348.184 294.029 347.754 293.795C347.325 293.556 346.968 293.238 346.685 292.843C346.402 292.447 346.189 292.008 346.048 291.524C345.906 291.041 345.835 290.55 345.835 290.052V289.415C345.835 288.663 345.911 287.926 346.062 287.203C346.214 286.48 346.475 285.826 346.846 285.24C347.222 284.654 347.742 284.188 348.406 283.841C349.07 283.495 349.917 283.321 350.948 283.321ZM360.879 287.818V289.444C360.879 290.318 360.801 291.056 360.645 291.656C360.489 292.257 360.264 292.74 359.971 293.106C359.678 293.473 359.324 293.739 358.909 293.905C358.499 294.066 358.035 294.146 357.518 294.146C357.107 294.146 356.729 294.095 356.382 293.993C356.036 293.89 355.723 293.727 355.445 293.502C355.171 293.272 354.937 292.975 354.742 292.608C354.546 292.242 354.397 291.798 354.295 291.275C354.192 290.753 354.141 290.143 354.141 289.444V287.818C354.141 286.944 354.219 286.212 354.375 285.621C354.537 285.03 354.764 284.557 355.057 284.2C355.35 283.839 355.701 283.58 356.111 283.424C356.526 283.268 356.99 283.189 357.503 283.189C357.918 283.189 358.299 283.241 358.646 283.343C358.997 283.441 359.31 283.6 359.583 283.819C359.856 284.034 360.088 284.322 360.279 284.684C360.474 285.04 360.623 285.477 360.726 285.995C360.828 286.512 360.879 287.12 360.879 287.818ZM359.517 289.664V287.591C359.517 287.113 359.488 286.693 359.429 286.332C359.375 285.965 359.295 285.653 359.188 285.394C359.08 285.135 358.943 284.925 358.777 284.764C358.616 284.603 358.428 284.486 358.213 284.413C358.003 284.334 357.767 284.295 357.503 284.295C357.181 284.295 356.895 284.356 356.646 284.479C356.397 284.596 356.187 284.784 356.016 285.042C355.85 285.301 355.723 285.641 355.635 286.061C355.547 286.48 355.503 286.991 355.503 287.591V289.664C355.503 290.143 355.53 290.565 355.584 290.931C355.643 291.297 355.728 291.615 355.84 291.883C355.953 292.147 356.089 292.364 356.25 292.535C356.412 292.706 356.597 292.833 356.807 292.916C357.022 292.994 357.259 293.033 357.518 293.033C357.85 293.033 358.14 292.97 358.389 292.843C358.638 292.716 358.846 292.518 359.012 292.25C359.183 291.976 359.31 291.627 359.393 291.202C359.476 290.772 359.517 290.26 359.517 289.664ZM369.317 287.818V289.444C369.317 290.318 369.239 291.056 369.083 291.656C368.926 292.257 368.702 292.74 368.409 293.106C368.116 293.473 367.762 293.739 367.347 293.905C366.937 294.066 366.473 294.146 365.955 294.146C365.545 294.146 365.167 294.095 364.82 293.993C364.473 293.89 364.161 293.727 363.882 293.502C363.609 293.272 363.375 292.975 363.179 292.608C362.984 292.242 362.835 291.798 362.732 291.275C362.63 290.753 362.579 290.143 362.579 289.444V287.818C362.579 286.944 362.657 286.212 362.813 285.621C362.974 285.03 363.201 284.557 363.494 284.2C363.787 283.839 364.139 283.58 364.549 283.424C364.964 283.268 365.428 283.189 365.94 283.189C366.355 283.189 366.736 283.241 367.083 283.343C367.435 283.441 367.747 283.6 368.021 283.819C368.294 284.034 368.526 284.322 368.716 284.684C368.912 285.04 369.061 285.477 369.163 285.995C369.266 286.512 369.317 287.12 369.317 287.818ZM367.955 289.664V287.591C367.955 287.113 367.925 286.693 367.867 286.332C367.813 285.965 367.732 285.653 367.625 285.394C367.518 285.135 367.381 284.925 367.215 284.764C367.054 284.603 366.866 284.486 366.651 284.413C366.441 284.334 366.204 284.295 365.94 284.295C365.618 284.295 365.333 284.356 365.083 284.479C364.834 284.596 364.625 284.784 364.454 285.042C364.288 285.301 364.161 285.641 364.073 286.061C363.985 286.48 363.941 286.991 363.941 287.591V289.664C363.941 290.143 363.968 290.565 364.021 290.931C364.08 291.297 364.166 291.615 364.278 291.883C364.39 292.147 364.527 292.364 364.688 292.535C364.849 292.706 365.035 292.833 365.245 292.916C365.459 292.994 365.696 293.033 365.955 293.033C366.287 293.033 366.578 292.97 366.827 292.843C367.076 292.716 367.283 292.518 367.449 292.25C367.62 291.976 367.747 291.627 367.83 291.202C367.913 290.772 367.955 290.26 367.955 289.664ZM374.764 288.435H376.009V291.45H374.764V288.435ZM380.779 281.61H382.024V291.915H380.779V281.61ZM372.769 293.85H382.354V294.87H372.769V293.85ZM372.769 290.91H374.014V294.12H372.769V290.91ZM371.014 288.9L370.849 287.865C371.689 287.865 372.599 287.86 373.579 287.85C374.569 287.83 375.579 287.795 376.609 287.745C377.639 287.685 378.634 287.595 379.594 287.475L379.684 288.375C378.714 288.535 377.714 288.655 376.684 288.735C375.664 288.805 374.669 288.85 373.699 288.87C372.729 288.89 371.834 288.9 371.014 288.9ZM378.019 289.62H381.109V290.52H378.019V289.62ZM375.259 282.15C375.929 282.15 376.514 282.25 377.014 282.45C377.514 282.64 377.899 282.915 378.169 283.275C378.449 283.625 378.589 284.04 378.589 284.52C378.589 284.99 378.449 285.405 378.169 285.765C377.899 286.125 377.514 286.4 377.014 286.59C376.514 286.78 375.929 286.875 375.259 286.875C374.599 286.875 374.014 286.78 373.504 286.59C373.004 286.4 372.614 286.125 372.334 285.765C372.064 285.405 371.929 284.99 371.929 284.52C371.929 284.04 372.064 283.625 372.334 283.275C372.614 282.915 373.004 282.64 373.504 282.45C374.014 282.25 374.599 282.15 375.259 282.15ZM375.259 283.08C374.619 283.08 374.099 283.21 373.699 283.47C373.299 283.73 373.099 284.08 373.099 284.52C373.099 284.95 373.299 285.295 373.699 285.555C374.099 285.815 374.619 285.945 375.259 285.945C375.889 285.945 376.404 285.815 376.804 285.555C377.204 285.295 377.404 284.95 377.404 284.52C377.404 284.22 377.314 283.965 377.134 283.755C376.954 283.545 376.704 283.38 376.384 283.26C376.064 283.14 375.689 283.08 375.259 283.08Z" fill="#5B5B5B"/>
<rect x="43" y="778" width="330" height="50" rx="8" fill="#2383BD"/>
<path d="M183.842 800.96H185.482V803.26H183.842V800.96ZM191.462 792.48H193.122V804.6H191.462V792.48ZM192.422 797.94H195.762V799.32H192.422V797.94ZM179.202 804.08L179.002 802.74C180.082 802.74 181.262 802.733 182.542 802.72C183.835 802.693 185.155 802.64 186.502 802.56C187.848 802.48 189.142 802.353 190.382 802.18L190.502 803.36C189.222 803.587 187.908 803.753 186.562 803.86C185.228 803.953 183.928 804.013 182.662 804.04C181.408 804.067 180.255 804.08 179.202 804.08ZM181.222 805.52H193.122V810.56H191.462V806.84H181.222V805.52ZM179.462 794.1H189.842V795.36H179.462V794.1ZM184.642 796.04C185.922 796.04 186.942 796.28 187.702 796.76C188.475 797.24 188.862 797.893 188.862 798.72C188.862 799.547 188.475 800.2 187.702 800.68C186.942 801.16 185.922 801.4 184.642 801.4C183.375 801.4 182.355 801.16 181.582 800.68C180.808 800.2 180.422 799.547 180.422 798.72C180.422 797.893 180.808 797.24 181.582 796.76C182.355 796.28 183.375 796.04 184.642 796.04ZM184.642 797.2C183.842 797.2 183.202 797.333 182.722 797.6C182.242 797.867 182.002 798.24 182.002 798.72C182.002 799.173 182.242 799.547 182.722 799.84C183.202 800.12 183.842 800.26 184.642 800.26C185.442 800.26 186.082 800.12 186.562 799.84C187.042 799.547 187.282 799.173 187.282 798.72C187.282 798.24 187.042 797.867 186.562 797.6C186.082 797.333 185.442 797.2 184.642 797.2ZM183.842 792.32H185.482V794.72H183.842V792.32ZM210.66 792.48H212.32V805.68H210.66V792.48ZM200.7 808.8H212.88V810.16H200.7V808.8ZM200.7 804.34H202.36V809.26H200.7V804.34ZM202.62 793.74C203.527 793.74 204.333 793.927 205.04 794.3C205.747 794.673 206.307 795.2 206.72 795.88C207.133 796.547 207.34 797.313 207.34 798.18C207.34 799.047 207.133 799.82 206.72 800.5C206.307 801.167 205.747 801.693 205.04 802.08C204.333 802.453 203.527 802.64 202.62 802.64C201.727 802.64 200.92 802.453 200.2 802.08C199.493 801.693 198.933 801.167 198.52 800.5C198.107 799.82 197.9 799.047 197.9 798.18C197.9 797.313 198.107 796.547 198.52 795.88C198.933 795.2 199.493 794.673 200.2 794.3C200.92 793.927 201.727 793.74 202.62 793.74ZM202.62 795.18C202.033 795.18 201.507 795.307 201.04 795.56C200.573 795.813 200.2 796.167 199.92 796.62C199.653 797.073 199.52 797.593 199.52 798.18C199.52 798.78 199.653 799.307 199.92 799.76C200.2 800.2 200.573 800.547 201.04 800.8C201.507 801.053 202.033 801.18 202.62 801.18C203.207 801.18 203.733 801.053 204.2 800.8C204.68 800.547 205.053 800.2 205.32 799.76C205.587 799.307 205.72 798.78 205.72 798.18C205.72 797.593 205.587 797.073 205.32 796.62C205.053 796.167 204.68 795.813 204.2 795.56C203.733 795.307 203.207 795.18 202.62 795.18Z" fill="white"/>
<defs>
<filter id="filter0_d_481_6468" x="9" y="203" width="184" height="117" filterUnits="userSpaceOnUse" color-interpolation-filters="sRGB">
<feFlood flood-opacity="0" result="BackgroundImageFix"/>
<feColorMatrix in="SourceAlpha" type="matrix" values="0 0 0 0 0 0 0 0 0 0 0 0 0 0 0 0 0 0 127 0" result="hardAlpha"/>
<feOffset dy="4"/>
<feGaussianBlur stdDeviation="2"/>
<feComposite in2="hardAlpha" operator="out"/>
<feColorMatrix type="matrix" values="0 0 0 0 0 0 0 0 0 0 0 0 0 0 0 0 0 0 0.25 0"/>
<feBlend mode="normal" in2="BackgroundImageFix" result="effect1_dropShadow_481_6468"/>
<feBlend mode="normal" in="SourceGraphic" in2="effect1_dropShadow_481_6468" result="shape"/>
</filter>
<filter id="filter1_d_481_6468" x="212" y="203" width="190" height="54" filterUnits="userSpaceOnUse" color-interpolation-filters="sRGB">
<feFlood flood-opacity="0" result="BackgroundImageFix"/>
<feColorMatrix in="SourceAlpha" type="matrix" values="0 0 0 0 0 0 0 0 0 0 0 0 0 0 0 0 0 0 127 0" result="hardAlpha"/>
<feOffset dy="4"/>
<feGaussianBlur stdDeviation="2"/>
<feComposite in2="hardAlpha" operator="out"/>
<feColorMatrix type="matrix" values="0 0 0 0 0 0 0 0 0 0 0 0 0 0 0 0 0 0 0.25 0"/>
<feBlend mode="normal" in2="BackgroundImageFix" result="effect1_dropShadow_481_6468"/>
<feBlend mode="normal" in="SourceGraphic" in2="effect1_dropShadow_481_6468" result="shape"/>
</filter>
<filter id="filter2_d_481_6468" x="212" y="266" width="190" height="54" filterUnits="userSpaceOnUse" color-interpolation-filters="sRGB">
<feFlood flood-opacity="0" result="BackgroundImageFix"/>
<feColorMatrix in="SourceAlpha" type="matrix" values="0 0 0 0 0 0 0 0 0 0 0 0 0 0 0 0 0 0 127 0" result="hardAlpha"/>
<feOffset dy="4"/>
<feGaussianBlur stdDeviation="2"/>
<feComposite in2="hardAlpha" operator="out"/>
<feColorMatrix type="matrix" values="0 0 0 0 0 0 0 0 0 0 0 0 0 0 0 0 0 0 0.25 0"/>
<feBlend mode="normal" in2="BackgroundImageFix" result="effect1_dropShadow_481_6468"/>
<feBlend mode="normal" in="SourceGraphic" in2="effect1_dropShadow_481_6468" result="shape"/>
</filter>
</defs>
</svg>
