<svg width="412" height="917" viewBox="0 0 412 917" fill="none" xmlns="http://www.w3.org/2000/svg">
<rect width="412" height="917" fill="white"/>
<rect width="412" height="32" fill="white"/>
<path d="M27.416 12.0469V12.7578L23.2939 22H21.9609L26.0762 13.0859H20.6895V12.0469H27.416ZM28.9404 21.3301C28.9404 21.1159 29.0065 20.9359 29.1387 20.79C29.2754 20.6396 29.4714 20.5645 29.7266 20.5645C29.9818 20.5645 30.1755 20.6396 30.3076 20.79C30.4443 20.9359 30.5127 21.1159 30.5127 21.3301C30.5127 21.5397 30.4443 21.7174 30.3076 21.8633C30.1755 22.0091 29.9818 22.082 29.7266 22.082C29.4714 22.082 29.2754 22.0091 29.1387 21.8633C29.0065 21.7174 28.9404 21.5397 28.9404 21.3301ZM28.9473 15.2939C28.9473 15.0798 29.0133 14.8997 29.1455 14.7539C29.2822 14.6035 29.4782 14.5283 29.7334 14.5283C29.9886 14.5283 30.1823 14.6035 30.3145 14.7539C30.4512 14.8997 30.5195 15.0798 30.5195 15.2939C30.5195 15.5036 30.4512 15.6813 30.3145 15.8271C30.1823 15.973 29.9886 16.0459 29.7334 16.0459C29.4782 16.0459 29.2822 15.973 29.1455 15.8271C29.0133 15.6813 28.9473 15.5036 28.9473 15.2939ZM34.0947 16.4014H34.9971C35.4391 16.4014 35.8037 16.3285 36.0908 16.1826C36.3825 16.0322 36.599 15.8294 36.7402 15.5742C36.8861 15.3145 36.959 15.0228 36.959 14.6992C36.959 14.3164 36.8952 13.9951 36.7676 13.7354C36.64 13.4756 36.4486 13.2796 36.1934 13.1475C35.9382 13.0153 35.6146 12.9492 35.2227 12.9492C34.8672 12.9492 34.5527 13.0199 34.2793 13.1611C34.0104 13.2979 33.7985 13.4938 33.6436 13.749C33.4932 14.0042 33.418 14.305 33.418 14.6514H32.1533C32.1533 14.1455 32.2809 13.6852 32.5361 13.2705C32.7913 12.8558 33.1491 12.5254 33.6094 12.2793C34.0742 12.0332 34.612 11.9102 35.2227 11.9102C35.8242 11.9102 36.3506 12.0173 36.8018 12.2314C37.2529 12.4411 37.6038 12.7555 37.8545 13.1748C38.1051 13.5895 38.2305 14.1068 38.2305 14.7266C38.2305 14.9772 38.1712 15.2461 38.0527 15.5332C37.9388 15.8158 37.7588 16.0801 37.5127 16.3262C37.2712 16.5723 36.9567 16.7751 36.5693 16.9346C36.182 17.0895 35.7171 17.167 35.1748 17.167H34.0947V16.4014ZM34.0947 17.4404V16.6816H35.1748C35.8083 16.6816 36.3324 16.7568 36.7471 16.9072C37.1618 17.0576 37.4876 17.2581 37.7246 17.5088C37.9661 17.7594 38.1348 18.0352 38.2305 18.3359C38.3307 18.6322 38.3809 18.9284 38.3809 19.2246C38.3809 19.6895 38.3011 20.1019 38.1416 20.4619C37.9867 20.8219 37.7656 21.1273 37.4785 21.3779C37.196 21.6286 36.8633 21.8177 36.4805 21.9453C36.0977 22.0729 35.6807 22.1367 35.2295 22.1367C34.7965 22.1367 34.3887 22.0752 34.0059 21.9521C33.6276 21.8291 33.2926 21.6514 33.001 21.4189C32.7093 21.182 32.4814 20.8926 32.3174 20.5508C32.1533 20.2044 32.0713 19.8102 32.0713 19.3682H33.3359C33.3359 19.7145 33.4111 20.0176 33.5615 20.2773C33.7165 20.5371 33.9352 20.7399 34.2178 20.8857C34.5049 21.027 34.8421 21.0977 35.2295 21.0977C35.6169 21.0977 35.9495 21.0316 36.2275 20.8994C36.5101 20.7627 36.7266 20.5576 36.877 20.2842C37.0319 20.0107 37.1094 19.6667 37.1094 19.252C37.1094 18.8372 37.0228 18.4977 36.8496 18.2334C36.6764 17.9645 36.4303 17.7663 36.1113 17.6387C35.7969 17.5065 35.4255 17.4404 34.9971 17.4404H34.0947ZM46.3721 16.2305V17.748C46.3721 18.5638 46.2992 19.252 46.1533 19.8125C46.0075 20.373 45.7979 20.8242 45.5244 21.166C45.251 21.5078 44.9206 21.7562 44.5332 21.9111C44.1504 22.0615 43.7174 22.1367 43.2344 22.1367C42.8516 22.1367 42.4984 22.0889 42.1748 21.9932C41.8512 21.8975 41.5596 21.7448 41.2998 21.5352C41.0446 21.321 40.8258 21.043 40.6436 20.7012C40.4613 20.3594 40.3223 19.9447 40.2266 19.457C40.1309 18.9694 40.083 18.3997 40.083 17.748V16.2305C40.083 15.4147 40.1559 14.7311 40.3018 14.1797C40.4521 13.6283 40.6641 13.1862 40.9375 12.8535C41.2109 12.5163 41.5391 12.2747 41.9219 12.1289C42.3092 11.9831 42.7422 11.9102 43.2207 11.9102C43.6081 11.9102 43.9635 11.958 44.2871 12.0537C44.6152 12.1449 44.9069 12.293 45.1621 12.498C45.4173 12.6986 45.6338 12.9674 45.8115 13.3047C45.9938 13.6374 46.1328 14.0452 46.2285 14.5283C46.3242 15.0114 46.3721 15.5788 46.3721 16.2305ZM45.1006 17.9531V16.0186C45.1006 15.5719 45.0732 15.18 45.0186 14.8428C44.9684 14.501 44.8932 14.2093 44.793 13.9678C44.6927 13.7262 44.5651 13.5303 44.4102 13.3799C44.2598 13.2295 44.0843 13.1201 43.8838 13.0518C43.6878 12.9788 43.4668 12.9424 43.2207 12.9424C42.9199 12.9424 42.6533 12.9993 42.4209 13.1133C42.1885 13.2227 41.9925 13.3981 41.833 13.6396C41.6781 13.8812 41.5596 14.1979 41.4775 14.5898C41.3955 14.9818 41.3545 15.458 41.3545 16.0186V17.9531C41.3545 18.3997 41.3796 18.7939 41.4297 19.1357C41.4844 19.4775 41.5641 19.7738 41.6689 20.0244C41.7738 20.2705 41.9014 20.4733 42.0518 20.6328C42.2021 20.7923 42.3753 20.9108 42.5713 20.9883C42.7718 21.0612 42.9928 21.0977 43.2344 21.0977C43.5443 21.0977 43.8154 21.0384 44.0479 20.9199C44.2803 20.8014 44.474 20.6169 44.6289 20.3662C44.7884 20.111 44.9069 19.7852 44.9844 19.3887C45.0618 18.9876 45.1006 18.5091 45.1006 17.9531ZM55.4844 12.9287L52.1895 22H50.8428L54.6367 12.0469H55.5049L55.4844 12.9287ZM58.2461 22L54.9443 12.9287L54.9238 12.0469H55.792L59.5996 22H58.2461ZM58.0752 18.3154V19.3955H52.4834V18.3154H58.0752ZM61.3496 12.0469H62.6279L65.8887 20.1611L69.1426 12.0469H70.4277L66.3809 22H65.3828L61.3496 12.0469ZM60.9326 12.0469H62.0605L62.2451 18.1172V22H60.9326V12.0469ZM69.71 12.0469H70.8379V22H69.5254V18.1172L69.71 12.0469Z" fill="#0C0C0C"/>
<path d="M322.792 12.9478L324.375 14.5311C328.309 10.5966 334.69 10.5966 338.625 14.5311L340.208 12.9478C335.403 8.1424 327.605 8.1424 322.792 12.9478ZM329.125 19.2811L331.5 21.6561L333.875 19.2811C332.569 17.967 330.439 17.967 329.125 19.2811ZM325.958 16.1145L327.542 17.6978C329.727 15.5128 333.273 15.5128 335.458 17.6978L337.042 16.1145C333.986 13.0586 329.022 13.0586 325.958 16.1145Z" fill="#0C0C0C"/>
<path d="M362.75 9.33337H365.25V22.6667H362.75V9.33337ZM352.75 17.6667H355.25V22.6667H352.75V17.6667ZM357.75 13.5H360.25V22.6667H357.75V13.5Z" fill="#0C0C0C"/>
<path d="M391.362 9.55859L391.1 24.4573L382.823 24.3115L383.085 9.41286L385.568 9.45658L385.597 7.80117L388.908 7.85946L388.879 9.51487L391.362 9.55859ZM389.678 11.1849L384.711 11.0974L384.653 14.4082L389.619 14.4957L389.678 11.1849Z" fill="#0C0C0C"/>
<path d="M75.5467 239.32H78.6467V241.48H75.5467V239.32ZM75.5467 245.06H78.6467V247.2H75.5467V245.06ZM81.5667 235.24H84.1067V253.76H81.5667V235.24ZM77.8867 235.54H80.3667V252.94H77.8867V235.54ZM72.3667 236.54C73.1801 236.54 73.8867 236.813 74.4867 237.36C75.1001 237.893 75.5667 238.667 75.8867 239.68C76.2201 240.68 76.3867 241.88 76.3867 243.28C76.3867 244.667 76.2201 245.867 75.8867 246.88C75.5667 247.893 75.1001 248.673 74.4867 249.22C73.8867 249.753 73.1734 250.02 72.3467 250.02C71.5467 250.02 70.8401 249.753 70.2267 249.22C69.6267 248.673 69.1601 247.893 68.8267 246.88C68.5067 245.867 68.3467 244.667 68.3467 243.28C68.3467 241.88 68.5067 240.68 68.8267 239.68C69.1601 238.667 69.6267 237.893 70.2267 237.36C70.8401 236.813 71.5534 236.54 72.3667 236.54ZM72.3667 239.06C72.0201 239.06 71.7267 239.213 71.4867 239.52C71.2467 239.827 71.0601 240.293 70.9267 240.92C70.8067 241.533 70.7467 242.32 70.7467 243.28C70.7467 244.213 70.8067 244.993 70.9267 245.62C71.0601 246.247 71.2467 246.72 71.4867 247.04C71.7267 247.347 72.0201 247.5 72.3667 247.5C72.7134 247.5 73.0067 247.347 73.2467 247.04C73.4867 246.72 73.6734 246.247 73.8067 245.62C73.9401 244.993 74.0067 244.213 74.0067 243.28C74.0067 242.32 73.9401 241.533 73.8067 240.92C73.6734 240.293 73.4867 239.827 73.2467 239.52C73.0067 239.213 72.7134 239.06 72.3667 239.06ZM90.7452 236.38H92.9452V238.38C92.9452 239.607 92.7518 240.76 92.3652 241.84C91.9918 242.907 91.4185 243.84 90.6452 244.64C89.8852 245.44 88.9118 246.04 87.7252 246.44L86.3052 244.38C87.3585 244.033 88.2118 243.553 88.8652 242.94C89.5185 242.313 89.9918 241.607 90.2852 240.82C90.5918 240.02 90.7452 239.207 90.7452 238.38V236.38ZM91.2852 236.38H93.4452V238.4C93.4452 238.987 93.5252 239.567 93.6852 240.14C93.8452 240.7 94.0985 241.233 94.4452 241.74C94.7918 242.233 95.2318 242.68 95.7652 243.08C96.2985 243.467 96.9385 243.78 97.6852 244.02L96.3252 246.1C95.1652 245.713 94.2118 245.14 93.4652 244.38C92.7318 243.607 92.1852 242.707 91.8252 241.68C91.4652 240.653 91.2852 239.56 91.2852 238.4V236.38ZM98.5052 235.26H101.165V248.8H98.5052V235.26ZM100.425 240.62H103.625V242.8H100.425V240.62ZM89.2452 251.32H101.825V253.46H89.2452V251.32ZM89.2452 247.5H91.9252V252.46H89.2452V247.5ZM122.433 235.26H125.113V248.9H122.433V235.26ZM110.053 236.56H119.833V238.7H110.053V236.56ZM109.873 246.68L109.613 244.52C110.6 244.52 111.693 244.513 112.893 244.5C114.093 244.473 115.313 244.433 116.553 244.38C117.793 244.313 118.966 244.213 120.073 244.08L120.233 246.04C119.086 246.227 117.9 246.367 116.673 246.46C115.446 246.553 114.246 246.613 113.073 246.64C111.913 246.667 110.846 246.68 109.873 246.68ZM111.533 238.44H114.093V244.76H111.533V238.44ZM115.833 238.44H118.373V244.76H115.833V238.44ZM120.193 238.48H123.893V240.62H120.193V238.48ZM120.193 242.22H123.893V244.34H120.193V242.22ZM112.873 251.32H125.513V253.46H112.873V251.32ZM112.873 247.88H115.533V252.92H112.873V247.88ZM132.311 236.22H134.511V237.86C134.511 239.1 134.318 240.267 133.931 241.36C133.558 242.453 132.985 243.407 132.211 244.22C131.438 245.033 130.445 245.647 129.231 246.06L127.831 243.92C128.898 243.587 129.758 243.107 130.411 242.48C131.065 241.853 131.545 241.14 131.851 240.34C132.158 239.54 132.311 238.713 132.311 237.86V236.22ZM132.851 236.22H135.011V237.74C135.011 238.553 135.151 239.34 135.431 240.1C135.711 240.847 136.158 241.513 136.771 242.1C137.385 242.673 138.178 243.12 139.151 243.44L137.771 245.52C136.638 245.12 135.705 244.54 134.971 243.78C134.251 243.02 133.718 242.127 133.371 241.1C133.025 240.06 132.851 238.94 132.851 237.74V236.22ZM140.831 235.26H143.511V246.1H140.831V235.26ZM137.231 246.58C139.191 246.58 140.738 246.9 141.871 247.54C143.005 248.167 143.571 249.04 143.571 250.16C143.571 251.307 143.005 252.193 141.871 252.82C140.738 253.46 139.191 253.78 137.231 253.78C135.271 253.78 133.725 253.46 132.591 252.82C131.458 252.193 130.891 251.307 130.891 250.16C130.891 249.04 131.458 248.167 132.591 247.54C133.725 246.9 135.271 246.58 137.231 246.58ZM137.231 248.64C136.431 248.64 135.758 248.693 135.211 248.8C134.665 248.907 134.245 249.08 133.951 249.32C133.671 249.547 133.531 249.827 133.531 250.16C133.531 250.507 133.671 250.8 133.951 251.04C134.245 251.267 134.665 251.44 135.211 251.56C135.758 251.667 136.431 251.72 137.231 251.72C138.031 251.72 138.705 251.667 139.251 251.56C139.798 251.44 140.211 251.267 140.491 251.04C140.771 250.8 140.911 250.507 140.911 250.16C140.911 249.827 140.771 249.547 140.491 249.32C140.211 249.08 139.798 248.907 139.251 248.8C138.705 248.693 138.031 248.64 137.231 248.64ZM137.451 238.62H141.231V240.78H137.451V238.62ZM163.779 235.24H166.439V253.76H163.779V235.24ZM158.319 237.16H160.939C160.939 238.573 160.799 239.927 160.519 241.22C160.253 242.5 159.799 243.707 159.159 244.84C158.533 245.973 157.666 247.027 156.559 248C155.466 248.96 154.099 249.84 152.459 250.64L151.059 248.54C152.846 247.673 154.266 246.72 155.319 245.68C156.386 244.627 157.153 243.44 157.619 242.12C158.086 240.787 158.319 239.293 158.319 237.64V237.16ZM152.059 237.16H159.559V239.28H152.059V237.16ZM175.958 237.2H178.318V237.66C178.318 238.393 178.158 239.093 177.838 239.76C177.531 240.413 177.078 241.007 176.478 241.54C175.878 242.06 175.124 242.507 174.218 242.88C173.324 243.24 172.291 243.487 171.118 243.62L170.138 241.52C170.938 241.427 171.651 241.287 172.278 241.1C172.918 240.913 173.464 240.687 173.918 240.42C174.384 240.153 174.764 239.873 175.058 239.58C175.364 239.273 175.591 238.96 175.738 238.64C175.884 238.307 175.958 237.98 175.958 237.66V237.2ZM177.258 237.2H179.598V237.66C179.598 237.98 179.671 238.307 179.818 238.64C179.964 238.96 180.191 239.273 180.498 239.58C180.804 239.887 181.184 240.173 181.638 240.44C182.091 240.693 182.631 240.913 183.258 241.1C183.898 241.287 184.618 241.427 185.418 241.52L184.458 243.62C183.271 243.487 182.231 243.24 181.338 242.88C180.444 242.52 179.691 242.073 179.078 241.54C178.478 241.007 178.024 240.413 177.718 239.76C177.411 239.093 177.258 238.393 177.258 237.66V237.2ZM170.938 236.04H184.658V238.14H170.938V236.04ZM169.398 244.46H186.178V246.58H169.398V244.46ZM176.678 245.82H179.338V249.72H176.678V245.82ZM171.338 251.32H184.318V253.46H171.338V251.32ZM171.338 248.12H173.998V252.08H171.338V248.12ZM193.016 235.78C193.976 235.78 194.823 235.967 195.556 236.34C196.303 236.7 196.889 237.2 197.316 237.84C197.756 238.467 197.976 239.193 197.976 240.02C197.976 240.847 197.756 241.58 197.316 242.22C196.889 242.847 196.303 243.34 195.556 243.7C194.823 244.06 193.976 244.24 193.016 244.24C192.083 244.24 191.243 244.06 190.496 243.7C189.749 243.34 189.156 242.847 188.716 242.22C188.289 241.58 188.076 240.847 188.076 240.02C188.076 239.193 188.289 238.46 188.716 237.82C189.156 237.18 189.749 236.68 190.496 236.32C191.243 235.96 192.083 235.78 193.016 235.78ZM193.036 237.94C192.583 237.94 192.176 238.027 191.816 238.2C191.456 238.36 191.169 238.593 190.956 238.9C190.756 239.207 190.656 239.58 190.656 240.02C190.656 240.46 190.756 240.84 190.956 241.16C191.169 241.467 191.449 241.7 191.796 241.86C192.156 242.02 192.569 242.1 193.036 242.1C193.489 242.1 193.889 242.02 194.236 241.86C194.596 241.7 194.876 241.467 195.076 241.16C195.289 240.84 195.396 240.46 195.396 240.02C195.396 239.58 195.289 239.207 195.076 238.9C194.876 238.593 194.596 238.36 194.236 238.2C193.876 238.027 193.476 237.94 193.036 237.94ZM200.536 235.26H203.196V244.52H200.536V235.26ZM190.856 245.28H203.196V250.34H193.496V252.6H190.876V248.42H200.556V247.32H190.856V245.28ZM190.876 251.5H203.656V253.58H190.876V251.5ZM214.595 235.5C216.701 235.5 218.341 235.773 219.515 236.32C220.701 236.867 221.295 237.653 221.295 238.68C221.295 239.693 220.701 240.473 219.515 241.02C218.341 241.567 216.701 241.84 214.595 241.84C212.475 241.84 210.821 241.567 209.635 241.02C208.461 240.473 207.875 239.693 207.875 238.68C207.875 237.653 208.461 236.867 209.635 236.32C210.821 235.773 212.475 235.5 214.595 235.5ZM214.575 237.46C213.695 237.46 212.961 237.507 212.375 237.6C211.788 237.68 211.348 237.813 211.055 238C210.775 238.173 210.635 238.4 210.635 238.68C210.635 238.96 210.775 239.193 211.055 239.38C211.348 239.553 211.788 239.68 212.375 239.76C212.961 239.84 213.695 239.88 214.575 239.88C215.468 239.88 216.208 239.84 216.795 239.76C217.381 239.68 217.815 239.553 218.095 239.38C218.375 239.193 218.515 238.96 218.515 238.68C218.515 238.4 218.375 238.173 218.095 238C217.815 237.813 217.381 237.68 216.795 237.6C216.208 237.507 215.468 237.46 214.575 237.46ZM206.195 242.7H222.955V244.8H206.195V242.7ZM208.115 245.84H220.915V250.58H210.775V252.22H208.135V248.74H218.295V247.8H208.115V245.84ZM208.135 251.64H221.415V253.66H208.135V251.64ZM238.662 239.18H242.962V241.34H238.662V239.18ZM233.462 236.38H235.602V238.38C235.602 239.633 235.422 240.813 235.062 241.92C234.702 243.027 234.142 243.993 233.382 244.82C232.636 245.633 231.676 246.253 230.502 246.68L229.102 244.6C229.876 244.333 230.536 243.987 231.082 243.56C231.629 243.133 232.076 242.647 232.422 242.1C232.769 241.54 233.029 240.947 233.202 240.32C233.376 239.693 233.462 239.047 233.462 238.38V236.38ZM234.022 236.38H236.142V238.4C236.142 239 236.222 239.587 236.382 240.16C236.542 240.733 236.789 241.28 237.122 241.8C237.456 242.32 237.882 242.787 238.402 243.2C238.936 243.6 239.562 243.927 240.282 244.18L238.882 246.22C237.776 245.807 236.862 245.213 236.142 244.44C235.422 243.667 234.889 242.76 234.542 241.72C234.196 240.68 234.022 239.573 234.022 238.4V236.38ZM242.042 235.26H244.722V248.92H242.042V235.26ZM232.462 251.32H245.122V253.46H232.462V251.32ZM232.462 247.56H235.122V252.52H232.462V247.56ZM248.241 243.7H249.521C250.414 243.7 251.214 243.693 251.921 243.68C252.641 243.653 253.321 243.613 253.961 243.56C254.601 243.493 255.261 243.407 255.941 243.3L256.181 245.42C255.474 245.54 254.787 245.633 254.121 245.7C253.454 245.767 252.747 245.807 252.001 245.82C251.267 245.833 250.441 245.84 249.521 245.84H248.241V243.7ZM248.241 236.48H255.521V238.6H250.801V244.88H248.241V236.48ZM250.041 240.12H255.341V242.12H250.041V240.12ZM260.861 235.24H263.401V246.56H260.861V235.24ZM258.661 239.78H261.601V241.92H258.661V239.78ZM256.921 235.58H259.401V246.44H256.921V235.58ZM250.661 247.34H263.401V253.78H260.741V249.48H250.661V247.34ZM265.999 238.04H274.859V240.14H265.999V238.04ZM270.459 240.98C271.246 240.98 271.939 241.167 272.539 241.54C273.153 241.913 273.633 242.433 273.979 243.1C274.339 243.753 274.519 244.513 274.519 245.38C274.519 246.247 274.339 247.013 273.979 247.68C273.633 248.333 273.153 248.847 272.539 249.22C271.939 249.593 271.246 249.78 270.459 249.78C269.673 249.78 268.973 249.593 268.359 249.22C267.746 248.847 267.266 248.333 266.919 247.68C266.573 247.013 266.399 246.247 266.399 245.38C266.399 244.513 266.573 243.753 266.919 243.1C267.266 242.433 267.746 241.913 268.359 241.54C268.986 241.167 269.686 240.98 270.459 240.98ZM270.459 243.18C270.139 243.18 269.846 243.267 269.579 243.44C269.313 243.613 269.106 243.867 268.959 244.2C268.813 244.52 268.739 244.913 268.739 245.38C268.739 245.847 268.813 246.247 268.959 246.58C269.106 246.913 269.313 247.167 269.579 247.34C269.846 247.5 270.139 247.58 270.459 247.58C270.793 247.58 271.086 247.5 271.339 247.34C271.593 247.167 271.793 246.913 271.939 246.58C272.086 246.247 272.159 245.847 272.159 245.38C272.159 244.913 272.086 244.52 271.939 244.2C271.793 243.867 271.593 243.613 271.339 243.44C271.086 243.267 270.793 243.18 270.459 243.18ZM279.399 235.24H281.919V253.76H279.399V235.24ZM277.179 242.78H280.219V244.92H277.179V242.78ZM275.499 235.58H277.979V252.98H275.499V235.58ZM269.159 235.74H271.779V239.36H269.159V235.74ZM291.258 237.3H293.578V237.86C293.578 238.5 293.471 239.12 293.258 239.72C293.058 240.32 292.751 240.88 292.338 241.4C291.924 241.907 291.418 242.367 290.818 242.78C290.231 243.18 289.551 243.52 288.778 243.8C288.004 244.08 287.144 244.28 286.198 244.4L285.218 242.34C286.044 242.233 286.778 242.073 287.418 241.86C288.071 241.633 288.638 241.373 289.118 241.08C289.598 240.773 289.998 240.447 290.318 240.1C290.638 239.753 290.871 239.387 291.018 239C291.178 238.613 291.258 238.233 291.258 237.86V237.3ZM292.038 237.3H294.338V237.86C294.338 238.233 294.411 238.613 294.558 239C294.718 239.387 294.958 239.753 295.278 240.1C295.598 240.447 295.998 240.773 296.478 241.08C296.971 241.373 297.538 241.633 298.178 241.86C298.818 242.073 299.551 242.233 300.378 242.34L299.398 244.4C298.451 244.28 297.591 244.08 296.818 243.8C296.044 243.52 295.358 243.18 294.758 242.78C294.171 242.367 293.671 241.907 293.258 241.4C292.858 240.88 292.551 240.32 292.338 239.72C292.138 239.12 292.038 238.5 292.038 237.86V237.3ZM291.398 247H294.058V253.78H291.398V247ZM284.418 245.46H301.178V247.6H284.418V245.46ZM285.898 236.2H299.638V238.3H285.898V236.2ZM310.096 241.48H313.176V243.64H310.096V241.48ZM306.156 236.86H308.176V239.96C308.176 241.013 308.103 242.047 307.956 243.06C307.809 244.073 307.569 245.027 307.236 245.92C306.916 246.813 306.489 247.62 305.956 248.34C305.436 249.047 304.803 249.627 304.056 250.08L302.456 248.08C303.149 247.667 303.729 247.16 304.196 246.56C304.663 245.96 305.043 245.3 305.336 244.58C305.629 243.86 305.836 243.113 305.956 242.34C306.089 241.553 306.156 240.76 306.156 239.96V236.86ZM306.736 236.86H308.716V239.84C308.716 240.6 308.769 241.353 308.876 242.1C308.996 242.847 309.183 243.56 309.436 244.24C309.689 244.92 310.023 245.547 310.436 246.12C310.863 246.693 311.396 247.187 312.036 247.6L310.576 249.68C309.856 249.227 309.243 248.653 308.736 247.96C308.243 247.253 307.849 246.46 307.556 245.58C307.263 244.7 307.049 243.773 306.916 242.8C306.796 241.827 306.736 240.84 306.736 239.84V236.86ZM316.176 235.24H318.716V253.76H316.176V235.24ZM312.416 235.54H314.896V252.94H312.416V235.54ZM324.895 244.66H327.555V249.84H324.895V244.66ZM331.615 244.66H334.275V249.84H331.615V244.66ZM321.215 249.46H337.995V251.62H321.215V249.46ZM329.575 236.16C330.908 236.16 332.095 236.367 333.135 236.78C334.188 237.193 335.008 237.773 335.595 238.52C336.195 239.253 336.495 240.127 336.495 241.14C336.495 242.14 336.195 243.013 335.595 243.76C335.008 244.493 334.188 245.067 333.135 245.48C332.095 245.893 330.908 246.1 329.575 246.1C328.255 246.1 327.068 245.893 326.015 245.48C324.975 245.067 324.155 244.493 323.555 243.76C322.955 243.013 322.655 242.14 322.655 241.14C322.655 240.127 322.955 239.253 323.555 238.52C324.155 237.773 324.975 237.193 326.015 236.78C327.068 236.367 328.255 236.16 329.575 236.16ZM329.575 238.22C328.721 238.22 327.968 238.34 327.315 238.58C326.675 238.807 326.175 239.133 325.815 239.56C325.455 239.987 325.275 240.513 325.275 241.14C325.275 241.74 325.455 242.26 325.815 242.7C326.175 243.127 326.675 243.46 327.315 243.7C327.968 243.927 328.721 244.04 329.575 244.04C330.441 244.04 331.195 243.927 331.835 243.7C332.488 243.46 332.988 243.127 333.335 242.7C333.695 242.26 333.875 241.74 333.875 241.14C333.875 240.513 333.695 239.987 333.335 239.56C332.988 239.133 332.488 238.807 331.835 238.58C331.195 238.34 330.441 238.22 329.575 238.22ZM340.033 250.604C340.033 250.174 340.176 249.816 340.463 249.529C340.749 249.236 341.137 249.09 341.625 249.09C342.113 249.09 342.501 249.236 342.787 249.529C343.074 249.816 343.217 250.174 343.217 250.604C343.217 251.033 343.074 251.391 342.787 251.678C342.501 251.964 342.113 252.107 341.625 252.107C341.137 252.107 340.749 251.964 340.463 251.678C340.176 251.391 340.033 251.033 340.033 250.604Z" fill="black"/>
<path d="M54.508 312.076H55.504V322.936H54.508V312.076ZM51.328 313.252H52.312C52.312 314.036 52.216 314.792 52.024 315.52C51.84 316.248 51.548 316.94 51.148 317.596C50.748 318.244 50.228 318.848 49.588 319.408C48.948 319.968 48.172 320.468 47.26 320.908L46.732 320.104C47.78 319.6 48.644 319.012 49.324 318.34C50.004 317.668 50.508 316.92 50.836 316.096C51.164 315.264 51.328 314.368 51.328 313.408V313.252ZM47.236 313.252H51.748V314.056H47.236V313.252ZM61.8991 313.108H62.7751V313.432C62.7751 313.888 62.6631 314.308 62.4391 314.692C62.2151 315.076 61.9071 315.42 61.5151 315.724C61.1311 316.02 60.6871 316.268 60.1831 316.468C59.6871 316.66 59.1591 316.796 58.5991 316.876L58.2271 316.084C58.6111 316.028 58.9831 315.944 59.3431 315.832C59.7111 315.72 60.0471 315.584 60.3511 315.424C60.6551 315.256 60.9231 315.068 61.1551 314.86C61.3871 314.652 61.5671 314.428 61.6951 314.188C61.8311 313.948 61.8991 313.696 61.8991 313.432V313.108ZM62.3071 313.108H63.1831V313.432C63.1831 313.688 63.2471 313.936 63.3751 314.176C63.5111 314.416 63.6951 314.644 63.9271 314.86C64.1591 315.068 64.4271 315.256 64.7311 315.424C65.0431 315.584 65.3791 315.72 65.7391 315.832C66.0991 315.944 66.4711 316.028 66.8551 316.084L66.4831 316.876C65.9311 316.796 65.4031 316.66 64.8991 316.468C64.3951 316.268 63.9511 316.02 63.5671 315.724C63.1831 315.42 62.8751 315.076 62.6431 314.692C62.4191 314.308 62.3071 313.888 62.3071 313.432V313.108ZM58.5391 312.616H66.5551V313.42H58.5391V312.616ZM57.6271 317.656H67.4671V318.472H57.6271V317.656ZM62.1151 318.172H63.1111V320.668H62.1151V318.172ZM58.8751 321.88H66.3751V322.696H58.8751V321.88ZM58.8751 319.612H59.8711V322.18H58.8751V319.612ZM71.7261 312.472C72.2701 312.472 72.7501 312.576 73.1661 312.784C73.5901 312.984 73.9221 313.264 74.1621 313.624C74.4021 313.984 74.5221 314.404 74.5221 314.884C74.5221 315.356 74.4021 315.776 74.1621 316.144C73.9221 316.504 73.5901 316.784 73.1661 316.984C72.7501 317.184 72.2701 317.284 71.7261 317.284C71.1901 317.284 70.7101 317.184 70.2861 316.984C69.8621 316.784 69.5261 316.504 69.2781 316.144C69.0381 315.776 68.9181 315.356 68.9181 314.884C68.9181 314.404 69.0381 313.984 69.2781 313.624C69.5261 313.264 69.8621 312.984 70.2861 312.784C70.7101 312.576 71.1901 312.472 71.7261 312.472ZM71.7261 313.3C71.3741 313.3 71.0581 313.368 70.7781 313.504C70.5061 313.632 70.2901 313.816 70.1301 314.056C69.9701 314.296 69.8901 314.572 69.8901 314.884C69.8901 315.196 69.9701 315.472 70.1301 315.712C70.2901 315.944 70.5061 316.128 70.7781 316.264C71.0581 316.4 71.3741 316.468 71.7261 316.468C72.0781 316.468 72.3901 316.4 72.6621 316.264C72.9421 316.128 73.1621 315.944 73.3221 315.712C73.4821 315.472 73.5621 315.196 73.5621 314.884C73.5621 314.572 73.4821 314.296 73.3221 314.056C73.1621 313.816 72.9421 313.632 72.6621 313.504C72.3901 313.368 72.0781 313.3 71.7261 313.3ZM76.5741 312.076H77.5701V317.632H76.5741V312.076ZM70.5501 318.172H77.5701V320.8H71.5461V322.432H70.5861V320.056H76.5861V318.964H70.5501V318.172ZM70.5861 321.988H77.9421V322.792H70.5861V321.988Z" fill="#404040"/>
<rect x="104.5" y="339.5" width="261" height="241" rx="7.5" fill="#FBFCFB"/>
<rect x="104.5" y="339.5" width="261" height="241" rx="7.5" stroke="#2383BD"/>
<path d="M125.344 351.768H126.672V366.248H125.344V351.768ZM121.104 353.336H122.416C122.416 354.381 122.288 355.389 122.032 356.36C121.787 357.331 121.397 358.253 120.864 359.128C120.331 359.992 119.637 360.797 118.784 361.544C117.931 362.291 116.896 362.957 115.68 363.544L114.976 362.472C116.373 361.8 117.525 361.016 118.432 360.12C119.339 359.224 120.011 358.227 120.448 357.128C120.885 356.019 121.104 354.824 121.104 353.544V353.336ZM115.648 353.336H121.664V354.408H115.648V353.336ZM135.199 353.144H136.367V353.576C136.367 354.184 136.217 354.744 135.919 355.256C135.62 355.768 135.209 356.227 134.687 356.632C134.175 357.027 133.583 357.357 132.911 357.624C132.249 357.88 131.545 358.061 130.799 358.168L130.303 357.112C130.815 357.037 131.311 356.925 131.791 356.776C132.281 356.627 132.729 356.445 133.135 356.232C133.54 356.008 133.897 355.757 134.207 355.48C134.516 355.203 134.756 354.904 134.927 354.584C135.108 354.264 135.199 353.928 135.199 353.576V353.144ZM135.743 353.144H136.911V353.576C136.911 353.917 136.996 354.248 137.167 354.568C137.348 354.888 137.593 355.192 137.903 355.48C138.212 355.757 138.569 356.008 138.975 356.232C139.391 356.445 139.839 356.627 140.319 356.776C140.799 356.925 141.295 357.037 141.807 357.112L141.311 358.168C140.575 358.061 139.871 357.88 139.199 357.624C138.527 357.357 137.935 357.027 137.423 356.632C136.911 356.227 136.5 355.768 136.191 355.256C135.892 354.744 135.743 354.184 135.743 353.576V353.144ZM130.719 352.488H141.407V353.56H130.719V352.488ZM129.503 359.208H142.623V360.296H129.503V359.208ZM135.487 359.896H136.815V363.224H135.487V359.896ZM131.167 364.84H141.167V365.928H131.167V364.84ZM131.167 361.816H132.495V365.24H131.167V361.816ZM148.302 352.296C149.027 352.296 149.667 352.435 150.222 352.712C150.787 352.979 151.23 353.352 151.55 353.832C151.87 354.312 152.03 354.872 152.03 355.512C152.03 356.141 151.87 356.701 151.55 357.192C151.23 357.672 150.787 358.045 150.222 358.312C149.667 358.579 149.027 358.712 148.302 358.712C147.587 358.712 146.947 358.579 146.382 358.312C145.816 358.045 145.368 357.672 145.038 357.192C144.718 356.701 144.558 356.141 144.558 355.512C144.558 354.872 144.718 354.312 145.038 353.832C145.368 353.352 145.816 352.979 146.382 352.712C146.947 352.435 147.587 352.296 148.302 352.296ZM148.302 353.4C147.832 353.4 147.411 353.491 147.038 353.672C146.675 353.843 146.387 354.088 146.174 354.408C145.96 354.728 145.854 355.096 145.854 355.512C145.854 355.928 145.96 356.296 146.174 356.616C146.387 356.925 146.675 357.171 147.038 357.352C147.411 357.533 147.832 357.624 148.302 357.624C148.771 357.624 149.187 357.533 149.55 357.352C149.923 357.171 150.216 356.925 150.43 356.616C150.643 356.296 150.75 355.928 150.75 355.512C150.75 355.096 150.643 354.728 150.43 354.408C150.216 354.088 149.923 353.843 149.55 353.672C149.187 353.491 148.771 353.4 148.302 353.4ZM154.766 351.768H156.094V359.176H154.766V351.768ZM146.734 359.896H156.094V363.4H148.062V365.576H146.782V362.408H154.782V360.952H146.734V359.896ZM146.782 364.984H156.59V366.056H146.782V364.984ZM170.349 355.176H173.981V356.28H170.349V355.176ZM166.557 352.648H167.629V354.424C167.629 355.352 167.464 356.221 167.133 357.032C166.802 357.843 166.338 358.552 165.741 359.16C165.144 359.757 164.445 360.216 163.645 360.536L162.941 359.48C163.485 359.277 163.976 359.005 164.413 358.664C164.861 358.323 165.24 357.928 165.549 357.48C165.869 357.032 166.114 356.552 166.285 356.04C166.466 355.517 166.557 354.979 166.557 354.424V352.648ZM166.797 352.648H167.869V354.472C167.869 354.973 167.954 355.464 168.125 355.944C168.296 356.424 168.536 356.872 168.845 357.288C169.154 357.704 169.522 358.072 169.949 358.392C170.386 358.712 170.866 358.968 171.389 359.16L170.669 360.2C169.901 359.891 169.224 359.453 168.637 358.888C168.061 358.323 167.608 357.661 167.277 356.904C166.957 356.147 166.797 355.336 166.797 354.472V352.648ZM173.501 351.784H174.829V362.6H173.501V351.784ZM165.533 364.84H175.165V365.928H165.533V364.84ZM165.533 361.4H166.861V365.336H165.533V361.4ZM178.268 358.696H179.18C179.948 358.696 180.62 358.691 181.196 358.68C181.782 358.659 182.332 358.621 182.844 358.568C183.356 358.504 183.878 358.419 184.412 358.312L184.556 359.4C184.001 359.507 183.457 359.592 182.924 359.656C182.401 359.709 181.841 359.747 181.244 359.768C180.646 359.789 179.958 359.8 179.18 359.8H178.268V358.696ZM178.268 352.824H183.852V353.912H179.548V359.288H178.268V352.824ZM179.148 355.704H183.692V356.744H179.148V355.704ZM188.572 351.784H189.836V360.552H188.572V351.784ZM186.236 355.544H188.956V356.632H186.236V355.544ZM185.372 352.056H186.62V360.456H185.372V352.056ZM180.14 361.304H189.836V366.248H188.524V362.392H180.14V361.304Z" fill="#8C8C8C"/>
<g clip-path="url(#clip0_376_11197)">
<g filter="url(#filter0_d_376_11197)">
<path d="M335.473 362.854C335.847 363.228 336.45 363.228 336.824 362.854L341.501 358.177L346.178 362.854C346.551 363.228 347.155 363.228 347.529 362.854C347.903 362.48 347.903 361.876 347.529 361.503L342.172 356.145C341.798 355.772 341.194 355.772 340.82 356.145L335.463 361.503C335.099 361.867 335.099 362.48 335.473 362.854Z" fill="#8C8C8C"/>
</g>
</g>
<path d="M57.824 340.768H59.104V355.248H57.824V340.768ZM55.52 346.496H58.304V347.6H55.52V346.496ZM54.608 341.072H55.872V354.512H54.608V341.072ZM47.312 342.448H52.832V351.36H47.312V342.448ZM51.584 343.504H48.56V350.304H51.584V343.504ZM65.4068 346.752H66.7188V349.344H65.4068V346.752ZM72.0308 340.784H73.3588V349.296H72.0308V340.784ZM61.6308 347.2L61.4708 346.224C62.3988 346.224 63.3908 346.219 64.4468 346.208C65.5134 346.187 66.5961 346.155 67.6948 346.112C68.7934 346.059 69.8601 345.973 70.8948 345.856L70.9748 346.72C69.9188 346.869 68.8414 346.981 67.7428 347.056C66.6548 347.12 65.5881 347.163 64.5428 347.184C63.5081 347.195 62.5374 347.2 61.6308 347.2ZM63.6628 349.824H73.3588V352.832H65.0068V354.464H63.7108V351.936H72.0468V350.768H63.6628V349.824ZM63.7108 354.112H73.8388V355.088H63.7108V354.112ZM69.1508 347.664H72.4628V348.528H69.1508V347.664ZM66.1428 341.056C66.8574 341.056 67.4814 341.141 68.0148 341.312C68.5481 341.483 68.9641 341.733 69.2628 342.064C69.5614 342.395 69.7108 342.784 69.7108 343.232C69.7108 343.669 69.5614 344.053 69.2628 344.384C68.9641 344.704 68.5481 344.955 68.0148 345.136C67.4814 345.307 66.8574 345.392 66.1428 345.392C65.4281 345.392 64.7988 345.307 64.2548 345.136C63.7214 344.955 63.3054 344.704 63.0068 344.384C62.7188 344.053 62.5748 343.669 62.5748 343.232C62.5748 342.784 62.7188 342.395 63.0068 342.064C63.3054 341.733 63.7214 341.483 64.2548 341.312C64.7988 341.141 65.4281 341.056 66.1428 341.056ZM66.1428 341.968C65.4388 341.968 64.8734 342.08 64.4468 342.304C64.0308 342.528 63.8228 342.837 63.8228 343.232C63.8228 343.605 64.0308 343.909 64.4468 344.144C64.8734 344.368 65.4388 344.48 66.1428 344.48C66.8468 344.48 67.4068 344.368 67.8228 344.144C68.2494 343.909 68.4628 343.605 68.4628 343.232C68.4628 342.837 68.2494 342.528 67.8228 342.304C67.4068 342.08 66.8468 341.968 66.1428 341.968Z" fill="black"/>
<rect x="112.5" y="382.5" width="244" height="187" rx="7.5" fill="white"/>
<rect x="112.5" y="382.5" width="244" height="187" rx="7.5" stroke="#CBCBCB"/>
<rect width="32" height="34" transform="translate(120 390)" fill="white"/>
<path d="M136.896 402.422V411H135.812V403.775L133.627 404.572V403.594L136.727 402.422H136.896Z" fill="#0C0C0C"/>
<rect width="32" height="34" transform="translate(152 390)" fill="white"/>
<path d="M170.924 410.109V411H165.34V410.221L168.135 407.109C168.479 406.727 168.744 406.402 168.932 406.137C169.123 405.867 169.256 405.627 169.33 405.416C169.408 405.201 169.447 404.982 169.447 404.76C169.447 404.479 169.389 404.225 169.271 403.998C169.158 403.768 168.99 403.584 168.768 403.447C168.545 403.311 168.275 403.242 167.959 403.242C167.58 403.242 167.264 403.316 167.01 403.465C166.76 403.609 166.572 403.812 166.447 404.074C166.322 404.336 166.26 404.637 166.26 404.977H165.176C165.176 404.496 165.281 404.057 165.492 403.658C165.703 403.26 166.016 402.943 166.43 402.709C166.844 402.471 167.354 402.352 167.959 402.352C168.498 402.352 168.959 402.447 169.342 402.639C169.725 402.826 170.018 403.092 170.221 403.436C170.428 403.775 170.531 404.174 170.531 404.631C170.531 404.881 170.488 405.135 170.402 405.393C170.32 405.646 170.205 405.9 170.057 406.154C169.912 406.408 169.742 406.658 169.547 406.904C169.355 407.15 169.15 407.393 168.932 407.631L166.646 410.109H170.924Z" fill="#0C0C0C"/>
<rect width="32" height="34" transform="translate(184 390)" fill="white"/>
<path d="M198.916 406.201H199.689C200.068 406.201 200.381 406.139 200.627 406.014C200.877 405.885 201.062 405.711 201.184 405.492C201.309 405.27 201.371 405.02 201.371 404.742C201.371 404.414 201.316 404.139 201.207 403.916C201.098 403.693 200.934 403.525 200.715 403.412C200.496 403.299 200.219 403.242 199.883 403.242C199.578 403.242 199.309 403.303 199.074 403.424C198.844 403.541 198.662 403.709 198.529 403.928C198.4 404.146 198.336 404.404 198.336 404.701H197.252C197.252 404.268 197.361 403.873 197.58 403.518C197.799 403.162 198.105 402.879 198.5 402.668C198.898 402.457 199.359 402.352 199.883 402.352C200.398 402.352 200.85 402.443 201.236 402.627C201.623 402.807 201.924 403.076 202.139 403.436C202.354 403.791 202.461 404.234 202.461 404.766C202.461 404.98 202.41 405.211 202.309 405.457C202.211 405.699 202.057 405.926 201.846 406.137C201.639 406.348 201.369 406.521 201.037 406.658C200.705 406.791 200.307 406.857 199.842 406.857H198.916V406.201ZM198.916 407.092V406.441H199.842C200.385 406.441 200.834 406.506 201.189 406.635C201.545 406.764 201.824 406.936 202.027 407.15C202.234 407.365 202.379 407.602 202.461 407.859C202.547 408.113 202.59 408.367 202.59 408.621C202.59 409.02 202.521 409.373 202.385 409.682C202.252 409.99 202.062 410.252 201.816 410.467C201.574 410.682 201.289 410.844 200.961 410.953C200.633 411.062 200.275 411.117 199.889 411.117C199.518 411.117 199.168 411.064 198.84 410.959C198.516 410.854 198.229 410.701 197.979 410.502C197.729 410.299 197.533 410.051 197.393 409.758C197.252 409.461 197.182 409.123 197.182 408.744H198.266C198.266 409.041 198.33 409.301 198.459 409.523C198.592 409.746 198.779 409.92 199.021 410.045C199.268 410.166 199.557 410.227 199.889 410.227C200.221 410.227 200.506 410.17 200.744 410.057C200.986 409.939 201.172 409.764 201.301 409.529C201.434 409.295 201.5 409 201.5 408.645C201.5 408.289 201.426 407.998 201.277 407.771C201.129 407.541 200.918 407.371 200.645 407.262C200.375 407.148 200.057 407.092 199.689 407.092H198.916Z" fill="#0C0C0C"/>
<rect width="32" height="34" transform="translate(216 390)" fill="white"/>
<path d="M235.1 408.129V409.02H228.936V408.381L232.756 402.469H233.641L232.691 404.18L230.166 408.129H235.1ZM233.91 402.469V411H232.826V402.469H233.91Z" fill="#0C0C0C"/>
<rect width="32" height="34" transform="translate(248 390)" fill="white"/>
<path d="M262.705 406.939L261.838 406.717L262.266 402.469H266.643V403.471H263.186L262.928 405.791C263.084 405.701 263.281 405.617 263.52 405.539C263.762 405.461 264.039 405.422 264.352 405.422C264.746 405.422 265.1 405.49 265.412 405.627C265.725 405.76 265.99 405.951 266.209 406.201C266.432 406.451 266.602 406.752 266.719 407.104C266.836 407.455 266.895 407.848 266.895 408.281C266.895 408.691 266.838 409.068 266.725 409.412C266.615 409.756 266.449 410.057 266.227 410.314C266.004 410.568 265.723 410.766 265.383 410.906C265.047 411.047 264.65 411.117 264.193 411.117C263.85 411.117 263.523 411.07 263.215 410.977C262.91 410.879 262.637 410.732 262.395 410.537C262.156 410.338 261.961 410.092 261.809 409.799C261.66 409.502 261.566 409.154 261.527 408.756H262.559C262.605 409.076 262.699 409.346 262.84 409.564C262.98 409.783 263.164 409.949 263.391 410.062C263.621 410.172 263.889 410.227 264.193 410.227C264.451 410.227 264.68 410.182 264.879 410.092C265.078 410.002 265.246 409.873 265.383 409.705C265.52 409.537 265.623 409.334 265.693 409.096C265.768 408.857 265.805 408.59 265.805 408.293C265.805 408.023 265.768 407.773 265.693 407.543C265.619 407.312 265.508 407.111 265.359 406.939C265.215 406.768 265.037 406.635 264.826 406.541C264.615 406.443 264.373 406.395 264.1 406.395C263.736 406.395 263.461 406.443 263.273 406.541C263.09 406.639 262.9 406.771 262.705 406.939Z" fill="#0C0C0C"/>
<rect width="32" height="34" transform="translate(280 390)" fill="white"/>
<path d="M297.494 402.457H297.588V403.377H297.494C296.92 403.377 296.439 403.471 296.053 403.658C295.666 403.842 295.359 404.09 295.133 404.402C294.906 404.711 294.742 405.059 294.641 405.445C294.543 405.832 294.494 406.225 294.494 406.623V407.877C294.494 408.256 294.539 408.592 294.629 408.885C294.719 409.174 294.842 409.418 294.998 409.617C295.154 409.816 295.33 409.967 295.525 410.068C295.725 410.17 295.932 410.221 296.146 410.221C296.396 410.221 296.619 410.174 296.814 410.08C297.01 409.982 297.174 409.848 297.307 409.676C297.443 409.5 297.547 409.293 297.617 409.055C297.688 408.816 297.723 408.555 297.723 408.27C297.723 408.016 297.691 407.771 297.629 407.537C297.566 407.299 297.471 407.088 297.342 406.904C297.213 406.717 297.051 406.57 296.855 406.465C296.664 406.355 296.436 406.301 296.17 406.301C295.869 406.301 295.588 406.375 295.326 406.523C295.068 406.668 294.855 406.859 294.688 407.098C294.523 407.332 294.43 407.588 294.406 407.865L293.832 407.859C293.887 407.422 293.988 407.049 294.137 406.74C294.289 406.428 294.477 406.174 294.699 405.979C294.926 405.779 295.178 405.635 295.455 405.545C295.736 405.451 296.033 405.404 296.346 405.404C296.771 405.404 297.139 405.484 297.447 405.645C297.756 405.805 298.01 406.02 298.209 406.289C298.408 406.555 298.555 406.855 298.648 407.191C298.746 407.523 298.795 407.865 298.795 408.217C298.795 408.619 298.738 408.996 298.625 409.348C298.512 409.699 298.342 410.008 298.115 410.273C297.893 410.539 297.617 410.746 297.289 410.895C296.961 411.043 296.58 411.117 296.146 411.117C295.686 411.117 295.283 411.023 294.939 410.836C294.596 410.645 294.311 410.391 294.084 410.074C293.857 409.758 293.688 409.406 293.574 409.02C293.461 408.633 293.404 408.24 293.404 407.842V407.332C293.404 406.73 293.465 406.141 293.586 405.562C293.707 404.984 293.916 404.461 294.213 403.992C294.514 403.523 294.93 403.15 295.461 402.873C295.992 402.596 296.67 402.457 297.494 402.457Z" fill="#0C0C0C"/>
<rect width="32" height="34" transform="translate(312 390)" fill="white"/>
<path opacity="0.7" d="M330.848 402.469V403.078L327.314 411H326.172L329.699 403.359H325.082V402.469H330.848Z" fill="#0C0C0C"/>
<rect width="32" height="34" transform="translate(120 424)" fill="white"/>
<path opacity="0.8" d="M138.713 442.691C138.713 443.211 138.592 443.652 138.35 444.016C138.111 444.375 137.787 444.648 137.377 444.836C136.971 445.023 136.512 445.117 136 445.117C135.488 445.117 135.027 445.023 134.617 444.836C134.207 444.648 133.883 444.375 133.645 444.016C133.406 443.652 133.287 443.211 133.287 442.691C133.287 442.352 133.352 442.041 133.48 441.76C133.613 441.475 133.799 441.227 134.037 441.016C134.279 440.805 134.564 440.643 134.893 440.529C135.225 440.412 135.59 440.354 135.988 440.354C136.512 440.354 136.979 440.455 137.389 440.658C137.799 440.857 138.121 441.133 138.355 441.484C138.594 441.836 138.713 442.238 138.713 442.691ZM137.623 442.668C137.623 442.352 137.555 442.072 137.418 441.83C137.281 441.584 137.09 441.393 136.844 441.256C136.598 441.119 136.312 441.051 135.988 441.051C135.656 441.051 135.369 441.119 135.127 441.256C134.889 441.393 134.703 441.584 134.57 441.83C134.438 442.072 134.371 442.352 134.371 442.668C134.371 442.996 134.436 443.277 134.564 443.512C134.697 443.742 134.885 443.92 135.127 444.045C135.373 444.166 135.664 444.227 136 444.227C136.336 444.227 136.625 444.166 136.867 444.045C137.109 443.92 137.295 443.742 137.424 443.512C137.557 443.277 137.623 442.996 137.623 442.668ZM138.514 438.689C138.514 439.104 138.404 439.477 138.186 439.809C137.967 440.141 137.668 440.402 137.289 440.594C136.91 440.785 136.48 440.881 136 440.881C135.512 440.881 135.076 440.785 134.693 440.594C134.314 440.402 134.018 440.141 133.803 439.809C133.588 439.477 133.48 439.104 133.48 438.689C133.48 438.193 133.588 437.771 133.803 437.424C134.021 437.076 134.32 436.811 134.699 436.627C135.078 436.443 135.51 436.352 135.994 436.352C136.482 436.352 136.916 436.443 137.295 436.627C137.674 436.811 137.971 437.076 138.186 437.424C138.404 437.771 138.514 438.193 138.514 438.689ZM137.43 438.707C137.43 438.422 137.369 438.17 137.248 437.951C137.127 437.732 136.959 437.561 136.744 437.436C136.529 437.307 136.279 437.242 135.994 437.242C135.709 437.242 135.459 437.303 135.244 437.424C135.033 437.541 134.867 437.709 134.746 437.928C134.629 438.146 134.57 438.406 134.57 438.707C134.57 439 134.629 439.256 134.746 439.475C134.867 439.693 135.035 439.863 135.25 439.984C135.465 440.105 135.715 440.166 136 440.166C136.285 440.166 136.533 440.105 136.744 439.984C136.959 439.863 137.127 439.693 137.248 439.475C137.369 439.256 137.43 439 137.43 438.707Z" fill="#0C0C0C"/>
<rect width="32" height="34" transform="translate(152 424)" fill="white"/>
<path d="M166.412 444.092H166.523C167.148 444.092 167.656 444.004 168.047 443.828C168.438 443.652 168.738 443.416 168.949 443.119C169.16 442.822 169.305 442.488 169.383 442.117C169.461 441.742 169.5 441.357 169.5 440.963V439.656C169.5 439.27 169.455 438.926 169.365 438.625C169.279 438.324 169.158 438.072 169.002 437.869C168.85 437.666 168.676 437.512 168.48 437.406C168.285 437.301 168.078 437.248 167.859 437.248C167.609 437.248 167.385 437.299 167.186 437.4C166.99 437.498 166.824 437.637 166.688 437.816C166.555 437.996 166.453 438.207 166.383 438.449C166.312 438.691 166.277 438.955 166.277 439.24C166.277 439.494 166.309 439.74 166.371 439.979C166.434 440.217 166.529 440.432 166.658 440.623C166.787 440.814 166.947 440.967 167.139 441.08C167.334 441.189 167.562 441.244 167.824 441.244C168.066 441.244 168.293 441.197 168.504 441.104C168.719 441.006 168.908 440.875 169.072 440.711C169.24 440.543 169.373 440.354 169.471 440.143C169.572 439.932 169.631 439.711 169.646 439.48H170.162C170.162 439.805 170.098 440.125 169.969 440.441C169.844 440.754 169.668 441.039 169.441 441.297C169.215 441.555 168.949 441.762 168.645 441.918C168.34 442.07 168.008 442.146 167.648 442.146C167.227 442.146 166.861 442.064 166.553 441.9C166.244 441.736 165.99 441.518 165.791 441.244C165.596 440.971 165.449 440.666 165.352 440.33C165.258 439.99 165.211 439.646 165.211 439.299C165.211 438.893 165.268 438.512 165.381 438.156C165.494 437.801 165.662 437.488 165.885 437.219C166.107 436.945 166.383 436.732 166.711 436.58C167.043 436.428 167.426 436.352 167.859 436.352C168.348 436.352 168.764 436.449 169.107 436.645C169.451 436.84 169.73 437.102 169.945 437.43C170.164 437.758 170.324 438.127 170.426 438.537C170.527 438.947 170.578 439.369 170.578 439.803V440.195C170.578 440.637 170.549 441.086 170.49 441.543C170.436 441.996 170.328 442.43 170.168 442.844C170.012 443.258 169.783 443.629 169.482 443.957C169.182 444.281 168.789 444.539 168.305 444.73C167.824 444.918 167.23 445.012 166.523 445.012H166.412V444.092Z" fill="#0C0C0C"/>
<rect width="32" height="34" transform="translate(184 424)" fill="white"/>
<path d="M197.521 436.422V445H196.438V437.775L194.252 438.572V437.594L197.352 436.422H197.521ZM206.064 440.055V441.355C206.064 442.055 206.002 442.645 205.877 443.125C205.752 443.605 205.572 443.992 205.338 444.285C205.104 444.578 204.82 444.791 204.488 444.924C204.16 445.053 203.789 445.117 203.375 445.117C203.047 445.117 202.744 445.076 202.467 444.994C202.189 444.912 201.939 444.781 201.717 444.602C201.498 444.418 201.311 444.18 201.154 443.887C200.998 443.594 200.879 443.238 200.797 442.82C200.715 442.402 200.674 441.914 200.674 441.355V440.055C200.674 439.355 200.736 438.77 200.861 438.297C200.99 437.824 201.172 437.445 201.406 437.16C201.641 436.871 201.922 436.664 202.25 436.539C202.582 436.414 202.953 436.352 203.363 436.352C203.695 436.352 204 436.393 204.277 436.475C204.559 436.553 204.809 436.68 205.027 436.855C205.246 437.027 205.432 437.258 205.584 437.547C205.74 437.832 205.859 438.182 205.941 438.596C206.023 439.01 206.064 439.496 206.064 440.055ZM204.975 441.531V439.873C204.975 439.49 204.951 439.154 204.904 438.865C204.861 438.572 204.797 438.322 204.711 438.115C204.625 437.908 204.516 437.74 204.383 437.611C204.254 437.482 204.104 437.389 203.932 437.33C203.764 437.268 203.574 437.236 203.363 437.236C203.105 437.236 202.877 437.285 202.678 437.383C202.479 437.477 202.311 437.627 202.174 437.834C202.041 438.041 201.939 438.312 201.869 438.648C201.799 438.984 201.764 439.393 201.764 439.873V441.531C201.764 441.914 201.785 442.252 201.828 442.545C201.875 442.838 201.943 443.092 202.033 443.307C202.123 443.518 202.232 443.691 202.361 443.828C202.49 443.965 202.639 444.066 202.807 444.133C202.979 444.195 203.168 444.227 203.375 444.227C203.641 444.227 203.873 444.176 204.072 444.074C204.271 443.973 204.438 443.814 204.57 443.6C204.707 443.381 204.809 443.102 204.875 442.762C204.941 442.418 204.975 442.008 204.975 441.531Z" fill="#0C0C0C"/>
<rect width="32" height="34" transform="translate(216 424)" fill="white"/>
<path d="M229.521 436.422V445H228.438V437.775L226.252 438.572V437.594L229.352 436.422H229.521ZM236.271 436.422V445H235.188V437.775L233.002 438.572V437.594L236.102 436.422H236.271Z" fill="#0C0C0C"/>
<rect x="248" y="424" width="32" height="34" rx="8" fill="#2383BD"/>
<path d="M261.521 436.422V445H260.438V437.775L258.252 438.572V437.594L261.352 436.422H261.521ZM270.299 444.109V445H264.715V444.221L267.51 441.109C267.854 440.727 268.119 440.402 268.307 440.137C268.498 439.867 268.631 439.627 268.705 439.416C268.783 439.201 268.822 438.982 268.822 438.76C268.822 438.479 268.764 438.225 268.646 437.998C268.533 437.768 268.365 437.584 268.143 437.447C267.92 437.311 267.65 437.242 267.334 437.242C266.955 437.242 266.639 437.316 266.385 437.465C266.135 437.609 265.947 437.812 265.822 438.074C265.697 438.336 265.635 438.637 265.635 438.977H264.551C264.551 438.496 264.656 438.057 264.867 437.658C265.078 437.26 265.391 436.943 265.805 436.709C266.219 436.471 266.729 436.352 267.334 436.352C267.873 436.352 268.334 436.447 268.717 436.639C269.1 436.826 269.393 437.092 269.596 437.436C269.803 437.775 269.906 438.174 269.906 438.631C269.906 438.881 269.863 439.135 269.777 439.393C269.695 439.646 269.58 439.9 269.432 440.154C269.287 440.408 269.117 440.658 268.922 440.904C268.73 441.15 268.525 441.393 268.307 441.631L266.021 444.109H270.299Z" fill="#FBFCFB"/>
<rect width="32" height="34" transform="translate(280 424)" fill="white"/>
<path d="M293.521 436.422V445H292.438V437.775L290.252 438.572V437.594L293.352 436.422H293.521ZM298.291 440.201H299.064C299.443 440.201 299.756 440.139 300.002 440.014C300.252 439.885 300.438 439.711 300.559 439.492C300.684 439.27 300.746 439.02 300.746 438.742C300.746 438.414 300.691 438.139 300.582 437.916C300.473 437.693 300.309 437.525 300.09 437.412C299.871 437.299 299.594 437.242 299.258 437.242C298.953 437.242 298.684 437.303 298.449 437.424C298.219 437.541 298.037 437.709 297.904 437.928C297.775 438.146 297.711 438.404 297.711 438.701H296.627C296.627 438.268 296.736 437.873 296.955 437.518C297.174 437.162 297.48 436.879 297.875 436.668C298.273 436.457 298.734 436.352 299.258 436.352C299.773 436.352 300.225 436.443 300.611 436.627C300.998 436.807 301.299 437.076 301.514 437.436C301.729 437.791 301.836 438.234 301.836 438.766C301.836 438.98 301.785 439.211 301.684 439.457C301.586 439.699 301.432 439.926 301.221 440.137C301.014 440.348 300.744 440.521 300.412 440.658C300.08 440.791 299.682 440.857 299.217 440.857H298.291V440.201ZM298.291 441.092V440.441H299.217C299.76 440.441 300.209 440.506 300.564 440.635C300.92 440.764 301.199 440.936 301.402 441.15C301.609 441.365 301.754 441.602 301.836 441.859C301.922 442.113 301.965 442.367 301.965 442.621C301.965 443.02 301.896 443.373 301.76 443.682C301.627 443.99 301.438 444.252 301.191 444.467C300.949 444.682 300.664 444.844 300.336 444.953C300.008 445.062 299.65 445.117 299.264 445.117C298.893 445.117 298.543 445.064 298.215 444.959C297.891 444.854 297.604 444.701 297.354 444.502C297.104 444.299 296.908 444.051 296.768 443.758C296.627 443.461 296.557 443.123 296.557 442.744H297.641C297.641 443.041 297.705 443.301 297.834 443.523C297.967 443.746 298.154 443.92 298.396 444.045C298.643 444.166 298.932 444.227 299.264 444.227C299.596 444.227 299.881 444.17 300.119 444.057C300.361 443.939 300.547 443.764 300.676 443.529C300.809 443.295 300.875 443 300.875 442.645C300.875 442.289 300.801 441.998 300.652 441.771C300.504 441.541 300.293 441.371 300.02 441.262C299.75 441.148 299.432 441.092 299.064 441.092H298.291Z" fill="#0C0C0C"/>
<rect width="32" height="34" transform="translate(312 424)" fill="white"/>
<path d="M325.521 436.422V445H324.438V437.775L322.252 438.572V437.594L325.352 436.422H325.521ZM334.475 442.129V443.02H328.311V442.381L332.131 436.469H333.016L332.066 438.18L329.541 442.129H334.475ZM333.285 436.469V445H332.201V436.469H333.285Z" fill="#0C0C0C"/>
<rect width="32" height="34" transform="translate(120 458)" fill="white"/>
<path d="M133.521 470.422V479H132.438V471.775L130.252 472.572V471.594L133.352 470.422H133.521ZM138.08 474.939L137.213 474.717L137.641 470.469H142.018V471.471H138.561L138.303 473.791C138.459 473.701 138.656 473.617 138.895 473.539C139.137 473.461 139.414 473.422 139.727 473.422C140.121 473.422 140.475 473.49 140.787 473.627C141.1 473.76 141.365 473.951 141.584 474.201C141.807 474.451 141.977 474.752 142.094 475.104C142.211 475.455 142.27 475.848 142.27 476.281C142.27 476.691 142.213 477.068 142.1 477.412C141.99 477.756 141.824 478.057 141.602 478.314C141.379 478.568 141.098 478.766 140.758 478.906C140.422 479.047 140.025 479.117 139.568 479.117C139.225 479.117 138.898 479.07 138.59 478.977C138.285 478.879 138.012 478.732 137.77 478.537C137.531 478.338 137.336 478.092 137.184 477.799C137.035 477.502 136.941 477.154 136.902 476.756H137.934C137.98 477.076 138.074 477.346 138.215 477.564C138.355 477.783 138.539 477.949 138.766 478.062C138.996 478.172 139.264 478.227 139.568 478.227C139.826 478.227 140.055 478.182 140.254 478.092C140.453 478.002 140.621 477.873 140.758 477.705C140.895 477.537 140.998 477.334 141.068 477.096C141.143 476.857 141.18 476.59 141.18 476.293C141.18 476.023 141.143 475.773 141.068 475.543C140.994 475.312 140.883 475.111 140.734 474.939C140.59 474.768 140.412 474.635 140.201 474.541C139.99 474.443 139.748 474.395 139.475 474.395C139.111 474.395 138.836 474.443 138.648 474.541C138.465 474.639 138.275 474.771 138.08 474.939Z" fill="#0C0C0C"/>
<rect width="32" height="34" transform="translate(152 458)" fill="white"/>
<path d="M165.521 470.422V479H164.438V471.775L162.252 472.572V471.594L165.352 470.422H165.521ZM172.869 470.457H172.963V471.377H172.869C172.295 471.377 171.814 471.471 171.428 471.658C171.041 471.842 170.734 472.09 170.508 472.402C170.281 472.711 170.117 473.059 170.016 473.445C169.918 473.832 169.869 474.225 169.869 474.623V475.877C169.869 476.256 169.914 476.592 170.004 476.885C170.094 477.174 170.217 477.418 170.373 477.617C170.529 477.816 170.705 477.967 170.9 478.068C171.1 478.17 171.307 478.221 171.521 478.221C171.771 478.221 171.994 478.174 172.189 478.08C172.385 477.982 172.549 477.848 172.682 477.676C172.818 477.5 172.922 477.293 172.992 477.055C173.062 476.816 173.098 476.555 173.098 476.27C173.098 476.016 173.066 475.771 173.004 475.537C172.941 475.299 172.846 475.088 172.717 474.904C172.588 474.717 172.426 474.57 172.23 474.465C172.039 474.355 171.811 474.301 171.545 474.301C171.244 474.301 170.963 474.375 170.701 474.523C170.443 474.668 170.23 474.859 170.062 475.098C169.898 475.332 169.805 475.588 169.781 475.865L169.207 475.859C169.262 475.422 169.363 475.049 169.512 474.74C169.664 474.428 169.852 474.174 170.074 473.979C170.301 473.779 170.553 473.635 170.83 473.545C171.111 473.451 171.408 473.404 171.721 473.404C172.146 473.404 172.514 473.484 172.822 473.645C173.131 473.805 173.385 474.02 173.584 474.289C173.783 474.555 173.93 474.855 174.023 475.191C174.121 475.523 174.17 475.865 174.17 476.217C174.17 476.619 174.113 476.996 174 477.348C173.887 477.699 173.717 478.008 173.49 478.273C173.268 478.539 172.992 478.746 172.664 478.895C172.336 479.043 171.955 479.117 171.521 479.117C171.061 479.117 170.658 479.023 170.314 478.836C169.971 478.645 169.686 478.391 169.459 478.074C169.232 477.758 169.062 477.406 168.949 477.02C168.836 476.633 168.779 476.24 168.779 475.842V475.332C168.779 474.73 168.84 474.141 168.961 473.562C169.082 472.984 169.291 472.461 169.588 471.992C169.889 471.523 170.305 471.15 170.836 470.873C171.367 470.596 172.045 470.457 172.869 470.457Z" fill="#0C0C0C"/>
<rect width="32" height="34" transform="translate(184 458)" fill="white"/>
<path d="M197.521 470.422V479H196.438V471.775L194.252 472.572V471.594L197.352 470.422H197.521ZM206.223 470.469V471.078L202.689 479H201.547L205.074 471.359H200.457V470.469H206.223Z" fill="#0C0C0C"/>
<rect width="32" height="34" transform="translate(216 458)" fill="white"/>
<path d="M229.521 470.422V479H228.438V471.775L226.252 472.572V471.594L229.352 470.422H229.521ZM238.088 476.691C238.088 477.211 237.967 477.652 237.725 478.016C237.486 478.375 237.162 478.648 236.752 478.836C236.346 479.023 235.887 479.117 235.375 479.117C234.863 479.117 234.402 479.023 233.992 478.836C233.582 478.648 233.258 478.375 233.02 478.016C232.781 477.652 232.662 477.211 232.662 476.691C232.662 476.352 232.727 476.041 232.855 475.76C232.988 475.475 233.174 475.227 233.412 475.016C233.654 474.805 233.939 474.643 234.268 474.529C234.6 474.412 234.965 474.354 235.363 474.354C235.887 474.354 236.354 474.455 236.764 474.658C237.174 474.857 237.496 475.133 237.73 475.484C237.969 475.836 238.088 476.238 238.088 476.691ZM236.998 476.668C236.998 476.352 236.93 476.072 236.793 475.83C236.656 475.584 236.465 475.393 236.219 475.256C235.973 475.119 235.688 475.051 235.363 475.051C235.031 475.051 234.744 475.119 234.502 475.256C234.264 475.393 234.078 475.584 233.945 475.83C233.812 476.072 233.746 476.352 233.746 476.668C233.746 476.996 233.811 477.277 233.939 477.512C234.072 477.742 234.26 477.92 234.502 478.045C234.748 478.166 235.039 478.227 235.375 478.227C235.711 478.227 236 478.166 236.242 478.045C236.484 477.92 236.67 477.742 236.799 477.512C236.932 477.277 236.998 476.996 236.998 476.668ZM237.889 472.689C237.889 473.104 237.779 473.477 237.561 473.809C237.342 474.141 237.043 474.402 236.664 474.594C236.285 474.785 235.855 474.881 235.375 474.881C234.887 474.881 234.451 474.785 234.068 474.594C233.689 474.402 233.393 474.141 233.178 473.809C232.963 473.477 232.855 473.104 232.855 472.689C232.855 472.193 232.963 471.771 233.178 471.424C233.396 471.076 233.695 470.811 234.074 470.627C234.453 470.443 234.885 470.352 235.369 470.352C235.857 470.352 236.291 470.443 236.67 470.627C237.049 470.811 237.346 471.076 237.561 471.424C237.779 471.771 237.889 472.193 237.889 472.689ZM236.805 472.707C236.805 472.422 236.744 472.17 236.623 471.951C236.502 471.732 236.334 471.561 236.119 471.436C235.904 471.307 235.654 471.242 235.369 471.242C235.084 471.242 234.834 471.303 234.619 471.424C234.408 471.541 234.242 471.709 234.121 471.928C234.004 472.146 233.945 472.406 233.945 472.707C233.945 473 234.004 473.256 234.121 473.475C234.242 473.693 234.41 473.863 234.625 473.984C234.84 474.105 235.09 474.166 235.375 474.166C235.66 474.166 235.908 474.105 236.119 473.984C236.334 473.863 236.502 473.693 236.623 473.475C236.744 473.256 236.805 473 236.805 472.707Z" fill="#0C0C0C"/>
<rect width="32" height="34" transform="translate(248 458)" fill="white"/>
<path d="M261.521 470.422V479H260.438V471.775L258.252 472.572V471.594L261.352 470.422H261.521ZM265.787 478.092H265.898C266.523 478.092 267.031 478.004 267.422 477.828C267.812 477.652 268.113 477.416 268.324 477.119C268.535 476.822 268.68 476.488 268.758 476.117C268.836 475.742 268.875 475.357 268.875 474.963V473.656C268.875 473.27 268.83 472.926 268.74 472.625C268.654 472.324 268.533 472.072 268.377 471.869C268.225 471.666 268.051 471.512 267.855 471.406C267.66 471.301 267.453 471.248 267.234 471.248C266.984 471.248 266.76 471.299 266.561 471.4C266.365 471.498 266.199 471.637 266.062 471.816C265.93 471.996 265.828 472.207 265.758 472.449C265.688 472.691 265.652 472.955 265.652 473.24C265.652 473.494 265.684 473.74 265.746 473.979C265.809 474.217 265.904 474.432 266.033 474.623C266.162 474.814 266.322 474.967 266.514 475.08C266.709 475.189 266.938 475.244 267.199 475.244C267.441 475.244 267.668 475.197 267.879 475.104C268.094 475.006 268.283 474.875 268.447 474.711C268.615 474.543 268.748 474.354 268.846 474.143C268.947 473.932 269.006 473.711 269.021 473.48H269.537C269.537 473.805 269.473 474.125 269.344 474.441C269.219 474.754 269.043 475.039 268.816 475.297C268.59 475.555 268.324 475.762 268.02 475.918C267.715 476.07 267.383 476.146 267.023 476.146C266.602 476.146 266.236 476.064 265.928 475.9C265.619 475.736 265.365 475.518 265.166 475.244C264.971 474.971 264.824 474.666 264.727 474.33C264.633 473.99 264.586 473.646 264.586 473.299C264.586 472.893 264.643 472.512 264.756 472.156C264.869 471.801 265.037 471.488 265.26 471.219C265.482 470.945 265.758 470.732 266.086 470.58C266.418 470.428 266.801 470.352 267.234 470.352C267.723 470.352 268.139 470.449 268.482 470.645C268.826 470.84 269.105 471.102 269.32 471.43C269.539 471.758 269.699 472.127 269.801 472.537C269.902 472.947 269.953 473.369 269.953 473.803V474.195C269.953 474.637 269.924 475.086 269.865 475.543C269.811 475.996 269.703 476.43 269.543 476.844C269.387 477.258 269.158 477.629 268.857 477.957C268.557 478.281 268.164 478.539 267.68 478.73C267.199 478.918 266.605 479.012 265.898 479.012H265.787V478.092Z" fill="#0C0C0C"/>
<rect width="32" height="34" transform="translate(280 458)" fill="white"/>
<path d="M295.549 478.109V479H289.965V478.221L292.76 475.109C293.104 474.727 293.369 474.402 293.557 474.137C293.748 473.867 293.881 473.627 293.955 473.416C294.033 473.201 294.072 472.982 294.072 472.76C294.072 472.479 294.014 472.225 293.896 471.998C293.783 471.768 293.615 471.584 293.393 471.447C293.17 471.311 292.9 471.242 292.584 471.242C292.205 471.242 291.889 471.316 291.635 471.465C291.385 471.609 291.197 471.812 291.072 472.074C290.947 472.336 290.885 472.637 290.885 472.977H289.801C289.801 472.496 289.906 472.057 290.117 471.658C290.328 471.26 290.641 470.943 291.055 470.709C291.469 470.471 291.979 470.352 292.584 470.352C293.123 470.352 293.584 470.447 293.967 470.639C294.35 470.826 294.643 471.092 294.846 471.436C295.053 471.775 295.156 472.174 295.156 472.631C295.156 472.881 295.113 473.135 295.027 473.393C294.945 473.646 294.83 473.9 294.682 474.154C294.537 474.408 294.367 474.658 294.172 474.904C293.98 475.15 293.775 475.393 293.557 475.631L291.271 478.109H295.549ZM302.064 474.055V475.355C302.064 476.055 302.002 476.645 301.877 477.125C301.752 477.605 301.572 477.992 301.338 478.285C301.104 478.578 300.82 478.791 300.488 478.924C300.16 479.053 299.789 479.117 299.375 479.117C299.047 479.117 298.744 479.076 298.467 478.994C298.189 478.912 297.939 478.781 297.717 478.602C297.498 478.418 297.311 478.18 297.154 477.887C296.998 477.594 296.879 477.238 296.797 476.82C296.715 476.402 296.674 475.914 296.674 475.355V474.055C296.674 473.355 296.736 472.77 296.861 472.297C296.99 471.824 297.172 471.445 297.406 471.16C297.641 470.871 297.922 470.664 298.25 470.539C298.582 470.414 298.953 470.352 299.363 470.352C299.695 470.352 300 470.393 300.277 470.475C300.559 470.553 300.809 470.68 301.027 470.855C301.246 471.027 301.432 471.258 301.584 471.547C301.74 471.832 301.859 472.182 301.941 472.596C302.023 473.01 302.064 473.496 302.064 474.055ZM300.975 475.531V473.873C300.975 473.49 300.951 473.154 300.904 472.865C300.861 472.572 300.797 472.322 300.711 472.115C300.625 471.908 300.516 471.74 300.383 471.611C300.254 471.482 300.104 471.389 299.932 471.33C299.764 471.268 299.574 471.236 299.363 471.236C299.105 471.236 298.877 471.285 298.678 471.383C298.479 471.477 298.311 471.627 298.174 471.834C298.041 472.041 297.939 472.312 297.869 472.648C297.799 472.984 297.764 473.393 297.764 473.873V475.531C297.764 475.914 297.785 476.252 297.828 476.545C297.875 476.838 297.943 477.092 298.033 477.307C298.123 477.518 298.232 477.691 298.361 477.828C298.49 477.965 298.639 478.066 298.807 478.133C298.979 478.195 299.168 478.227 299.375 478.227C299.641 478.227 299.873 478.176 300.072 478.074C300.271 477.973 300.438 477.814 300.57 477.6C300.707 477.381 300.809 477.102 300.875 476.762C300.941 476.418 300.975 476.008 300.975 475.531Z" fill="#0C0C0C"/>
<rect width="32" height="34" transform="translate(312 458)" fill="white"/>
<path d="M327.549 478.109V479H321.965V478.221L324.76 475.109C325.104 474.727 325.369 474.402 325.557 474.137C325.748 473.867 325.881 473.627 325.955 473.416C326.033 473.201 326.072 472.982 326.072 472.76C326.072 472.479 326.014 472.225 325.896 471.998C325.783 471.768 325.615 471.584 325.393 471.447C325.17 471.311 324.9 471.242 324.584 471.242C324.205 471.242 323.889 471.316 323.635 471.465C323.385 471.609 323.197 471.812 323.072 472.074C322.947 472.336 322.885 472.637 322.885 472.977H321.801C321.801 472.496 321.906 472.057 322.117 471.658C322.328 471.26 322.641 470.943 323.055 470.709C323.469 470.471 323.979 470.352 324.584 470.352C325.123 470.352 325.584 470.447 325.967 470.639C326.35 470.826 326.643 471.092 326.846 471.436C327.053 471.775 327.156 472.174 327.156 472.631C327.156 472.881 327.113 473.135 327.027 473.393C326.945 473.646 326.83 473.9 326.682 474.154C326.537 474.408 326.367 474.658 326.172 474.904C325.98 475.15 325.775 475.393 325.557 475.631L323.271 478.109H327.549ZM332.271 470.422V479H331.188V471.775L329.002 472.572V471.594L332.102 470.422H332.271Z" fill="#0C0C0C"/>
<rect width="32" height="34" transform="translate(120 492)" fill="white"/>
<path d="M135.549 512.109V513H129.965V512.221L132.76 509.109C133.104 508.727 133.369 508.402 133.557 508.137C133.748 507.867 133.881 507.627 133.955 507.416C134.033 507.201 134.072 506.982 134.072 506.76C134.072 506.479 134.014 506.225 133.896 505.998C133.783 505.768 133.615 505.584 133.393 505.447C133.17 505.311 132.9 505.242 132.584 505.242C132.205 505.242 131.889 505.316 131.635 505.465C131.385 505.609 131.197 505.812 131.072 506.074C130.947 506.336 130.885 506.637 130.885 506.977H129.801C129.801 506.496 129.906 506.057 130.117 505.658C130.328 505.26 130.641 504.943 131.055 504.709C131.469 504.471 131.979 504.352 132.584 504.352C133.123 504.352 133.584 504.447 133.967 504.639C134.35 504.826 134.643 505.092 134.846 505.436C135.053 505.775 135.156 506.174 135.156 506.631C135.156 506.881 135.113 507.135 135.027 507.393C134.945 507.646 134.83 507.9 134.682 508.154C134.537 508.408 134.367 508.658 134.172 508.904C133.98 509.15 133.775 509.393 133.557 509.631L131.271 512.109H135.549ZM142.299 512.109V513H136.715V512.221L139.51 509.109C139.854 508.727 140.119 508.402 140.307 508.137C140.498 507.867 140.631 507.627 140.705 507.416C140.783 507.201 140.822 506.982 140.822 506.76C140.822 506.479 140.764 506.225 140.646 505.998C140.533 505.768 140.365 505.584 140.143 505.447C139.92 505.311 139.65 505.242 139.334 505.242C138.955 505.242 138.639 505.316 138.385 505.465C138.135 505.609 137.947 505.812 137.822 506.074C137.697 506.336 137.635 506.637 137.635 506.977H136.551C136.551 506.496 136.656 506.057 136.867 505.658C137.078 505.26 137.391 504.943 137.805 504.709C138.219 504.471 138.729 504.352 139.334 504.352C139.873 504.352 140.334 504.447 140.717 504.639C141.1 504.826 141.393 505.092 141.596 505.436C141.803 505.775 141.906 506.174 141.906 506.631C141.906 506.881 141.863 507.135 141.777 507.393C141.695 507.646 141.58 507.9 141.432 508.154C141.287 508.408 141.117 508.658 140.922 508.904C140.73 509.15 140.525 509.393 140.307 509.631L138.021 512.109H142.299Z" fill="#0C0C0C"/>
<rect width="32" height="34" transform="translate(152 492)" fill="white"/>
<path d="M167.549 512.109V513H161.965V512.221L164.76 509.109C165.104 508.727 165.369 508.402 165.557 508.137C165.748 507.867 165.881 507.627 165.955 507.416C166.033 507.201 166.072 506.982 166.072 506.76C166.072 506.479 166.014 506.225 165.896 505.998C165.783 505.768 165.615 505.584 165.393 505.447C165.17 505.311 164.9 505.242 164.584 505.242C164.205 505.242 163.889 505.316 163.635 505.465C163.385 505.609 163.197 505.812 163.072 506.074C162.947 506.336 162.885 506.637 162.885 506.977H161.801C161.801 506.496 161.906 506.057 162.117 505.658C162.328 505.26 162.641 504.943 163.055 504.709C163.469 504.471 163.979 504.352 164.584 504.352C165.123 504.352 165.584 504.447 165.967 504.639C166.35 504.826 166.643 505.092 166.846 505.436C167.053 505.775 167.156 506.174 167.156 506.631C167.156 506.881 167.113 507.135 167.027 507.393C166.945 507.646 166.83 507.9 166.682 508.154C166.537 508.408 166.367 508.658 166.172 508.904C165.98 509.15 165.775 509.393 165.557 509.631L163.271 512.109H167.549ZM170.291 508.201H171.064C171.443 508.201 171.756 508.139 172.002 508.014C172.252 507.885 172.438 507.711 172.559 507.492C172.684 507.27 172.746 507.02 172.746 506.742C172.746 506.414 172.691 506.139 172.582 505.916C172.473 505.693 172.309 505.525 172.09 505.412C171.871 505.299 171.594 505.242 171.258 505.242C170.953 505.242 170.684 505.303 170.449 505.424C170.219 505.541 170.037 505.709 169.904 505.928C169.775 506.146 169.711 506.404 169.711 506.701H168.627C168.627 506.268 168.736 505.873 168.955 505.518C169.174 505.162 169.48 504.879 169.875 504.668C170.273 504.457 170.734 504.352 171.258 504.352C171.773 504.352 172.225 504.443 172.611 504.627C172.998 504.807 173.299 505.076 173.514 505.436C173.729 505.791 173.836 506.234 173.836 506.766C173.836 506.98 173.785 507.211 173.684 507.457C173.586 507.699 173.432 507.926 173.221 508.137C173.014 508.348 172.744 508.521 172.412 508.658C172.08 508.791 171.682 508.857 171.217 508.857H170.291V508.201ZM170.291 509.092V508.441H171.217C171.76 508.441 172.209 508.506 172.564 508.635C172.92 508.764 173.199 508.936 173.402 509.15C173.609 509.365 173.754 509.602 173.836 509.859C173.922 510.113 173.965 510.367 173.965 510.621C173.965 511.02 173.896 511.373 173.76 511.682C173.627 511.99 173.438 512.252 173.191 512.467C172.949 512.682 172.664 512.844 172.336 512.953C172.008 513.062 171.65 513.117 171.264 513.117C170.893 513.117 170.543 513.064 170.215 512.959C169.891 512.854 169.604 512.701 169.354 512.502C169.104 512.299 168.908 512.051 168.768 511.758C168.627 511.461 168.557 511.123 168.557 510.744H169.641C169.641 511.041 169.705 511.301 169.834 511.523C169.967 511.746 170.154 511.92 170.396 512.045C170.643 512.166 170.932 512.227 171.264 512.227C171.596 512.227 171.881 512.17 172.119 512.057C172.361 511.939 172.547 511.764 172.676 511.529C172.809 511.295 172.875 511 172.875 510.645C172.875 510.289 172.801 509.998 172.652 509.771C172.504 509.541 172.293 509.371 172.02 509.262C171.75 509.148 171.432 509.092 171.064 509.092H170.291Z" fill="#0C0C0C"/>
<rect width="32" height="34" transform="translate(184 492)" fill="white"/>
<path d="M199.549 512.109V513H193.965V512.221L196.76 509.109C197.104 508.727 197.369 508.402 197.557 508.137C197.748 507.867 197.881 507.627 197.955 507.416C198.033 507.201 198.072 506.982 198.072 506.76C198.072 506.479 198.014 506.225 197.896 505.998C197.783 505.768 197.615 505.584 197.393 505.447C197.17 505.311 196.9 505.242 196.584 505.242C196.205 505.242 195.889 505.316 195.635 505.465C195.385 505.609 195.197 505.812 195.072 506.074C194.947 506.336 194.885 506.637 194.885 506.977H193.801C193.801 506.496 193.906 506.057 194.117 505.658C194.328 505.26 194.641 504.943 195.055 504.709C195.469 504.471 195.979 504.352 196.584 504.352C197.123 504.352 197.584 504.447 197.967 504.639C198.35 504.826 198.643 505.092 198.846 505.436C199.053 505.775 199.156 506.174 199.156 506.631C199.156 506.881 199.113 507.135 199.027 507.393C198.945 507.646 198.83 507.9 198.682 508.154C198.537 508.408 198.367 508.658 198.172 508.904C197.98 509.15 197.775 509.393 197.557 509.631L195.271 512.109H199.549ZM206.475 510.129V511.02H200.311V510.381L204.131 504.469H205.016L204.066 506.18L201.541 510.129H206.475ZM205.285 504.469V513H204.201V504.469H205.285Z" fill="#0C0C0C"/>
<rect width="32" height="34" transform="translate(216 492)" fill="white"/>
<path d="M231.549 512.109V513H225.965V512.221L228.76 509.109C229.104 508.727 229.369 508.402 229.557 508.137C229.748 507.867 229.881 507.627 229.955 507.416C230.033 507.201 230.072 506.982 230.072 506.76C230.072 506.479 230.014 506.225 229.896 505.998C229.783 505.768 229.615 505.584 229.393 505.447C229.17 505.311 228.9 505.242 228.584 505.242C228.205 505.242 227.889 505.316 227.635 505.465C227.385 505.609 227.197 505.812 227.072 506.074C226.947 506.336 226.885 506.637 226.885 506.977H225.801C225.801 506.496 225.906 506.057 226.117 505.658C226.328 505.26 226.641 504.943 227.055 504.709C227.469 504.471 227.979 504.352 228.584 504.352C229.123 504.352 229.584 504.447 229.967 504.639C230.35 504.826 230.643 505.092 230.846 505.436C231.053 505.775 231.156 506.174 231.156 506.631C231.156 506.881 231.113 507.135 231.027 507.393C230.945 507.646 230.83 507.9 230.682 508.154C230.537 508.408 230.367 508.658 230.172 508.904C229.98 509.15 229.775 509.393 229.557 509.631L227.271 512.109H231.549ZM234.08 508.939L233.213 508.717L233.641 504.469H238.018V505.471H234.561L234.303 507.791C234.459 507.701 234.656 507.617 234.895 507.539C235.137 507.461 235.414 507.422 235.727 507.422C236.121 507.422 236.475 507.49 236.787 507.627C237.1 507.76 237.365 507.951 237.584 508.201C237.807 508.451 237.977 508.752 238.094 509.104C238.211 509.455 238.27 509.848 238.27 510.281C238.27 510.691 238.213 511.068 238.1 511.412C237.99 511.756 237.824 512.057 237.602 512.314C237.379 512.568 237.098 512.766 236.758 512.906C236.422 513.047 236.025 513.117 235.568 513.117C235.225 513.117 234.898 513.07 234.59 512.977C234.285 512.879 234.012 512.732 233.77 512.537C233.531 512.338 233.336 512.092 233.184 511.799C233.035 511.502 232.941 511.154 232.902 510.756H233.934C233.98 511.076 234.074 511.346 234.215 511.564C234.355 511.783 234.539 511.949 234.766 512.062C234.996 512.172 235.264 512.227 235.568 512.227C235.826 512.227 236.055 512.182 236.254 512.092C236.453 512.002 236.621 511.873 236.758 511.705C236.895 511.537 236.998 511.334 237.068 511.096C237.143 510.857 237.18 510.59 237.18 510.293C237.18 510.023 237.143 509.773 237.068 509.543C236.994 509.312 236.883 509.111 236.734 508.939C236.59 508.768 236.412 508.635 236.201 508.541C235.99 508.443 235.748 508.395 235.475 508.395C235.111 508.395 234.836 508.443 234.648 508.541C234.465 508.639 234.275 508.771 234.08 508.939Z" fill="#0C0C0C"/>
<rect width="32" height="34" transform="translate(248 492)" fill="white"/>
<path d="M263.549 512.109V513H257.965V512.221L260.76 509.109C261.104 508.727 261.369 508.402 261.557 508.137C261.748 507.867 261.881 507.627 261.955 507.416C262.033 507.201 262.072 506.982 262.072 506.76C262.072 506.479 262.014 506.225 261.896 505.998C261.783 505.768 261.615 505.584 261.393 505.447C261.17 505.311 260.9 505.242 260.584 505.242C260.205 505.242 259.889 505.316 259.635 505.465C259.385 505.609 259.197 505.812 259.072 506.074C258.947 506.336 258.885 506.637 258.885 506.977H257.801C257.801 506.496 257.906 506.057 258.117 505.658C258.328 505.26 258.641 504.943 259.055 504.709C259.469 504.471 259.979 504.352 260.584 504.352C261.123 504.352 261.584 504.447 261.967 504.639C262.35 504.826 262.643 505.092 262.846 505.436C263.053 505.775 263.156 506.174 263.156 506.631C263.156 506.881 263.113 507.135 263.027 507.393C262.945 507.646 262.83 507.9 262.682 508.154C262.537 508.408 262.367 508.658 262.172 508.904C261.98 509.15 261.775 509.393 261.557 509.631L259.271 512.109H263.549ZM268.869 504.457H268.963V505.377H268.869C268.295 505.377 267.814 505.471 267.428 505.658C267.041 505.842 266.734 506.09 266.508 506.402C266.281 506.711 266.117 507.059 266.016 507.445C265.918 507.832 265.869 508.225 265.869 508.623V509.877C265.869 510.256 265.914 510.592 266.004 510.885C266.094 511.174 266.217 511.418 266.373 511.617C266.529 511.816 266.705 511.967 266.9 512.068C267.1 512.17 267.307 512.221 267.521 512.221C267.771 512.221 267.994 512.174 268.189 512.08C268.385 511.982 268.549 511.848 268.682 511.676C268.818 511.5 268.922 511.293 268.992 511.055C269.062 510.816 269.098 510.555 269.098 510.27C269.098 510.016 269.066 509.771 269.004 509.537C268.941 509.299 268.846 509.088 268.717 508.904C268.588 508.717 268.426 508.57 268.23 508.465C268.039 508.355 267.811 508.301 267.545 508.301C267.244 508.301 266.963 508.375 266.701 508.523C266.443 508.668 266.23 508.859 266.062 509.098C265.898 509.332 265.805 509.588 265.781 509.865L265.207 509.859C265.262 509.422 265.363 509.049 265.512 508.74C265.664 508.428 265.852 508.174 266.074 507.979C266.301 507.779 266.553 507.635 266.83 507.545C267.111 507.451 267.408 507.404 267.721 507.404C268.146 507.404 268.514 507.484 268.822 507.645C269.131 507.805 269.385 508.02 269.584 508.289C269.783 508.555 269.93 508.855 270.023 509.191C270.121 509.523 270.17 509.865 270.17 510.217C270.17 510.619 270.113 510.996 270 511.348C269.887 511.699 269.717 512.008 269.49 512.273C269.268 512.539 268.992 512.746 268.664 512.895C268.336 513.043 267.955 513.117 267.521 513.117C267.061 513.117 266.658 513.023 266.314 512.836C265.971 512.645 265.686 512.391 265.459 512.074C265.232 511.758 265.062 511.406 264.949 511.02C264.836 510.633 264.779 510.24 264.779 509.842V509.332C264.779 508.73 264.84 508.141 264.961 507.562C265.082 506.984 265.291 506.461 265.588 505.992C265.889 505.523 266.305 505.15 266.836 504.873C267.367 504.596 268.045 504.457 268.869 504.457Z" fill="#0C0C0C"/>
<rect width="32" height="34" transform="translate(280 492)" fill="white"/>
<path d="M295.549 512.109V513H289.965V512.221L292.76 509.109C293.104 508.727 293.369 508.402 293.557 508.137C293.748 507.867 293.881 507.627 293.955 507.416C294.033 507.201 294.072 506.982 294.072 506.76C294.072 506.479 294.014 506.225 293.896 505.998C293.783 505.768 293.615 505.584 293.393 505.447C293.17 505.311 292.9 505.242 292.584 505.242C292.205 505.242 291.889 505.316 291.635 505.465C291.385 505.609 291.197 505.812 291.072 506.074C290.947 506.336 290.885 506.637 290.885 506.977H289.801C289.801 506.496 289.906 506.057 290.117 505.658C290.328 505.26 290.641 504.943 291.055 504.709C291.469 504.471 291.979 504.352 292.584 504.352C293.123 504.352 293.584 504.447 293.967 504.639C294.35 504.826 294.643 505.092 294.846 505.436C295.053 505.775 295.156 506.174 295.156 506.631C295.156 506.881 295.113 507.135 295.027 507.393C294.945 507.646 294.83 507.9 294.682 508.154C294.537 508.408 294.367 508.658 294.172 508.904C293.98 509.15 293.775 509.393 293.557 509.631L291.271 512.109H295.549ZM302.223 504.469V505.078L298.689 513H297.547L301.074 505.359H296.457V504.469H302.223Z" fill="#0C0C0C"/>
<rect width="32" height="34" transform="translate(312 492)" fill="white"/>
<path d="M327.549 512.109V513H321.965V512.221L324.76 509.109C325.104 508.727 325.369 508.402 325.557 508.137C325.748 507.867 325.881 507.627 325.955 507.416C326.033 507.201 326.072 506.982 326.072 506.76C326.072 506.479 326.014 506.225 325.896 505.998C325.783 505.768 325.615 505.584 325.393 505.447C325.17 505.311 324.9 505.242 324.584 505.242C324.205 505.242 323.889 505.316 323.635 505.465C323.385 505.609 323.197 505.812 323.072 506.074C322.947 506.336 322.885 506.637 322.885 506.977H321.801C321.801 506.496 321.906 506.057 322.117 505.658C322.328 505.26 322.641 504.943 323.055 504.709C323.469 504.471 323.979 504.352 324.584 504.352C325.123 504.352 325.584 504.447 325.967 504.639C326.35 504.826 326.643 505.092 326.846 505.436C327.053 505.775 327.156 506.174 327.156 506.631C327.156 506.881 327.113 507.135 327.027 507.393C326.945 507.646 326.83 507.9 326.682 508.154C326.537 508.408 326.367 508.658 326.172 508.904C325.98 509.15 325.775 509.393 325.557 509.631L323.271 512.109H327.549ZM334.088 510.691C334.088 511.211 333.967 511.652 333.725 512.016C333.486 512.375 333.162 512.648 332.752 512.836C332.346 513.023 331.887 513.117 331.375 513.117C330.863 513.117 330.402 513.023 329.992 512.836C329.582 512.648 329.258 512.375 329.02 512.016C328.781 511.652 328.662 511.211 328.662 510.691C328.662 510.352 328.727 510.041 328.855 509.76C328.988 509.475 329.174 509.227 329.412 509.016C329.654 508.805 329.939 508.643 330.268 508.529C330.6 508.412 330.965 508.354 331.363 508.354C331.887 508.354 332.354 508.455 332.764 508.658C333.174 508.857 333.496 509.133 333.73 509.484C333.969 509.836 334.088 510.238 334.088 510.691ZM332.998 510.668C332.998 510.352 332.93 510.072 332.793 509.83C332.656 509.584 332.465 509.393 332.219 509.256C331.973 509.119 331.688 509.051 331.363 509.051C331.031 509.051 330.744 509.119 330.502 509.256C330.264 509.393 330.078 509.584 329.945 509.83C329.812 510.072 329.746 510.352 329.746 510.668C329.746 510.996 329.811 511.277 329.939 511.512C330.072 511.742 330.26 511.92 330.502 512.045C330.748 512.166 331.039 512.227 331.375 512.227C331.711 512.227 332 512.166 332.242 512.045C332.484 511.92 332.67 511.742 332.799 511.512C332.932 511.277 332.998 510.996 332.998 510.668ZM333.889 506.689C333.889 507.104 333.779 507.477 333.561 507.809C333.342 508.141 333.043 508.402 332.664 508.594C332.285 508.785 331.855 508.881 331.375 508.881C330.887 508.881 330.451 508.785 330.068 508.594C329.689 508.402 329.393 508.141 329.178 507.809C328.963 507.477 328.855 507.104 328.855 506.689C328.855 506.193 328.963 505.771 329.178 505.424C329.396 505.076 329.695 504.811 330.074 504.627C330.453 504.443 330.885 504.352 331.369 504.352C331.857 504.352 332.291 504.443 332.67 504.627C333.049 504.811 333.346 505.076 333.561 505.424C333.779 505.771 333.889 506.193 333.889 506.689ZM332.805 506.707C332.805 506.422 332.744 506.17 332.623 505.951C332.502 505.732 332.334 505.561 332.119 505.436C331.904 505.307 331.654 505.242 331.369 505.242C331.084 505.242 330.834 505.303 330.619 505.424C330.408 505.541 330.242 505.709 330.121 505.928C330.004 506.146 329.945 506.406 329.945 506.707C329.945 507 330.004 507.256 330.121 507.475C330.242 507.693 330.41 507.863 330.625 507.984C330.84 508.105 331.09 508.166 331.375 508.166C331.66 508.166 331.908 508.105 332.119 507.984C332.334 507.863 332.502 507.693 332.623 507.475C332.744 507.256 332.805 507 332.805 506.707Z" fill="#0C0C0C"/>
<rect width="32" height="34" transform="translate(120 526)" fill="white"/>
<path d="M135.549 546.109V547H129.965V546.221L132.76 543.109C133.104 542.727 133.369 542.402 133.557 542.137C133.748 541.867 133.881 541.627 133.955 541.416C134.033 541.201 134.072 540.982 134.072 540.76C134.072 540.479 134.014 540.225 133.896 539.998C133.783 539.768 133.615 539.584 133.393 539.447C133.17 539.311 132.9 539.242 132.584 539.242C132.205 539.242 131.889 539.316 131.635 539.465C131.385 539.609 131.197 539.812 131.072 540.074C130.947 540.336 130.885 540.637 130.885 540.977H129.801C129.801 540.496 129.906 540.057 130.117 539.658C130.328 539.26 130.641 538.943 131.055 538.709C131.469 538.471 131.979 538.352 132.584 538.352C133.123 538.352 133.584 538.447 133.967 538.639C134.35 538.826 134.643 539.092 134.846 539.436C135.053 539.775 135.156 540.174 135.156 540.631C135.156 540.881 135.113 541.135 135.027 541.393C134.945 541.646 134.83 541.9 134.682 542.154C134.537 542.408 134.367 542.658 134.172 542.904C133.98 543.15 133.775 543.393 133.557 543.631L131.271 546.109H135.549ZM137.787 546.092H137.898C138.523 546.092 139.031 546.004 139.422 545.828C139.812 545.652 140.113 545.416 140.324 545.119C140.535 544.822 140.68 544.488 140.758 544.117C140.836 543.742 140.875 543.357 140.875 542.963V541.656C140.875 541.27 140.83 540.926 140.74 540.625C140.654 540.324 140.533 540.072 140.377 539.869C140.225 539.666 140.051 539.512 139.855 539.406C139.66 539.301 139.453 539.248 139.234 539.248C138.984 539.248 138.76 539.299 138.561 539.4C138.365 539.498 138.199 539.637 138.062 539.816C137.93 539.996 137.828 540.207 137.758 540.449C137.688 540.691 137.652 540.955 137.652 541.24C137.652 541.494 137.684 541.74 137.746 541.979C137.809 542.217 137.904 542.432 138.033 542.623C138.162 542.814 138.322 542.967 138.514 543.08C138.709 543.189 138.938 543.244 139.199 543.244C139.441 543.244 139.668 543.197 139.879 543.104C140.094 543.006 140.283 542.875 140.447 542.711C140.615 542.543 140.748 542.354 140.846 542.143C140.947 541.932 141.006 541.711 141.021 541.48H141.537C141.537 541.805 141.473 542.125 141.344 542.441C141.219 542.754 141.043 543.039 140.816 543.297C140.59 543.555 140.324 543.762 140.02 543.918C139.715 544.07 139.383 544.146 139.023 544.146C138.602 544.146 138.236 544.064 137.928 543.9C137.619 543.736 137.365 543.518 137.166 543.244C136.971 542.971 136.824 542.666 136.727 542.33C136.633 541.99 136.586 541.646 136.586 541.299C136.586 540.893 136.643 540.512 136.756 540.156C136.869 539.801 137.037 539.488 137.26 539.219C137.482 538.945 137.758 538.732 138.086 538.58C138.418 538.428 138.801 538.352 139.234 538.352C139.723 538.352 140.139 538.449 140.482 538.645C140.826 538.84 141.105 539.102 141.32 539.43C141.539 539.758 141.699 540.127 141.801 540.537C141.902 540.947 141.953 541.369 141.953 541.803V542.195C141.953 542.637 141.924 543.086 141.865 543.543C141.811 543.996 141.703 544.43 141.543 544.844C141.387 545.258 141.158 545.629 140.857 545.957C140.557 546.281 140.164 546.539 139.68 546.73C139.199 546.918 138.605 547.012 137.898 547.012H137.787V546.092Z" fill="#0C0C0C"/>
<rect width="32" height="34" transform="translate(152 526)" fill="white"/>
<path d="M163.541 542.201H164.314C164.693 542.201 165.006 542.139 165.252 542.014C165.502 541.885 165.688 541.711 165.809 541.492C165.934 541.27 165.996 541.02 165.996 540.742C165.996 540.414 165.941 540.139 165.832 539.916C165.723 539.693 165.559 539.525 165.34 539.412C165.121 539.299 164.844 539.242 164.508 539.242C164.203 539.242 163.934 539.303 163.699 539.424C163.469 539.541 163.287 539.709 163.154 539.928C163.025 540.146 162.961 540.404 162.961 540.701H161.877C161.877 540.268 161.986 539.873 162.205 539.518C162.424 539.162 162.73 538.879 163.125 538.668C163.523 538.457 163.984 538.352 164.508 538.352C165.023 538.352 165.475 538.443 165.861 538.627C166.248 538.807 166.549 539.076 166.764 539.436C166.979 539.791 167.086 540.234 167.086 540.766C167.086 540.98 167.035 541.211 166.934 541.457C166.836 541.699 166.682 541.926 166.471 542.137C166.264 542.348 165.994 542.521 165.662 542.658C165.33 542.791 164.932 542.857 164.467 542.857H163.541V542.201ZM163.541 543.092V542.441H164.467C165.01 542.441 165.459 542.506 165.814 542.635C166.17 542.764 166.449 542.936 166.652 543.15C166.859 543.365 167.004 543.602 167.086 543.859C167.172 544.113 167.215 544.367 167.215 544.621C167.215 545.02 167.146 545.373 167.01 545.682C166.877 545.99 166.688 546.252 166.441 546.467C166.199 546.682 165.914 546.844 165.586 546.953C165.258 547.062 164.9 547.117 164.514 547.117C164.143 547.117 163.793 547.064 163.465 546.959C163.141 546.854 162.854 546.701 162.604 546.502C162.354 546.299 162.158 546.051 162.018 545.758C161.877 545.461 161.807 545.123 161.807 544.744H162.891C162.891 545.041 162.955 545.301 163.084 545.523C163.217 545.746 163.404 545.92 163.646 546.045C163.893 546.166 164.182 546.227 164.514 546.227C164.846 546.227 165.131 546.17 165.369 546.057C165.611 545.939 165.797 545.764 165.926 545.529C166.059 545.295 166.125 545 166.125 544.645C166.125 544.289 166.051 543.998 165.902 543.771C165.754 543.541 165.543 543.371 165.27 543.262C165 543.148 164.682 543.092 164.314 543.092H163.541ZM174.064 542.055V543.355C174.064 544.055 174.002 544.645 173.877 545.125C173.752 545.605 173.572 545.992 173.338 546.285C173.104 546.578 172.82 546.791 172.488 546.924C172.16 547.053 171.789 547.117 171.375 547.117C171.047 547.117 170.744 547.076 170.467 546.994C170.189 546.912 169.939 546.781 169.717 546.602C169.498 546.418 169.311 546.18 169.154 545.887C168.998 545.594 168.879 545.238 168.797 544.82C168.715 544.402 168.674 543.914 168.674 543.355V542.055C168.674 541.355 168.736 540.77 168.861 540.297C168.99 539.824 169.172 539.445 169.406 539.16C169.641 538.871 169.922 538.664 170.25 538.539C170.582 538.414 170.953 538.352 171.363 538.352C171.695 538.352 172 538.393 172.277 538.475C172.559 538.553 172.809 538.68 173.027 538.855C173.246 539.027 173.432 539.258 173.584 539.547C173.74 539.832 173.859 540.182 173.941 540.596C174.023 541.01 174.064 541.496 174.064 542.055ZM172.975 543.531V541.873C172.975 541.49 172.951 541.154 172.904 540.865C172.861 540.572 172.797 540.322 172.711 540.115C172.625 539.908 172.516 539.74 172.383 539.611C172.254 539.482 172.104 539.389 171.932 539.33C171.764 539.268 171.574 539.236 171.363 539.236C171.105 539.236 170.877 539.285 170.678 539.383C170.479 539.477 170.311 539.627 170.174 539.834C170.041 540.041 169.939 540.312 169.869 540.648C169.799 540.984 169.764 541.393 169.764 541.873V543.531C169.764 543.914 169.785 544.252 169.828 544.545C169.875 544.838 169.943 545.092 170.033 545.307C170.123 545.518 170.232 545.691 170.361 545.828C170.49 545.965 170.639 546.066 170.807 546.133C170.979 546.195 171.168 546.227 171.375 546.227C171.641 546.227 171.873 546.176 172.072 546.074C172.271 545.973 172.438 545.814 172.57 545.6C172.707 545.381 172.809 545.102 172.875 544.762C172.941 544.418 172.975 544.008 172.975 543.531Z" fill="#0C0C0C"/>
<rect width="32" height="34" transform="translate(184 526)" fill="white"/>
<path d="M195.541 542.201H196.314C196.693 542.201 197.006 542.139 197.252 542.014C197.502 541.885 197.688 541.711 197.809 541.492C197.934 541.27 197.996 541.02 197.996 540.742C197.996 540.414 197.941 540.139 197.832 539.916C197.723 539.693 197.559 539.525 197.34 539.412C197.121 539.299 196.844 539.242 196.508 539.242C196.203 539.242 195.934 539.303 195.699 539.424C195.469 539.541 195.287 539.709 195.154 539.928C195.025 540.146 194.961 540.404 194.961 540.701H193.877C193.877 540.268 193.986 539.873 194.205 539.518C194.424 539.162 194.73 538.879 195.125 538.668C195.523 538.457 195.984 538.352 196.508 538.352C197.023 538.352 197.475 538.443 197.861 538.627C198.248 538.807 198.549 539.076 198.764 539.436C198.979 539.791 199.086 540.234 199.086 540.766C199.086 540.98 199.035 541.211 198.934 541.457C198.836 541.699 198.682 541.926 198.471 542.137C198.264 542.348 197.994 542.521 197.662 542.658C197.33 542.791 196.932 542.857 196.467 542.857H195.541V542.201ZM195.541 543.092V542.441H196.467C197.01 542.441 197.459 542.506 197.814 542.635C198.17 542.764 198.449 542.936 198.652 543.15C198.859 543.365 199.004 543.602 199.086 543.859C199.172 544.113 199.215 544.367 199.215 544.621C199.215 545.02 199.146 545.373 199.01 545.682C198.877 545.99 198.688 546.252 198.441 546.467C198.199 546.682 197.914 546.844 197.586 546.953C197.258 547.062 196.9 547.117 196.514 547.117C196.143 547.117 195.793 547.064 195.465 546.959C195.141 546.854 194.854 546.701 194.604 546.502C194.354 546.299 194.158 546.051 194.018 545.758C193.877 545.461 193.807 545.123 193.807 544.744H194.891C194.891 545.041 194.955 545.301 195.084 545.523C195.217 545.746 195.404 545.92 195.646 546.045C195.893 546.166 196.182 546.227 196.514 546.227C196.846 546.227 197.131 546.17 197.369 546.057C197.611 545.939 197.797 545.764 197.926 545.529C198.059 545.295 198.125 545 198.125 544.645C198.125 544.289 198.051 543.998 197.902 543.771C197.754 543.541 197.543 543.371 197.27 543.262C197 543.148 196.682 543.092 196.314 543.092H195.541ZM204.271 538.422V547H203.188V539.775L201.002 540.572V539.594L204.102 538.422H204.271Z" fill="#0C0C0C"/>
<defs>
<filter id="filter0_d_376_11197" x="331.191" y="355.865" width="20.6177" height="15.2689" filterUnits="userSpaceOnUse" color-interpolation-filters="sRGB">
<feFlood flood-opacity="0" result="BackgroundImageFix"/>
<feColorMatrix in="SourceAlpha" type="matrix" values="0 0 0 0 0 0 0 0 0 0 0 0 0 0 0 0 0 0 127 0" result="hardAlpha"/>
<feOffset dy="4"/>
<feGaussianBlur stdDeviation="2"/>
<feComposite in2="hardAlpha" operator="out"/>
<feColorMatrix type="matrix" values="0 0 0 0 0 0 0 0 0 0 0 0 0 0 0 0 0 0 0.25 0"/>
<feBlend mode="normal" in2="BackgroundImageFix" result="effect1_dropShadow_376_11197"/>
<feBlend mode="normal" in="SourceGraphic" in2="effect1_dropShadow_376_11197" result="shape"/>
</filter>
<clipPath id="clip0_376_11197">
<rect width="23" height="23" fill="white" transform="translate(330 348)"/>
</clipPath>
</defs>
</svg>
