<svg width="412" height="917" viewBox="0 0 412 917" fill="none" xmlns="http://www.w3.org/2000/svg">
<rect width="412" height="917" fill="white"/>
<rect width="412" height="32" fill="white"/>
<path d="M27.416 12.0469V12.7578L23.2939 22H21.9609L26.0762 13.0859H20.6895V12.0469H27.416ZM28.9404 21.3301C28.9404 21.1159 29.0065 20.9359 29.1387 20.79C29.2754 20.6396 29.4714 20.5645 29.7266 20.5645C29.9818 20.5645 30.1755 20.6396 30.3076 20.79C30.4443 20.9359 30.5127 21.1159 30.5127 21.3301C30.5127 21.5397 30.4443 21.7174 30.3076 21.8633C30.1755 22.0091 29.9818 22.082 29.7266 22.082C29.4714 22.082 29.2754 22.0091 29.1387 21.8633C29.0065 21.7174 28.9404 21.5397 28.9404 21.3301ZM28.9473 15.2939C28.9473 15.0798 29.0133 14.8997 29.1455 14.7539C29.2822 14.6035 29.4782 14.5283 29.7334 14.5283C29.9886 14.5283 30.1823 14.6035 30.3145 14.7539C30.4512 14.8997 30.5195 15.0798 30.5195 15.2939C30.5195 15.5036 30.4512 15.6813 30.3145 15.8271C30.1823 15.973 29.9886 16.0459 29.7334 16.0459C29.4782 16.0459 29.2822 15.973 29.1455 15.8271C29.0133 15.6813 28.9473 15.5036 28.9473 15.2939ZM34.0947 16.4014H34.9971C35.4391 16.4014 35.8037 16.3285 36.0908 16.1826C36.3825 16.0322 36.599 15.8294 36.7402 15.5742C36.8861 15.3145 36.959 15.0228 36.959 14.6992C36.959 14.3164 36.8952 13.9951 36.7676 13.7354C36.64 13.4756 36.4486 13.2796 36.1934 13.1475C35.9382 13.0153 35.6146 12.9492 35.2227 12.9492C34.8672 12.9492 34.5527 13.0199 34.2793 13.1611C34.0104 13.2979 33.7985 13.4938 33.6436 13.749C33.4932 14.0042 33.418 14.305 33.418 14.6514H32.1533C32.1533 14.1455 32.2809 13.6852 32.5361 13.2705C32.7913 12.8558 33.1491 12.5254 33.6094 12.2793C34.0742 12.0332 34.612 11.9102 35.2227 11.9102C35.8242 11.9102 36.3506 12.0173 36.8018 12.2314C37.2529 12.4411 37.6038 12.7555 37.8545 13.1748C38.1051 13.5895 38.2305 14.1068 38.2305 14.7266C38.2305 14.9772 38.1712 15.2461 38.0527 15.5332C37.9388 15.8158 37.7588 16.0801 37.5127 16.3262C37.2712 16.5723 36.9567 16.7751 36.5693 16.9346C36.182 17.0895 35.7171 17.167 35.1748 17.167H34.0947V16.4014ZM34.0947 17.4404V16.6816H35.1748C35.8083 16.6816 36.3324 16.7568 36.7471 16.9072C37.1618 17.0576 37.4876 17.2581 37.7246 17.5088C37.9661 17.7594 38.1348 18.0352 38.2305 18.3359C38.3307 18.6322 38.3809 18.9284 38.3809 19.2246C38.3809 19.6895 38.3011 20.1019 38.1416 20.4619C37.9867 20.8219 37.7656 21.1273 37.4785 21.3779C37.196 21.6286 36.8633 21.8177 36.4805 21.9453C36.0977 22.0729 35.6807 22.1367 35.2295 22.1367C34.7965 22.1367 34.3887 22.0752 34.0059 21.9521C33.6276 21.8291 33.2926 21.6514 33.001 21.4189C32.7093 21.182 32.4814 20.8926 32.3174 20.5508C32.1533 20.2044 32.0713 19.8102 32.0713 19.3682H33.3359C33.3359 19.7145 33.4111 20.0176 33.5615 20.2773C33.7165 20.5371 33.9352 20.7399 34.2178 20.8857C34.5049 21.027 34.8421 21.0977 35.2295 21.0977C35.6169 21.0977 35.9495 21.0316 36.2275 20.8994C36.5101 20.7627 36.7266 20.5576 36.877 20.2842C37.0319 20.0107 37.1094 19.6667 37.1094 19.252C37.1094 18.8372 37.0228 18.4977 36.8496 18.2334C36.6764 17.9645 36.4303 17.7663 36.1113 17.6387C35.7969 17.5065 35.4255 17.4404 34.9971 17.4404H34.0947ZM46.3721 16.2305V17.748C46.3721 18.5638 46.2992 19.252 46.1533 19.8125C46.0075 20.373 45.7979 20.8242 45.5244 21.166C45.251 21.5078 44.9206 21.7562 44.5332 21.9111C44.1504 22.0615 43.7174 22.1367 43.2344 22.1367C42.8516 22.1367 42.4984 22.0889 42.1748 21.9932C41.8512 21.8975 41.5596 21.7448 41.2998 21.5352C41.0446 21.321 40.8258 21.043 40.6436 20.7012C40.4613 20.3594 40.3223 19.9447 40.2266 19.457C40.1309 18.9694 40.083 18.3997 40.083 17.748V16.2305C40.083 15.4147 40.1559 14.7311 40.3018 14.1797C40.4521 13.6283 40.6641 13.1862 40.9375 12.8535C41.2109 12.5163 41.5391 12.2747 41.9219 12.1289C42.3092 11.9831 42.7422 11.9102 43.2207 11.9102C43.6081 11.9102 43.9635 11.958 44.2871 12.0537C44.6152 12.1449 44.9069 12.293 45.1621 12.498C45.4173 12.6986 45.6338 12.9674 45.8115 13.3047C45.9938 13.6374 46.1328 14.0452 46.2285 14.5283C46.3242 15.0114 46.3721 15.5788 46.3721 16.2305ZM45.1006 17.9531V16.0186C45.1006 15.5719 45.0732 15.18 45.0186 14.8428C44.9684 14.501 44.8932 14.2093 44.793 13.9678C44.6927 13.7262 44.5651 13.5303 44.4102 13.3799C44.2598 13.2295 44.0843 13.1201 43.8838 13.0518C43.6878 12.9788 43.4668 12.9424 43.2207 12.9424C42.9199 12.9424 42.6533 12.9993 42.4209 13.1133C42.1885 13.2227 41.9925 13.3981 41.833 13.6396C41.6781 13.8812 41.5596 14.1979 41.4775 14.5898C41.3955 14.9818 41.3545 15.458 41.3545 16.0186V17.9531C41.3545 18.3997 41.3796 18.7939 41.4297 19.1357C41.4844 19.4775 41.5641 19.7738 41.6689 20.0244C41.7738 20.2705 41.9014 20.4733 42.0518 20.6328C42.2021 20.7923 42.3753 20.9108 42.5713 20.9883C42.7718 21.0612 42.9928 21.0977 43.2344 21.0977C43.5443 21.0977 43.8154 21.0384 44.0479 20.9199C44.2803 20.8014 44.474 20.6169 44.6289 20.3662C44.7884 20.111 44.9069 19.7852 44.9844 19.3887C45.0618 18.9876 45.1006 18.5091 45.1006 17.9531ZM55.4844 12.9287L52.1895 22H50.8428L54.6367 12.0469H55.5049L55.4844 12.9287ZM58.2461 22L54.9443 12.9287L54.9238 12.0469H55.792L59.5996 22H58.2461ZM58.0752 18.3154V19.3955H52.4834V18.3154H58.0752ZM61.3496 12.0469H62.6279L65.8887 20.1611L69.1426 12.0469H70.4277L66.3809 22H65.3828L61.3496 12.0469ZM60.9326 12.0469H62.0605L62.2451 18.1172V22H60.9326V12.0469ZM69.71 12.0469H70.8379V22H69.5254V18.1172L69.71 12.0469Z" fill="#0C0C0C"/>
<path d="M322.792 12.9478L324.375 14.5311C328.309 10.5966 334.69 10.5966 338.625 14.5311L340.208 12.9478C335.403 8.1424 327.605 8.1424 322.792 12.9478ZM329.125 19.2811L331.5 21.6561L333.875 19.2811C332.569 17.967 330.439 17.967 329.125 19.2811ZM325.958 16.1145L327.542 17.6978C329.727 15.5128 333.273 15.5128 335.458 17.6978L337.042 16.1145C333.986 13.0586 329.022 13.0586 325.958 16.1145Z" fill="#0C0C0C"/>
<path d="M362.75 9.33337H365.25V22.6667H362.75V9.33337ZM352.75 17.6667H355.25V22.6667H352.75V17.6667ZM357.75 13.5H360.25V22.6667H357.75V13.5Z" fill="#0C0C0C"/>
<path d="M391.362 9.55859L391.1 24.4573L382.823 24.3115L383.085 9.41286L385.568 9.45658L385.597 7.80117L388.908 7.85946L388.879 9.51487L391.362 9.55859ZM389.678 11.1849L384.711 11.0974L384.653 14.4082L389.619 14.4957L389.678 11.1849Z" fill="#0C0C0C"/>
<path d="M85.3574 243.787V246.16C85.3574 247.163 85.2337 248.042 84.9863 248.797C84.7454 249.546 84.4004 250.174 83.9512 250.682C83.5085 251.183 82.9714 251.561 82.3398 251.814C81.7148 252.068 81.0215 252.195 80.2598 252.195C79.498 252.195 78.8014 252.068 78.1699 251.814C77.5449 251.561 77.0046 251.183 76.5488 250.682C76.0996 250.174 75.7513 249.546 75.5039 248.797C75.2565 248.042 75.1328 247.163 75.1328 246.16V243.787C75.1328 242.758 75.2533 241.86 75.4941 241.092C75.735 240.317 76.0833 239.673 76.5391 239.158C76.9948 238.637 77.5352 238.247 78.1602 237.986C78.7852 237.719 79.4785 237.586 80.2402 237.586C81.002 237.586 81.6953 237.719 82.3203 237.986C82.9453 238.247 83.4857 238.637 83.9414 239.158C84.3971 239.673 84.7454 240.317 84.9863 241.092C85.2337 241.86 85.3574 242.758 85.3574 243.787ZM82.5156 246.16V243.768C82.5156 243.09 82.4668 242.514 82.3691 242.039C82.2715 241.557 82.125 241.163 81.9297 240.857C81.7344 240.551 81.4967 240.327 81.2168 240.184C80.9368 240.04 80.6113 239.969 80.2402 239.969C79.8691 239.969 79.5404 240.04 79.2539 240.184C78.974 240.327 78.7363 240.551 78.541 240.857C78.3522 241.163 78.209 241.557 78.1113 242.039C78.0202 242.514 77.9746 243.09 77.9746 243.768V246.16C77.9746 246.811 78.0234 247.368 78.1211 247.83C78.2188 248.292 78.3652 248.67 78.5605 248.963C78.7559 249.256 78.9935 249.474 79.2734 249.617C79.5599 249.754 79.8887 249.822 80.2598 249.822C80.6243 249.822 80.9466 249.754 81.2266 249.617C81.513 249.474 81.7507 249.256 81.9395 248.963C82.1283 248.67 82.2715 248.292 82.3691 247.83C82.4668 247.368 82.5156 246.811 82.5156 246.16ZM97.4277 243.787V246.16C97.4277 247.163 97.304 248.042 97.0566 248.797C96.8158 249.546 96.4707 250.174 96.0215 250.682C95.5788 251.183 95.0417 251.561 94.4102 251.814C93.7852 252.068 93.0918 252.195 92.3301 252.195C91.5684 252.195 90.8717 252.068 90.2402 251.814C89.6152 251.561 89.0749 251.183 88.6191 250.682C88.1699 250.174 87.8216 249.546 87.5742 248.797C87.3268 248.042 87.2031 247.163 87.2031 246.16V243.787C87.2031 242.758 87.3236 241.86 87.5645 241.092C87.8053 240.317 88.1536 239.673 88.6094 239.158C89.0651 238.637 89.6055 238.247 90.2305 237.986C90.8555 237.719 91.5488 237.586 92.3105 237.586C93.0723 237.586 93.7656 237.719 94.3906 237.986C95.0156 238.247 95.556 238.637 96.0117 239.158C96.4674 239.673 96.8158 240.317 97.0566 241.092C97.304 241.86 97.4277 242.758 97.4277 243.787ZM94.5859 246.16V243.768C94.5859 243.09 94.5371 242.514 94.4395 242.039C94.3418 241.557 94.1953 241.163 94 240.857C93.8047 240.551 93.5671 240.327 93.2871 240.184C93.0072 240.04 92.6816 239.969 92.3105 239.969C91.9395 239.969 91.6107 240.04 91.3242 240.184C91.0443 240.327 90.8066 240.551 90.6113 240.857C90.4225 241.163 90.2793 241.557 90.1816 242.039C90.0905 242.514 90.0449 243.09 90.0449 243.768V246.16C90.0449 246.811 90.0938 247.368 90.1914 247.83C90.2891 248.292 90.4355 248.67 90.6309 248.963C90.8262 249.256 91.0638 249.474 91.3438 249.617C91.6302 249.754 91.959 249.822 92.3301 249.822C92.6947 249.822 93.0169 249.754 93.2969 249.617C93.5833 249.474 93.821 249.256 94.0098 248.963C94.1986 248.67 94.3418 248.292 94.4395 247.83C94.5371 247.368 94.5859 246.811 94.5859 246.16ZM111.895 235.24H114.555V245.62H111.895V235.24ZM100.215 236.32H102.855V243.94H100.215V236.32ZM100.215 242.54H101.815C103.429 242.54 104.915 242.493 106.275 242.4C107.649 242.293 109.015 242.087 110.375 241.78L110.695 243.92C109.282 244.24 107.862 244.46 106.435 244.58C105.022 244.687 103.482 244.74 101.815 244.74H100.215V242.54ZM102.235 246.4H114.555V253.58H102.235V246.4ZM111.955 248.5H104.835V251.48H111.955V248.5ZM123.534 236.48C124.494 236.48 125.361 236.673 126.134 237.06C126.907 237.447 127.514 237.987 127.954 238.68C128.394 239.36 128.614 240.147 128.614 241.04C128.614 241.92 128.394 242.707 127.954 243.4C127.514 244.093 126.907 244.633 126.134 245.02C125.361 245.407 124.494 245.6 123.534 245.6C122.561 245.6 121.687 245.407 120.914 245.02C120.141 244.633 119.527 244.093 119.074 243.4C118.634 242.707 118.414 241.92 118.414 241.04C118.414 240.147 118.634 239.36 119.074 238.68C119.527 237.987 120.141 237.447 120.914 237.06C121.687 236.673 122.561 236.48 123.534 236.48ZM123.534 238.76C123.054 238.76 122.621 238.853 122.234 239.04C121.861 239.213 121.561 239.473 121.334 239.82C121.121 240.153 121.014 240.56 121.014 241.04C121.014 241.52 121.121 241.933 121.334 242.28C121.561 242.627 121.861 242.893 122.234 243.08C122.621 243.253 123.054 243.34 123.534 243.34C124.001 243.34 124.421 243.253 124.794 243.08C125.167 242.893 125.461 242.627 125.674 242.28C125.901 241.933 126.014 241.52 126.014 241.04C126.014 240.56 125.901 240.153 125.674 239.82C125.461 239.473 125.167 239.213 124.794 239.04C124.421 238.853 124.001 238.76 123.534 238.76ZM130.354 235.22H133.014V253.8H130.354V235.22ZM117.954 250.06L117.654 247.9C118.734 247.9 119.927 247.893 121.234 247.88C122.554 247.853 123.907 247.8 125.294 247.72C126.694 247.627 128.047 247.487 129.354 247.3L129.534 249.22C128.201 249.487 126.847 249.68 125.474 249.8C124.101 249.907 122.774 249.98 121.494 250.02C120.214 250.047 119.034 250.06 117.954 250.06ZM141.102 236.42H149.942V244.6H141.102V236.42ZM147.322 238.54H143.722V242.48H147.322V238.54ZM152.482 235.26H155.142V245.62H152.482V235.26ZM154.422 239.26H157.602V241.44H154.422V239.26ZM147.762 247.48H150.022V247.92C150.022 248.627 149.875 249.3 149.582 249.94C149.288 250.58 148.848 251.16 148.262 251.68C147.688 252.187 146.968 252.613 146.102 252.96C145.248 253.32 144.262 253.573 143.142 253.72L142.182 251.7C143.155 251.58 143.988 251.393 144.682 251.14C145.388 250.887 145.968 250.587 146.422 250.24C146.875 249.893 147.208 249.52 147.422 249.12C147.648 248.707 147.762 248.307 147.762 247.92V247.48ZM148.362 247.48H150.602V247.92C150.602 248.307 150.715 248.7 150.942 249.1C151.168 249.487 151.508 249.86 151.962 250.22C152.428 250.567 153.008 250.873 153.702 251.14C154.395 251.407 155.215 251.6 156.162 251.72L155.222 253.74C154.102 253.593 153.115 253.34 152.262 252.98C151.408 252.62 150.688 252.18 150.102 251.66C149.528 251.14 149.095 250.56 148.802 249.92C148.508 249.28 148.362 248.613 148.362 247.92V247.48ZM142.982 246.48H155.382V248.58H142.982V246.48ZM166 245.84H168.66V248.56H166V245.84ZM158.96 244.12H175.72V246.22H158.96V244.12ZM166 235.26H168.66V237.98H166V235.26ZM165.84 238.12H168.18V238.48C168.18 239.16 168.013 239.793 167.68 240.38C167.36 240.953 166.867 241.46 166.2 241.9C165.547 242.327 164.74 242.673 163.78 242.94C162.82 243.207 161.707 243.38 160.44 243.46L159.66 241.48C160.78 241.427 161.733 241.307 162.52 241.12C163.307 240.933 163.947 240.7 164.44 240.42C164.933 240.14 165.287 239.833 165.5 239.5C165.727 239.167 165.84 238.827 165.84 238.48V238.12ZM166.48 238.12H168.82V238.48C168.82 238.827 168.927 239.167 169.14 239.5C169.367 239.833 169.727 240.14 170.22 240.42C170.713 240.7 171.353 240.933 172.14 241.12C172.927 241.307 173.873 241.427 174.98 241.48L174.22 243.46C172.953 243.38 171.833 243.207 170.86 242.94C169.9 242.673 169.093 242.327 168.44 241.9C167.787 241.46 167.293 240.953 166.96 240.38C166.64 239.793 166.48 239.16 166.48 238.48V238.12ZM160.56 236.86H174.1V238.92H160.56V236.86ZM160.92 247.66H173.72V253.58H160.92V247.66ZM171.12 249.72H163.52V251.48H171.12V249.72ZM188.988 235.4H191.248V235.74C191.248 236.367 191.135 236.96 190.908 237.52C190.695 238.08 190.375 238.6 189.948 239.08C189.535 239.56 189.021 239.987 188.408 240.36C187.795 240.733 187.088 241.047 186.288 241.3C185.501 241.553 184.635 241.74 183.688 241.86L182.788 239.86C183.628 239.767 184.381 239.627 185.048 239.44C185.715 239.253 186.295 239.027 186.788 238.76C187.281 238.48 187.688 238.173 188.008 237.84C188.341 237.507 188.588 237.16 188.748 236.8C188.908 236.44 188.988 236.087 188.988 235.74V235.4ZM189.468 235.4H191.708V235.74C191.708 236.087 191.788 236.44 191.948 236.8C192.108 237.16 192.348 237.507 192.668 237.84C193.001 238.173 193.415 238.48 193.908 238.76C194.401 239.027 194.981 239.253 195.648 239.44C196.315 239.627 197.068 239.767 197.908 239.86L197.008 241.86C196.061 241.74 195.188 241.553 194.388 241.3C193.601 241.047 192.901 240.733 192.288 240.36C191.675 239.987 191.155 239.56 190.728 239.08C190.315 238.6 190.001 238.08 189.788 237.52C189.575 236.96 189.468 236.367 189.468 235.74V235.4ZM181.968 242.58H198.728V244.68H181.968V242.58ZM183.888 245.76H196.688V250.56H186.548V252.16H183.908V248.74H194.068V247.72H183.888V245.76ZM183.908 251.64H197.188V253.66H183.908V251.64ZM200.386 244.94H217.146V247.04H200.386V244.94ZM207.446 242.68H210.086V246.18H207.446V242.68ZM202.426 235.68H215.106V240.62H205.086V242.66H202.466V238.74H212.486V237.7H202.426V235.68ZM202.466 241.68H215.466V243.7H202.466V241.68ZM207.426 247.8H209.706V248.04C209.706 248.787 209.546 249.48 209.226 250.12C208.92 250.76 208.453 251.327 207.826 251.82C207.213 252.3 206.453 252.7 205.546 253.02C204.64 253.353 203.6 253.587 202.426 253.72L201.546 251.7C202.586 251.607 203.473 251.447 204.206 251.22C204.953 250.98 205.566 250.693 206.046 250.36C206.526 250.027 206.873 249.66 207.086 249.26C207.313 248.86 207.426 248.453 207.426 248.04V247.8ZM207.866 247.8H210.146V248.04C210.146 248.453 210.253 248.86 210.466 249.26C210.693 249.66 211.046 250.027 211.526 250.36C212.006 250.693 212.613 250.98 213.346 251.22C214.093 251.447 214.986 251.607 216.026 251.7L215.146 253.72C213.973 253.587 212.933 253.353 212.026 253.02C211.12 252.7 210.353 252.3 209.726 251.82C209.113 251.327 208.646 250.76 208.326 250.12C208.02 249.48 207.866 248.787 207.866 248.04V247.8ZM227.165 235.5C229.272 235.5 230.912 235.773 232.085 236.32C233.272 236.867 233.865 237.653 233.865 238.68C233.865 239.693 233.272 240.473 232.085 241.02C230.912 241.567 229.272 241.84 227.165 241.84C225.045 241.84 223.392 241.567 222.205 241.02C221.032 240.473 220.445 239.693 220.445 238.68C220.445 237.653 221.032 236.867 222.205 236.32C223.392 235.773 225.045 235.5 227.165 235.5ZM227.145 237.46C226.265 237.46 225.532 237.507 224.945 237.6C224.358 237.68 223.918 237.813 223.625 238C223.345 238.173 223.205 238.4 223.205 238.68C223.205 238.96 223.345 239.193 223.625 239.38C223.918 239.553 224.358 239.68 224.945 239.76C225.532 239.84 226.265 239.88 227.145 239.88C228.038 239.88 228.778 239.84 229.365 239.76C229.952 239.68 230.385 239.553 230.665 239.38C230.945 239.193 231.085 238.96 231.085 238.68C231.085 238.4 230.945 238.173 230.665 238C230.385 237.813 229.952 237.68 229.365 237.6C228.778 237.507 228.038 237.46 227.145 237.46ZM218.765 242.7H235.525V244.8H218.765V242.7ZM220.685 245.84H233.485V250.58H223.345V252.22H220.705V248.74H230.865V247.8H220.685V245.84ZM220.705 251.64H233.985V253.66H220.705V251.64ZM248.813 247.1H251.473V253.8H248.813V247.1ZM241.793 246.34H258.553V248.5H241.793V246.34ZM248.793 238.58H251.133V239.02C251.133 239.633 251.026 240.233 250.813 240.82C250.613 241.393 250.306 241.933 249.893 242.44C249.479 242.933 248.966 243.387 248.353 243.8C247.739 244.2 247.033 244.54 246.233 244.82C245.433 245.087 244.546 245.28 243.573 245.4L242.633 243.3C243.473 243.207 244.219 243.053 244.873 242.84C245.539 242.627 246.119 242.373 246.613 242.08C247.106 241.787 247.513 241.473 247.833 241.14C248.166 240.793 248.406 240.44 248.553 240.08C248.713 239.707 248.793 239.353 248.793 239.02V238.58ZM249.153 238.58H251.473V239.02C251.473 239.34 251.553 239.687 251.713 240.06C251.886 240.42 252.133 240.773 252.453 241.12C252.773 241.453 253.179 241.773 253.673 242.08C254.166 242.373 254.739 242.627 255.393 242.84C256.059 243.053 256.806 243.207 257.633 243.3L256.713 245.4C255.726 245.293 254.833 245.1 254.033 244.82C253.246 244.527 252.546 244.18 251.933 243.78C251.319 243.38 250.806 242.927 250.393 242.42C249.979 241.9 249.666 241.353 249.453 240.78C249.253 240.207 249.153 239.62 249.153 239.02V238.58ZM243.293 237.36H257.013V239.46H243.293V237.36ZM248.813 235.3H251.473V238.08H248.813V235.3ZM264.331 238.88H266.511V239.58C266.511 240.713 266.324 241.78 265.951 242.78C265.578 243.78 265.011 244.653 264.251 245.4C263.491 246.147 262.524 246.713 261.351 247.1L260.051 245.02C261.051 244.7 261.864 244.26 262.491 243.7C263.131 243.127 263.598 242.487 263.891 241.78C264.184 241.06 264.331 240.327 264.331 239.58V238.88ZM264.831 238.88H266.991V239.58C266.991 240.273 267.138 240.96 267.431 241.64C267.738 242.307 268.211 242.913 268.851 243.46C269.491 243.993 270.304 244.407 271.291 244.7L270.031 246.78C268.858 246.433 267.884 245.907 267.111 245.2C266.351 244.48 265.778 243.64 265.391 242.68C265.018 241.707 264.831 240.673 264.831 239.58V238.88ZM260.691 237.44H270.651V239.52H260.691V237.44ZM264.331 235.38H266.991V238.22H264.331V235.38ZM270.051 240.64H274.351V242.8H270.051V240.64ZM273.011 235.26H275.691V248.96H273.011V235.26ZM263.451 251.32H276.111V253.46H263.451V251.32ZM263.451 247.82H266.111V252.72H263.451V247.82ZM290.49 235.26H293.15V246.1H290.49V235.26ZM292.11 239.7H295.61V241.88H292.11V239.7ZM281.11 246.82H283.75V248.2H290.53V246.82H293.15V253.58H281.11V246.82ZM283.75 250.2V251.5H290.53V250.2H283.75ZM278.59 236.86H289.47V238.96H278.59V236.86ZM284.03 239.44C284.936 239.44 285.73 239.58 286.41 239.86C287.09 240.127 287.623 240.507 288.01 241C288.396 241.493 288.59 242.067 288.59 242.72C288.59 243.373 288.396 243.947 288.01 244.44C287.623 244.933 287.09 245.32 286.41 245.6C285.73 245.867 284.936 246 284.03 246C283.136 246 282.343 245.867 281.65 245.6C280.97 245.32 280.436 244.933 280.05 244.44C279.663 243.947 279.47 243.373 279.47 242.72C279.47 242.067 279.663 241.493 280.05 241C280.436 240.507 280.97 240.127 281.65 239.86C282.343 239.58 283.136 239.44 284.03 239.44ZM284.03 241.38C283.443 241.38 282.963 241.5 282.59 241.74C282.216 241.967 282.03 242.293 282.03 242.72C282.03 243.16 282.216 243.5 282.59 243.74C282.963 243.967 283.443 244.08 284.03 244.08C284.63 244.08 285.11 243.967 285.47 243.74C285.843 243.5 286.03 243.16 286.03 242.72C286.03 242.293 285.843 241.967 285.47 241.74C285.11 241.5 284.63 241.38 284.03 241.38ZM282.71 235.1H285.35V238.02H282.71V235.1ZM309.808 235.24H312.448V253.76H309.808V235.24ZM297.948 237H300.608V248.52H297.948V237ZM297.948 246.94H299.588C300.948 246.94 302.368 246.887 303.848 246.78C305.328 246.66 306.835 246.447 308.368 246.14L308.648 248.36C307.075 248.693 305.521 248.92 303.988 249.04C302.468 249.147 301.001 249.2 299.588 249.2H297.948V246.94ZM327.206 235.22H329.886V253.8H327.206V235.22ZM329.306 242.08H332.566V244.28H329.306V242.08ZM316.086 247.16H317.646C318.7 247.16 319.686 247.147 320.606 247.12C321.526 247.08 322.42 247.02 323.286 246.94C324.153 246.847 325.04 246.72 325.946 246.56L326.206 248.76C325.273 248.92 324.353 249.047 323.446 249.14C322.553 249.233 321.633 249.293 320.686 249.32C319.74 249.347 318.726 249.36 317.646 249.36H316.086V247.16ZM316.086 236.94H324.726V239.08H318.746V248.2H316.086V236.94ZM334.205 250.604C334.205 250.174 334.348 249.816 334.635 249.529C334.921 249.236 335.309 249.09 335.797 249.09C336.285 249.09 336.673 249.236 336.959 249.529C337.245 249.816 337.389 250.174 337.389 250.604C337.389 251.033 337.245 251.391 336.959 251.678C336.673 251.964 336.285 252.107 335.797 252.107C335.309 252.107 334.921 251.964 334.635 251.678C334.348 251.391 334.205 251.033 334.205 250.604Z" fill="black"/>
<rect x="43" y="772" width="330" height="50" rx="8" fill="#2383BD"/>
<path d="M131.185 788.2H139.505V795.94H131.185V788.2ZM137.885 789.54H132.805V794.6H137.885V789.54ZM142.825 786.96H144.485V797.28H142.825V786.96ZM144.025 791.3H147.145V792.68H144.025V791.3ZM138.005 798.96H139.405V799.44C139.405 800.147 139.232 800.807 138.885 801.42C138.552 802.033 138.079 802.58 137.465 803.06C136.865 803.54 136.172 803.94 135.385 804.26C134.599 804.593 133.759 804.833 132.865 804.98L132.245 803.7C133.019 803.593 133.752 803.407 134.445 803.14C135.139 802.873 135.752 802.553 136.285 802.18C136.819 801.793 137.239 801.367 137.545 800.9C137.852 800.433 138.005 799.947 138.005 799.44V798.96ZM138.305 798.96H139.725V799.44C139.725 799.947 139.879 800.427 140.185 800.88C140.505 801.333 140.932 801.753 141.465 802.14C141.999 802.527 142.605 802.86 143.285 803.14C143.979 803.407 144.712 803.6 145.485 803.72L144.865 805C143.972 804.84 143.132 804.593 142.345 804.26C141.559 803.94 140.859 803.54 140.245 803.06C139.645 802.567 139.172 802.013 138.825 801.4C138.479 800.787 138.305 800.133 138.305 799.44V798.96ZM132.945 798.34H144.785V799.68H132.945V798.34ZM156.184 796.94H157.824V799.78H156.184V796.94ZM148.844 795.9H165.184V797.24H148.844V795.9ZM156.184 786.86H157.824V789.38H156.184V786.86ZM156.104 789.54H157.564V789.82C157.564 790.553 157.37 791.213 156.984 791.8C156.61 792.373 156.084 792.873 155.404 793.3C154.737 793.713 153.964 794.047 153.084 794.3C152.204 794.553 151.27 794.733 150.284 794.84L149.784 793.58C150.664 793.513 151.484 793.373 152.244 793.16C153.017 792.947 153.69 792.68 154.264 792.36C154.837 792.04 155.284 791.667 155.604 791.24C155.937 790.8 156.104 790.327 156.104 789.82V789.54ZM156.464 789.54H157.904V789.82C157.904 790.327 158.064 790.8 158.384 791.24C158.717 791.667 159.17 792.04 159.744 792.36C160.33 792.68 161.004 792.947 161.764 793.16C162.524 793.373 163.344 793.513 164.224 793.58L163.744 794.84C162.744 794.733 161.804 794.553 160.924 794.3C160.057 794.047 159.284 793.713 158.604 793.3C157.937 792.873 157.41 792.373 157.024 791.8C156.65 791.213 156.464 790.553 156.464 789.82V789.54ZM150.524 788.66H163.524V789.98H150.524V788.66ZM150.844 799.2H163.184V804.82H150.844V799.2ZM161.564 800.54H152.464V803.46H161.564V800.54ZM179.523 787.1H180.943V787.76C180.943 788.373 180.81 788.947 180.543 789.48C180.276 790.013 179.916 790.5 179.463 790.94C179.01 791.38 178.47 791.767 177.843 792.1C177.23 792.433 176.57 792.713 175.863 792.94C175.156 793.167 174.423 793.327 173.663 793.42L173.103 792.16C173.756 792.08 174.396 791.953 175.023 791.78C175.65 791.593 176.23 791.367 176.763 791.1C177.31 790.82 177.79 790.507 178.203 790.16C178.63 789.813 178.956 789.44 179.183 789.04C179.41 788.627 179.523 788.2 179.523 787.76V787.1ZM179.803 787.1H181.223V787.76C181.223 788.2 181.336 788.627 181.563 789.04C181.79 789.44 182.11 789.813 182.523 790.16C182.936 790.507 183.416 790.82 183.963 791.1C184.51 791.367 185.096 791.593 185.723 791.78C186.35 791.953 186.99 792.08 187.643 792.16L187.063 793.42C186.316 793.327 185.59 793.167 184.883 792.94C184.176 792.713 183.516 792.433 182.903 792.1C182.29 791.767 181.75 791.38 181.283 790.94C180.816 790.5 180.45 790.013 180.183 789.48C179.93 788.947 179.803 788.373 179.803 787.76V787.1ZM172.203 794.56H188.543V795.92H172.203V794.56ZM174.183 797.56H186.443V801.72H175.843V803.86H174.223V800.5H184.823V798.84H174.183V797.56ZM174.223 803.56H186.983V804.86H174.223V803.56ZM190.582 796.72H206.982V798.06H190.582V796.72ZM197.962 794.26H199.602V797.46H197.962V794.26ZM192.662 787.52H204.882V791.82H194.342V794.18H192.702V790.58H203.242V788.82H192.662V787.52ZM192.702 793.62H205.262V794.92H192.702V793.62ZM197.942 799.02H199.382V799.36C199.382 800.133 199.195 800.84 198.822 801.48C198.462 802.107 197.962 802.66 197.322 803.14C196.682 803.607 195.948 803.993 195.122 804.3C194.295 804.62 193.415 804.847 192.482 804.98L191.882 803.7C192.722 803.593 193.502 803.42 194.222 803.18C194.955 802.927 195.602 802.613 196.162 802.24C196.722 801.853 197.155 801.42 197.462 800.94C197.782 800.46 197.942 799.933 197.942 799.36V799.02ZM198.202 799.02H199.622V799.36C199.622 799.933 199.782 800.46 200.102 800.94C200.422 801.42 200.862 801.853 201.422 802.24C201.982 802.613 202.622 802.927 203.342 803.18C204.075 803.42 204.862 803.593 205.702 803.7L205.102 804.98C204.168 804.847 203.288 804.62 202.462 804.3C201.635 803.993 200.902 803.607 200.262 803.14C199.622 802.66 199.115 802.107 198.742 801.48C198.382 800.84 198.202 800.133 198.202 799.36V799.02ZM221.301 798.46H222.941V805.08H221.301V798.46ZM213.961 797.9H230.301V799.28H213.961V797.9ZM221.301 790.08H222.761V790.54C222.761 791.153 222.634 791.74 222.381 792.3C222.128 792.847 221.774 793.353 221.321 793.82C220.868 794.287 220.334 794.707 219.721 795.08C219.121 795.44 218.468 795.747 217.761 796C217.068 796.24 216.341 796.413 215.581 796.52L214.981 795.2C215.634 795.107 216.268 794.96 216.881 794.76C217.508 794.56 218.081 794.313 218.601 794.02C219.134 793.727 219.601 793.4 220.001 793.04C220.414 792.667 220.734 792.273 220.961 791.86C221.188 791.433 221.301 790.993 221.301 790.54V790.08ZM221.501 790.08H222.961V790.54C222.961 790.98 223.074 791.413 223.301 791.84C223.528 792.253 223.841 792.647 224.241 793.02C224.641 793.38 225.101 793.713 225.621 794.02C226.154 794.313 226.728 794.56 227.341 794.76C227.968 794.96 228.608 795.107 229.261 795.2L228.661 796.52C227.901 796.413 227.168 796.24 226.461 796C225.768 795.747 225.114 795.44 224.501 795.08C223.901 794.707 223.374 794.287 222.921 793.82C222.481 793.353 222.134 792.847 221.881 792.3C221.628 791.74 221.501 791.153 221.501 790.54V790.08ZM215.541 789.2H228.721V790.54H215.541V789.2ZM221.301 786.96H222.941V789.66H221.301V786.96ZM236.879 790.38H238.239V791.28C238.239 792.36 238.033 793.367 237.619 794.3C237.206 795.22 236.619 796.02 235.859 796.7C235.113 797.38 234.233 797.9 233.219 798.26L232.399 796.96C233.293 796.667 234.073 796.233 234.739 795.66C235.419 795.087 235.946 794.427 236.319 793.68C236.693 792.92 236.879 792.12 236.879 791.28V790.38ZM237.159 790.38H238.519V791.28C238.519 792.067 238.706 792.82 239.079 793.54C239.466 794.247 239.999 794.867 240.679 795.4C241.359 795.933 242.146 796.347 243.039 796.64L242.219 797.94C241.219 797.607 240.339 797.12 239.579 796.48C238.819 795.827 238.226 795.06 237.799 794.18C237.373 793.287 237.159 792.32 237.159 791.28V790.38ZM232.859 789.38H242.519V790.72H232.859V789.38ZM236.879 787.08H238.539V789.88H236.879V787.08ZM241.899 792.52H246.459V793.92H241.899V792.52ZM245.579 786.98H247.239V800.48H245.579V786.98ZM235.699 803.3H247.739V804.66H235.699V803.3ZM235.699 799.28H237.339V804.02H235.699V799.28ZM263.138 786.96H264.798V797.54H263.138V786.96ZM264.338 791.32H267.458V792.7H264.338V791.32ZM251.498 787.98H253.138V790.74H258.238V787.98H259.878V796.42H251.498V787.98ZM253.138 792.06V795.08H258.238V792.06H253.138ZM253.478 798.54H264.938V799.88H255.138V804.42H253.478V798.54ZM253.478 803.46H265.278V804.8H253.478V803.46ZM282.336 786.96H283.996V805.06H282.336V786.96ZM277.036 788.92H278.676C278.676 790.227 278.516 791.487 278.196 792.7C277.89 793.913 277.403 795.067 276.736 796.16C276.07 797.24 275.203 798.247 274.136 799.18C273.07 800.113 271.776 800.947 270.256 801.68L269.376 800.34C271.123 799.5 272.563 798.52 273.696 797.4C274.83 796.28 275.67 795.033 276.216 793.66C276.763 792.273 277.036 790.78 277.036 789.18V788.92ZM270.216 788.92H277.736V790.26H270.216V788.92Z" fill="white"/>
<g filter="url(#filter0_dd_472_6382)">
<rect x="207.5" y="419.5" width="155" height="77" fill="#00E3CD" stroke="#00E3CD" stroke-width="3"/>
</g>
<path d="M206 440C215.941 440 224 447.387 224 456.5C224 465.613 215.941 473 206 473V498H48V418H206V440Z" fill="#F1A791"/>
<path d="M127 482C136.759 482 144.703 489.119 144.991 498H206V578H48V498H109.009C109.297 489.119 117.241 482 127 482Z" fill="#98D0F5"/>
<path d="M351 338C358.18 338 364 343.82 364 351V418H302.991C302.703 426.881 294.759 434 285 434C275.241 434 267.297 426.881 267.009 418H206V338H351Z" fill="#5E9DDE"/>
<path d="M285 482C294.759 482 302.703 489.119 302.991 498H364V565C364 572.18 358.18 578 351 578H206V553C196.059 553 188 545.613 188 536.5C188 527.387 196.059 520 206 520V498H267.009C267.297 489.119 275.241 482 285 482Z" fill="#B8A9E4"/>
<path d="M206 418H145.975C146.638 419.72 147 421.571 147 423.5C147 432.613 138.941 440 129 440C119.059 440 111 432.613 111 423.5C111 421.571 111.362 419.72 112.025 418H48V351C48 343.82 53.8203 338 61 338H206V418Z" fill="#FACE84"/>
<defs>
<filter id="filter0_dd_472_6382" x="198" y="412" width="174" height="96" filterUnits="userSpaceOnUse" color-interpolation-filters="sRGB">
<feFlood flood-opacity="0" result="BackgroundImageFix"/>
<feColorMatrix in="SourceAlpha" type="matrix" values="0 0 0 0 0 0 0 0 0 0 0 0 0 0 0 0 0 0 127 0" result="hardAlpha"/>
<feMorphology radius="2" operator="dilate" in="SourceAlpha" result="effect1_dropShadow_472_6382"/>
<feOffset dy="2"/>
<feGaussianBlur stdDeviation="3"/>
<feColorMatrix type="matrix" values="0 0 0 0 0 0 0 0 0 0 0 0 0 0 0 0 0 0 0.15 0"/>
<feBlend mode="normal" in2="BackgroundImageFix" result="effect1_dropShadow_472_6382"/>
<feColorMatrix in="SourceAlpha" type="matrix" values="0 0 0 0 0 0 0 0 0 0 0 0 0 0 0 0 0 0 127 0" result="hardAlpha"/>
<feOffset dy="1"/>
<feGaussianBlur stdDeviation="1"/>
<feColorMatrix type="matrix" values="0 0 0 0 0 0 0 0 0 0 0 0 0 0 0 0 0 0 0.3 0"/>
<feBlend mode="normal" in2="effect1_dropShadow_472_6382" result="effect2_dropShadow_472_6382"/>
<feBlend mode="normal" in="SourceGraphic" in2="effect2_dropShadow_472_6382" result="shape"/>
</filter>
</defs>
</svg>
