<svg width="412" height="917" viewBox="0 0 412 917" fill="none" xmlns="http://www.w3.org/2000/svg">
<rect width="412" height="917" fill="#F9FAFC"/>
<rect width="412" height="32" fill="white"/>
<path d="M27.416 12.0469V12.7578L23.2939 22H21.9609L26.0762 13.0859H20.6895V12.0469H27.416ZM28.9404 21.3301C28.9404 21.1159 29.0065 20.9359 29.1387 20.79C29.2754 20.6396 29.4714 20.5645 29.7266 20.5645C29.9818 20.5645 30.1755 20.6396 30.3076 20.79C30.4443 20.9359 30.5127 21.1159 30.5127 21.3301C30.5127 21.5397 30.4443 21.7174 30.3076 21.8633C30.1755 22.0091 29.9818 22.082 29.7266 22.082C29.4714 22.082 29.2754 22.0091 29.1387 21.8633C29.0065 21.7174 28.9404 21.5397 28.9404 21.3301ZM28.9473 15.2939C28.9473 15.0798 29.0133 14.8997 29.1455 14.7539C29.2822 14.6035 29.4782 14.5283 29.7334 14.5283C29.9886 14.5283 30.1823 14.6035 30.3145 14.7539C30.4512 14.8997 30.5195 15.0798 30.5195 15.2939C30.5195 15.5036 30.4512 15.6813 30.3145 15.8271C30.1823 15.973 29.9886 16.0459 29.7334 16.0459C29.4782 16.0459 29.2822 15.973 29.1455 15.8271C29.0133 15.6813 28.9473 15.5036 28.9473 15.2939ZM34.0947 16.4014H34.9971C35.4391 16.4014 35.8037 16.3285 36.0908 16.1826C36.3825 16.0322 36.599 15.8294 36.7402 15.5742C36.8861 15.3145 36.959 15.0228 36.959 14.6992C36.959 14.3164 36.8952 13.9951 36.7676 13.7354C36.64 13.4756 36.4486 13.2796 36.1934 13.1475C35.9382 13.0153 35.6146 12.9492 35.2227 12.9492C34.8672 12.9492 34.5527 13.0199 34.2793 13.1611C34.0104 13.2979 33.7985 13.4938 33.6436 13.749C33.4932 14.0042 33.418 14.305 33.418 14.6514H32.1533C32.1533 14.1455 32.2809 13.6852 32.5361 13.2705C32.7913 12.8558 33.1491 12.5254 33.6094 12.2793C34.0742 12.0332 34.612 11.9102 35.2227 11.9102C35.8242 11.9102 36.3506 12.0173 36.8018 12.2314C37.2529 12.4411 37.6038 12.7555 37.8545 13.1748C38.1051 13.5895 38.2305 14.1068 38.2305 14.7266C38.2305 14.9772 38.1712 15.2461 38.0527 15.5332C37.9388 15.8158 37.7588 16.0801 37.5127 16.3262C37.2712 16.5723 36.9567 16.7751 36.5693 16.9346C36.182 17.0895 35.7171 17.167 35.1748 17.167H34.0947V16.4014ZM34.0947 17.4404V16.6816H35.1748C35.8083 16.6816 36.3324 16.7568 36.7471 16.9072C37.1618 17.0576 37.4876 17.2581 37.7246 17.5088C37.9661 17.7594 38.1348 18.0352 38.2305 18.3359C38.3307 18.6322 38.3809 18.9284 38.3809 19.2246C38.3809 19.6895 38.3011 20.1019 38.1416 20.4619C37.9867 20.8219 37.7656 21.1273 37.4785 21.3779C37.196 21.6286 36.8633 21.8177 36.4805 21.9453C36.0977 22.0729 35.6807 22.1367 35.2295 22.1367C34.7965 22.1367 34.3887 22.0752 34.0059 21.9521C33.6276 21.8291 33.2926 21.6514 33.001 21.4189C32.7093 21.182 32.4814 20.8926 32.3174 20.5508C32.1533 20.2044 32.0713 19.8102 32.0713 19.3682H33.3359C33.3359 19.7145 33.4111 20.0176 33.5615 20.2773C33.7165 20.5371 33.9352 20.7399 34.2178 20.8857C34.5049 21.027 34.8421 21.0977 35.2295 21.0977C35.6169 21.0977 35.9495 21.0316 36.2275 20.8994C36.5101 20.7627 36.7266 20.5576 36.877 20.2842C37.0319 20.0107 37.1094 19.6667 37.1094 19.252C37.1094 18.8372 37.0228 18.4977 36.8496 18.2334C36.6764 17.9645 36.4303 17.7663 36.1113 17.6387C35.7969 17.5065 35.4255 17.4404 34.9971 17.4404H34.0947ZM46.3721 16.2305V17.748C46.3721 18.5638 46.2992 19.252 46.1533 19.8125C46.0075 20.373 45.7979 20.8242 45.5244 21.166C45.251 21.5078 44.9206 21.7562 44.5332 21.9111C44.1504 22.0615 43.7174 22.1367 43.2344 22.1367C42.8516 22.1367 42.4984 22.0889 42.1748 21.9932C41.8512 21.8975 41.5596 21.7448 41.2998 21.5352C41.0446 21.321 40.8258 21.043 40.6436 20.7012C40.4613 20.3594 40.3223 19.9447 40.2266 19.457C40.1309 18.9694 40.083 18.3997 40.083 17.748V16.2305C40.083 15.4147 40.1559 14.7311 40.3018 14.1797C40.4521 13.6283 40.6641 13.1862 40.9375 12.8535C41.2109 12.5163 41.5391 12.2747 41.9219 12.1289C42.3092 11.9831 42.7422 11.9102 43.2207 11.9102C43.6081 11.9102 43.9635 11.958 44.2871 12.0537C44.6152 12.1449 44.9069 12.293 45.1621 12.498C45.4173 12.6986 45.6338 12.9674 45.8115 13.3047C45.9938 13.6374 46.1328 14.0452 46.2285 14.5283C46.3242 15.0114 46.3721 15.5788 46.3721 16.2305ZM45.1006 17.9531V16.0186C45.1006 15.5719 45.0732 15.18 45.0186 14.8428C44.9684 14.501 44.8932 14.2093 44.793 13.9678C44.6927 13.7262 44.5651 13.5303 44.4102 13.3799C44.2598 13.2295 44.0843 13.1201 43.8838 13.0518C43.6878 12.9788 43.4668 12.9424 43.2207 12.9424C42.9199 12.9424 42.6533 12.9993 42.4209 13.1133C42.1885 13.2227 41.9925 13.3981 41.833 13.6396C41.6781 13.8812 41.5596 14.1979 41.4775 14.5898C41.3955 14.9818 41.3545 15.458 41.3545 16.0186V17.9531C41.3545 18.3997 41.3796 18.7939 41.4297 19.1357C41.4844 19.4775 41.5641 19.7738 41.6689 20.0244C41.7738 20.2705 41.9014 20.4733 42.0518 20.6328C42.2021 20.7923 42.3753 20.9108 42.5713 20.9883C42.7718 21.0612 42.9928 21.0977 43.2344 21.0977C43.5443 21.0977 43.8154 21.0384 44.0479 20.9199C44.2803 20.8014 44.474 20.6169 44.6289 20.3662C44.7884 20.111 44.9069 19.7852 44.9844 19.3887C45.0618 18.9876 45.1006 18.5091 45.1006 17.9531ZM55.4844 12.9287L52.1895 22H50.8428L54.6367 12.0469H55.5049L55.4844 12.9287ZM58.2461 22L54.9443 12.9287L54.9238 12.0469H55.792L59.5996 22H58.2461ZM58.0752 18.3154V19.3955H52.4834V18.3154H58.0752ZM61.3496 12.0469H62.6279L65.8887 20.1611L69.1426 12.0469H70.4277L66.3809 22H65.3828L61.3496 12.0469ZM60.9326 12.0469H62.0605L62.2451 18.1172V22H60.9326V12.0469ZM69.71 12.0469H70.8379V22H69.5254V18.1172L69.71 12.0469Z" fill="#0C0C0C"/>
<path d="M322.792 12.9478L324.375 14.5311C328.309 10.5966 334.69 10.5966 338.625 14.5311L340.208 12.9478C335.403 8.1424 327.605 8.1424 322.792 12.9478ZM329.125 19.2811L331.5 21.6561L333.875 19.2811C332.569 17.967 330.439 17.967 329.125 19.2811ZM325.958 16.1145L327.542 17.6978C329.727 15.5128 333.273 15.5128 335.458 17.6978L337.042 16.1145C333.986 13.0586 329.022 13.0586 325.958 16.1145Z" fill="#0C0C0C"/>
<path d="M362.75 9.33337H365.25V22.6667H362.75V9.33337ZM352.75 17.6667H355.25V22.6667H352.75V17.6667ZM357.75 13.5H360.25V22.6667H357.75V13.5Z" fill="#0C0C0C"/>
<path d="M391.362 9.55859L391.1 24.4573L382.823 24.3115L383.085 9.41286L385.568 9.45658L385.597 7.80117L388.908 7.85946L388.879 9.51487L391.362 9.55859ZM389.678 11.1849L384.711 11.0974L384.653 14.4082L389.619 14.4957L389.678 11.1849Z" fill="#0C0C0C"/>
<path d="M111.768 242.76H114.428V245.98H111.768V242.76ZM120.228 235.24H122.888V245.96H120.228V235.24ZM107.588 243.6L107.308 241.76C108.495 241.76 109.755 241.753 111.088 241.74C112.422 241.727 113.775 241.693 115.148 241.64C116.522 241.587 117.855 241.5 119.148 241.38L119.288 243.02C117.955 243.207 116.608 243.34 115.248 243.42C113.888 243.5 112.562 243.553 111.268 243.58C109.975 243.593 108.748 243.6 107.588 243.6ZM109.948 246.54H122.888V250.88H112.608V252.34H109.968V249.2H120.268V248.34H109.948V246.54ZM109.968 251.82H123.328V253.66H109.968V251.82ZM116.968 243.82H121.048V245.42H116.968V243.82ZM113.188 235.52C114.108 235.52 114.915 235.633 115.608 235.86C116.302 236.087 116.842 236.407 117.228 236.82C117.615 237.233 117.808 237.727 117.808 238.3C117.808 238.86 117.615 239.347 117.228 239.76C116.842 240.173 116.302 240.493 115.608 240.72C114.915 240.947 114.108 241.06 113.188 241.06C112.268 241.06 111.455 240.947 110.748 240.72C110.055 240.493 109.515 240.173 109.128 239.76C108.742 239.347 108.548 238.86 108.548 238.3C108.548 237.727 108.742 237.233 109.128 236.82C109.515 236.407 110.055 236.087 110.748 235.86C111.455 235.633 112.268 235.52 113.188 235.52ZM113.188 237.26C112.535 237.26 112.008 237.347 111.608 237.52C111.222 237.693 111.028 237.953 111.028 238.3C111.028 238.633 111.222 238.887 111.608 239.06C112.008 239.233 112.535 239.32 113.188 239.32C113.855 239.32 114.375 239.233 114.748 239.06C115.135 238.887 115.328 238.633 115.328 238.3C115.328 237.953 115.135 237.693 114.748 237.52C114.375 237.347 113.855 237.26 113.188 237.26ZM137.296 235.78H139.616V236.66C139.616 237.367 139.503 238.053 139.276 238.72C139.063 239.373 138.743 239.987 138.316 240.56C137.889 241.133 137.369 241.647 136.756 242.1C136.143 242.553 135.429 242.94 134.616 243.26C133.816 243.567 132.936 243.8 131.976 243.96L130.936 241.82C131.789 241.713 132.549 241.533 133.216 241.28C133.896 241.027 134.489 240.727 134.996 240.38C135.516 240.033 135.943 239.653 136.276 239.24C136.609 238.827 136.863 238.4 137.036 237.96C137.209 237.52 137.296 237.087 137.296 236.66V235.78ZM137.796 235.78H140.116V236.66C140.116 237.087 140.203 237.52 140.376 237.96C140.549 238.4 140.803 238.827 141.136 239.24C141.469 239.653 141.889 240.033 142.396 240.38C142.916 240.727 143.509 241.027 144.176 241.28C144.856 241.533 145.623 241.713 146.476 241.82L145.436 243.96C144.463 243.8 143.576 243.567 142.776 243.26C141.976 242.94 141.269 242.553 140.656 242.1C140.043 241.633 139.523 241.113 139.096 240.54C138.669 239.967 138.343 239.353 138.116 238.7C137.903 238.047 137.796 237.367 137.796 236.66V235.78ZM137.296 246.98H139.956V253.78H137.296V246.98ZM130.316 245.3H147.076V247.46H130.316V245.3ZM161.435 235.26H164.095V245.2H161.435V235.26ZM151.795 246.02H154.415V247.74H161.455V246.02H164.095V253.58H151.795V246.02ZM154.415 249.78V251.46H161.455V249.78H154.415ZM154.015 236.02C154.975 236.02 155.835 236.207 156.595 236.58C157.355 236.953 157.955 237.467 158.395 238.12C158.835 238.773 159.055 239.527 159.055 240.38C159.055 241.233 158.835 241.993 158.395 242.66C157.955 243.313 157.355 243.827 156.595 244.2C155.835 244.573 154.975 244.76 154.015 244.76C153.055 244.76 152.195 244.573 151.435 244.2C150.675 243.827 150.075 243.313 149.635 242.66C149.195 241.993 148.975 241.233 148.975 240.38C148.975 239.527 149.195 238.773 149.635 238.12C150.075 237.467 150.675 236.953 151.435 236.58C152.195 236.207 153.055 236.02 154.015 236.02ZM154.015 238.2C153.548 238.2 153.128 238.287 152.755 238.46C152.381 238.633 152.088 238.887 151.875 239.22C151.675 239.54 151.575 239.927 151.575 240.38C151.575 240.847 151.675 241.247 151.875 241.58C152.088 241.9 152.381 242.147 152.755 242.32C153.128 242.48 153.548 242.56 154.015 242.56C154.481 242.56 154.895 242.48 155.255 242.32C155.628 242.147 155.921 241.9 156.135 241.58C156.348 241.247 156.455 240.847 156.455 240.38C156.455 239.927 156.348 239.54 156.135 239.22C155.921 238.887 155.628 238.633 155.255 238.46C154.895 238.287 154.481 238.2 154.015 238.2ZM175.493 235.5C177.6 235.5 179.24 235.773 180.413 236.32C181.6 236.867 182.193 237.653 182.193 238.68C182.193 239.693 181.6 240.473 180.413 241.02C179.24 241.567 177.6 241.84 175.493 241.84C173.373 241.84 171.72 241.567 170.533 241.02C169.36 240.473 168.773 239.693 168.773 238.68C168.773 237.653 169.36 236.867 170.533 236.32C171.72 235.773 173.373 235.5 175.493 235.5ZM175.473 237.46C174.593 237.46 173.86 237.507 173.273 237.6C172.686 237.68 172.246 237.813 171.953 238C171.673 238.173 171.533 238.4 171.533 238.68C171.533 238.96 171.673 239.193 171.953 239.38C172.246 239.553 172.686 239.68 173.273 239.76C173.86 239.84 174.593 239.88 175.473 239.88C176.366 239.88 177.106 239.84 177.693 239.76C178.28 239.68 178.713 239.553 178.993 239.38C179.273 239.193 179.413 238.96 179.413 238.68C179.413 238.4 179.273 238.173 178.993 238C178.713 237.813 178.28 237.68 177.693 237.6C177.106 237.507 176.366 237.46 175.473 237.46ZM167.093 242.7H183.853V244.8H167.093V242.7ZM169.013 245.84H181.813V250.58H171.673V252.22H169.033V248.74H179.193V247.8H169.013V245.84ZM169.033 251.64H182.313V253.66H169.033V251.64ZM202.841 235.26H205.501V245.2H202.841V235.26ZM193.201 246.02H195.821V247.74H202.861V246.02H205.501V253.58H193.201V246.02ZM195.821 249.78V251.46H202.861V249.78H195.821ZM195.421 236.02C196.381 236.02 197.241 236.207 198.001 236.58C198.761 236.953 199.361 237.467 199.801 238.12C200.241 238.773 200.461 239.527 200.461 240.38C200.461 241.233 200.241 241.993 199.801 242.66C199.361 243.313 198.761 243.827 198.001 244.2C197.241 244.573 196.381 244.76 195.421 244.76C194.461 244.76 193.601 244.573 192.841 244.2C192.081 243.827 191.481 243.313 191.041 242.66C190.601 241.993 190.381 241.233 190.381 240.38C190.381 239.527 190.601 238.773 191.041 238.12C191.481 237.467 192.081 236.953 192.841 236.58C193.601 236.207 194.461 236.02 195.421 236.02ZM195.421 238.2C194.954 238.2 194.534 238.287 194.161 238.46C193.787 238.633 193.494 238.887 193.281 239.22C193.081 239.54 192.981 239.927 192.981 240.38C192.981 240.847 193.081 241.247 193.281 241.58C193.494 241.9 193.787 242.147 194.161 242.32C194.534 242.48 194.954 242.56 195.421 242.56C195.887 242.56 196.301 242.48 196.661 242.32C197.034 242.147 197.327 241.9 197.541 241.58C197.754 241.247 197.861 240.847 197.861 240.38C197.861 239.927 197.754 239.54 197.541 239.22C197.327 238.887 197.034 238.633 196.661 238.46C196.301 238.287 195.887 238.2 195.421 238.2ZM209.219 244.06H210.619C211.779 244.06 212.773 244.053 213.599 244.04C214.439 244.013 215.206 243.967 215.899 243.9C216.593 243.833 217.279 243.74 217.959 243.62L218.239 245.74C217.693 245.833 217.153 245.913 216.619 245.98C216.099 246.047 215.539 246.093 214.939 246.12C214.353 246.147 213.706 246.167 212.999 246.18C212.306 246.193 211.513 246.2 210.619 246.2H209.219V244.06ZM209.179 236.3H217.319V242.14H211.859V245.48H209.219V240.16H214.699V238.42H209.179V236.3ZM221.339 235.26H224.019V246.68H221.339V235.26ZM218.379 237.82H221.839V239.94H218.379V237.82ZM218.379 241.76H221.839V243.88H218.379V241.76ZM211.319 247.52H224.019V253.78H221.339V249.62H211.319V247.52ZM226.898 238.04H235.758V240.14H226.898V238.04ZM231.358 240.98C232.144 240.98 232.838 241.167 233.438 241.54C234.051 241.913 234.531 242.433 234.878 243.1C235.238 243.753 235.418 244.513 235.418 245.38C235.418 246.247 235.238 247.013 234.878 247.68C234.531 248.333 234.051 248.847 233.438 249.22C232.838 249.593 232.144 249.78 231.358 249.78C230.571 249.78 229.871 249.593 229.258 249.22C228.644 248.847 228.164 248.333 227.818 247.68C227.471 247.013 227.298 246.247 227.298 245.38C227.298 244.513 227.471 243.753 227.818 243.1C228.164 242.433 228.644 241.913 229.258 241.54C229.884 241.167 230.584 240.98 231.358 240.98ZM231.358 243.18C231.038 243.18 230.744 243.267 230.478 243.44C230.211 243.613 230.004 243.867 229.858 244.2C229.711 244.52 229.638 244.913 229.638 245.38C229.638 245.847 229.711 246.247 229.858 246.58C230.004 246.913 230.211 247.167 230.478 247.34C230.744 247.5 231.038 247.58 231.358 247.58C231.691 247.58 231.984 247.5 232.238 247.34C232.491 247.167 232.691 246.913 232.838 246.58C232.984 246.247 233.058 245.847 233.058 245.38C233.058 244.913 232.984 244.52 232.838 244.2C232.691 243.867 232.491 243.613 232.238 243.44C231.984 243.267 231.691 243.18 231.358 243.18ZM240.298 235.24H242.818V253.76H240.298V235.24ZM238.078 242.78H241.118V244.92H238.078V242.78ZM236.398 235.58H238.878V252.98H236.398V235.58ZM230.058 235.74H232.678V239.36H230.058V235.74ZM252.156 237.3H254.476V237.86C254.476 238.5 254.369 239.12 254.156 239.72C253.956 240.32 253.649 240.88 253.236 241.4C252.823 241.907 252.316 242.367 251.716 242.78C251.129 243.18 250.449 243.52 249.676 243.8C248.903 244.08 248.043 244.28 247.096 244.4L246.116 242.34C246.943 242.233 247.676 242.073 248.316 241.86C248.969 241.633 249.536 241.373 250.016 241.08C250.496 240.773 250.896 240.447 251.216 240.1C251.536 239.753 251.769 239.387 251.916 239C252.076 238.613 252.156 238.233 252.156 237.86V237.3ZM252.936 237.3H255.236V237.86C255.236 238.233 255.309 238.613 255.456 239C255.616 239.387 255.856 239.753 256.176 240.1C256.496 240.447 256.896 240.773 257.376 241.08C257.869 241.373 258.436 241.633 259.076 241.86C259.716 242.073 260.449 242.233 261.276 242.34L260.296 244.4C259.349 244.28 258.489 244.08 257.716 243.8C256.943 243.52 256.256 243.18 255.656 242.78C255.069 242.367 254.569 241.907 254.156 241.4C253.756 240.88 253.449 240.32 253.236 239.72C253.036 239.12 252.936 238.5 252.936 237.86V237.3ZM252.296 247H254.956V253.78H252.296V247ZM245.316 245.46H262.076V247.6H245.316V245.46ZM246.796 236.2H260.536V238.3H246.796V236.2ZM270.995 241.48H274.075V243.64H270.995V241.48ZM267.055 236.86H269.075V239.96C269.075 241.013 269.001 242.047 268.855 243.06C268.708 244.073 268.468 245.027 268.135 245.92C267.815 246.813 267.388 247.62 266.855 248.34C266.335 249.047 265.701 249.627 264.955 250.08L263.355 248.08C264.048 247.667 264.628 247.16 265.095 246.56C265.561 245.96 265.941 245.3 266.235 244.58C266.528 243.86 266.735 243.113 266.855 242.34C266.988 241.553 267.055 240.76 267.055 239.96V236.86ZM267.635 236.86H269.615V239.84C269.615 240.6 269.668 241.353 269.775 242.1C269.895 242.847 270.081 243.56 270.335 244.24C270.588 244.92 270.921 245.547 271.335 246.12C271.761 246.693 272.295 247.187 272.935 247.6L271.475 249.68C270.755 249.227 270.141 248.653 269.635 247.96C269.141 247.253 268.748 246.46 268.455 245.58C268.161 244.7 267.948 243.773 267.815 242.8C267.695 241.827 267.635 240.84 267.635 239.84V236.86ZM277.075 235.24H279.615V253.76H277.075V235.24ZM273.315 235.54H275.795V252.94H273.315V235.54ZM285.793 244.66H288.453V249.84H285.793V244.66ZM292.513 244.66H295.173V249.84H292.513V244.66ZM282.113 249.46H298.893V251.62H282.113V249.46ZM290.473 236.16C291.806 236.16 292.993 236.367 294.033 236.78C295.086 237.193 295.906 237.773 296.493 238.52C297.093 239.253 297.393 240.127 297.393 241.14C297.393 242.14 297.093 243.013 296.493 243.76C295.906 244.493 295.086 245.067 294.033 245.48C292.993 245.893 291.806 246.1 290.473 246.1C289.153 246.1 287.966 245.893 286.913 245.48C285.873 245.067 285.053 244.493 284.453 243.76C283.853 243.013 283.553 242.14 283.553 241.14C283.553 240.127 283.853 239.253 284.453 238.52C285.053 237.773 285.873 237.193 286.913 236.78C287.966 236.367 289.153 236.16 290.473 236.16ZM290.473 238.22C289.62 238.22 288.866 238.34 288.213 238.58C287.573 238.807 287.073 239.133 286.713 239.56C286.353 239.987 286.173 240.513 286.173 241.14C286.173 241.74 286.353 242.26 286.713 242.7C287.073 243.127 287.573 243.46 288.213 243.7C288.866 243.927 289.62 244.04 290.473 244.04C291.34 244.04 292.093 243.927 292.733 243.7C293.386 243.46 293.886 243.127 294.233 242.7C294.593 242.26 294.773 241.74 294.773 241.14C294.773 240.513 294.593 239.987 294.233 239.56C293.886 239.133 293.386 238.807 292.733 238.58C292.093 238.34 291.34 238.22 290.473 238.22ZM300.932 250.604C300.932 250.174 301.075 249.816 301.361 249.529C301.648 249.236 302.035 249.09 302.523 249.09C303.012 249.09 303.399 249.236 303.686 249.529C303.972 249.816 304.115 250.174 304.115 250.604C304.115 251.033 303.972 251.391 303.686 251.678C303.399 251.964 303.012 252.107 302.523 252.107C302.035 252.107 301.648 251.964 301.361 251.678C301.075 251.391 300.932 251.033 300.932 250.604Z" fill="black"/>
<path d="M54.508 312.076H55.504V322.936H54.508V312.076ZM51.328 313.252H52.312C52.312 314.036 52.216 314.792 52.024 315.52C51.84 316.248 51.548 316.94 51.148 317.596C50.748 318.244 50.228 318.848 49.588 319.408C48.948 319.968 48.172 320.468 47.26 320.908L46.732 320.104C47.78 319.6 48.644 319.012 49.324 318.34C50.004 317.668 50.508 316.92 50.836 316.096C51.164 315.264 51.328 314.368 51.328 313.408V313.252ZM47.236 313.252H51.748V314.056H47.236V313.252ZM61.8991 313.108H62.7751V313.432C62.7751 313.888 62.6631 314.308 62.4391 314.692C62.2151 315.076 61.9071 315.42 61.5151 315.724C61.1311 316.02 60.6871 316.268 60.1831 316.468C59.6871 316.66 59.1591 316.796 58.5991 316.876L58.2271 316.084C58.6111 316.028 58.9831 315.944 59.3431 315.832C59.7111 315.72 60.0471 315.584 60.3511 315.424C60.6551 315.256 60.9231 315.068 61.1551 314.86C61.3871 314.652 61.5671 314.428 61.6951 314.188C61.8311 313.948 61.8991 313.696 61.8991 313.432V313.108ZM62.3071 313.108H63.1831V313.432C63.1831 313.688 63.2471 313.936 63.3751 314.176C63.5111 314.416 63.6951 314.644 63.9271 314.86C64.1591 315.068 64.4271 315.256 64.7311 315.424C65.0431 315.584 65.3791 315.72 65.7391 315.832C66.0991 315.944 66.4711 316.028 66.8551 316.084L66.4831 316.876C65.9311 316.796 65.4031 316.66 64.8991 316.468C64.3951 316.268 63.9511 316.02 63.5671 315.724C63.1831 315.42 62.8751 315.076 62.6431 314.692C62.4191 314.308 62.3071 313.888 62.3071 313.432V313.108ZM58.5391 312.616H66.5551V313.42H58.5391V312.616ZM57.6271 317.656H67.4671V318.472H57.6271V317.656ZM62.1151 318.172H63.1111V320.668H62.1151V318.172ZM58.8751 321.88H66.3751V322.696H58.8751V321.88ZM58.8751 319.612H59.8711V322.18H58.8751V319.612ZM71.7261 312.472C72.2701 312.472 72.7501 312.576 73.1661 312.784C73.5901 312.984 73.9221 313.264 74.1621 313.624C74.4021 313.984 74.5221 314.404 74.5221 314.884C74.5221 315.356 74.4021 315.776 74.1621 316.144C73.9221 316.504 73.5901 316.784 73.1661 316.984C72.7501 317.184 72.2701 317.284 71.7261 317.284C71.1901 317.284 70.7101 317.184 70.2861 316.984C69.8621 316.784 69.5261 316.504 69.2781 316.144C69.0381 315.776 68.9181 315.356 68.9181 314.884C68.9181 314.404 69.0381 313.984 69.2781 313.624C69.5261 313.264 69.8621 312.984 70.2861 312.784C70.7101 312.576 71.1901 312.472 71.7261 312.472ZM71.7261 313.3C71.3741 313.3 71.0581 313.368 70.7781 313.504C70.5061 313.632 70.2901 313.816 70.1301 314.056C69.9701 314.296 69.8901 314.572 69.8901 314.884C69.8901 315.196 69.9701 315.472 70.1301 315.712C70.2901 315.944 70.5061 316.128 70.7781 316.264C71.0581 316.4 71.3741 316.468 71.7261 316.468C72.0781 316.468 72.3901 316.4 72.6621 316.264C72.9421 316.128 73.1621 315.944 73.3221 315.712C73.4821 315.472 73.5621 315.196 73.5621 314.884C73.5621 314.572 73.4821 314.296 73.3221 314.056C73.1621 313.816 72.9421 313.632 72.6621 313.504C72.3901 313.368 72.0781 313.3 71.7261 313.3ZM76.5741 312.076H77.5701V317.632H76.5741V312.076ZM70.5501 318.172H77.5701V320.8H71.5461V322.432H70.5861V320.056H76.5861V318.964H70.5501V318.172ZM70.5861 321.988H77.9421V322.792H70.5861V321.988Z" fill="#404040"/>
<rect x="104" y="329" width="262" height="41" rx="8" fill="#FBFCFB"/>
<path d="M119.695 343.562V355H118.25V345.367L115.336 346.43V345.125L119.469 343.562H119.695ZM131.398 353.812V355H123.953V353.961L127.68 349.812C128.138 349.302 128.492 348.87 128.742 348.516C128.997 348.156 129.174 347.836 129.273 347.555C129.378 347.268 129.43 346.977 129.43 346.68C129.43 346.305 129.352 345.966 129.195 345.664C129.044 345.357 128.82 345.112 128.523 344.93C128.227 344.747 127.867 344.656 127.445 344.656C126.94 344.656 126.518 344.755 126.18 344.953C125.846 345.146 125.596 345.417 125.43 345.766C125.263 346.115 125.18 346.516 125.18 346.969H123.734C123.734 346.328 123.875 345.742 124.156 345.211C124.438 344.68 124.854 344.258 125.406 343.945C125.958 343.628 126.638 343.469 127.445 343.469C128.164 343.469 128.779 343.596 129.289 343.852C129.799 344.102 130.19 344.456 130.461 344.914C130.737 345.367 130.875 345.898 130.875 346.508C130.875 346.841 130.818 347.18 130.703 347.523C130.594 347.862 130.44 348.201 130.242 348.539C130.049 348.878 129.823 349.211 129.562 349.539C129.307 349.867 129.034 350.19 128.742 350.508L125.695 353.812H131.398ZM136.864 342.296C137.589 342.296 138.229 342.435 138.784 342.712C139.349 342.979 139.792 343.352 140.112 343.832C140.432 344.312 140.592 344.872 140.592 345.512C140.592 346.141 140.432 346.701 140.112 347.192C139.792 347.672 139.349 348.045 138.784 348.312C138.229 348.579 137.589 348.712 136.864 348.712C136.149 348.712 135.509 348.579 134.944 348.312C134.379 348.045 133.931 347.672 133.6 347.192C133.28 346.701 133.12 346.141 133.12 345.512C133.12 344.872 133.28 344.312 133.6 343.832C133.931 343.352 134.379 342.979 134.944 342.712C135.509 342.435 136.149 342.296 136.864 342.296ZM136.864 343.4C136.395 343.4 135.973 343.491 135.6 343.672C135.237 343.843 134.949 344.088 134.736 344.408C134.523 344.728 134.416 345.096 134.416 345.512C134.416 345.928 134.523 346.296 134.736 346.616C134.949 346.925 135.237 347.171 135.6 347.352C135.973 347.533 136.395 347.624 136.864 347.624C137.333 347.624 137.749 347.533 138.112 347.352C138.485 347.171 138.779 346.925 138.992 346.616C139.205 346.296 139.312 345.928 139.312 345.512C139.312 345.096 139.205 344.728 138.992 344.408C138.779 344.088 138.485 343.843 138.112 343.672C137.749 343.491 137.333 343.4 136.864 343.4ZM143.328 341.768H144.656V349.176H143.328V341.768ZM135.296 349.896H144.656V353.4H136.624V355.576H135.344V352.408H143.344V350.952H135.296V349.896ZM135.344 354.984H145.152V356.056H135.344V354.984Z" fill="#8C8C8C"/>
<path d="M57.824 340.768H59.104V355.248H57.824V340.768ZM55.52 346.496H58.304V347.6H55.52V346.496ZM54.608 341.072H55.872V354.512H54.608V341.072ZM47.312 342.448H52.832V351.36H47.312V342.448ZM51.584 343.504H48.56V350.304H51.584V343.504ZM65.4068 346.752H66.7188V349.344H65.4068V346.752ZM72.0308 340.784H73.3588V349.296H72.0308V340.784ZM61.6308 347.2L61.4708 346.224C62.3988 346.224 63.3908 346.219 64.4468 346.208C65.5134 346.187 66.5961 346.155 67.6948 346.112C68.7934 346.059 69.8601 345.973 70.8948 345.856L70.9748 346.72C69.9188 346.869 68.8414 346.981 67.7428 347.056C66.6548 347.12 65.5881 347.163 64.5428 347.184C63.5081 347.195 62.5374 347.2 61.6308 347.2ZM63.6628 349.824H73.3588V352.832H65.0068V354.464H63.7108V351.936H72.0468V350.768H63.6628V349.824ZM63.7108 354.112H73.8388V355.088H63.7108V354.112ZM69.1508 347.664H72.4628V348.528H69.1508V347.664ZM66.1428 341.056C66.8574 341.056 67.4814 341.141 68.0148 341.312C68.5481 341.483 68.9641 341.733 69.2628 342.064C69.5614 342.395 69.7108 342.784 69.7108 343.232C69.7108 343.669 69.5614 344.053 69.2628 344.384C68.9641 344.704 68.5481 344.955 68.0148 345.136C67.4814 345.307 66.8574 345.392 66.1428 345.392C65.4281 345.392 64.7988 345.307 64.2548 345.136C63.7214 344.955 63.3054 344.704 63.0068 344.384C62.7188 344.053 62.5748 343.669 62.5748 343.232C62.5748 342.784 62.7188 342.395 63.0068 342.064C63.3054 341.733 63.7214 341.483 64.2548 341.312C64.7988 341.141 65.4281 341.056 66.1428 341.056ZM66.1428 341.968C65.4388 341.968 64.8734 342.08 64.4468 342.304C64.0308 342.528 63.8228 342.837 63.8228 343.232C63.8228 343.605 64.0308 343.909 64.4468 344.144C64.8734 344.368 65.4388 344.48 66.1428 344.48C66.8468 344.48 67.4068 344.368 67.8228 344.144C68.2494 343.909 68.4628 343.605 68.4628 343.232C68.4628 342.837 68.2494 342.528 67.8228 342.304C67.4068 342.08 66.8468 341.968 66.1428 341.968Z" fill="black"/>
<path d="M49.516 406.564H50.5V408.508H49.516V406.564ZM54.484 402.088H55.48V408.472H54.484V402.088ZM46.684 406.9L46.564 406.168C47.26 406.168 48.004 406.164 48.796 406.156C49.596 406.14 50.408 406.116 51.232 406.084C52.056 406.044 52.856 405.98 53.632 405.892L53.692 406.54C52.9 406.652 52.092 406.736 51.268 406.792C50.452 406.84 49.652 406.872 48.868 406.888C48.092 406.896 47.364 406.9 46.684 406.9ZM48.208 408.868H55.48V411.124H49.216V412.348H48.244V410.452H54.496V409.576H48.208V408.868ZM48.244 412.084H55.84V412.816H48.244V412.084ZM52.324 407.248H54.808V407.896H52.324V407.248ZM50.068 402.292C50.604 402.292 51.072 402.356 51.472 402.484C51.872 402.612 52.184 402.8 52.408 403.048C52.632 403.296 52.744 403.588 52.744 403.924C52.744 404.252 52.632 404.54 52.408 404.788C52.184 405.028 51.872 405.216 51.472 405.352C51.072 405.48 50.604 405.544 50.068 405.544C49.532 405.544 49.06 405.48 48.652 405.352C48.252 405.216 47.94 405.028 47.716 404.788C47.5 404.54 47.392 404.252 47.392 403.924C47.392 403.588 47.5 403.296 47.716 403.048C47.94 402.8 48.252 402.612 48.652 402.484C49.06 402.356 49.532 402.292 50.068 402.292ZM50.068 402.976C49.54 402.976 49.116 403.06 48.796 403.228C48.484 403.396 48.328 403.628 48.328 403.924C48.328 404.204 48.484 404.432 48.796 404.608C49.116 404.776 49.54 404.86 50.068 404.86C50.596 404.86 51.016 404.776 51.328 404.608C51.648 404.432 51.808 404.204 51.808 403.924C51.808 403.628 51.648 403.396 51.328 403.228C51.016 403.06 50.596 402.976 50.068 402.976ZM65.2068 402.46H66.0828V403.072C66.0828 403.488 66.0028 403.88 65.8428 404.248C65.6828 404.608 65.4628 404.94 65.1828 405.244C64.9108 405.548 64.5908 405.82 64.2228 406.06C63.8548 406.3 63.4548 406.5 63.0228 406.66C62.5988 406.82 62.1628 406.936 61.7148 407.008L61.3068 406.204C61.7068 406.148 62.0948 406.052 62.4708 405.916C62.8548 405.78 63.2108 405.616 63.5388 405.424C63.8668 405.224 64.1548 405 64.4028 404.752C64.6588 404.504 64.8548 404.24 64.9908 403.96C65.1348 403.672 65.2068 403.376 65.2068 403.072V402.46ZM65.3748 402.46H66.2388V403.072C66.2388 403.376 66.3108 403.668 66.4548 403.948C66.5988 404.228 66.7948 404.492 67.0428 404.74C67.2988 404.988 67.5908 405.212 67.9188 405.412C68.2468 405.612 68.5988 405.78 68.9748 405.916C69.3588 406.052 69.7468 406.148 70.1388 406.204L69.7428 407.008C69.2948 406.936 68.8588 406.82 68.4348 406.66C68.0108 406.492 67.6108 406.288 67.2348 406.048C66.8668 405.808 66.5428 405.536 66.2628 405.232C65.9908 404.928 65.7748 404.596 65.6148 404.236C65.4548 403.868 65.3748 403.48 65.3748 403.072V402.46ZM65.2068 408.808H66.1908V412.936H65.2068V408.808ZM60.8148 408.184H70.6188V409.012H60.8148V408.184ZM79.7499 402.076H80.7459V407.908H79.7499V402.076ZM73.7619 408.448H74.7339V409.756H79.7619V408.448H80.7459V412.792H73.7619V408.448ZM74.7339 410.548V411.976H79.7619V410.548H74.7339ZM74.9259 402.592C75.4779 402.592 75.9659 402.7 76.3899 402.916C76.8139 403.124 77.1459 403.416 77.3859 403.792C77.6339 404.168 77.7579 404.604 77.7579 405.1C77.7579 405.588 77.6339 406.024 77.3859 406.408C77.1459 406.784 76.8139 407.076 76.3899 407.284C75.9659 407.492 75.4779 407.596 74.9259 407.596C74.3819 407.596 73.8939 407.492 73.4619 407.284C73.0379 407.076 72.7019 406.784 72.4539 406.408C72.2139 406.024 72.0939 405.588 72.0939 405.1C72.0939 404.604 72.2139 404.168 72.4539 403.792C72.7019 403.416 73.0379 403.124 73.4619 402.916C73.8939 402.7 74.3819 402.592 74.9259 402.592ZM74.9259 403.432C74.5659 403.432 74.2459 403.504 73.9659 403.648C73.6859 403.784 73.4659 403.98 73.3059 404.236C73.1459 404.484 73.0659 404.772 73.0659 405.1C73.0659 405.42 73.1459 405.708 73.3059 405.964C73.4659 406.212 73.6859 406.408 73.9659 406.552C74.2459 406.696 74.5659 406.768 74.9259 406.768C75.2859 406.768 75.6059 406.696 75.8859 406.552C76.1659 406.408 76.3859 406.212 76.5459 405.964C76.7059 405.708 76.7859 405.42 76.7859 405.1C76.7859 404.772 76.7059 404.484 76.5459 404.236C76.3859 403.98 76.1659 403.784 75.8859 403.648C75.6059 403.504 75.2859 403.432 74.9259 403.432Z" fill="#404040"/>
<rect x="46" y="419" width="320" height="40" rx="8" fill="#FBFCFB"/>
<path d="M59.0547 438.602H60.0859C60.5911 438.602 61.0078 438.518 61.3359 438.352C61.6693 438.18 61.9167 437.948 62.0781 437.656C62.2448 437.359 62.3281 437.026 62.3281 436.656C62.3281 436.219 62.2552 435.852 62.1094 435.555C61.9635 435.258 61.7448 435.034 61.4531 434.883C61.1615 434.732 60.7917 434.656 60.3438 434.656C59.9375 434.656 59.5781 434.737 59.2656 434.898C58.9583 435.055 58.7161 435.279 58.5391 435.57C58.3672 435.862 58.2812 436.206 58.2812 436.602H56.8359C56.8359 436.023 56.9818 435.497 57.2734 435.023C57.5651 434.549 57.974 434.172 58.5 433.891C59.0312 433.609 59.6458 433.469 60.3438 433.469C61.0312 433.469 61.6328 433.591 62.1484 433.836C62.6641 434.076 63.0651 434.435 63.3516 434.914C63.638 435.388 63.7812 435.979 63.7812 436.688C63.7812 436.974 63.7135 437.281 63.5781 437.609C63.4479 437.932 63.2422 438.234 62.9609 438.516C62.6849 438.797 62.3255 439.029 61.8828 439.211C61.4401 439.388 60.9089 439.477 60.2891 439.477H59.0547V438.602ZM59.0547 439.789V438.922H60.2891C61.013 438.922 61.612 439.008 62.0859 439.18C62.5599 439.352 62.9323 439.581 63.2031 439.867C63.4792 440.154 63.6719 440.469 63.7812 440.812C63.8958 441.151 63.9531 441.49 63.9531 441.828C63.9531 442.359 63.862 442.831 63.6797 443.242C63.5026 443.654 63.25 444.003 62.9219 444.289C62.599 444.576 62.2188 444.792 61.7812 444.938C61.3438 445.083 60.8672 445.156 60.3516 445.156C59.8568 445.156 59.3906 445.086 58.9531 444.945C58.5208 444.805 58.138 444.602 57.8047 444.336C57.4714 444.065 57.2109 443.734 57.0234 443.344C56.8359 442.948 56.7422 442.497 56.7422 441.992H58.1875C58.1875 442.388 58.2734 442.734 58.4453 443.031C58.6224 443.328 58.8724 443.56 59.1953 443.727C59.5234 443.888 59.9089 443.969 60.3516 443.969C60.7943 443.969 61.1745 443.893 61.4922 443.742C61.8151 443.586 62.0625 443.352 62.2344 443.039C62.4115 442.727 62.5 442.333 62.5 441.859C62.5 441.385 62.401 440.997 62.2031 440.695C62.0052 440.388 61.724 440.161 61.3594 440.016C61 439.865 60.5755 439.789 60.0859 439.789H59.0547ZM67.4141 443.281V444.445C67.4141 444.919 67.2943 445.419 67.0547 445.945C66.8151 446.477 66.4792 446.919 66.0469 447.273L65.2266 446.703C65.3932 446.474 65.5339 446.24 65.6484 446C65.763 445.766 65.849 445.521 65.9062 445.266C65.9688 445.016 66 444.75 66 444.469V443.281H67.4141ZM76.2422 438.406V440.141C76.2422 441.073 76.1589 441.859 75.9922 442.5C75.8255 443.141 75.5859 443.656 75.2734 444.047C74.9609 444.438 74.5833 444.721 74.1406 444.898C73.7031 445.07 73.2083 445.156 72.6562 445.156C72.2188 445.156 71.8151 445.102 71.4453 444.992C71.0755 444.883 70.7422 444.708 70.4453 444.469C70.1536 444.224 69.9036 443.906 69.6953 443.516C69.487 443.125 69.3281 442.651 69.2188 442.094C69.1094 441.536 69.0547 440.885 69.0547 440.141V438.406C69.0547 437.474 69.138 436.693 69.3047 436.062C69.4766 435.432 69.7188 434.927 70.0312 434.547C70.3438 434.161 70.7188 433.885 71.1562 433.719C71.599 433.552 72.0938 433.469 72.6406 433.469C73.0833 433.469 73.4896 433.523 73.8594 433.633C74.2344 433.737 74.5677 433.906 74.8594 434.141C75.151 434.37 75.3984 434.677 75.6016 435.062C75.8099 435.443 75.9688 435.909 76.0781 436.461C76.1875 437.013 76.2422 437.661 76.2422 438.406ZM74.7891 440.375V438.164C74.7891 437.654 74.7578 437.206 74.6953 436.82C74.638 436.43 74.5521 436.096 74.4375 435.82C74.3229 435.544 74.1771 435.32 74 435.148C73.8281 434.977 73.6276 434.852 73.3984 434.773C73.1745 434.69 72.9219 434.648 72.6406 434.648C72.2969 434.648 71.9922 434.714 71.7266 434.844C71.4609 434.969 71.237 435.169 71.0547 435.445C70.8776 435.721 70.7422 436.083 70.6484 436.531C70.5547 436.979 70.5078 437.523 70.5078 438.164V440.375C70.5078 440.885 70.5365 441.336 70.5938 441.727C70.6562 442.117 70.7474 442.456 70.8672 442.742C70.987 443.023 71.1328 443.255 71.3047 443.438C71.4766 443.62 71.6745 443.755 71.8984 443.844C72.1276 443.927 72.3802 443.969 72.6562 443.969C73.0104 443.969 73.3203 443.901 73.5859 443.766C73.8516 443.63 74.0729 443.419 74.25 443.133C74.4323 442.841 74.5677 442.469 74.6562 442.016C74.7448 441.557 74.7891 441.01 74.7891 440.375ZM85.2422 438.406V440.141C85.2422 441.073 85.1589 441.859 84.9922 442.5C84.8255 443.141 84.5859 443.656 84.2734 444.047C83.9609 444.438 83.5833 444.721 83.1406 444.898C82.7031 445.07 82.2083 445.156 81.6562 445.156C81.2188 445.156 80.8151 445.102 80.4453 444.992C80.0755 444.883 79.7422 444.708 79.4453 444.469C79.1536 444.224 78.9036 443.906 78.6953 443.516C78.487 443.125 78.3281 442.651 78.2188 442.094C78.1094 441.536 78.0547 440.885 78.0547 440.141V438.406C78.0547 437.474 78.138 436.693 78.3047 436.062C78.4766 435.432 78.7188 434.927 79.0312 434.547C79.3438 434.161 79.7188 433.885 80.1562 433.719C80.599 433.552 81.0938 433.469 81.6406 433.469C82.0833 433.469 82.4896 433.523 82.8594 433.633C83.2344 433.737 83.5677 433.906 83.8594 434.141C84.151 434.37 84.3984 434.677 84.6016 435.062C84.8099 435.443 84.9688 435.909 85.0781 436.461C85.1875 437.013 85.2422 437.661 85.2422 438.406ZM83.7891 440.375V438.164C83.7891 437.654 83.7578 437.206 83.6953 436.82C83.638 436.43 83.5521 436.096 83.4375 435.82C83.3229 435.544 83.1771 435.32 83 435.148C82.8281 434.977 82.6276 434.852 82.3984 434.773C82.1745 434.69 81.9219 434.648 81.6406 434.648C81.2969 434.648 80.9922 434.714 80.7266 434.844C80.4609 434.969 80.237 435.169 80.0547 435.445C79.8776 435.721 79.7422 436.083 79.6484 436.531C79.5547 436.979 79.5078 437.523 79.5078 438.164V440.375C79.5078 440.885 79.5365 441.336 79.5938 441.727C79.6562 442.117 79.7474 442.456 79.8672 442.742C79.987 443.023 80.1328 443.255 80.3047 443.438C80.4766 443.62 80.6745 443.755 80.8984 443.844C81.1276 443.927 81.3802 443.969 81.6562 443.969C82.0104 443.969 82.3203 443.901 82.5859 443.766C82.8516 443.63 83.0729 443.419 83.25 443.133C83.4323 442.841 83.5677 442.469 83.6562 442.016C83.7448 441.557 83.7891 441.01 83.7891 440.375ZM94.2422 438.406V440.141C94.2422 441.073 94.1589 441.859 93.9922 442.5C93.8255 443.141 93.5859 443.656 93.2734 444.047C92.9609 444.438 92.5833 444.721 92.1406 444.898C91.7031 445.07 91.2083 445.156 90.6562 445.156C90.2188 445.156 89.8151 445.102 89.4453 444.992C89.0755 444.883 88.7422 444.708 88.4453 444.469C88.1536 444.224 87.9036 443.906 87.6953 443.516C87.487 443.125 87.3281 442.651 87.2188 442.094C87.1094 441.536 87.0547 440.885 87.0547 440.141V438.406C87.0547 437.474 87.138 436.693 87.3047 436.062C87.4766 435.432 87.7188 434.927 88.0312 434.547C88.3438 434.161 88.7188 433.885 89.1562 433.719C89.599 433.552 90.0938 433.469 90.6406 433.469C91.0833 433.469 91.4896 433.523 91.8594 433.633C92.2344 433.737 92.5677 433.906 92.8594 434.141C93.151 434.37 93.3984 434.677 93.6016 435.062C93.8099 435.443 93.9688 435.909 94.0781 436.461C94.1875 437.013 94.2422 437.661 94.2422 438.406ZM92.7891 440.375V438.164C92.7891 437.654 92.7578 437.206 92.6953 436.82C92.638 436.43 92.5521 436.096 92.4375 435.82C92.3229 435.544 92.1771 435.32 92 435.148C91.8281 434.977 91.6276 434.852 91.3984 434.773C91.1745 434.69 90.9219 434.648 90.6406 434.648C90.2969 434.648 89.9922 434.714 89.7266 434.844C89.4609 434.969 89.237 435.169 89.0547 435.445C88.8776 435.721 88.7422 436.083 88.6484 436.531C88.5547 436.979 88.5078 437.523 88.5078 438.164V440.375C88.5078 440.885 88.5365 441.336 88.5938 441.727C88.6562 442.117 88.7474 442.456 88.8672 442.742C88.987 443.023 89.1328 443.255 89.3047 443.438C89.4766 443.62 89.6745 443.755 89.8984 443.844C90.1276 443.927 90.3802 443.969 90.6562 443.969C91.0104 443.969 91.3203 443.901 91.5859 443.766C91.8516 443.63 92.0729 443.419 92.25 443.133C92.4323 442.841 92.5677 442.469 92.6562 442.016C92.7448 441.557 92.7891 441.01 92.7891 440.375ZM97.5703 443.281V444.445C97.5703 444.919 97.4505 445.419 97.2109 445.945C96.9714 446.477 96.6354 446.919 96.2031 447.273L95.3828 446.703C95.5495 446.474 95.6901 446.24 95.8047 446C95.9193 445.766 96.0052 445.521 96.0625 445.266C96.125 445.016 96.1562 444.75 96.1562 444.469V443.281H97.5703ZM106.398 438.406V440.141C106.398 441.073 106.315 441.859 106.148 442.5C105.982 443.141 105.742 443.656 105.43 444.047C105.117 444.438 104.74 444.721 104.297 444.898C103.859 445.07 103.365 445.156 102.812 445.156C102.375 445.156 101.971 445.102 101.602 444.992C101.232 444.883 100.898 444.708 100.602 444.469C100.31 444.224 100.06 443.906 99.8516 443.516C99.6432 443.125 99.4844 442.651 99.375 442.094C99.2656 441.536 99.2109 440.885 99.2109 440.141V438.406C99.2109 437.474 99.2943 436.693 99.4609 436.062C99.6328 435.432 99.875 434.927 100.188 434.547C100.5 434.161 100.875 433.885 101.312 433.719C101.755 433.552 102.25 433.469 102.797 433.469C103.24 433.469 103.646 433.523 104.016 433.633C104.391 433.737 104.724 433.906 105.016 434.141C105.307 434.37 105.555 434.677 105.758 435.062C105.966 435.443 106.125 435.909 106.234 436.461C106.344 437.013 106.398 437.661 106.398 438.406ZM104.945 440.375V438.164C104.945 437.654 104.914 437.206 104.852 436.82C104.794 436.43 104.708 436.096 104.594 435.82C104.479 435.544 104.333 435.32 104.156 435.148C103.984 434.977 103.784 434.852 103.555 434.773C103.331 434.69 103.078 434.648 102.797 434.648C102.453 434.648 102.148 434.714 101.883 434.844C101.617 434.969 101.393 435.169 101.211 435.445C101.034 435.721 100.898 436.083 100.805 436.531C100.711 436.979 100.664 437.523 100.664 438.164V440.375C100.664 440.885 100.693 441.336 100.75 441.727C100.812 442.117 100.904 442.456 101.023 442.742C101.143 443.023 101.289 443.255 101.461 443.438C101.633 443.62 101.831 443.755 102.055 443.844C102.284 443.927 102.536 443.969 102.812 443.969C103.167 443.969 103.477 443.901 103.742 443.766C104.008 443.63 104.229 443.419 104.406 443.133C104.589 442.841 104.724 442.469 104.812 442.016C104.901 441.557 104.945 441.01 104.945 440.375ZM115.398 438.406V440.141C115.398 441.073 115.315 441.859 115.148 442.5C114.982 443.141 114.742 443.656 114.43 444.047C114.117 444.438 113.74 444.721 113.297 444.898C112.859 445.07 112.365 445.156 111.812 445.156C111.375 445.156 110.971 445.102 110.602 444.992C110.232 444.883 109.898 444.708 109.602 444.469C109.31 444.224 109.06 443.906 108.852 443.516C108.643 443.125 108.484 442.651 108.375 442.094C108.266 441.536 108.211 440.885 108.211 440.141V438.406C108.211 437.474 108.294 436.693 108.461 436.062C108.633 435.432 108.875 434.927 109.188 434.547C109.5 434.161 109.875 433.885 110.312 433.719C110.755 433.552 111.25 433.469 111.797 433.469C112.24 433.469 112.646 433.523 113.016 433.633C113.391 433.737 113.724 433.906 114.016 434.141C114.307 434.37 114.555 434.677 114.758 435.062C114.966 435.443 115.125 435.909 115.234 436.461C115.344 437.013 115.398 437.661 115.398 438.406ZM113.945 440.375V438.164C113.945 437.654 113.914 437.206 113.852 436.82C113.794 436.43 113.708 436.096 113.594 435.82C113.479 435.544 113.333 435.32 113.156 435.148C112.984 434.977 112.784 434.852 112.555 434.773C112.331 434.69 112.078 434.648 111.797 434.648C111.453 434.648 111.148 434.714 110.883 434.844C110.617 434.969 110.393 435.169 110.211 435.445C110.034 435.721 109.898 436.083 109.805 436.531C109.711 436.979 109.664 437.523 109.664 438.164V440.375C109.664 440.885 109.693 441.336 109.75 441.727C109.812 442.117 109.904 442.456 110.023 442.742C110.143 443.023 110.289 443.255 110.461 443.438C110.633 443.62 110.831 443.755 111.055 443.844C111.284 443.927 111.536 443.969 111.812 443.969C112.167 443.969 112.477 443.901 112.742 443.766C113.008 443.63 113.229 443.419 113.406 443.133C113.589 442.841 113.724 442.469 113.812 442.016C113.901 441.557 113.945 441.01 113.945 440.375ZM124.398 438.406V440.141C124.398 441.073 124.315 441.859 124.148 442.5C123.982 443.141 123.742 443.656 123.43 444.047C123.117 444.438 122.74 444.721 122.297 444.898C121.859 445.07 121.365 445.156 120.812 445.156C120.375 445.156 119.971 445.102 119.602 444.992C119.232 444.883 118.898 444.708 118.602 444.469C118.31 444.224 118.06 443.906 117.852 443.516C117.643 443.125 117.484 442.651 117.375 442.094C117.266 441.536 117.211 440.885 117.211 440.141V438.406C117.211 437.474 117.294 436.693 117.461 436.062C117.633 435.432 117.875 434.927 118.188 434.547C118.5 434.161 118.875 433.885 119.312 433.719C119.755 433.552 120.25 433.469 120.797 433.469C121.24 433.469 121.646 433.523 122.016 433.633C122.391 433.737 122.724 433.906 123.016 434.141C123.307 434.37 123.555 434.677 123.758 435.062C123.966 435.443 124.125 435.909 124.234 436.461C124.344 437.013 124.398 437.661 124.398 438.406ZM122.945 440.375V438.164C122.945 437.654 122.914 437.206 122.852 436.82C122.794 436.43 122.708 436.096 122.594 435.82C122.479 435.544 122.333 435.32 122.156 435.148C121.984 434.977 121.784 434.852 121.555 434.773C121.331 434.69 121.078 434.648 120.797 434.648C120.453 434.648 120.148 434.714 119.883 434.844C119.617 434.969 119.393 435.169 119.211 435.445C119.034 435.721 118.898 436.083 118.805 436.531C118.711 436.979 118.664 437.523 118.664 438.164V440.375C118.664 440.885 118.693 441.336 118.75 441.727C118.812 442.117 118.904 442.456 119.023 442.742C119.143 443.023 119.289 443.255 119.461 443.438C119.633 443.62 119.831 443.755 120.055 443.844C120.284 443.927 120.536 443.969 120.812 443.969C121.167 443.969 121.477 443.901 121.742 443.766C122.008 443.63 122.229 443.419 122.406 443.133C122.589 442.841 122.724 442.469 122.812 442.016C122.901 441.557 122.945 441.01 122.945 440.375Z" fill="#404040"/>
<path d="M54.6729 476.401H55.5752C56.0173 476.401 56.3818 476.328 56.6689 476.183C56.9606 476.032 57.1771 475.829 57.3184 475.574C57.4642 475.314 57.5371 475.023 57.5371 474.699C57.5371 474.316 57.4733 473.995 57.3457 473.735C57.2181 473.476 57.0267 473.28 56.7715 473.147C56.5163 473.015 56.1927 472.949 55.8008 472.949C55.4453 472.949 55.1309 473.02 54.8574 473.161C54.5885 473.298 54.3766 473.494 54.2217 473.749C54.0713 474.004 53.9961 474.305 53.9961 474.651H52.7314C52.7314 474.146 52.859 473.685 53.1143 473.271C53.3695 472.856 53.7272 472.525 54.1875 472.279C54.6523 472.033 55.1901 471.91 55.8008 471.91C56.4023 471.91 56.9287 472.017 57.3799 472.231C57.8311 472.441 58.182 472.756 58.4326 473.175C58.6833 473.59 58.8086 474.107 58.8086 474.727C58.8086 474.977 58.7493 475.246 58.6309 475.533C58.5169 475.816 58.3369 476.08 58.0908 476.326C57.8493 476.572 57.5348 476.775 57.1475 476.935C56.7601 477.09 56.2952 477.167 55.7529 477.167H54.6729V476.401ZM54.6729 477.44V476.682H55.7529C56.3864 476.682 56.9105 476.757 57.3252 476.907C57.7399 477.058 58.0658 477.258 58.3027 477.509C58.5443 477.759 58.7129 478.035 58.8086 478.336C58.9089 478.632 58.959 478.928 58.959 479.225C58.959 479.689 58.8792 480.102 58.7197 480.462C58.5648 480.822 58.3438 481.127 58.0566 481.378C57.7741 481.629 57.4414 481.818 57.0586 481.945C56.6758 482.073 56.2588 482.137 55.8076 482.137C55.3747 482.137 54.9668 482.075 54.584 481.952C54.2057 481.829 53.8708 481.651 53.5791 481.419C53.2874 481.182 53.0596 480.893 52.8955 480.551C52.7314 480.204 52.6494 479.81 52.6494 479.368H53.9141C53.9141 479.715 53.9893 480.018 54.1396 480.277C54.2946 480.537 54.5133 480.74 54.7959 480.886C55.083 481.027 55.4202 481.098 55.8076 481.098C56.195 481.098 56.5277 481.032 56.8057 480.899C57.0882 480.763 57.3047 480.558 57.4551 480.284C57.61 480.011 57.6875 479.667 57.6875 479.252C57.6875 478.837 57.6009 478.498 57.4277 478.233C57.2546 477.965 57.0085 477.766 56.6895 477.639C56.375 477.507 56.0036 477.44 55.5752 477.44H54.6729ZM66.9502 476.23V477.748C66.9502 478.564 66.8773 479.252 66.7314 479.812C66.5856 480.373 66.376 480.824 66.1025 481.166C65.8291 481.508 65.4987 481.756 65.1113 481.911C64.7285 482.062 64.2956 482.137 63.8125 482.137C63.4297 482.137 63.0765 482.089 62.7529 481.993C62.4294 481.897 62.1377 481.745 61.8779 481.535C61.6227 481.321 61.404 481.043 61.2217 480.701C61.0394 480.359 60.9004 479.945 60.8047 479.457C60.709 478.969 60.6611 478.4 60.6611 477.748V476.23C60.6611 475.415 60.734 474.731 60.8799 474.18C61.0303 473.628 61.2422 473.186 61.5156 472.854C61.7891 472.516 62.1172 472.275 62.5 472.129C62.8874 471.983 63.3203 471.91 63.7988 471.91C64.1862 471.91 64.5417 471.958 64.8652 472.054C65.1934 472.145 65.485 472.293 65.7402 472.498C65.9954 472.699 66.2119 472.967 66.3896 473.305C66.5719 473.637 66.7109 474.045 66.8066 474.528C66.9023 475.011 66.9502 475.579 66.9502 476.23ZM65.6787 477.953V476.019C65.6787 475.572 65.6514 475.18 65.5967 474.843C65.5465 474.501 65.4714 474.209 65.3711 473.968C65.2708 473.726 65.1432 473.53 64.9883 473.38C64.8379 473.229 64.6624 473.12 64.4619 473.052C64.266 472.979 64.0449 472.942 63.7988 472.942C63.498 472.942 63.2314 472.999 62.999 473.113C62.7666 473.223 62.5706 473.398 62.4111 473.64C62.2562 473.881 62.1377 474.198 62.0557 474.59C61.9736 474.982 61.9326 475.458 61.9326 476.019V477.953C61.9326 478.4 61.9577 478.794 62.0078 479.136C62.0625 479.478 62.1423 479.774 62.2471 480.024C62.3519 480.271 62.4795 480.473 62.6299 480.633C62.7803 480.792 62.9535 480.911 63.1494 480.988C63.3499 481.061 63.571 481.098 63.8125 481.098C64.1224 481.098 64.3936 481.038 64.626 480.92C64.8584 480.801 65.0521 480.617 65.207 480.366C65.3665 480.111 65.485 479.785 65.5625 479.389C65.64 478.988 65.6787 478.509 65.6787 477.953ZM74.8252 476.23V477.748C74.8252 478.564 74.7523 479.252 74.6064 479.812C74.4606 480.373 74.251 480.824 73.9775 481.166C73.7041 481.508 73.3737 481.756 72.9863 481.911C72.6035 482.062 72.1706 482.137 71.6875 482.137C71.3047 482.137 70.9515 482.089 70.6279 481.993C70.3044 481.897 70.0127 481.745 69.7529 481.535C69.4977 481.321 69.279 481.043 69.0967 480.701C68.9144 480.359 68.7754 479.945 68.6797 479.457C68.584 478.969 68.5361 478.4 68.5361 477.748V476.23C68.5361 475.415 68.609 474.731 68.7549 474.18C68.9053 473.628 69.1172 473.186 69.3906 472.854C69.6641 472.516 69.9922 472.275 70.375 472.129C70.7624 471.983 71.1953 471.91 71.6738 471.91C72.0612 471.91 72.4167 471.958 72.7402 472.054C73.0684 472.145 73.36 472.293 73.6152 472.498C73.8704 472.699 74.0869 472.967 74.2646 473.305C74.4469 473.637 74.5859 474.045 74.6816 474.528C74.7773 475.011 74.8252 475.579 74.8252 476.23ZM73.5537 477.953V476.019C73.5537 475.572 73.5264 475.18 73.4717 474.843C73.4215 474.501 73.3464 474.209 73.2461 473.968C73.1458 473.726 73.0182 473.53 72.8633 473.38C72.7129 473.229 72.5374 473.12 72.3369 473.052C72.141 472.979 71.9199 472.942 71.6738 472.942C71.373 472.942 71.1064 472.999 70.874 473.113C70.6416 473.223 70.4456 473.398 70.2861 473.64C70.1312 473.881 70.0127 474.198 69.9307 474.59C69.8486 474.982 69.8076 475.458 69.8076 476.019V477.953C69.8076 478.4 69.8327 478.794 69.8828 479.136C69.9375 479.478 70.0173 479.774 70.1221 480.024C70.2269 480.271 70.3545 480.473 70.5049 480.633C70.6553 480.792 70.8285 480.911 71.0244 480.988C71.2249 481.061 71.446 481.098 71.6875 481.098C71.9974 481.098 72.2686 481.038 72.501 480.92C72.7334 480.801 72.9271 480.617 73.082 480.366C73.2415 480.111 73.36 479.785 73.4375 479.389C73.515 478.988 73.5537 478.509 73.5537 477.953ZM80.3157 471.57H86.1397V477.422H80.3157V471.57ZM85.0057 472.508H81.4497V476.484H85.0057V472.508ZM88.4637 470.422H89.6257V479.704H88.4637V470.422ZM89.2617 474.272H91.4877V475.238H89.2617V474.272ZM81.7437 481.86H90.1857V482.812H81.7437V481.86ZM81.7437 478.822H82.8917V482.266H81.7437V478.822ZM96.2606 476.806H97.4226V479.62H96.2606V476.806ZM101.875 470.436H103.037V480.054H101.875V470.436ZM94.3986 481.86H103.345V482.812H94.3986V481.86ZM94.3986 479.116H95.5606V482.112H94.3986V479.116ZM92.7606 477.24L92.6066 476.274C93.3906 476.274 94.2399 476.269 95.1546 476.26C96.0786 476.241 97.0212 476.209 97.9826 476.162C98.9439 476.106 99.8726 476.022 100.769 475.91L100.853 476.75C99.9472 476.899 99.0139 477.011 98.0526 477.086C97.1006 477.151 96.1719 477.193 95.2666 477.212C94.3612 477.231 93.5259 477.24 92.7606 477.24ZM99.2986 477.912H102.183V478.752H99.2986V477.912ZM96.7226 470.94C97.3479 470.94 97.8939 471.033 98.3606 471.22C98.8272 471.397 99.1866 471.654 99.4386 471.99C99.6999 472.317 99.8306 472.704 99.8306 473.152C99.8306 473.591 99.6999 473.978 99.4386 474.314C99.1866 474.65 98.8272 474.907 98.3606 475.084C97.8939 475.261 97.3479 475.35 96.7226 475.35C96.1066 475.35 95.5606 475.261 95.0846 475.084C94.6179 474.907 94.2539 474.65 93.9926 474.314C93.7406 473.978 93.6146 473.591 93.6146 473.152C93.6146 472.704 93.7406 472.317 93.9926 471.99C94.2539 471.654 94.6179 471.397 95.0846 471.22C95.5606 471.033 96.1066 470.94 96.7226 470.94ZM96.7226 471.808C96.1252 471.808 95.6399 471.929 95.2666 472.172C94.8932 472.415 94.7066 472.741 94.7066 473.152C94.7066 473.553 94.8932 473.875 95.2666 474.118C95.6399 474.361 96.1252 474.482 96.7226 474.482C97.3106 474.482 97.7912 474.361 98.1646 474.118C98.5379 473.875 98.7246 473.553 98.7246 473.152C98.7246 472.872 98.6406 472.634 98.4726 472.438C98.3046 472.242 98.0712 472.088 97.7726 471.976C97.4739 471.864 97.1239 471.808 96.7226 471.808Z" fill="#2383BD"/>
<rect x="43" y="772" width="330" height="50" rx="8" fill="#2383BD"/>
<path d="M202.842 786.96H204.502V805.08H202.842V786.96ZM204.122 794.1H207.462V795.48H204.122V794.1ZM191.382 799.16H192.802C193.908 799.16 194.922 799.147 195.842 799.12C196.775 799.08 197.668 799.013 198.522 798.92C199.388 798.827 200.268 798.7 201.162 798.54L201.362 799.96C200.428 800.12 199.522 800.247 198.642 800.34C197.775 800.433 196.868 800.493 195.922 800.52C194.975 800.547 193.935 800.56 192.802 800.56H191.382V799.16ZM191.382 788.72H199.762V790.08H193.022V799.8H191.382V788.72ZM217.16 787.36C218.467 787.36 219.593 787.5 220.54 787.78C221.5 788.047 222.233 788.433 222.74 788.94C223.26 789.447 223.52 790.067 223.52 790.8C223.52 791.507 223.26 792.12 222.74 792.64C222.233 793.147 221.5 793.533 220.54 793.8C219.593 794.067 218.467 794.2 217.16 794.2C215.867 794.2 214.74 794.067 213.78 793.8C212.833 793.533 212.1 793.147 211.58 792.64C211.06 792.12 210.8 791.507 210.8 790.8C210.8 790.067 211.06 789.447 211.58 788.94C212.1 788.433 212.833 788.047 213.78 787.78C214.74 787.5 215.867 787.36 217.16 787.36ZM217.16 788.68C216.213 788.68 215.387 788.767 214.68 788.94C213.987 789.1 213.447 789.34 213.06 789.66C212.687 789.967 212.5 790.347 212.5 790.8C212.5 791.227 212.687 791.6 213.06 791.92C213.447 792.227 213.987 792.467 214.68 792.64C215.387 792.8 216.213 792.88 217.16 792.88C218.12 792.88 218.947 792.8 219.64 792.64C220.347 792.467 220.887 792.227 221.26 791.92C221.633 791.6 221.82 791.227 221.82 790.8C221.82 790.347 221.633 789.967 221.26 789.66C220.887 789.34 220.347 789.1 219.64 788.94C218.947 788.767 218.12 788.68 217.16 788.68ZM211 798.86H223.34V804.82H211V798.86ZM221.72 800.2H212.62V803.46H221.72V800.2ZM209 795.74H225.34V797.1H209V795.74Z" fill="white"/>
</svg>
