<svg width="412" height="917" viewBox="0 0 412 917" fill="none" xmlns="http://www.w3.org/2000/svg">
<rect width="412" height="917" fill="white"/>
<path d="M56.484 600.076H57.48V610.948H56.484V600.076ZM51.756 600.916C52.292 600.916 52.764 601.072 53.172 601.384C53.588 601.688 53.912 602.124 54.144 602.692C54.384 603.26 54.504 603.928 54.504 604.696C54.504 605.464 54.384 606.132 54.144 606.7C53.912 607.268 53.588 607.708 53.172 608.02C52.764 608.332 52.292 608.488 51.756 608.488C51.22 608.488 50.744 608.332 50.328 608.02C49.912 607.708 49.584 607.268 49.344 606.7C49.112 606.132 48.996 605.464 48.996 604.696C48.996 603.928 49.112 603.26 49.344 602.692C49.584 602.124 49.912 601.688 50.328 601.384C50.744 601.072 51.22 600.916 51.756 600.916ZM51.756 601.804C51.396 601.804 51.08 601.924 50.808 602.164C50.544 602.396 50.336 602.732 50.184 603.172C50.032 603.604 49.956 604.112 49.956 604.696C49.956 605.28 50.032 605.792 50.184 606.232C50.336 606.664 50.544 607 50.808 607.24C51.08 607.48 51.396 607.6 51.756 607.6C52.108 607.6 52.416 607.48 52.68 607.24C52.952 607 53.164 606.664 53.316 606.232C53.468 605.792 53.544 605.28 53.544 604.696C53.544 604.112 53.468 603.604 53.316 603.172C53.164 602.732 52.952 602.396 52.68 602.164C52.416 601.924 52.108 601.804 51.756 601.804ZM59.6271 605.68H69.4671V606.484H59.6271V605.68ZM60.8751 600.34H68.2071V602.92H61.8831V604.348H60.8991V602.176H67.2231V601.132H60.8751V600.34ZM60.8991 603.976H68.4351V604.756H60.8991V603.976ZM60.9591 607.468H68.2191V610.792H60.9591V607.468ZM67.2351 608.272H61.9311V609.976H67.2351V608.272Z" fill="#404040"/>
<rect x="48" y="617" width="320" height="40" rx="8" fill="#FBFCFB"/>
<path d="M70.976 630.212H72.368C72.368 631.428 72.0853 632.527 71.52 633.508C70.9653 634.489 70.176 635.321 69.152 636.004C68.128 636.687 66.9067 637.22 65.488 637.604L64.96 636.548C66.2187 636.217 67.296 635.775 68.192 635.22C69.088 634.655 69.776 633.999 70.256 633.252C70.736 632.495 70.976 631.673 70.976 630.788V630.212ZM65.728 630.212H71.744V631.268H65.728V630.212ZM75.328 629.284H76.656V637.444H75.328V629.284ZM67.312 638.148H76.656V643.54H67.312V638.148ZM75.36 639.204H68.608V642.468H75.36V639.204ZM89.5508 629.252H90.8788V643.748H89.5508V629.252ZM90.2868 634.948H92.9588V636.068H90.2868V634.948ZM79.9348 638.852H80.5748C80.9908 638.852 81.4654 638.836 81.9988 638.804C82.5428 638.772 83.1241 638.687 83.7428 638.548L83.8708 639.652C83.2094 639.791 82.6068 639.876 82.0628 639.908C81.5188 639.94 81.0228 639.956 80.5748 639.956H79.9348V638.852ZM79.9348 630.788H83.5988V631.876H81.2628V639.38H79.9348V630.788ZM84.4148 638.852H85.1028C85.5828 638.852 86.0201 638.847 86.4148 638.836C86.8094 638.815 87.1881 638.783 87.5508 638.74C87.9241 638.687 88.3028 638.612 88.6868 638.516L88.8148 639.62C88.4094 639.716 88.0201 639.791 87.6468 639.844C87.2734 639.887 86.8788 639.919 86.4628 639.94C86.0574 639.951 85.6041 639.956 85.1028 639.956H84.4148V638.852ZM84.4148 630.788H88.2388V631.876H85.7108V639.396H84.4148V630.788ZM94.2375 636.516H107.31V637.604H94.2375V636.516ZM100.11 634.516H101.438V636.868H100.11V634.516ZM100.75 638.66C102.307 638.66 103.523 638.879 104.398 639.316C105.272 639.753 105.71 640.377 105.71 641.188C105.71 641.999 105.272 642.623 104.398 643.06C103.523 643.497 102.307 643.716 100.75 643.716C99.2135 643.716 98.0082 643.497 97.1335 643.06C96.2588 642.623 95.8215 641.999 95.8215 641.188C95.8215 640.377 96.2588 639.753 97.1335 639.316C98.0082 638.879 99.2135 638.66 100.75 638.66ZM100.766 639.7C100.008 639.7 99.3575 639.759 98.8135 639.876C98.2802 639.993 97.8695 640.164 97.5815 640.388C97.2935 640.601 97.1495 640.868 97.1495 641.188C97.1495 641.508 97.2935 641.78 97.5815 642.004C97.8695 642.228 98.2802 642.399 98.8135 642.516C99.3575 642.633 100.008 642.692 100.766 642.692C101.523 642.692 102.168 642.633 102.702 642.516C103.235 642.399 103.646 642.228 103.934 642.004C104.222 641.78 104.366 641.508 104.366 641.188C104.366 640.868 104.222 640.601 103.934 640.388C103.646 640.164 103.235 639.993 102.702 639.876C102.168 639.759 101.523 639.7 100.766 639.7ZM95.9655 629.652H97.2775V631.252H104.286V629.652H105.598V634.98H95.9655V629.652ZM97.2775 632.292V633.924H104.286V632.292H97.2775Z" fill="black"/>
<path d="M52.944 528.156H53.808V528.612C53.808 528.996 53.732 529.36 53.58 529.704C53.428 530.048 53.216 530.368 52.944 530.664C52.672 530.952 52.356 531.208 51.996 531.432C51.636 531.656 51.248 531.848 50.832 532.008C50.424 532.16 50 532.272 49.56 532.344L49.176 531.552C49.56 531.504 49.932 531.416 50.292 531.288C50.66 531.152 51.004 530.992 51.324 530.808C51.644 530.624 51.924 530.416 52.164 530.184C52.412 529.952 52.604 529.704 52.74 529.44C52.876 529.168 52.944 528.892 52.944 528.612V528.156ZM53.196 528.156H54.06V528.612C54.06 528.892 54.128 529.168 54.264 529.44C54.4 529.704 54.588 529.952 54.828 530.184C55.076 530.416 55.36 530.624 55.68 530.808C56 530.992 56.34 531.152 56.7 531.288C57.068 531.416 57.444 531.504 57.828 531.552L57.456 532.344C57.016 532.272 56.588 532.16 56.172 532.008C55.756 531.848 55.368 531.656 55.008 531.432C54.648 531.208 54.332 530.952 54.06 530.664C53.788 530.368 53.576 530.048 53.424 529.704C53.272 529.36 53.196 528.996 53.196 528.612V528.156ZM52.992 533.796H53.976V537.924H52.992V533.796ZM48.6 533.256H58.404V534.072H48.6V533.256ZM49.524 527.748H57.468V528.552H49.524V527.748ZM60.2031 528.024H65.2671V533.076H60.2031V528.024ZM64.2951 528.828H61.1751V532.272H64.2951V528.828ZM67.5351 527.088H68.5311V534.888H67.5351V527.088ZM61.5591 536.76H68.8671V537.576H61.5591V536.76ZM61.5591 534.144H62.5551V537.096H61.5591V534.144ZM70.6781 532.236H80.4941V533.064H70.6781V532.236ZM71.9141 530.4H79.3421V531.216H71.9141V530.4ZM71.9141 527.508H79.2701V528.324H72.8981V530.784H71.9141V527.508ZM75.5741 534C76.7341 534 77.6421 534.172 78.2981 534.516C78.9541 534.86 79.2821 535.34 79.2821 535.956C79.2821 536.58 78.9541 537.06 78.2981 537.396C77.6421 537.74 76.7341 537.912 75.5741 537.912C74.4141 537.912 73.5021 537.74 72.8381 537.396C72.1821 537.06 71.8541 536.58 71.8541 535.956C71.8541 535.34 72.1821 534.86 72.8381 534.516C73.5021 534.172 74.4141 534 75.5741 534ZM75.5621 534.78C75.0021 534.78 74.5181 534.828 74.1101 534.924C73.7101 535.012 73.4021 535.144 73.1861 535.32C72.9701 535.496 72.8621 535.708 72.8621 535.956C72.8621 536.212 72.9701 536.428 73.1861 536.604C73.4021 536.772 73.7101 536.904 74.1101 537C74.5181 537.088 75.0021 537.132 75.5621 537.132C76.1381 537.132 76.6261 537.088 77.0261 537C77.4341 536.904 77.7461 536.772 77.9621 536.604C78.1781 536.428 78.2861 536.212 78.2861 535.956C78.2861 535.708 78.1781 535.496 77.9621 535.32C77.7461 535.144 77.4341 535.012 77.0261 534.924C76.6261 534.828 76.1381 534.78 75.5621 534.78ZM81.7052 533.052H91.5452V533.868H81.7052V533.052ZM82.9532 527.352H90.2852V529.992H83.9612V531.444H82.9772V529.248H89.3012V528.144H82.9532V527.352ZM82.9772 531.12H90.5132V531.912H82.9772V531.12ZM86.1332 531.528H87.1172V533.448H86.1332V531.528ZM82.8092 534.696H90.3452V537.828H89.3492V535.5H82.8092V534.696ZM97.8803 530.136H100.988V530.952H97.8803V530.136ZM100.688 527.088H101.684V535.116H100.688V527.088ZM94.7123 536.88H101.936V537.696H94.7123V536.88ZM94.7123 534.336H95.7083V537.288H94.7123V534.336ZM93.2843 527.808H94.2803V529.716H97.2083V527.808H98.1923V533.268H93.2843V527.808ZM94.2803 530.496V532.464H97.2083V530.496H94.2803ZM104.275 528.672H113.095V529.488H104.275V528.672ZM103.795 535.848H113.635V536.664H103.795V535.848ZM108.199 534.12H109.183V536.16H108.199V534.12ZM108.691 530.208C109.419 530.208 110.047 530.292 110.575 530.46C111.111 530.62 111.523 530.852 111.811 531.156C112.099 531.46 112.243 531.832 112.243 532.272C112.243 532.704 112.099 533.076 111.811 533.388C111.523 533.7 111.111 533.94 110.575 534.108C110.047 534.268 109.419 534.348 108.691 534.348C107.963 534.348 107.331 534.268 106.795 534.108C106.267 533.94 105.859 533.7 105.571 533.388C105.283 533.076 105.139 532.704 105.139 532.272C105.139 531.832 105.283 531.46 105.571 531.156C105.859 530.852 106.267 530.62 106.795 530.46C107.331 530.292 107.963 530.208 108.691 530.208ZM108.691 531C108.163 531 107.707 531.052 107.323 531.156C106.947 531.252 106.655 531.396 106.447 531.588C106.247 531.772 106.147 532 106.147 532.272C106.147 532.536 106.247 532.764 106.447 532.956C106.655 533.148 106.947 533.296 107.323 533.4C107.707 533.496 108.163 533.544 108.691 533.544C109.219 533.544 109.671 533.496 110.047 533.4C110.423 533.296 110.715 533.148 110.923 532.956C111.131 532.764 111.235 532.536 111.235 532.272C111.235 532 111.131 531.772 110.923 531.588C110.715 531.396 110.423 531.252 110.047 531.156C109.671 531.052 109.219 531 108.691 531ZM108.199 527.256H109.183V529.164H108.199V527.256Z" fill="#404040"/>
<rect x="49" y="544" width="145" height="40" rx="8" fill="#FBFCFB"/>
<path d="M73.0859 562.906V564.641C73.0859 565.573 73.0026 566.359 72.8359 567C72.6693 567.641 72.4297 568.156 72.1172 568.547C71.8047 568.938 71.4271 569.221 70.9844 569.398C70.5469 569.57 70.0521 569.656 69.5 569.656C69.0625 569.656 68.6589 569.602 68.2891 569.492C67.9193 569.383 67.5859 569.208 67.2891 568.969C66.9974 568.724 66.7474 568.406 66.5391 568.016C66.3307 567.625 66.1719 567.151 66.0625 566.594C65.9531 566.036 65.8984 565.385 65.8984 564.641V562.906C65.8984 561.974 65.9818 561.193 66.1484 560.562C66.3203 559.932 66.5625 559.427 66.875 559.047C67.1875 558.661 67.5625 558.385 68 558.219C68.4427 558.052 68.9375 557.969 69.4844 557.969C69.9271 557.969 70.3333 558.023 70.7031 558.133C71.0781 558.237 71.4115 558.406 71.7031 558.641C71.9948 558.87 72.2422 559.177 72.4453 559.562C72.6536 559.943 72.8125 560.409 72.9219 560.961C73.0312 561.513 73.0859 562.161 73.0859 562.906ZM71.6328 564.875V562.664C71.6328 562.154 71.6016 561.706 71.5391 561.32C71.4818 560.93 71.3958 560.596 71.2812 560.32C71.1667 560.044 71.0208 559.82 70.8438 559.648C70.6719 559.477 70.4714 559.352 70.2422 559.273C70.0182 559.19 69.7656 559.148 69.4844 559.148C69.1406 559.148 68.8359 559.214 68.5703 559.344C68.3047 559.469 68.0807 559.669 67.8984 559.945C67.7214 560.221 67.5859 560.583 67.4922 561.031C67.3984 561.479 67.3516 562.023 67.3516 562.664V564.875C67.3516 565.385 67.3802 565.836 67.4375 566.227C67.5 566.617 67.5911 566.956 67.7109 567.242C67.8307 567.523 67.9766 567.755 68.1484 567.938C68.3203 568.12 68.5182 568.255 68.7422 568.344C68.9714 568.427 69.224 568.469 69.5 568.469C69.8542 568.469 70.1641 568.401 70.4297 568.266C70.6953 568.13 70.9167 567.919 71.0938 567.633C71.276 567.341 71.4115 566.969 71.5 566.516C71.5885 566.057 71.6328 565.51 71.6328 564.875ZM79.6953 558.062V569.5H78.25V559.867L75.3359 560.93V559.625L79.4688 558.062H79.6953ZM88.6953 558.062V569.5H87.25V559.867L84.3359 560.93V559.625L88.4688 558.062H88.6953ZM100.086 562.906V564.641C100.086 565.573 100.003 566.359 99.8359 567C99.6693 567.641 99.4297 568.156 99.1172 568.547C98.8047 568.938 98.4271 569.221 97.9844 569.398C97.5469 569.57 97.0521 569.656 96.5 569.656C96.0625 569.656 95.6589 569.602 95.2891 569.492C94.9193 569.383 94.5859 569.208 94.2891 568.969C93.9974 568.724 93.7474 568.406 93.5391 568.016C93.3307 567.625 93.1719 567.151 93.0625 566.594C92.9531 566.036 92.8984 565.385 92.8984 564.641V562.906C92.8984 561.974 92.9818 561.193 93.1484 560.562C93.3203 559.932 93.5625 559.427 93.875 559.047C94.1875 558.661 94.5625 558.385 95 558.219C95.4427 558.052 95.9375 557.969 96.4844 557.969C96.9271 557.969 97.3333 558.023 97.7031 558.133C98.0781 558.237 98.4115 558.406 98.7031 558.641C98.9948 558.87 99.2422 559.177 99.4453 559.562C99.6536 559.943 99.8125 560.409 99.9219 560.961C100.031 561.513 100.086 562.161 100.086 562.906ZM98.6328 564.875V562.664C98.6328 562.154 98.6016 561.706 98.5391 561.32C98.4818 560.93 98.3958 560.596 98.2812 560.32C98.1667 560.044 98.0208 559.82 97.8438 559.648C97.6719 559.477 97.4714 559.352 97.2422 559.273C97.0182 559.19 96.7656 559.148 96.4844 559.148C96.1406 559.148 95.8359 559.214 95.5703 559.344C95.3047 559.469 95.0807 559.669 94.8984 559.945C94.7214 560.221 94.5859 560.583 94.4922 561.031C94.3984 561.479 94.3516 562.023 94.3516 562.664V564.875C94.3516 565.385 94.3802 565.836 94.4375 566.227C94.5 566.617 94.5911 566.956 94.7109 567.242C94.8307 567.523 94.9766 567.755 95.1484 567.938C95.3203 568.12 95.5182 568.255 95.7422 568.344C95.9714 568.427 96.224 568.469 96.5 568.469C96.8542 568.469 97.1641 568.401 97.4297 568.266C97.6953 568.13 97.9167 567.919 98.0938 567.633C98.276 567.341 98.4115 566.969 98.5 566.516C98.5885 566.057 98.6328 565.51 98.6328 564.875ZM109.086 562.906V564.641C109.086 565.573 109.003 566.359 108.836 567C108.669 567.641 108.43 568.156 108.117 568.547C107.805 568.938 107.427 569.221 106.984 569.398C106.547 569.57 106.052 569.656 105.5 569.656C105.062 569.656 104.659 569.602 104.289 569.492C103.919 569.383 103.586 569.208 103.289 568.969C102.997 568.724 102.747 568.406 102.539 568.016C102.331 567.625 102.172 567.151 102.062 566.594C101.953 566.036 101.898 565.385 101.898 564.641V562.906C101.898 561.974 101.982 561.193 102.148 560.562C102.32 559.932 102.562 559.427 102.875 559.047C103.188 558.661 103.562 558.385 104 558.219C104.443 558.052 104.938 557.969 105.484 557.969C105.927 557.969 106.333 558.023 106.703 558.133C107.078 558.237 107.411 558.406 107.703 558.641C107.995 558.87 108.242 559.177 108.445 559.562C108.654 559.943 108.812 560.409 108.922 560.961C109.031 561.513 109.086 562.161 109.086 562.906ZM107.633 564.875V562.664C107.633 562.154 107.602 561.706 107.539 561.32C107.482 560.93 107.396 560.596 107.281 560.32C107.167 560.044 107.021 559.82 106.844 559.648C106.672 559.477 106.471 559.352 106.242 559.273C106.018 559.19 105.766 559.148 105.484 559.148C105.141 559.148 104.836 559.214 104.57 559.344C104.305 559.469 104.081 559.669 103.898 559.945C103.721 560.221 103.586 560.583 103.492 561.031C103.398 561.479 103.352 562.023 103.352 562.664V564.875C103.352 565.385 103.38 565.836 103.438 566.227C103.5 566.617 103.591 566.956 103.711 567.242C103.831 567.523 103.977 567.755 104.148 567.938C104.32 568.12 104.518 568.255 104.742 568.344C104.971 568.427 105.224 568.469 105.5 568.469C105.854 568.469 106.164 568.401 106.43 568.266C106.695 568.13 106.917 567.919 107.094 567.633C107.276 567.341 107.411 566.969 107.5 566.516C107.589 566.057 107.633 565.51 107.633 564.875ZM112.383 568.289H112.531C113.365 568.289 114.042 568.172 114.562 567.938C115.083 567.703 115.484 567.388 115.766 566.992C116.047 566.596 116.24 566.151 116.344 565.656C116.448 565.156 116.5 564.643 116.5 564.117V562.375C116.5 561.859 116.44 561.401 116.32 561C116.206 560.599 116.044 560.263 115.836 559.992C115.633 559.721 115.401 559.516 115.141 559.375C114.88 559.234 114.604 559.164 114.312 559.164C113.979 559.164 113.68 559.232 113.414 559.367C113.154 559.497 112.932 559.682 112.75 559.922C112.573 560.161 112.438 560.443 112.344 560.766C112.25 561.089 112.203 561.44 112.203 561.82C112.203 562.159 112.245 562.487 112.328 562.805C112.411 563.122 112.539 563.409 112.711 563.664C112.883 563.919 113.096 564.122 113.352 564.273C113.612 564.419 113.917 564.492 114.266 564.492C114.589 564.492 114.891 564.43 115.172 564.305C115.458 564.174 115.711 564 115.93 563.781C116.154 563.557 116.331 563.305 116.461 563.023C116.596 562.742 116.674 562.448 116.695 562.141H117.383C117.383 562.573 117.297 563 117.125 563.422C116.958 563.839 116.724 564.219 116.422 564.562C116.12 564.906 115.766 565.182 115.359 565.391C114.953 565.594 114.51 565.695 114.031 565.695C113.469 565.695 112.982 565.586 112.57 565.367C112.159 565.148 111.82 564.857 111.555 564.492C111.294 564.128 111.099 563.721 110.969 563.273C110.844 562.82 110.781 562.362 110.781 561.898C110.781 561.357 110.857 560.849 111.008 560.375C111.159 559.901 111.383 559.484 111.68 559.125C111.977 558.76 112.344 558.477 112.781 558.273C113.224 558.07 113.734 557.969 114.312 557.969C114.964 557.969 115.518 558.099 115.977 558.359C116.435 558.62 116.807 558.969 117.094 559.406C117.385 559.844 117.599 560.336 117.734 560.883C117.87 561.43 117.938 561.992 117.938 562.57V563.094C117.938 563.682 117.898 564.281 117.82 564.891C117.747 565.495 117.604 566.073 117.391 566.625C117.182 567.177 116.878 567.672 116.477 568.109C116.076 568.542 115.552 568.885 114.906 569.141C114.266 569.391 113.474 569.516 112.531 569.516H112.383V568.289Z" fill="black"/>
<rect x="223" y="544" width="146" height="40" rx="8" fill="#FBFCFB"/>
<path d="M247.633 565.672V566.859H239.414V566.008L244.508 558.125H245.688L244.422 560.406L241.055 565.672H247.633ZM246.047 558.125V569.5H244.602V558.125H246.047Z" fill="black"/>
<circle cx="261" cy="564" r="5" fill="#424242"/>
<circle cx="331" cy="564" r="5" fill="#424242"/>
<circle cx="317" cy="564" r="5" fill="#424242"/>
<circle cx="303" cy="564" r="5" fill="#424242"/>
<circle cx="289" cy="564" r="5" fill="#424242"/>
<circle cx="275" cy="564" r="5" fill="#424242"/>
<path d="M209.109 565.57V566.758H205.297V565.57H209.109Z" fill="black"/>
<path d="M51.144 343.528H52.14V346.948H51.144V343.528ZM54.876 343.528H55.872V346.948H54.876V343.528ZM49.116 337.276H57.84V338.08H49.116V337.276ZM48.6 343.024H58.44V343.84H48.6V343.024ZM53.496 338.704C54.6 338.704 55.464 338.86 56.088 339.172C56.712 339.476 57.024 339.916 57.024 340.492C57.024 341.06 56.712 341.504 56.088 341.824C55.464 342.136 54.6 342.292 53.496 342.292C52.392 342.292 51.528 342.136 50.904 341.824C50.28 341.504 49.968 341.06 49.968 340.492C49.968 339.916 50.28 339.476 50.904 339.172C51.528 338.86 52.392 338.704 53.496 338.704ZM53.496 339.46C52.704 339.46 52.088 339.548 51.648 339.724C51.216 339.9 51 340.156 51 340.492C51 340.82 51.216 341.076 51.648 341.26C52.088 341.436 52.704 341.524 53.496 341.524C54.288 341.524 54.9 341.436 55.332 341.26C55.772 341.076 55.992 340.82 55.992 340.492C55.992 340.156 55.772 339.9 55.332 339.724C54.9 339.548 54.288 339.46 53.496 339.46ZM53.004 336.016H53.988V337.852H53.004V336.016ZM67.8951 336.076H68.8431V346.936H67.8951V336.076ZM66.0591 340.432H68.1471V341.248H66.0591V340.432ZM65.4351 336.316H66.3591V346.372H65.4351V336.316ZM60.0231 343.42H60.7311C61.2671 343.42 61.7511 343.416 62.1831 343.408C62.6231 343.392 63.0391 343.36 63.4311 343.312C63.8311 343.264 64.2391 343.196 64.6551 343.108L64.7511 343.936C64.3191 344.024 63.8991 344.092 63.4911 344.14C63.0911 344.188 62.6671 344.22 62.2191 344.236C61.7791 344.252 61.2831 344.26 60.7311 344.26H60.0231V343.42ZM60.0231 337.396H64.0551V338.212H61.0191V343.804H60.0231V337.396ZM71.5901 336.568H79.5461V337.384H71.5901V336.568ZM71.6261 339.844H79.5101V340.636H71.6261V339.844ZM73.2221 336.952H74.2181V340.204H73.2221V336.952ZM76.9181 336.952H77.9141V340.204H76.9181V336.952ZM70.6781 341.956H80.4821V342.76H70.6781V341.956ZM75.0821 340.372H76.0781V342.448H75.0821V340.372ZM71.9381 345.88H79.3901V346.696H71.9381V345.88ZM71.9381 343.708H72.9341V346.144H71.9381V343.708ZM90.017 339.136H93.125V339.952H90.017V339.136ZM92.825 336.088H93.821V344.116H92.825V336.088ZM86.849 345.88H94.073V346.696H86.849V345.88ZM86.849 343.336H87.845V346.288H86.849V343.336ZM85.421 336.808H86.417V338.716H89.345V336.808H90.329V342.268H85.421V336.808ZM86.417 339.496V341.464H89.345V339.496H86.417ZM96.412 337.672H105.232V338.488H96.412V337.672ZM95.932 344.848H105.772V345.664H95.932V344.848ZM100.336 343.12H101.32V345.16H100.336V343.12ZM100.828 339.208C101.556 339.208 102.184 339.292 102.712 339.46C103.248 339.62 103.66 339.852 103.948 340.156C104.236 340.46 104.38 340.832 104.38 341.272C104.38 341.704 104.236 342.076 103.948 342.388C103.66 342.7 103.248 342.94 102.712 343.108C102.184 343.268 101.556 343.348 100.828 343.348C100.1 343.348 99.468 343.268 98.932 343.108C98.404 342.94 97.996 342.7 97.708 342.388C97.42 342.076 97.276 341.704 97.276 341.272C97.276 340.832 97.42 340.46 97.708 340.156C97.996 339.852 98.404 339.62 98.932 339.46C99.468 339.292 100.1 339.208 100.828 339.208ZM100.828 340C100.3 340 99.844 340.052 99.46 340.156C99.084 340.252 98.792 340.396 98.584 340.588C98.384 340.772 98.284 341 98.284 341.272C98.284 341.536 98.384 341.764 98.584 341.956C98.792 342.148 99.084 342.296 99.46 342.4C99.844 342.496 100.3 342.544 100.828 342.544C101.356 342.544 101.808 342.496 102.184 342.4C102.56 342.296 102.852 342.148 103.06 341.956C103.268 341.764 103.372 341.536 103.372 341.272C103.372 341 103.268 340.772 103.06 340.588C102.852 340.396 102.56 340.252 102.184 340.156C101.808 340.052 101.356 340 100.828 340ZM100.336 336.256H101.32V338.164H100.336V336.256Z" fill="#404040"/>
<rect x="140.5" y="353.5" width="227" height="39" rx="7.5" fill="#FBFCFB"/>
<rect x="140.5" y="353.5" width="227" height="39" rx="7.5" stroke="#2383BD"/>
<path d="M154.192 375.704H155.52V380.264H154.192V375.704ZM159.168 375.704H160.496V380.264H159.168V375.704ZM151.488 367.368H163.12V368.44H151.488V367.368ZM150.8 375.032H163.92V376.12H150.8V375.032ZM157.328 369.272C158.8 369.272 159.952 369.48 160.784 369.896C161.616 370.301 162.032 370.888 162.032 371.656C162.032 372.413 161.616 373.005 160.784 373.432C159.952 373.848 158.8 374.056 157.328 374.056C155.856 374.056 154.704 373.848 153.872 373.432C153.04 373.005 152.624 372.413 152.624 371.656C152.624 370.888 153.04 370.301 153.872 369.896C154.704 369.48 155.856 369.272 157.328 369.272ZM157.328 370.28C156.272 370.28 155.451 370.397 154.864 370.632C154.288 370.867 154 371.208 154 371.656C154 372.093 154.288 372.435 154.864 372.68C155.451 372.915 156.272 373.032 157.328 373.032C158.384 373.032 159.2 372.915 159.776 372.68C160.363 372.435 160.656 372.093 160.656 371.656C160.656 371.208 160.363 370.867 159.776 370.632C159.2 370.397 158.384 370.28 157.328 370.28ZM156.672 365.688H157.984V368.136H156.672V365.688ZM176.527 365.768H177.791V380.248H176.527V365.768ZM174.079 371.576H176.863V372.664H174.079V371.576ZM173.247 366.088H174.479V379.496H173.247V366.088ZM166.031 375.56H166.975C167.689 375.56 168.335 375.555 168.911 375.544C169.497 375.523 170.052 375.48 170.575 375.416C171.108 375.352 171.652 375.261 172.207 375.144L172.335 376.248C171.759 376.365 171.199 376.456 170.655 376.52C170.121 376.584 169.556 376.627 168.959 376.648C168.372 376.669 167.711 376.68 166.975 376.68H166.031V375.56ZM166.031 367.528H171.407V368.616H167.359V376.072H166.031V367.528ZM181.454 366.424H192.062V367.512H181.454V366.424ZM181.502 370.792H192.014V371.848H181.502V370.792ZM183.63 366.936H184.958V371.272H183.63V366.936ZM188.558 366.936H189.886V371.272H188.558V366.936ZM180.238 373.608H193.31V374.68H180.238V373.608ZM186.11 371.496H187.438V374.264H186.11V371.496ZM181.918 378.84H191.854V379.928H181.918V378.84ZM181.918 375.944H183.246V379.192H181.918V375.944ZM205.757 369.848H209.901V370.936H205.757V369.848ZM209.501 365.784H210.829V376.488H209.501V365.784ZM201.533 378.84H211.165V379.928H201.533V378.84ZM201.533 375.448H202.861V379.384H201.533V375.448ZM199.629 366.744H200.957V369.288H204.861V366.744H206.173V374.024H199.629V366.744ZM200.957 370.328V372.952H204.861V370.328H200.957ZM214.284 367.896H226.044V368.984H214.284V367.896ZM213.644 377.464H226.764V378.552H213.644V377.464ZM219.516 375.16H220.828V377.88H219.516V375.16ZM220.172 369.944C221.142 369.944 221.98 370.056 222.684 370.28C223.398 370.493 223.948 370.803 224.332 371.208C224.716 371.613 224.908 372.109 224.908 372.696C224.908 373.272 224.716 373.768 224.332 374.184C223.948 374.6 223.398 374.92 222.684 375.144C221.98 375.357 221.142 375.464 220.172 375.464C219.201 375.464 218.358 375.357 217.644 375.144C216.94 374.92 216.396 374.6 216.012 374.184C215.628 373.768 215.436 373.272 215.436 372.696C215.436 372.109 215.628 371.613 216.012 371.208C216.396 370.803 216.94 370.493 217.644 370.28C218.358 370.056 219.201 369.944 220.172 369.944ZM220.172 371C219.468 371 218.86 371.069 218.348 371.208C217.846 371.336 217.457 371.528 217.18 371.784C216.913 372.029 216.78 372.333 216.78 372.696C216.78 373.048 216.913 373.352 217.18 373.608C217.457 373.864 217.846 374.061 218.348 374.2C218.86 374.328 219.468 374.392 220.172 374.392C220.876 374.392 221.478 374.328 221.98 374.2C222.481 374.061 222.87 373.864 223.148 373.608C223.425 373.352 223.564 373.048 223.564 372.696C223.564 372.333 223.425 372.029 223.148 371.784C222.87 371.528 222.481 371.336 221.98 371.208C221.478 371.069 220.876 371 220.172 371ZM219.516 366.008H220.828V368.552H219.516V366.008Z" fill="#D9D9D9"/>
<rect x="48.5" y="353.5" width="79" height="152" rx="7.5" fill="#FBFCFB"/>
<rect x="48.5" y="353.5" width="79" height="152" rx="7.5" stroke="#2383BD"/>
<path d="M58.784 373.432H71.872V374.504H58.784V373.432ZM64.656 371.56H65.984V373.88H64.656V371.56ZM60.512 370.984H70.336V372.024H60.512V370.984ZM60.512 366.184H70.256V367.24H61.84V371.544H60.512V366.184ZM61.44 368.568H69.872V369.576H61.44V368.568ZM65.328 375.576C66.896 375.576 68.112 375.773 68.976 376.168C69.84 376.563 70.272 377.139 70.272 377.896C70.272 378.653 69.84 379.229 68.976 379.624C68.112 380.019 66.896 380.216 65.328 380.216C63.7493 380.216 62.528 380.019 61.664 379.624C60.8 379.229 60.368 378.653 60.368 377.896C60.368 377.139 60.8 376.563 61.664 376.168C62.528 375.773 63.7493 375.576 65.328 375.576ZM65.312 376.584C64.16 376.584 63.2693 376.696 62.64 376.92C62.0107 377.144 61.696 377.469 61.696 377.896C61.696 378.333 62.0107 378.664 62.64 378.888C63.2693 379.101 64.16 379.208 65.312 379.208C66.4853 379.208 67.3813 379.101 68 378.888C68.6293 378.664 68.944 378.333 68.944 377.896C68.944 377.469 68.6293 377.144 68 376.92C67.3813 376.696 66.4853 376.584 65.312 376.584ZM84.0468 365.784H85.3748V376.392H84.0468V365.784ZM76.0788 378.84H85.8228V379.928H76.0788V378.84ZM76.0788 375.416H77.4068V379.352H76.0788V375.416ZM77.2788 366.584H78.3828V368.04C78.3828 368.989 78.2174 369.88 77.8868 370.712C77.5561 371.533 77.0868 372.259 76.4788 372.888C75.8814 373.507 75.1774 373.981 74.3668 374.312L73.6628 373.256C74.3988 372.968 75.0334 372.557 75.5668 372.024C76.1108 371.491 76.5321 370.883 76.8307 370.2C77.1294 369.507 77.2788 368.787 77.2788 368.04V366.584ZM77.5188 366.584H78.6228V368.04C78.6228 368.584 78.7081 369.112 78.8788 369.624C79.0494 370.125 79.2948 370.595 79.6148 371.032C79.9348 371.469 80.3134 371.859 80.7508 372.2C81.1988 372.531 81.6894 372.792 82.2228 372.984L81.5347 374.04C80.7348 373.731 80.0308 373.283 79.4228 372.696C78.8254 372.099 78.3561 371.405 78.0148 370.616C77.6841 369.816 77.5188 368.957 77.5188 368.04V366.584ZM91.7735 367.016H92.8615V369.608C92.8615 370.408 92.7602 371.192 92.5575 371.96C92.3655 372.728 92.0882 373.448 91.7255 374.12C91.3628 374.792 90.9362 375.389 90.4455 375.912C89.9548 376.435 89.4215 376.851 88.8455 377.16L88.0295 376.088C88.5628 375.821 89.0535 375.464 89.5015 375.016C89.9602 374.557 90.3602 374.035 90.7015 373.448C91.0428 372.861 91.3042 372.243 91.4855 371.592C91.6775 370.931 91.7735 370.269 91.7735 369.608V367.016ZM92.0135 367.016H93.0855V369.608C93.0855 370.248 93.1762 370.883 93.3575 371.512C93.5495 372.141 93.8162 372.733 94.1575 373.288C94.4988 373.843 94.8882 374.339 95.3255 374.776C95.7735 375.213 96.2535 375.56 96.7655 375.816L95.9495 376.872C95.3842 376.584 94.8615 376.189 94.3815 375.688C93.9122 375.187 93.4962 374.616 93.1335 373.976C92.7815 373.325 92.5042 372.632 92.3015 371.896C92.1095 371.149 92.0135 370.387 92.0135 369.608V367.016ZM98.0295 365.768H99.3575V380.248H98.0295V365.768ZM99.0535 371.624H101.726V372.76H99.0535V371.624Z" fill="#868686"/>
<path d="M80.3828 410.125C80.3828 409.859 80.3411 409.625 80.2578 409.422C80.1797 409.214 80.0391 409.026 79.8359 408.859C79.638 408.693 79.362 408.534 79.0078 408.383C78.6589 408.232 78.2161 408.078 77.6797 407.922C77.1172 407.755 76.6094 407.57 76.1562 407.367C75.7031 407.159 75.3151 406.922 74.9922 406.656C74.6693 406.391 74.4219 406.086 74.25 405.742C74.0781 405.398 73.9922 405.005 73.9922 404.562C73.9922 404.12 74.0833 403.711 74.2656 403.336C74.4479 402.961 74.7083 402.635 75.0469 402.359C75.3906 402.078 75.7995 401.859 76.2734 401.703C76.7474 401.547 77.276 401.469 77.8594 401.469C78.7135 401.469 79.4375 401.633 80.0312 401.961C80.6302 402.284 81.0859 402.708 81.3984 403.234C81.7109 403.755 81.8672 404.312 81.8672 404.906H80.3672C80.3672 404.479 80.276 404.102 80.0938 403.773C79.9115 403.44 79.6354 403.18 79.2656 402.992C78.8958 402.799 78.4271 402.703 77.8594 402.703C77.3229 402.703 76.8802 402.784 76.5312 402.945C76.1823 403.107 75.9219 403.326 75.75 403.602C75.5833 403.878 75.5 404.193 75.5 404.547C75.5 404.786 75.5495 405.005 75.6484 405.203C75.7526 405.396 75.9115 405.576 76.125 405.742C76.3438 405.909 76.6198 406.062 76.9531 406.203C77.2917 406.344 77.6953 406.479 78.1641 406.609C78.8099 406.792 79.3672 406.995 79.8359 407.219C80.3047 407.443 80.6901 407.695 80.9922 407.977C81.2995 408.253 81.526 408.568 81.6719 408.922C81.8229 409.271 81.8984 409.667 81.8984 410.109C81.8984 410.573 81.8047 410.992 81.6172 411.367C81.4297 411.742 81.1615 412.062 80.8125 412.328C80.4635 412.594 80.0443 412.799 79.5547 412.945C79.0703 413.086 78.5286 413.156 77.9297 413.156C77.4036 413.156 76.8854 413.083 76.375 412.938C75.8698 412.792 75.4089 412.573 74.9922 412.281C74.5807 411.99 74.25 411.63 74 411.203C73.7552 410.771 73.6328 410.271 73.6328 409.703H75.1328C75.1328 410.094 75.2083 410.43 75.3594 410.711C75.5104 410.987 75.7161 411.216 75.9766 411.398C76.2422 411.581 76.5417 411.716 76.875 411.805C77.2135 411.888 77.5651 411.93 77.9297 411.93C78.4557 411.93 78.901 411.857 79.2656 411.711C79.6302 411.565 79.9062 411.357 80.0938 411.086C80.2865 410.815 80.3828 410.495 80.3828 410.125ZM85.3281 401.625V413H83.8203V401.625H85.3281ZM92.1953 401.625L87.4688 406.93L84.8125 409.688L84.5625 408.078L86.5625 405.875L90.3828 401.625H92.1953ZM90.7422 413L86.5312 407.453L87.4297 406.258L92.5391 413H90.7422ZM98.0703 401.625V413H96.5859V401.625H98.0703ZM101.727 401.625V402.859H92.9375V401.625H101.727Z" fill="#404040"/>
<g filter="url(#filter0_d_228_2038)">
<path d="M80.8281 427.625V439H79.3203V427.625H80.8281ZM87.6953 427.625L82.9688 432.93L80.3125 435.688L80.0625 434.078L82.0625 431.875L85.8828 427.625H87.6953ZM86.2422 439L82.0312 433.453L82.9297 432.258L88.0391 439H86.2422ZM93.5703 427.625V439H92.0859V427.625H93.5703ZM97.2266 427.625V428.859H88.4375V427.625H97.2266Z" fill="#2383BD"/>
</g>
<path d="M75.2188 463.773V465H69.5312V463.773H75.2188ZM69.8281 453.625V465H68.3203V453.625H69.8281ZM84.8359 459.336V463.5C84.6953 463.708 84.4714 463.943 84.1641 464.203C83.8568 464.458 83.4323 464.682 82.8906 464.875C82.3542 465.062 81.6615 465.156 80.8125 465.156C80.1198 465.156 79.4818 465.036 78.8984 464.797C78.3203 464.552 77.8177 464.198 77.3906 463.734C76.9688 463.266 76.6406 462.698 76.4062 462.031C76.1771 461.359 76.0625 460.599 76.0625 459.75V458.867C76.0625 458.018 76.1615 457.26 76.3594 456.594C76.5625 455.927 76.8594 455.362 77.25 454.898C77.6406 454.43 78.1198 454.076 78.6875 453.836C79.2552 453.591 79.9062 453.469 80.6406 453.469C81.5104 453.469 82.237 453.62 82.8203 453.922C83.4089 454.219 83.8672 454.63 84.1953 455.156C84.5286 455.682 84.7422 456.281 84.8359 456.953H83.3281C83.2604 456.542 83.125 456.167 82.9219 455.828C82.724 455.49 82.4401 455.219 82.0703 455.016C81.7005 454.807 81.224 454.703 80.6406 454.703C80.1146 454.703 79.6589 454.799 79.2734 454.992C78.888 455.185 78.5703 455.461 78.3203 455.82C78.0703 456.18 77.8828 456.615 77.7578 457.125C77.638 457.635 77.5781 458.211 77.5781 458.852V459.75C77.5781 460.406 77.6536 460.992 77.8047 461.508C77.9609 462.023 78.1823 462.464 78.4688 462.828C78.7552 463.188 79.0964 463.461 79.4922 463.648C79.8932 463.836 80.3359 463.93 80.8203 463.93C81.3568 463.93 81.7917 463.885 82.125 463.797C82.4583 463.703 82.7188 463.594 82.9062 463.469C83.0938 463.339 83.237 463.216 83.3359 463.102V460.555H80.7031V459.336H84.8359ZM97.8125 453.625H99.3125V461.32C99.3125 462.174 99.1224 462.885 98.7422 463.453C98.362 464.021 97.8568 464.448 97.2266 464.734C96.6016 465.016 95.9219 465.156 95.1875 465.156C94.4167 465.156 93.7188 465.016 93.0938 464.734C92.474 464.448 91.9818 464.021 91.6172 463.453C91.2578 462.885 91.0781 462.174 91.0781 461.32V453.625H92.5703V461.32C92.5703 461.914 92.6797 462.404 92.8984 462.789C93.1172 463.174 93.4219 463.461 93.8125 463.648C94.2083 463.836 94.6667 463.93 95.1875 463.93C95.7135 463.93 96.1719 463.836 96.5625 463.648C96.9583 463.461 97.2656 463.174 97.4844 462.789C97.7031 462.404 97.8125 461.914 97.8125 461.32V453.625ZM108.766 458.898V460.258H100.969V458.898H108.766ZM105.594 455.578V463.859H104.148V455.578H105.594Z" fill="#404040"/>
<path d="M76.704 477.768H78.032V485.128H76.704V477.768ZM77.44 480.888H80.16V481.992H77.44V480.888ZM68.832 485.816H78.032V489.368H70.176V491.544H68.88V488.376H76.72V486.872H68.832V485.816ZM68.88 490.984H78.544V492.056H68.88V490.984ZM70.8 478.296C71.5253 478.296 72.1653 478.429 72.72 478.696C73.2853 478.963 73.728 479.341 74.048 479.832C74.368 480.312 74.528 480.872 74.528 481.512C74.528 482.141 74.368 482.701 74.048 483.192C73.728 483.672 73.2853 484.051 72.72 484.328C72.1653 484.595 71.5253 484.728 70.8 484.728C70.0853 484.728 69.4453 484.595 68.88 484.328C68.3147 484.051 67.8667 483.672 67.536 483.192C67.216 482.701 67.056 482.136 67.056 481.496C67.056 480.867 67.216 480.312 67.536 479.832C67.8667 479.341 68.3147 478.963 68.88 478.696C69.4453 478.429 70.0853 478.296 70.8 478.296ZM70.8 479.384C70.3307 479.384 69.9093 479.475 69.536 479.656C69.1733 479.837 68.8853 480.088 68.672 480.408C68.4587 480.717 68.352 481.085 68.352 481.512C68.352 481.928 68.4587 482.296 68.672 482.616C68.8853 482.936 69.1733 483.192 69.536 483.384C69.9093 483.565 70.3307 483.656 70.8 483.656C71.2693 483.656 71.6853 483.565 72.048 483.384C72.4213 483.192 72.7147 482.936 72.928 482.616C73.1413 482.296 73.248 481.928 73.248 481.512C73.248 481.085 73.1413 480.717 72.928 480.408C72.7147 480.088 72.4213 479.837 72.048 479.656C71.6853 479.475 71.2693 479.384 70.8 479.384ZM88.4788 481.672H93.4548V482.728H88.4788V481.672ZM88.4788 478.328H93.3268V479.384H89.8068V482.024H88.4788V478.328ZM82.7508 478.328H87.6308V479.384H84.0788V482.024H82.7508V478.328ZM82.7508 481.672H83.5668C84.0468 481.672 84.5161 481.661 84.9748 481.64C85.4441 481.619 85.9134 481.581 86.3828 481.528C86.8628 481.464 87.3534 481.373 87.8548 481.256L88.0148 482.312C87.4814 482.429 86.9641 482.52 86.4628 482.584C85.9721 482.637 85.4868 482.675 85.0068 482.696C84.5374 482.717 84.0574 482.728 83.5668 482.728H82.7508V481.672ZM81.5188 483.928H94.5908V485.016H81.5188V483.928ZM83.1028 486.344H92.9108V489.592H84.4308V491.352H83.1348V488.632H91.6148V487.352H83.1028V486.344ZM83.1348 491.032H93.3428V492.072H83.1348V491.032ZM97.4535 478.424H108.062V479.512H97.4535V478.424ZM97.5015 482.792H108.014V483.848H97.5015V482.792ZM99.6295 478.936H100.958V483.272H99.6295V478.936ZM104.558 478.936H105.886V483.272H104.558V478.936ZM96.2375 485.608H109.31V486.68H96.2375V485.608ZM102.11 483.496H103.438V486.264H102.11V483.496ZM97.9175 490.84H107.854V491.928H97.9175V490.84ZM97.9175 487.944H99.2455V491.192H97.9175V487.944Z" fill="#404040"/>
<g clip-path="url(#clip0_228_2038)">
<g filter="url(#filter1_d_228_2038)">
<path d="M106.711 376.196C107.101 376.581 107.731 376.581 108.121 376.196L113.001 371.379L117.881 376.196C118.271 376.581 118.901 376.581 119.291 376.196C119.681 375.811 119.681 375.189 119.291 374.804L113.701 369.287C113.311 368.902 112.681 368.902 112.291 369.287L106.701 374.804C106.321 375.179 106.321 375.811 106.711 376.196Z" fill="#8C8C8C"/>
</g>
</g>
<path d="M92.7698 232.76H95.4298V237.82H92.7698V232.76ZM99.1698 232.76H101.83V237.82H99.1698V232.76ZM89.6898 221.1H104.79V223.18H89.6898V221.1ZM88.9098 231.1H105.69V233.22H88.9098V231.1ZM97.2898 223.9C99.2765 223.9 100.83 224.173 101.95 224.72C103.07 225.267 103.63 226.04 103.63 227.04C103.63 228.067 103.07 228.853 101.95 229.4C100.83 229.947 99.2698 230.22 97.2698 230.22C95.2832 230.22 93.7298 229.947 92.6098 229.4C91.4898 228.853 90.9298 228.067 90.9298 227.04C90.9298 226.04 91.4898 225.267 92.6098 224.72C93.7298 224.173 95.2898 223.9 97.2898 223.9ZM97.2698 225.86C96.0698 225.86 95.1698 225.953 94.5698 226.14C93.9832 226.327 93.6898 226.627 93.6898 227.04C93.6898 227.453 93.9832 227.76 94.5698 227.96C95.1698 228.147 96.0698 228.24 97.2698 228.24C98.4832 228.24 99.3832 228.147 99.9698 227.96C100.57 227.76 100.87 227.453 100.87 227.04C100.87 226.627 100.57 226.327 99.9698 226.14C99.3832 225.953 98.4832 225.86 97.2698 225.86ZM95.9498 219.24H98.5898V222.56H95.9498V219.24ZM120.668 219.24H123.208V237.76H120.668V219.24ZM118.208 226.38H121.288V228.52H118.208V226.38ZM116.528 219.56H118.988V236.9H116.528V219.56ZM107.828 231.4H109.108C109.882 231.4 110.615 231.393 111.308 231.38C112.002 231.353 112.688 231.307 113.368 231.24C114.062 231.16 114.768 231.06 115.488 230.94L115.708 233.1C114.962 233.233 114.235 233.34 113.528 233.42C112.822 233.5 112.108 233.553 111.388 233.58C110.668 233.593 109.908 233.6 109.108 233.6H107.828V231.4ZM107.828 221.4H114.648V223.54H110.448V232.46H107.828V221.4ZM127.147 219.94H140.967V222.04H127.147V219.94ZM127.287 225.16H140.807V227.26H127.287V225.16ZM129.507 220.76H132.167V226.24H129.507V220.76ZM135.947 220.76H138.607V226.24H135.947V220.76ZM125.687 228.92H142.447V231.04H125.687V228.92ZM132.727 226.58H135.367V230.18H132.727V226.58ZM127.727 235.32H140.567V237.46H127.727V235.32ZM127.727 232.22H130.387V236.08H127.727V232.22ZM157.455 224.16H162.215V226.3H157.455V224.16ZM161.535 219.26H164.215V232.92H161.535V219.26ZM151.955 235.32H164.615V237.46H151.955V235.32ZM151.955 231.58H154.615V236.54H151.955V231.58ZM149.475 220.48H152.115V223.28H155.635V220.48H158.255V230.04H149.475V220.48ZM152.115 225.32V227.92H155.635V225.32H152.115ZM167.833 221.56H183.093V223.68H167.833V221.56ZM167.113 233.78H183.893V235.92H167.113V233.78ZM174.133 231.32H176.793V234.62H174.133V231.32ZM175.453 224.46C176.733 224.46 177.84 224.607 178.773 224.9C179.72 225.18 180.446 225.593 180.953 226.14C181.46 226.673 181.713 227.32 181.713 228.08C181.713 228.84 181.46 229.493 180.953 230.04C180.446 230.573 179.72 230.987 178.773 231.28C177.84 231.56 176.726 231.7 175.433 231.7C174.153 231.7 173.04 231.56 172.093 231.28C171.16 230.987 170.44 230.573 169.933 230.04C169.426 229.493 169.173 228.84 169.173 228.08C169.173 227.32 169.426 226.673 169.933 226.14C170.44 225.593 171.16 225.18 172.093 224.9C173.04 224.607 174.16 224.46 175.453 224.46ZM175.433 226.52C174.673 226.52 174.026 226.58 173.493 226.7C172.96 226.807 172.553 226.973 172.273 227.2C172.006 227.427 171.873 227.72 171.873 228.08C171.873 228.427 172.006 228.72 172.273 228.96C172.553 229.187 172.96 229.353 173.493 229.46C174.026 229.567 174.673 229.62 175.433 229.62C176.22 229.62 176.873 229.567 177.393 229.46C177.913 229.353 178.306 229.187 178.573 228.96C178.853 228.72 178.993 228.427 178.993 228.08C178.993 227.72 178.853 227.427 178.573 227.2C178.306 226.973 177.913 226.807 177.393 226.7C176.873 226.58 176.22 226.52 175.433 226.52ZM174.133 219.44H176.793V222.88H174.133V219.44ZM185.511 227.56H202.271V229.48H185.511V227.56ZM187.391 230.42H200.291V234.82H190.051V236.4H187.411V233.14H197.671V232.22H187.391V230.42ZM187.411 235.82H200.811V237.62H187.411V235.82ZM187.551 219.56H200.231V223.94H190.211V225.44H187.591V222.26H197.611V221.36H187.551V219.56ZM187.591 224.9H200.571V226.7H187.591V224.9ZM221.239 219.26H223.899V229.2H221.239V219.26ZM211.599 230.02H214.219V231.74H221.259V230.02H223.899V237.58H211.599V230.02ZM214.219 233.78V235.46H221.259V233.78H214.219ZM213.819 220.02C214.779 220.02 215.639 220.207 216.399 220.58C217.159 220.953 217.759 221.467 218.199 222.12C218.639 222.773 218.859 223.527 218.859 224.38C218.859 225.233 218.639 225.993 218.199 226.66C217.759 227.313 217.159 227.827 216.399 228.2C215.639 228.573 214.779 228.76 213.819 228.76C212.859 228.76 211.999 228.573 211.239 228.2C210.479 227.827 209.879 227.313 209.439 226.66C208.999 225.993 208.779 225.233 208.779 224.38C208.779 223.527 208.999 222.773 209.439 222.12C209.879 221.467 210.479 220.953 211.239 220.58C211.999 220.207 212.859 220.02 213.819 220.02ZM213.819 222.2C213.353 222.2 212.933 222.287 212.559 222.46C212.186 222.633 211.893 222.887 211.679 223.22C211.479 223.54 211.379 223.927 211.379 224.38C211.379 224.847 211.479 225.247 211.679 225.58C211.893 225.9 212.186 226.147 212.559 226.32C212.933 226.48 213.353 226.56 213.819 226.56C214.286 226.56 214.699 226.48 215.059 226.32C215.433 226.147 215.726 225.9 215.939 225.58C216.153 225.247 216.259 224.847 216.259 224.38C216.259 223.927 216.153 223.54 215.939 223.22C215.726 222.887 215.433 222.633 215.059 222.46C214.699 222.287 214.286 222.2 213.819 222.2ZM227.618 228.06H229.018C230.178 228.06 231.171 228.053 231.998 228.04C232.838 228.013 233.604 227.967 234.298 227.9C234.991 227.833 235.678 227.74 236.358 227.62L236.638 229.74C236.091 229.833 235.551 229.913 235.018 229.98C234.498 230.047 233.938 230.093 233.338 230.12C232.751 230.147 232.104 230.167 231.398 230.18C230.704 230.193 229.911 230.2 229.018 230.2H227.618V228.06ZM227.578 220.3H235.718V226.14H230.258V229.48H227.618V224.16H233.098V222.42H227.578V220.3ZM239.738 219.26H242.418V230.68H239.738V219.26ZM236.778 221.82H240.238V223.94H236.778V221.82ZM236.778 225.76H240.238V227.88H236.778V225.76ZM229.718 231.52H242.418V237.78H239.738V233.62H229.718V231.52ZM245.296 222.04H254.156V224.14H245.296V222.04ZM249.756 224.98C250.543 224.98 251.236 225.167 251.836 225.54C252.449 225.913 252.929 226.433 253.276 227.1C253.636 227.753 253.816 228.513 253.816 229.38C253.816 230.247 253.636 231.013 253.276 231.68C252.929 232.333 252.449 232.847 251.836 233.22C251.236 233.593 250.543 233.78 249.756 233.78C248.969 233.78 248.269 233.593 247.656 233.22C247.043 232.847 246.563 232.333 246.216 231.68C245.869 231.013 245.696 230.247 245.696 229.38C245.696 228.513 245.869 227.753 246.216 227.1C246.563 226.433 247.043 225.913 247.656 225.54C248.283 225.167 248.983 224.98 249.756 224.98ZM249.756 227.18C249.436 227.18 249.143 227.267 248.876 227.44C248.609 227.613 248.403 227.867 248.256 228.2C248.109 228.52 248.036 228.913 248.036 229.38C248.036 229.847 248.109 230.247 248.256 230.58C248.403 230.913 248.609 231.167 248.876 231.34C249.143 231.5 249.436 231.58 249.756 231.58C250.089 231.58 250.383 231.5 250.636 231.34C250.889 231.167 251.089 230.913 251.236 230.58C251.383 230.247 251.456 229.847 251.456 229.38C251.456 228.913 251.383 228.52 251.236 228.2C251.089 227.867 250.889 227.613 250.636 227.44C250.383 227.267 250.089 227.18 249.756 227.18ZM258.696 219.24H261.216V237.76H258.696V219.24ZM256.476 226.78H259.516V228.92H256.476V226.78ZM254.796 219.58H257.276V236.98H254.796V219.58ZM248.456 219.74H251.076V223.36H248.456V219.74ZM270.555 221.3H272.875V221.86C272.875 222.5 272.768 223.12 272.555 223.72C272.355 224.32 272.048 224.88 271.635 225.4C271.221 225.907 270.715 226.367 270.115 226.78C269.528 227.18 268.848 227.52 268.075 227.8C267.301 228.08 266.441 228.28 265.495 228.4L264.515 226.34C265.341 226.233 266.075 226.073 266.715 225.86C267.368 225.633 267.935 225.373 268.415 225.08C268.895 224.773 269.295 224.447 269.615 224.1C269.935 223.753 270.168 223.387 270.315 223C270.475 222.613 270.555 222.233 270.555 221.86V221.3ZM271.335 221.3H273.635V221.86C273.635 222.233 273.708 222.613 273.855 223C274.015 223.387 274.255 223.753 274.575 224.1C274.895 224.447 275.295 224.773 275.775 225.08C276.268 225.373 276.835 225.633 277.475 225.86C278.115 226.073 278.848 226.233 279.675 226.34L278.695 228.4C277.748 228.28 276.888 228.08 276.115 227.8C275.341 227.52 274.655 227.18 274.055 226.78C273.468 226.367 272.968 225.907 272.555 225.4C272.155 224.88 271.848 224.32 271.635 223.72C271.435 223.12 271.335 222.5 271.335 221.86V221.3ZM270.695 231H273.355V237.78H270.695V231ZM263.715 229.46H280.475V231.6H263.715V229.46ZM265.195 220.2H278.935V222.3H265.195V220.2ZM289.393 225.48H292.473V227.64H289.393V225.48ZM285.453 220.86H287.473V223.96C287.473 225.013 287.4 226.047 287.253 227.06C287.106 228.073 286.866 229.027 286.533 229.92C286.213 230.813 285.786 231.62 285.253 232.34C284.733 233.047 284.1 233.627 283.353 234.08L281.753 232.08C282.446 231.667 283.026 231.16 283.493 230.56C283.96 229.96 284.34 229.3 284.633 228.58C284.926 227.86 285.133 227.113 285.253 226.34C285.386 225.553 285.453 224.76 285.453 223.96V220.86ZM286.033 220.86H288.013V223.84C288.013 224.6 288.066 225.353 288.173 226.1C288.293 226.847 288.48 227.56 288.733 228.24C288.986 228.92 289.32 229.547 289.733 230.12C290.16 230.693 290.693 231.187 291.333 231.6L289.873 233.68C289.153 233.227 288.54 232.653 288.033 231.96C287.54 231.253 287.146 230.46 286.853 229.58C286.56 228.7 286.346 227.773 286.213 226.8C286.093 225.827 286.033 224.84 286.033 223.84V220.86ZM295.473 219.24H298.013V237.76H295.473V219.24ZM291.713 219.54H294.193V236.94H291.713V219.54ZM304.191 228.66H306.851V233.84H304.191V228.66ZM310.911 228.66H313.571V233.84H310.911V228.66ZM300.511 233.46H317.291V235.62H300.511V233.46ZM308.871 220.16C310.205 220.16 311.391 220.367 312.431 220.78C313.485 221.193 314.305 221.773 314.891 222.52C315.491 223.253 315.791 224.127 315.791 225.14C315.791 226.14 315.491 227.013 314.891 227.76C314.305 228.493 313.485 229.067 312.431 229.48C311.391 229.893 310.205 230.1 308.871 230.1C307.551 230.1 306.365 229.893 305.311 229.48C304.271 229.067 303.451 228.493 302.851 227.76C302.251 227.013 301.951 226.14 301.951 225.14C301.951 224.127 302.251 223.253 302.851 222.52C303.451 221.773 304.271 221.193 305.311 220.78C306.365 220.367 307.551 220.16 308.871 220.16ZM308.871 222.22C308.018 222.22 307.265 222.34 306.611 222.58C305.971 222.807 305.471 223.133 305.111 223.56C304.751 223.987 304.571 224.513 304.571 225.14C304.571 225.74 304.751 226.26 305.111 226.7C305.471 227.127 305.971 227.46 306.611 227.7C307.265 227.927 308.018 228.04 308.871 228.04C309.738 228.04 310.491 227.927 311.131 227.7C311.785 227.46 312.285 227.127 312.631 226.7C312.991 226.26 313.171 225.74 313.171 225.14C313.171 224.513 312.991 223.987 312.631 223.56C312.285 223.133 311.785 222.807 311.131 222.58C310.491 222.34 309.738 222.22 308.871 222.22ZM319.33 234.604C319.33 234.174 319.473 233.816 319.76 233.529C320.046 233.236 320.434 233.09 320.922 233.09C321.41 233.09 321.798 233.236 322.084 233.529C322.37 233.816 322.514 234.174 322.514 234.604C322.514 235.033 322.37 235.391 322.084 235.678C321.798 235.964 321.41 236.107 320.922 236.107C320.434 236.107 320.046 235.964 319.76 235.678C319.473 235.391 319.33 235.033 319.33 234.604Z" fill="black"/>
<path d="M27.416 12.0469V12.7578L23.2939 22H21.9609L26.0762 13.0859H20.6895V12.0469H27.416ZM28.9404 21.3301C28.9404 21.1159 29.0065 20.9359 29.1387 20.79C29.2754 20.6396 29.4714 20.5645 29.7266 20.5645C29.9818 20.5645 30.1755 20.6396 30.3076 20.79C30.4443 20.9359 30.5127 21.1159 30.5127 21.3301C30.5127 21.5397 30.4443 21.7174 30.3076 21.8633C30.1755 22.0091 29.9818 22.082 29.7266 22.082C29.4714 22.082 29.2754 22.0091 29.1387 21.8633C29.0065 21.7174 28.9404 21.5397 28.9404 21.3301ZM28.9473 15.2939C28.9473 15.0798 29.0133 14.8997 29.1455 14.7539C29.2822 14.6035 29.4782 14.5283 29.7334 14.5283C29.9886 14.5283 30.1823 14.6035 30.3145 14.7539C30.4512 14.8997 30.5195 15.0798 30.5195 15.2939C30.5195 15.5036 30.4512 15.6813 30.3145 15.8271C30.1823 15.973 29.9886 16.0459 29.7334 16.0459C29.4782 16.0459 29.2822 15.973 29.1455 15.8271C29.0133 15.6813 28.9473 15.5036 28.9473 15.2939ZM34.0947 16.4014H34.9971C35.4391 16.4014 35.8037 16.3285 36.0908 16.1826C36.3825 16.0322 36.599 15.8294 36.7402 15.5742C36.8861 15.3145 36.959 15.0228 36.959 14.6992C36.959 14.3164 36.8952 13.9951 36.7676 13.7354C36.64 13.4756 36.4486 13.2796 36.1934 13.1475C35.9382 13.0153 35.6146 12.9492 35.2227 12.9492C34.8672 12.9492 34.5527 13.0199 34.2793 13.1611C34.0104 13.2979 33.7985 13.4938 33.6436 13.749C33.4932 14.0042 33.418 14.305 33.418 14.6514H32.1533C32.1533 14.1455 32.2809 13.6852 32.5361 13.2705C32.7913 12.8558 33.1491 12.5254 33.6094 12.2793C34.0742 12.0332 34.612 11.9102 35.2227 11.9102C35.8242 11.9102 36.3506 12.0173 36.8018 12.2314C37.2529 12.4411 37.6038 12.7555 37.8545 13.1748C38.1051 13.5895 38.2305 14.1068 38.2305 14.7266C38.2305 14.9772 38.1712 15.2461 38.0527 15.5332C37.9388 15.8158 37.7588 16.0801 37.5127 16.3262C37.2712 16.5723 36.9567 16.7751 36.5693 16.9346C36.182 17.0895 35.7171 17.167 35.1748 17.167H34.0947V16.4014ZM34.0947 17.4404V16.6816H35.1748C35.8083 16.6816 36.3324 16.7568 36.7471 16.9072C37.1618 17.0576 37.4876 17.2581 37.7246 17.5088C37.9661 17.7594 38.1348 18.0352 38.2305 18.3359C38.3307 18.6322 38.3809 18.9284 38.3809 19.2246C38.3809 19.6895 38.3011 20.1019 38.1416 20.4619C37.9867 20.8219 37.7656 21.1273 37.4785 21.3779C37.196 21.6286 36.8633 21.8177 36.4805 21.9453C36.0977 22.0729 35.6807 22.1367 35.2295 22.1367C34.7965 22.1367 34.3887 22.0752 34.0059 21.9521C33.6276 21.8291 33.2926 21.6514 33.001 21.4189C32.7093 21.182 32.4814 20.8926 32.3174 20.5508C32.1533 20.2044 32.0713 19.8102 32.0713 19.3682H33.3359C33.3359 19.7145 33.4111 20.0176 33.5615 20.2773C33.7165 20.5371 33.9352 20.7399 34.2178 20.8857C34.5049 21.027 34.8421 21.0977 35.2295 21.0977C35.6169 21.0977 35.9495 21.0316 36.2275 20.8994C36.5101 20.7627 36.7266 20.5576 36.877 20.2842C37.0319 20.0107 37.1094 19.6667 37.1094 19.252C37.1094 18.8372 37.0228 18.4977 36.8496 18.2334C36.6764 17.9645 36.4303 17.7663 36.1113 17.6387C35.7969 17.5065 35.4255 17.4404 34.9971 17.4404H34.0947ZM46.3721 16.2305V17.748C46.3721 18.5638 46.2992 19.252 46.1533 19.8125C46.0075 20.373 45.7979 20.8242 45.5244 21.166C45.251 21.5078 44.9206 21.7562 44.5332 21.9111C44.1504 22.0615 43.7174 22.1367 43.2344 22.1367C42.8516 22.1367 42.4984 22.0889 42.1748 21.9932C41.8512 21.8975 41.5596 21.7448 41.2998 21.5352C41.0446 21.321 40.8258 21.043 40.6436 20.7012C40.4613 20.3594 40.3223 19.9447 40.2266 19.457C40.1309 18.9694 40.083 18.3997 40.083 17.748V16.2305C40.083 15.4147 40.1559 14.7311 40.3018 14.1797C40.4521 13.6283 40.6641 13.1862 40.9375 12.8535C41.2109 12.5163 41.5391 12.2747 41.9219 12.1289C42.3092 11.9831 42.7422 11.9102 43.2207 11.9102C43.6081 11.9102 43.9635 11.958 44.2871 12.0537C44.6152 12.1449 44.9069 12.293 45.1621 12.498C45.4173 12.6986 45.6338 12.9674 45.8115 13.3047C45.9938 13.6374 46.1328 14.0452 46.2285 14.5283C46.3242 15.0114 46.3721 15.5788 46.3721 16.2305ZM45.1006 17.9531V16.0186C45.1006 15.5719 45.0732 15.18 45.0186 14.8428C44.9684 14.501 44.8932 14.2093 44.793 13.9678C44.6927 13.7262 44.5651 13.5303 44.4102 13.3799C44.2598 13.2295 44.0843 13.1201 43.8838 13.0518C43.6878 12.9788 43.4668 12.9424 43.2207 12.9424C42.9199 12.9424 42.6533 12.9993 42.4209 13.1133C42.1885 13.2227 41.9925 13.3981 41.833 13.6396C41.6781 13.8812 41.5596 14.1979 41.4775 14.5898C41.3955 14.9818 41.3545 15.458 41.3545 16.0186V17.9531C41.3545 18.3997 41.3796 18.7939 41.4297 19.1357C41.4844 19.4775 41.5641 19.7738 41.6689 20.0244C41.7738 20.2705 41.9014 20.4733 42.0518 20.6328C42.2021 20.7923 42.3753 20.9108 42.5713 20.9883C42.7718 21.0612 42.9928 21.0977 43.2344 21.0977C43.5443 21.0977 43.8154 21.0384 44.0479 20.9199C44.2803 20.8014 44.474 20.6169 44.6289 20.3662C44.7884 20.111 44.9069 19.7852 44.9844 19.3887C45.0618 18.9876 45.1006 18.5091 45.1006 17.9531ZM55.4844 12.9287L52.1895 22H50.8428L54.6367 12.0469H55.5049L55.4844 12.9287ZM58.2461 22L54.9443 12.9287L54.9238 12.0469H55.792L59.5996 22H58.2461ZM58.0752 18.3154V19.3955H52.4834V18.3154H58.0752ZM61.3496 12.0469H62.6279L65.8887 20.1611L69.1426 12.0469H70.4277L66.3809 22H65.3828L61.3496 12.0469ZM60.9326 12.0469H62.0605L62.2451 18.1172V22H60.9326V12.0469ZM69.71 12.0469H70.8379V22H69.5254V18.1172L69.71 12.0469Z" fill="#0C0C0C"/>
<path d="M322.792 12.9478L324.375 14.5311C328.31 10.5966 334.69 10.5966 338.625 14.5311L340.208 12.9478C335.403 8.1424 327.605 8.1424 322.792 12.9478ZM329.125 19.2811L331.5 21.6561L333.875 19.2811C332.569 17.967 330.439 17.967 329.125 19.2811ZM325.958 16.1145L327.542 17.6978C329.727 15.5128 333.273 15.5128 335.458 17.6978L337.042 16.1145C333.986 13.0586 329.022 13.0586 325.958 16.1145Z" fill="#0C0C0C"/>
<path d="M362.75 9.3335H365.25V22.6668H362.75V9.3335ZM352.75 17.6668H355.25V22.6668H352.75V17.6668ZM357.75 13.5002H360.25V22.6668H357.75V13.5002Z" fill="#0C0C0C"/>
<path d="M391.362 9.55847L391.1 24.4572L382.823 24.3114L383.085 9.41273L385.568 9.45645L385.598 7.80104L388.908 7.85934L388.879 9.51475L391.362 9.55847ZM389.678 11.1847L384.712 11.0973L384.653 14.4081L389.62 14.4956L389.678 11.1847Z" fill="#0C0C0C"/>
<defs>
<filter id="filter0_d_228_2038" x="75.3203" y="427.625" width="25.9062" height="19.375" filterUnits="userSpaceOnUse" color-interpolation-filters="sRGB">
<feFlood flood-opacity="0" result="BackgroundImageFix"/>
<feColorMatrix in="SourceAlpha" type="matrix" values="0 0 0 0 0 0 0 0 0 0 0 0 0 0 0 0 0 0 127 0" result="hardAlpha"/>
<feOffset dy="4"/>
<feGaussianBlur stdDeviation="2"/>
<feComposite in2="hardAlpha" operator="out"/>
<feColorMatrix type="matrix" values="0 0 0 0 0 0 0 0 0 0 0 0 0 0 0 0 0 0 0.25 0"/>
<feBlend mode="normal" in2="BackgroundImageFix" result="effect1_dropShadow_228_2038"/>
<feBlend mode="normal" in="SourceGraphic" in2="effect1_dropShadow_228_2038" result="shape"/>
</filter>
<filter id="filter1_d_228_2038" x="102.417" y="368.998" width="21.1663" height="15.4871" filterUnits="userSpaceOnUse" color-interpolation-filters="sRGB">
<feFlood flood-opacity="0" result="BackgroundImageFix"/>
<feColorMatrix in="SourceAlpha" type="matrix" values="0 0 0 0 0 0 0 0 0 0 0 0 0 0 0 0 0 0 127 0" result="hardAlpha"/>
<feOffset dy="4"/>
<feGaussianBlur stdDeviation="2"/>
<feComposite in2="hardAlpha" operator="out"/>
<feColorMatrix type="matrix" values="0 0 0 0 0 0 0 0 0 0 0 0 0 0 0 0 0 0 0.25 0"/>
<feBlend mode="normal" in2="BackgroundImageFix" result="effect1_dropShadow_228_2038"/>
<feBlend mode="normal" in="SourceGraphic" in2="effect1_dropShadow_228_2038" result="shape"/>
</filter>
<clipPath id="clip0_228_2038">
<rect width="24" height="23.6903" fill="white" transform="translate(101 360.897)"/>
</clipPath>
</defs>
</svg>
