<svg width="412" height="917" viewBox="0 0 412 917" fill="none" xmlns="http://www.w3.org/2000/svg">
<rect width="412" height="917" fill="white"/>
<path d="M80.496 452.088H81.492V460.008H80.496V452.088ZM74.52 461.88H81.828V462.696H74.52V461.88ZM74.52 459.204H75.516V462.156H74.52V459.204ZM75.672 452.844C76.216 452.844 76.7 452.956 77.124 453.18C77.548 453.404 77.884 453.72 78.132 454.128C78.38 454.528 78.504 454.988 78.504 455.508C78.504 456.028 78.38 456.492 78.132 456.9C77.884 457.3 77.548 457.616 77.124 457.848C76.7 458.072 76.216 458.184 75.672 458.184C75.136 458.184 74.652 458.072 74.22 457.848C73.796 457.616 73.46 457.3 73.212 456.9C72.964 456.492 72.84 456.028 72.84 455.508C72.84 454.988 72.964 454.528 73.212 454.128C73.46 453.72 73.796 453.404 74.22 453.18C74.652 452.956 75.136 452.844 75.672 452.844ZM75.672 453.708C75.32 453.708 75.004 453.784 74.724 453.936C74.444 454.088 74.22 454.3 74.052 454.572C73.892 454.844 73.812 455.156 73.812 455.508C73.812 455.868 73.892 456.184 74.052 456.456C74.22 456.72 74.444 456.928 74.724 457.08C75.004 457.232 75.32 457.308 75.672 457.308C76.024 457.308 76.34 457.232 76.62 457.08C76.908 456.928 77.132 456.72 77.292 456.456C77.452 456.184 77.532 455.868 77.532 455.508C77.532 455.156 77.452 454.844 77.292 454.572C77.132 454.3 76.908 454.088 76.62 453.936C76.34 453.784 76.024 453.708 75.672 453.708ZM83.6391 457.236H93.4431V458.052H83.6391V457.236ZM88.5351 458.988C89.6951 458.988 90.6031 459.16 91.2591 459.504C91.9151 459.848 92.2431 460.332 92.2431 460.956C92.2431 461.58 91.9151 462.06 91.2591 462.396C90.6031 462.74 89.6951 462.912 88.5351 462.912C87.3751 462.912 86.4631 462.74 85.7991 462.396C85.1431 462.06 84.8151 461.58 84.8151 460.956C84.8151 460.332 85.1431 459.848 85.7991 459.504C86.4631 459.16 87.3751 458.988 88.5351 458.988ZM88.5351 459.78C87.9671 459.78 87.4791 459.824 87.0711 459.912C86.6711 460 86.3631 460.132 86.1471 460.308C85.9311 460.484 85.8231 460.7 85.8231 460.956C85.8231 461.204 85.9311 461.416 86.1471 461.592C86.3631 461.76 86.6711 461.892 87.0711 461.988C87.4791 462.076 87.9671 462.12 88.5351 462.12C89.1031 462.12 89.5871 462.076 89.9871 461.988C90.3951 461.892 90.7071 461.76 90.9231 461.592C91.1391 461.416 91.2471 461.204 91.2471 460.956C91.2471 460.7 91.1391 460.484 90.9231 460.308C90.7071 460.132 90.3951 460 89.9871 459.912C89.5871 459.824 89.1031 459.78 88.5351 459.78ZM87.8991 453.06H88.7751V453.384C88.7751 453.736 88.6991 454.064 88.5471 454.368C88.4031 454.664 88.1991 454.936 87.9351 455.184C87.6711 455.432 87.3591 455.652 86.9991 455.844C86.6471 456.036 86.2631 456.196 85.8471 456.324C85.4311 456.444 84.9951 456.532 84.5391 456.588L84.1791 455.796C84.5711 455.756 84.9471 455.684 85.3071 455.58C85.6751 455.476 86.0151 455.352 86.3271 455.208C86.6471 455.056 86.9231 454.888 87.1551 454.704C87.3871 454.512 87.5671 454.308 87.6951 454.092C87.8311 453.868 87.8991 453.632 87.8991 453.384V453.06ZM88.3071 453.06H89.1831V453.384C89.1831 453.632 89.2471 453.868 89.3751 454.092C89.5111 454.308 89.6951 454.512 89.9271 454.704C90.1591 454.896 90.4311 455.068 90.7431 455.22C91.0631 455.364 91.4031 455.488 91.7631 455.592C92.1311 455.688 92.5111 455.756 92.9031 455.796L92.5431 456.588C92.0871 456.532 91.6511 456.444 91.2351 456.324C90.8191 456.196 90.4311 456.036 90.0711 455.844C89.7191 455.652 89.4111 455.432 89.1471 455.184C88.8831 454.936 88.6751 454.66 88.5231 454.356C88.3791 454.052 88.3071 453.728 88.3071 453.384V453.06ZM84.5391 452.628H92.5551V453.444H84.5391V452.628ZM102.978 455.136H106.086V455.952H102.978V455.136ZM105.786 452.088H106.782V460.116H105.786V452.088ZM99.8099 461.88H107.034V462.696H99.8099V461.88ZM99.8099 459.336H100.806V462.288H99.8099V459.336ZM98.3819 452.808H99.3779V454.716H102.306V452.808H103.29V458.268H98.3819V452.808ZM99.3779 455.496V457.464H102.306V455.496H99.3779ZM109.373 453.672H118.193V454.488H109.373V453.672ZM108.893 460.848H118.733V461.664H108.893V460.848ZM113.297 459.12H114.281V461.16H113.297V459.12ZM113.789 455.208C114.517 455.208 115.145 455.292 115.673 455.46C116.209 455.62 116.621 455.852 116.909 456.156C117.197 456.46 117.341 456.832 117.341 457.272C117.341 457.704 117.197 458.076 116.909 458.388C116.621 458.7 116.209 458.94 115.673 459.108C115.145 459.268 114.517 459.348 113.789 459.348C113.061 459.348 112.429 459.268 111.893 459.108C111.365 458.94 110.957 458.7 110.669 458.388C110.381 458.076 110.237 457.704 110.237 457.272C110.237 456.832 110.381 456.46 110.669 456.156C110.957 455.852 111.365 455.62 111.893 455.46C112.429 455.292 113.061 455.208 113.789 455.208ZM113.789 456C113.261 456 112.805 456.052 112.421 456.156C112.045 456.252 111.753 456.396 111.545 456.588C111.345 456.772 111.245 457 111.245 457.272C111.245 457.536 111.345 457.764 111.545 457.956C111.753 458.148 112.045 458.296 112.421 458.4C112.805 458.496 113.261 458.544 113.789 458.544C114.317 458.544 114.769 458.496 115.145 458.4C115.521 458.296 115.813 458.148 116.021 457.956C116.229 457.764 116.333 457.536 116.333 457.272C116.333 457 116.229 456.772 116.021 456.588C115.813 456.396 115.521 456.252 115.145 456.156C114.769 456.052 114.317 456 113.789 456ZM113.297 452.256H114.281V454.164H113.297V452.256Z" fill="#404040"/>
<g filter="url(#filter0_d_345_3053)">
<rect x="72" y="472" width="29" height="39" rx="8" fill="#FBFCFB" shape-rendering="crispEdges"/>
<rect x="72.5" y="472.5" width="28" height="38" rx="7.5" stroke="#2383BD" shape-rendering="crispEdges"/>
</g>
<rect x="152" y="472" width="29" height="39" rx="8" fill="#FBFCFB"/>
<rect x="232" y="472" width="29" height="39" rx="8" fill="#FBFCFB"/>
<rect x="312" y="472" width="29" height="39" rx="8" fill="#FBFCFB"/>
<path d="M240.874 145.914V147.814C240.874 147.989 241.012 148.126 241.187 148.126H243.087C243.168 148.126 243.249 148.095 243.305 148.032L250.13 141.214L247.787 138.87L240.968 145.689C240.905 145.751 240.874 145.826 240.874 145.914ZM251.943 139.401C252.187 139.157 252.187 138.764 251.943 138.52L250.48 137.057C250.237 136.814 249.843 136.814 249.599 137.057L248.455 138.201L250.799 140.545L251.943 139.401Z" fill="#2383BD"/>
<path d="M64.22 138.48H76.48V139.84H64.22V138.48ZM64.22 133.82H65.86V139.08H64.22V133.82ZM62 142.22H78.36V143.58H62V142.22ZM69.36 139.2H71V142.84H69.36V139.2ZM70.16 144.94C72.0933 144.94 73.6067 145.227 74.7 145.8C75.7933 146.373 76.34 147.187 76.34 148.24C76.34 149.28 75.7933 150.087 74.7 150.66C73.6067 151.233 72.0933 151.52 70.16 151.52C68.2267 151.52 66.7067 151.233 65.6 150.66C64.5067 150.087 63.96 149.28 63.96 148.24C63.96 147.187 64.5067 146.373 65.6 145.8C66.7067 145.227 68.2267 144.94 70.16 144.94ZM70.16 146.24C69.2133 146.24 68.4 146.32 67.72 146.48C67.0533 146.64 66.54 146.867 66.18 147.16C65.82 147.453 65.64 147.813 65.64 148.24C65.64 148.653 65.82 149.007 66.18 149.3C66.54 149.593 67.0533 149.82 67.72 149.98C68.4 150.14 69.2133 150.22 70.16 150.22C71.1067 150.22 71.9133 150.14 72.58 149.98C73.26 149.82 73.78 149.593 74.14 149.3C74.5 149.007 74.68 148.653 74.68 148.24C74.68 147.813 74.5 147.453 74.14 147.16C73.78 146.867 73.26 146.64 72.58 146.48C71.9133 146.32 71.1067 146.24 70.16 146.24ZM90.5584 137.68H94.2584V139.04H90.5584V137.68ZM90.5384 141.2H94.2184V142.56H90.5384V141.2ZM80.4184 135.28H90.5584V136.62H80.4184V135.28ZM85.5384 137.5C86.3518 137.5 87.0651 137.64 87.6784 137.92C88.2918 138.187 88.7718 138.567 89.1184 139.06C89.4651 139.54 89.6384 140.107 89.6384 140.76C89.6384 141.413 89.4651 141.987 89.1184 142.48C88.7718 142.96 88.2918 143.333 87.6784 143.6C87.0651 143.867 86.3518 144 85.5384 144C84.7384 144 84.0318 143.867 83.4184 143.6C82.8051 143.333 82.3251 142.96 81.9784 142.48C81.6318 141.987 81.4584 141.413 81.4584 140.76C81.4584 140.107 81.6318 139.54 81.9784 139.06C82.3251 138.567 82.8051 138.187 83.4184 137.92C84.0318 137.64 84.7384 137.5 85.5384 137.5ZM85.5384 138.78C84.7784 138.78 84.1651 138.96 83.6984 139.32C83.2451 139.68 83.0184 140.16 83.0184 140.76C83.0184 141.36 83.2451 141.847 83.6984 142.22C84.1651 142.58 84.7784 142.76 85.5384 142.76C86.2984 142.76 86.9118 142.58 87.3784 142.22C87.8584 141.847 88.0984 141.36 88.0984 140.76C88.0984 140.16 87.8584 139.68 87.3784 139.32C86.9118 138.96 86.2984 138.78 85.5384 138.78ZM84.7384 133.3H86.3784V136.1H84.7384V133.3ZM93.6184 133.46H95.2784V144.16H93.6184V133.46ZM83.5784 144.94H85.2184V146.8H93.6384V144.94H95.2784V151.32H83.5784V144.94ZM85.2184 148.08V150H93.6384V148.08H85.2184ZM105.746 142.002H106.859C107.354 142.002 107.764 141.898 108.09 141.689C108.415 141.475 108.656 141.185 108.812 140.82C108.975 140.449 109.057 140.033 109.057 139.57C109.057 139.023 108.985 138.564 108.842 138.193C108.699 137.822 108.484 137.542 108.197 137.354C107.917 137.165 107.562 137.07 107.133 137.07C106.729 137.07 106.378 137.171 106.078 137.373C105.779 137.568 105.548 137.848 105.385 138.213C105.222 138.577 105.141 139.007 105.141 139.502H103.422C103.422 138.779 103.572 138.122 103.871 137.529C104.177 136.937 104.607 136.465 105.16 136.113C105.72 135.762 106.378 135.586 107.133 135.586C107.855 135.586 108.49 135.739 109.037 136.045C109.584 136.344 110.01 136.794 110.316 137.393C110.629 137.985 110.785 138.724 110.785 139.609C110.785 139.967 110.717 140.352 110.58 140.762C110.45 141.165 110.238 141.543 109.945 141.895C109.659 142.246 109.281 142.536 108.812 142.764C108.35 142.985 107.784 143.096 107.113 143.096H105.746V142.002ZM105.746 143.486V142.402H107.113C107.908 142.402 108.555 142.51 109.057 142.725C109.558 142.939 109.945 143.226 110.219 143.584C110.492 143.942 110.681 144.336 110.785 144.766C110.896 145.189 110.951 145.612 110.951 146.035C110.951 146.699 110.854 147.288 110.658 147.803C110.469 148.317 110.199 148.753 109.848 149.111C109.503 149.469 109.099 149.74 108.637 149.922C108.174 150.104 107.67 150.195 107.123 150.195C106.589 150.195 106.094 150.107 105.639 149.932C105.183 149.756 104.783 149.502 104.438 149.17C104.092 148.831 103.822 148.418 103.627 147.93C103.438 147.435 103.344 146.872 103.344 146.24H105.072C105.072 146.735 105.154 147.168 105.316 147.539C105.479 147.91 105.714 148.2 106.02 148.408C106.326 148.61 106.693 148.711 107.123 148.711C107.553 148.711 107.924 148.617 108.236 148.428C108.549 148.232 108.79 147.939 108.959 147.549C109.135 147.158 109.223 146.667 109.223 146.074C109.223 145.482 109.125 144.997 108.93 144.619C108.741 144.235 108.471 143.952 108.119 143.77C107.768 143.581 107.348 143.486 106.859 143.486H105.746ZM115.502 143.232L114.125 142.861L114.73 135.781H120.922V137.451H116.186L115.854 141.318C116.075 141.169 116.342 141.029 116.654 140.898C116.967 140.768 117.331 140.703 117.748 140.703C118.308 140.703 118.806 140.817 119.242 141.045C119.685 141.266 120.059 141.585 120.365 142.002C120.671 142.419 120.906 142.92 121.068 143.506C121.231 144.092 121.312 144.746 121.312 145.469C121.312 146.152 121.231 146.781 121.068 147.354C120.912 147.926 120.671 148.428 120.346 148.857C120.027 149.281 119.623 149.609 119.135 149.844C118.653 150.078 118.09 150.195 117.445 150.195C116.964 150.195 116.508 150.117 116.078 149.961C115.648 149.798 115.261 149.554 114.916 149.229C114.577 148.896 114.301 148.486 114.086 147.998C113.871 147.503 113.738 146.924 113.686 146.26H115.316C115.382 146.794 115.505 147.243 115.688 147.607C115.876 147.972 116.117 148.249 116.41 148.438C116.71 148.62 117.055 148.711 117.445 148.711C117.777 148.711 118.077 148.636 118.344 148.486C118.611 148.337 118.835 148.122 119.018 147.842C119.2 147.562 119.34 147.223 119.438 146.826C119.535 146.429 119.584 145.983 119.584 145.488C119.584 145.039 119.535 144.622 119.438 144.238C119.34 143.854 119.193 143.519 118.998 143.232C118.803 142.946 118.565 142.725 118.285 142.568C118.012 142.406 117.693 142.324 117.328 142.324C116.84 142.324 116.479 142.406 116.244 142.568C116.016 142.731 115.769 142.952 115.502 143.232ZM129.184 135.762H129.311V137.295H129.184C128.363 137.295 127.689 137.451 127.162 137.764C126.641 138.07 126.234 138.483 125.941 139.004C125.655 139.518 125.456 140.098 125.346 140.742C125.235 141.387 125.18 142.041 125.18 142.705V144.795C125.18 145.426 125.238 145.986 125.355 146.475C125.479 146.956 125.639 147.363 125.834 147.695C126.036 148.027 126.26 148.278 126.508 148.447C126.762 148.617 127.019 148.701 127.279 148.701C127.611 148.701 127.904 148.623 128.158 148.467C128.419 148.304 128.633 148.079 128.803 147.793C128.979 147.5 129.112 147.155 129.203 146.758C129.294 146.361 129.34 145.924 129.34 145.449C129.34 145.026 129.298 144.619 129.213 144.229C129.135 143.831 129.014 143.48 128.852 143.174C128.689 142.861 128.48 142.617 128.227 142.441C127.979 142.259 127.683 142.168 127.338 142.168C126.947 142.168 126.583 142.292 126.244 142.539C125.912 142.78 125.639 143.099 125.424 143.496C125.209 143.887 125.082 144.313 125.043 144.775L124.154 144.766C124.245 144.036 124.398 143.415 124.613 142.9C124.828 142.38 125.089 141.956 125.395 141.631C125.707 141.299 126.052 141.058 126.43 140.908C126.807 140.752 127.204 140.674 127.621 140.674C128.227 140.674 128.744 140.807 129.174 141.074C129.61 141.341 129.965 141.699 130.238 142.148C130.518 142.591 130.723 143.092 130.854 143.652C130.984 144.206 131.049 144.775 131.049 145.361C131.049 146.032 130.967 146.66 130.805 147.246C130.648 147.832 130.414 148.346 130.102 148.789C129.789 149.232 129.395 149.577 128.92 149.824C128.451 150.072 127.904 150.195 127.279 150.195C126.615 150.195 126.042 150.039 125.561 149.727C125.079 149.408 124.678 148.984 124.359 148.457C124.047 147.93 123.816 147.344 123.666 146.699C123.516 146.055 123.441 145.4 123.441 144.736V143.887C123.441 142.884 123.513 141.901 123.656 140.938C123.799 139.974 124.07 139.102 124.467 138.32C124.87 137.539 125.45 136.917 126.205 136.455C126.967 135.993 127.96 135.762 129.184 135.762ZM138.324 135.703V150H136.596V137.959L133.607 139.287V137.656L138.061 135.703H138.324ZM151.01 148.516V150H143.061V148.701L146.977 143.516C147.458 142.878 147.826 142.337 148.08 141.895C148.334 141.445 148.51 141.045 148.607 140.693C148.705 140.335 148.754 139.971 148.754 139.6C148.754 139.131 148.679 138.708 148.529 138.33C148.38 137.946 148.161 137.64 147.875 137.412C147.589 137.184 147.243 137.07 146.84 137.07C146.312 137.07 145.88 137.194 145.541 137.441C145.209 137.682 144.965 138.021 144.809 138.457C144.652 138.893 144.574 139.395 144.574 139.961H142.846C142.846 139.16 142.992 138.428 143.285 137.764C143.585 137.1 144.031 136.572 144.623 136.182C145.215 135.785 145.954 135.586 146.84 135.586C147.602 135.586 148.253 135.745 148.793 136.064C149.34 136.377 149.757 136.82 150.043 137.393C150.336 137.959 150.482 138.623 150.482 139.385C150.482 139.801 150.424 140.225 150.307 140.654C150.196 141.077 150.04 141.501 149.838 141.924C149.643 142.347 149.411 142.764 149.145 143.174C148.878 143.584 148.591 143.988 148.285 144.385L145.131 148.516H151.01ZM158.09 135.703V150H156.361V137.959L153.373 139.287V137.656L157.826 135.703H158.09ZM170.775 148.516V150H162.826V148.701L166.742 143.516C167.224 142.878 167.592 142.337 167.846 141.895C168.1 141.445 168.275 141.045 168.373 140.693C168.471 140.335 168.52 139.971 168.52 139.6C168.52 139.131 168.445 138.708 168.295 138.33C168.145 137.946 167.927 137.64 167.641 137.412C167.354 137.184 167.009 137.07 166.605 137.07C166.078 137.07 165.645 137.194 165.307 137.441C164.975 137.682 164.73 138.021 164.574 138.457C164.418 138.893 164.34 139.395 164.34 139.961H162.611C162.611 139.16 162.758 138.428 163.051 137.764C163.35 137.1 163.796 136.572 164.389 136.182C164.981 135.785 165.72 135.586 166.605 135.586C167.367 135.586 168.018 135.745 168.559 136.064C169.105 136.377 169.522 136.82 169.809 137.393C170.102 137.959 170.248 138.623 170.248 139.385C170.248 139.801 170.189 140.225 170.072 140.654C169.962 141.077 169.805 141.501 169.604 141.924C169.408 142.347 169.177 142.764 168.91 143.174C168.643 143.584 168.357 143.988 168.051 144.385L164.896 148.516H170.775ZM180.658 148.516V150H172.709V148.701L176.625 143.516C177.107 142.878 177.475 142.337 177.729 141.895C177.982 141.445 178.158 141.045 178.256 140.693C178.354 140.335 178.402 139.971 178.402 139.6C178.402 139.131 178.327 138.708 178.178 138.33C178.028 137.946 177.81 137.64 177.523 137.412C177.237 137.184 176.892 137.07 176.488 137.07C175.961 137.07 175.528 137.194 175.189 137.441C174.857 137.682 174.613 138.021 174.457 138.457C174.301 138.893 174.223 139.395 174.223 139.961H172.494C172.494 139.16 172.641 138.428 172.934 137.764C173.233 137.1 173.679 136.572 174.271 136.182C174.864 135.785 175.603 135.586 176.488 135.586C177.25 135.586 177.901 135.745 178.441 136.064C178.988 136.377 179.405 136.82 179.691 137.393C179.984 137.959 180.131 138.623 180.131 139.385C180.131 139.801 180.072 140.225 179.955 140.654C179.844 141.077 179.688 141.501 179.486 141.924C179.291 142.347 179.06 142.764 178.793 143.174C178.526 143.584 178.24 143.988 177.934 144.385L174.779 148.516H180.658ZM184.809 142.002H185.922C186.417 142.002 186.827 141.898 187.152 141.689C187.478 141.475 187.719 141.185 187.875 140.82C188.038 140.449 188.119 140.033 188.119 139.57C188.119 139.023 188.048 138.564 187.904 138.193C187.761 137.822 187.546 137.542 187.26 137.354C186.98 137.165 186.625 137.07 186.195 137.07C185.792 137.07 185.44 137.171 185.141 137.373C184.841 137.568 184.61 137.848 184.447 138.213C184.285 138.577 184.203 139.007 184.203 139.502H182.484C182.484 138.779 182.634 138.122 182.934 137.529C183.24 136.937 183.669 136.465 184.223 136.113C184.783 135.762 185.44 135.586 186.195 135.586C186.918 135.586 187.553 135.739 188.1 136.045C188.646 136.344 189.073 136.794 189.379 137.393C189.691 137.985 189.848 138.724 189.848 139.609C189.848 139.967 189.779 140.352 189.643 140.762C189.512 141.165 189.301 141.543 189.008 141.895C188.721 142.246 188.344 142.536 187.875 142.764C187.413 142.985 186.846 143.096 186.176 143.096H184.809V142.002ZM184.809 143.486V142.402H186.176C186.97 142.402 187.618 142.51 188.119 142.725C188.62 142.939 189.008 143.226 189.281 143.584C189.555 143.942 189.743 144.336 189.848 144.766C189.958 145.189 190.014 145.612 190.014 146.035C190.014 146.699 189.916 147.288 189.721 147.803C189.532 148.317 189.262 148.753 188.91 149.111C188.565 149.469 188.161 149.74 187.699 149.922C187.237 150.104 186.732 150.195 186.186 150.195C185.652 150.195 185.157 150.107 184.701 149.932C184.245 149.756 183.845 149.502 183.5 149.17C183.155 148.831 182.885 148.418 182.689 147.93C182.501 147.435 182.406 146.872 182.406 146.24H184.135C184.135 146.735 184.216 147.168 184.379 147.539C184.542 147.91 184.776 148.2 185.082 148.408C185.388 148.61 185.756 148.711 186.186 148.711C186.615 148.711 186.986 148.617 187.299 148.428C187.611 148.232 187.852 147.939 188.021 147.549C188.197 147.158 188.285 146.667 188.285 146.074C188.285 145.482 188.188 144.997 187.992 144.619C187.803 144.235 187.533 143.952 187.182 143.77C186.83 143.581 186.41 143.486 185.922 143.486H184.809ZM198.363 135.762H198.49V137.295H198.363C197.543 137.295 196.869 137.451 196.342 137.764C195.821 138.07 195.414 138.483 195.121 139.004C194.835 139.518 194.636 140.098 194.525 140.742C194.415 141.387 194.359 142.041 194.359 142.705V144.795C194.359 145.426 194.418 145.986 194.535 146.475C194.659 146.956 194.818 147.363 195.014 147.695C195.215 148.027 195.44 148.278 195.688 148.447C195.941 148.617 196.199 148.701 196.459 148.701C196.791 148.701 197.084 148.623 197.338 148.467C197.598 148.304 197.813 148.079 197.982 147.793C198.158 147.5 198.292 147.155 198.383 146.758C198.474 146.361 198.52 145.924 198.52 145.449C198.52 145.026 198.477 144.619 198.393 144.229C198.314 143.831 198.194 143.48 198.031 143.174C197.868 142.861 197.66 142.617 197.406 142.441C197.159 142.259 196.863 142.168 196.518 142.168C196.127 142.168 195.762 142.292 195.424 142.539C195.092 142.78 194.818 143.099 194.604 143.496C194.389 143.887 194.262 144.313 194.223 144.775L193.334 144.766C193.425 144.036 193.578 143.415 193.793 142.9C194.008 142.38 194.268 141.956 194.574 141.631C194.887 141.299 195.232 141.058 195.609 140.908C195.987 140.752 196.384 140.674 196.801 140.674C197.406 140.674 197.924 140.807 198.354 141.074C198.79 141.341 199.145 141.699 199.418 142.148C199.698 142.591 199.903 143.092 200.033 143.652C200.163 144.206 200.229 144.775 200.229 145.361C200.229 146.032 200.147 146.66 199.984 147.246C199.828 147.832 199.594 148.346 199.281 148.789C198.969 149.232 198.575 149.577 198.1 149.824C197.631 150.072 197.084 150.195 196.459 150.195C195.795 150.195 195.222 150.039 194.74 149.727C194.258 149.408 193.858 148.984 193.539 148.457C193.227 147.93 192.995 147.344 192.846 146.699C192.696 146.055 192.621 145.4 192.621 144.736V143.887C192.621 142.884 192.693 141.901 192.836 140.938C192.979 139.974 193.249 139.102 193.646 138.32C194.05 137.539 194.63 136.917 195.385 136.455C196.146 135.993 197.139 135.762 198.363 135.762ZM210.307 148.516V150H202.357V148.701L206.273 143.516C206.755 142.878 207.123 142.337 207.377 141.895C207.631 141.445 207.807 141.045 207.904 140.693C208.002 140.335 208.051 139.971 208.051 139.6C208.051 139.131 207.976 138.708 207.826 138.33C207.676 137.946 207.458 137.64 207.172 137.412C206.885 137.184 206.54 137.07 206.137 137.07C205.609 137.07 205.176 137.194 204.838 137.441C204.506 137.682 204.262 138.021 204.105 138.457C203.949 138.893 203.871 139.395 203.871 139.961H202.143C202.143 139.16 202.289 138.428 202.582 137.764C202.882 137.1 203.327 136.572 203.92 136.182C204.512 135.785 205.251 135.586 206.137 135.586C206.898 135.586 207.549 135.745 208.09 136.064C208.637 136.377 209.053 136.82 209.34 137.393C209.633 137.959 209.779 138.623 209.779 139.385C209.779 139.801 209.721 140.225 209.604 140.654C209.493 141.077 209.337 141.501 209.135 141.924C208.939 142.347 208.708 142.764 208.441 143.174C208.174 143.584 207.888 143.988 207.582 144.385L204.428 148.516H210.307ZM219.838 141.758V143.926C219.838 145.091 219.747 146.074 219.564 146.875C219.389 147.676 219.135 148.32 218.803 148.809C218.471 149.297 218.07 149.652 217.602 149.873C217.139 150.088 216.618 150.195 216.039 150.195C215.583 150.195 215.157 150.127 214.76 149.99C214.369 149.854 214.018 149.635 213.705 149.336C213.393 149.03 213.126 148.633 212.904 148.145C212.683 147.656 212.514 147.064 212.396 146.367C212.279 145.671 212.221 144.857 212.221 143.926V141.758C212.221 140.592 212.312 139.616 212.494 138.828C212.676 138.04 212.934 137.409 213.266 136.934C213.604 136.452 214.005 136.107 214.467 135.898C214.936 135.69 215.456 135.586 216.029 135.586C216.492 135.586 216.918 135.654 217.309 135.791C217.706 135.921 218.057 136.133 218.363 136.426C218.676 136.712 218.943 137.096 219.164 137.578C219.385 138.053 219.551 138.636 219.662 139.326C219.779 140.016 219.838 140.827 219.838 141.758ZM218.119 144.219V141.455C218.119 140.817 218.09 140.257 218.031 139.775C217.973 139.287 217.885 138.87 217.768 138.525C217.657 138.18 217.517 137.9 217.348 137.686C217.178 137.471 216.983 137.314 216.762 137.217C216.54 137.113 216.296 137.061 216.029 137.061C215.697 137.061 215.401 137.142 215.141 137.305C214.887 137.461 214.669 137.712 214.486 138.057C214.311 138.402 214.177 138.854 214.086 139.414C213.995 139.974 213.949 140.654 213.949 141.455V144.219C213.949 144.857 213.979 145.42 214.037 145.908C214.102 146.396 214.19 146.82 214.301 147.178C214.418 147.529 214.561 147.819 214.73 148.047C214.9 148.275 215.095 148.444 215.316 148.555C215.538 148.659 215.779 148.711 216.039 148.711C216.384 148.711 216.684 148.626 216.938 148.457C217.198 148.288 217.416 148.024 217.592 147.666C217.768 147.301 217.898 146.836 217.982 146.27C218.074 145.697 218.119 145.013 218.119 144.219ZM224.34 142.002H225.453C225.948 142.002 226.358 141.898 226.684 141.689C227.009 141.475 227.25 141.185 227.406 140.82C227.569 140.449 227.65 140.033 227.65 139.57C227.65 139.023 227.579 138.564 227.436 138.193C227.292 137.822 227.077 137.542 226.791 137.354C226.511 137.165 226.156 137.07 225.727 137.07C225.323 137.07 224.971 137.171 224.672 137.373C224.372 137.568 224.141 137.848 223.979 138.213C223.816 138.577 223.734 139.007 223.734 139.502H222.016C222.016 138.779 222.165 138.122 222.465 137.529C222.771 136.937 223.201 136.465 223.754 136.113C224.314 135.762 224.971 135.586 225.727 135.586C226.449 135.586 227.084 135.739 227.631 136.045C228.178 136.344 228.604 136.794 228.91 137.393C229.223 137.985 229.379 138.724 229.379 139.609C229.379 139.967 229.311 140.352 229.174 140.762C229.044 141.165 228.832 141.543 228.539 141.895C228.253 142.246 227.875 142.536 227.406 142.764C226.944 142.985 226.378 143.096 225.707 143.096H224.34V142.002ZM224.34 143.486V142.402H225.707C226.501 142.402 227.149 142.51 227.65 142.725C228.152 142.939 228.539 143.226 228.812 143.584C229.086 143.942 229.275 144.336 229.379 144.766C229.49 145.189 229.545 145.612 229.545 146.035C229.545 146.699 229.447 147.288 229.252 147.803C229.063 148.317 228.793 148.753 228.441 149.111C228.096 149.469 227.693 149.74 227.23 149.922C226.768 150.104 226.264 150.195 225.717 150.195C225.183 150.195 224.688 150.107 224.232 149.932C223.777 149.756 223.376 149.502 223.031 149.17C222.686 148.831 222.416 148.418 222.221 147.93C222.032 147.435 221.938 146.872 221.938 146.24H223.666C223.666 146.735 223.747 147.168 223.91 147.539C224.073 147.91 224.307 148.2 224.613 148.408C224.919 148.61 225.287 148.711 225.717 148.711C226.146 148.711 226.518 148.617 226.83 148.428C227.143 148.232 227.383 147.939 227.553 147.549C227.729 147.158 227.816 146.667 227.816 146.074C227.816 145.482 227.719 144.997 227.523 144.619C227.335 144.235 227.064 143.952 226.713 143.77C226.361 143.581 225.941 143.486 225.453 143.486H224.34Z" fill="#2383BD"/>
<path d="M67.9 164.32C68.8067 164.32 69.6067 164.48 70.3 164.8C70.9933 165.107 71.5333 165.54 71.92 166.1C72.32 166.647 72.52 167.293 72.52 168.04C72.52 168.76 72.32 169.407 71.92 169.98C71.5333 170.54 70.9933 170.98 70.3 171.3C69.6067 171.607 68.8067 171.76 67.9 171.76C67.02 171.76 66.2333 171.607 65.54 171.3C64.8467 170.98 64.3 170.54 63.9 169.98C63.5 169.407 63.3 168.76 63.3 168.04C63.3 167.293 63.5 166.647 63.9 166.1C64.3 165.54 64.8467 165.107 65.54 164.8C66.2333 164.48 67.02 164.32 67.9 164.32ZM67.9 165.68C67.3267 165.68 66.8133 165.78 66.36 165.98C65.9067 166.18 65.5467 166.46 65.28 166.82C65.0267 167.167 64.9 167.573 64.9 168.04C64.9 168.493 65.0267 168.9 65.28 169.26C65.5467 169.607 65.9067 169.88 66.36 170.08C66.8133 170.28 67.3267 170.38 67.9 170.38C68.5 170.38 69.0267 170.28 69.48 170.08C69.9333 169.88 70.2867 169.607 70.54 169.26C70.8067 168.9 70.94 168.493 70.94 168.04C70.94 167.573 70.8067 167.167 70.54 166.82C70.2867 166.46 69.9333 166.18 69.48 165.98C69.0267 165.78 68.5 165.68 67.9 165.68ZM67.18 173.78H68.84V181H67.18V173.78ZM75.18 163.48H76.82V181.56H75.18V163.48ZM62.18 174.68L61.96 173.28C63.08 173.28 64.3067 173.267 65.64 173.24C66.9867 173.213 68.3667 173.153 69.78 173.06C71.2067 172.967 72.5733 172.82 73.88 172.62L74 173.86C72.6533 174.113 71.28 174.3 69.88 174.42C68.48 174.527 67.12 174.593 65.8 174.62C64.4933 174.647 63.2867 174.667 62.18 174.68ZM86.2584 164.78C87.2051 164.78 88.0384 164.96 88.7584 165.32C89.4918 165.667 90.0651 166.16 90.4784 166.8C90.8918 167.44 91.0984 168.187 91.0984 169.04C91.0984 169.88 90.8918 170.627 90.4784 171.28C90.0651 171.92 89.4918 172.42 88.7584 172.78C88.0384 173.127 87.2051 173.3 86.2584 173.3C85.3251 173.3 84.4918 173.127 83.7584 172.78C83.0251 172.42 82.4451 171.92 82.0184 171.28C81.6051 170.627 81.3984 169.88 81.3984 169.04C81.3984 168.187 81.6051 167.44 82.0184 166.8C82.4451 166.16 83.0251 165.667 83.7584 165.32C84.4918 164.96 85.3251 164.78 86.2584 164.78ZM86.2584 166.22C85.6451 166.22 85.0918 166.34 84.5984 166.58C84.1184 166.807 83.7384 167.133 83.4584 167.56C83.1784 167.987 83.0384 168.48 83.0384 169.04C83.0384 169.6 83.1784 170.093 83.4584 170.52C83.7384 170.947 84.1184 171.28 84.5984 171.52C85.0918 171.747 85.6451 171.86 86.2584 171.86C86.8851 171.86 87.4384 171.747 87.9184 171.52C88.3984 171.28 88.7784 170.947 89.0584 170.52C89.3384 170.093 89.4784 169.6 89.4784 169.04C89.4784 168.48 89.3384 167.987 89.0584 167.56C88.7784 167.133 88.3984 166.807 87.9184 166.58C87.4384 166.34 86.8851 166.22 86.2584 166.22ZM93.4784 163.46H95.1384V181.58H93.4784V163.46ZM80.7184 177.62L80.4984 176.22C81.6051 176.22 82.8184 176.213 84.1384 176.2C85.4584 176.173 86.8184 176.12 88.2184 176.04C89.6318 175.947 90.9918 175.8 92.2984 175.6L92.4384 176.82C91.0784 177.073 89.6984 177.26 88.2984 177.38C86.9118 177.487 85.5718 177.553 84.2784 177.58C82.9851 177.607 81.7984 177.62 80.7184 177.62ZM110.407 168.48H114.407V169.84H110.407V168.48ZM110.267 173.02H114.367V174.38H110.267V173.02ZM117.167 163.46H118.767V181.56H117.167V163.46ZM113.527 163.94H115.107V180.64H113.527V163.94ZM109.507 165.76H111.107C111.107 167.333 110.88 168.847 110.427 170.3C109.973 171.74 109.247 173.087 108.247 174.34C107.26 175.58 105.96 176.687 104.347 177.66L103.367 176.46C104.78 175.607 105.94 174.647 106.847 173.58C107.753 172.5 108.42 171.333 108.847 170.08C109.287 168.813 109.507 167.473 109.507 166.06V165.76ZM104.167 165.76H110.147V167.12H104.167V165.76ZM126.425 165.64H127.785V166.7C127.785 167.753 127.572 168.733 127.145 169.64C126.718 170.533 126.125 171.307 125.365 171.96C124.605 172.613 123.718 173.107 122.705 173.44L121.865 172.14C122.772 171.847 123.565 171.433 124.245 170.9C124.925 170.353 125.458 169.72 125.845 169C126.232 168.28 126.425 167.513 126.425 166.7V165.64ZM126.745 165.64H128.105V166.7C128.105 167.46 128.285 168.18 128.645 168.86C129.018 169.54 129.538 170.14 130.205 170.66C130.885 171.167 131.665 171.56 132.545 171.84L131.745 173.14C130.745 172.82 129.872 172.347 129.125 171.72C128.378 171.093 127.792 170.353 127.365 169.5C126.952 168.633 126.745 167.7 126.745 166.7V165.64ZM122.405 165.14H132.105V166.52H122.405V165.14ZM126.445 172.7H128.105V176.9H126.445V172.7ZM135.205 170.96H138.545V172.38H135.205V170.96ZM134.025 163.46H135.665V181.56H134.025V163.46ZM121.805 177.78L121.565 176.4C122.632 176.4 123.805 176.393 125.085 176.38C126.365 176.353 127.672 176.307 129.005 176.24C130.352 176.16 131.645 176.033 132.885 175.86L133.005 177.08C131.725 177.307 130.418 177.473 129.085 177.58C127.765 177.673 126.478 177.733 125.225 177.76C123.985 177.773 122.845 177.78 121.805 177.78ZM140.184 177.94H156.584V179.32H140.184V177.94ZM147.524 174.08H149.164V178.52H147.524V174.08ZM142.184 164.8H154.544V170.28H143.864V173.9H142.224V168.96H152.904V166.16H142.184V164.8ZM142.224 173.2H154.964V174.56H142.224V173.2ZM168.461 165.703V180H166.732V167.959L163.744 169.287V167.656L168.197 165.703H168.461ZM178.175 172.58H179.835V176.6H178.175V172.58ZM186.195 163.48H187.855V177.22H186.195V163.48ZM175.515 179.8H188.295V181.16H175.515V179.8ZM175.515 175.88H177.175V180.16H175.515V175.88ZM173.175 173.2L172.955 171.82C174.075 171.82 175.288 171.813 176.595 171.8C177.915 171.773 179.261 171.727 180.635 171.66C182.008 171.58 183.335 171.46 184.615 171.3L184.735 172.5C183.441 172.713 182.108 172.873 180.735 172.98C179.375 173.073 178.048 173.133 176.755 173.16C175.461 173.187 174.268 173.2 173.175 173.2ZM182.515 174.16H186.635V175.36H182.515V174.16ZM178.835 164.2C179.728 164.2 180.508 164.333 181.175 164.6C181.841 164.853 182.355 165.22 182.715 165.7C183.088 166.167 183.275 166.72 183.275 167.36C183.275 167.987 183.088 168.54 182.715 169.02C182.355 169.5 181.841 169.867 181.175 170.12C180.508 170.373 179.728 170.5 178.835 170.5C177.955 170.5 177.175 170.373 176.495 170.12C175.828 169.867 175.308 169.5 174.935 169.02C174.575 168.54 174.395 167.987 174.395 167.36C174.395 166.72 174.575 166.167 174.935 165.7C175.308 165.22 175.828 164.853 176.495 164.6C177.175 164.333 177.955 164.2 178.835 164.2ZM178.835 165.44C177.981 165.44 177.288 165.613 176.755 165.96C176.221 166.307 175.955 166.773 175.955 167.36C175.955 167.933 176.221 168.393 176.755 168.74C177.288 169.087 177.981 169.26 178.835 169.26C179.675 169.26 180.361 169.087 180.895 168.74C181.428 168.393 181.695 167.933 181.695 167.36C181.695 166.96 181.575 166.62 181.335 166.34C181.095 166.06 180.761 165.84 180.335 165.68C179.908 165.52 179.408 165.44 178.835 165.44ZM199.613 163.78C201.613 163.78 203.173 164.053 204.293 164.6C205.413 165.133 205.973 165.9 205.973 166.9C205.973 167.913 205.413 168.693 204.293 169.24C203.173 169.773 201.613 170.04 199.613 170.04C197.626 170.04 196.066 169.773 194.933 169.24C193.813 168.693 193.253 167.913 193.253 166.9C193.253 165.9 193.813 165.133 194.933 164.6C196.066 164.053 197.626 163.78 199.613 163.78ZM199.613 165.02C198.64 165.02 197.806 165.093 197.113 165.24C196.42 165.387 195.886 165.6 195.513 165.88C195.153 166.16 194.973 166.5 194.973 166.9C194.973 167.3 195.153 167.647 195.513 167.94C195.886 168.22 196.42 168.433 197.113 168.58C197.806 168.713 198.64 168.78 199.613 168.78C200.6 168.78 201.44 168.713 202.133 168.58C202.826 168.433 203.353 168.22 203.713 167.94C204.086 167.647 204.273 167.3 204.273 166.9C204.273 166.5 204.086 166.16 203.713 165.88C203.353 165.6 202.826 165.387 202.133 165.24C201.44 165.093 200.6 165.02 199.613 165.02ZM191.453 171.26H207.793V172.6H191.453V171.26ZM193.433 174.14H205.693V178.22H195.093V180.4H193.473V177H204.073V175.42H193.433V174.14ZM193.473 180.06H206.233V181.36H193.473V180.06ZM227.601 163.46H229.261V173.18H227.601V163.46ZM217.621 174.08H219.241V176.26H227.621V174.08H229.261V181.32H217.621V174.08ZM219.241 177.58V179.96H227.621V177.58H219.241ZM219.561 164.32C220.481 164.32 221.295 164.5 222.001 164.86C222.708 165.207 223.261 165.693 223.661 166.32C224.075 166.947 224.281 167.673 224.281 168.5C224.281 169.313 224.075 170.04 223.661 170.68C223.261 171.307 222.708 171.793 222.001 172.14C221.295 172.487 220.481 172.66 219.561 172.66C218.655 172.66 217.841 172.487 217.121 172.14C216.415 171.793 215.855 171.307 215.441 170.68C215.041 170.04 214.841 169.313 214.841 168.5C214.841 167.673 215.041 166.947 215.441 166.32C215.855 165.693 216.415 165.207 217.121 164.86C217.841 164.5 218.655 164.32 219.561 164.32ZM219.561 165.72C218.961 165.72 218.428 165.84 217.961 166.08C217.495 166.307 217.128 166.633 216.861 167.06C216.595 167.473 216.461 167.953 216.461 168.5C216.461 169.033 216.595 169.513 216.861 169.94C217.128 170.353 217.495 170.68 217.961 170.92C218.428 171.16 218.961 171.28 219.561 171.28C220.161 171.28 220.695 171.16 221.161 170.92C221.628 170.68 221.995 170.353 222.261 169.94C222.528 169.513 222.661 169.033 222.661 168.5C222.661 167.953 222.528 167.473 222.261 167.06C221.995 166.633 221.628 166.307 221.161 166.08C220.695 165.84 220.161 165.72 219.561 165.72ZM234.92 164.42H246.56V165.78H234.92V164.42ZM232.84 171.08H249.24V172.44H232.84V171.08ZM245.48 164.42H247.12V165.76C247.12 166.52 247.093 167.36 247.04 168.28C246.987 169.2 246.813 170.293 246.52 171.56L244.88 171.46C245.173 170.233 245.347 169.167 245.4 168.26C245.453 167.34 245.48 166.507 245.48 165.76V164.42ZM234.86 174.9H247.18V181.32H234.86V174.9ZM245.54 176.22H236.48V179.96H245.54V176.22ZM264.898 163.48H266.478V174.68H264.898V163.48ZM261.938 168.44H265.358V169.8H261.938V168.44ZM261.058 163.76H262.618V174.4H261.058V163.76ZM251.138 165.52H260.298V166.86H251.138V165.52ZM255.738 167.76C256.498 167.76 257.165 167.893 257.738 168.16C258.325 168.413 258.778 168.773 259.098 169.24C259.432 169.693 259.598 170.233 259.598 170.86C259.598 171.473 259.432 172.013 259.098 172.48C258.778 172.947 258.325 173.313 257.738 173.58C257.165 173.833 256.498 173.96 255.738 173.96C254.992 173.96 254.325 173.833 253.738 173.58C253.152 173.313 252.698 172.947 252.378 172.48C252.058 172.013 251.898 171.473 251.898 170.86C251.898 170.233 252.058 169.693 252.378 169.24C252.698 168.773 253.152 168.413 253.738 168.16C254.325 167.893 254.992 167.76 255.738 167.76ZM255.738 169C255.045 169 254.478 169.167 254.038 169.5C253.598 169.833 253.378 170.287 253.378 170.86C253.378 171.42 253.598 171.873 254.038 172.22C254.478 172.553 255.045 172.72 255.738 172.72C256.445 172.72 257.012 172.553 257.438 172.22C257.878 171.873 258.098 171.42 258.098 170.86C258.098 170.287 257.878 169.833 257.438 169.5C257.012 169.167 256.445 169 255.738 169ZM254.918 163.54H256.558V166.32H254.918V163.54ZM255.998 175.22H257.298V175.82C257.298 176.58 257.132 177.327 256.798 178.06C256.478 178.78 256.012 179.427 255.398 180C254.785 180.573 254.038 181.02 253.158 181.34L252.378 180.08C253.138 179.827 253.785 179.473 254.318 179.02C254.865 178.553 255.278 178.04 255.558 177.48C255.852 176.92 255.998 176.367 255.998 175.82V175.22ZM256.378 175.22H257.618V175.82C257.618 176.393 257.732 176.973 257.958 177.56C258.198 178.133 258.558 178.653 259.038 179.12C259.518 179.587 260.112 179.96 260.818 180.24L260.138 181.5C259.272 181.167 258.558 180.7 257.998 180.1C257.452 179.513 257.045 178.847 256.778 178.1C256.512 177.353 256.378 176.593 256.378 175.82V175.22ZM262.638 175.22H263.878V175.82C263.878 176.5 263.745 177.213 263.478 177.96C263.212 178.707 262.798 179.393 262.238 180.02C261.692 180.66 260.992 181.153 260.138 181.5L259.438 180.24C260.145 179.92 260.732 179.513 261.198 179.02C261.678 178.527 262.038 177.993 262.278 177.42C262.518 176.847 262.638 176.313 262.638 175.82V175.22ZM262.998 175.22H264.278V175.82C264.278 176.407 264.418 176.987 264.698 177.56C264.992 178.12 265.412 178.62 265.958 179.06C266.505 179.5 267.152 179.84 267.898 180.08L267.118 181.34C266.238 181.033 265.492 180.6 264.878 180.04C264.265 179.493 263.798 178.853 263.478 178.12C263.158 177.387 262.998 176.62 262.998 175.82V175.22ZM271.697 174.32H273.337V176.4H282.197V174.32H283.837V181.32H271.697V174.32ZM273.337 177.7V179.98H282.197V177.7H273.337ZM269.637 171.7H285.977V173.06H269.637V171.7ZM276.957 163.66H278.397V164.48C278.397 165.107 278.263 165.7 277.997 166.26C277.73 166.807 277.363 167.313 276.897 167.78C276.443 168.233 275.91 168.64 275.297 169C274.697 169.36 274.043 169.66 273.337 169.9C272.643 170.14 271.923 170.32 271.177 170.44L270.557 169.12C271.21 169.027 271.843 168.88 272.457 168.68C273.083 168.48 273.67 168.24 274.217 167.96C274.763 167.667 275.243 167.34 275.657 166.98C276.07 166.607 276.39 166.213 276.617 165.8C276.843 165.373 276.957 164.933 276.957 164.48V163.66ZM277.237 163.66H278.657V164.48C278.657 164.92 278.77 165.353 278.997 165.78C279.237 166.193 279.563 166.587 279.977 166.96C280.39 167.32 280.863 167.647 281.397 167.94C281.943 168.233 282.523 168.487 283.137 168.7C283.763 168.9 284.397 169.04 285.037 169.12L284.437 170.44C283.69 170.32 282.963 170.14 282.257 169.9C281.563 169.66 280.91 169.36 280.297 169C279.697 168.627 279.163 168.207 278.697 167.74C278.243 167.273 277.883 166.767 277.617 166.22C277.363 165.673 277.237 165.093 277.237 164.48V163.66ZM301.195 163.46H302.835V181.56H301.195V163.46ZM289.175 165.24H290.815V176.44H289.175V165.24ZM289.175 175.46H290.655C292.042 175.46 293.448 175.4 294.875 175.28C296.315 175.147 297.795 174.927 299.315 174.62L299.535 176.02C297.962 176.353 296.448 176.587 294.995 176.72C293.542 176.84 292.095 176.9 290.655 176.9H289.175V175.46ZM318.674 163.46H320.334V181.58H318.674V163.46ZM319.954 170.6H323.294V171.98H319.954V170.6ZM307.214 175.66H308.634C309.74 175.66 310.754 175.647 311.674 175.62C312.607 175.58 313.5 175.513 314.354 175.42C315.22 175.327 316.1 175.2 316.994 175.04L317.194 176.46C316.26 176.62 315.354 176.747 314.474 176.84C313.607 176.933 312.7 176.993 311.754 177.02C310.807 177.047 309.767 177.06 308.634 177.06H307.214V175.66ZM307.214 165.22H315.594V166.58H308.854V176.3H307.214V165.22ZM325.238 179.043C325.238 178.737 325.333 178.48 325.521 178.271C325.717 178.057 325.997 177.949 326.361 177.949C326.726 177.949 327.003 178.057 327.191 178.271C327.387 178.48 327.484 178.737 327.484 179.043C327.484 179.342 327.387 179.596 327.191 179.805C327.003 180.013 326.726 180.117 326.361 180.117C325.997 180.117 325.717 180.013 325.521 179.805C325.333 179.596 325.238 179.342 325.238 179.043ZM74.54 223.26H77.2V233.2H74.54V223.26ZM64.9 234.02H67.52V235.74H74.56V234.02H77.2V241.58H64.9V234.02ZM67.52 237.78V239.46H74.56V237.78H67.52ZM67.12 224.02C68.08 224.02 68.94 224.207 69.7 224.58C70.46 224.953 71.06 225.467 71.5 226.12C71.94 226.773 72.16 227.527 72.16 228.38C72.16 229.233 71.94 229.993 71.5 230.66C71.06 231.313 70.46 231.827 69.7 232.2C68.94 232.573 68.08 232.76 67.12 232.76C66.16 232.76 65.3 232.573 64.54 232.2C63.78 231.827 63.18 231.313 62.74 230.66C62.3 229.993 62.08 229.233 62.08 228.38C62.08 227.527 62.3 226.773 62.74 226.12C63.18 225.467 63.78 224.953 64.54 224.58C65.3 224.207 66.16 224.02 67.12 224.02ZM67.12 226.2C66.6533 226.2 66.2333 226.287 65.86 226.46C65.4867 226.633 65.1933 226.887 64.98 227.22C64.78 227.54 64.68 227.927 64.68 228.38C64.68 228.847 64.78 229.247 64.98 229.58C65.1933 229.9 65.4867 230.147 65.86 230.32C66.2333 230.48 66.6533 230.56 67.12 230.56C67.5867 230.56 68 230.48 68.36 230.32C68.7333 230.147 69.0267 229.9 69.24 229.58C69.4533 229.247 69.56 228.847 69.56 228.38C69.56 227.927 69.4533 227.54 69.24 227.22C69.0267 226.887 68.7333 226.633 68.36 226.46C68 226.287 67.5867 226.2 67.12 226.2ZM82.2784 224.08H93.9984V226.18H82.2784V224.08ZM80.2184 230.74H96.9984V232.84H80.2184V230.74ZM92.3984 224.08H95.0184V225.56C95.0184 226.347 94.9984 227.193 94.9584 228.1C94.9184 229.007 94.7584 230.06 94.4784 231.26L91.8184 231.24C92.1118 230.027 92.2784 228.973 92.3184 228.08C92.3718 227.187 92.3984 226.347 92.3984 225.56V224.08ZM82.1784 234.78H94.9384V241.58H82.1784V234.78ZM92.3384 236.86H84.7984V239.48H92.3384V236.86ZM102.757 226.18H104.857V228.26C104.857 229.287 104.744 230.313 104.517 231.34C104.304 232.367 103.984 233.333 103.557 234.24C103.13 235.133 102.59 235.933 101.937 236.64C101.297 237.347 100.55 237.9 99.6969 238.3L98.1969 236.2C98.9702 235.84 99.6369 235.367 100.197 234.78C100.77 234.193 101.244 233.54 101.617 232.82C102.004 232.1 102.29 231.353 102.477 230.58C102.664 229.793 102.757 229.02 102.757 228.26V226.18ZM103.317 226.18H105.417V228.26C105.417 228.953 105.51 229.667 105.697 230.4C105.884 231.133 106.157 231.84 106.517 232.52C106.89 233.2 107.357 233.82 107.917 234.38C108.49 234.927 109.157 235.373 109.917 235.72L108.437 237.84C107.584 237.44 106.837 236.907 106.197 236.24C105.57 235.56 105.037 234.793 104.597 233.94C104.17 233.073 103.85 232.16 103.637 231.2C103.424 230.227 103.317 229.247 103.317 228.26V226.18ZM98.9169 225.02H109.097V227.22H98.9169V225.02ZM110.437 223.26H113.117V241.78H110.437V223.26ZM112.537 230.32H115.797V232.5H112.537V230.32ZM125.955 225.92H130.675V228.04H125.955V225.92ZM125.955 229.62H130.755V231.74H125.955V229.62ZM129.835 223.26H132.515V234.1H129.835V223.26ZM117.755 224.58H126.515V233.1H117.755V224.58ZM123.915 226.68H120.375V231.02H123.915V226.68ZM126.235 234.58C128.195 234.58 129.742 234.9 130.875 235.54C132.009 236.167 132.575 237.04 132.575 238.16C132.575 239.307 132.009 240.193 130.875 240.82C129.742 241.46 128.195 241.78 126.235 241.78C124.275 241.78 122.729 241.46 121.595 240.82C120.462 240.193 119.895 239.307 119.895 238.16C119.895 237.04 120.462 236.167 121.595 235.54C122.729 234.9 124.275 234.58 126.235 234.58ZM126.235 236.62C125.435 236.62 124.762 236.673 124.215 236.78C123.669 236.887 123.249 237.06 122.955 237.3C122.675 237.527 122.535 237.82 122.535 238.18C122.535 238.527 122.675 238.82 122.955 239.06C123.249 239.287 123.669 239.46 124.215 239.58C124.762 239.687 125.435 239.74 126.235 239.74C127.035 239.74 127.709 239.687 128.255 239.58C128.802 239.46 129.215 239.287 129.495 239.06C129.775 238.82 129.915 238.527 129.915 238.18C129.915 237.82 129.775 237.527 129.495 237.3C129.215 237.06 128.802 236.887 128.255 236.78C127.709 236.673 127.035 236.62 126.235 236.62ZM144.743 233.72H147.423V241.22H144.743V233.72ZM152.863 223.24H155.523V241.76H152.863V223.24ZM140.283 235.26L139.963 233.12C141.15 233.107 142.41 233.1 143.743 233.1C145.076 233.087 146.436 233.047 147.823 232.98C149.21 232.913 150.556 232.8 151.863 232.64L152.003 234.58C150.643 234.807 149.283 234.973 147.923 235.08C146.563 235.173 145.236 235.227 143.943 235.24C142.65 235.253 141.43 235.26 140.283 235.26ZM141.583 229.12H150.743V231.22H141.583V229.12ZM141.583 224.22H150.543V226.34H144.243V230.52H141.583V224.22ZM163.011 231.36H179.791V233.48H163.011V231.36ZM170.031 232.32H172.671V235.24H170.031V232.32ZM169.991 235.98H172.251V236.32C172.251 236.987 172.091 237.627 171.771 238.24C171.464 238.84 171.004 239.38 170.391 239.86C169.778 240.34 169.011 240.74 168.091 241.06C167.184 241.393 166.138 241.613 164.951 241.72L164.091 239.72C165.104 239.627 165.984 239.467 166.731 239.24C167.478 239 168.091 238.727 168.571 238.42C169.051 238.1 169.404 237.76 169.631 237.4C169.871 237.027 169.991 236.667 169.991 236.32V235.98ZM170.451 235.98H172.711V236.32C172.711 236.693 172.824 237.067 173.051 237.44C173.278 237.8 173.631 238.14 174.111 238.46C174.604 238.767 175.218 239.033 175.951 239.26C176.698 239.473 177.578 239.627 178.591 239.72L177.751 241.72C176.578 241.6 175.531 241.38 174.611 241.06C173.704 240.753 172.944 240.367 172.331 239.9C171.718 239.42 171.251 238.88 170.931 238.28C170.611 237.667 170.451 237.013 170.451 236.32V235.98ZM170.031 223.48H172.311V224.04C172.311 224.68 172.198 225.293 171.971 225.88C171.758 226.467 171.444 227.013 171.031 227.52C170.618 228.013 170.104 228.46 169.491 228.86C168.891 229.26 168.191 229.593 167.391 229.86C166.604 230.127 165.731 230.327 164.771 230.46L163.831 228.42C164.658 228.327 165.404 228.18 166.071 227.98C166.751 227.767 167.338 227.513 167.831 227.22C168.324 226.913 168.731 226.587 169.051 226.24C169.384 225.893 169.631 225.533 169.791 225.16C169.951 224.787 170.031 224.413 170.031 224.04V223.48ZM170.471 223.48H172.751V224.04C172.751 224.413 172.831 224.787 172.991 225.16C173.151 225.533 173.391 225.893 173.711 226.24C174.044 226.587 174.458 226.907 174.951 227.2C175.458 227.493 176.044 227.747 176.711 227.96C177.378 228.173 178.124 228.327 178.951 228.42L178.011 230.46C177.051 230.327 176.178 230.127 175.391 229.86C174.604 229.593 173.904 229.26 173.291 228.86C172.691 228.46 172.178 228.013 171.751 227.52C171.338 227.013 171.018 226.467 170.791 225.88C170.578 225.293 170.471 224.68 170.471 224.04V223.48ZM185.569 226.18H187.669V228.26C187.669 229.287 187.556 230.313 187.329 231.34C187.116 232.367 186.796 233.333 186.369 234.24C185.943 235.133 185.403 235.933 184.749 236.64C184.109 237.347 183.363 237.9 182.509 238.3L181.009 236.2C181.783 235.84 182.449 235.367 183.009 234.78C183.583 234.193 184.056 233.54 184.429 232.82C184.816 232.1 185.103 231.353 185.289 230.58C185.476 229.793 185.569 229.02 185.569 228.26V226.18ZM186.129 226.18H188.229V228.26C188.229 228.953 188.323 229.667 188.509 230.4C188.696 231.133 188.969 231.84 189.329 232.52C189.703 233.2 190.169 233.82 190.729 234.38C191.303 234.927 191.969 235.373 192.729 235.72L191.249 237.84C190.396 237.44 189.649 236.907 189.009 236.24C188.383 235.56 187.849 234.793 187.409 233.94C186.983 233.073 186.663 232.16 186.449 231.2C186.236 230.227 186.129 229.247 186.129 228.26V226.18ZM181.729 225.02H191.909V227.22H181.729V225.02ZM193.249 223.26H195.929V241.78H193.249V223.26ZM195.349 230.32H198.609V232.5H195.349V230.32ZM213.041 234.648V236.924H204.359L204.232 235.137L209.066 225.781H211.234L209.018 229.941L206.908 234.648H213.041ZM211.83 225.781V240H209.086V225.781H211.83ZM218.694 226.18H220.794V228.26C220.794 229.287 220.681 230.313 220.454 231.34C220.241 232.367 219.921 233.333 219.494 234.24C219.068 235.133 218.528 235.933 217.874 236.64C217.234 237.347 216.488 237.9 215.634 238.3L214.134 236.2C214.908 235.84 215.574 235.367 216.134 234.78C216.708 234.193 217.181 233.54 217.554 232.82C217.941 232.1 218.228 231.353 218.414 230.58C218.601 229.793 218.694 229.02 218.694 228.26V226.18ZM219.254 226.18H221.354V228.26C221.354 228.953 221.448 229.667 221.634 230.4C221.821 231.133 222.094 231.84 222.454 232.52C222.828 233.2 223.294 233.82 223.854 234.38C224.428 234.927 225.094 235.373 225.854 235.72L224.374 237.84C223.521 237.44 222.774 236.907 222.134 236.24C221.508 235.56 220.974 234.793 220.534 233.94C220.108 233.073 219.788 232.16 219.574 231.2C219.361 230.227 219.254 229.247 219.254 228.26V226.18ZM214.854 225.02H225.034V227.22H214.854V225.02ZM226.374 223.26H229.054V241.78H226.374V223.26ZM228.474 230.32H231.734V232.5H228.474V230.32ZM245.693 223.22H248.373V241.8H245.693V223.22ZM233.953 235.32H235.593C236.686 235.32 237.719 235.307 238.693 235.28C239.666 235.24 240.619 235.18 241.553 235.1C242.486 235.007 243.439 234.873 244.413 234.7L244.693 236.84C243.199 237.107 241.726 237.287 240.273 237.38C238.833 237.46 237.273 237.5 235.593 237.5H233.953V235.32ZM233.913 224.8H242.653V231.98H236.653V236.14H233.953V229.88H239.953V226.94H233.913V224.8ZM268.681 223.26H271.341V236.56H268.681V223.26ZM259.001 239.32H271.821V241.46H259.001V239.32ZM259.001 235.24H261.661V240.2H259.001V235.24ZM261.261 224.44C262.207 224.44 263.061 224.64 263.821 225.04C264.581 225.44 265.181 225.993 265.621 226.7C266.074 227.407 266.301 228.22 266.301 229.14C266.301 230.033 266.074 230.84 265.621 231.56C265.181 232.267 264.581 232.827 263.821 233.24C263.061 233.64 262.207 233.84 261.261 233.84C260.314 233.84 259.461 233.64 258.701 233.24C257.941 232.827 257.334 232.267 256.881 231.56C256.441 230.84 256.221 230.033 256.221 229.14C256.221 228.22 256.441 227.407 256.881 226.7C257.334 225.993 257.941 225.44 258.701 225.04C259.461 224.64 260.314 224.44 261.261 224.44ZM261.261 226.72C260.807 226.72 260.394 226.82 260.021 227.02C259.647 227.207 259.354 227.48 259.141 227.84C258.927 228.187 258.821 228.62 258.821 229.14C258.821 229.633 258.927 230.06 259.141 230.42C259.354 230.767 259.647 231.04 260.021 231.24C260.394 231.427 260.807 231.52 261.261 231.52C261.714 231.52 262.127 231.427 262.501 231.24C262.874 231.04 263.167 230.767 263.381 230.42C263.594 230.06 263.701 229.633 263.701 229.14C263.701 228.62 263.594 228.187 263.381 227.84C263.167 227.48 262.874 227.207 262.501 227.02C262.127 226.82 261.714 226.72 261.261 226.72ZM274.339 231.8H291.099V233.9H274.339V231.8ZM282.679 234.92C284.679 234.92 286.252 235.22 287.399 235.82C288.546 236.42 289.119 237.26 289.119 238.34C289.119 239.433 288.546 240.28 287.399 240.88C286.252 241.48 284.679 241.78 282.679 241.78C280.679 241.78 279.106 241.48 277.959 240.88C276.826 240.28 276.259 239.433 276.259 238.34C276.259 237.26 276.826 236.42 277.959 235.82C279.106 235.22 280.679 234.92 282.679 234.92ZM282.679 236.96C281.852 236.96 281.159 237.013 280.599 237.12C280.052 237.213 279.639 237.36 279.359 237.56C279.079 237.76 278.939 238.02 278.939 238.34C278.939 238.66 279.079 238.927 279.359 239.14C279.639 239.34 280.052 239.487 280.599 239.58C281.159 239.673 281.852 239.72 282.679 239.72C283.506 239.72 284.192 239.673 284.739 239.58C285.299 239.487 285.719 239.34 285.999 239.14C286.279 238.927 286.419 238.66 286.419 238.34C286.419 238.02 286.279 237.76 285.999 237.56C285.719 237.36 285.299 237.213 284.739 237.12C284.192 237.013 283.506 236.96 282.679 236.96ZM280.899 225.16H283.259V225.6C283.259 226.147 283.159 226.68 282.959 227.2C282.759 227.707 282.459 228.18 282.059 228.62C281.672 229.047 281.186 229.433 280.599 229.78C280.012 230.113 279.332 230.393 278.559 230.62C277.786 230.847 276.926 231.007 275.979 231.1L275.059 229.02C275.872 228.953 276.592 228.84 277.219 228.68C277.859 228.507 278.406 228.307 278.859 228.08C279.326 227.84 279.706 227.587 279.999 227.32C280.306 227.053 280.532 226.773 280.679 226.48C280.826 226.173 280.899 225.88 280.899 225.6V225.16ZM282.199 225.16H284.539V225.6C284.539 225.893 284.612 226.187 284.759 226.48C284.906 226.773 285.126 227.06 285.419 227.34C285.726 227.607 286.106 227.86 286.559 228.1C287.026 228.327 287.572 228.52 288.199 228.68C288.839 228.84 289.566 228.953 290.379 229.02L289.459 231.1C288.512 231.007 287.652 230.853 286.879 230.64C286.106 230.413 285.426 230.127 284.839 229.78C284.266 229.433 283.779 229.047 283.379 228.62C282.992 228.18 282.699 227.707 282.499 227.2C282.299 226.693 282.199 226.16 282.199 225.6V225.16ZM275.879 224.12H289.599V226.22H275.879V224.12ZM301.498 228.16H306.258V230.3H301.498V228.16ZM305.578 223.26H308.258V236.92H305.578V223.26ZM295.998 239.32H308.658V241.46H295.998V239.32ZM295.998 235.58H298.658V240.54H295.998V235.58ZM293.518 224.48H296.158V227.28H299.678V224.48H302.298V234.04H293.518V224.48ZM296.158 229.32V231.92H299.678V229.32H296.158ZM311.876 225.56H327.136V227.68H311.876V225.56ZM311.156 237.78H327.936V239.92H311.156V237.78ZM318.176 235.32H320.836V238.62H318.176V235.32ZM319.496 228.46C320.776 228.46 321.883 228.607 322.816 228.9C323.763 229.18 324.489 229.593 324.996 230.14C325.503 230.673 325.756 231.32 325.756 232.08C325.756 232.84 325.503 233.493 324.996 234.04C324.489 234.573 323.763 234.987 322.816 235.28C321.883 235.56 320.769 235.7 319.476 235.7C318.196 235.7 317.083 235.56 316.136 235.28C315.203 234.987 314.483 234.573 313.976 234.04C313.469 233.493 313.216 232.84 313.216 232.08C313.216 231.32 313.469 230.673 313.976 230.14C314.483 229.593 315.203 229.18 316.136 228.9C317.083 228.607 318.203 228.46 319.496 228.46ZM319.476 230.52C318.716 230.52 318.069 230.58 317.536 230.7C317.003 230.807 316.596 230.973 316.316 231.2C316.049 231.427 315.916 231.72 315.916 232.08C315.916 232.427 316.049 232.72 316.316 232.96C316.596 233.187 317.003 233.353 317.536 233.46C318.069 233.567 318.716 233.62 319.476 233.62C320.263 233.62 320.916 233.567 321.436 233.46C321.956 233.353 322.349 233.187 322.616 232.96C322.896 232.72 323.036 232.427 323.036 232.08C323.036 231.72 322.896 231.427 322.616 231.2C322.349 230.973 321.956 230.807 321.436 230.7C320.916 230.58 320.263 230.52 319.476 230.52ZM318.176 223.44H320.836V226.88H318.176V223.44ZM329.554 231.56H346.314V233.48H329.554V231.56ZM331.434 234.42H344.334V238.82H334.094V240.4H331.454V237.14H341.714V236.22H331.434V234.42ZM331.454 239.82H344.854V241.62H331.454V239.82ZM331.594 223.56H344.274V227.94H334.254V229.44H331.634V226.26H341.654V225.36H331.594V223.56ZM331.634 228.9H344.614V230.7H331.634V228.9ZM66 261.72H68.66V264.36H66V261.72ZM73.84 253.26H76.5V265.88H73.84V253.26ZM75.58 258.54H78.84V260.74H75.58V258.54ZM61.9 265.5L61.6 263.44C62.7067 263.44 63.9067 263.433 65.2 263.42C66.5067 263.407 67.8267 263.367 69.16 263.3C70.4933 263.22 71.7867 263.107 73.04 262.96L73.24 264.78C71.9467 265.007 70.6333 265.173 69.3 265.28C67.9667 265.373 66.6667 265.433 65.4 265.46C64.1467 265.473 62.98 265.487 61.9 265.5ZM63.94 266.6H76.5V271.78H73.84V268.66H63.94V266.6ZM62.06 254.6H72.58V256.52H62.06V254.6ZM67.32 256.96C68.6933 256.96 69.7867 257.207 70.6 257.7C71.4267 258.18 71.84 258.847 71.84 259.7C71.84 260.553 71.4267 261.227 70.6 261.72C69.7867 262.213 68.6933 262.46 67.32 262.46C65.96 262.46 64.8667 262.213 64.04 261.72C63.2267 261.227 62.82 260.553 62.82 259.7C62.82 258.847 63.2267 258.18 64.04 257.7C64.8667 257.207 65.96 256.96 67.32 256.96ZM67.32 258.68C66.6933 258.68 66.2067 258.767 65.86 258.94C65.5133 259.113 65.34 259.367 65.34 259.7C65.34 260.033 65.5133 260.293 65.86 260.48C66.2067 260.653 66.6933 260.74 67.32 260.74C67.9467 260.74 68.4333 260.653 68.78 260.48C69.14 260.293 69.32 260.033 69.32 259.7C69.32 259.367 69.14 259.113 68.78 258.94C68.4333 258.767 67.9467 258.68 67.32 258.68ZM66 253.1H68.66V255.48H66V253.1ZM92.9384 253.26H95.5984V266.56H92.9384V253.26ZM83.2584 269.32H96.0784V271.46H83.2584V269.32ZM83.2584 265.24H85.9184V270.2H83.2584V265.24ZM85.5184 254.44C86.4651 254.44 87.3184 254.64 88.0784 255.04C88.8384 255.44 89.4384 255.993 89.8784 256.7C90.3318 257.407 90.5584 258.22 90.5584 259.14C90.5584 260.033 90.3318 260.84 89.8784 261.56C89.4384 262.267 88.8384 262.827 88.0784 263.24C87.3184 263.64 86.4651 263.84 85.5184 263.84C84.5718 263.84 83.7184 263.64 82.9584 263.24C82.1984 262.827 81.5918 262.267 81.1384 261.56C80.6984 260.84 80.4784 260.033 80.4784 259.14C80.4784 258.22 80.6984 257.407 81.1384 256.7C81.5918 255.993 82.1984 255.44 82.9584 255.04C83.7184 254.64 84.5718 254.44 85.5184 254.44ZM85.5184 256.72C85.0651 256.72 84.6518 256.82 84.2784 257.02C83.9051 257.207 83.6118 257.48 83.3984 257.84C83.1851 258.187 83.0784 258.62 83.0784 259.14C83.0784 259.633 83.1851 260.06 83.3984 260.42C83.6118 260.767 83.9051 261.04 84.2784 261.24C84.6518 261.427 85.0651 261.52 85.5184 261.52C85.9718 261.52 86.3851 261.427 86.7584 261.24C87.1318 261.04 87.4251 260.767 87.6384 260.42C87.8518 260.06 87.9584 259.633 87.9584 259.14C87.9584 258.62 87.8518 258.187 87.6384 257.84C87.4251 257.48 87.1318 257.207 86.7584 257.02C86.3851 256.82 85.9718 256.72 85.5184 256.72ZM104.006 255.18H119.106V257.26H104.006V255.18ZM103.226 265.24H120.006V267.36H103.226V265.24ZM110.266 267.12H112.906V271.78H110.266V267.12ZM111.606 257.98C113.593 257.98 115.146 258.253 116.266 258.8C117.386 259.347 117.946 260.133 117.946 261.16C117.946 262.187 117.386 262.98 116.266 263.54C115.146 264.087 113.586 264.36 111.586 264.36C109.6 264.36 108.046 264.087 106.926 263.54C105.806 262.98 105.246 262.187 105.246 261.16C105.246 260.133 105.806 259.347 106.926 258.8C108.046 258.253 109.606 257.98 111.606 257.98ZM111.586 259.96C110.386 259.96 109.486 260.053 108.886 260.24C108.3 260.427 108.006 260.733 108.006 261.16C108.006 261.573 108.3 261.88 108.886 262.08C109.486 262.28 110.386 262.38 111.586 262.38C112.8 262.38 113.7 262.28 114.286 262.08C114.886 261.88 115.186 261.573 115.186 261.16C115.186 260.733 114.886 260.427 114.286 260.24C113.7 260.053 112.8 259.96 111.586 259.96ZM110.266 253.24H112.906V256.56H110.266V253.24ZM138.954 253.26H141.614V263.2H138.954V253.26ZM129.314 264.02H131.934V265.74H138.974V264.02H141.614V271.58H129.314V264.02ZM131.934 267.78V269.46H138.974V267.78H131.934ZM131.534 254.02C132.494 254.02 133.354 254.207 134.114 254.58C134.874 254.953 135.474 255.467 135.914 256.12C136.354 256.773 136.574 257.527 136.574 258.38C136.574 259.233 136.354 259.993 135.914 260.66C135.474 261.313 134.874 261.827 134.114 262.2C133.354 262.573 132.494 262.76 131.534 262.76C130.574 262.76 129.714 262.573 128.954 262.2C128.194 261.827 127.594 261.313 127.154 260.66C126.714 259.993 126.494 259.233 126.494 258.38C126.494 257.527 126.714 256.773 127.154 256.12C127.594 255.467 128.194 254.953 128.954 254.58C129.714 254.207 130.574 254.02 131.534 254.02ZM131.534 256.2C131.067 256.2 130.647 256.287 130.274 256.46C129.901 256.633 129.607 256.887 129.394 257.22C129.194 257.54 129.094 257.927 129.094 258.38C129.094 258.847 129.194 259.247 129.394 259.58C129.607 259.9 129.901 260.147 130.274 260.32C130.647 260.48 131.067 260.56 131.534 260.56C132.001 260.56 132.414 260.48 132.774 260.32C133.147 260.147 133.441 259.9 133.654 259.58C133.867 259.247 133.974 258.847 133.974 258.38C133.974 257.927 133.867 257.54 133.654 257.22C133.441 256.887 133.147 256.633 132.774 256.46C132.414 256.287 132.001 256.2 131.534 256.2ZM145.333 262.06H146.733C147.893 262.06 148.886 262.053 149.713 262.04C150.553 262.013 151.319 261.967 152.013 261.9C152.706 261.833 153.393 261.74 154.073 261.62L154.353 263.74C153.806 263.833 153.266 263.913 152.733 263.98C152.213 264.047 151.653 264.093 151.053 264.12C150.466 264.147 149.819 264.167 149.113 264.18C148.419 264.193 147.626 264.2 146.733 264.2H145.333V262.06ZM145.293 254.3H153.433V260.14H147.973V263.48H145.333V258.16H150.813V256.42H145.293V254.3ZM157.453 253.26H160.133V264.68H157.453V253.26ZM154.493 255.82H157.953V257.94H154.493V255.82ZM154.493 259.76H157.953V261.88H154.493V259.76ZM147.433 265.52H160.133V271.78H157.453V267.62H147.433V265.52ZM163.011 256.04H171.871V258.14H163.011V256.04ZM167.471 258.98C168.258 258.98 168.951 259.167 169.551 259.54C170.164 259.913 170.644 260.433 170.991 261.1C171.351 261.753 171.531 262.513 171.531 263.38C171.531 264.247 171.351 265.013 170.991 265.68C170.644 266.333 170.164 266.847 169.551 267.22C168.951 267.593 168.258 267.78 167.471 267.78C166.684 267.78 165.984 267.593 165.371 267.22C164.758 266.847 164.278 266.333 163.931 265.68C163.584 265.013 163.411 264.247 163.411 263.38C163.411 262.513 163.584 261.753 163.931 261.1C164.278 260.433 164.758 259.913 165.371 259.54C165.998 259.167 166.698 258.98 167.471 258.98ZM167.471 261.18C167.151 261.18 166.858 261.267 166.591 261.44C166.324 261.613 166.118 261.867 165.971 262.2C165.824 262.52 165.751 262.913 165.751 263.38C165.751 263.847 165.824 264.247 165.971 264.58C166.118 264.913 166.324 265.167 166.591 265.34C166.858 265.5 167.151 265.58 167.471 265.58C167.804 265.58 168.098 265.5 168.351 265.34C168.604 265.167 168.804 264.913 168.951 264.58C169.098 264.247 169.171 263.847 169.171 263.38C169.171 262.913 169.098 262.52 168.951 262.2C168.804 261.867 168.604 261.613 168.351 261.44C168.098 261.267 167.804 261.18 167.471 261.18ZM176.411 253.24H178.931V271.76H176.411V253.24ZM174.191 260.78H177.231V262.92H174.191V260.78ZM172.511 253.58H174.991V270.98H172.511V253.58ZM166.171 253.74H168.791V257.36H166.171V253.74ZM188.269 255.3H190.589V255.86C190.589 256.5 190.483 257.12 190.269 257.72C190.069 258.32 189.763 258.88 189.349 259.4C188.936 259.907 188.429 260.367 187.829 260.78C187.243 261.18 186.563 261.52 185.789 261.8C185.016 262.08 184.156 262.28 183.209 262.4L182.229 260.34C183.056 260.233 183.789 260.073 184.429 259.86C185.083 259.633 185.649 259.373 186.129 259.08C186.609 258.773 187.009 258.447 187.329 258.1C187.649 257.753 187.883 257.387 188.029 257C188.189 256.613 188.269 256.233 188.269 255.86V255.3ZM189.049 255.3H191.349V255.86C191.349 256.233 191.423 256.613 191.569 257C191.729 257.387 191.969 257.753 192.289 258.1C192.609 258.447 193.009 258.773 193.489 259.08C193.983 259.373 194.549 259.633 195.189 259.86C195.829 260.073 196.563 260.233 197.389 260.34L196.409 262.4C195.463 262.28 194.603 262.08 193.829 261.8C193.056 261.52 192.369 261.18 191.769 260.78C191.183 260.367 190.683 259.907 190.269 259.4C189.869 258.88 189.563 258.32 189.349 257.72C189.149 257.12 189.049 256.5 189.049 255.86V255.3ZM188.409 265H191.069V271.78H188.409V265ZM181.429 263.46H198.189V265.6H181.429V263.46ZM182.909 254.2H196.649V256.3H182.909V254.2ZM207.108 259.48H210.188V261.64H207.108V259.48ZM203.168 254.86H205.188V257.96C205.188 259.013 205.114 260.047 204.968 261.06C204.821 262.073 204.581 263.027 204.248 263.92C203.928 264.813 203.501 265.62 202.968 266.34C202.448 267.047 201.814 267.627 201.068 268.08L199.468 266.08C200.161 265.667 200.741 265.16 201.208 264.56C201.674 263.96 202.054 263.3 202.348 262.58C202.641 261.86 202.848 261.113 202.968 260.34C203.101 259.553 203.168 258.76 203.168 257.96V254.86ZM203.748 254.86H205.728V257.84C205.728 258.6 205.781 259.353 205.888 260.1C206.008 260.847 206.194 261.56 206.448 262.24C206.701 262.92 207.034 263.547 207.448 264.12C207.874 264.693 208.408 265.187 209.048 265.6L207.588 267.68C206.868 267.227 206.254 266.653 205.748 265.96C205.254 265.253 204.861 264.46 204.568 263.58C204.274 262.7 204.061 261.773 203.928 260.8C203.808 259.827 203.748 258.84 203.748 257.84V254.86ZM213.188 253.24H215.728V271.76H213.188V253.24ZM209.428 253.54H211.908V270.94H209.428V253.54ZM221.906 262.66H224.566V267.84H221.906V262.66ZM228.626 262.66H231.286V267.84H228.626V262.66ZM218.226 267.46H235.006V269.62H218.226V267.46ZM226.586 254.16C227.92 254.16 229.106 254.367 230.146 254.78C231.2 255.193 232.02 255.773 232.606 256.52C233.206 257.253 233.506 258.127 233.506 259.14C233.506 260.14 233.206 261.013 232.606 261.76C232.02 262.493 231.2 263.067 230.146 263.48C229.106 263.893 227.92 264.1 226.586 264.1C225.266 264.1 224.08 263.893 223.026 263.48C221.986 263.067 221.166 262.493 220.566 261.76C219.966 261.013 219.666 260.14 219.666 259.14C219.666 258.127 219.966 257.253 220.566 256.52C221.166 255.773 221.986 255.193 223.026 254.78C224.08 254.367 225.266 254.16 226.586 254.16ZM226.586 256.22C225.733 256.22 224.98 256.34 224.326 256.58C223.686 256.807 223.186 257.133 222.826 257.56C222.466 257.987 222.286 258.513 222.286 259.14C222.286 259.74 222.466 260.26 222.826 260.7C223.186 261.127 223.686 261.46 224.326 261.7C224.98 261.927 225.733 262.04 226.586 262.04C227.453 262.04 228.206 261.927 228.846 261.7C229.5 261.46 230 261.127 230.346 260.7C230.706 260.26 230.886 259.74 230.886 259.14C230.886 258.513 230.706 257.987 230.346 257.56C230 257.133 229.5 256.807 228.846 256.58C228.206 256.34 227.453 256.22 226.586 256.22ZM237.045 268.604C237.045 268.174 237.188 267.816 237.475 267.529C237.761 267.236 238.148 267.09 238.637 267.09C239.125 267.09 239.512 267.236 239.799 267.529C240.085 267.816 240.229 268.174 240.229 268.604C240.229 269.033 240.085 269.391 239.799 269.678C239.512 269.964 239.125 270.107 238.637 270.107C238.148 270.107 237.761 269.964 237.475 269.678C237.188 269.391 237.045 269.033 237.045 268.604Z" fill="black"/>
<path d="M27.416 12.0469V12.7578L23.2939 22H21.9609L26.0762 13.0859H20.6895V12.0469H27.416ZM28.9404 21.3301C28.9404 21.1159 29.0065 20.9359 29.1387 20.79C29.2754 20.6396 29.4714 20.5645 29.7266 20.5645C29.9818 20.5645 30.1755 20.6396 30.3076 20.79C30.4443 20.9359 30.5127 21.1159 30.5127 21.3301C30.5127 21.5397 30.4443 21.7174 30.3076 21.8633C30.1755 22.0091 29.9818 22.082 29.7266 22.082C29.4714 22.082 29.2754 22.0091 29.1387 21.8633C29.0065 21.7174 28.9404 21.5397 28.9404 21.3301ZM28.9473 15.2939C28.9473 15.0798 29.0133 14.8997 29.1455 14.7539C29.2822 14.6035 29.4782 14.5283 29.7334 14.5283C29.9886 14.5283 30.1823 14.6035 30.3145 14.7539C30.4512 14.8997 30.5195 15.0798 30.5195 15.2939C30.5195 15.5036 30.4512 15.6813 30.3145 15.8271C30.1823 15.973 29.9886 16.0459 29.7334 16.0459C29.4782 16.0459 29.2822 15.973 29.1455 15.8271C29.0133 15.6813 28.9473 15.5036 28.9473 15.2939ZM34.0947 16.4014H34.9971C35.4391 16.4014 35.8037 16.3285 36.0908 16.1826C36.3825 16.0322 36.599 15.8294 36.7402 15.5742C36.8861 15.3145 36.959 15.0228 36.959 14.6992C36.959 14.3164 36.8952 13.9951 36.7676 13.7354C36.64 13.4756 36.4486 13.2796 36.1934 13.1475C35.9382 13.0153 35.6146 12.9492 35.2227 12.9492C34.8672 12.9492 34.5527 13.0199 34.2793 13.1611C34.0104 13.2979 33.7985 13.4938 33.6436 13.749C33.4932 14.0042 33.418 14.305 33.418 14.6514H32.1533C32.1533 14.1455 32.2809 13.6852 32.5361 13.2705C32.7913 12.8558 33.1491 12.5254 33.6094 12.2793C34.0742 12.0332 34.612 11.9102 35.2227 11.9102C35.8242 11.9102 36.3506 12.0173 36.8018 12.2314C37.2529 12.4411 37.6038 12.7555 37.8545 13.1748C38.1051 13.5895 38.2305 14.1068 38.2305 14.7266C38.2305 14.9772 38.1712 15.2461 38.0527 15.5332C37.9388 15.8158 37.7588 16.0801 37.5127 16.3262C37.2712 16.5723 36.9567 16.7751 36.5693 16.9346C36.182 17.0895 35.7171 17.167 35.1748 17.167H34.0947V16.4014ZM34.0947 17.4404V16.6816H35.1748C35.8083 16.6816 36.3324 16.7568 36.7471 16.9072C37.1618 17.0576 37.4876 17.2581 37.7246 17.5088C37.9661 17.7594 38.1348 18.0352 38.2305 18.3359C38.3307 18.6322 38.3809 18.9284 38.3809 19.2246C38.3809 19.6895 38.3011 20.1019 38.1416 20.4619C37.9867 20.8219 37.7656 21.1273 37.4785 21.3779C37.196 21.6286 36.8633 21.8177 36.4805 21.9453C36.0977 22.0729 35.6807 22.1367 35.2295 22.1367C34.7965 22.1367 34.3887 22.0752 34.0059 21.9521C33.6276 21.8291 33.2926 21.6514 33.001 21.4189C32.7093 21.182 32.4814 20.8926 32.3174 20.5508C32.1533 20.2044 32.0713 19.8102 32.0713 19.3682H33.3359C33.3359 19.7145 33.4111 20.0176 33.5615 20.2773C33.7165 20.5371 33.9352 20.7399 34.2178 20.8857C34.5049 21.027 34.8421 21.0977 35.2295 21.0977C35.6169 21.0977 35.9495 21.0316 36.2275 20.8994C36.5101 20.7627 36.7266 20.5576 36.877 20.2842C37.0319 20.0107 37.1094 19.6667 37.1094 19.252C37.1094 18.8372 37.0228 18.4977 36.8496 18.2334C36.6764 17.9645 36.4303 17.7663 36.1113 17.6387C35.7969 17.5065 35.4255 17.4404 34.9971 17.4404H34.0947ZM46.3721 16.2305V17.748C46.3721 18.5638 46.2992 19.252 46.1533 19.8125C46.0075 20.373 45.7979 20.8242 45.5244 21.166C45.251 21.5078 44.9206 21.7562 44.5332 21.9111C44.1504 22.0615 43.7174 22.1367 43.2344 22.1367C42.8516 22.1367 42.4984 22.0889 42.1748 21.9932C41.8512 21.8975 41.5596 21.7448 41.2998 21.5352C41.0446 21.321 40.8258 21.043 40.6436 20.7012C40.4613 20.3594 40.3223 19.9447 40.2266 19.457C40.1309 18.9694 40.083 18.3997 40.083 17.748V16.2305C40.083 15.4147 40.1559 14.7311 40.3018 14.1797C40.4521 13.6283 40.6641 13.1862 40.9375 12.8535C41.2109 12.5163 41.5391 12.2747 41.9219 12.1289C42.3092 11.9831 42.7422 11.9102 43.2207 11.9102C43.6081 11.9102 43.9635 11.958 44.2871 12.0537C44.6152 12.1449 44.9069 12.293 45.1621 12.498C45.4173 12.6986 45.6338 12.9674 45.8115 13.3047C45.9938 13.6374 46.1328 14.0452 46.2285 14.5283C46.3242 15.0114 46.3721 15.5788 46.3721 16.2305ZM45.1006 17.9531V16.0186C45.1006 15.5719 45.0732 15.18 45.0186 14.8428C44.9684 14.501 44.8932 14.2093 44.793 13.9678C44.6927 13.7262 44.5651 13.5303 44.4102 13.3799C44.2598 13.2295 44.0843 13.1201 43.8838 13.0518C43.6878 12.9788 43.4668 12.9424 43.2207 12.9424C42.9199 12.9424 42.6533 12.9993 42.4209 13.1133C42.1885 13.2227 41.9925 13.3981 41.833 13.6396C41.6781 13.8812 41.5596 14.1979 41.4775 14.5898C41.3955 14.9818 41.3545 15.458 41.3545 16.0186V17.9531C41.3545 18.3997 41.3796 18.7939 41.4297 19.1357C41.4844 19.4775 41.5641 19.7738 41.6689 20.0244C41.7738 20.2705 41.9014 20.4733 42.0518 20.6328C42.2021 20.7923 42.3753 20.9108 42.5713 20.9883C42.7718 21.0612 42.9928 21.0977 43.2344 21.0977C43.5443 21.0977 43.8154 21.0384 44.0479 20.9199C44.2803 20.8014 44.474 20.6169 44.6289 20.3662C44.7884 20.111 44.9069 19.7852 44.9844 19.3887C45.0618 18.9876 45.1006 18.5091 45.1006 17.9531ZM55.4844 12.9287L52.1895 22H50.8428L54.6367 12.0469H55.5049L55.4844 12.9287ZM58.2461 22L54.9443 12.9287L54.9238 12.0469H55.792L59.5996 22H58.2461ZM58.0752 18.3154V19.3955H52.4834V18.3154H58.0752ZM61.3496 12.0469H62.6279L65.8887 20.1611L69.1426 12.0469H70.4277L66.3809 22H65.3828L61.3496 12.0469ZM60.9326 12.0469H62.0605L62.2451 18.1172V22H60.9326V12.0469ZM69.71 12.0469H70.8379V22H69.5254V18.1172L69.71 12.0469Z" fill="#0C0C0C"/>
<path d="M322.792 12.9478L324.375 14.5311C328.309 10.5966 334.69 10.5966 338.625 14.5311L340.208 12.9478C335.403 8.1424 327.605 8.1424 322.792 12.9478ZM329.125 19.2811L331.5 21.6561L333.875 19.2811C332.569 17.967 330.439 17.967 329.125 19.2811ZM325.958 16.1145L327.542 17.6978C329.727 15.5128 333.273 15.5128 335.458 17.6978L337.042 16.1145C333.986 13.0586 329.022 13.0586 325.958 16.1145Z" fill="#0C0C0C"/>
<path d="M362.75 9.3335H365.25V22.6668H362.75V9.3335ZM352.75 17.6668H355.25V22.6668H352.75V17.6668ZM357.75 13.5002H360.25V22.6668H357.75V13.5002Z" fill="#0C0C0C"/>
<path d="M391.362 9.55847L391.1 24.4572L382.823 24.3114L383.085 9.41273L385.568 9.45645L385.597 7.80104L388.908 7.85934L388.879 9.51475L391.362 9.55847ZM389.678 11.1847L384.711 11.0973L384.653 14.4081L389.619 14.4956L389.678 11.1847Z" fill="#0C0C0C"/>
<g filter="url(#filter1_d_345_3053)">
<rect x="139" y="349" width="29" height="29" rx="8" fill="#FBFCFB" shape-rendering="crispEdges"/>
<path d="M150.008 363.469L151.578 361.312L149.219 360.609L149.586 359.438L151.945 360.305L151.875 357.617H153.062L152.984 360.352L155.312 359.484L155.672 360.68L153.273 361.391L154.812 363.508L153.844 364.234L152.398 361.984L150.984 364.18L150.008 363.469Z" fill="#109FF9"/>
</g>
<g filter="url(#filter2_d_345_3053)">
<rect x="172" y="349" width="29" height="29" rx="8" fill="#FBFCFB" shape-rendering="crispEdges"/>
<path d="M183.008 363.469L184.578 361.312L182.219 360.609L182.586 359.438L184.945 360.305L184.875 357.617H186.062L185.984 360.352L188.312 359.484L188.672 360.68L186.273 361.391L187.812 363.508L186.844 364.234L185.398 361.984L183.984 364.18L183.008 363.469Z" fill="#109FF9"/>
</g>
<g filter="url(#filter3_d_345_3053)">
<rect x="205" y="349" width="29" height="29" rx="8" fill="#FBFCFB" shape-rendering="crispEdges"/>
<path d="M216.008 363.469L217.578 361.312L215.219 360.609L215.586 359.438L217.945 360.305L217.875 357.617H219.062L218.984 360.352L221.312 359.484L221.672 360.68L219.273 361.391L220.812 363.508L219.844 364.234L218.398 361.984L216.984 364.18L216.008 363.469Z" fill="#109FF9"/>
</g>
<g filter="url(#filter4_d_345_3053)">
<rect x="238" y="350" width="29" height="29" rx="8" fill="#FBFCFB" shape-rendering="crispEdges"/>
<path d="M249.008 364.469L250.578 362.312L248.219 361.609L248.586 360.438L250.945 361.305L250.875 358.617H252.062L251.984 361.352L254.312 360.484L254.672 361.68L252.273 362.391L253.812 364.508L252.844 365.234L251.398 362.984L249.984 365.18L249.008 364.469Z" fill="#109FF9"/>
</g>
<g filter="url(#filter5_d_345_3053)">
<rect x="61.5" y="303.5" width="290" height="92" rx="19.5" stroke="#FBFCFB" shape-rendering="crispEdges"/>
</g>
<path d="M89.496 320.076H90.492V325.908H89.496V320.076ZM83.508 326.448H84.48V327.756H89.508V326.448H90.492V330.792H83.508V326.448ZM84.48 328.548V329.976H89.508V328.548H84.48ZM84.672 320.592C85.224 320.592 85.712 320.7 86.136 320.916C86.56 321.124 86.892 321.416 87.132 321.792C87.38 322.168 87.504 322.604 87.504 323.1C87.504 323.588 87.38 324.024 87.132 324.408C86.892 324.784 86.56 325.076 86.136 325.284C85.712 325.492 85.224 325.596 84.672 325.596C84.128 325.596 83.64 325.492 83.208 325.284C82.784 325.076 82.448 324.784 82.2 324.408C81.96 324.024 81.84 323.588 81.84 323.1C81.84 322.604 81.96 322.168 82.2 321.792C82.448 321.416 82.784 321.124 83.208 320.916C83.64 320.7 84.128 320.592 84.672 320.592ZM84.672 321.432C84.312 321.432 83.992 321.504 83.712 321.648C83.432 321.784 83.212 321.98 83.052 322.236C82.892 322.484 82.812 322.772 82.812 323.1C82.812 323.42 82.892 323.708 83.052 323.964C83.212 324.212 83.432 324.408 83.712 324.552C83.992 324.696 84.312 324.768 84.672 324.768C85.032 324.768 85.352 324.696 85.632 324.552C85.912 324.408 86.132 324.212 86.292 323.964C86.452 323.708 86.532 323.42 86.532 323.1C86.532 322.772 86.452 322.484 86.292 322.236C86.132 321.98 85.912 321.784 85.632 321.648C85.352 321.504 85.032 321.432 84.672 321.432ZM93.8871 320.652H100.871V321.468H93.8871V320.652ZM92.6391 324.648H102.479V325.464H92.6391V324.648ZM100.223 320.652H101.207V321.456C101.207 321.912 101.191 322.416 101.159 322.968C101.127 323.52 101.023 324.176 100.847 324.936L99.8631 324.876C100.039 324.14 100.143 323.5 100.175 322.956C100.207 322.404 100.223 321.904 100.223 321.456V320.652ZM93.8511 326.94H101.243V330.792H93.8511V326.94ZM100.259 327.732H94.8231V329.976H100.259V327.732ZM106.354 321.636H107.158V323.388C107.158 323.956 107.078 324.52 106.918 325.08C106.758 325.632 106.534 326.156 106.246 326.652C105.966 327.14 105.642 327.576 105.274 327.96C104.906 328.336 104.51 328.632 104.086 328.848L103.498 328.056C103.89 327.864 104.254 327.604 104.59 327.276C104.934 326.94 105.238 326.56 105.502 326.136C105.766 325.704 105.974 325.256 106.126 324.792C106.278 324.32 106.354 323.852 106.354 323.388V321.636ZM106.546 321.636H107.338V323.388C107.338 323.82 107.406 324.256 107.542 324.696C107.686 325.136 107.886 325.556 108.142 325.956C108.398 326.356 108.694 326.716 109.03 327.036C109.374 327.348 109.738 327.6 110.122 327.792L109.558 328.584C109.134 328.368 108.738 328.08 108.37 327.72C108.002 327.352 107.682 326.936 107.41 326.472C107.138 326.008 106.926 325.512 106.774 324.984C106.622 324.456 106.546 323.924 106.546 323.388V321.636ZM103.882 321.192H109.738V322.02H103.882V321.192ZM111.022 320.076H112.018V330.936H111.022V320.076ZM111.79 324.456H113.794V325.296H111.79V324.456ZM119.889 321.84H123.021V322.644H119.889V321.84ZM119.889 323.988H123.045V324.804H119.889V323.988ZM122.649 320.076H123.645V326.496H122.649V320.076ZM115.221 320.904H120.165V325.728H115.221V320.904ZM119.193 321.708H116.193V324.924H119.193V321.708ZM120.069 326.82C121.189 326.82 122.069 327 122.709 327.36C123.357 327.72 123.681 328.224 123.681 328.872C123.681 329.52 123.357 330.02 122.709 330.372C122.069 330.732 121.189 330.912 120.069 330.912C118.949 330.912 118.065 330.732 117.417 330.372C116.777 330.02 116.457 329.52 116.457 328.872C116.457 328.224 116.777 327.72 117.417 327.36C118.065 327 118.949 326.82 120.069 326.82ZM120.069 327.6C119.525 327.6 119.057 327.652 118.665 327.756C118.273 327.852 117.969 327.996 117.753 328.188C117.545 328.372 117.441 328.6 117.441 328.872C117.441 329.128 117.545 329.352 117.753 329.544C117.969 329.728 118.273 329.872 118.665 329.976C119.057 330.08 119.525 330.132 120.069 330.132C120.621 330.132 121.089 330.08 121.473 329.976C121.865 329.872 122.165 329.728 122.373 329.544C122.589 329.352 122.697 329.128 122.697 328.872C122.697 328.6 122.589 328.372 122.373 328.188C122.165 327.996 121.865 327.852 121.473 327.756C121.089 327.652 120.621 327.6 120.069 327.6Z" fill="#8C8C8C"/>
<path d="M93.344 356.768H94.672V371.248H93.344V356.768ZM89.104 358.336H90.416C90.416 359.381 90.288 360.389 90.032 361.36C89.7867 362.331 89.3973 363.253 88.864 364.128C88.3307 364.992 87.6373 365.797 86.784 366.544C85.9307 367.291 84.896 367.957 83.68 368.544L82.976 367.472C84.3733 366.8 85.5253 366.016 86.432 365.12C87.3387 364.224 88.0107 363.227 88.448 362.128C88.8853 361.019 89.104 359.824 89.104 358.544V358.336ZM83.648 358.336H89.664V359.408H83.648V358.336ZM98.3028 357.888H104.703V358.992H98.3028V357.888ZM100.479 361.12H101.791V364.736H100.479V361.12ZM104.175 357.888H105.471V358.656C105.471 359.136 105.455 359.733 105.423 360.448C105.401 361.163 105.295 361.995 105.103 362.944L103.791 362.816C103.983 361.856 104.095 361.04 104.127 360.368C104.159 359.696 104.175 359.125 104.175 358.656V357.888ZM107.439 356.768H108.783V367.664H107.439V356.768ZM108.175 361.472H110.847V362.592H108.175V361.472ZM99.6308 369.84H109.247V370.928H99.6308V369.84ZM99.6308 366.672H100.959V370.16H99.6308V366.672ZM97.5668 365.36L97.4228 364.272C98.2761 364.272 99.2201 364.261 100.255 364.24C101.289 364.219 102.34 364.176 103.407 364.112C104.473 364.037 105.497 363.936 106.479 363.808L106.559 364.784C105.567 364.955 104.537 365.083 103.471 365.168C102.404 365.253 101.364 365.307 100.351 365.328C99.3481 365.349 98.4201 365.36 97.5668 365.36ZM119.134 359.12H123.31V360.192H119.134V359.12ZM119.134 361.984H123.342V363.072H119.134V361.984ZM122.814 356.768H124.142V365.328H122.814V356.768ZM112.91 357.872H119.502V364.304H112.91V357.872ZM118.206 358.944H114.206V363.232H118.206V358.944ZM119.374 365.76C120.867 365.76 122.04 366 122.894 366.48C123.758 366.96 124.19 367.632 124.19 368.496C124.19 369.36 123.758 370.027 122.894 370.496C122.04 370.976 120.867 371.216 119.374 371.216C117.88 371.216 116.702 370.976 115.838 370.496C114.984 370.027 114.558 369.36 114.558 368.496C114.558 367.632 114.984 366.96 115.838 366.48C116.702 366 117.88 365.76 119.374 365.76ZM119.374 366.8C118.648 366.8 118.024 366.869 117.502 367.008C116.979 367.136 116.574 367.328 116.286 367.584C116.008 367.829 115.87 368.133 115.87 368.496C115.87 368.837 116.008 369.136 116.286 369.392C116.574 369.637 116.979 369.829 117.502 369.968C118.024 370.107 118.648 370.176 119.374 370.176C120.11 370.176 120.734 370.107 121.246 369.968C121.768 369.829 122.168 369.637 122.446 369.392C122.734 369.136 122.878 368.837 122.878 368.496C122.878 368.133 122.734 367.829 122.446 367.584C122.168 367.328 121.768 367.136 121.246 367.008C120.734 366.869 120.11 366.8 119.374 366.8Z" fill="black"/>
<path d="M310.695 358.562V370H309.25V360.367L306.336 361.43V360.125L310.469 358.562H310.695ZM318.896 364.064H320.224V367.28H318.896V364.064ZM325.312 356.784H326.64V367.776H325.312V356.784ZM316.768 369.84H326.992V370.928H316.768V369.84ZM316.768 366.704H318.096V370.128H316.768V366.704ZM314.896 364.56L314.72 363.456C315.616 363.456 316.587 363.451 317.632 363.44C318.688 363.419 319.765 363.381 320.864 363.328C321.963 363.264 323.024 363.168 324.048 363.04L324.144 364C323.109 364.171 322.043 364.299 320.944 364.384C319.856 364.459 318.795 364.507 317.76 364.528C316.725 364.549 315.771 364.56 314.896 364.56ZM322.368 365.328H325.664V366.288H322.368V365.328ZM319.424 357.36C320.139 357.36 320.763 357.467 321.296 357.68C321.829 357.883 322.24 358.176 322.528 358.56C322.827 358.933 322.976 359.376 322.976 359.888C322.976 360.389 322.827 360.832 322.528 361.216C322.24 361.6 321.829 361.893 321.296 362.096C320.763 362.299 320.139 362.4 319.424 362.4C318.72 362.4 318.096 362.299 317.552 362.096C317.019 361.893 316.603 361.6 316.304 361.216C316.016 360.832 315.872 360.389 315.872 359.888C315.872 359.376 316.016 358.933 316.304 358.56C316.603 358.176 317.019 357.883 317.552 357.68C318.096 357.467 318.72 357.36 319.424 357.36ZM319.424 358.352C318.741 358.352 318.187 358.491 317.76 358.768C317.333 359.045 317.12 359.419 317.12 359.888C317.12 360.347 317.333 360.715 317.76 360.992C318.187 361.269 318.741 361.408 319.424 361.408C320.096 361.408 320.645 361.269 321.072 360.992C321.499 360.715 321.712 360.347 321.712 359.888C321.712 359.568 321.616 359.296 321.424 359.072C321.232 358.848 320.965 358.672 320.624 358.544C320.283 358.416 319.883 358.352 319.424 358.352Z" fill="#404040"/>
<g opacity="0.4">
<rect x="46" y="769" width="317" height="50" rx="8" fill="#8C8C8C"/>
<path d="M191.842 792.46H193.482V794.76H191.842V792.46ZM199.462 783.98H201.122V796.1H199.462V783.98ZM200.422 789.44H203.762V790.82H200.422V789.44ZM187.202 795.58L187.002 794.24C188.082 794.24 189.262 794.233 190.542 794.22C191.835 794.193 193.155 794.14 194.502 794.06C195.848 793.98 197.142 793.853 198.382 793.68L198.502 794.86C197.222 795.087 195.908 795.253 194.562 795.36C193.228 795.453 191.928 795.513 190.662 795.54C189.408 795.567 188.255 795.58 187.202 795.58ZM189.222 797.02H201.122V802.06H199.462V798.34H189.222V797.02ZM187.462 785.6H197.842V786.86H187.462V785.6ZM192.642 787.54C193.922 787.54 194.942 787.78 195.702 788.26C196.475 788.74 196.862 789.393 196.862 790.22C196.862 791.047 196.475 791.7 195.702 792.18C194.942 792.66 193.922 792.9 192.642 792.9C191.375 792.9 190.355 792.66 189.582 792.18C188.808 791.7 188.422 791.047 188.422 790.22C188.422 789.393 188.808 788.74 189.582 788.26C190.355 787.78 191.375 787.54 192.642 787.54ZM192.642 788.7C191.842 788.7 191.202 788.833 190.722 789.1C190.242 789.367 190.002 789.74 190.002 790.22C190.002 790.673 190.242 791.047 190.722 791.34C191.202 791.62 191.842 791.76 192.642 791.76C193.442 791.76 194.082 791.62 194.562 791.34C195.042 791.047 195.282 790.673 195.282 790.22C195.282 789.74 195.042 789.367 194.562 789.1C194.082 788.833 193.442 788.7 192.642 788.7ZM191.842 783.82H193.482V786.22H191.842V783.82ZM218.66 783.98H220.32V797.18H218.66V783.98ZM208.7 800.3H220.88V801.66H208.7V800.3ZM208.7 795.84H210.36V800.76H208.7V795.84ZM210.62 785.24C211.527 785.24 212.333 785.427 213.04 785.8C213.747 786.173 214.307 786.7 214.72 787.38C215.133 788.047 215.34 788.813 215.34 789.68C215.34 790.547 215.133 791.32 214.72 792C214.307 792.667 213.747 793.193 213.04 793.58C212.333 793.953 211.527 794.14 210.62 794.14C209.727 794.14 208.92 793.953 208.2 793.58C207.493 793.193 206.933 792.667 206.52 792C206.107 791.32 205.9 790.547 205.9 789.68C205.9 788.813 206.107 788.047 206.52 787.38C206.933 786.7 207.493 786.173 208.2 785.8C208.92 785.427 209.727 785.24 210.62 785.24ZM210.62 786.68C210.033 786.68 209.507 786.807 209.04 787.06C208.573 787.313 208.2 787.667 207.92 788.12C207.653 788.573 207.52 789.093 207.52 789.68C207.52 790.28 207.653 790.807 207.92 791.26C208.2 791.7 208.573 792.047 209.04 792.3C209.507 792.553 210.033 792.68 210.62 792.68C211.207 792.68 211.733 792.553 212.2 792.3C212.68 792.047 213.053 791.7 213.32 791.26C213.587 790.807 213.72 790.28 213.72 789.68C213.72 789.093 213.587 788.573 213.32 788.12C213.053 787.667 212.68 787.313 212.2 787.06C211.733 786.807 211.207 786.68 210.62 786.68Z" fill="white"/>
</g>
<path d="M298.878 549.145C298.205 549.142 297.629 548.964 297.152 548.612C296.675 548.26 296.31 547.747 296.057 547.074C295.804 546.401 295.678 545.589 295.678 544.641C295.678 543.695 295.804 542.886 296.057 542.216C296.313 541.545 296.679 541.034 297.156 540.682C297.636 540.33 298.21 540.153 298.878 540.153C299.545 540.153 300.118 540.331 300.595 540.686C301.072 541.038 301.438 541.55 301.69 542.22C301.946 542.888 302.074 543.695 302.074 544.641C302.074 545.592 301.947 546.405 301.695 547.078C301.442 547.749 301.077 548.261 300.599 548.616C300.122 548.969 299.548 549.145 298.878 549.145ZM298.878 548.007C299.469 548.007 299.93 547.719 300.263 547.142C300.598 546.565 300.766 545.732 300.766 544.641C300.766 543.916 300.689 543.304 300.536 542.804C300.385 542.301 300.168 541.92 299.884 541.662C299.602 541.401 299.267 541.27 298.878 541.27C298.29 541.27 297.828 541.56 297.493 542.139C297.158 542.719 296.989 543.553 296.986 544.641C296.986 545.368 297.061 545.983 297.212 546.486C297.365 546.986 297.582 547.365 297.864 547.624C298.145 547.879 298.483 548.007 298.878 548.007ZM303.402 547.295V546.23L307.174 540.273H308.013V541.841H307.48L304.783 546.111V546.179H309.952V547.295H303.402ZM307.54 549V546.972L307.549 546.486V540.273H308.797V549H307.54ZM312.294 547.918C312.061 547.918 311.86 547.835 311.693 547.67C311.525 547.503 311.441 547.301 311.441 547.065C311.441 546.832 311.525 546.634 311.693 546.469C311.86 546.301 312.061 546.217 312.294 546.217C312.527 546.217 312.727 546.301 312.895 546.469C313.062 546.634 313.146 546.832 313.146 547.065C313.146 547.222 313.106 547.365 313.027 547.496C312.95 547.624 312.848 547.726 312.72 547.803C312.592 547.879 312.45 547.918 312.294 547.918ZM312.294 543.545C312.061 543.545 311.86 543.463 311.693 543.298C311.525 543.131 311.441 542.929 311.441 542.693C311.441 542.46 311.525 542.261 311.693 542.097C311.86 541.929 312.061 541.845 312.294 541.845C312.527 541.845 312.727 541.929 312.895 542.097C313.062 542.261 313.146 542.46 313.146 542.693C313.146 542.849 313.106 542.993 313.027 543.124C312.95 543.251 312.848 543.354 312.72 543.43C312.592 543.507 312.45 543.545 312.294 543.545ZM314.652 547.295V546.23L318.424 540.273H319.263V541.841H318.73L316.033 546.111V546.179H321.202V547.295H314.652ZM318.79 549V546.972L318.799 546.486V540.273H320.047V549H318.79ZM325.636 549.119C325.025 549.119 324.485 549.014 324.017 548.804C323.551 548.594 323.186 548.304 322.922 547.935C322.657 547.565 322.527 547.145 322.529 546.673C322.527 546.304 322.602 545.964 322.755 545.655C322.912 545.342 323.123 545.082 323.39 544.875C323.657 544.665 323.956 544.531 324.285 544.474V544.423C323.85 544.318 323.502 544.085 323.241 543.724C322.98 543.364 322.85 542.949 322.853 542.48C322.85 542.034 322.968 541.636 323.207 541.287C323.449 540.935 323.779 540.658 324.2 540.456C324.62 540.254 325.099 540.153 325.636 540.153C326.167 540.153 326.642 540.256 327.059 540.46C327.48 540.662 327.811 540.939 328.052 541.291C328.294 541.641 328.416 542.037 328.419 542.48C328.416 542.949 328.282 543.364 328.018 543.724C327.754 544.085 327.41 544.318 326.987 544.423V544.474C327.314 544.531 327.608 544.665 327.869 544.875C328.133 545.082 328.343 545.342 328.5 545.655C328.659 545.964 328.74 546.304 328.743 546.673C328.74 547.145 328.606 547.565 328.342 547.935C328.078 548.304 327.711 548.594 327.243 548.804C326.777 549.014 326.241 549.119 325.636 549.119ZM325.636 548.041C325.997 548.041 326.309 547.982 326.574 547.862C326.838 547.74 327.042 547.571 327.187 547.355C327.332 547.136 327.406 546.881 327.409 546.588C327.406 546.284 327.326 546.016 327.17 545.783C327.017 545.55 326.808 545.366 326.544 545.233C326.279 545.099 325.977 545.033 325.636 545.033C325.292 545.033 324.987 545.099 324.72 545.233C324.453 545.366 324.243 545.55 324.089 545.783C323.936 546.016 323.86 546.284 323.863 546.588C323.86 546.881 323.93 547.136 324.072 547.355C324.217 547.571 324.423 547.74 324.69 547.862C324.957 547.982 325.272 548.041 325.636 548.041ZM325.636 543.98C325.926 543.98 326.183 543.922 326.407 543.805C326.632 543.689 326.808 543.527 326.936 543.32C327.066 543.112 327.133 542.869 327.136 542.591C327.133 542.318 327.068 542.08 326.94 541.875C326.815 541.67 326.64 541.513 326.416 541.402C326.191 541.288 325.931 541.232 325.636 541.232C325.335 541.232 325.071 541.288 324.843 541.402C324.619 541.513 324.444 541.67 324.319 541.875C324.194 542.08 324.133 542.318 324.136 542.591C324.133 542.869 324.196 543.112 324.324 543.32C324.451 543.527 324.627 543.689 324.852 543.805C325.079 543.922 325.341 543.98 325.636 543.98ZM339.237 540.012H340.065V541.956C340.065 542.58 339.985 543.188 339.825 543.78C339.673 544.364 339.453 544.912 339.165 545.424C338.885 545.928 338.553 546.376 338.169 546.768C337.793 547.152 337.381 547.456 336.933 547.68L336.321 546.852C336.729 546.668 337.109 546.404 337.461 546.06C337.813 545.716 338.121 545.328 338.385 544.896C338.649 544.456 338.857 543.984 339.009 543.48C339.161 542.976 339.237 542.468 339.237 541.956V540.012ZM339.405 540.012H340.233V541.956C340.233 542.452 340.305 542.94 340.449 543.42C340.601 543.9 340.809 544.356 341.073 544.788C341.345 545.212 341.653 545.588 341.997 545.916C342.349 546.236 342.725 546.488 343.125 546.672L342.525 547.464C342.085 547.256 341.677 546.964 341.301 546.588C340.925 546.212 340.593 545.78 340.305 545.292C340.025 544.804 339.805 544.276 339.645 543.708C339.485 543.14 339.405 542.556 339.405 541.956V540.012ZM344.265 539.076H345.261V549.948H344.265V539.076ZM354.836 539.076H355.844V547.008H354.836V539.076ZM355.532 542.364H357.44V543.204H355.532V542.364ZM351.872 539.916H352.928C352.928 540.852 352.72 541.7 352.304 542.46C351.896 543.22 351.312 543.88 350.552 544.44C349.792 545 348.892 545.444 347.852 545.772L347.432 544.968C348.344 544.68 349.132 544.308 349.796 543.852C350.46 543.396 350.972 542.872 351.332 542.28C351.692 541.688 351.872 541.048 351.872 540.36V539.916ZM347.876 539.916H352.388V540.744H347.876V539.916ZM349.076 548.88H356.312V549.696H349.076V548.88ZM349.076 546.204H350.072V549.204H349.076V546.204ZM363.475 540.78H366.739V541.596H363.475V540.78ZM363.475 543.372H366.739V544.188H363.475V543.372ZM366.391 539.088H367.387V547.104H366.391V539.088ZM360.463 548.88H367.687V549.696H360.463V548.88ZM360.463 546.276H361.447V549.228H360.463V546.276ZM361.423 539.772C361.951 539.772 362.423 539.888 362.839 540.12C363.263 540.352 363.595 540.672 363.835 541.08C364.083 541.488 364.207 541.956 364.207 542.484C364.207 543.02 364.083 543.492 363.835 543.9C363.595 544.308 363.263 544.628 362.839 544.86C362.423 545.092 361.951 545.208 361.423 545.208C360.887 545.208 360.407 545.092 359.983 544.86C359.567 544.628 359.235 544.308 358.987 543.9C358.747 543.492 358.627 543.02 358.627 542.484C358.627 541.956 358.747 541.488 358.987 541.08C359.235 540.672 359.567 540.352 359.983 540.12C360.407 539.888 360.887 539.772 361.423 539.772ZM361.423 540.66C361.071 540.66 360.755 540.74 360.475 540.9C360.195 541.052 359.975 541.268 359.815 541.548C359.655 541.82 359.575 542.136 359.575 542.496C359.575 542.848 359.655 543.164 359.815 543.444C359.975 543.724 360.195 543.944 360.475 544.104C360.755 544.256 361.071 544.332 361.423 544.332C361.767 544.332 362.079 544.256 362.359 544.104C362.639 543.944 362.859 543.724 363.019 543.444C363.179 543.164 363.259 542.848 363.259 542.496C363.259 542.136 363.179 541.82 363.019 541.548C362.859 541.268 362.639 541.052 362.359 540.9C362.079 540.74 361.767 540.66 361.423 540.66ZM372.174 540.24H372.99V541.116C372.99 541.788 372.862 542.408 372.606 542.976C372.358 543.544 372.006 544.04 371.55 544.464C371.102 544.888 370.57 545.212 369.954 545.436L369.45 544.644C369.994 544.452 370.47 544.18 370.878 543.828C371.286 543.468 371.602 543.056 371.826 542.592C372.058 542.128 372.174 541.636 372.174 541.116V540.24ZM372.354 540.24H373.17V541.116C373.17 541.588 373.278 542.036 373.494 542.46C373.71 542.884 374.014 543.256 374.406 543.576C374.798 543.896 375.258 544.148 375.786 544.332L375.318 545.112C374.71 544.904 374.186 544.604 373.746 544.212C373.306 543.82 372.962 543.36 372.714 542.832C372.474 542.296 372.354 541.724 372.354 541.116V540.24ZM369.75 539.88H375.558V540.696H369.75V539.88ZM376.926 539.076H377.922V545.616H376.926V539.076ZM377.646 541.836H379.518V542.664H377.646V541.836ZM374.466 545.916C375.202 545.916 375.834 545.996 376.362 546.156C376.898 546.308 377.31 546.532 377.598 546.828C377.886 547.124 378.03 547.484 378.03 547.908C378.03 548.332 377.886 548.692 377.598 548.988C377.31 549.284 376.898 549.512 376.362 549.672C375.834 549.832 375.202 549.912 374.466 549.912C373.73 549.912 373.094 549.832 372.558 549.672C372.022 549.512 371.61 549.284 371.322 548.988C371.034 548.692 370.89 548.332 370.89 547.908C370.89 547.484 371.034 547.124 371.322 546.828C371.61 546.532 372.022 546.308 372.558 546.156C373.094 545.996 373.73 545.916 374.466 545.916ZM374.466 546.708C373.93 546.708 373.466 546.756 373.074 546.852C372.69 546.948 372.394 547.084 372.186 547.26C371.978 547.436 371.874 547.652 371.874 547.908C371.874 548.164 371.978 548.384 372.186 548.568C372.394 548.744 372.69 548.88 373.074 548.976C373.466 549.072 373.93 549.12 374.466 549.12C375.002 549.12 375.462 549.072 375.846 548.976C376.23 548.88 376.526 548.744 376.734 548.568C376.942 548.384 377.046 548.164 377.046 547.908C377.046 547.652 376.942 547.436 376.734 547.26C376.526 547.084 376.23 546.948 375.846 546.852C375.462 546.756 375.002 546.708 374.466 546.708Z" fill="#2383BD"/>
<defs>
<filter id="filter0_d_345_3053" x="68" y="472" width="37" height="47" filterUnits="userSpaceOnUse" color-interpolation-filters="sRGB">
<feFlood flood-opacity="0" result="BackgroundImageFix"/>
<feColorMatrix in="SourceAlpha" type="matrix" values="0 0 0 0 0 0 0 0 0 0 0 0 0 0 0 0 0 0 127 0" result="hardAlpha"/>
<feOffset dy="4"/>
<feGaussianBlur stdDeviation="2"/>
<feComposite in2="hardAlpha" operator="out"/>
<feColorMatrix type="matrix" values="0 0 0 0 0.137255 0 0 0 0 0.513726 0 0 0 0 0.741176 0 0 0 1 0"/>
<feBlend mode="normal" in2="BackgroundImageFix" result="effect1_dropShadow_345_3053"/>
<feBlend mode="normal" in="SourceGraphic" in2="effect1_dropShadow_345_3053" result="shape"/>
</filter>
<filter id="filter1_d_345_3053" x="135" y="349" width="37" height="37" filterUnits="userSpaceOnUse" color-interpolation-filters="sRGB">
<feFlood flood-opacity="0" result="BackgroundImageFix"/>
<feColorMatrix in="SourceAlpha" type="matrix" values="0 0 0 0 0 0 0 0 0 0 0 0 0 0 0 0 0 0 127 0" result="hardAlpha"/>
<feOffset dy="4"/>
<feGaussianBlur stdDeviation="2"/>
<feComposite in2="hardAlpha" operator="out"/>
<feColorMatrix type="matrix" values="0 0 0 0 0 0 0 0 0 0 0 0 0 0 0 0 0 0 0.25 0"/>
<feBlend mode="normal" in2="BackgroundImageFix" result="effect1_dropShadow_345_3053"/>
<feBlend mode="normal" in="SourceGraphic" in2="effect1_dropShadow_345_3053" result="shape"/>
</filter>
<filter id="filter2_d_345_3053" x="168" y="349" width="37" height="37" filterUnits="userSpaceOnUse" color-interpolation-filters="sRGB">
<feFlood flood-opacity="0" result="BackgroundImageFix"/>
<feColorMatrix in="SourceAlpha" type="matrix" values="0 0 0 0 0 0 0 0 0 0 0 0 0 0 0 0 0 0 127 0" result="hardAlpha"/>
<feOffset dy="4"/>
<feGaussianBlur stdDeviation="2"/>
<feComposite in2="hardAlpha" operator="out"/>
<feColorMatrix type="matrix" values="0 0 0 0 0 0 0 0 0 0 0 0 0 0 0 0 0 0 0.25 0"/>
<feBlend mode="normal" in2="BackgroundImageFix" result="effect1_dropShadow_345_3053"/>
<feBlend mode="normal" in="SourceGraphic" in2="effect1_dropShadow_345_3053" result="shape"/>
</filter>
<filter id="filter3_d_345_3053" x="201" y="349" width="37" height="37" filterUnits="userSpaceOnUse" color-interpolation-filters="sRGB">
<feFlood flood-opacity="0" result="BackgroundImageFix"/>
<feColorMatrix in="SourceAlpha" type="matrix" values="0 0 0 0 0 0 0 0 0 0 0 0 0 0 0 0 0 0 127 0" result="hardAlpha"/>
<feOffset dy="4"/>
<feGaussianBlur stdDeviation="2"/>
<feComposite in2="hardAlpha" operator="out"/>
<feColorMatrix type="matrix" values="0 0 0 0 0 0 0 0 0 0 0 0 0 0 0 0 0 0 0.25 0"/>
<feBlend mode="normal" in2="BackgroundImageFix" result="effect1_dropShadow_345_3053"/>
<feBlend mode="normal" in="SourceGraphic" in2="effect1_dropShadow_345_3053" result="shape"/>
</filter>
<filter id="filter4_d_345_3053" x="234" y="350" width="37" height="37" filterUnits="userSpaceOnUse" color-interpolation-filters="sRGB">
<feFlood flood-opacity="0" result="BackgroundImageFix"/>
<feColorMatrix in="SourceAlpha" type="matrix" values="0 0 0 0 0 0 0 0 0 0 0 0 0 0 0 0 0 0 127 0" result="hardAlpha"/>
<feOffset dy="4"/>
<feGaussianBlur stdDeviation="2"/>
<feComposite in2="hardAlpha" operator="out"/>
<feColorMatrix type="matrix" values="0 0 0 0 0 0 0 0 0 0 0 0 0 0 0 0 0 0 0.25 0"/>
<feBlend mode="normal" in2="BackgroundImageFix" result="effect1_dropShadow_345_3053"/>
<feBlend mode="normal" in="SourceGraphic" in2="effect1_dropShadow_345_3053" result="shape"/>
</filter>
<filter id="filter5_d_345_3053" x="57" y="303" width="299" height="101" filterUnits="userSpaceOnUse" color-interpolation-filters="sRGB">
<feFlood flood-opacity="0" result="BackgroundImageFix"/>
<feColorMatrix in="SourceAlpha" type="matrix" values="0 0 0 0 0 0 0 0 0 0 0 0 0 0 0 0 0 0 127 0" result="hardAlpha"/>
<feOffset dy="4"/>
<feGaussianBlur stdDeviation="2"/>
<feComposite in2="hardAlpha" operator="out"/>
<feColorMatrix type="matrix" values="0 0 0 0 0.137255 0 0 0 0 0.513726 0 0 0 0 0.741176 0 0 0 1 0"/>
<feBlend mode="normal" in2="BackgroundImageFix" result="effect1_dropShadow_345_3053"/>
<feBlend mode="normal" in="SourceGraphic" in2="effect1_dropShadow_345_3053" result="shape"/>
</filter>
</defs>
</svg>
