<svg width="412" height="917" viewBox="0 0 412 917" fill="none" xmlns="http://www.w3.org/2000/svg">
<rect width="412" height="917" fill="white"/>
<path d="M132.343 855.422H133.505V868.106H132.343V855.422ZM123.859 856.5H125.021V859.832H128.675V856.5H129.823V865.054H123.859V856.5ZM125.021 860.756V864.088H128.675V860.756H125.021ZM136.682 856.122H142.59V861.302H136.682V856.122ZM141.456 857.06H137.816V860.378H141.456V857.06ZM145.236 855.422H146.398V861.932H145.236V855.422ZM138.208 862.576H146.398V865.628H139.37V867.406H138.236V864.774H145.25V863.5H138.208V862.576ZM138.236 867.014H146.818V867.952H138.236V867.014ZM158.354 858.992H161.98V859.944H158.354V858.992ZM161.63 855.436H162.792V864.802H161.63V855.436ZM154.658 866.86H163.086V867.812H154.658V866.86ZM154.658 863.892H155.82V867.336H154.658V863.892ZM152.992 856.276H154.154V858.502H157.57V856.276H158.718V862.646H152.992V856.276ZM154.154 859.412V861.708H157.57V859.412H154.154ZM165.815 857.284H176.105V858.236H165.815V857.284ZM165.255 865.656H176.735V866.608H165.255V865.656ZM170.393 863.64H171.541V866.02H170.393V863.64ZM170.967 859.076C171.816 859.076 172.549 859.174 173.165 859.37C173.79 859.557 174.271 859.827 174.607 860.182C174.943 860.537 175.111 860.971 175.111 861.484C175.111 861.988 174.943 862.422 174.607 862.786C174.271 863.15 173.79 863.43 173.165 863.626C172.549 863.813 171.816 863.906 170.967 863.906C170.117 863.906 169.38 863.813 168.755 863.626C168.139 863.43 167.663 863.15 167.327 862.786C166.991 862.422 166.823 861.988 166.823 861.484C166.823 860.971 166.991 860.537 167.327 860.182C167.663 859.827 168.139 859.557 168.755 859.37C169.38 859.174 170.117 859.076 170.967 859.076ZM170.967 860C170.351 860 169.819 860.061 169.371 860.182C168.932 860.294 168.591 860.462 168.349 860.686C168.115 860.901 167.999 861.167 167.999 861.484C167.999 861.792 168.115 862.058 168.349 862.282C168.591 862.506 168.932 862.679 169.371 862.8C169.819 862.912 170.351 862.968 170.967 862.968C171.583 862.968 172.11 862.912 172.549 862.8C172.987 862.679 173.328 862.506 173.571 862.282C173.813 862.058 173.935 861.792 173.935 861.484C173.935 861.167 173.813 860.901 173.571 860.686C173.328 860.462 172.987 860.294 172.549 860.182C172.11 860.061 171.583 860 170.967 860ZM170.393 855.632H171.541V857.858H170.393V855.632ZM178.12 861.302H189.6V862.198H178.12V861.302ZM179.492 863.206H188.172V865.908H180.668V867.392H179.52V865.11H187.024V864.046H179.492V863.206ZM179.52 867.084H188.578V867.924H179.52V867.084ZM179.576 855.8H188.13V858.432H180.752V859.804H179.604V857.648H186.982V856.626H179.576V855.8ZM179.604 859.524H188.354V860.364H179.604V859.524ZM200.239 863.808H201.219V864.158C201.219 864.662 201.098 865.129 200.855 865.558C200.612 865.978 200.276 866.356 199.847 866.692C199.427 867.028 198.937 867.308 198.377 867.532C197.826 867.765 197.238 867.933 196.613 868.036L196.193 867.154C196.734 867.07 197.248 866.935 197.733 866.748C198.228 866.561 198.662 866.337 199.035 866.076C199.408 865.805 199.702 865.507 199.917 865.18C200.132 864.853 200.239 864.513 200.239 864.158V863.808ZM200.449 863.808H201.429V864.158C201.429 864.513 201.536 864.853 201.751 865.18C201.966 865.507 202.26 865.805 202.633 866.076C203.016 866.347 203.45 866.575 203.935 866.762C204.43 866.939 204.952 867.07 205.503 867.154L205.083 868.036C204.458 867.933 203.865 867.77 203.305 867.546C202.745 867.322 202.25 867.042 201.821 866.706C201.392 866.37 201.056 865.987 200.813 865.558C200.57 865.129 200.449 864.662 200.449 864.158V863.808ZM196.711 863.332H204.999V864.326H196.711V863.332ZM203.697 855.436H204.859V862.674H203.697V855.436ZM198.069 856.164C198.713 856.164 199.282 856.29 199.777 856.542C200.272 856.794 200.659 857.139 200.939 857.578C201.228 858.017 201.373 858.525 201.373 859.104C201.373 859.683 201.228 860.191 200.939 860.63C200.659 861.069 200.272 861.414 199.777 861.666C199.282 861.918 198.713 862.044 198.069 862.044C197.434 862.044 196.865 861.918 196.361 861.666C195.866 861.414 195.474 861.069 195.185 860.63C194.905 860.191 194.765 859.683 194.765 859.104C194.765 858.525 194.905 858.017 195.185 857.578C195.474 857.139 195.866 856.794 196.361 856.542C196.865 856.29 197.434 856.164 198.069 856.164ZM198.069 857.144C197.649 857.144 197.276 857.228 196.949 857.396C196.622 857.564 196.366 857.793 196.179 858.082C195.992 858.371 195.899 858.712 195.899 859.104C195.899 859.496 195.992 859.841 196.179 860.14C196.366 860.429 196.622 860.658 196.949 860.826C197.276 860.994 197.649 861.078 198.069 861.078C198.489 861.078 198.862 860.994 199.189 860.826C199.516 860.658 199.772 860.429 199.959 860.14C200.146 859.841 200.239 859.496 200.239 859.104C200.239 858.712 200.146 858.371 199.959 858.082C199.772 857.793 199.516 857.564 199.189 857.396C198.862 857.228 198.489 857.144 198.069 857.144ZM210.738 856.402C211.354 856.402 211.9 856.584 212.376 856.948C212.852 857.303 213.221 857.811 213.482 858.474C213.753 859.137 213.888 859.916 213.888 860.812C213.888 861.708 213.753 862.487 213.482 863.15C213.221 863.813 212.852 864.326 212.376 864.69C211.9 865.054 211.354 865.236 210.738 865.236C210.131 865.236 209.585 865.054 209.1 864.69C208.624 864.326 208.251 863.813 207.98 863.15C207.719 862.487 207.588 861.708 207.588 860.812C207.588 859.916 207.719 859.137 207.98 858.474C208.251 857.811 208.624 857.303 209.1 856.948C209.585 856.584 210.131 856.402 210.738 856.402ZM210.738 857.438C210.337 857.438 209.982 857.578 209.674 857.858C209.366 858.129 209.123 858.521 208.946 859.034C208.778 859.538 208.694 860.131 208.694 860.812C208.694 861.493 208.778 862.091 208.946 862.604C209.123 863.108 209.366 863.5 209.674 863.78C209.982 864.06 210.337 864.2 210.738 864.2C211.149 864.2 211.508 864.06 211.816 863.78C212.124 863.5 212.362 863.108 212.53 862.604C212.707 862.091 212.796 861.493 212.796 860.812C212.796 860.131 212.707 859.538 212.53 859.034C212.362 858.521 212.124 858.129 211.816 857.858C211.508 857.578 211.149 857.438 210.738 857.438ZM216.632 855.422H217.78V868.106H216.632V855.422ZM213.51 860.252H217.15V861.19H213.51V860.252ZM229.511 855.422H230.659V868.106H229.511V855.422ZM226.179 860.126H229.847V861.078H226.179V860.126ZM220.747 856.416H221.909V859.706H225.423V856.416H226.557V864.914H220.747V856.416ZM221.909 860.63V863.962H225.423V860.63H221.909ZM242.348 855.422H243.496V868.106H242.348V855.422ZM233.85 864.074H234.9C235.619 864.074 236.309 864.065 236.972 864.046C237.644 864.018 238.321 863.971 239.002 863.906C239.693 863.841 240.411 863.747 241.158 863.626L241.27 864.578C240.131 864.765 239.058 864.891 238.05 864.956C237.042 865.012 235.992 865.04 234.9 865.04H233.85V864.074ZM233.822 856.598H239.674V861.12H235.026V864.438H233.85V860.182H238.498V857.55H233.822V856.598ZM252.763 856.934H255.605V857.886H252.763V856.934ZM252.763 859.44H255.605V860.378H252.763V859.44ZM255.255 855.422H256.417V862.842H255.255V855.422ZM249.165 855.884H250.117V857.186C250.117 858.017 249.972 858.791 249.683 859.51C249.403 860.219 249.006 860.84 248.493 861.372C247.979 861.895 247.368 862.301 246.659 862.59L246.015 861.666C246.659 861.423 247.214 861.078 247.681 860.63C248.157 860.182 248.521 859.664 248.773 859.076C249.034 858.479 249.165 857.849 249.165 857.186V855.884ZM249.347 855.884H250.299V857.186C250.299 857.653 250.369 858.101 250.509 858.53C250.658 858.959 250.868 859.365 251.139 859.748C251.419 860.131 251.745 860.467 252.119 860.756C252.492 861.045 252.907 861.279 253.365 861.456L252.707 862.38C252.035 862.1 251.447 861.703 250.943 861.19C250.439 860.667 250.047 860.065 249.767 859.384C249.487 858.703 249.347 857.97 249.347 857.186V855.884ZM249.235 863.304H250.131V863.878C250.131 864.429 250.019 864.97 249.795 865.502C249.58 866.034 249.258 866.515 248.829 866.944C248.409 867.364 247.891 867.691 247.275 867.924L246.701 867.056C247.233 866.86 247.685 866.594 248.059 866.258C248.441 865.913 248.731 865.535 248.927 865.124C249.132 864.704 249.235 864.289 249.235 863.878V863.304ZM249.487 863.304H250.355V863.878C250.355 864.307 250.439 864.737 250.607 865.166C250.775 865.586 251.027 865.973 251.363 866.328C251.699 866.673 252.123 866.953 252.637 867.168L252.133 868.036C251.526 867.793 251.027 867.453 250.635 867.014C250.243 866.575 249.953 866.085 249.767 865.544C249.58 864.993 249.487 864.438 249.487 863.878V863.304ZM253.911 863.304H254.779V863.878C254.779 864.373 254.685 864.895 254.499 865.446C254.312 865.987 254.023 866.491 253.631 866.958C253.239 867.425 252.739 867.784 252.133 868.036L251.643 867.168C252.147 866.925 252.567 866.617 252.903 866.244C253.239 865.871 253.491 865.474 253.659 865.054C253.827 864.634 253.911 864.242 253.911 863.878V863.304ZM254.149 863.304H255.045V863.878C255.045 864.317 255.143 864.746 255.339 865.166C255.544 865.586 255.833 865.959 256.207 866.286C256.589 866.613 257.051 866.869 257.593 867.056L257.005 867.924C256.389 867.7 255.866 867.383 255.437 866.972C255.017 866.561 254.695 866.09 254.471 865.558C254.256 865.026 254.149 864.466 254.149 863.878V863.304ZM268.302 860.476H270.626V861.442H268.302V860.476ZM267.448 855.422H268.61V868.078H267.448V855.422ZM259.384 856.668H260.532V864.508H259.384V856.668ZM259.384 863.906H260.392C261.316 863.906 262.263 863.864 263.234 863.78C264.214 863.696 265.226 863.547 266.272 863.332L266.412 864.312C265.329 864.527 264.293 864.676 263.304 864.76C262.324 864.835 261.353 864.872 260.392 864.872H259.384V863.906ZM274.573 861.946H275.721V865.726H274.573V861.946ZM279.249 861.946H280.411V865.726H279.249V861.946ZM271.759 865.502H283.239V866.468H271.759V865.502ZM277.471 856.22C278.367 856.22 279.16 856.355 279.851 856.626C280.541 856.897 281.083 857.275 281.475 857.76C281.876 858.245 282.077 858.819 282.077 859.482C282.077 860.135 281.876 860.709 281.475 861.204C281.083 861.689 280.541 862.067 279.851 862.338C279.16 862.599 278.367 862.73 277.471 862.73C276.584 862.73 275.791 862.599 275.091 862.338C274.4 862.067 273.859 861.689 273.467 861.204C273.075 860.709 272.879 860.135 272.879 859.482C272.879 858.819 273.075 858.245 273.467 857.76C273.859 857.275 274.4 856.897 275.091 856.626C275.791 856.355 276.584 856.22 277.471 856.22ZM277.471 857.144C276.799 857.144 276.201 857.242 275.679 857.438C275.156 857.634 274.745 857.909 274.447 858.264C274.148 858.609 273.999 859.015 273.999 859.482C273.999 859.949 274.148 860.359 274.447 860.714C274.745 861.059 275.156 861.33 275.679 861.526C276.201 861.722 276.799 861.82 277.471 861.82C278.152 861.82 278.754 861.722 279.277 861.526C279.799 861.33 280.21 861.059 280.509 860.714C280.807 860.359 280.957 859.949 280.957 859.482C280.957 859.015 280.807 858.609 280.509 858.264C280.21 857.909 279.799 857.634 279.277 857.438C278.754 857.242 278.152 857.144 277.471 857.144ZM287.649 864.197H286.378C286.382 863.76 286.421 863.402 286.494 863.124C286.572 862.841 286.697 862.584 286.87 862.352C287.043 862.119 287.273 861.855 287.561 861.559C287.77 861.344 287.962 861.144 288.135 860.957C288.312 860.766 288.456 860.561 288.565 860.342C288.675 860.118 288.729 859.852 288.729 859.542C288.729 859.228 288.673 858.956 288.559 858.729C288.449 858.501 288.285 858.325 288.066 858.202C287.852 858.079 287.586 858.018 287.267 858.018C287.002 858.018 286.752 858.065 286.515 858.161C286.278 858.257 286.086 858.405 285.94 858.605C285.795 858.801 285.719 859.059 285.715 859.378H284.45C284.459 858.863 284.587 858.421 284.833 858.052C285.084 857.683 285.421 857.4 285.845 857.204C286.269 857.008 286.743 856.91 287.267 856.91C287.845 856.91 288.338 857.015 288.743 857.225C289.153 857.434 289.465 857.735 289.68 858.127C289.894 858.514 290.001 858.975 290.001 859.508C290.001 859.918 289.917 860.296 289.748 860.643C289.584 860.984 289.372 861.306 289.112 861.606C288.853 861.907 288.577 862.194 288.285 862.468C288.035 862.7 287.866 862.962 287.779 863.254C287.693 863.546 287.649 863.86 287.649 864.197ZM286.323 866.364C286.323 866.159 286.387 865.986 286.515 865.845C286.642 865.703 286.827 865.633 287.068 865.633C287.314 865.633 287.501 865.703 287.629 865.845C287.757 865.986 287.82 866.159 287.82 866.364C287.82 866.56 287.757 866.729 287.629 866.87C287.501 867.011 287.314 867.082 287.068 867.082C286.827 867.082 286.642 867.011 286.515 866.87C286.387 866.729 286.323 866.56 286.323 866.364Z" fill="black"/>
<path d="M98.3359 227.871L100.611 215.781H102.115L102.564 217.656L100.123 230H98.4922L98.3359 227.871ZM97.5547 215.781L99.3906 227.9L99.0781 230H97.2812L94.7324 215.781H97.5547ZM104.215 227.852L106.041 215.781H108.854L106.324 230H104.518L104.215 227.852ZM102.984 215.781L105.279 227.939L105.094 230H103.463L101.031 217.637L101.49 215.781H102.984ZM114.625 227.568V222.686C114.625 222.367 114.586 222.113 114.508 221.924C114.436 221.735 114.326 221.598 114.176 221.514C114.033 221.423 113.857 221.377 113.648 221.377C113.414 221.377 113.219 221.426 113.062 221.523C112.906 221.621 112.789 221.761 112.711 221.943C112.639 222.126 112.604 222.344 112.604 222.598H109.859C109.859 222.142 109.947 221.712 110.123 221.309C110.299 220.898 110.556 220.54 110.895 220.234C111.24 219.922 111.65 219.678 112.125 219.502C112.6 219.326 113.134 219.238 113.727 219.238C114.43 219.238 115.055 219.359 115.602 219.6C116.148 219.834 116.581 220.208 116.9 220.723C117.219 221.237 117.379 221.904 117.379 222.725V227.432C117.379 228.024 117.408 228.506 117.467 228.877C117.532 229.248 117.626 229.567 117.75 229.834V230H114.996C114.872 229.707 114.778 229.342 114.713 228.906C114.654 228.464 114.625 228.018 114.625 227.568ZM114.957 223.545L114.967 225.186H113.961C113.701 225.186 113.473 225.228 113.277 225.312C113.089 225.397 112.929 225.518 112.799 225.674C112.669 225.824 112.571 225.999 112.506 226.201C112.447 226.403 112.418 226.618 112.418 226.846C112.418 227.1 112.454 227.314 112.525 227.49C112.597 227.666 112.704 227.799 112.848 227.891C112.991 227.982 113.16 228.027 113.355 228.027C113.655 228.027 113.915 227.965 114.137 227.842C114.358 227.718 114.521 227.568 114.625 227.393C114.736 227.217 114.771 227.054 114.732 226.904L115.357 227.969C115.279 228.21 115.172 228.46 115.035 228.721C114.905 228.981 114.739 229.222 114.537 229.443C114.335 229.665 114.085 229.847 113.785 229.99C113.492 230.127 113.144 230.195 112.74 230.195C112.174 230.195 111.656 230.065 111.188 229.805C110.719 229.544 110.348 229.18 110.074 228.711C109.807 228.242 109.674 227.686 109.674 227.041C109.674 226.507 109.758 226.025 109.928 225.596C110.104 225.16 110.364 224.792 110.709 224.492C111.054 224.186 111.49 223.952 112.018 223.789C112.545 223.626 113.163 223.545 113.873 223.545H114.957ZM122.271 215V230H119.527V215H122.271ZM127.311 215V230H124.566V215H127.311ZM133.736 230.195C133.014 230.195 132.372 230.085 131.812 229.863C131.259 229.642 130.79 229.323 130.406 228.906C130.022 228.483 129.729 227.972 129.527 227.373C129.326 226.774 129.225 226.09 129.225 225.322V224.453C129.225 223.594 129.322 222.842 129.518 222.197C129.713 221.546 129.99 220.999 130.348 220.557C130.706 220.114 131.145 219.785 131.666 219.57C132.193 219.349 132.789 219.238 133.453 219.238C134.117 219.238 134.7 219.349 135.201 219.57C135.709 219.785 136.129 220.111 136.461 220.547C136.793 220.977 137.044 221.51 137.213 222.148C137.382 222.786 137.467 223.529 137.467 224.375V225.625H130.387V223.701H134.781V223.457C134.781 223.027 134.736 222.669 134.645 222.383C134.553 222.09 134.41 221.872 134.215 221.729C134.02 221.585 133.759 221.514 133.434 221.514C133.16 221.514 132.929 221.569 132.74 221.68C132.551 221.79 132.402 221.963 132.291 222.197C132.18 222.432 132.099 222.738 132.047 223.115C131.995 223.486 131.969 223.932 131.969 224.453V225.322C131.969 225.811 132.011 226.221 132.096 226.553C132.18 226.878 132.304 227.145 132.467 227.354C132.636 227.555 132.841 227.702 133.082 227.793C133.323 227.878 133.603 227.92 133.922 227.92C134.404 227.92 134.837 227.835 135.221 227.666C135.611 227.49 135.943 227.253 136.217 226.953L137.311 228.613C137.122 228.861 136.861 229.108 136.529 229.355C136.197 229.603 135.8 229.805 135.338 229.961C134.876 230.117 134.342 230.195 133.736 230.195ZM143.658 219.434V221.494H138.268V219.434H143.658ZM139.508 216.826H142.232V226.777C142.232 227.064 142.262 227.288 142.32 227.451C142.379 227.607 142.467 227.718 142.584 227.783C142.708 227.842 142.867 227.871 143.062 227.871C143.206 227.871 143.336 227.865 143.453 227.852C143.57 227.832 143.658 227.812 143.717 227.793V229.932C143.502 230.016 143.274 230.081 143.033 230.127C142.799 230.173 142.519 230.195 142.193 230.195C141.646 230.195 141.171 230.094 140.768 229.893C140.37 229.684 140.061 229.349 139.84 228.887C139.618 228.424 139.508 227.819 139.508 227.07V216.826ZM155.943 226.26C155.943 226.006 155.921 225.775 155.875 225.566C155.829 225.358 155.732 225.166 155.582 224.99C155.439 224.814 155.227 224.639 154.947 224.463C154.674 224.287 154.316 224.105 153.873 223.916C153.346 223.695 152.835 223.46 152.34 223.213C151.845 222.959 151.399 222.666 151.002 222.334C150.605 222.002 150.289 221.611 150.055 221.162C149.827 220.706 149.713 220.173 149.713 219.561C149.713 218.962 149.82 218.418 150.035 217.93C150.257 217.441 150.569 217.025 150.973 216.68C151.376 216.328 151.848 216.058 152.389 215.869C152.936 215.68 153.544 215.586 154.215 215.586C155.126 215.586 155.914 215.775 156.578 216.152C157.249 216.53 157.766 217.048 158.131 217.705C158.502 218.363 158.688 219.118 158.688 219.971H155.836C155.836 219.567 155.777 219.212 155.66 218.906C155.549 218.594 155.37 218.35 155.123 218.174C154.876 217.998 154.557 217.91 154.166 217.91C153.801 217.91 153.499 217.985 153.258 218.135C153.023 218.278 152.848 218.477 152.73 218.73C152.62 218.978 152.564 219.258 152.564 219.57C152.564 219.805 152.62 220.016 152.73 220.205C152.848 220.387 153.007 220.553 153.209 220.703C153.411 220.846 153.648 220.986 153.922 221.123C154.202 221.26 154.508 221.393 154.84 221.523C155.484 221.777 156.054 222.057 156.549 222.363C157.044 222.663 157.457 223.001 157.789 223.379C158.121 223.75 158.372 224.17 158.541 224.639C158.71 225.107 158.795 225.641 158.795 226.24C158.795 226.833 158.691 227.373 158.482 227.861C158.281 228.343 157.984 228.76 157.594 229.111C157.203 229.456 156.731 229.723 156.178 229.912C155.631 230.101 155.019 230.195 154.342 230.195C153.684 230.195 153.062 230.104 152.477 229.922C151.891 229.733 151.373 229.45 150.924 229.072C150.481 228.688 150.133 228.203 149.879 227.617C149.625 227.025 149.498 226.325 149.498 225.518H152.359C152.359 225.947 152.402 226.315 152.486 226.621C152.571 226.921 152.701 227.161 152.877 227.344C153.053 227.52 153.268 227.653 153.521 227.744C153.782 227.829 154.078 227.871 154.41 227.871C154.788 227.871 155.087 227.799 155.309 227.656C155.536 227.513 155.699 227.321 155.797 227.08C155.895 226.839 155.943 226.566 155.943 226.26ZM163.463 215V230H160.719V215H163.463ZM165.318 225.078V224.365C165.318 223.538 165.416 222.806 165.611 222.168C165.813 221.53 166.1 220.996 166.471 220.566C166.842 220.13 167.288 219.801 167.809 219.58C168.336 219.352 168.925 219.238 169.576 219.238C170.234 219.238 170.823 219.352 171.344 219.58C171.871 219.801 172.32 220.13 172.691 220.566C173.069 220.996 173.359 221.53 173.561 222.168C173.762 222.806 173.863 223.538 173.863 224.365V225.078C173.863 225.898 173.762 226.628 173.561 227.266C173.359 227.904 173.069 228.441 172.691 228.877C172.32 229.313 171.874 229.642 171.354 229.863C170.833 230.085 170.247 230.195 169.596 230.195C168.945 230.195 168.355 230.085 167.828 229.863C167.307 229.642 166.858 229.313 166.48 228.877C166.103 228.441 165.813 227.904 165.611 227.266C165.416 226.628 165.318 225.898 165.318 225.078ZM168.053 224.365V225.078C168.053 225.566 168.085 225.99 168.15 226.348C168.222 226.706 168.323 227.002 168.453 227.236C168.59 227.471 168.753 227.643 168.941 227.754C169.13 227.865 169.348 227.92 169.596 227.92C169.843 227.92 170.064 227.865 170.26 227.754C170.455 227.643 170.615 227.471 170.738 227.236C170.868 227.002 170.963 226.706 171.021 226.348C171.087 225.99 171.119 225.566 171.119 225.078V224.365C171.119 223.89 171.083 223.473 171.012 223.115C170.94 222.751 170.839 222.454 170.709 222.227C170.579 221.992 170.416 221.816 170.221 221.699C170.032 221.576 169.817 221.514 169.576 221.514C169.335 221.514 169.12 221.576 168.932 221.699C168.749 221.816 168.59 221.992 168.453 222.227C168.323 222.454 168.222 222.751 168.15 223.115C168.085 223.473 168.053 223.89 168.053 224.365ZM180.201 219.434V221.494H174.811V219.434H180.201ZM176.051 216.826H178.775V226.777C178.775 227.064 178.805 227.288 178.863 227.451C178.922 227.607 179.01 227.718 179.127 227.783C179.251 227.842 179.41 227.871 179.605 227.871C179.749 227.871 179.879 227.865 179.996 227.852C180.113 227.832 180.201 227.812 180.26 227.793V229.932C180.045 230.016 179.817 230.081 179.576 230.127C179.342 230.173 179.062 230.195 178.736 230.195C178.189 230.195 177.714 230.094 177.311 229.893C176.913 229.684 176.604 229.349 176.383 228.887C176.161 228.424 176.051 227.819 176.051 227.07V216.826ZM189.909 213.5C192.016 213.5 193.656 213.773 194.829 214.32C196.016 214.867 196.609 215.653 196.609 216.68C196.609 217.693 196.016 218.473 194.829 219.02C193.656 219.567 192.016 219.84 189.909 219.84C187.789 219.84 186.136 219.567 184.949 219.02C183.776 218.473 183.189 217.693 183.189 216.68C183.189 215.653 183.776 214.867 184.949 214.32C186.136 213.773 187.789 213.5 189.909 213.5ZM189.889 215.46C189.009 215.46 188.276 215.507 187.689 215.6C187.102 215.68 186.662 215.813 186.369 216C186.089 216.173 185.949 216.4 185.949 216.68C185.949 216.96 186.089 217.193 186.369 217.38C186.662 217.553 187.102 217.68 187.689 217.76C188.276 217.84 189.009 217.88 189.889 217.88C190.782 217.88 191.522 217.84 192.109 217.76C192.696 217.68 193.129 217.553 193.409 217.38C193.689 217.193 193.829 216.96 193.829 216.68C193.829 216.4 193.689 216.173 193.409 216C193.129 215.813 192.696 215.68 192.109 215.6C191.522 215.507 190.782 215.46 189.889 215.46ZM181.509 220.7H198.269V222.8H181.509V220.7ZM183.429 223.84H196.229V228.58H186.089V230.22H183.449V226.74H193.609V225.8H183.429V223.84ZM183.449 229.64H196.729V231.66H183.449V229.64ZM216.437 213.26H219.097V226.72H216.437V213.26ZM218.357 218.54H221.557V220.74H218.357V218.54ZM207.157 229.32H219.757V231.46H207.157V229.32ZM207.157 225.32H209.837V230.28H207.157V225.32ZM209.677 214.44C210.623 214.44 211.477 214.64 212.237 215.04C212.997 215.44 213.597 215.993 214.037 216.7C214.49 217.407 214.717 218.22 214.717 219.14C214.717 220.047 214.49 220.86 214.037 221.58C213.597 222.287 212.997 222.847 212.237 223.26C211.477 223.66 210.623 223.86 209.677 223.86C208.73 223.86 207.877 223.66 207.117 223.26C206.357 222.847 205.757 222.287 205.317 221.58C204.877 220.86 204.657 220.047 204.657 219.14C204.657 218.22 204.877 217.407 205.317 216.7C205.757 215.993 206.357 215.44 207.117 215.04C207.877 214.64 208.73 214.44 209.677 214.44ZM209.677 216.74C209.223 216.74 208.81 216.84 208.437 217.04C208.077 217.227 207.79 217.5 207.577 217.86C207.363 218.207 207.257 218.633 207.257 219.14C207.257 219.647 207.363 220.08 207.577 220.44C207.79 220.787 208.077 221.06 208.437 221.26C208.81 221.447 209.223 221.54 209.677 221.54C210.143 221.54 210.557 221.447 210.917 221.26C211.29 221.06 211.583 220.787 211.797 220.44C212.01 220.08 212.117 219.647 212.117 219.14C212.117 218.633 212.01 218.207 211.797 217.86C211.583 217.5 211.29 217.227 210.917 217.04C210.557 216.84 210.143 216.74 209.677 216.74ZM232.855 218.04H237.155V220.18H232.855V218.04ZM235.755 213.26H238.435V226.76H235.755V213.26ZM226.195 229.32H238.855V231.46H226.195V229.32ZM226.195 225.62H228.855V230.58H226.195V225.62ZM227.215 215.68H229.375V216.84C229.375 218.013 229.189 219.127 228.815 220.18C228.442 221.233 227.869 222.16 227.095 222.96C226.335 223.747 225.355 224.34 224.155 224.74L222.835 222.62C223.595 222.367 224.249 222.04 224.795 221.64C225.355 221.227 225.809 220.76 226.155 220.24C226.515 219.72 226.782 219.173 226.955 218.6C227.129 218.027 227.215 217.44 227.215 216.84V215.68ZM227.775 215.68H229.895V216.84C229.895 217.56 230.042 218.28 230.335 219C230.629 219.707 231.082 220.353 231.695 220.94C232.322 221.513 233.122 221.967 234.095 222.3L232.795 224.36C231.649 223.973 230.702 223.407 229.955 222.66C229.222 221.9 228.675 221.02 228.315 220.02C227.955 219.007 227.775 217.947 227.775 216.84V215.68ZM223.555 214.5H233.515V216.62H223.555V214.5ZM253.194 213.26H255.854V231.78H253.194V213.26ZM255.254 220.48H258.514V222.68H255.254V220.48ZM241.234 215.98H252.034V218.1H241.234V215.98ZM246.674 219.16C247.567 219.16 248.367 219.353 249.074 219.74C249.78 220.113 250.334 220.627 250.734 221.28C251.147 221.933 251.354 222.693 251.354 223.56C251.354 224.427 251.147 225.193 250.734 225.86C250.334 226.513 249.78 227.033 249.074 227.42C248.38 227.793 247.58 227.98 246.674 227.98C245.78 227.98 244.974 227.793 244.254 227.42C243.547 227.033 242.987 226.513 242.574 225.86C242.174 225.193 241.974 224.427 241.974 223.56C241.974 222.693 242.174 221.933 242.574 221.28C242.987 220.627 243.547 220.113 244.254 219.74C244.974 219.353 245.78 219.16 246.674 219.16ZM246.674 221.32C246.247 221.32 245.874 221.407 245.554 221.58C245.234 221.753 244.98 222.007 244.794 222.34C244.607 222.673 244.514 223.08 244.514 223.56C244.514 224.027 244.607 224.433 244.794 224.78C244.98 225.113 245.234 225.373 245.554 225.56C245.874 225.733 246.247 225.82 246.674 225.82C247.087 225.82 247.454 225.733 247.774 225.56C248.094 225.373 248.347 225.113 248.534 224.78C248.72 224.433 248.814 224.027 248.814 223.56C248.814 223.08 248.72 222.673 248.534 222.34C248.347 222.007 248.094 221.753 247.774 221.58C247.454 221.407 247.087 221.32 246.674 221.32ZM245.314 213.56H247.994V216.8H245.314V213.56ZM273.132 213.24H275.672V231.76H273.132V213.24ZM265.812 220.34H269.752V222.46H265.812V220.34ZM269.232 213.64H271.712V230.94H269.232V213.64ZM265.212 215.42H267.772C267.772 217.18 267.565 218.82 267.152 220.34C266.739 221.86 266.039 223.253 265.052 224.52C264.079 225.787 262.725 226.92 260.992 227.92L259.492 226.06C260.892 225.22 262.005 224.307 262.832 223.32C263.672 222.32 264.279 221.22 264.652 220.02C265.025 218.807 265.212 217.453 265.212 215.96V215.42ZM260.512 215.42H266.032V217.56H260.512V215.42ZM286.8 215.02H288.98V216.28C288.98 217.44 288.793 218.54 288.42 219.58C288.047 220.62 287.473 221.533 286.7 222.32C285.927 223.093 284.94 223.673 283.74 224.06L282.42 221.94C283.447 221.62 284.28 221.16 284.92 220.56C285.573 219.96 286.047 219.293 286.34 218.56C286.647 217.813 286.8 217.053 286.8 216.28V215.02ZM287.34 215.02H289.5V216.28C289.5 216.987 289.647 217.687 289.94 218.38C290.233 219.073 290.693 219.7 291.32 220.26C291.96 220.807 292.773 221.24 293.76 221.56L292.48 223.66C291.307 223.3 290.34 222.747 289.58 222C288.82 221.253 288.253 220.387 287.88 219.4C287.52 218.4 287.34 217.36 287.34 216.28V215.02ZM283.12 214.32H293.12V216.44H283.12V214.32ZM294.64 213.26H297.3V223.98H294.64V213.26ZM296.58 217.42H299.76V219.6H296.58V217.42ZM285.26 224.7H297.3V231.58H285.26V224.7ZM294.7 226.78H287.88V229.48H294.7V226.78ZM303.198 213.98H314.918V216.08H303.198V213.98ZM301.138 219.76H317.918V221.88H301.138V219.76ZM313.318 213.98H315.938V215.24C315.938 215.907 315.918 216.667 315.878 217.52C315.838 218.36 315.698 219.32 315.458 220.4L312.838 220.16C313.078 219.107 313.218 218.187 313.258 217.4C313.298 216.613 313.318 215.893 313.318 215.24V213.98ZM302.998 223.14H315.898V228.34H305.678V230.22H303.018V226.38H313.238V225.18H302.998V223.14ZM303.018 229.58H316.378V231.64H303.018V229.58ZM102.613 264.99H99.7031V262.617H102.613C103.023 262.617 103.355 262.526 103.609 262.344C103.863 262.161 104.049 261.911 104.166 261.592C104.283 261.266 104.342 260.902 104.342 260.498C104.342 260.088 104.283 259.704 104.166 259.346C104.049 258.988 103.863 258.701 103.609 258.486C103.355 258.265 103.023 258.154 102.613 258.154H100.631V270H97.7695V255.781H102.613C103.57 255.781 104.391 255.983 105.074 256.387C105.764 256.79 106.295 257.347 106.666 258.057C107.037 258.76 107.223 259.567 107.223 260.479C107.223 261.396 107.037 262.194 106.666 262.871C106.295 263.542 105.764 264.062 105.074 264.434C104.391 264.805 103.57 264.99 102.613 264.99ZM112.105 255.781V270H109.264V255.781H112.105ZM124.488 255.781V270H121.725L117.262 261.104V270H114.547V255.781H117.271L121.773 264.775V255.781H124.488ZM137.398 255.625H137.76V257.949H137.633C137.014 257.949 136.474 258.057 136.012 258.271C135.556 258.48 135.175 258.786 134.869 259.189C134.57 259.587 134.345 260.068 134.195 260.635C134.046 261.195 133.971 261.823 133.971 262.52V264.912C133.971 265.407 134.003 265.843 134.068 266.221C134.14 266.598 134.241 266.914 134.371 267.168C134.508 267.415 134.664 267.601 134.84 267.725C135.022 267.848 135.221 267.91 135.436 267.91C135.657 267.91 135.859 267.845 136.041 267.715C136.223 267.585 136.38 267.406 136.51 267.178C136.64 266.943 136.738 266.673 136.803 266.367C136.874 266.055 136.91 265.71 136.91 265.332C136.91 264.954 136.874 264.609 136.803 264.297C136.731 263.978 136.63 263.704 136.5 263.477C136.37 263.249 136.21 263.073 136.021 262.949C135.839 262.819 135.634 262.754 135.406 262.754C135.074 262.754 134.791 262.855 134.557 263.057C134.322 263.252 134.143 263.506 134.02 263.818C133.896 264.124 133.827 264.447 133.814 264.785L132.994 264.199C133.02 263.704 133.111 263.239 133.268 262.803C133.43 262.36 133.652 261.963 133.932 261.611C134.212 261.26 134.547 260.986 134.938 260.791C135.328 260.589 135.768 260.488 136.256 260.488C136.816 260.488 137.307 260.615 137.73 260.869C138.16 261.123 138.515 261.471 138.795 261.914C139.081 262.357 139.293 262.868 139.43 263.447C139.573 264.027 139.645 264.648 139.645 265.312C139.645 266.003 139.547 266.644 139.352 267.236C139.156 267.829 138.88 268.346 138.521 268.789C138.163 269.232 137.727 269.577 137.213 269.824C136.705 270.072 136.132 270.195 135.494 270.195C134.843 270.195 134.254 270.059 133.727 269.785C133.206 269.512 132.757 269.124 132.379 268.623C132.008 268.115 131.725 267.516 131.529 266.826C131.334 266.136 131.236 265.374 131.236 264.541V263.438C131.236 262.292 131.37 261.243 131.637 260.293C131.904 259.336 132.298 258.509 132.818 257.812C133.346 257.116 133.99 256.579 134.752 256.201C135.52 255.817 136.402 255.625 137.398 255.625ZM145.327 256.18H147.427V258.26C147.427 259.287 147.314 260.313 147.087 261.34C146.874 262.367 146.554 263.333 146.127 264.24C145.701 265.133 145.161 265.933 144.507 266.64C143.867 267.347 143.121 267.9 142.267 268.3L140.767 266.2C141.541 265.84 142.207 265.367 142.767 264.78C143.341 264.193 143.814 263.54 144.187 262.82C144.574 262.1 144.861 261.353 145.047 260.58C145.234 259.793 145.327 259.02 145.327 258.26V256.18ZM145.887 256.18H147.987V258.26C147.987 258.953 148.081 259.667 148.267 260.4C148.454 261.133 148.727 261.84 149.087 262.52C149.461 263.2 149.927 263.82 150.487 264.38C151.061 264.927 151.727 265.373 152.487 265.72L151.007 267.84C150.154 267.44 149.407 266.907 148.767 266.24C148.141 265.56 147.607 264.793 147.167 263.94C146.741 263.073 146.421 262.16 146.207 261.2C145.994 260.227 145.887 259.247 145.887 258.26V256.18ZM141.487 255.02H151.667V257.22H141.487V255.02ZM153.007 253.26H155.687V271.78H153.007V253.26ZM155.107 260.32H158.367V262.5H155.107V260.32ZM172.326 253.22H175.006V271.8H172.326V253.22ZM160.586 265.32H162.226C163.319 265.32 164.352 265.307 165.326 265.28C166.299 265.24 167.252 265.18 168.186 265.1C169.119 265.007 170.072 264.873 171.046 264.7L171.326 266.84C169.832 267.107 168.359 267.287 166.906 267.38C165.466 267.46 163.906 267.5 162.226 267.5H160.586V265.32ZM160.546 254.8H169.286V261.98H163.286V266.14H160.586V259.88H166.586V256.94H160.546V254.8ZM177.984 261.56H194.744V263.48H177.984V261.56ZM179.864 264.42H192.764V268.82H182.524V270.4H179.884V267.14H190.144V266.22H179.864V264.42ZM179.884 269.82H193.284V271.62H179.884V269.82ZM180.024 253.56H192.704V257.94H182.684V259.44H180.064V256.26H190.084V255.36H180.024V253.56ZM180.064 258.9H193.044V260.7H180.064V258.9ZM213.712 253.26H216.372V263.2H213.712V253.26ZM204.072 264.02H206.692V265.74H213.732V264.02H216.372V271.58H204.072V264.02ZM206.692 267.78V269.46H213.732V267.78H206.692ZM206.292 254.02C207.252 254.02 208.112 254.207 208.872 254.58C209.632 254.953 210.232 255.467 210.672 256.12C211.112 256.773 211.332 257.527 211.332 258.38C211.332 259.233 211.112 259.993 210.672 260.66C210.232 261.313 209.632 261.827 208.872 262.2C208.112 262.573 207.252 262.76 206.292 262.76C205.332 262.76 204.472 262.573 203.712 262.2C202.952 261.827 202.352 261.313 201.912 260.66C201.472 259.993 201.252 259.233 201.252 258.38C201.252 257.527 201.472 256.773 201.912 256.12C202.352 255.467 202.952 254.953 203.712 254.58C204.472 254.207 205.332 254.02 206.292 254.02ZM206.292 256.2C205.825 256.2 205.405 256.287 205.032 256.46C204.659 256.633 204.365 256.887 204.152 257.22C203.952 257.54 203.852 257.927 203.852 258.38C203.852 258.847 203.952 259.247 204.152 259.58C204.365 259.9 204.659 260.147 205.032 260.32C205.405 260.48 205.825 260.56 206.292 260.56C206.759 260.56 207.172 260.48 207.532 260.32C207.905 260.147 208.199 259.9 208.412 259.58C208.625 259.247 208.732 258.847 208.732 258.38C208.732 257.927 208.625 257.54 208.412 257.22C208.199 256.887 207.905 256.633 207.532 256.46C207.172 256.287 206.759 256.2 206.292 256.2ZM220.09 262.06H221.49C222.65 262.06 223.644 262.053 224.47 262.04C225.31 262.013 226.077 261.967 226.77 261.9C227.464 261.833 228.15 261.74 228.83 261.62L229.11 263.74C228.564 263.833 228.024 263.913 227.49 263.98C226.97 264.047 226.41 264.093 225.81 264.12C225.224 264.147 224.577 264.167 223.87 264.18C223.177 264.193 222.384 264.2 221.49 264.2H220.09V262.06ZM220.05 254.3H228.19V260.14H222.73V263.48H220.09V258.16H225.57V256.42H220.05V254.3ZM232.21 253.26H234.89V264.68H232.21V253.26ZM229.25 255.82H232.71V257.94H229.25V255.82ZM229.25 259.76H232.71V261.88H229.25V259.76ZM222.19 265.52H234.89V271.78H232.21V267.62H222.19V265.52ZM237.769 256.04H246.629V258.14H237.769V256.04ZM242.229 258.98C243.015 258.98 243.709 259.167 244.309 259.54C244.922 259.913 245.402 260.433 245.749 261.1C246.109 261.753 246.289 262.513 246.289 263.38C246.289 264.247 246.109 265.013 245.749 265.68C245.402 266.333 244.922 266.847 244.309 267.22C243.709 267.593 243.015 267.78 242.229 267.78C241.442 267.78 240.742 267.593 240.129 267.22C239.515 266.847 239.035 266.333 238.689 265.68C238.342 265.013 238.169 264.247 238.169 263.38C238.169 262.513 238.342 261.753 238.689 261.1C239.035 260.433 239.515 259.913 240.129 259.54C240.755 259.167 241.455 258.98 242.229 258.98ZM242.229 261.18C241.909 261.18 241.615 261.267 241.349 261.44C241.082 261.613 240.875 261.867 240.729 262.2C240.582 262.52 240.509 262.913 240.509 263.38C240.509 263.847 240.582 264.247 240.729 264.58C240.875 264.913 241.082 265.167 241.349 265.34C241.615 265.5 241.909 265.58 242.229 265.58C242.562 265.58 242.855 265.5 243.109 265.34C243.362 265.167 243.562 264.913 243.709 264.58C243.855 264.247 243.929 263.847 243.929 263.38C243.929 262.913 243.855 262.52 243.709 262.2C243.562 261.867 243.362 261.613 243.109 261.44C242.855 261.267 242.562 261.18 242.229 261.18ZM251.169 253.24H253.689V271.76H251.169V253.24ZM248.949 260.78H251.989V262.92H248.949V260.78ZM247.269 253.58H249.749V270.98H247.269V253.58ZM240.929 253.74H243.549V257.36H240.929V253.74ZM263.027 255.3H265.347V255.86C265.347 256.5 265.241 257.12 265.027 257.72C264.827 258.32 264.521 258.88 264.107 259.4C263.694 259.907 263.187 260.367 262.587 260.78C262.001 261.18 261.321 261.52 260.547 261.8C259.774 262.08 258.914 262.28 257.967 262.4L256.987 260.34C257.814 260.233 258.547 260.073 259.187 259.86C259.841 259.633 260.407 259.373 260.887 259.08C261.367 258.773 261.767 258.447 262.087 258.1C262.407 257.753 262.641 257.387 262.787 257C262.947 256.613 263.027 256.233 263.027 255.86V255.3ZM263.807 255.3H266.107V255.86C266.107 256.233 266.181 256.613 266.327 257C266.487 257.387 266.727 257.753 267.047 258.1C267.367 258.447 267.767 258.773 268.247 259.08C268.741 259.373 269.307 259.633 269.947 259.86C270.587 260.073 271.321 260.233 272.147 260.34L271.167 262.4C270.221 262.28 269.361 262.08 268.587 261.8C267.814 261.52 267.127 261.18 266.527 260.78C265.941 260.367 265.441 259.907 265.027 259.4C264.627 258.88 264.321 258.32 264.107 257.72C263.907 257.12 263.807 256.5 263.807 255.86V255.3ZM263.167 265H265.827V271.78H263.167V265ZM256.187 263.46H272.947V265.6H256.187V263.46ZM257.667 254.2H271.407V256.3H257.667V254.2ZM281.866 259.48H284.946V261.64H281.866V259.48ZM277.926 254.86H279.946V257.96C279.946 259.013 279.872 260.047 279.726 261.06C279.579 262.073 279.339 263.027 279.006 263.92C278.686 264.813 278.259 265.62 277.726 266.34C277.206 267.047 276.572 267.627 275.826 268.08L274.226 266.08C274.919 265.667 275.499 265.16 275.966 264.56C276.432 263.96 276.812 263.3 277.106 262.58C277.399 261.86 277.606 261.113 277.726 260.34C277.859 259.553 277.926 258.76 277.926 257.96V254.86ZM278.506 254.86H280.486V257.84C280.486 258.6 280.539 259.353 280.646 260.1C280.766 260.847 280.952 261.56 281.206 262.24C281.459 262.92 281.792 263.547 282.206 264.12C282.632 264.693 283.166 265.187 283.806 265.6L282.346 267.68C281.626 267.227 281.012 266.653 280.506 265.96C280.012 265.253 279.619 264.46 279.326 263.58C279.032 262.7 278.819 261.773 278.686 260.8C278.566 259.827 278.506 258.84 278.506 257.84V254.86ZM287.946 253.24H290.486V271.76H287.946V253.24ZM284.186 253.54H286.666V270.94H284.186V253.54ZM296.664 262.66H299.324V267.84H296.664V262.66ZM303.384 262.66H306.044V267.84H303.384V262.66ZM292.984 267.46H309.764V269.62H292.984V267.46ZM301.344 254.16C302.677 254.16 303.864 254.367 304.904 254.78C305.957 255.193 306.777 255.773 307.364 256.52C307.964 257.253 308.264 258.127 308.264 259.14C308.264 260.14 307.964 261.013 307.364 261.76C306.777 262.493 305.957 263.067 304.904 263.48C303.864 263.893 302.677 264.1 301.344 264.1C300.024 264.1 298.837 263.893 297.784 263.48C296.744 263.067 295.924 262.493 295.324 261.76C294.724 261.013 294.424 260.14 294.424 259.14C294.424 258.127 294.724 257.253 295.324 256.52C295.924 255.773 296.744 255.193 297.784 254.78C298.837 254.367 300.024 254.16 301.344 254.16ZM301.344 256.22C300.491 256.22 299.737 256.34 299.084 256.58C298.444 256.807 297.944 257.133 297.584 257.56C297.224 257.987 297.044 258.513 297.044 259.14C297.044 259.74 297.224 260.26 297.584 260.7C297.944 261.127 298.444 261.46 299.084 261.7C299.737 261.927 300.491 262.04 301.344 262.04C302.211 262.04 302.964 261.927 303.604 261.7C304.257 261.46 304.757 261.127 305.104 260.7C305.464 260.26 305.644 259.74 305.644 259.14C305.644 258.513 305.464 257.987 305.104 257.56C304.757 257.133 304.257 256.807 303.604 256.58C302.964 256.34 302.211 256.22 301.344 256.22ZM311.803 268.604C311.803 268.174 311.946 267.816 312.232 267.529C312.519 267.236 312.906 267.09 313.395 267.09C313.883 267.09 314.27 267.236 314.557 267.529C314.843 267.816 314.986 268.174 314.986 268.604C314.986 269.033 314.843 269.391 314.557 269.678C314.27 269.964 313.883 270.107 313.395 270.107C312.906 270.107 312.519 269.964 312.232 269.678C311.946 269.391 311.803 269.033 311.803 268.604Z" fill="black"/>
<circle cx="111.5" cy="320.5" r="6.5" fill="#575757"/>
<circle cx="149.5" cy="320.5" r="6.5" fill="#575757"/>
<circle cx="187.5" cy="320.5" r="6.5" fill="#575757"/>
<circle cx="225.5" cy="320.5" r="6.5" fill="#575757"/>
<circle cx="263.5" cy="320.5" r="6.5" fill="#575757"/>
<circle cx="301.5" cy="320.5" r="6.5" fill="#575757"/>
<path d="M307.008 514.75H307.441V517.539H307.289C306.547 517.539 305.898 517.668 305.344 517.926C304.797 518.176 304.34 518.543 303.973 519.027C303.613 519.504 303.344 520.082 303.164 520.762C302.984 521.434 302.895 522.188 302.895 523.023V525.895C302.895 526.488 302.934 527.012 303.012 527.465C303.098 527.918 303.219 528.297 303.375 528.602C303.539 528.898 303.727 529.121 303.938 529.27C304.156 529.418 304.395 529.492 304.652 529.492C304.918 529.492 305.16 529.414 305.379 529.258C305.598 529.102 305.785 528.887 305.941 528.613C306.098 528.332 306.215 528.008 306.293 527.641C306.379 527.266 306.422 526.852 306.422 526.398C306.422 525.945 306.379 525.531 306.293 525.156C306.207 524.773 306.086 524.445 305.93 524.172C305.773 523.898 305.582 523.688 305.355 523.539C305.137 523.383 304.891 523.305 304.617 523.305C304.219 523.305 303.879 523.426 303.598 523.668C303.316 523.902 303.102 524.207 302.953 524.582C302.805 524.949 302.723 525.336 302.707 525.742L301.723 525.039C301.754 524.445 301.863 523.887 302.051 523.363C302.246 522.832 302.512 522.355 302.848 521.934C303.184 521.512 303.586 521.184 304.055 520.949C304.523 520.707 305.051 520.586 305.637 520.586C306.309 520.586 306.898 520.738 307.406 521.043C307.922 521.348 308.348 521.766 308.684 522.297C309.027 522.828 309.281 523.441 309.445 524.137C309.617 524.832 309.703 525.578 309.703 526.375C309.703 527.203 309.586 527.973 309.352 528.684C309.117 529.395 308.785 530.016 308.355 530.547C307.926 531.078 307.402 531.492 306.785 531.789C306.176 532.086 305.488 532.234 304.723 532.234C303.941 532.234 303.234 532.07 302.602 531.742C301.977 531.414 301.438 530.949 300.984 530.348C300.539 529.738 300.199 529.02 299.965 528.191C299.73 527.363 299.613 526.449 299.613 525.449V524.125C299.613 522.75 299.773 521.492 300.094 520.352C300.414 519.203 300.887 518.211 301.512 517.375C302.145 516.539 302.918 515.895 303.832 515.441C304.754 514.98 305.812 514.75 307.008 514.75Z" fill="black"/>
<path d="M309.387 622.312C309.387 623.391 309.176 624.297 308.754 625.031C308.34 625.758 307.762 626.309 307.02 626.684C306.285 627.051 305.449 627.234 304.512 627.234C303.574 627.234 302.734 627.051 301.992 626.684C301.25 626.309 300.664 625.758 300.234 625.031C299.805 624.297 299.59 623.391 299.59 622.312C299.59 621.586 299.711 620.934 299.953 620.355C300.195 619.777 300.535 619.277 300.973 618.855C301.418 618.434 301.938 618.113 302.531 617.895C303.133 617.668 303.785 617.555 304.488 617.555C305.434 617.555 306.277 617.75 307.02 618.141C307.762 618.531 308.34 619.082 308.754 619.793C309.176 620.504 309.387 621.344 309.387 622.312ZM306.094 622.078C306.094 621.562 306.027 621.121 305.895 620.754C305.77 620.387 305.586 620.105 305.344 619.91C305.102 619.715 304.816 619.617 304.488 619.617C304.16 619.617 303.875 619.715 303.633 619.91C303.398 620.105 303.215 620.387 303.082 620.754C302.949 621.121 302.883 621.562 302.883 622.078C302.883 622.578 302.945 623.008 303.07 623.367C303.203 623.727 303.391 624.008 303.633 624.211C303.883 624.406 304.176 624.504 304.512 624.504C304.848 624.504 305.133 624.406 305.367 624.211C305.609 624.008 305.789 623.727 305.906 623.367C306.031 623.008 306.094 622.578 306.094 622.078ZM309.105 614.473C309.105 615.348 308.91 616.117 308.52 616.781C308.129 617.445 307.586 617.965 306.891 618.34C306.203 618.715 305.41 618.902 304.512 618.902C303.605 618.902 302.801 618.715 302.098 618.34C301.402 617.965 300.859 617.445 300.469 616.781C300.078 616.117 299.883 615.348 299.883 614.473C299.883 613.441 300.078 612.57 300.469 611.859C300.867 611.148 301.414 610.609 302.109 610.242C302.805 609.875 303.602 609.691 304.5 609.691C305.398 609.691 306.195 609.875 306.891 610.242C307.586 610.609 308.129 611.148 308.52 611.859C308.91 612.57 309.105 613.441 309.105 614.473ZM305.824 614.637C305.824 614.191 305.773 613.805 305.672 613.477C305.578 613.141 305.434 612.883 305.238 612.703C305.051 612.516 304.805 612.422 304.5 612.422C304.211 612.422 303.965 612.512 303.762 612.691C303.566 612.863 303.418 613.117 303.316 613.453C303.223 613.781 303.176 614.176 303.176 614.637C303.176 615.082 303.223 615.473 303.316 615.809C303.418 616.145 303.566 616.41 303.762 616.605C303.965 616.793 304.215 616.887 304.512 616.887C304.809 616.887 305.051 616.793 305.238 616.605C305.434 616.41 305.578 616.145 305.672 615.809C305.773 615.473 305.824 615.082 305.824 614.637Z" fill="black"/>
<path d="M301.496 711.957H303.102C303.508 711.957 303.844 711.863 304.109 711.676C304.375 711.48 304.57 711.207 304.695 710.855C304.82 710.496 304.883 710.078 304.883 709.602C304.883 709.18 304.824 708.809 304.707 708.488C304.59 708.16 304.41 707.902 304.168 707.715C303.926 707.52 303.621 707.422 303.254 707.422C302.973 707.422 302.707 707.5 302.457 707.656C302.215 707.805 302.023 708.023 301.883 708.312C301.742 708.602 301.672 708.945 301.672 709.344H298.379C298.379 708.406 298.59 707.59 299.012 706.895C299.441 706.199 300.02 705.66 300.746 705.277C301.473 704.887 302.277 704.691 303.16 704.691C304.152 704.691 305.023 704.875 305.773 705.242C306.523 705.609 307.109 706.156 307.531 706.883C307.953 707.602 308.164 708.492 308.164 709.555C308.164 710.102 308.062 710.629 307.859 711.137C307.656 711.637 307.359 712.09 306.969 712.496C306.578 712.902 306.102 713.223 305.539 713.457C304.977 713.691 304.34 713.809 303.629 713.809H301.496V711.957ZM301.496 714.617V712.824H303.629C304.434 712.824 305.133 712.93 305.727 713.141C306.32 713.344 306.812 713.641 307.203 714.031C307.602 714.422 307.898 714.887 308.094 715.426C308.289 715.957 308.387 716.551 308.387 717.207C308.387 718.004 308.254 718.715 307.988 719.34C307.723 719.965 307.352 720.492 306.875 720.922C306.398 721.352 305.844 721.68 305.211 721.906C304.578 722.125 303.891 722.234 303.148 722.234C302.531 722.234 301.926 722.137 301.332 721.941C300.746 721.746 300.219 721.445 299.75 721.039C299.281 720.633 298.91 720.121 298.637 719.504C298.363 718.887 298.227 718.156 298.227 717.312H301.508C301.508 717.734 301.582 718.113 301.73 718.449C301.887 718.777 302.094 719.035 302.352 719.223C302.609 719.41 302.902 719.504 303.23 719.504C303.613 719.504 303.945 719.406 304.227 719.211C304.508 719.016 304.723 718.742 304.871 718.391C305.02 718.039 305.094 717.633 305.094 717.172C305.094 716.562 305.016 716.074 304.859 715.707C304.703 715.332 304.477 715.059 304.18 714.887C303.883 714.707 303.523 714.617 303.102 714.617H301.496Z" fill="black"/>
<path d="M211.445 521.969V524.934C211.445 526.215 211.324 527.316 211.082 528.238C210.84 529.16 210.5 529.918 210.062 530.512C209.625 531.098 209.105 531.531 208.504 531.812C207.902 532.094 207.238 532.234 206.512 532.234C205.934 532.234 205.391 532.145 204.883 531.965C204.375 531.785 203.914 531.512 203.5 531.145C203.094 530.77 202.742 530.297 202.445 529.727C202.156 529.148 201.934 528.465 201.777 527.676C201.621 526.879 201.543 525.965 201.543 524.934V521.969C201.543 520.688 201.664 519.59 201.906 518.676C202.156 517.754 202.5 517 202.938 516.414C203.375 515.828 203.895 515.398 204.496 515.125C205.105 514.844 205.773 514.703 206.5 514.703C207.07 514.703 207.609 514.793 208.117 514.973C208.625 515.145 209.082 515.414 209.488 515.781C209.895 516.148 210.242 516.621 210.531 517.199C210.828 517.77 211.055 518.453 211.211 519.25C211.367 520.039 211.445 520.945 211.445 521.969ZM208.152 525.391V521.488C208.152 520.887 208.125 520.359 208.07 519.906C208.023 519.453 207.953 519.07 207.859 518.758C207.773 518.445 207.66 518.191 207.52 517.996C207.387 517.801 207.234 517.66 207.062 517.574C206.891 517.48 206.703 517.434 206.5 517.434C206.242 517.434 206.012 517.504 205.809 517.645C205.605 517.785 205.43 518.016 205.281 518.336C205.133 518.648 205.02 519.066 204.941 519.59C204.871 520.105 204.836 520.738 204.836 521.488V525.391C204.836 525.992 204.859 526.523 204.906 526.984C204.961 527.445 205.035 527.84 205.129 528.168C205.23 528.488 205.344 528.746 205.469 528.941C205.602 529.137 205.754 529.281 205.926 529.375C206.105 529.461 206.301 529.504 206.512 529.504C206.762 529.504 206.988 529.434 207.191 529.293C207.402 529.145 207.578 528.91 207.719 528.59C207.859 528.27 207.965 527.848 208.035 527.324C208.113 526.793 208.152 526.148 208.152 525.391Z" fill="black"/>
<path d="M204.52 619.266L201.895 618.609L202.75 609.938H210.988V612.75H205.445L205.129 616.418C205.309 616.293 205.574 616.156 205.926 616.008C206.285 615.859 206.684 615.785 207.121 615.785C207.832 615.785 208.457 615.914 208.996 616.172C209.543 616.43 210.004 616.805 210.379 617.297C210.754 617.789 211.039 618.391 211.234 619.102C211.43 619.812 211.527 620.617 211.527 621.516C211.527 622.273 211.426 622.996 211.223 623.684C211.02 624.371 210.707 624.98 210.285 625.512C209.863 626.043 209.34 626.465 208.715 626.777C208.098 627.082 207.367 627.234 206.523 627.234C205.891 627.234 205.281 627.125 204.695 626.906C204.109 626.688 203.582 626.363 203.113 625.934C202.645 625.496 202.27 624.973 201.988 624.363C201.707 623.746 201.566 623.043 201.566 622.254H204.812C204.852 622.715 204.941 623.113 205.082 623.449C205.23 623.785 205.426 624.047 205.668 624.234C205.91 624.414 206.191 624.504 206.512 624.504C206.832 624.504 207.102 624.426 207.32 624.27C207.547 624.105 207.727 623.879 207.859 623.59C207.992 623.301 208.086 622.965 208.141 622.582C208.203 622.191 208.234 621.773 208.234 621.328C208.234 620.875 208.195 620.465 208.117 620.098C208.039 619.73 207.918 619.414 207.754 619.148C207.59 618.883 207.375 618.68 207.109 618.539C206.852 618.398 206.551 618.328 206.207 618.328C205.723 618.328 205.359 618.43 205.117 618.633C204.883 618.828 204.684 619.039 204.52 619.266Z" fill="black"/>
<path d="M210.738 715.578V718.309H200.32L200.168 716.164L205.969 704.938H208.57L205.91 709.93L203.379 715.578H210.738ZM209.285 704.938V722H205.992V704.938H209.285Z" fill="black"/>
<path opacity="0.9" d="M105.664 529.34H105.828C106.578 529.34 107.219 529.23 107.75 529.012C108.289 528.793 108.727 528.473 109.062 528.051C109.406 527.621 109.656 527.098 109.812 526.48C109.969 525.855 110.047 525.141 110.047 524.336V521.043C110.047 520.434 110.004 519.906 109.918 519.461C109.832 519.008 109.711 518.633 109.555 518.336C109.398 518.031 109.223 517.805 109.027 517.656C108.832 517.508 108.621 517.434 108.395 517.434C108.129 517.434 107.895 517.527 107.691 517.715C107.488 517.895 107.316 518.137 107.176 518.441C107.043 518.746 106.941 519.094 106.871 519.484C106.801 519.875 106.766 520.281 106.766 520.703C106.766 521.133 106.801 521.543 106.871 521.934C106.941 522.316 107.047 522.656 107.188 522.953C107.328 523.242 107.508 523.469 107.727 523.633C107.945 523.797 108.207 523.879 108.512 523.879C108.762 523.879 108.992 523.809 109.203 523.668C109.414 523.52 109.598 523.328 109.754 523.094C109.918 522.852 110.043 522.586 110.129 522.297C110.223 522 110.273 521.699 110.281 521.395L111.348 522.062C111.348 522.594 111.25 523.121 111.055 523.645C110.867 524.168 110.605 524.645 110.27 525.074C109.934 525.504 109.543 525.848 109.098 526.105C108.66 526.355 108.188 526.48 107.68 526.48C107 526.48 106.398 526.336 105.875 526.047C105.352 525.75 104.91 525.344 104.551 524.828C104.199 524.312 103.934 523.707 103.754 523.012C103.574 522.316 103.484 521.559 103.484 520.738C103.484 519.91 103.598 519.133 103.824 518.406C104.059 517.672 104.391 517.027 104.82 516.473C105.25 515.918 105.77 515.484 106.379 515.172C106.988 514.852 107.668 514.691 108.418 514.691C109.16 514.691 109.832 514.855 110.434 515.184C111.035 515.512 111.551 515.984 111.98 516.602C112.41 517.211 112.738 517.945 112.965 518.805C113.199 519.656 113.316 520.609 113.316 521.664V522.836C113.316 523.961 113.219 525.004 113.023 525.965C112.828 526.918 112.531 527.777 112.133 528.543C111.734 529.309 111.238 529.965 110.645 530.512C110.051 531.051 109.355 531.465 108.559 531.754C107.77 532.035 106.875 532.176 105.875 532.176H105.664V529.34Z" fill="black"/>
<path d="M110.832 609.902V627H107.539V613.934L104.281 615.188V612.445L110.469 609.902H110.832Z" fill="black"/>
<path d="M112.539 704.938V706.812L107.148 722H103.68L109.094 707.668H102.227V704.938H112.539Z" fill="black"/>
<path d="M211.598 803.27V806H201.543V803.668L206.16 797.797C206.605 797.188 206.953 796.648 207.203 796.18C207.453 795.711 207.633 795.293 207.742 794.926C207.852 794.551 207.906 794.195 207.906 793.859C207.906 793.359 207.848 792.93 207.73 792.57C207.613 792.203 207.438 791.922 207.203 791.727C206.977 791.523 206.695 791.422 206.359 791.422C205.953 791.422 205.617 791.547 205.352 791.797C205.086 792.047 204.887 792.391 204.754 792.828C204.629 793.258 204.566 793.746 204.566 794.293H201.273C201.273 793.277 201.48 792.344 201.895 791.492C202.316 790.633 202.906 789.953 203.664 789.453C204.43 788.945 205.348 788.691 206.418 788.691C207.457 788.691 208.332 788.887 209.043 789.277C209.754 789.668 210.289 790.227 210.648 790.953C211.016 791.672 211.199 792.535 211.199 793.543C211.199 794.105 211.125 794.656 210.977 795.195C210.828 795.727 210.617 796.258 210.344 796.789C210.07 797.312 209.73 797.848 209.324 798.395C208.926 798.941 208.48 799.508 207.988 800.094L205.762 803.27H211.598Z" fill="black"/>
<path d="M108.59 796.17L103.41 791L102 792.41L107.17 797.58L108.59 796.17ZM112.5 791L114.54 793.04L102 805.59L103.41 807L115.96 794.46L118 796.5V791H112.5ZM112.83 800.41L111.42 801.82L114.55 804.95L112.5 807H118V801.5L115.96 803.54L112.83 800.41Z" fill="#0C0C0C"/>
<path d="M296.946 795.2L298.002 794.144C298.47 793.676 298.47 792.92 298.002 792.452C297.534 791.984 296.778 791.984 296.31 792.452L293.202 795.56C292.734 796.028 292.734 796.784 293.202 797.252L296.298 800.348C296.766 800.816 297.522 800.816 297.99 800.348C298.458 799.88 298.458 799.124 297.99 798.656L296.946 797.6H312.75C313.41 797.6 313.95 797.06 313.95 796.4C313.95 795.74 313.41 795.2 312.75 795.2H296.946Z" fill="#0C0C0C"/>
<path d="M27.416 12.0469V12.7578L23.2939 22H21.9609L26.0762 13.0859H20.6895V12.0469H27.416ZM28.9404 21.3301C28.9404 21.1159 29.0065 20.9359 29.1387 20.79C29.2754 20.6396 29.4714 20.5645 29.7266 20.5645C29.9818 20.5645 30.1755 20.6396 30.3076 20.79C30.4443 20.9359 30.5127 21.1159 30.5127 21.3301C30.5127 21.5397 30.4443 21.7174 30.3076 21.8633C30.1755 22.0091 29.9818 22.082 29.7266 22.082C29.4714 22.082 29.2754 22.0091 29.1387 21.8633C29.0065 21.7174 28.9404 21.5397 28.9404 21.3301ZM28.9473 15.2939C28.9473 15.0798 29.0133 14.8997 29.1455 14.7539C29.2822 14.6035 29.4782 14.5283 29.7334 14.5283C29.9886 14.5283 30.1823 14.6035 30.3145 14.7539C30.4512 14.8997 30.5195 15.0798 30.5195 15.2939C30.5195 15.5036 30.4512 15.6813 30.3145 15.8271C30.1823 15.973 29.9886 16.0459 29.7334 16.0459C29.4782 16.0459 29.2822 15.973 29.1455 15.8271C29.0133 15.6813 28.9473 15.5036 28.9473 15.2939ZM34.0947 16.4014H34.9971C35.4391 16.4014 35.8037 16.3285 36.0908 16.1826C36.3825 16.0322 36.599 15.8294 36.7402 15.5742C36.8861 15.3145 36.959 15.0228 36.959 14.6992C36.959 14.3164 36.8952 13.9951 36.7676 13.7354C36.64 13.4756 36.4486 13.2796 36.1934 13.1475C35.9382 13.0153 35.6146 12.9492 35.2227 12.9492C34.8672 12.9492 34.5527 13.0199 34.2793 13.1611C34.0104 13.2979 33.7985 13.4938 33.6436 13.749C33.4932 14.0042 33.418 14.305 33.418 14.6514H32.1533C32.1533 14.1455 32.2809 13.6852 32.5361 13.2705C32.7913 12.8558 33.1491 12.5254 33.6094 12.2793C34.0742 12.0332 34.612 11.9102 35.2227 11.9102C35.8242 11.9102 36.3506 12.0173 36.8018 12.2314C37.2529 12.4411 37.6038 12.7555 37.8545 13.1748C38.1051 13.5895 38.2305 14.1068 38.2305 14.7266C38.2305 14.9772 38.1712 15.2461 38.0527 15.5332C37.9388 15.8158 37.7588 16.0801 37.5127 16.3262C37.2712 16.5723 36.9567 16.7751 36.5693 16.9346C36.182 17.0895 35.7171 17.167 35.1748 17.167H34.0947V16.4014ZM34.0947 17.4404V16.6816H35.1748C35.8083 16.6816 36.3324 16.7568 36.7471 16.9072C37.1618 17.0576 37.4876 17.2581 37.7246 17.5088C37.9661 17.7594 38.1348 18.0352 38.2305 18.3359C38.3307 18.6322 38.3809 18.9284 38.3809 19.2246C38.3809 19.6895 38.3011 20.1019 38.1416 20.4619C37.9867 20.8219 37.7656 21.1273 37.4785 21.3779C37.196 21.6286 36.8633 21.8177 36.4805 21.9453C36.0977 22.0729 35.6807 22.1367 35.2295 22.1367C34.7965 22.1367 34.3887 22.0752 34.0059 21.9521C33.6276 21.8291 33.2926 21.6514 33.001 21.4189C32.7093 21.182 32.4814 20.8926 32.3174 20.5508C32.1533 20.2044 32.0713 19.8102 32.0713 19.3682H33.3359C33.3359 19.7145 33.4111 20.0176 33.5615 20.2773C33.7165 20.5371 33.9352 20.7399 34.2178 20.8857C34.5049 21.027 34.8421 21.0977 35.2295 21.0977C35.6169 21.0977 35.9495 21.0316 36.2275 20.8994C36.5101 20.7627 36.7266 20.5576 36.877 20.2842C37.0319 20.0107 37.1094 19.6667 37.1094 19.252C37.1094 18.8372 37.0228 18.4977 36.8496 18.2334C36.6764 17.9645 36.4303 17.7663 36.1113 17.6387C35.7969 17.5065 35.4255 17.4404 34.9971 17.4404H34.0947ZM46.3721 16.2305V17.748C46.3721 18.5638 46.2992 19.252 46.1533 19.8125C46.0075 20.373 45.7979 20.8242 45.5244 21.166C45.251 21.5078 44.9206 21.7562 44.5332 21.9111C44.1504 22.0615 43.7174 22.1367 43.2344 22.1367C42.8516 22.1367 42.4984 22.0889 42.1748 21.9932C41.8512 21.8975 41.5596 21.7448 41.2998 21.5352C41.0446 21.321 40.8258 21.043 40.6436 20.7012C40.4613 20.3594 40.3223 19.9447 40.2266 19.457C40.1309 18.9694 40.083 18.3997 40.083 17.748V16.2305C40.083 15.4147 40.1559 14.7311 40.3018 14.1797C40.4521 13.6283 40.6641 13.1862 40.9375 12.8535C41.2109 12.5163 41.5391 12.2747 41.9219 12.1289C42.3092 11.9831 42.7422 11.9102 43.2207 11.9102C43.6081 11.9102 43.9635 11.958 44.2871 12.0537C44.6152 12.1449 44.9069 12.293 45.1621 12.498C45.4173 12.6986 45.6338 12.9674 45.8115 13.3047C45.9938 13.6374 46.1328 14.0452 46.2285 14.5283C46.3242 15.0114 46.3721 15.5788 46.3721 16.2305ZM45.1006 17.9531V16.0186C45.1006 15.5719 45.0732 15.18 45.0186 14.8428C44.9684 14.501 44.8932 14.2093 44.793 13.9678C44.6927 13.7262 44.5651 13.5303 44.4102 13.3799C44.2598 13.2295 44.0843 13.1201 43.8838 13.0518C43.6878 12.9788 43.4668 12.9424 43.2207 12.9424C42.9199 12.9424 42.6533 12.9993 42.4209 13.1133C42.1885 13.2227 41.9925 13.3981 41.833 13.6396C41.6781 13.8812 41.5596 14.1979 41.4775 14.5898C41.3955 14.9818 41.3545 15.458 41.3545 16.0186V17.9531C41.3545 18.3997 41.3796 18.7939 41.4297 19.1357C41.4844 19.4775 41.5641 19.7738 41.6689 20.0244C41.7738 20.2705 41.9014 20.4733 42.0518 20.6328C42.2021 20.7923 42.3753 20.9108 42.5713 20.9883C42.7718 21.0612 42.9928 21.0977 43.2344 21.0977C43.5443 21.0977 43.8154 21.0384 44.0479 20.9199C44.2803 20.8014 44.474 20.6169 44.6289 20.3662C44.7884 20.111 44.9069 19.7852 44.9844 19.3887C45.0618 18.9876 45.1006 18.5091 45.1006 17.9531ZM55.4844 12.9287L52.1895 22H50.8428L54.6367 12.0469H55.5049L55.4844 12.9287ZM58.2461 22L54.9443 12.9287L54.9238 12.0469H55.792L59.5996 22H58.2461ZM58.0752 18.3154V19.3955H52.4834V18.3154H58.0752ZM61.3496 12.0469H62.6279L65.8887 20.1611L69.1426 12.0469H70.4277L66.3809 22H65.3828L61.3496 12.0469ZM60.9326 12.0469H62.0605L62.2451 18.1172V22H60.9326V12.0469ZM69.71 12.0469H70.8379V22H69.5254V18.1172L69.71 12.0469Z" fill="#0C0C0C"/>
<path d="M322.792 12.9478L324.375 14.5311C328.31 10.5966 334.69 10.5966 338.625 14.5311L340.208 12.9478C335.403 8.1424 327.605 8.1424 322.792 12.9478ZM329.125 19.2811L331.5 21.6561L333.875 19.2811C332.569 17.967 330.439 17.967 329.125 19.2811ZM325.958 16.1145L327.542 17.6978C329.727 15.5128 333.273 15.5128 335.458 17.6978L337.042 16.1145C333.986 13.0586 329.022 13.0586 325.958 16.1145Z" fill="#0C0C0C"/>
<path d="M362.75 9.33325H365.25V22.6666H362.75V9.33325ZM352.75 17.6666H355.25V22.6666H352.75V17.6666ZM357.75 13.4999H360.25V22.6666H357.75V13.4999Z" fill="#0C0C0C"/>
<path d="M391.362 9.55847L391.1 24.4572L382.823 24.3114L383.085 9.41273L385.568 9.45645L385.598 7.80104L388.908 7.85934L388.879 9.51475L391.362 9.55847ZM389.678 11.1847L384.712 11.0973L384.653 14.4081L389.62 14.4956L389.678 11.1847Z" fill="#0C0C0C"/>
</svg>
