<svg width="412" height="917" viewBox="0 0 412 917" fill="none" xmlns="http://www.w3.org/2000/svg">
<rect width="412" height="917" fill="white"/>
<path d="M132.343 855.422H133.505V868.106H132.343V855.422ZM123.859 856.5H125.021V859.832H128.675V856.5H129.823V865.054H123.859V856.5ZM125.021 860.756V864.088H128.675V860.756H125.021ZM136.682 856.122H142.59V861.302H136.682V856.122ZM141.456 857.06H137.816V860.378H141.456V857.06ZM145.236 855.422H146.398V861.932H145.236V855.422ZM138.208 862.576H146.398V865.628H139.37V867.406H138.236V864.774H145.25V863.5H138.208V862.576ZM138.236 867.014H146.818V867.952H138.236V867.014ZM158.354 858.992H161.98V859.944H158.354V858.992ZM161.63 855.436H162.792V864.802H161.63V855.436ZM154.658 866.86H163.086V867.812H154.658V866.86ZM154.658 863.892H155.82V867.336H154.658V863.892ZM152.992 856.276H154.154V858.502H157.57V856.276H158.718V862.646H152.992V856.276ZM154.154 859.412V861.708H157.57V859.412H154.154ZM165.815 857.284H176.105V858.236H165.815V857.284ZM165.255 865.656H176.735V866.608H165.255V865.656ZM170.393 863.64H171.541V866.02H170.393V863.64ZM170.967 859.076C171.816 859.076 172.549 859.174 173.165 859.37C173.79 859.557 174.271 859.827 174.607 860.182C174.943 860.537 175.111 860.971 175.111 861.484C175.111 861.988 174.943 862.422 174.607 862.786C174.271 863.15 173.79 863.43 173.165 863.626C172.549 863.813 171.816 863.906 170.967 863.906C170.117 863.906 169.38 863.813 168.755 863.626C168.139 863.43 167.663 863.15 167.327 862.786C166.991 862.422 166.823 861.988 166.823 861.484C166.823 860.971 166.991 860.537 167.327 860.182C167.663 859.827 168.139 859.557 168.755 859.37C169.38 859.174 170.117 859.076 170.967 859.076ZM170.967 860C170.351 860 169.819 860.061 169.371 860.182C168.932 860.294 168.591 860.462 168.349 860.686C168.115 860.901 167.999 861.167 167.999 861.484C167.999 861.792 168.115 862.058 168.349 862.282C168.591 862.506 168.932 862.679 169.371 862.8C169.819 862.912 170.351 862.968 170.967 862.968C171.583 862.968 172.11 862.912 172.549 862.8C172.987 862.679 173.328 862.506 173.571 862.282C173.813 862.058 173.935 861.792 173.935 861.484C173.935 861.167 173.813 860.901 173.571 860.686C173.328 860.462 172.987 860.294 172.549 860.182C172.11 860.061 171.583 860 170.967 860ZM170.393 855.632H171.541V857.858H170.393V855.632ZM178.12 861.302H189.6V862.198H178.12V861.302ZM179.492 863.206H188.172V865.908H180.668V867.392H179.52V865.11H187.024V864.046H179.492V863.206ZM179.52 867.084H188.578V867.924H179.52V867.084ZM179.576 855.8H188.13V858.432H180.752V859.804H179.604V857.648H186.982V856.626H179.576V855.8ZM179.604 859.524H188.354V860.364H179.604V859.524ZM200.239 863.808H201.219V864.158C201.219 864.662 201.098 865.129 200.855 865.558C200.612 865.978 200.276 866.356 199.847 866.692C199.427 867.028 198.937 867.308 198.377 867.532C197.826 867.765 197.238 867.933 196.613 868.036L196.193 867.154C196.734 867.07 197.248 866.935 197.733 866.748C198.228 866.561 198.662 866.337 199.035 866.076C199.408 865.805 199.702 865.507 199.917 865.18C200.132 864.853 200.239 864.513 200.239 864.158V863.808ZM200.449 863.808H201.429V864.158C201.429 864.513 201.536 864.853 201.751 865.18C201.966 865.507 202.26 865.805 202.633 866.076C203.016 866.347 203.45 866.575 203.935 866.762C204.43 866.939 204.952 867.07 205.503 867.154L205.083 868.036C204.458 867.933 203.865 867.77 203.305 867.546C202.745 867.322 202.25 867.042 201.821 866.706C201.392 866.37 201.056 865.987 200.813 865.558C200.57 865.129 200.449 864.662 200.449 864.158V863.808ZM196.711 863.332H204.999V864.326H196.711V863.332ZM203.697 855.436H204.859V862.674H203.697V855.436ZM198.069 856.164C198.713 856.164 199.282 856.29 199.777 856.542C200.272 856.794 200.659 857.139 200.939 857.578C201.228 858.017 201.373 858.525 201.373 859.104C201.373 859.683 201.228 860.191 200.939 860.63C200.659 861.069 200.272 861.414 199.777 861.666C199.282 861.918 198.713 862.044 198.069 862.044C197.434 862.044 196.865 861.918 196.361 861.666C195.866 861.414 195.474 861.069 195.185 860.63C194.905 860.191 194.765 859.683 194.765 859.104C194.765 858.525 194.905 858.017 195.185 857.578C195.474 857.139 195.866 856.794 196.361 856.542C196.865 856.29 197.434 856.164 198.069 856.164ZM198.069 857.144C197.649 857.144 197.276 857.228 196.949 857.396C196.622 857.564 196.366 857.793 196.179 858.082C195.992 858.371 195.899 858.712 195.899 859.104C195.899 859.496 195.992 859.841 196.179 860.14C196.366 860.429 196.622 860.658 196.949 860.826C197.276 860.994 197.649 861.078 198.069 861.078C198.489 861.078 198.862 860.994 199.189 860.826C199.516 860.658 199.772 860.429 199.959 860.14C200.146 859.841 200.239 859.496 200.239 859.104C200.239 858.712 200.146 858.371 199.959 858.082C199.772 857.793 199.516 857.564 199.189 857.396C198.862 857.228 198.489 857.144 198.069 857.144ZM210.738 856.402C211.354 856.402 211.9 856.584 212.376 856.948C212.852 857.303 213.221 857.811 213.482 858.474C213.753 859.137 213.888 859.916 213.888 860.812C213.888 861.708 213.753 862.487 213.482 863.15C213.221 863.813 212.852 864.326 212.376 864.69C211.9 865.054 211.354 865.236 210.738 865.236C210.131 865.236 209.585 865.054 209.1 864.69C208.624 864.326 208.251 863.813 207.98 863.15C207.719 862.487 207.588 861.708 207.588 860.812C207.588 859.916 207.719 859.137 207.98 858.474C208.251 857.811 208.624 857.303 209.1 856.948C209.585 856.584 210.131 856.402 210.738 856.402ZM210.738 857.438C210.337 857.438 209.982 857.578 209.674 857.858C209.366 858.129 209.123 858.521 208.946 859.034C208.778 859.538 208.694 860.131 208.694 860.812C208.694 861.493 208.778 862.091 208.946 862.604C209.123 863.108 209.366 863.5 209.674 863.78C209.982 864.06 210.337 864.2 210.738 864.2C211.149 864.2 211.508 864.06 211.816 863.78C212.124 863.5 212.362 863.108 212.53 862.604C212.707 862.091 212.796 861.493 212.796 860.812C212.796 860.131 212.707 859.538 212.53 859.034C212.362 858.521 212.124 858.129 211.816 857.858C211.508 857.578 211.149 857.438 210.738 857.438ZM216.632 855.422H217.78V868.106H216.632V855.422ZM213.51 860.252H217.15V861.19H213.51V860.252ZM229.511 855.422H230.659V868.106H229.511V855.422ZM226.179 860.126H229.847V861.078H226.179V860.126ZM220.747 856.416H221.909V859.706H225.423V856.416H226.557V864.914H220.747V856.416ZM221.909 860.63V863.962H225.423V860.63H221.909ZM242.348 855.422H243.496V868.106H242.348V855.422ZM233.85 864.074H234.9C235.619 864.074 236.309 864.065 236.972 864.046C237.644 864.018 238.321 863.971 239.002 863.906C239.693 863.841 240.411 863.747 241.158 863.626L241.27 864.578C240.131 864.765 239.058 864.891 238.05 864.956C237.042 865.012 235.992 865.04 234.9 865.04H233.85V864.074ZM233.822 856.598H239.674V861.12H235.026V864.438H233.85V860.182H238.498V857.55H233.822V856.598ZM252.763 856.934H255.605V857.886H252.763V856.934ZM252.763 859.44H255.605V860.378H252.763V859.44ZM255.255 855.422H256.417V862.842H255.255V855.422ZM249.165 855.884H250.117V857.186C250.117 858.017 249.972 858.791 249.683 859.51C249.403 860.219 249.006 860.84 248.493 861.372C247.979 861.895 247.368 862.301 246.659 862.59L246.015 861.666C246.659 861.423 247.214 861.078 247.681 860.63C248.157 860.182 248.521 859.664 248.773 859.076C249.034 858.479 249.165 857.849 249.165 857.186V855.884ZM249.347 855.884H250.299V857.186C250.299 857.653 250.369 858.101 250.509 858.53C250.658 858.959 250.868 859.365 251.139 859.748C251.419 860.131 251.745 860.467 252.119 860.756C252.492 861.045 252.907 861.279 253.365 861.456L252.707 862.38C252.035 862.1 251.447 861.703 250.943 861.19C250.439 860.667 250.047 860.065 249.767 859.384C249.487 858.703 249.347 857.97 249.347 857.186V855.884ZM249.235 863.304H250.131V863.878C250.131 864.429 250.019 864.97 249.795 865.502C249.58 866.034 249.258 866.515 248.829 866.944C248.409 867.364 247.891 867.691 247.275 867.924L246.701 867.056C247.233 866.86 247.685 866.594 248.059 866.258C248.441 865.913 248.731 865.535 248.927 865.124C249.132 864.704 249.235 864.289 249.235 863.878V863.304ZM249.487 863.304H250.355V863.878C250.355 864.307 250.439 864.737 250.607 865.166C250.775 865.586 251.027 865.973 251.363 866.328C251.699 866.673 252.123 866.953 252.637 867.168L252.133 868.036C251.526 867.793 251.027 867.453 250.635 867.014C250.243 866.575 249.953 866.085 249.767 865.544C249.58 864.993 249.487 864.438 249.487 863.878V863.304ZM253.911 863.304H254.779V863.878C254.779 864.373 254.685 864.895 254.499 865.446C254.312 865.987 254.023 866.491 253.631 866.958C253.239 867.425 252.739 867.784 252.133 868.036L251.643 867.168C252.147 866.925 252.567 866.617 252.903 866.244C253.239 865.871 253.491 865.474 253.659 865.054C253.827 864.634 253.911 864.242 253.911 863.878V863.304ZM254.149 863.304H255.045V863.878C255.045 864.317 255.143 864.746 255.339 865.166C255.544 865.586 255.833 865.959 256.207 866.286C256.589 866.613 257.051 866.869 257.593 867.056L257.005 867.924C256.389 867.7 255.866 867.383 255.437 866.972C255.017 866.561 254.695 866.09 254.471 865.558C254.256 865.026 254.149 864.466 254.149 863.878V863.304ZM268.302 860.476H270.626V861.442H268.302V860.476ZM267.448 855.422H268.61V868.078H267.448V855.422ZM259.384 856.668H260.532V864.508H259.384V856.668ZM259.384 863.906H260.392C261.316 863.906 262.263 863.864 263.234 863.78C264.214 863.696 265.226 863.547 266.272 863.332L266.412 864.312C265.329 864.527 264.293 864.676 263.304 864.76C262.324 864.835 261.353 864.872 260.392 864.872H259.384V863.906ZM274.573 861.946H275.721V865.726H274.573V861.946ZM279.249 861.946H280.411V865.726H279.249V861.946ZM271.759 865.502H283.239V866.468H271.759V865.502ZM277.471 856.22C278.367 856.22 279.16 856.355 279.851 856.626C280.541 856.897 281.083 857.275 281.475 857.76C281.876 858.245 282.077 858.819 282.077 859.482C282.077 860.135 281.876 860.709 281.475 861.204C281.083 861.689 280.541 862.067 279.851 862.338C279.16 862.599 278.367 862.73 277.471 862.73C276.584 862.73 275.791 862.599 275.091 862.338C274.4 862.067 273.859 861.689 273.467 861.204C273.075 860.709 272.879 860.135 272.879 859.482C272.879 858.819 273.075 858.245 273.467 857.76C273.859 857.275 274.4 856.897 275.091 856.626C275.791 856.355 276.584 856.22 277.471 856.22ZM277.471 857.144C276.799 857.144 276.201 857.242 275.679 857.438C275.156 857.634 274.745 857.909 274.447 858.264C274.148 858.609 273.999 859.015 273.999 859.482C273.999 859.949 274.148 860.359 274.447 860.714C274.745 861.059 275.156 861.33 275.679 861.526C276.201 861.722 276.799 861.82 277.471 861.82C278.152 861.82 278.754 861.722 279.277 861.526C279.799 861.33 280.21 861.059 280.509 860.714C280.807 860.359 280.957 859.949 280.957 859.482C280.957 859.015 280.807 858.609 280.509 858.264C280.21 857.909 279.799 857.634 279.277 857.438C278.754 857.242 278.152 857.144 277.471 857.144ZM287.649 864.197H286.378C286.382 863.76 286.421 863.402 286.494 863.124C286.572 862.841 286.697 862.584 286.87 862.352C287.043 862.119 287.273 861.855 287.561 861.559C287.77 861.344 287.962 861.144 288.135 860.957C288.312 860.766 288.456 860.561 288.565 860.342C288.675 860.118 288.729 859.852 288.729 859.542C288.729 859.228 288.673 858.956 288.559 858.729C288.449 858.501 288.285 858.325 288.066 858.202C287.852 858.079 287.586 858.018 287.267 858.018C287.002 858.018 286.752 858.065 286.515 858.161C286.278 858.257 286.086 858.405 285.94 858.605C285.795 858.801 285.719 859.059 285.715 859.378H284.45C284.459 858.863 284.587 858.421 284.833 858.052C285.084 857.683 285.421 857.4 285.845 857.204C286.269 857.008 286.743 856.91 287.267 856.91C287.845 856.91 288.338 857.015 288.743 857.225C289.153 857.434 289.465 857.735 289.68 858.127C289.894 858.514 290.001 858.975 290.001 859.508C290.001 859.918 289.917 860.296 289.748 860.643C289.584 860.984 289.372 861.306 289.112 861.606C288.853 861.907 288.577 862.194 288.285 862.468C288.035 862.7 287.866 862.962 287.779 863.254C287.693 863.546 287.649 863.86 287.649 864.197ZM286.323 866.364C286.323 866.159 286.387 865.986 286.515 865.845C286.642 865.703 286.827 865.633 287.068 865.633C287.314 865.633 287.501 865.703 287.629 865.845C287.757 865.986 287.82 866.159 287.82 866.364C287.82 866.56 287.757 866.729 287.629 866.87C287.501 867.011 287.314 867.082 287.068 867.082C286.827 867.082 286.642 867.011 286.515 866.87C286.387 866.729 286.323 866.56 286.323 866.364Z" fill="black"/>
<path d="M68.2773 237.72H70.9373V240.36H68.2773V237.72ZM76.1173 229.26H78.7773V241.88H76.1173V229.26ZM77.8573 234.54H81.1173V236.74H77.8573V234.54ZM64.1773 241.5L63.8773 239.44C64.984 239.44 66.184 239.433 67.4773 239.42C68.784 239.407 70.104 239.367 71.4373 239.3C72.7707 239.22 74.064 239.107 75.3173 238.96L75.5173 240.78C74.224 241.007 72.9107 241.173 71.5773 241.28C70.244 241.373 68.944 241.433 67.6773 241.46C66.424 241.473 65.2573 241.487 64.1773 241.5ZM66.2173 242.6H78.7773V247.78H76.1173V244.66H66.2173V242.6ZM64.3373 230.6H74.8573V232.52H64.3373V230.6ZM69.5973 232.96C70.9707 232.96 72.064 233.207 72.8773 233.7C73.704 234.18 74.1173 234.847 74.1173 235.7C74.1173 236.553 73.704 237.227 72.8773 237.72C72.064 238.213 70.9707 238.46 69.5973 238.46C68.2373 238.46 67.144 238.213 66.3173 237.72C65.504 237.227 65.0973 236.553 65.0973 235.7C65.0973 234.847 65.504 234.18 66.3173 233.7C67.144 233.207 68.2373 232.96 69.5973 232.96ZM69.5973 234.68C68.9707 234.68 68.484 234.767 68.1373 234.94C67.7907 235.113 67.6173 235.367 67.6173 235.7C67.6173 236.033 67.7907 236.293 68.1373 236.48C68.484 236.653 68.9707 236.74 69.5973 236.74C70.224 236.74 70.7107 236.653 71.0573 236.48C71.4173 236.293 71.5973 236.033 71.5973 235.7C71.5973 235.367 71.4173 235.113 71.0573 234.94C70.7107 234.767 70.224 234.68 69.5973 234.68ZM68.2773 229.1H70.9373V231.48H68.2773V229.1ZM95.2158 229.26H97.8758V242.56H95.2158V229.26ZM85.5358 245.32H98.3558V247.46H85.5358V245.32ZM85.5358 241.24H88.1958V246.2H85.5358V241.24ZM87.7958 230.44C88.7424 230.44 89.5958 230.64 90.3558 231.04C91.1158 231.44 91.7158 231.993 92.1558 232.7C92.6091 233.407 92.8358 234.22 92.8358 235.14C92.8358 236.033 92.6091 236.84 92.1558 237.56C91.7158 238.267 91.1158 238.827 90.3558 239.24C89.5958 239.64 88.7424 239.84 87.7958 239.84C86.8491 239.84 85.9958 239.64 85.2358 239.24C84.4758 238.827 83.8691 238.267 83.4158 237.56C82.9758 236.84 82.7558 236.033 82.7558 235.14C82.7558 234.22 82.9758 233.407 83.4158 232.7C83.8691 231.993 84.4758 231.44 85.2358 231.04C85.9958 230.64 86.8491 230.44 87.7958 230.44ZM87.7958 232.72C87.3424 232.72 86.9291 232.82 86.5558 233.02C86.1824 233.207 85.8891 233.48 85.6758 233.84C85.4624 234.187 85.3558 234.62 85.3558 235.14C85.3558 235.633 85.4624 236.06 85.6758 236.42C85.8891 236.767 86.1824 237.04 86.5558 237.24C86.9291 237.427 87.3424 237.52 87.7958 237.52C88.2491 237.52 88.6624 237.427 89.0358 237.24C89.4091 237.04 89.7024 236.767 89.9158 236.42C90.1291 236.06 90.2358 235.633 90.2358 235.14C90.2358 234.62 90.1291 234.187 89.9158 233.84C89.7024 233.48 89.4091 233.207 89.0358 233.02C88.6624 232.82 88.2491 232.72 87.7958 232.72ZM109.274 229.5C111.381 229.5 113.021 229.773 114.194 230.32C115.381 230.867 115.974 231.653 115.974 232.68C115.974 233.693 115.381 234.473 114.194 235.02C113.021 235.567 111.381 235.84 109.274 235.84C107.154 235.84 105.501 235.567 104.314 235.02C103.141 234.473 102.554 233.693 102.554 232.68C102.554 231.653 103.141 230.867 104.314 230.32C105.501 229.773 107.154 229.5 109.274 229.5ZM109.254 231.46C108.374 231.46 107.641 231.507 107.054 231.6C106.468 231.68 106.028 231.813 105.734 232C105.454 232.173 105.314 232.4 105.314 232.68C105.314 232.96 105.454 233.193 105.734 233.38C106.028 233.553 106.468 233.68 107.054 233.76C107.641 233.84 108.374 233.88 109.254 233.88C110.148 233.88 110.888 233.84 111.474 233.76C112.061 233.68 112.494 233.553 112.774 233.38C113.054 233.193 113.194 232.96 113.194 232.68C113.194 232.4 113.054 232.173 112.774 232C112.494 231.813 112.061 231.68 111.474 231.6C110.888 231.507 110.148 231.46 109.254 231.46ZM100.874 236.7H117.634V238.8H100.874V236.7ZM102.794 239.84H115.594V244.58H105.454V246.22H102.814V242.74H112.974V241.8H102.794V239.84ZM102.814 245.64H116.094V247.66H102.814V245.64ZM129.902 229.98C130.835 229.98 131.669 230.153 132.402 230.5C133.135 230.833 133.709 231.3 134.122 231.9C134.549 232.487 134.762 233.167 134.762 233.94C134.762 234.713 134.549 235.4 134.122 236C133.709 236.587 133.135 237.053 132.402 237.4C131.669 237.733 130.835 237.9 129.902 237.9C128.969 237.9 128.135 237.733 127.402 237.4C126.669 237.053 126.089 236.587 125.662 236C125.249 235.4 125.042 234.713 125.042 233.94C125.042 233.167 125.249 232.487 125.662 231.9C126.089 231.3 126.669 230.833 127.402 230.5C128.135 230.153 128.969 229.98 129.902 229.98ZM129.902 232.14C129.462 232.14 129.069 232.213 128.722 232.36C128.375 232.493 128.102 232.693 127.902 232.96C127.702 233.227 127.602 233.553 127.602 233.94C127.602 234.327 127.702 234.653 127.902 234.92C128.102 235.173 128.375 235.373 128.722 235.52C129.069 235.653 129.462 235.72 129.902 235.72C130.355 235.72 130.755 235.653 131.102 235.52C131.449 235.373 131.722 235.173 131.922 234.92C132.122 234.653 132.222 234.327 132.222 233.94C132.222 233.553 132.122 233.227 131.922 232.96C131.722 232.693 131.449 232.493 131.102 232.36C130.755 232.213 130.355 232.14 129.902 232.14ZM128.642 239.76H131.322V247.2H128.642V239.76ZM136.742 229.24H139.402V247.76H136.742V229.24ZM124.262 241.16L123.962 239C125.029 239 126.222 238.993 127.542 238.98C128.875 238.953 130.242 238.893 131.642 238.8C133.042 238.707 134.395 238.56 135.702 238.36L135.862 240.3C134.529 240.567 133.175 240.76 131.802 240.88C130.429 241 129.095 241.073 127.802 241.1C126.509 241.127 125.329 241.147 124.262 241.16ZM142.28 232.04H151.14V234.14H142.28V232.04ZM146.74 234.98C147.527 234.98 148.22 235.167 148.82 235.54C149.434 235.913 149.914 236.433 150.26 237.1C150.62 237.753 150.8 238.513 150.8 239.38C150.8 240.247 150.62 241.013 150.26 241.68C149.914 242.333 149.434 242.847 148.82 243.22C148.22 243.593 147.527 243.78 146.74 243.78C145.954 243.78 145.254 243.593 144.64 243.22C144.027 242.847 143.547 242.333 143.2 241.68C142.854 241.013 142.68 240.247 142.68 239.38C142.68 238.513 142.854 237.753 143.2 237.1C143.547 236.433 144.027 235.913 144.64 235.54C145.267 235.167 145.967 234.98 146.74 234.98ZM146.74 237.18C146.42 237.18 146.127 237.267 145.86 237.44C145.594 237.613 145.387 237.867 145.24 238.2C145.094 238.52 145.02 238.913 145.02 239.38C145.02 239.847 145.094 240.247 145.24 240.58C145.387 240.913 145.594 241.167 145.86 241.34C146.127 241.5 146.42 241.58 146.74 241.58C147.074 241.58 147.367 241.5 147.62 241.34C147.874 241.167 148.074 240.913 148.22 240.58C148.367 240.247 148.44 239.847 148.44 239.38C148.44 238.913 148.367 238.52 148.22 238.2C148.074 237.867 147.874 237.613 147.62 237.44C147.367 237.267 147.074 237.18 146.74 237.18ZM155.68 229.24H158.2V247.76H155.68V229.24ZM153.46 236.78H156.5V238.92H153.46V236.78ZM151.78 229.58H154.26V246.98H151.78V229.58ZM145.44 229.74H148.06V233.36H145.44V229.74ZM177.208 229.26H179.868V243.1H177.208V229.26ZM179.128 234.9H182.328V237.1H179.128V234.9ZM165.308 231.2H176.188V233.28H165.308V231.2ZM170.748 233.94C171.642 233.94 172.428 234.093 173.108 234.4C173.802 234.693 174.342 235.113 174.728 235.66C175.115 236.193 175.308 236.807 175.308 237.5C175.308 238.207 175.115 238.833 174.728 239.38C174.342 239.913 173.802 240.333 173.108 240.64C172.428 240.933 171.642 241.08 170.748 241.08C169.868 241.08 169.082 240.933 168.388 240.64C167.695 240.333 167.155 239.913 166.768 239.38C166.382 238.833 166.188 238.207 166.188 237.5C166.188 236.807 166.382 236.193 166.768 235.66C167.155 235.113 167.695 234.693 168.388 234.4C169.082 234.093 169.868 233.94 170.748 233.94ZM170.748 235.96C170.162 235.96 169.682 236.093 169.308 236.36C168.935 236.627 168.748 237.013 168.748 237.52C168.748 238.013 168.935 238.393 169.308 238.66C169.682 238.927 170.162 239.06 170.748 239.06C171.348 239.06 171.828 238.927 172.188 238.66C172.562 238.393 172.748 238.013 172.748 237.52C172.748 237.013 172.562 236.627 172.188 236.36C171.828 236.093 171.348 235.96 170.748 235.96ZM169.428 229.24H172.068V232.2H169.428V229.24ZM167.928 245.32H180.528V247.46H167.928V245.32ZM167.928 242.06H170.608V246.24H167.928V242.06ZM197.056 234.16H201.816V236.3H197.056V234.16ZM201.136 229.26H203.816V242.92H201.136V229.26ZM191.556 245.32H204.216V247.46H191.556V245.32ZM191.556 241.58H194.216V246.54H191.556V241.58ZM189.076 230.48H191.716V233.28H195.236V230.48H197.856V240.04H189.076V230.48ZM191.716 235.32V237.92H195.236V235.32H191.716ZM212.204 241.16H213.704C214.797 241.16 215.777 241.147 216.644 241.12C217.524 241.093 218.357 241.047 219.144 240.98C219.931 240.9 220.724 240.787 221.524 240.64L221.784 242.8C220.944 242.947 220.117 243.06 219.304 243.14C218.504 243.22 217.651 243.273 216.744 243.3C215.851 243.327 214.837 243.34 213.704 243.34H212.204V241.16ZM212.204 230.88H220.584V233H214.864V242H212.204V230.88ZM224.204 229.24H226.864V247.82H224.204V229.24ZM219.684 235.64H225.344V237.8H219.684V235.64ZM247.052 229.26H249.712V239.2H247.052V229.26ZM237.412 240.02H240.032V241.74H247.072V240.02H249.712V247.58H237.412V240.02ZM240.032 243.78V245.46H247.072V243.78H240.032ZM239.632 230.02C240.592 230.02 241.452 230.207 242.212 230.58C242.972 230.953 243.572 231.467 244.012 232.12C244.452 232.773 244.672 233.527 244.672 234.38C244.672 235.233 244.452 235.993 244.012 236.66C243.572 237.313 242.972 237.827 242.212 238.2C241.452 238.573 240.592 238.76 239.632 238.76C238.672 238.76 237.812 238.573 237.052 238.2C236.292 237.827 235.692 237.313 235.252 236.66C234.812 235.993 234.592 235.233 234.592 234.38C234.592 233.527 234.812 232.773 235.252 232.12C235.692 231.467 236.292 230.953 237.052 230.58C237.812 230.207 238.672 230.02 239.632 230.02ZM239.632 232.2C239.165 232.2 238.745 232.287 238.372 232.46C237.998 232.633 237.705 232.887 237.492 233.22C237.292 233.54 237.192 233.927 237.192 234.38C237.192 234.847 237.292 235.247 237.492 235.58C237.705 235.9 237.998 236.147 238.372 236.32C238.745 236.48 239.165 236.56 239.632 236.56C240.098 236.56 240.512 236.48 240.872 236.32C241.245 236.147 241.538 235.9 241.752 235.58C241.965 235.247 242.072 234.847 242.072 234.38C242.072 233.927 241.965 233.54 241.752 233.22C241.538 232.887 241.245 232.633 240.872 232.46C240.512 232.287 240.098 232.2 239.632 232.2ZM253.43 238.06H254.83C255.99 238.06 256.983 238.053 257.81 238.04C258.65 238.013 259.417 237.967 260.11 237.9C260.803 237.833 261.49 237.74 262.17 237.62L262.45 239.74C261.903 239.833 261.363 239.913 260.83 239.98C260.31 240.047 259.75 240.093 259.15 240.12C258.563 240.147 257.917 240.167 257.21 240.18C256.517 240.193 255.723 240.2 254.83 240.2H253.43V238.06ZM253.39 230.3H261.53V236.14H256.07V239.48H253.43V234.16H258.91V232.42H253.39V230.3ZM265.55 229.26H268.23V240.68H265.55V229.26ZM262.59 231.82H266.05V233.94H262.59V231.82ZM262.59 235.76H266.05V237.88H262.59V235.76ZM255.53 241.52H268.23V247.78H265.55V243.62H255.53V241.52ZM271.109 232.04H279.969V234.14H271.109V232.04ZM275.569 234.98C276.355 234.98 277.049 235.167 277.649 235.54C278.262 235.913 278.742 236.433 279.089 237.1C279.449 237.753 279.629 238.513 279.629 239.38C279.629 240.247 279.449 241.013 279.089 241.68C278.742 242.333 278.262 242.847 277.649 243.22C277.049 243.593 276.355 243.78 275.569 243.78C274.782 243.78 274.082 243.593 273.469 243.22C272.855 242.847 272.375 242.333 272.029 241.68C271.682 241.013 271.509 240.247 271.509 239.38C271.509 238.513 271.682 237.753 272.029 237.1C272.375 236.433 272.855 235.913 273.469 235.54C274.095 235.167 274.795 234.98 275.569 234.98ZM275.569 237.18C275.249 237.18 274.955 237.267 274.689 237.44C274.422 237.613 274.215 237.867 274.069 238.2C273.922 238.52 273.849 238.913 273.849 239.38C273.849 239.847 273.922 240.247 274.069 240.58C274.215 240.913 274.422 241.167 274.689 241.34C274.955 241.5 275.249 241.58 275.569 241.58C275.902 241.58 276.195 241.5 276.449 241.34C276.702 241.167 276.902 240.913 277.049 240.58C277.195 240.247 277.269 239.847 277.269 239.38C277.269 238.913 277.195 238.52 277.049 238.2C276.902 237.867 276.702 237.613 276.449 237.44C276.195 237.267 275.902 237.18 275.569 237.18ZM284.509 229.24H287.029V247.76H284.509V229.24ZM282.289 236.78H285.329V238.92H282.289V236.78ZM280.609 229.58H283.089V246.98H280.609V229.58ZM274.269 229.74H276.889V233.36H274.269V229.74ZM296.367 231.3H298.687V231.86C298.687 232.5 298.58 233.12 298.367 233.72C298.167 234.32 297.86 234.88 297.447 235.4C297.034 235.907 296.527 236.367 295.927 236.78C295.34 237.18 294.66 237.52 293.887 237.8C293.114 238.08 292.254 238.28 291.307 238.4L290.327 236.34C291.154 236.233 291.887 236.073 292.527 235.86C293.18 235.633 293.747 235.373 294.227 235.08C294.707 234.773 295.107 234.447 295.427 234.1C295.747 233.753 295.98 233.387 296.127 233C296.287 232.613 296.367 232.233 296.367 231.86V231.3ZM297.147 231.3H299.447V231.86C299.447 232.233 299.52 232.613 299.667 233C299.827 233.387 300.067 233.753 300.387 234.1C300.707 234.447 301.107 234.773 301.587 235.08C302.08 235.373 302.647 235.633 303.287 235.86C303.927 236.073 304.66 236.233 305.487 236.34L304.507 238.4C303.56 238.28 302.7 238.08 301.927 237.8C301.154 237.52 300.467 237.18 299.867 236.78C299.28 236.367 298.78 235.907 298.367 235.4C297.967 234.88 297.66 234.32 297.447 233.72C297.247 233.12 297.147 232.5 297.147 231.86V231.3ZM296.507 241H299.167V247.78H296.507V241ZM289.527 239.46H306.287V241.6H289.527V239.46ZM291.007 230.2H304.747V232.3H291.007V230.2ZM315.205 235.48H318.285V237.64H315.205V235.48ZM311.265 230.86H313.285V233.96C313.285 235.013 313.212 236.047 313.065 237.06C312.919 238.073 312.679 239.027 312.345 239.92C312.025 240.813 311.599 241.62 311.065 242.34C310.545 243.047 309.912 243.627 309.165 244.08L307.565 242.08C308.259 241.667 308.839 241.16 309.305 240.56C309.772 239.96 310.152 239.3 310.445 238.58C310.739 237.86 310.945 237.113 311.065 236.34C311.199 235.553 311.265 234.76 311.265 233.96V230.86ZM311.845 230.86H313.825V233.84C313.825 234.6 313.879 235.353 313.985 236.1C314.105 236.847 314.292 237.56 314.545 238.24C314.799 238.92 315.132 239.547 315.545 240.12C315.972 240.693 316.505 241.187 317.145 241.6L315.685 243.68C314.965 243.227 314.352 242.653 313.845 241.96C313.352 241.253 312.959 240.46 312.665 239.58C312.372 238.7 312.159 237.773 312.025 236.8C311.905 235.827 311.845 234.84 311.845 233.84V230.86ZM321.285 229.24H323.825V247.76H321.285V229.24ZM317.525 229.54H320.005V246.94H317.525V229.54ZM330.004 238.66H332.664V243.84H330.004V238.66ZM336.724 238.66H339.384V243.84H336.724V238.66ZM326.324 243.46H343.104V245.62H326.324V243.46ZM334.684 230.16C336.017 230.16 337.204 230.367 338.244 230.78C339.297 231.193 340.117 231.773 340.704 232.52C341.304 233.253 341.604 234.127 341.604 235.14C341.604 236.14 341.304 237.013 340.704 237.76C340.117 238.493 339.297 239.067 338.244 239.48C337.204 239.893 336.017 240.1 334.684 240.1C333.364 240.1 332.177 239.893 331.124 239.48C330.084 239.067 329.264 238.493 328.664 237.76C328.064 237.013 327.764 236.14 327.764 235.14C327.764 234.127 328.064 233.253 328.664 232.52C329.264 231.773 330.084 231.193 331.124 230.78C332.177 230.367 333.364 230.16 334.684 230.16ZM334.684 232.22C333.831 232.22 333.077 232.34 332.424 232.58C331.784 232.807 331.284 233.133 330.924 233.56C330.564 233.987 330.384 234.513 330.384 235.14C330.384 235.74 330.564 236.26 330.924 236.7C331.284 237.127 331.784 237.46 332.424 237.7C333.077 237.927 333.831 238.04 334.684 238.04C335.551 238.04 336.304 237.927 336.944 237.7C337.597 237.46 338.097 237.127 338.444 236.7C338.804 236.26 338.984 235.74 338.984 235.14C338.984 234.513 338.804 233.987 338.444 233.56C338.097 233.133 337.597 232.807 336.944 232.58C336.304 232.34 335.551 232.22 334.684 232.22ZM345.143 244.604C345.143 244.174 345.286 243.816 345.572 243.529C345.859 243.236 346.246 243.09 346.734 243.09C347.223 243.09 347.61 243.236 347.896 243.529C348.183 243.816 348.326 244.174 348.326 244.604C348.326 245.033 348.183 245.391 347.896 245.678C347.61 245.964 347.223 246.107 346.734 246.107C346.246 246.107 345.859 245.964 345.572 245.678C345.286 245.391 345.143 245.033 345.143 244.604Z" fill="black"/>
<circle cx="111.5" cy="320.5" r="6.5" fill="#575757"/>
<circle cx="149.5" cy="320.5" r="6.5" fill="#575757"/>
<circle cx="187.5" cy="320.5" r="6.5" fill="#575757"/>
<circle cx="225.5" cy="320.5" r="6.5" fill="#575757"/>
<circle cx="263.5" cy="320.5" r="6.5" fill="#575757"/>
<circle cx="301.5" cy="320.5" r="6.5" fill="#575757"/>
<path d="M307.008 514.75H307.441V517.539H307.289C306.547 517.539 305.898 517.668 305.344 517.926C304.797 518.176 304.34 518.543 303.973 519.027C303.613 519.504 303.344 520.082 303.164 520.762C302.984 521.434 302.895 522.188 302.895 523.023V525.895C302.895 526.488 302.934 527.012 303.012 527.465C303.098 527.918 303.219 528.297 303.375 528.602C303.539 528.898 303.727 529.121 303.938 529.27C304.156 529.418 304.395 529.492 304.652 529.492C304.918 529.492 305.16 529.414 305.379 529.258C305.598 529.102 305.785 528.887 305.941 528.613C306.098 528.332 306.215 528.008 306.293 527.641C306.379 527.266 306.422 526.852 306.422 526.398C306.422 525.945 306.379 525.531 306.293 525.156C306.207 524.773 306.086 524.445 305.93 524.172C305.773 523.898 305.582 523.688 305.355 523.539C305.137 523.383 304.891 523.305 304.617 523.305C304.219 523.305 303.879 523.426 303.598 523.668C303.316 523.902 303.102 524.207 302.953 524.582C302.805 524.949 302.723 525.336 302.707 525.742L301.723 525.039C301.754 524.445 301.863 523.887 302.051 523.363C302.246 522.832 302.512 522.355 302.848 521.934C303.184 521.512 303.586 521.184 304.055 520.949C304.523 520.707 305.051 520.586 305.637 520.586C306.309 520.586 306.898 520.738 307.406 521.043C307.922 521.348 308.348 521.766 308.684 522.297C309.027 522.828 309.281 523.441 309.445 524.137C309.617 524.832 309.703 525.578 309.703 526.375C309.703 527.203 309.586 527.973 309.352 528.684C309.117 529.395 308.785 530.016 308.355 530.547C307.926 531.078 307.402 531.492 306.785 531.789C306.176 532.086 305.488 532.234 304.723 532.234C303.941 532.234 303.234 532.07 302.602 531.742C301.977 531.414 301.438 530.949 300.984 530.348C300.539 529.738 300.199 529.02 299.965 528.191C299.73 527.363 299.613 526.449 299.613 525.449V524.125C299.613 522.75 299.773 521.492 300.094 520.352C300.414 519.203 300.887 518.211 301.512 517.375C302.145 516.539 302.918 515.895 303.832 515.441C304.754 514.98 305.812 514.75 307.008 514.75Z" fill="black"/>
<path d="M309.387 622.312C309.387 623.391 309.176 624.297 308.754 625.031C308.34 625.758 307.762 626.309 307.02 626.684C306.285 627.051 305.449 627.234 304.512 627.234C303.574 627.234 302.734 627.051 301.992 626.684C301.25 626.309 300.664 625.758 300.234 625.031C299.805 624.297 299.59 623.391 299.59 622.312C299.59 621.586 299.711 620.934 299.953 620.355C300.195 619.777 300.535 619.277 300.973 618.855C301.418 618.434 301.938 618.113 302.531 617.895C303.133 617.668 303.785 617.555 304.488 617.555C305.434 617.555 306.277 617.75 307.02 618.141C307.762 618.531 308.34 619.082 308.754 619.793C309.176 620.504 309.387 621.344 309.387 622.312ZM306.094 622.078C306.094 621.562 306.027 621.121 305.895 620.754C305.77 620.387 305.586 620.105 305.344 619.91C305.102 619.715 304.816 619.617 304.488 619.617C304.16 619.617 303.875 619.715 303.633 619.91C303.398 620.105 303.215 620.387 303.082 620.754C302.949 621.121 302.883 621.562 302.883 622.078C302.883 622.578 302.945 623.008 303.07 623.367C303.203 623.727 303.391 624.008 303.633 624.211C303.883 624.406 304.176 624.504 304.512 624.504C304.848 624.504 305.133 624.406 305.367 624.211C305.609 624.008 305.789 623.727 305.906 623.367C306.031 623.008 306.094 622.578 306.094 622.078ZM309.105 614.473C309.105 615.348 308.91 616.117 308.52 616.781C308.129 617.445 307.586 617.965 306.891 618.34C306.203 618.715 305.41 618.902 304.512 618.902C303.605 618.902 302.801 618.715 302.098 618.34C301.402 617.965 300.859 617.445 300.469 616.781C300.078 616.117 299.883 615.348 299.883 614.473C299.883 613.441 300.078 612.57 300.469 611.859C300.867 611.148 301.414 610.609 302.109 610.242C302.805 609.875 303.602 609.691 304.5 609.691C305.398 609.691 306.195 609.875 306.891 610.242C307.586 610.609 308.129 611.148 308.52 611.859C308.91 612.57 309.105 613.441 309.105 614.473ZM305.824 614.637C305.824 614.191 305.773 613.805 305.672 613.477C305.578 613.141 305.434 612.883 305.238 612.703C305.051 612.516 304.805 612.422 304.5 612.422C304.211 612.422 303.965 612.512 303.762 612.691C303.566 612.863 303.418 613.117 303.316 613.453C303.223 613.781 303.176 614.176 303.176 614.637C303.176 615.082 303.223 615.473 303.316 615.809C303.418 616.145 303.566 616.41 303.762 616.605C303.965 616.793 304.215 616.887 304.512 616.887C304.809 616.887 305.051 616.793 305.238 616.605C305.434 616.41 305.578 616.145 305.672 615.809C305.773 615.473 305.824 615.082 305.824 614.637Z" fill="black"/>
<path d="M301.496 711.957H303.102C303.508 711.957 303.844 711.863 304.109 711.676C304.375 711.48 304.57 711.207 304.695 710.855C304.82 710.496 304.883 710.078 304.883 709.602C304.883 709.18 304.824 708.809 304.707 708.488C304.59 708.16 304.41 707.902 304.168 707.715C303.926 707.52 303.621 707.422 303.254 707.422C302.973 707.422 302.707 707.5 302.457 707.656C302.215 707.805 302.023 708.023 301.883 708.312C301.742 708.602 301.672 708.945 301.672 709.344H298.379C298.379 708.406 298.59 707.59 299.012 706.895C299.441 706.199 300.02 705.66 300.746 705.277C301.473 704.887 302.277 704.691 303.16 704.691C304.152 704.691 305.023 704.875 305.773 705.242C306.523 705.609 307.109 706.156 307.531 706.883C307.953 707.602 308.164 708.492 308.164 709.555C308.164 710.102 308.062 710.629 307.859 711.137C307.656 711.637 307.359 712.09 306.969 712.496C306.578 712.902 306.102 713.223 305.539 713.457C304.977 713.691 304.34 713.809 303.629 713.809H301.496V711.957ZM301.496 714.617V712.824H303.629C304.434 712.824 305.133 712.93 305.727 713.141C306.32 713.344 306.812 713.641 307.203 714.031C307.602 714.422 307.898 714.887 308.094 715.426C308.289 715.957 308.387 716.551 308.387 717.207C308.387 718.004 308.254 718.715 307.988 719.34C307.723 719.965 307.352 720.492 306.875 720.922C306.398 721.352 305.844 721.68 305.211 721.906C304.578 722.125 303.891 722.234 303.148 722.234C302.531 722.234 301.926 722.137 301.332 721.941C300.746 721.746 300.219 721.445 299.75 721.039C299.281 720.633 298.91 720.121 298.637 719.504C298.363 718.887 298.227 718.156 298.227 717.312H301.508C301.508 717.734 301.582 718.113 301.73 718.449C301.887 718.777 302.094 719.035 302.352 719.223C302.609 719.41 302.902 719.504 303.23 719.504C303.613 719.504 303.945 719.406 304.227 719.211C304.508 719.016 304.723 718.742 304.871 718.391C305.02 718.039 305.094 717.633 305.094 717.172C305.094 716.562 305.016 716.074 304.859 715.707C304.703 715.332 304.477 715.059 304.18 714.887C303.883 714.707 303.523 714.617 303.102 714.617H301.496Z" fill="black"/>
<path d="M211.445 521.969V524.934C211.445 526.215 211.324 527.316 211.082 528.238C210.84 529.16 210.5 529.918 210.062 530.512C209.625 531.098 209.105 531.531 208.504 531.812C207.902 532.094 207.238 532.234 206.512 532.234C205.934 532.234 205.391 532.145 204.883 531.965C204.375 531.785 203.914 531.512 203.5 531.145C203.094 530.77 202.742 530.297 202.445 529.727C202.156 529.148 201.934 528.465 201.777 527.676C201.621 526.879 201.543 525.965 201.543 524.934V521.969C201.543 520.688 201.664 519.59 201.906 518.676C202.156 517.754 202.5 517 202.938 516.414C203.375 515.828 203.895 515.398 204.496 515.125C205.105 514.844 205.773 514.703 206.5 514.703C207.07 514.703 207.609 514.793 208.117 514.973C208.625 515.145 209.082 515.414 209.488 515.781C209.895 516.148 210.242 516.621 210.531 517.199C210.828 517.77 211.055 518.453 211.211 519.25C211.367 520.039 211.445 520.945 211.445 521.969ZM208.152 525.391V521.488C208.152 520.887 208.125 520.359 208.07 519.906C208.023 519.453 207.953 519.07 207.859 518.758C207.773 518.445 207.66 518.191 207.52 517.996C207.387 517.801 207.234 517.66 207.062 517.574C206.891 517.48 206.703 517.434 206.5 517.434C206.242 517.434 206.012 517.504 205.809 517.645C205.605 517.785 205.43 518.016 205.281 518.336C205.133 518.648 205.02 519.066 204.941 519.59C204.871 520.105 204.836 520.738 204.836 521.488V525.391C204.836 525.992 204.859 526.523 204.906 526.984C204.961 527.445 205.035 527.84 205.129 528.168C205.23 528.488 205.344 528.746 205.469 528.941C205.602 529.137 205.754 529.281 205.926 529.375C206.105 529.461 206.301 529.504 206.512 529.504C206.762 529.504 206.988 529.434 207.191 529.293C207.402 529.145 207.578 528.91 207.719 528.59C207.859 528.27 207.965 527.848 208.035 527.324C208.113 526.793 208.152 526.148 208.152 525.391Z" fill="black"/>
<path d="M204.52 619.266L201.895 618.609L202.75 609.938H210.988V612.75H205.445L205.129 616.418C205.309 616.293 205.574 616.156 205.926 616.008C206.285 615.859 206.684 615.785 207.121 615.785C207.832 615.785 208.457 615.914 208.996 616.172C209.543 616.43 210.004 616.805 210.379 617.297C210.754 617.789 211.039 618.391 211.234 619.102C211.43 619.812 211.527 620.617 211.527 621.516C211.527 622.273 211.426 622.996 211.223 623.684C211.02 624.371 210.707 624.98 210.285 625.512C209.863 626.043 209.34 626.465 208.715 626.777C208.098 627.082 207.367 627.234 206.523 627.234C205.891 627.234 205.281 627.125 204.695 626.906C204.109 626.688 203.582 626.363 203.113 625.934C202.645 625.496 202.27 624.973 201.988 624.363C201.707 623.746 201.566 623.043 201.566 622.254H204.812C204.852 622.715 204.941 623.113 205.082 623.449C205.23 623.785 205.426 624.047 205.668 624.234C205.91 624.414 206.191 624.504 206.512 624.504C206.832 624.504 207.102 624.426 207.32 624.27C207.547 624.105 207.727 623.879 207.859 623.59C207.992 623.301 208.086 622.965 208.141 622.582C208.203 622.191 208.234 621.773 208.234 621.328C208.234 620.875 208.195 620.465 208.117 620.098C208.039 619.73 207.918 619.414 207.754 619.148C207.59 618.883 207.375 618.68 207.109 618.539C206.852 618.398 206.551 618.328 206.207 618.328C205.723 618.328 205.359 618.43 205.117 618.633C204.883 618.828 204.684 619.039 204.52 619.266Z" fill="black"/>
<path d="M210.738 715.578V718.309H200.32L200.168 716.164L205.969 704.938H208.57L205.91 709.93L203.379 715.578H210.738ZM209.285 704.938V722H205.992V704.938H209.285Z" fill="black"/>
<path opacity="0.9" d="M105.664 529.34H105.828C106.578 529.34 107.219 529.23 107.75 529.012C108.289 528.793 108.727 528.473 109.062 528.051C109.406 527.621 109.656 527.098 109.812 526.48C109.969 525.855 110.047 525.141 110.047 524.336V521.043C110.047 520.434 110.004 519.906 109.918 519.461C109.832 519.008 109.711 518.633 109.555 518.336C109.398 518.031 109.223 517.805 109.027 517.656C108.832 517.508 108.621 517.434 108.395 517.434C108.129 517.434 107.895 517.527 107.691 517.715C107.488 517.895 107.316 518.137 107.176 518.441C107.043 518.746 106.941 519.094 106.871 519.484C106.801 519.875 106.766 520.281 106.766 520.703C106.766 521.133 106.801 521.543 106.871 521.934C106.941 522.316 107.047 522.656 107.188 522.953C107.328 523.242 107.508 523.469 107.727 523.633C107.945 523.797 108.207 523.879 108.512 523.879C108.762 523.879 108.992 523.809 109.203 523.668C109.414 523.52 109.598 523.328 109.754 523.094C109.918 522.852 110.043 522.586 110.129 522.297C110.223 522 110.273 521.699 110.281 521.395L111.348 522.062C111.348 522.594 111.25 523.121 111.055 523.645C110.867 524.168 110.605 524.645 110.27 525.074C109.934 525.504 109.543 525.848 109.098 526.105C108.66 526.355 108.188 526.48 107.68 526.48C107 526.48 106.398 526.336 105.875 526.047C105.352 525.75 104.91 525.344 104.551 524.828C104.199 524.312 103.934 523.707 103.754 523.012C103.574 522.316 103.484 521.559 103.484 520.738C103.484 519.91 103.598 519.133 103.824 518.406C104.059 517.672 104.391 517.027 104.82 516.473C105.25 515.918 105.77 515.484 106.379 515.172C106.988 514.852 107.668 514.691 108.418 514.691C109.16 514.691 109.832 514.855 110.434 515.184C111.035 515.512 111.551 515.984 111.98 516.602C112.41 517.211 112.738 517.945 112.965 518.805C113.199 519.656 113.316 520.609 113.316 521.664V522.836C113.316 523.961 113.219 525.004 113.023 525.965C112.828 526.918 112.531 527.777 112.133 528.543C111.734 529.309 111.238 529.965 110.645 530.512C110.051 531.051 109.355 531.465 108.559 531.754C107.77 532.035 106.875 532.176 105.875 532.176H105.664V529.34Z" fill="black"/>
<path d="M110.832 609.902V627H107.539V613.934L104.281 615.188V612.445L110.469 609.902H110.832Z" fill="black"/>
<path d="M112.539 704.938V706.812L107.148 722H103.68L109.094 707.668H102.227V704.938H112.539Z" fill="black"/>
<path d="M211.598 803.27V806H201.543V803.668L206.16 797.797C206.605 797.188 206.953 796.648 207.203 796.18C207.453 795.711 207.633 795.293 207.742 794.926C207.852 794.551 207.906 794.195 207.906 793.859C207.906 793.359 207.848 792.93 207.73 792.57C207.613 792.203 207.438 791.922 207.203 791.727C206.977 791.523 206.695 791.422 206.359 791.422C205.953 791.422 205.617 791.547 205.352 791.797C205.086 792.047 204.887 792.391 204.754 792.828C204.629 793.258 204.566 793.746 204.566 794.293H201.273C201.273 793.277 201.48 792.344 201.895 791.492C202.316 790.633 202.906 789.953 203.664 789.453C204.43 788.945 205.348 788.691 206.418 788.691C207.457 788.691 208.332 788.887 209.043 789.277C209.754 789.668 210.289 790.227 210.648 790.953C211.016 791.672 211.199 792.535 211.199 793.543C211.199 794.105 211.125 794.656 210.977 795.195C210.828 795.727 210.617 796.258 210.344 796.789C210.07 797.312 209.73 797.848 209.324 798.395C208.926 798.941 208.48 799.508 207.988 800.094L205.762 803.27H211.598Z" fill="black"/>
<path d="M108.59 796.17L103.41 791L102 792.41L107.17 797.58L108.59 796.17ZM112.5 791L114.54 793.04L102 805.59L103.41 807L115.96 794.46L118 796.5V791H112.5ZM112.83 800.41L111.42 801.82L114.55 804.95L112.5 807H118V801.5L115.96 803.54L112.83 800.41Z" fill="#0C0C0C"/>
<path d="M296.946 795.2L298.002 794.144C298.47 793.676 298.47 792.92 298.002 792.452C297.534 791.984 296.778 791.984 296.31 792.452L293.202 795.56C292.734 796.028 292.734 796.784 293.202 797.252L296.298 800.348C296.766 800.816 297.522 800.816 297.99 800.348C298.458 799.88 298.458 799.124 297.99 798.656L296.946 797.6H312.75C313.41 797.6 313.95 797.06 313.95 796.4C313.95 795.74 313.41 795.2 312.75 795.2H296.946Z" fill="#0C0C0C"/>
<path d="M27.416 12.0469V12.7578L23.2939 22H21.9609L26.0762 13.0859H20.6895V12.0469H27.416ZM28.9404 21.3301C28.9404 21.1159 29.0065 20.9359 29.1387 20.79C29.2754 20.6396 29.4714 20.5645 29.7266 20.5645C29.9818 20.5645 30.1755 20.6396 30.3076 20.79C30.4443 20.9359 30.5127 21.1159 30.5127 21.3301C30.5127 21.5397 30.4443 21.7174 30.3076 21.8633C30.1755 22.0091 29.9818 22.082 29.7266 22.082C29.4714 22.082 29.2754 22.0091 29.1387 21.8633C29.0065 21.7174 28.9404 21.5397 28.9404 21.3301ZM28.9473 15.2939C28.9473 15.0798 29.0133 14.8997 29.1455 14.7539C29.2822 14.6035 29.4782 14.5283 29.7334 14.5283C29.9886 14.5283 30.1823 14.6035 30.3145 14.7539C30.4512 14.8997 30.5195 15.0798 30.5195 15.2939C30.5195 15.5036 30.4512 15.6813 30.3145 15.8271C30.1823 15.973 29.9886 16.0459 29.7334 16.0459C29.4782 16.0459 29.2822 15.973 29.1455 15.8271C29.0133 15.6813 28.9473 15.5036 28.9473 15.2939ZM34.0947 16.4014H34.9971C35.4391 16.4014 35.8037 16.3285 36.0908 16.1826C36.3825 16.0322 36.599 15.8294 36.7402 15.5742C36.8861 15.3145 36.959 15.0228 36.959 14.6992C36.959 14.3164 36.8952 13.9951 36.7676 13.7354C36.64 13.4756 36.4486 13.2796 36.1934 13.1475C35.9382 13.0153 35.6146 12.9492 35.2227 12.9492C34.8672 12.9492 34.5527 13.0199 34.2793 13.1611C34.0104 13.2979 33.7985 13.4938 33.6436 13.749C33.4932 14.0042 33.418 14.305 33.418 14.6514H32.1533C32.1533 14.1455 32.2809 13.6852 32.5361 13.2705C32.7913 12.8558 33.1491 12.5254 33.6094 12.2793C34.0742 12.0332 34.612 11.9102 35.2227 11.9102C35.8242 11.9102 36.3506 12.0173 36.8018 12.2314C37.2529 12.4411 37.6038 12.7555 37.8545 13.1748C38.1051 13.5895 38.2305 14.1068 38.2305 14.7266C38.2305 14.9772 38.1712 15.2461 38.0527 15.5332C37.9388 15.8158 37.7588 16.0801 37.5127 16.3262C37.2712 16.5723 36.9567 16.7751 36.5693 16.9346C36.182 17.0895 35.7171 17.167 35.1748 17.167H34.0947V16.4014ZM34.0947 17.4404V16.6816H35.1748C35.8083 16.6816 36.3324 16.7568 36.7471 16.9072C37.1618 17.0576 37.4876 17.2581 37.7246 17.5088C37.9661 17.7594 38.1348 18.0352 38.2305 18.3359C38.3307 18.6322 38.3809 18.9284 38.3809 19.2246C38.3809 19.6895 38.3011 20.1019 38.1416 20.4619C37.9867 20.8219 37.7656 21.1273 37.4785 21.3779C37.196 21.6286 36.8633 21.8177 36.4805 21.9453C36.0977 22.0729 35.6807 22.1367 35.2295 22.1367C34.7965 22.1367 34.3887 22.0752 34.0059 21.9521C33.6276 21.8291 33.2926 21.6514 33.001 21.4189C32.7093 21.182 32.4814 20.8926 32.3174 20.5508C32.1533 20.2044 32.0713 19.8102 32.0713 19.3682H33.3359C33.3359 19.7145 33.4111 20.0176 33.5615 20.2773C33.7165 20.5371 33.9352 20.7399 34.2178 20.8857C34.5049 21.027 34.8421 21.0977 35.2295 21.0977C35.6169 21.0977 35.9495 21.0316 36.2275 20.8994C36.5101 20.7627 36.7266 20.5576 36.877 20.2842C37.0319 20.0107 37.1094 19.6667 37.1094 19.252C37.1094 18.8372 37.0228 18.4977 36.8496 18.2334C36.6764 17.9645 36.4303 17.7663 36.1113 17.6387C35.7969 17.5065 35.4255 17.4404 34.9971 17.4404H34.0947ZM46.3721 16.2305V17.748C46.3721 18.5638 46.2992 19.252 46.1533 19.8125C46.0075 20.373 45.7979 20.8242 45.5244 21.166C45.251 21.5078 44.9206 21.7562 44.5332 21.9111C44.1504 22.0615 43.7174 22.1367 43.2344 22.1367C42.8516 22.1367 42.4984 22.0889 42.1748 21.9932C41.8512 21.8975 41.5596 21.7448 41.2998 21.5352C41.0446 21.321 40.8258 21.043 40.6436 20.7012C40.4613 20.3594 40.3223 19.9447 40.2266 19.457C40.1309 18.9694 40.083 18.3997 40.083 17.748V16.2305C40.083 15.4147 40.1559 14.7311 40.3018 14.1797C40.4521 13.6283 40.6641 13.1862 40.9375 12.8535C41.2109 12.5163 41.5391 12.2747 41.9219 12.1289C42.3092 11.9831 42.7422 11.9102 43.2207 11.9102C43.6081 11.9102 43.9635 11.958 44.2871 12.0537C44.6152 12.1449 44.9069 12.293 45.1621 12.498C45.4173 12.6986 45.6338 12.9674 45.8115 13.3047C45.9938 13.6374 46.1328 14.0452 46.2285 14.5283C46.3242 15.0114 46.3721 15.5788 46.3721 16.2305ZM45.1006 17.9531V16.0186C45.1006 15.5719 45.0732 15.18 45.0186 14.8428C44.9684 14.501 44.8932 14.2093 44.793 13.9678C44.6927 13.7262 44.5651 13.5303 44.4102 13.3799C44.2598 13.2295 44.0843 13.1201 43.8838 13.0518C43.6878 12.9788 43.4668 12.9424 43.2207 12.9424C42.9199 12.9424 42.6533 12.9993 42.4209 13.1133C42.1885 13.2227 41.9925 13.3981 41.833 13.6396C41.6781 13.8812 41.5596 14.1979 41.4775 14.5898C41.3955 14.9818 41.3545 15.458 41.3545 16.0186V17.9531C41.3545 18.3997 41.3796 18.7939 41.4297 19.1357C41.4844 19.4775 41.5641 19.7738 41.6689 20.0244C41.7738 20.2705 41.9014 20.4733 42.0518 20.6328C42.2021 20.7923 42.3753 20.9108 42.5713 20.9883C42.7718 21.0612 42.9928 21.0977 43.2344 21.0977C43.5443 21.0977 43.8154 21.0384 44.0479 20.9199C44.2803 20.8014 44.474 20.6169 44.6289 20.3662C44.7884 20.111 44.9069 19.7852 44.9844 19.3887C45.0618 18.9876 45.1006 18.5091 45.1006 17.9531ZM55.4844 12.9287L52.1895 22H50.8428L54.6367 12.0469H55.5049L55.4844 12.9287ZM58.2461 22L54.9443 12.9287L54.9238 12.0469H55.792L59.5996 22H58.2461ZM58.0752 18.3154V19.3955H52.4834V18.3154H58.0752ZM61.3496 12.0469H62.6279L65.8887 20.1611L69.1426 12.0469H70.4277L66.3809 22H65.3828L61.3496 12.0469ZM60.9326 12.0469H62.0605L62.2451 18.1172V22H60.9326V12.0469ZM69.71 12.0469H70.8379V22H69.5254V18.1172L69.71 12.0469Z" fill="#0C0C0C"/>
<path d="M322.792 12.9478L324.375 14.5311C328.309 10.5966 334.69 10.5966 338.625 14.5311L340.208 12.9478C335.403 8.1424 327.605 8.1424 322.792 12.9478ZM329.125 19.2811L331.5 21.6561L333.875 19.2811C332.569 17.967 330.439 17.967 329.125 19.2811ZM325.958 16.1145L327.542 17.6978C329.727 15.5128 333.273 15.5128 335.458 17.6978L337.042 16.1145C333.986 13.0586 329.022 13.0586 325.958 16.1145Z" fill="#0C0C0C"/>
<path d="M362.75 9.33325H365.25V22.6666H362.75V9.33325ZM352.75 17.6666H355.25V22.6666H352.75V17.6666ZM357.75 13.4999H360.25V22.6666H357.75V13.4999Z" fill="#0C0C0C"/>
<path d="M391.362 9.55847L391.1 24.4572L382.823 24.3114L383.085 9.41273L385.568 9.45645L385.597 7.80104L388.908 7.85934L388.879 9.51475L391.362 9.55847ZM389.678 11.1847L384.711 11.0973L384.653 14.4081L389.619 14.4956L389.678 11.1847Z" fill="#0C0C0C"/>
</svg>
