<svg width="412" height="917" viewBox="0 0 412 917" fill="none" xmlns="http://www.w3.org/2000/svg">
<rect width="412" height="917" fill="white"/>
<path d="M61.812 447.088H64.212V447.904H61.812V447.088ZM61.728 449.812H64.188V450.628H61.728V449.812ZM65.868 444.076H66.828V454.936H65.868V444.076ZM63.684 444.364H64.632V454.384H63.684V444.364ZM61.272 445.456H62.232C62.232 446.4 62.096 447.308 61.824 448.18C61.552 449.044 61.116 449.852 60.516 450.604C59.924 451.348 59.144 452.012 58.176 452.596L57.588 451.876C58.436 451.364 59.132 450.788 59.676 450.148C60.22 449.5 60.62 448.8 60.876 448.048C61.14 447.288 61.272 446.484 61.272 445.636V445.456ZM58.068 445.456H61.656V446.272H58.068V445.456ZM71.4231 445.384H72.2391V446.02C72.2391 446.652 72.1111 447.24 71.8551 447.784C71.5991 448.32 71.2431 448.784 70.7871 449.176C70.3311 449.568 69.7991 449.864 69.1911 450.064L68.6871 449.284C69.2311 449.108 69.7071 448.86 70.1151 448.54C70.5231 448.212 70.8431 447.832 71.0751 447.4C71.3071 446.968 71.4231 446.508 71.4231 446.02V445.384ZM71.6151 445.384H72.4311V446.02C72.4311 446.476 72.5391 446.908 72.7551 447.316C72.9791 447.724 73.2911 448.084 73.6911 448.396C74.0991 448.7 74.5671 448.936 75.0951 449.104L74.6151 449.884C74.0151 449.692 73.4911 449.408 73.0431 449.032C72.5951 448.656 72.2431 448.212 71.9871 447.7C71.7391 447.18 71.6151 446.62 71.6151 446.02V445.384ZM69.0111 445.084H74.8311V445.912H69.0111V445.084ZM71.4351 449.62H72.4311V452.14H71.4351V449.62ZM76.6911 448.576H78.6951V449.428H76.6911V448.576ZM75.9831 444.076H76.9671V454.936H75.9831V444.076ZM68.6511 452.668L68.5071 451.84C69.1471 451.84 69.8511 451.836 70.6191 451.828C71.3871 451.812 72.1711 451.784 72.9711 451.744C73.7791 451.696 74.5551 451.62 75.2991 451.516L75.3711 452.248C74.6031 452.384 73.8191 452.484 73.0191 452.548C72.2271 452.604 71.4551 452.64 70.7031 452.656C69.9591 452.664 69.2751 452.668 68.6511 452.668ZM84.8021 447.136H87.9101V447.952H84.8021V447.136ZM87.6101 444.088H88.6061V452.116H87.6101V444.088ZM81.6341 453.88H88.8581V454.696H81.6341V453.88ZM81.6341 451.336H82.6301V454.288H81.6341V451.336ZM80.2061 444.808H81.2021V446.716H84.1301V444.808H85.1141V450.268H80.2061V444.808ZM81.2021 447.496V449.464H84.1301V447.496H81.2021ZM91.1972 445.672H100.017V446.488H91.1972V445.672ZM90.7172 452.848H100.557V453.664H90.7172V452.848ZM95.1212 451.12H96.1052V453.16H95.1212V451.12ZM95.6132 447.208C96.3412 447.208 96.9692 447.292 97.4972 447.46C98.0332 447.62 98.4452 447.852 98.7332 448.156C99.0212 448.46 99.1652 448.832 99.1652 449.272C99.1652 449.704 99.0212 450.076 98.7332 450.388C98.4452 450.7 98.0332 450.94 97.4972 451.108C96.9692 451.268 96.3412 451.348 95.6132 451.348C94.8852 451.348 94.2532 451.268 93.7172 451.108C93.1892 450.94 92.7812 450.7 92.4932 450.388C92.2052 450.076 92.0612 449.704 92.0612 449.272C92.0612 448.832 92.2052 448.46 92.4932 448.156C92.7812 447.852 93.1892 447.62 93.7172 447.46C94.2532 447.292 94.8852 447.208 95.6132 447.208ZM95.6132 448C95.0852 448 94.6292 448.052 94.2452 448.156C93.8692 448.252 93.5772 448.396 93.3692 448.588C93.1692 448.772 93.0692 449 93.0692 449.272C93.0692 449.536 93.1692 449.764 93.3692 449.956C93.5772 450.148 93.8692 450.296 94.2452 450.4C94.6292 450.496 95.0852 450.544 95.6132 450.544C96.1412 450.544 96.5932 450.496 96.9692 450.4C97.3452 450.296 97.6372 450.148 97.8452 449.956C98.0532 449.764 98.1572 449.536 98.1572 449.272C98.1572 449 98.0532 448.772 97.8452 448.588C97.6372 448.396 97.3452 448.252 96.9692 448.156C96.5932 448.052 96.1412 448 95.6132 448ZM95.1212 444.256H96.1052V446.164H95.1212V444.256Z" fill="#404040"/>
<rect x="57" y="461" width="320" height="40" rx="8" fill="#FBFCFB"/>
<path d="M76.0547 480.102H77.0859C77.5911 480.102 78.0078 480.018 78.3359 479.852C78.6693 479.68 78.9167 479.448 79.0781 479.156C79.2448 478.859 79.3281 478.526 79.3281 478.156C79.3281 477.719 79.2552 477.352 79.1094 477.055C78.9635 476.758 78.7448 476.534 78.4531 476.383C78.1615 476.232 77.7917 476.156 77.3438 476.156C76.9375 476.156 76.5781 476.237 76.2656 476.398C75.9583 476.555 75.7161 476.779 75.5391 477.07C75.3672 477.362 75.2812 477.706 75.2812 478.102H73.8359C73.8359 477.523 73.9818 476.997 74.2734 476.523C74.5651 476.049 74.974 475.672 75.5 475.391C76.0312 475.109 76.6458 474.969 77.3438 474.969C78.0312 474.969 78.6328 475.091 79.1484 475.336C79.6641 475.576 80.0651 475.935 80.3516 476.414C80.638 476.888 80.7812 477.479 80.7812 478.188C80.7812 478.474 80.7135 478.781 80.5781 479.109C80.4479 479.432 80.2422 479.734 79.9609 480.016C79.6849 480.297 79.3255 480.529 78.8828 480.711C78.4401 480.888 77.9089 480.977 77.2891 480.977H76.0547V480.102ZM76.0547 481.289V480.422H77.2891C78.013 480.422 78.612 480.508 79.0859 480.68C79.5599 480.852 79.9323 481.081 80.2031 481.367C80.4792 481.654 80.6719 481.969 80.7812 482.312C80.8958 482.651 80.9531 482.99 80.9531 483.328C80.9531 483.859 80.862 484.331 80.6797 484.742C80.5026 485.154 80.25 485.503 79.9219 485.789C79.599 486.076 79.2188 486.292 78.7812 486.438C78.3438 486.583 77.8672 486.656 77.3516 486.656C76.8568 486.656 76.3906 486.586 75.9531 486.445C75.5208 486.305 75.138 486.102 74.8047 485.836C74.4714 485.565 74.2109 485.234 74.0234 484.844C73.8359 484.448 73.7422 483.997 73.7422 483.492H75.1875C75.1875 483.888 75.2734 484.234 75.4453 484.531C75.6224 484.828 75.8724 485.06 76.1953 485.227C76.5234 485.388 76.9089 485.469 77.3516 485.469C77.7943 485.469 78.1745 485.393 78.4922 485.242C78.8151 485.086 79.0625 484.852 79.2344 484.539C79.4115 484.227 79.5 483.833 79.5 483.359C79.5 482.885 79.401 482.497 79.2031 482.195C79.0052 481.888 78.724 481.661 78.3594 481.516C78 481.365 77.5755 481.289 77.0859 481.289H76.0547ZM84.7734 481.086L83.6172 480.789L84.1875 475.125H90.0234V476.461H85.4141L85.0703 479.555C85.2786 479.435 85.5417 479.323 85.8594 479.219C86.1823 479.115 86.5521 479.062 86.9688 479.062C87.4948 479.062 87.9661 479.154 88.3828 479.336C88.7995 479.513 89.1536 479.768 89.4453 480.102C89.7422 480.435 89.9688 480.836 90.125 481.305C90.2812 481.773 90.3594 482.297 90.3594 482.875C90.3594 483.422 90.2839 483.924 90.1328 484.383C89.987 484.841 89.7656 485.242 89.4688 485.586C89.1719 485.924 88.7969 486.188 88.3438 486.375C87.8958 486.562 87.3672 486.656 86.7578 486.656C86.2995 486.656 85.8646 486.594 85.4531 486.469C85.0469 486.339 84.6823 486.143 84.3594 485.883C84.0417 485.617 83.7812 485.289 83.5781 484.898C83.3802 484.503 83.2552 484.039 83.2031 483.508H84.5781C84.6406 483.935 84.7656 484.294 84.9531 484.586C85.1406 484.878 85.3854 485.099 85.6875 485.25C85.9948 485.396 86.3516 485.469 86.7578 485.469C87.1016 485.469 87.4062 485.409 87.6719 485.289C87.9375 485.169 88.1615 484.997 88.3438 484.773C88.526 484.549 88.6641 484.279 88.7578 483.961C88.8568 483.643 88.9062 483.286 88.9062 482.891C88.9062 482.531 88.8568 482.198 88.7578 481.891C88.6589 481.583 88.5104 481.315 88.3125 481.086C88.1198 480.857 87.8828 480.68 87.6016 480.555C87.3203 480.424 86.9974 480.359 86.6328 480.359C86.1484 480.359 85.7812 480.424 85.5312 480.555C85.2865 480.685 85.0339 480.862 84.7734 481.086ZM97.4922 475.109H97.6172V476.336H97.4922C96.7266 476.336 96.0859 476.461 95.5703 476.711C95.0547 476.956 94.6458 477.286 94.3438 477.703C94.0417 478.115 93.8229 478.578 93.6875 479.094C93.5573 479.609 93.4922 480.133 93.4922 480.664V482.336C93.4922 482.841 93.5521 483.289 93.6719 483.68C93.7917 484.065 93.9557 484.391 94.1641 484.656C94.3724 484.922 94.6068 485.122 94.8672 485.258C95.1328 485.393 95.4089 485.461 95.6953 485.461C96.0286 485.461 96.3255 485.398 96.5859 485.273C96.8464 485.143 97.0651 484.964 97.2422 484.734C97.4245 484.5 97.5625 484.224 97.6562 483.906C97.75 483.589 97.7969 483.24 97.7969 482.859C97.7969 482.521 97.7552 482.195 97.6719 481.883C97.5885 481.565 97.4609 481.284 97.2891 481.039C97.1172 480.789 96.901 480.594 96.6406 480.453C96.3854 480.307 96.0807 480.234 95.7266 480.234C95.3255 480.234 94.9505 480.333 94.6016 480.531C94.2578 480.724 93.974 480.979 93.75 481.297C93.5312 481.609 93.4062 481.951 93.375 482.32L92.6094 482.312C92.6823 481.729 92.8177 481.232 93.0156 480.82C93.2188 480.404 93.4688 480.065 93.7656 479.805C94.0677 479.539 94.4036 479.346 94.7734 479.227C95.1484 479.102 95.5443 479.039 95.9609 479.039C96.5286 479.039 97.0182 479.146 97.4297 479.359C97.8411 479.573 98.1797 479.859 98.4453 480.219C98.7109 480.573 98.9062 480.974 99.0312 481.422C99.1615 481.865 99.2266 482.32 99.2266 482.789C99.2266 483.326 99.151 483.828 99 484.297C98.849 484.766 98.6224 485.177 98.3203 485.531C98.0234 485.885 97.6562 486.161 97.2188 486.359C96.7812 486.557 96.2734 486.656 95.6953 486.656C95.0807 486.656 94.5443 486.531 94.0859 486.281C93.6276 486.026 93.2474 485.688 92.9453 485.266C92.6432 484.844 92.4167 484.375 92.2656 483.859C92.1146 483.344 92.0391 482.82 92.0391 482.289V481.609C92.0391 480.807 92.1198 480.021 92.2812 479.25C92.4427 478.479 92.7214 477.781 93.1172 477.156C93.5182 476.531 94.0729 476.034 94.7812 475.664C95.4896 475.294 96.3932 475.109 97.4922 475.109ZM105.695 475.062V486.5H104.25V476.867L101.336 477.93V476.625L105.469 475.062H105.695ZM117.398 485.312V486.5H109.953V485.461L113.68 481.312C114.138 480.802 114.492 480.37 114.742 480.016C114.997 479.656 115.174 479.336 115.273 479.055C115.378 478.768 115.43 478.477 115.43 478.18C115.43 477.805 115.352 477.466 115.195 477.164C115.044 476.857 114.82 476.612 114.523 476.43C114.227 476.247 113.867 476.156 113.445 476.156C112.94 476.156 112.518 476.255 112.18 476.453C111.846 476.646 111.596 476.917 111.43 477.266C111.263 477.615 111.18 478.016 111.18 478.469H109.734C109.734 477.828 109.875 477.242 110.156 476.711C110.438 476.18 110.854 475.758 111.406 475.445C111.958 475.128 112.638 474.969 113.445 474.969C114.164 474.969 114.779 475.096 115.289 475.352C115.799 475.602 116.19 475.956 116.461 476.414C116.737 476.867 116.875 477.398 116.875 478.008C116.875 478.341 116.818 478.68 116.703 479.023C116.594 479.362 116.44 479.701 116.242 480.039C116.049 480.378 115.823 480.711 115.562 481.039C115.307 481.367 115.034 481.69 114.742 482.008L111.695 485.312H117.398ZM123.695 475.062V486.5H122.25V476.867L119.336 477.93V476.625L123.469 475.062H123.695ZM135.398 485.312V486.5H127.953V485.461L131.68 481.312C132.138 480.802 132.492 480.37 132.742 480.016C132.997 479.656 133.174 479.336 133.273 479.055C133.378 478.768 133.43 478.477 133.43 478.18C133.43 477.805 133.352 477.466 133.195 477.164C133.044 476.857 132.82 476.612 132.523 476.43C132.227 476.247 131.867 476.156 131.445 476.156C130.94 476.156 130.518 476.255 130.18 476.453C129.846 476.646 129.596 476.917 129.43 477.266C129.263 477.615 129.18 478.016 129.18 478.469H127.734C127.734 477.828 127.875 477.242 128.156 476.711C128.438 476.18 128.854 475.758 129.406 475.445C129.958 475.128 130.638 474.969 131.445 474.969C132.164 474.969 132.779 475.096 133.289 475.352C133.799 475.602 134.19 475.956 134.461 476.414C134.737 476.867 134.875 477.398 134.875 478.008C134.875 478.341 134.818 478.68 134.703 479.023C134.594 479.362 134.44 479.701 134.242 480.039C134.049 480.378 133.823 480.711 133.562 481.039C133.307 481.367 133.034 481.69 132.742 482.008L129.695 485.312H135.398ZM144.398 485.312V486.5H136.953V485.461L140.68 481.312C141.138 480.802 141.492 480.37 141.742 480.016C141.997 479.656 142.174 479.336 142.273 479.055C142.378 478.768 142.43 478.477 142.43 478.18C142.43 477.805 142.352 477.466 142.195 477.164C142.044 476.857 141.82 476.612 141.523 476.43C141.227 476.247 140.867 476.156 140.445 476.156C139.94 476.156 139.518 476.255 139.18 476.453C138.846 476.646 138.596 476.917 138.43 477.266C138.263 477.615 138.18 478.016 138.18 478.469H136.734C136.734 477.828 136.875 477.242 137.156 476.711C137.438 476.18 137.854 475.758 138.406 475.445C138.958 475.128 139.638 474.969 140.445 474.969C141.164 474.969 141.779 475.096 142.289 475.352C142.799 475.602 143.19 475.956 143.461 476.414C143.737 476.867 143.875 477.398 143.875 478.008C143.875 478.341 143.818 478.68 143.703 479.023C143.594 479.362 143.44 479.701 143.242 480.039C143.049 480.378 142.823 480.711 142.562 481.039C142.307 481.367 142.034 481.69 141.742 482.008L138.695 485.312H144.398ZM148.055 480.102H149.086C149.591 480.102 150.008 480.018 150.336 479.852C150.669 479.68 150.917 479.448 151.078 479.156C151.245 478.859 151.328 478.526 151.328 478.156C151.328 477.719 151.255 477.352 151.109 477.055C150.964 476.758 150.745 476.534 150.453 476.383C150.161 476.232 149.792 476.156 149.344 476.156C148.938 476.156 148.578 476.237 148.266 476.398C147.958 476.555 147.716 476.779 147.539 477.07C147.367 477.362 147.281 477.706 147.281 478.102H145.836C145.836 477.523 145.982 476.997 146.273 476.523C146.565 476.049 146.974 475.672 147.5 475.391C148.031 475.109 148.646 474.969 149.344 474.969C150.031 474.969 150.633 475.091 151.148 475.336C151.664 475.576 152.065 475.935 152.352 476.414C152.638 476.888 152.781 477.479 152.781 478.188C152.781 478.474 152.714 478.781 152.578 479.109C152.448 479.432 152.242 479.734 151.961 480.016C151.685 480.297 151.326 480.529 150.883 480.711C150.44 480.888 149.909 480.977 149.289 480.977H148.055V480.102ZM148.055 481.289V480.422H149.289C150.013 480.422 150.612 480.508 151.086 480.68C151.56 480.852 151.932 481.081 152.203 481.367C152.479 481.654 152.672 481.969 152.781 482.312C152.896 482.651 152.953 482.99 152.953 483.328C152.953 483.859 152.862 484.331 152.68 484.742C152.503 485.154 152.25 485.503 151.922 485.789C151.599 486.076 151.219 486.292 150.781 486.438C150.344 486.583 149.867 486.656 149.352 486.656C148.857 486.656 148.391 486.586 147.953 486.445C147.521 486.305 147.138 486.102 146.805 485.836C146.471 485.565 146.211 485.234 146.023 484.844C145.836 484.448 145.742 483.997 145.742 483.492H147.188C147.188 483.888 147.273 484.234 147.445 484.531C147.622 484.828 147.872 485.06 148.195 485.227C148.523 485.388 148.909 485.469 149.352 485.469C149.794 485.469 150.174 485.393 150.492 485.242C150.815 485.086 151.062 484.852 151.234 484.539C151.411 484.227 151.5 483.833 151.5 483.359C151.5 482.885 151.401 482.497 151.203 482.195C151.005 481.888 150.724 481.661 150.359 481.516C150 481.365 149.576 481.289 149.086 481.289H148.055ZM160.492 475.109H160.617V476.336H160.492C159.727 476.336 159.086 476.461 158.57 476.711C158.055 476.956 157.646 477.286 157.344 477.703C157.042 478.115 156.823 478.578 156.688 479.094C156.557 479.609 156.492 480.133 156.492 480.664V482.336C156.492 482.841 156.552 483.289 156.672 483.68C156.792 484.065 156.956 484.391 157.164 484.656C157.372 484.922 157.607 485.122 157.867 485.258C158.133 485.393 158.409 485.461 158.695 485.461C159.029 485.461 159.326 485.398 159.586 485.273C159.846 485.143 160.065 484.964 160.242 484.734C160.424 484.5 160.562 484.224 160.656 483.906C160.75 483.589 160.797 483.24 160.797 482.859C160.797 482.521 160.755 482.195 160.672 481.883C160.589 481.565 160.461 481.284 160.289 481.039C160.117 480.789 159.901 480.594 159.641 480.453C159.385 480.307 159.081 480.234 158.727 480.234C158.326 480.234 157.951 480.333 157.602 480.531C157.258 480.724 156.974 480.979 156.75 481.297C156.531 481.609 156.406 481.951 156.375 482.32L155.609 482.312C155.682 481.729 155.818 481.232 156.016 480.82C156.219 480.404 156.469 480.065 156.766 479.805C157.068 479.539 157.404 479.346 157.773 479.227C158.148 479.102 158.544 479.039 158.961 479.039C159.529 479.039 160.018 479.146 160.43 479.359C160.841 479.573 161.18 479.859 161.445 480.219C161.711 480.573 161.906 480.974 162.031 481.422C162.161 481.865 162.227 482.32 162.227 482.789C162.227 483.326 162.151 483.828 162 484.297C161.849 484.766 161.622 485.177 161.32 485.531C161.023 485.885 160.656 486.161 160.219 486.359C159.781 486.557 159.273 486.656 158.695 486.656C158.081 486.656 157.544 486.531 157.086 486.281C156.628 486.026 156.247 485.688 155.945 485.266C155.643 484.844 155.417 484.375 155.266 483.859C155.115 483.344 155.039 482.82 155.039 482.289V481.609C155.039 480.807 155.12 480.021 155.281 479.25C155.443 478.479 155.721 477.781 156.117 477.156C156.518 476.531 157.073 476.034 157.781 475.664C158.49 475.294 159.393 475.109 160.492 475.109ZM171.398 485.312V486.5H163.953V485.461L167.68 481.312C168.138 480.802 168.492 480.37 168.742 480.016C168.997 479.656 169.174 479.336 169.273 479.055C169.378 478.768 169.43 478.477 169.43 478.18C169.43 477.805 169.352 477.466 169.195 477.164C169.044 476.857 168.82 476.612 168.523 476.43C168.227 476.247 167.867 476.156 167.445 476.156C166.94 476.156 166.518 476.255 166.18 476.453C165.846 476.646 165.596 476.917 165.43 477.266C165.263 477.615 165.18 478.016 165.18 478.469H163.734C163.734 477.828 163.875 477.242 164.156 476.711C164.438 476.18 164.854 475.758 165.406 475.445C165.958 475.128 166.638 474.969 167.445 474.969C168.164 474.969 168.779 475.096 169.289 475.352C169.799 475.602 170.19 475.956 170.461 476.414C170.737 476.867 170.875 477.398 170.875 478.008C170.875 478.341 170.818 478.68 170.703 479.023C170.594 479.362 170.44 479.701 170.242 480.039C170.049 480.378 169.823 480.711 169.562 481.039C169.307 481.367 169.034 481.69 168.742 482.008L165.695 485.312H171.398ZM180.086 479.906V481.641C180.086 482.573 180.003 483.359 179.836 484C179.669 484.641 179.43 485.156 179.117 485.547C178.805 485.938 178.427 486.221 177.984 486.398C177.547 486.57 177.052 486.656 176.5 486.656C176.062 486.656 175.659 486.602 175.289 486.492C174.919 486.383 174.586 486.208 174.289 485.969C173.997 485.724 173.747 485.406 173.539 485.016C173.331 484.625 173.172 484.151 173.062 483.594C172.953 483.036 172.898 482.385 172.898 481.641V479.906C172.898 478.974 172.982 478.193 173.148 477.562C173.32 476.932 173.562 476.427 173.875 476.047C174.188 475.661 174.562 475.385 175 475.219C175.443 475.052 175.938 474.969 176.484 474.969C176.927 474.969 177.333 475.023 177.703 475.133C178.078 475.237 178.411 475.406 178.703 475.641C178.995 475.87 179.242 476.177 179.445 476.562C179.654 476.943 179.812 477.409 179.922 477.961C180.031 478.513 180.086 479.161 180.086 479.906ZM178.633 481.875V479.664C178.633 479.154 178.602 478.706 178.539 478.32C178.482 477.93 178.396 477.596 178.281 477.32C178.167 477.044 178.021 476.82 177.844 476.648C177.672 476.477 177.471 476.352 177.242 476.273C177.018 476.19 176.766 476.148 176.484 476.148C176.141 476.148 175.836 476.214 175.57 476.344C175.305 476.469 175.081 476.669 174.898 476.945C174.721 477.221 174.586 477.583 174.492 478.031C174.398 478.479 174.352 479.023 174.352 479.664V481.875C174.352 482.385 174.38 482.836 174.438 483.227C174.5 483.617 174.591 483.956 174.711 484.242C174.831 484.523 174.977 484.755 175.148 484.938C175.32 485.12 175.518 485.255 175.742 485.344C175.971 485.427 176.224 485.469 176.5 485.469C176.854 485.469 177.164 485.401 177.43 485.266C177.695 485.13 177.917 484.919 178.094 484.633C178.276 484.341 178.411 483.969 178.5 483.516C178.589 483.057 178.633 482.51 178.633 481.875ZM184.055 480.102H185.086C185.591 480.102 186.008 480.018 186.336 479.852C186.669 479.68 186.917 479.448 187.078 479.156C187.245 478.859 187.328 478.526 187.328 478.156C187.328 477.719 187.255 477.352 187.109 477.055C186.964 476.758 186.745 476.534 186.453 476.383C186.161 476.232 185.792 476.156 185.344 476.156C184.938 476.156 184.578 476.237 184.266 476.398C183.958 476.555 183.716 476.779 183.539 477.07C183.367 477.362 183.281 477.706 183.281 478.102H181.836C181.836 477.523 181.982 476.997 182.273 476.523C182.565 476.049 182.974 475.672 183.5 475.391C184.031 475.109 184.646 474.969 185.344 474.969C186.031 474.969 186.633 475.091 187.148 475.336C187.664 475.576 188.065 475.935 188.352 476.414C188.638 476.888 188.781 477.479 188.781 478.188C188.781 478.474 188.714 478.781 188.578 479.109C188.448 479.432 188.242 479.734 187.961 480.016C187.685 480.297 187.326 480.529 186.883 480.711C186.44 480.888 185.909 480.977 185.289 480.977H184.055V480.102ZM184.055 481.289V480.422H185.289C186.013 480.422 186.612 480.508 187.086 480.68C187.56 480.852 187.932 481.081 188.203 481.367C188.479 481.654 188.672 481.969 188.781 482.312C188.896 482.651 188.953 482.99 188.953 483.328C188.953 483.859 188.862 484.331 188.68 484.742C188.503 485.154 188.25 485.503 187.922 485.789C187.599 486.076 187.219 486.292 186.781 486.438C186.344 486.583 185.867 486.656 185.352 486.656C184.857 486.656 184.391 486.586 183.953 486.445C183.521 486.305 183.138 486.102 182.805 485.836C182.471 485.565 182.211 485.234 182.023 484.844C181.836 484.448 181.742 483.997 181.742 483.492H183.188C183.188 483.888 183.273 484.234 183.445 484.531C183.622 484.828 183.872 485.06 184.195 485.227C184.523 485.388 184.909 485.469 185.352 485.469C185.794 485.469 186.174 485.393 186.492 485.242C186.815 485.086 187.062 484.852 187.234 484.539C187.411 484.227 187.5 483.833 187.5 483.359C187.5 482.885 187.401 482.497 187.203 482.195C187.005 481.888 186.724 481.661 186.359 481.516C186 481.365 185.576 481.289 185.086 481.289H184.055Z" fill="#404040"/>
<path d="M58.848 349.652H65.832V350.468H58.848V349.652ZM57.6 353.648H67.44V354.464H57.6V353.648ZM65.184 349.652H66.168V350.456C66.168 350.912 66.152 351.416 66.12 351.968C66.088 352.52 65.984 353.176 65.808 353.936L64.824 353.876C65 353.14 65.104 352.5 65.136 351.956C65.168 351.404 65.184 350.904 65.184 350.456V349.652ZM58.812 355.94H66.204V359.792H58.812V355.94ZM65.22 356.732H59.784V358.976H65.22V356.732ZM71.0991 354.56H72.0951V356.708H71.0991V354.56ZM75.0111 354.56H76.0071V356.708H75.0111V354.56ZM68.6391 354.152H78.4431V354.968H68.6391V354.152ZM73.5351 356.072C74.6951 356.072 75.6031 356.24 76.2591 356.576C76.9151 356.904 77.2431 357.376 77.2431 357.992C77.2431 358.608 76.9151 359.084 76.2591 359.42C75.6031 359.756 74.6951 359.924 73.5351 359.924C72.3751 359.924 71.4631 359.756 70.7991 359.42C70.1431 359.084 69.8151 358.608 69.8151 357.992C69.8151 357.376 70.1431 356.904 70.7991 356.576C71.4631 356.24 72.3751 356.072 73.5351 356.072ZM73.5231 356.84C72.9631 356.84 72.4791 356.888 72.0711 356.984C71.6711 357.072 71.3631 357.2 71.1471 357.368C70.9311 357.536 70.8231 357.744 70.8231 357.992C70.8231 358.24 70.9311 358.452 71.1471 358.628C71.3631 358.796 71.6711 358.924 72.0711 359.012C72.4791 359.1 72.9631 359.144 73.5231 359.144C74.0991 359.144 74.5871 359.1 74.9871 359.012C75.3951 358.924 75.7071 358.796 75.9231 358.628C76.1391 358.452 76.2471 358.24 76.2471 357.992C76.2471 357.744 76.1391 357.536 75.9231 357.368C75.7071 357.2 75.3951 357.072 74.9871 356.984C74.5871 356.888 74.0991 356.84 73.5231 356.84ZM73.5351 349.292C74.3191 349.292 74.9951 349.372 75.5631 349.532C76.1391 349.692 76.5791 349.924 76.8831 350.228C77.1951 350.532 77.3511 350.9 77.3511 351.332C77.3511 351.756 77.1951 352.12 76.8831 352.424C76.5791 352.72 76.1391 352.948 75.5631 353.108C74.9951 353.268 74.3191 353.348 73.5351 353.348C72.7511 353.348 72.0711 353.268 71.4951 353.108C70.9271 352.948 70.4871 352.72 70.1751 352.424C69.8711 352.12 69.7191 351.756 69.7191 351.332C69.7191 350.9 69.8711 350.532 70.1751 350.228C70.4871 349.924 70.9271 349.692 71.4951 349.532C72.0711 349.372 72.7511 349.292 73.5351 349.292ZM73.5351 350.084C72.9671 350.084 72.4711 350.132 72.0471 350.228C71.6311 350.324 71.3071 350.468 71.0751 350.66C70.8511 350.844 70.7391 351.068 70.7391 351.332C70.7391 351.588 70.8511 351.812 71.0751 352.004C71.3071 352.188 71.6311 352.328 72.0471 352.424C72.4711 352.52 72.9671 352.568 73.5351 352.568C74.1111 352.568 74.6071 352.52 75.0231 352.424C75.4471 352.328 75.7711 352.188 75.9951 352.004C76.2191 351.812 76.3311 351.588 76.3311 351.332C76.3311 351.068 76.2191 350.844 75.9951 350.66C75.7711 350.468 75.4471 350.324 75.0231 350.228C74.6071 350.132 74.1111 350.084 73.5351 350.084ZM87.5861 349.076H88.5821V359.936H87.5861V349.076ZM84.4061 350.252H85.3901C85.3901 351.036 85.2941 351.792 85.1021 352.52C84.9181 353.248 84.6261 353.94 84.2261 354.596C83.8261 355.244 83.3061 355.848 82.6661 356.408C82.0261 356.968 81.2501 357.468 80.3381 357.908L79.8101 357.104C80.8581 356.6 81.7221 356.012 82.4021 355.34C83.0821 354.668 83.5861 353.92 83.9141 353.096C84.2421 352.264 84.4061 351.368 84.4061 350.408V350.252ZM80.3141 350.252H84.8261V351.056H80.3141V350.252ZM91.3052 349.916H96.1052V350.744H91.3052V349.916ZM92.9372 352.34H93.9212V355.052H92.9372V352.34ZM95.7092 349.916H96.6812V350.492C96.6812 350.852 96.6692 351.3 96.6452 351.836C96.6292 352.372 96.5492 352.996 96.4052 353.708L95.4212 353.612C95.5652 352.892 95.6492 352.28 95.6732 351.776C95.6972 351.272 95.7092 350.844 95.7092 350.492V349.916ZM98.1572 349.076H99.1652V357.248H98.1572V349.076ZM98.7092 352.604H100.713V353.444H98.7092V352.604ZM92.3012 358.88H99.5132V359.696H92.3012V358.88ZM92.3012 356.504H93.2972V359.12H92.3012V356.504ZM90.7532 355.52L90.6452 354.704C91.2852 354.704 91.9932 354.696 92.7692 354.68C93.5452 354.664 94.3332 354.632 95.1332 354.584C95.9332 354.528 96.7012 354.452 97.4372 354.356L97.4972 355.088C96.7532 355.216 95.9812 355.312 95.1812 355.376C94.3812 355.44 93.6012 355.48 92.8412 355.496C92.0892 355.512 91.3932 355.52 90.7532 355.52Z" fill="#404040"/>
<rect x="57" y="366" width="199" height="40" rx="8" fill="#FBFCFB"/>
<path d="M73.5448 382.784H83.3528V383.872H73.5448V382.784ZM73.5448 379.056H74.8568V383.264H73.5448V379.056ZM71.7688 385.776H84.8568V386.864H71.7688V385.776ZM77.6568 383.36H78.9688V386.272H77.6568V383.36ZM78.2968 387.952C79.8434 387.952 81.0541 388.181 81.9288 388.64C82.8034 389.099 83.2408 389.749 83.2408 390.592C83.2408 391.424 82.8034 392.069 81.9288 392.528C81.0541 392.987 79.8434 393.216 78.2968 393.216C76.7501 393.216 75.5341 392.987 74.6488 392.528C73.7741 392.069 73.3368 391.424 73.3368 390.592C73.3368 389.749 73.7741 389.099 74.6488 388.64C75.5341 388.181 76.7501 387.952 78.2968 387.952ZM78.2968 388.992C77.5394 388.992 76.8888 389.056 76.3448 389.184C75.8114 389.312 75.4008 389.493 75.1128 389.728C74.8248 389.963 74.6808 390.251 74.6808 390.592C74.6808 390.923 74.8248 391.205 75.1128 391.44C75.4008 391.675 75.8114 391.856 76.3448 391.984C76.8888 392.112 77.5394 392.176 78.2968 392.176C79.0541 392.176 79.6994 392.112 80.2328 391.984C80.7768 391.856 81.1928 391.675 81.4808 391.44C81.7688 391.205 81.9128 390.923 81.9128 390.592C81.9128 390.251 81.7688 389.963 81.4808 389.728C81.1928 389.493 80.7768 389.312 80.2328 389.184C79.6994 389.056 79.0541 388.992 78.2968 388.992ZM94.6155 382.144H97.5755V383.232H94.6155V382.144ZM94.5995 384.96H97.5435V386.048H94.5995V384.96ZM86.5035 380.224H94.6155V381.296H86.5035V380.224ZM90.5995 382C91.2502 382 91.8208 382.112 92.3115 382.336C92.8022 382.549 93.1862 382.853 93.4635 383.248C93.7408 383.632 93.8795 384.085 93.8795 384.608C93.8795 385.131 93.7408 385.589 93.4635 385.984C93.1862 386.368 92.8022 386.667 92.3115 386.88C91.8208 387.093 91.2502 387.2 90.5995 387.2C89.9595 387.2 89.3942 387.093 88.9035 386.88C88.4128 386.667 88.0288 386.368 87.7515 385.984C87.4742 385.589 87.3355 385.131 87.3355 384.608C87.3355 384.085 87.4742 383.632 87.7515 383.248C88.0288 382.853 88.4128 382.549 88.9035 382.336C89.3942 382.112 89.9595 382 90.5995 382ZM90.5995 383.024C89.9915 383.024 89.5008 383.168 89.1275 383.456C88.7648 383.744 88.5835 384.128 88.5835 384.608C88.5835 385.088 88.7648 385.477 89.1275 385.776C89.5008 386.064 89.9915 386.208 90.5995 386.208C91.2075 386.208 91.6982 386.064 92.0715 385.776C92.4555 385.477 92.6475 385.088 92.6475 384.608C92.6475 384.128 92.4555 383.744 92.0715 383.456C91.6982 383.168 91.2075 383.024 90.5995 383.024ZM89.9595 378.64H91.2715V380.88H89.9595V378.64ZM97.0635 378.768H98.3915V387.328H97.0635V378.768ZM89.0315 387.952H90.3435V389.44H97.0795V387.952H98.3915V393.056H89.0315V387.952ZM90.3435 390.464V392H97.0795V390.464H90.3435Z" fill="#404040"/>
<path d="M68.76 224.3H71.56C71.56 225.94 71.22 227.407 70.54 228.7C69.86 229.98 68.88 231.067 67.6 231.96C66.32 232.84 64.7533 233.52 62.9 234L61.9 231.9C63.4333 231.527 64.7067 231.027 65.72 230.4C66.7333 229.773 67.4933 229.053 68 228.24C68.5067 227.413 68.76 226.547 68.76 225.64V224.3ZM62.96 224.3H70.48V226.4H62.96V224.3ZM74.54 223.24H77.2V233.56H74.54V223.24ZM64.94 234.36H77.2V241.58H64.94V234.36ZM74.58 236.44H67.56V239.48H74.58V236.44ZM92.4184 223.22H95.0984V241.8H92.4184V223.22ZM94.0184 230.16H97.2784V232.36H94.0184V230.16ZM80.5784 235.06H81.5184C82.2251 235.06 82.8784 235.047 83.4784 235.02C84.0918 234.993 84.7451 234.913 85.4384 234.78L85.6384 236.94C84.9051 237.073 84.2184 237.16 83.5784 237.2C82.9518 237.227 82.2651 237.24 81.5184 237.24H80.5784V235.06ZM80.5784 225.1H85.3384V227.22H83.1984V236.06H80.5784V225.1ZM86.2784 235.06H87.2584C87.9651 235.06 88.5584 235.053 89.0384 235.04C89.5318 235.027 89.9718 235 90.3584 234.96C90.7451 234.907 91.1251 234.833 91.4984 234.74L91.7184 236.9C91.3051 237.007 90.8984 237.087 90.4984 237.14C90.1118 237.18 89.6584 237.207 89.1384 237.22C88.6318 237.233 88.0051 237.24 87.2584 237.24H86.2784V235.06ZM86.2784 225.1H91.2784V227.22H88.8984V236.1H86.2784V225.1ZM98.5969 232.18H115.357V234.28H98.5969V232.18ZM105.637 230H108.277V232.76H105.637V230ZM106.937 235.16C108.95 235.16 110.524 235.453 111.657 236.04C112.79 236.613 113.357 237.427 113.357 238.48C113.357 239.547 112.79 240.36 111.657 240.92C110.524 241.493 108.95 241.78 106.937 241.78C104.937 241.78 103.364 241.493 102.217 240.92C101.084 240.36 100.517 239.547 100.517 238.48C100.517 237.427 101.084 236.613 102.217 236.04C103.364 235.453 104.937 235.16 106.937 235.16ZM106.937 237.16C106.11 237.16 105.417 237.207 104.857 237.3C104.31 237.393 103.897 237.54 103.617 237.74C103.337 237.927 103.197 238.173 103.197 238.48C103.197 238.773 103.337 239.02 103.617 239.22C103.897 239.407 104.31 239.553 104.857 239.66C105.417 239.753 106.11 239.8 106.937 239.8C107.777 239.8 108.47 239.753 109.017 239.66C109.564 239.553 109.977 239.407 110.257 239.22C110.537 239.02 110.677 238.773 110.677 238.48C110.677 238.173 110.537 237.927 110.257 237.74C109.977 237.54 109.564 237.393 109.017 237.3C108.47 237.207 107.777 237.16 106.937 237.16ZM100.737 223.78H103.357V225.34H110.597V223.78H113.237V230.8H100.737V223.78ZM103.357 227.32V228.72H110.597V227.32H103.357ZM129.735 223.24H132.395V233.62H129.735V223.24ZM118.055 224.32H120.695V231.94H118.055V224.32ZM118.055 230.54H119.655C121.269 230.54 122.755 230.493 124.115 230.4C125.489 230.293 126.855 230.087 128.215 229.78L128.535 231.92C127.122 232.24 125.702 232.46 124.275 232.58C122.862 232.687 121.322 232.74 119.655 232.74H118.055V230.54ZM120.075 234.4H132.395V241.58H120.075V234.4ZM129.795 236.5H122.675V239.48H129.795V236.5ZM148.963 225.92H153.683V228.04H148.963V225.92ZM148.963 229.62H153.763V231.74H148.963V229.62ZM152.843 223.26H155.523V234.1H152.843V223.26ZM140.763 224.58H149.523V233.1H140.763V224.58ZM146.923 226.68H143.383V231.02H146.923V226.68ZM149.243 234.58C151.203 234.58 152.75 234.9 153.883 235.54C155.016 236.167 155.583 237.04 155.583 238.16C155.583 239.307 155.016 240.193 153.883 240.82C152.75 241.46 151.203 241.78 149.243 241.78C147.283 241.78 145.736 241.46 144.603 240.82C143.47 240.193 142.903 239.307 142.903 238.16C142.903 237.04 143.47 236.167 144.603 235.54C145.736 234.9 147.283 234.58 149.243 234.58ZM149.243 236.62C148.443 236.62 147.77 236.673 147.223 236.78C146.676 236.887 146.256 237.06 145.963 237.3C145.683 237.527 145.543 237.82 145.543 238.18C145.543 238.527 145.683 238.82 145.963 239.06C146.256 239.287 146.676 239.46 147.223 239.58C147.77 239.687 148.443 239.74 149.243 239.74C150.043 239.74 150.716 239.687 151.263 239.58C151.81 239.46 152.223 239.287 152.503 239.06C152.783 238.82 152.923 238.527 152.923 238.18C152.923 237.82 152.783 237.527 152.503 237.3C152.223 237.06 151.81 236.887 151.263 236.78C150.716 236.673 150.043 236.62 149.243 236.62ZM164.382 224.48C165.342 224.48 166.208 224.673 166.982 225.06C167.755 225.447 168.362 225.987 168.802 226.68C169.242 227.36 169.462 228.147 169.462 229.04C169.462 229.92 169.242 230.707 168.802 231.4C168.362 232.093 167.755 232.633 166.982 233.02C166.208 233.407 165.342 233.6 164.382 233.6C163.408 233.6 162.535 233.407 161.762 233.02C160.988 232.633 160.375 232.093 159.922 231.4C159.482 230.707 159.262 229.92 159.262 229.04C159.262 228.147 159.482 227.36 159.922 226.68C160.375 225.987 160.988 225.447 161.762 225.06C162.535 224.673 163.408 224.48 164.382 224.48ZM164.382 226.76C163.902 226.76 163.468 226.853 163.082 227.04C162.708 227.213 162.408 227.473 162.182 227.82C161.968 228.153 161.862 228.56 161.862 229.04C161.862 229.52 161.968 229.933 162.182 230.28C162.408 230.627 162.708 230.893 163.082 231.08C163.468 231.253 163.902 231.34 164.382 231.34C164.848 231.34 165.268 231.253 165.642 231.08C166.015 230.893 166.308 230.627 166.522 230.28C166.748 229.933 166.862 229.52 166.862 229.04C166.862 228.56 166.748 228.153 166.522 227.82C166.308 227.473 166.015 227.213 165.642 227.04C165.268 226.853 164.848 226.76 164.382 226.76ZM171.202 223.22H173.862V241.8H171.202V223.22ZM158.802 238.06L158.502 235.9C159.582 235.9 160.775 235.893 162.082 235.88C163.402 235.853 164.755 235.8 166.142 235.72C167.542 235.627 168.895 235.487 170.202 235.3L170.382 237.22C169.048 237.487 167.695 237.68 166.322 237.8C164.948 237.907 163.622 237.98 162.342 238.02C161.062 238.047 159.882 238.06 158.802 238.06ZM182.78 224.48C183.74 224.48 184.607 224.673 185.38 225.06C186.153 225.447 186.76 225.987 187.2 226.68C187.64 227.36 187.86 228.147 187.86 229.04C187.86 229.92 187.64 230.707 187.2 231.4C186.76 232.093 186.153 232.633 185.38 233.02C184.607 233.407 183.74 233.6 182.78 233.6C181.807 233.6 180.933 233.407 180.16 233.02C179.387 232.633 178.773 232.093 178.32 231.4C177.88 230.707 177.66 229.92 177.66 229.04C177.66 228.147 177.88 227.36 178.32 226.68C178.773 225.987 179.387 225.447 180.16 225.06C180.933 224.673 181.807 224.48 182.78 224.48ZM182.78 226.76C182.3 226.76 181.867 226.853 181.48 227.04C181.107 227.213 180.807 227.473 180.58 227.82C180.367 228.153 180.26 228.56 180.26 229.04C180.26 229.52 180.367 229.933 180.58 230.28C180.807 230.627 181.107 230.893 181.48 231.08C181.867 231.253 182.3 231.34 182.78 231.34C183.247 231.34 183.667 231.253 184.04 231.08C184.413 230.893 184.707 230.627 184.92 230.28C185.147 229.933 185.26 229.52 185.26 229.04C185.26 228.56 185.147 228.153 184.92 227.82C184.707 227.473 184.413 227.213 184.04 227.04C183.667 226.853 183.247 226.76 182.78 226.76ZM189.6 223.22H192.26V241.8H189.6V223.22ZM177.2 238.06L176.9 235.9C177.98 235.9 179.173 235.893 180.48 235.88C181.8 235.853 183.153 235.8 184.54 235.72C185.94 235.627 187.293 235.487 188.6 235.3L188.78 237.22C187.447 237.487 186.093 237.68 184.72 237.8C183.347 237.907 182.02 237.98 180.74 238.02C179.46 238.047 178.28 238.06 177.2 238.06ZM63.88 254.08H75.6V256.18H63.88V254.08ZM61.82 260.74H78.6V262.84H61.82V260.74ZM74 254.08H76.62V255.56C76.62 256.347 76.6 257.193 76.56 258.1C76.52 259.007 76.36 260.06 76.08 261.26L73.42 261.24C73.7133 260.027 73.88 258.973 73.92 258.08C73.9733 257.187 74 256.347 74 255.56V254.08ZM63.78 264.78H76.54V271.58H63.78V264.78ZM73.94 266.86H66.4V269.48H73.94V266.86ZM83.9184 262.8H86.5784V266.44H83.9184V262.8ZM90.5984 262.8H93.2584V266.44H90.5984V262.8ZM80.1984 261.56H96.9584V263.66H80.1984V261.56ZM88.5384 265.02C90.5384 265.02 92.1118 265.313 93.2584 265.9C94.4051 266.487 94.9784 267.32 94.9784 268.4C94.9784 269.493 94.4051 270.333 93.2584 270.92C92.1118 271.507 90.5384 271.8 88.5384 271.8C86.5384 271.8 84.9651 271.507 83.8184 270.92C82.6851 270.333 82.1184 269.493 82.1184 268.4C82.1184 267.32 82.6851 266.487 83.8184 265.9C84.9651 265.313 86.5384 265.02 88.5384 265.02ZM88.5384 267.02C87.7118 267.02 87.0184 267.073 86.4584 267.18C85.9118 267.287 85.4984 267.44 85.2184 267.64C84.9384 267.84 84.7984 268.093 84.7984 268.4C84.7984 268.72 84.9384 268.987 85.2184 269.2C85.4984 269.4 85.9118 269.547 86.4584 269.64C87.0184 269.733 87.7118 269.78 88.5384 269.78C89.3651 269.78 90.0518 269.733 90.5984 269.64C91.1584 269.547 91.5784 269.4 91.8584 269.2C92.1384 268.987 92.2784 268.72 92.2784 268.4C92.2784 268.093 92.1384 267.84 91.8584 267.64C91.5784 267.44 91.1584 267.287 90.5984 267.18C90.0518 267.073 89.3651 267.02 88.5384 267.02ZM88.5984 253.56C89.9584 253.56 91.1384 253.707 92.1384 254C93.1518 254.28 93.9318 254.687 94.4784 255.22C95.0251 255.753 95.2984 256.387 95.2984 257.12C95.2984 257.853 95.0251 258.487 94.4784 259.02C93.9318 259.553 93.1518 259.967 92.1384 260.26C91.1384 260.54 89.9584 260.68 88.5984 260.68C87.2384 260.68 86.0518 260.54 85.0384 260.26C84.0251 259.967 83.2451 259.553 82.6984 259.02C82.1518 258.487 81.8784 257.853 81.8784 257.12C81.8784 256.387 82.1518 255.753 82.6984 255.22C83.2451 254.687 84.0251 254.28 85.0384 254C86.0518 253.707 87.2384 253.56 88.5984 253.56ZM88.5984 255.58C87.7584 255.58 87.0384 255.64 86.4384 255.76C85.8384 255.867 85.3851 256.033 85.0784 256.26C84.7851 256.487 84.6384 256.773 84.6384 257.12C84.6384 257.467 84.7851 257.753 85.0784 257.98C85.3851 258.207 85.8384 258.38 86.4384 258.5C87.0384 258.607 87.7584 258.66 88.5984 258.66C89.4384 258.66 90.1518 258.607 90.7384 258.5C91.3251 258.38 91.7718 258.207 92.0784 257.98C92.3851 257.753 92.5384 257.467 92.5384 257.12C92.5384 256.773 92.3851 256.487 92.0784 256.26C91.7718 256.033 91.3251 255.867 90.7384 255.76C90.1518 255.64 89.4384 255.58 88.5984 255.58ZM111.377 253.24H114.037V271.76H111.377V253.24ZM105.917 255.16H108.537C108.537 256.573 108.397 257.927 108.117 259.22C107.85 260.5 107.397 261.707 106.757 262.84C106.13 263.973 105.264 265.027 104.157 266C103.064 266.96 101.697 267.84 100.057 268.64L98.6569 266.54C100.444 265.673 101.864 264.72 102.917 263.68C103.984 262.627 104.75 261.44 105.217 260.12C105.684 258.787 105.917 257.293 105.917 255.64V255.16ZM99.6569 255.16H107.157V257.28H99.6569V255.16ZM117.835 254.6H125.755V256.72H117.835V254.6ZM120.115 258.92H122.735V263.54H120.115V258.92ZM124.715 254.6H127.335V255.76C127.335 256.413 127.315 257.193 127.275 258.1C127.249 258.993 127.122 260.027 126.895 261.2L124.315 260.9C124.515 259.767 124.629 258.787 124.655 257.96C124.695 257.133 124.715 256.4 124.715 255.76V254.6ZM129.115 253.24H131.795V267.1H129.115V253.24ZM130.735 258.9H134.015V261.08H130.735V258.9ZM119.435 269.32H132.395V271.46H119.435V269.32ZM119.435 265.88H122.115V269.98H119.435V265.88ZM116.975 264.64L116.735 262.52C117.802 262.52 118.982 262.513 120.275 262.5C121.569 262.473 122.889 262.42 124.235 262.34C125.582 262.247 126.875 262.113 128.115 261.94L128.295 263.84C127.015 264.067 125.709 264.24 124.375 264.36C123.042 264.467 121.742 264.54 120.475 264.58C119.209 264.607 118.042 264.627 116.975 264.64ZM147.163 258.14H150.903V260.24H147.163V258.14ZM147.063 262.76H150.843V264.88H147.063V262.76ZM153.423 253.24H155.963V271.76H153.423V253.24ZM149.623 253.64H152.103V270.94H149.623V253.64ZM145.443 255.42H147.983C147.983 257.18 147.776 258.82 147.363 260.34C146.963 261.847 146.27 263.233 145.283 264.5C144.31 265.767 142.963 266.907 141.243 267.92L139.743 266.06C141.143 265.22 142.256 264.307 143.083 263.32C143.923 262.32 144.523 261.22 144.883 260.02C145.256 258.807 145.443 257.453 145.443 255.96V255.42ZM140.803 255.42H146.323V257.56H140.803V255.42ZM162.602 255.44H164.762V256.46C164.762 257.567 164.575 258.607 164.202 259.58C163.828 260.553 163.255 261.407 162.482 262.14C161.722 262.86 160.755 263.393 159.582 263.74L158.282 261.66C159.295 261.367 160.115 260.953 160.742 260.42C161.382 259.873 161.848 259.26 162.142 258.58C162.448 257.9 162.602 257.193 162.602 256.46V255.44ZM163.142 255.44H165.302V256.46C165.302 257.127 165.448 257.78 165.742 258.42C166.035 259.06 166.495 259.633 167.122 260.14C167.748 260.647 168.548 261.047 169.522 261.34L168.262 263.38C167.115 263.047 166.162 262.54 165.402 261.86C164.642 261.167 164.075 260.36 163.702 259.44C163.328 258.507 163.142 257.513 163.142 256.46V255.44ZM158.962 254.7H168.962V256.86H158.962V254.7ZM162.642 262.92H165.282V266.92H162.642V262.92ZM172.222 260.56H175.482V262.76H172.222V260.56ZM170.382 253.24H173.042V271.76H170.382V253.24ZM158.522 268.26L158.222 266.1C159.275 266.1 160.435 266.1 161.702 266.1C162.968 266.087 164.262 266.047 165.582 265.98C166.902 265.9 168.182 265.78 169.422 265.62L169.622 267.54C168.328 267.78 167.028 267.953 165.722 268.06C164.415 268.153 163.148 268.213 161.922 268.24C160.695 268.253 159.562 268.26 158.522 268.26ZM176.82 261.56H193.58V263.48H176.82V261.56ZM178.7 264.42H191.6V268.82H181.36V270.4H178.72V267.14H188.98V266.22H178.7V264.42ZM178.72 269.82H192.12V271.62H178.72V269.82ZM178.86 253.56H191.54V257.94H181.52V259.44H178.9V256.26H188.92V255.36H178.86V253.56ZM178.9 258.9H191.88V260.7H178.9V258.9ZM212.548 253.26H215.208V266.56H212.548V253.26ZM202.868 269.32H215.688V271.46H202.868V269.32ZM202.868 265.24H205.528V270.2H202.868V265.24ZM205.128 254.44C206.074 254.44 206.928 254.64 207.688 255.04C208.448 255.44 209.048 255.993 209.488 256.7C209.941 257.407 210.168 258.22 210.168 259.14C210.168 260.033 209.941 260.84 209.488 261.56C209.048 262.267 208.448 262.827 207.688 263.24C206.928 263.64 206.074 263.84 205.128 263.84C204.181 263.84 203.328 263.64 202.568 263.24C201.808 262.827 201.201 262.267 200.748 261.56C200.308 260.84 200.088 260.033 200.088 259.14C200.088 258.22 200.308 257.407 200.748 256.7C201.201 255.993 201.808 255.44 202.568 255.04C203.328 254.64 204.181 254.44 205.128 254.44ZM205.128 256.72C204.674 256.72 204.261 256.82 203.888 257.02C203.514 257.207 203.221 257.48 203.008 257.84C202.794 258.187 202.688 258.62 202.688 259.14C202.688 259.633 202.794 260.06 203.008 260.42C203.221 260.767 203.514 261.04 203.888 261.24C204.261 261.427 204.674 261.52 205.128 261.52C205.581 261.52 205.994 261.427 206.368 261.24C206.741 261.04 207.034 260.767 207.248 260.42C207.461 260.06 207.568 259.633 207.568 259.14C207.568 258.62 207.461 258.187 207.248 257.84C207.034 257.48 206.741 257.207 206.368 257.02C205.994 256.82 205.581 256.72 205.128 256.72ZM218.206 261.8H234.966V263.9H218.206V261.8ZM226.546 264.92C228.546 264.92 230.12 265.22 231.266 265.82C232.413 266.42 232.986 267.26 232.986 268.34C232.986 269.433 232.413 270.28 231.266 270.88C230.12 271.48 228.546 271.78 226.546 271.78C224.546 271.78 222.973 271.48 221.826 270.88C220.693 270.28 220.126 269.433 220.126 268.34C220.126 267.26 220.693 266.42 221.826 265.82C222.973 265.22 224.546 264.92 226.546 264.92ZM226.546 266.96C225.72 266.96 225.026 267.013 224.466 267.12C223.92 267.213 223.506 267.36 223.226 267.56C222.946 267.76 222.806 268.02 222.806 268.34C222.806 268.66 222.946 268.927 223.226 269.14C223.506 269.34 223.92 269.487 224.466 269.58C225.026 269.673 225.72 269.72 226.546 269.72C227.373 269.72 228.06 269.673 228.606 269.58C229.166 269.487 229.586 269.34 229.866 269.14C230.146 268.927 230.286 268.66 230.286 268.34C230.286 268.02 230.146 267.76 229.866 267.56C229.586 267.36 229.166 267.213 228.606 267.12C228.06 267.013 227.373 266.96 226.546 266.96ZM224.766 255.16H227.126V255.6C227.126 256.147 227.026 256.68 226.826 257.2C226.626 257.707 226.326 258.18 225.926 258.62C225.54 259.047 225.053 259.433 224.466 259.78C223.88 260.113 223.2 260.393 222.426 260.62C221.653 260.847 220.793 261.007 219.846 261.1L218.926 259.02C219.74 258.953 220.46 258.84 221.086 258.68C221.726 258.507 222.273 258.307 222.726 258.08C223.193 257.84 223.573 257.587 223.866 257.32C224.173 257.053 224.4 256.773 224.546 256.48C224.693 256.173 224.766 255.88 224.766 255.6V255.16ZM226.066 255.16H228.406V255.6C228.406 255.893 228.48 256.187 228.626 256.48C228.773 256.773 228.993 257.06 229.286 257.34C229.593 257.607 229.973 257.86 230.426 258.1C230.893 258.327 231.44 258.52 232.066 258.68C232.706 258.84 233.433 258.953 234.246 259.02L233.326 261.1C232.38 261.007 231.52 260.853 230.746 260.64C229.973 260.413 229.293 260.127 228.706 259.78C228.133 259.433 227.646 259.047 227.246 258.62C226.86 258.18 226.566 257.707 226.366 257.2C226.166 256.693 226.066 256.16 226.066 255.6V255.16ZM219.746 254.12H233.466V256.22H219.746V254.12ZM236.605 256.04H245.465V258.14H236.605V256.04ZM241.065 258.98C241.851 258.98 242.545 259.167 243.145 259.54C243.758 259.913 244.238 260.433 244.585 261.1C244.945 261.753 245.125 262.513 245.125 263.38C245.125 264.247 244.945 265.013 244.585 265.68C244.238 266.333 243.758 266.847 243.145 267.22C242.545 267.593 241.851 267.78 241.065 267.78C240.278 267.78 239.578 267.593 238.965 267.22C238.351 266.847 237.871 266.333 237.525 265.68C237.178 265.013 237.005 264.247 237.005 263.38C237.005 262.513 237.178 261.753 237.525 261.1C237.871 260.433 238.351 259.913 238.965 259.54C239.591 259.167 240.291 258.98 241.065 258.98ZM241.065 261.18C240.745 261.18 240.451 261.267 240.185 261.44C239.918 261.613 239.711 261.867 239.565 262.2C239.418 262.52 239.345 262.913 239.345 263.38C239.345 263.847 239.418 264.247 239.565 264.58C239.711 264.913 239.918 265.167 240.185 265.34C240.451 265.5 240.745 265.58 241.065 265.58C241.398 265.58 241.691 265.5 241.945 265.34C242.198 265.167 242.398 264.913 242.545 264.58C242.691 264.247 242.765 263.847 242.765 263.38C242.765 262.913 242.691 262.52 242.545 262.2C242.398 261.867 242.198 261.613 241.945 261.44C241.691 261.267 241.398 261.18 241.065 261.18ZM250.005 253.24H252.525V271.76H250.005V253.24ZM247.785 260.78H250.825V262.92H247.785V260.78ZM246.105 253.58H248.585V270.98H246.105V253.58ZM239.765 253.74H242.385V257.36H239.765V253.74ZM261.863 255.3H264.183V255.86C264.183 256.5 264.076 257.12 263.863 257.72C263.663 258.32 263.356 258.88 262.943 259.4C262.53 259.907 262.023 260.367 261.423 260.78C260.836 261.18 260.156 261.52 259.383 261.8C258.61 262.08 257.75 262.28 256.803 262.4L255.823 260.34C256.65 260.233 257.383 260.073 258.023 259.86C258.676 259.633 259.243 259.373 259.723 259.08C260.203 258.773 260.603 258.447 260.923 258.1C261.243 257.753 261.476 257.387 261.623 257C261.783 256.613 261.863 256.233 261.863 255.86V255.3ZM262.643 255.3H264.943V255.86C264.943 256.233 265.016 256.613 265.163 257C265.323 257.387 265.563 257.753 265.883 258.1C266.203 258.447 266.603 258.773 267.083 259.08C267.576 259.373 268.143 259.633 268.783 259.86C269.423 260.073 270.156 260.233 270.983 260.34L270.003 262.4C269.056 262.28 268.196 262.08 267.423 261.8C266.65 261.52 265.963 261.18 265.363 260.78C264.776 260.367 264.276 259.907 263.863 259.4C263.463 258.88 263.156 258.32 262.943 257.72C262.743 257.12 262.643 256.5 262.643 255.86V255.3ZM262.003 265H264.663V271.78H262.003V265ZM255.023 263.46H271.783V265.6H255.023V263.46ZM256.503 254.2H270.243V256.3H256.503V254.2ZM280.702 259.48H283.782V261.64H280.702V259.48ZM276.762 254.86H278.782V257.96C278.782 259.013 278.708 260.047 278.562 261.06C278.415 262.073 278.175 263.027 277.842 263.92C277.522 264.813 277.095 265.62 276.562 266.34C276.042 267.047 275.408 267.627 274.662 268.08L273.062 266.08C273.755 265.667 274.335 265.16 274.802 264.56C275.268 263.96 275.648 263.3 275.942 262.58C276.235 261.86 276.442 261.113 276.562 260.34C276.695 259.553 276.762 258.76 276.762 257.96V254.86ZM277.342 254.86H279.322V257.84C279.322 258.6 279.375 259.353 279.482 260.1C279.602 260.847 279.788 261.56 280.042 262.24C280.295 262.92 280.628 263.547 281.042 264.12C281.468 264.693 282.002 265.187 282.642 265.6L281.182 267.68C280.462 267.227 279.848 266.653 279.342 265.96C278.848 265.253 278.455 264.46 278.162 263.58C277.868 262.7 277.655 261.773 277.522 260.8C277.402 259.827 277.342 258.84 277.342 257.84V254.86ZM286.782 253.24H289.322V271.76H286.782V253.24ZM283.022 253.54H285.502V270.94H283.022V253.54ZM295.5 262.66H298.16V267.84H295.5V262.66ZM302.22 262.66H304.88V267.84H302.22V262.66ZM291.82 267.46H308.6V269.62H291.82V267.46ZM300.18 254.16C301.513 254.16 302.7 254.367 303.74 254.78C304.793 255.193 305.613 255.773 306.2 256.52C306.8 257.253 307.1 258.127 307.1 259.14C307.1 260.14 306.8 261.013 306.2 261.76C305.613 262.493 304.793 263.067 303.74 263.48C302.7 263.893 301.513 264.1 300.18 264.1C298.86 264.1 297.673 263.893 296.62 263.48C295.58 263.067 294.76 262.493 294.16 261.76C293.56 261.013 293.26 260.14 293.26 259.14C293.26 258.127 293.56 257.253 294.16 256.52C294.76 255.773 295.58 255.193 296.62 254.78C297.673 254.367 298.86 254.16 300.18 254.16ZM300.18 256.22C299.327 256.22 298.573 256.34 297.92 256.58C297.28 256.807 296.78 257.133 296.42 257.56C296.06 257.987 295.88 258.513 295.88 259.14C295.88 259.74 296.06 260.26 296.42 260.7C296.78 261.127 297.28 261.46 297.92 261.7C298.573 261.927 299.327 262.04 300.18 262.04C301.047 262.04 301.8 261.927 302.44 261.7C303.093 261.46 303.593 261.127 303.94 260.7C304.3 260.26 304.48 259.74 304.48 259.14C304.48 258.513 304.3 257.987 303.94 257.56C303.593 257.133 303.093 256.807 302.44 256.58C301.8 256.34 301.047 256.22 300.18 256.22ZM310.639 268.604C310.639 268.174 310.782 267.816 311.068 267.529C311.355 267.236 311.742 267.09 312.23 267.09C312.719 267.09 313.106 267.236 313.393 267.529C313.679 267.816 313.822 268.174 313.822 268.604C313.822 269.033 313.679 269.391 313.393 269.678C313.106 269.964 312.719 270.107 312.23 270.107C311.742 270.107 311.355 269.964 311.068 269.678C310.782 269.391 310.639 269.033 310.639 268.604Z" fill="black"/>
<path d="M27.416 12.0469V12.7578L23.2939 22H21.9609L26.0762 13.0859H20.6895V12.0469H27.416ZM28.9404 21.3301C28.9404 21.1159 29.0065 20.9359 29.1387 20.79C29.2754 20.6396 29.4714 20.5645 29.7266 20.5645C29.9818 20.5645 30.1755 20.6396 30.3076 20.79C30.4443 20.9359 30.5127 21.1159 30.5127 21.3301C30.5127 21.5397 30.4443 21.7174 30.3076 21.8633C30.1755 22.0091 29.9818 22.082 29.7266 22.082C29.4714 22.082 29.2754 22.0091 29.1387 21.8633C29.0065 21.7174 28.9404 21.5397 28.9404 21.3301ZM28.9473 15.2939C28.9473 15.0798 29.0133 14.8997 29.1455 14.7539C29.2822 14.6035 29.4782 14.5283 29.7334 14.5283C29.9886 14.5283 30.1823 14.6035 30.3145 14.7539C30.4512 14.8997 30.5195 15.0798 30.5195 15.2939C30.5195 15.5036 30.4512 15.6813 30.3145 15.8271C30.1823 15.973 29.9886 16.0459 29.7334 16.0459C29.4782 16.0459 29.2822 15.973 29.1455 15.8271C29.0133 15.6813 28.9473 15.5036 28.9473 15.2939ZM34.0947 16.4014H34.9971C35.4391 16.4014 35.8037 16.3285 36.0908 16.1826C36.3825 16.0322 36.599 15.8294 36.7402 15.5742C36.8861 15.3145 36.959 15.0228 36.959 14.6992C36.959 14.3164 36.8952 13.9951 36.7676 13.7354C36.64 13.4756 36.4486 13.2796 36.1934 13.1475C35.9382 13.0153 35.6146 12.9492 35.2227 12.9492C34.8672 12.9492 34.5527 13.0199 34.2793 13.1611C34.0104 13.2979 33.7985 13.4938 33.6436 13.749C33.4932 14.0042 33.418 14.305 33.418 14.6514H32.1533C32.1533 14.1455 32.2809 13.6852 32.5361 13.2705C32.7913 12.8558 33.1491 12.5254 33.6094 12.2793C34.0742 12.0332 34.612 11.9102 35.2227 11.9102C35.8242 11.9102 36.3506 12.0173 36.8018 12.2314C37.2529 12.4411 37.6038 12.7555 37.8545 13.1748C38.1051 13.5895 38.2305 14.1068 38.2305 14.7266C38.2305 14.9772 38.1712 15.2461 38.0527 15.5332C37.9388 15.8158 37.7588 16.0801 37.5127 16.3262C37.2712 16.5723 36.9567 16.7751 36.5693 16.9346C36.182 17.0895 35.7171 17.167 35.1748 17.167H34.0947V16.4014ZM34.0947 17.4404V16.6816H35.1748C35.8083 16.6816 36.3324 16.7568 36.7471 16.9072C37.1618 17.0576 37.4876 17.2581 37.7246 17.5088C37.9661 17.7594 38.1348 18.0352 38.2305 18.3359C38.3307 18.6322 38.3809 18.9284 38.3809 19.2246C38.3809 19.6895 38.3011 20.1019 38.1416 20.4619C37.9867 20.8219 37.7656 21.1273 37.4785 21.3779C37.196 21.6286 36.8633 21.8177 36.4805 21.9453C36.0977 22.0729 35.6807 22.1367 35.2295 22.1367C34.7965 22.1367 34.3887 22.0752 34.0059 21.9521C33.6276 21.8291 33.2926 21.6514 33.001 21.4189C32.7093 21.182 32.4814 20.8926 32.3174 20.5508C32.1533 20.2044 32.0713 19.8102 32.0713 19.3682H33.3359C33.3359 19.7145 33.4111 20.0176 33.5615 20.2773C33.7165 20.5371 33.9352 20.7399 34.2178 20.8857C34.5049 21.027 34.8421 21.0977 35.2295 21.0977C35.6169 21.0977 35.9495 21.0316 36.2275 20.8994C36.5101 20.7627 36.7266 20.5576 36.877 20.2842C37.0319 20.0107 37.1094 19.6667 37.1094 19.252C37.1094 18.8372 37.0228 18.4977 36.8496 18.2334C36.6764 17.9645 36.4303 17.7663 36.1113 17.6387C35.7969 17.5065 35.4255 17.4404 34.9971 17.4404H34.0947ZM46.3721 16.2305V17.748C46.3721 18.5638 46.2992 19.252 46.1533 19.8125C46.0075 20.373 45.7979 20.8242 45.5244 21.166C45.251 21.5078 44.9206 21.7562 44.5332 21.9111C44.1504 22.0615 43.7174 22.1367 43.2344 22.1367C42.8516 22.1367 42.4984 22.0889 42.1748 21.9932C41.8512 21.8975 41.5596 21.7448 41.2998 21.5352C41.0446 21.321 40.8258 21.043 40.6436 20.7012C40.4613 20.3594 40.3223 19.9447 40.2266 19.457C40.1309 18.9694 40.083 18.3997 40.083 17.748V16.2305C40.083 15.4147 40.1559 14.7311 40.3018 14.1797C40.4521 13.6283 40.6641 13.1862 40.9375 12.8535C41.2109 12.5163 41.5391 12.2747 41.9219 12.1289C42.3092 11.9831 42.7422 11.9102 43.2207 11.9102C43.6081 11.9102 43.9635 11.958 44.2871 12.0537C44.6152 12.1449 44.9069 12.293 45.1621 12.498C45.4173 12.6986 45.6338 12.9674 45.8115 13.3047C45.9938 13.6374 46.1328 14.0452 46.2285 14.5283C46.3242 15.0114 46.3721 15.5788 46.3721 16.2305ZM45.1006 17.9531V16.0186C45.1006 15.5719 45.0732 15.18 45.0186 14.8428C44.9684 14.501 44.8932 14.2093 44.793 13.9678C44.6927 13.7262 44.5651 13.5303 44.4102 13.3799C44.2598 13.2295 44.0843 13.1201 43.8838 13.0518C43.6878 12.9788 43.4668 12.9424 43.2207 12.9424C42.9199 12.9424 42.6533 12.9993 42.4209 13.1133C42.1885 13.2227 41.9925 13.3981 41.833 13.6396C41.6781 13.8812 41.5596 14.1979 41.4775 14.5898C41.3955 14.9818 41.3545 15.458 41.3545 16.0186V17.9531C41.3545 18.3997 41.3796 18.7939 41.4297 19.1357C41.4844 19.4775 41.5641 19.7738 41.6689 20.0244C41.7738 20.2705 41.9014 20.4733 42.0518 20.6328C42.2021 20.7923 42.3753 20.9108 42.5713 20.9883C42.7718 21.0612 42.9928 21.0977 43.2344 21.0977C43.5443 21.0977 43.8154 21.0384 44.0479 20.9199C44.2803 20.8014 44.474 20.6169 44.6289 20.3662C44.7884 20.111 44.9069 19.7852 44.9844 19.3887C45.0618 18.9876 45.1006 18.5091 45.1006 17.9531ZM55.4844 12.9287L52.1895 22H50.8428L54.6367 12.0469H55.5049L55.4844 12.9287ZM58.2461 22L54.9443 12.9287L54.9238 12.0469H55.792L59.5996 22H58.2461ZM58.0752 18.3154V19.3955H52.4834V18.3154H58.0752ZM61.3496 12.0469H62.6279L65.8887 20.1611L69.1426 12.0469H70.4277L66.3809 22H65.3828L61.3496 12.0469ZM60.9326 12.0469H62.0605L62.2451 18.1172V22H60.9326V12.0469ZM69.71 12.0469H70.8379V22H69.5254V18.1172L69.71 12.0469Z" fill="#0C0C0C"/>
<path d="M322.792 12.9478L324.375 14.5311C328.309 10.5966 334.69 10.5966 338.625 14.5311L340.208 12.9478C335.403 8.1424 327.605 8.1424 322.792 12.9478ZM329.125 19.2811L331.5 21.6561L333.875 19.2811C332.569 17.967 330.439 17.967 329.125 19.2811ZM325.958 16.1145L327.542 17.6978C329.727 15.5128 333.273 15.5128 335.458 17.6978L337.042 16.1145C333.986 13.0586 329.022 13.0586 325.958 16.1145Z" fill="#0C0C0C"/>
<path d="M362.75 9.3335H365.25V22.6668H362.75V9.3335ZM352.75 17.6668H355.25V22.6668H352.75V17.6668ZM357.75 13.5002H360.25V22.6668H357.75V13.5002Z" fill="#0C0C0C"/>
<path d="M391.362 9.55847L391.1 24.4572L382.823 24.3114L383.085 9.41273L385.568 9.45645L385.597 7.80104L388.908 7.85934L388.879 9.51475L391.362 9.55847ZM389.678 11.1847L384.711 11.0973L384.653 14.4081L389.619 14.4956L389.678 11.1847Z" fill="#0C0C0C"/>
<rect x="48" y="769" width="317" height="50" rx="8" fill="#2383BD"/>
<path d="M135.965 788.98H139.965V790.34H135.965V788.98ZM135.825 793.52H139.925V794.88H135.825V793.52ZM142.725 783.96H144.325V802.06H142.725V783.96ZM139.085 784.44H140.665V801.14H139.085V784.44ZM135.065 786.26H136.665C136.665 787.833 136.439 789.347 135.985 790.8C135.532 792.24 134.805 793.587 133.805 794.84C132.819 796.08 131.519 797.187 129.905 798.16L128.925 796.96C130.339 796.107 131.499 795.147 132.405 794.08C133.312 793 133.979 791.833 134.405 790.58C134.845 789.313 135.065 787.973 135.065 786.56V786.26ZM129.725 786.26H135.705V787.62H129.725V786.26ZM151.984 786.14H153.344V787.2C153.344 788.253 153.13 789.233 152.704 790.14C152.277 791.033 151.684 791.807 150.924 792.46C150.164 793.113 149.277 793.607 148.264 793.94L147.424 792.64C148.33 792.347 149.124 791.933 149.804 791.4C150.484 790.853 151.017 790.22 151.404 789.5C151.79 788.78 151.984 788.013 151.984 787.2V786.14ZM152.304 786.14H153.664V787.2C153.664 787.96 153.844 788.68 154.204 789.36C154.577 790.04 155.097 790.64 155.764 791.16C156.444 791.667 157.224 792.06 158.104 792.34L157.304 793.64C156.304 793.32 155.43 792.847 154.684 792.22C153.937 791.593 153.35 790.853 152.924 790C152.51 789.133 152.304 788.2 152.304 787.2V786.14ZM147.964 785.64H157.664V787.02H147.964V785.64ZM152.004 793.2H153.664V797.4H152.004V793.2ZM160.764 791.46H164.104V792.88H160.764V791.46ZM159.584 783.96H161.224V802.06H159.584V783.96ZM147.364 798.28L147.124 796.9C148.19 796.9 149.364 796.893 150.644 796.88C151.924 796.853 153.23 796.807 154.564 796.74C155.91 796.66 157.204 796.533 158.444 796.36L158.564 797.58C157.284 797.807 155.977 797.973 154.644 798.08C153.324 798.173 152.037 798.233 150.784 798.26C149.544 798.273 148.404 798.28 147.364 798.28ZM183.863 783.98H185.523V797.18H183.863V783.98ZM173.903 800.3H186.083V801.66H173.903V800.3ZM173.903 795.84H175.563V800.76H173.903V795.84ZM175.823 785.24C176.73 785.24 177.536 785.427 178.243 785.8C178.95 786.173 179.51 786.7 179.923 787.38C180.336 788.047 180.543 788.813 180.543 789.68C180.543 790.547 180.336 791.32 179.923 792C179.51 792.667 178.95 793.193 178.243 793.58C177.536 793.953 176.73 794.14 175.823 794.14C174.93 794.14 174.123 793.953 173.403 793.58C172.696 793.193 172.136 792.667 171.723 792C171.31 791.32 171.103 790.547 171.103 789.68C171.103 788.813 171.31 788.047 171.723 787.38C172.136 786.7 172.696 786.173 173.403 785.8C174.123 785.427 174.93 785.24 175.823 785.24ZM175.823 786.68C175.236 786.68 174.71 786.807 174.243 787.06C173.776 787.313 173.403 787.667 173.123 788.12C172.856 788.573 172.723 789.093 172.723 789.68C172.723 790.28 172.856 790.807 173.123 791.26C173.403 791.7 173.776 792.047 174.243 792.3C174.71 792.553 175.236 792.68 175.823 792.68C176.41 792.68 176.936 792.553 177.403 792.3C177.883 792.047 178.256 791.7 178.523 791.26C178.79 790.807 178.923 790.28 178.923 789.68C178.923 789.093 178.79 788.573 178.523 788.12C178.256 787.667 177.883 787.313 177.403 787.06C176.936 786.807 176.41 786.68 175.823 786.68ZM189.102 792.56H205.442V793.92H189.102V792.56ZM197.262 795.48C199.195 795.48 200.708 795.767 201.802 796.34C202.895 796.913 203.442 797.72 203.442 798.76C203.442 799.8 202.895 800.6 201.802 801.16C200.708 801.733 199.195 802.02 197.262 802.02C195.328 802.02 193.808 801.733 192.702 801.16C191.608 800.6 191.062 799.8 191.062 798.76C191.062 797.72 191.608 796.913 192.702 796.34C193.808 795.767 195.328 795.48 197.262 795.48ZM197.262 796.8C196.315 796.8 195.502 796.873 194.822 797.02C194.155 797.167 193.642 797.387 193.282 797.68C192.922 797.973 192.742 798.333 192.742 798.76C192.742 799.173 192.922 799.527 193.282 799.82C193.642 800.1 194.155 800.32 194.822 800.48C195.502 800.627 196.315 800.7 197.262 800.7C198.208 800.7 199.015 800.627 199.682 800.48C200.362 800.32 200.882 800.1 201.242 799.82C201.602 799.527 201.782 799.173 201.782 798.76C201.782 798.333 201.602 797.973 201.242 797.68C200.882 797.387 200.362 797.167 199.682 797.02C199.015 796.873 198.208 796.8 197.262 796.8ZM196.202 785.6H197.662V786.14C197.662 786.727 197.535 787.273 197.282 787.78C197.042 788.273 196.702 788.727 196.262 789.14C195.822 789.553 195.302 789.92 194.702 790.24C194.115 790.56 193.475 790.827 192.782 791.04C192.088 791.24 191.362 791.387 190.602 791.48L190.002 790.16C190.655 790.093 191.282 789.973 191.882 789.8C192.495 789.627 193.062 789.42 193.582 789.18C194.115 788.927 194.575 788.647 194.962 788.34C195.348 788.02 195.648 787.68 195.862 787.32C196.088 786.947 196.202 786.553 196.202 786.14V785.6ZM196.882 785.6H198.342V786.14C198.342 786.553 198.448 786.947 198.662 787.32C198.888 787.68 199.195 788.02 199.582 788.34C199.968 788.66 200.422 788.947 200.942 789.2C201.475 789.44 202.042 789.647 202.642 789.82C203.255 789.98 203.888 790.093 204.542 790.16L203.942 791.48C203.182 791.387 202.455 791.24 201.762 791.04C201.068 790.827 200.422 790.56 199.822 790.24C199.235 789.92 198.722 789.553 198.282 789.14C197.842 788.727 197.495 788.267 197.242 787.76C197.002 787.253 196.882 786.713 196.882 786.14V785.6ZM190.602 784.88H203.962V786.24H190.602V784.88ZM216.481 793.28H218.121V798.68H216.481V793.28ZM223.161 793.28H224.821V798.68H223.161V793.28ZM212.461 798.36H228.861V799.74H212.461V798.36ZM220.621 785.1C221.901 785.1 223.034 785.293 224.021 785.68C225.008 786.067 225.781 786.607 226.341 787.3C226.914 787.993 227.201 788.813 227.201 789.76C227.201 790.693 226.914 791.513 226.341 792.22C225.781 792.913 225.008 793.453 224.021 793.84C223.034 794.213 221.901 794.4 220.621 794.4C219.354 794.4 218.221 794.213 217.221 793.84C216.234 793.453 215.461 792.913 214.901 792.22C214.341 791.513 214.061 790.693 214.061 789.76C214.061 788.813 214.341 787.993 214.901 787.3C215.461 786.607 216.234 786.067 217.221 785.68C218.221 785.293 219.354 785.1 220.621 785.1ZM220.621 786.42C219.661 786.42 218.808 786.56 218.061 786.84C217.314 787.12 216.728 787.513 216.301 788.02C215.874 788.513 215.661 789.093 215.661 789.76C215.661 790.427 215.874 791.013 216.301 791.52C216.728 792.013 217.314 792.4 218.061 792.68C218.808 792.96 219.661 793.1 220.621 793.1C221.594 793.1 222.454 792.96 223.201 792.68C223.948 792.4 224.534 792.013 224.961 791.52C225.388 791.013 225.601 790.427 225.601 789.76C225.601 789.093 225.388 788.513 224.961 788.02C224.534 787.513 223.948 787.12 223.201 786.84C222.454 786.56 221.594 786.42 220.621 786.42ZM235.379 787.06H236.719V787.82C236.719 788.873 236.513 789.853 236.099 790.76C235.686 791.653 235.099 792.44 234.339 793.12C233.593 793.787 232.713 794.293 231.699 794.64L230.899 793.34C231.793 793.047 232.573 792.627 233.239 792.08C233.906 791.52 234.426 790.873 234.799 790.14C235.186 789.407 235.379 788.633 235.379 787.82V787.06ZM235.659 787.06H237.019V787.82C237.019 788.38 237.126 788.92 237.339 789.44C237.566 789.96 237.879 790.447 238.279 790.9C238.679 791.34 239.159 791.727 239.719 792.06C240.279 792.393 240.893 792.66 241.559 792.86L240.779 794.16C239.766 793.853 238.873 793.393 238.099 792.78C237.339 792.153 236.739 791.42 236.299 790.58C235.873 789.727 235.659 788.807 235.659 787.82V787.06ZM231.359 786.14H241.019V787.48H231.359V786.14ZM235.379 783.88H237.039V786.62H235.379V783.88ZM240.459 789.12H244.539V790.48H240.459V789.12ZM244.079 783.96H245.739V794.92H244.079V783.96ZM239.779 795.4C241.659 795.4 243.133 795.693 244.199 796.28C245.266 796.853 245.799 797.66 245.799 798.7C245.799 799.74 245.266 800.553 244.199 801.14C243.133 801.727 241.659 802.02 239.779 802.02C237.913 802.02 236.439 801.727 235.359 801.14C234.293 800.553 233.759 799.74 233.759 798.7C233.759 797.66 234.293 796.853 235.359 796.28C236.439 795.693 237.913 795.4 239.779 795.4ZM239.779 796.7C238.873 796.7 238.093 796.78 237.439 796.94C236.786 797.087 236.279 797.313 235.919 797.62C235.573 797.913 235.399 798.273 235.399 798.7C235.399 799.127 235.573 799.493 235.919 799.8C236.279 800.093 236.786 800.32 237.439 800.48C238.093 800.64 238.873 800.72 239.779 800.72C240.699 800.72 241.479 800.64 242.119 800.48C242.773 800.32 243.273 800.093 243.619 799.8C243.979 799.493 244.159 799.127 244.159 798.7C244.159 798.273 243.979 797.913 243.619 797.62C243.273 797.313 242.773 797.087 242.119 796.94C241.479 796.78 240.699 796.7 239.779 796.7ZM261.518 783.96H263.158V802.06H261.518V783.96ZM262.778 791.4H266.118V792.8H262.778V791.4ZM249.158 786.86H259.818V788.22H249.158V786.86ZM254.578 789.7C255.431 789.7 256.184 789.88 256.838 790.24C257.504 790.6 258.024 791.093 258.398 791.72C258.784 792.333 258.978 793.047 258.978 793.86C258.978 794.673 258.784 795.393 258.398 796.02C258.024 796.647 257.504 797.14 256.838 797.5C256.184 797.847 255.431 798.02 254.578 798.02C253.724 798.02 252.964 797.847 252.298 797.5C251.644 797.14 251.124 796.647 250.738 796.02C250.351 795.393 250.158 794.673 250.158 793.86C250.158 793.047 250.351 792.333 250.738 791.72C251.124 791.093 251.644 790.6 252.298 790.24C252.964 789.88 253.724 789.7 254.578 789.7ZM254.578 791.08C254.031 791.08 253.544 791.2 253.118 791.44C252.691 791.68 252.351 792.007 252.098 792.42C251.858 792.833 251.738 793.313 251.738 793.86C251.738 794.407 251.858 794.893 252.098 795.32C252.351 795.733 252.691 796.06 253.118 796.3C253.544 796.527 254.031 796.64 254.578 796.64C255.111 796.64 255.591 796.527 256.018 796.3C256.444 796.06 256.778 795.733 257.018 795.32C257.271 794.893 257.398 794.407 257.398 793.86C257.398 793.313 257.271 792.833 257.018 792.42C256.778 792.007 256.444 791.68 256.018 791.44C255.591 791.2 255.111 791.08 254.578 791.08ZM253.718 784.18H255.378V787.46H253.718V784.18ZM280.836 783.96H282.496V802.06H280.836V783.96ZM275.536 785.92H277.176C277.176 787.227 277.016 788.487 276.696 789.7C276.39 790.913 275.903 792.067 275.236 793.16C274.57 794.24 273.703 795.247 272.636 796.18C271.57 797.113 270.276 797.947 268.756 798.68L267.876 797.34C269.623 796.5 271.063 795.52 272.196 794.4C273.33 793.28 274.17 792.033 274.716 790.66C275.263 789.273 275.536 787.78 275.536 786.18V785.92ZM268.716 785.92H276.236V787.26H268.716V785.92Z" fill="white"/>
</svg>
