<svg width="412" height="917" viewBox="0 0 412 917" fill="none" xmlns="http://www.w3.org/2000/svg">
<rect width="412" height="917" fill="white"/>
<path d="M61.812 447.088H64.212V447.904H61.812V447.088ZM61.728 449.812H64.188V450.628H61.728V449.812ZM65.868 444.076H66.828V454.936H65.868V444.076ZM63.684 444.364H64.632V454.384H63.684V444.364ZM61.272 445.456H62.232C62.232 446.4 62.096 447.308 61.824 448.18C61.552 449.044 61.116 449.852 60.516 450.604C59.924 451.348 59.144 452.012 58.176 452.596L57.588 451.876C58.436 451.364 59.132 450.788 59.676 450.148C60.22 449.5 60.62 448.8 60.876 448.048C61.14 447.288 61.272 446.484 61.272 445.636V445.456ZM58.068 445.456H61.656V446.272H58.068V445.456ZM71.4231 445.384H72.2391V446.02C72.2391 446.652 72.1111 447.24 71.8551 447.784C71.5991 448.32 71.2431 448.784 70.7871 449.176C70.3311 449.568 69.7991 449.864 69.1911 450.064L68.6871 449.284C69.2311 449.108 69.7071 448.86 70.1151 448.54C70.5231 448.212 70.8431 447.832 71.0751 447.4C71.3071 446.968 71.4231 446.508 71.4231 446.02V445.384ZM71.6151 445.384H72.4311V446.02C72.4311 446.476 72.5391 446.908 72.7551 447.316C72.9791 447.724 73.2911 448.084 73.6911 448.396C74.0991 448.7 74.5671 448.936 75.0951 449.104L74.6151 449.884C74.0151 449.692 73.4911 449.408 73.0431 449.032C72.5951 448.656 72.2431 448.212 71.9871 447.7C71.7391 447.18 71.6151 446.62 71.6151 446.02V445.384ZM69.0111 445.084H74.8311V445.912H69.0111V445.084ZM71.4351 449.62H72.4311V452.14H71.4351V449.62ZM76.6911 448.576H78.6951V449.428H76.6911V448.576ZM75.9831 444.076H76.9671V454.936H75.9831V444.076ZM68.6511 452.668L68.5071 451.84C69.1471 451.84 69.8511 451.836 70.6191 451.828C71.3871 451.812 72.1711 451.784 72.9711 451.744C73.7791 451.696 74.5551 451.62 75.2991 451.516L75.3711 452.248C74.6031 452.384 73.8191 452.484 73.0191 452.548C72.2271 452.604 71.4551 452.64 70.7031 452.656C69.9591 452.664 69.2751 452.668 68.6511 452.668ZM84.8021 447.136H87.9101V447.952H84.8021V447.136ZM87.6101 444.088H88.6061V452.116H87.6101V444.088ZM81.6341 453.88H88.8581V454.696H81.6341V453.88ZM81.6341 451.336H82.6301V454.288H81.6341V451.336ZM80.2061 444.808H81.2021V446.716H84.1301V444.808H85.1141V450.268H80.2061V444.808ZM81.2021 447.496V449.464H84.1301V447.496H81.2021ZM91.1972 445.672H100.017V446.488H91.1972V445.672ZM90.7172 452.848H100.557V453.664H90.7172V452.848ZM95.1212 451.12H96.1052V453.16H95.1212V451.12ZM95.6132 447.208C96.3412 447.208 96.9692 447.292 97.4972 447.46C98.0332 447.62 98.4452 447.852 98.7332 448.156C99.0212 448.46 99.1652 448.832 99.1652 449.272C99.1652 449.704 99.0212 450.076 98.7332 450.388C98.4452 450.7 98.0332 450.94 97.4972 451.108C96.9692 451.268 96.3412 451.348 95.6132 451.348C94.8852 451.348 94.2532 451.268 93.7172 451.108C93.1892 450.94 92.7812 450.7 92.4932 450.388C92.2052 450.076 92.0612 449.704 92.0612 449.272C92.0612 448.832 92.2052 448.46 92.4932 448.156C92.7812 447.852 93.1892 447.62 93.7172 447.46C94.2532 447.292 94.8852 447.208 95.6132 447.208ZM95.6132 448C95.0852 448 94.6292 448.052 94.2452 448.156C93.8692 448.252 93.5772 448.396 93.3692 448.588C93.1692 448.772 93.0692 449 93.0692 449.272C93.0692 449.536 93.1692 449.764 93.3692 449.956C93.5772 450.148 93.8692 450.296 94.2452 450.4C94.6292 450.496 95.0852 450.544 95.6132 450.544C96.1412 450.544 96.5932 450.496 96.9692 450.4C97.3452 450.296 97.6372 450.148 97.8452 449.956C98.0532 449.764 98.1572 449.536 98.1572 449.272C98.1572 449 98.0532 448.772 97.8452 448.588C97.6372 448.396 97.3452 448.252 96.9692 448.156C96.5932 448.052 96.1412 448 95.6132 448ZM95.1212 444.256H96.1052V446.164H95.1212V444.256Z" fill="#404040"/>
<rect x="57" y="461" width="320" height="40" rx="8" fill="#FBFCFB"/>
<path d="M79.416 477.284H82.616V478.372H79.416V477.284ZM79.304 480.916H82.584V482.004H79.304V480.916ZM84.824 473.268H86.104V487.748H84.824V473.268ZM81.912 473.652H83.176V487.012H81.912V473.652ZM78.696 475.108H79.976C79.976 476.367 79.7947 477.577 79.432 478.74C79.0693 479.892 78.488 480.969 77.688 481.972C76.8987 482.964 75.8587 483.849 74.568 484.628L73.784 483.668C74.9147 482.985 75.8427 482.217 76.568 481.364C77.2933 480.5 77.8267 479.567 78.168 478.564C78.52 477.551 78.696 476.479 78.696 475.348V475.108ZM74.424 475.108H79.208V476.196H74.424V475.108ZM92.2308 475.012H93.3188V475.86C93.3188 476.703 93.1481 477.487 92.8068 478.212C92.4654 478.927 91.9908 479.545 91.3828 480.068C90.7748 480.591 90.0654 480.985 89.2548 481.252L88.5828 480.212C89.3081 479.977 89.9428 479.647 90.4868 479.22C91.0308 478.783 91.4574 478.276 91.7668 477.7C92.0761 477.124 92.2308 476.511 92.2308 475.86V475.012ZM92.4868 475.012H93.5748V475.86C93.5748 476.468 93.7188 477.044 94.0068 477.588C94.3054 478.132 94.7214 478.612 95.2548 479.028C95.7988 479.433 96.4228 479.748 97.1267 479.972L96.4868 481.012C95.6868 480.756 94.9881 480.377 94.3908 479.876C93.7934 479.375 93.3241 478.783 92.9828 478.1C92.6521 477.407 92.4868 476.66 92.4868 475.86V475.012ZM89.0148 474.612H96.7748V475.716H89.0148V474.612ZM92.2468 480.66H93.5748V484.02H92.2468V480.66ZM99.2548 479.268H101.927V480.404H99.2548V479.268ZM98.3108 473.268H99.6228V487.748H98.3108V473.268ZM88.5348 484.724L88.3428 483.62C89.1961 483.62 90.1348 483.615 91.1588 483.604C92.1828 483.583 93.2281 483.545 94.2948 483.492C95.3721 483.428 96.4068 483.327 97.3988 483.188L97.4948 484.164C96.4708 484.345 95.4254 484.479 94.3588 484.564C93.3028 484.639 92.2734 484.687 91.2708 484.708C90.2788 484.719 89.3668 484.724 88.5348 484.724ZM110.07 477.348H114.214V478.436H110.07V477.348ZM113.814 473.284H115.142V483.988H113.814V473.284ZM105.846 486.34H115.478V487.428H105.846V486.34ZM105.846 482.948H107.174V486.884H105.846V482.948ZM103.942 474.244H105.27V476.788H109.174V474.244H110.486V481.524H103.942V474.244ZM105.27 477.828V480.452H109.174V477.828H105.27ZM118.596 475.396H130.356V476.484H118.596V475.396ZM117.956 484.964H131.076V486.052H117.956V484.964ZM123.828 482.66H125.14V485.38H123.828V482.66ZM124.484 477.444C125.455 477.444 126.292 477.556 126.996 477.78C127.711 477.993 128.26 478.303 128.644 478.708C129.028 479.113 129.22 479.609 129.22 480.196C129.22 480.772 129.028 481.268 128.644 481.684C128.26 482.1 127.711 482.42 126.996 482.644C126.292 482.857 125.455 482.964 124.484 482.964C123.514 482.964 122.671 482.857 121.956 482.644C121.252 482.42 120.708 482.1 120.324 481.684C119.94 481.268 119.748 480.772 119.748 480.196C119.748 479.609 119.94 479.113 120.324 478.708C120.708 478.303 121.252 477.993 121.956 477.78C122.671 477.556 123.514 477.444 124.484 477.444ZM124.484 478.5C123.78 478.5 123.172 478.569 122.66 478.708C122.159 478.836 121.77 479.028 121.492 479.284C121.226 479.529 121.092 479.833 121.092 480.196C121.092 480.548 121.226 480.852 121.492 481.108C121.77 481.364 122.159 481.561 122.66 481.7C123.172 481.828 123.78 481.892 124.484 481.892C125.188 481.892 125.791 481.828 126.292 481.7C126.794 481.561 127.183 481.364 127.46 481.108C127.738 480.852 127.876 480.548 127.876 480.196C127.876 479.833 127.738 479.529 127.46 479.284C127.183 479.028 126.794 478.836 126.292 478.708C125.791 478.569 125.188 478.5 124.484 478.5ZM123.828 473.508H125.14V476.052H123.828V473.508Z" fill="#D9D9D9"/>
<path d="M58.848 349.652H65.832V350.468H58.848V349.652ZM57.6 353.648H67.44V354.464H57.6V353.648ZM65.184 349.652H66.168V350.456C66.168 350.912 66.152 351.416 66.12 351.968C66.088 352.52 65.984 353.176 65.808 353.936L64.824 353.876C65 353.14 65.104 352.5 65.136 351.956C65.168 351.404 65.184 350.904 65.184 350.456V349.652ZM58.812 355.94H66.204V359.792H58.812V355.94ZM65.22 356.732H59.784V358.976H65.22V356.732ZM71.0991 354.56H72.0951V356.708H71.0991V354.56ZM75.0111 354.56H76.0071V356.708H75.0111V354.56ZM68.6391 354.152H78.4431V354.968H68.6391V354.152ZM73.5351 356.072C74.6951 356.072 75.6031 356.24 76.2591 356.576C76.9151 356.904 77.2431 357.376 77.2431 357.992C77.2431 358.608 76.9151 359.084 76.2591 359.42C75.6031 359.756 74.6951 359.924 73.5351 359.924C72.3751 359.924 71.4631 359.756 70.7991 359.42C70.1431 359.084 69.8151 358.608 69.8151 357.992C69.8151 357.376 70.1431 356.904 70.7991 356.576C71.4631 356.24 72.3751 356.072 73.5351 356.072ZM73.5231 356.84C72.9631 356.84 72.4791 356.888 72.0711 356.984C71.6711 357.072 71.3631 357.2 71.1471 357.368C70.9311 357.536 70.8231 357.744 70.8231 357.992C70.8231 358.24 70.9311 358.452 71.1471 358.628C71.3631 358.796 71.6711 358.924 72.0711 359.012C72.4791 359.1 72.9631 359.144 73.5231 359.144C74.0991 359.144 74.5871 359.1 74.9871 359.012C75.3951 358.924 75.7071 358.796 75.9231 358.628C76.1391 358.452 76.2471 358.24 76.2471 357.992C76.2471 357.744 76.1391 357.536 75.9231 357.368C75.7071 357.2 75.3951 357.072 74.9871 356.984C74.5871 356.888 74.0991 356.84 73.5231 356.84ZM73.5351 349.292C74.3191 349.292 74.9951 349.372 75.5631 349.532C76.1391 349.692 76.5791 349.924 76.8831 350.228C77.1951 350.532 77.3511 350.9 77.3511 351.332C77.3511 351.756 77.1951 352.12 76.8831 352.424C76.5791 352.72 76.1391 352.948 75.5631 353.108C74.9951 353.268 74.3191 353.348 73.5351 353.348C72.7511 353.348 72.0711 353.268 71.4951 353.108C70.9271 352.948 70.4871 352.72 70.1751 352.424C69.8711 352.12 69.7191 351.756 69.7191 351.332C69.7191 350.9 69.8711 350.532 70.1751 350.228C70.4871 349.924 70.9271 349.692 71.4951 349.532C72.0711 349.372 72.7511 349.292 73.5351 349.292ZM73.5351 350.084C72.9671 350.084 72.4711 350.132 72.0471 350.228C71.6311 350.324 71.3071 350.468 71.0751 350.66C70.8511 350.844 70.7391 351.068 70.7391 351.332C70.7391 351.588 70.8511 351.812 71.0751 352.004C71.3071 352.188 71.6311 352.328 72.0471 352.424C72.4711 352.52 72.9671 352.568 73.5351 352.568C74.1111 352.568 74.6071 352.52 75.0231 352.424C75.4471 352.328 75.7711 352.188 75.9951 352.004C76.2191 351.812 76.3311 351.588 76.3311 351.332C76.3311 351.068 76.2191 350.844 75.9951 350.66C75.7711 350.468 75.4471 350.324 75.0231 350.228C74.6071 350.132 74.1111 350.084 73.5351 350.084ZM87.5861 349.076H88.5821V359.936H87.5861V349.076ZM84.4061 350.252H85.3901C85.3901 351.036 85.2941 351.792 85.1021 352.52C84.9181 353.248 84.6261 353.94 84.2261 354.596C83.8261 355.244 83.3061 355.848 82.6661 356.408C82.0261 356.968 81.2501 357.468 80.3381 357.908L79.8101 357.104C80.8581 356.6 81.7221 356.012 82.4021 355.34C83.0821 354.668 83.5861 353.92 83.9141 353.096C84.2421 352.264 84.4061 351.368 84.4061 350.408V350.252ZM80.3141 350.252H84.8261V351.056H80.3141V350.252ZM91.3052 349.916H96.1052V350.744H91.3052V349.916ZM92.9372 352.34H93.9212V355.052H92.9372V352.34ZM95.7092 349.916H96.6812V350.492C96.6812 350.852 96.6692 351.3 96.6452 351.836C96.6292 352.372 96.5492 352.996 96.4052 353.708L95.4212 353.612C95.5652 352.892 95.6492 352.28 95.6732 351.776C95.6972 351.272 95.7092 350.844 95.7092 350.492V349.916ZM98.1572 349.076H99.1652V357.248H98.1572V349.076ZM98.7092 352.604H100.713V353.444H98.7092V352.604ZM92.3012 358.88H99.5132V359.696H92.3012V358.88ZM92.3012 356.504H93.2972V359.12H92.3012V356.504ZM90.7532 355.52L90.6452 354.704C91.2852 354.704 91.9932 354.696 92.7692 354.68C93.5452 354.664 94.3332 354.632 95.1332 354.584C95.9332 354.528 96.7012 354.452 97.4372 354.356L97.4972 355.088C96.7532 355.216 95.9812 355.312 95.1812 355.376C94.3812 355.44 93.6012 355.48 92.8412 355.496C92.0892 355.512 91.3932 355.52 90.7532 355.52Z" fill="#404040"/>
<rect x="57.5" y="366.5" width="198" height="39" rx="7.5" fill="#FBFCFB"/>
<rect x="57.5" y="366.5" width="198" height="39" rx="7.5" stroke="#2383BD"/>
<path d="M69.464 379.536H78.776V380.624H69.464V379.536ZM67.8 384.864H80.92V385.952H67.8V384.864ZM77.912 379.536H79.224V380.608C79.224 381.216 79.2027 381.888 79.16 382.624C79.1173 383.36 78.9787 384.235 78.744 385.248L77.432 385.168C77.6667 384.187 77.8053 383.333 77.848 382.608C77.8907 381.872 77.912 381.205 77.912 380.608V379.536ZM69.416 387.92H79.272V393.056H69.416V387.92ZM77.96 388.976H70.712V391.968H77.96V388.976ZM85.7988 386.08H87.1268V388.944H85.7988V386.08ZM91.0148 386.08H92.3428V388.944H91.0148V386.08ZM82.5188 385.536H95.5908V386.624H82.5188V385.536ZM89.0468 388.096C90.5934 388.096 91.8041 388.32 92.6788 388.768C93.5534 389.205 93.9908 389.835 93.9908 390.656C93.9908 391.477 93.5534 392.112 92.6788 392.56C91.8041 393.008 90.5934 393.232 89.0468 393.232C87.5001 393.232 86.2841 393.008 85.3988 392.56C84.5241 392.112 84.0868 391.477 84.0868 390.656C84.0868 389.835 84.5241 389.205 85.3988 388.768C86.2841 388.32 87.5001 388.096 89.0468 388.096ZM89.0308 389.12C88.2841 389.12 87.6388 389.184 87.0948 389.312C86.5614 389.429 86.1508 389.6 85.8628 389.824C85.5748 390.048 85.4308 390.325 85.4308 390.656C85.4308 390.987 85.5748 391.269 85.8628 391.504C86.1508 391.728 86.5614 391.899 87.0948 392.016C87.6388 392.133 88.2841 392.192 89.0308 392.192C89.7988 392.192 90.4494 392.133 90.9828 392.016C91.5268 391.899 91.9428 391.728 92.2308 391.504C92.5188 391.269 92.6628 390.987 92.6628 390.656C92.6628 390.325 92.5188 390.048 92.2308 389.824C91.9428 389.6 91.5268 389.429 90.9828 389.312C90.4494 389.184 89.7988 389.12 89.0308 389.12ZM89.0468 379.056C90.0921 379.056 90.9934 379.163 91.7508 379.376C92.5188 379.589 93.1054 379.899 93.5108 380.304C93.9268 380.709 94.1348 381.2 94.1348 381.776C94.1348 382.341 93.9268 382.827 93.5108 383.232C93.1054 383.627 92.5188 383.931 91.7508 384.144C90.9934 384.357 90.0921 384.464 89.0468 384.464C88.0014 384.464 87.0948 384.357 86.3268 384.144C85.5694 383.931 84.9828 383.627 84.5668 383.232C84.1614 382.827 83.9588 382.341 83.9588 381.776C83.9588 381.2 84.1614 380.709 84.5668 380.304C84.9828 379.899 85.5694 379.589 86.3268 379.376C87.0948 379.163 88.0014 379.056 89.0468 379.056ZM89.0468 380.112C88.2894 380.112 87.6281 380.176 87.0628 380.304C86.5081 380.432 86.0761 380.624 85.7668 380.88C85.4681 381.125 85.3188 381.424 85.3188 381.776C85.3188 382.117 85.4681 382.416 85.7668 382.672C86.0761 382.917 86.5081 383.104 87.0628 383.232C87.6281 383.36 88.2894 383.424 89.0468 383.424C89.8148 383.424 90.4761 383.36 91.0308 383.232C91.5961 383.104 92.0281 382.917 92.3268 382.672C92.6254 382.416 92.7748 382.117 92.7748 381.776C92.7748 381.424 92.6254 381.125 92.3268 380.88C92.0281 380.624 91.5961 380.432 91.0308 380.304C90.4761 380.176 89.8148 380.112 89.0468 380.112ZM107.782 378.768H109.11V393.248H107.782V378.768ZM103.542 380.336H104.854C104.854 381.381 104.726 382.389 104.47 383.36C104.224 384.331 103.835 385.253 103.302 386.128C102.768 386.992 102.075 387.797 101.222 388.544C100.368 389.291 99.3335 389.957 98.1175 390.544L97.4135 389.472C98.8108 388.8 99.9628 388.016 100.87 387.12C101.776 386.224 102.448 385.227 102.886 384.128C103.323 383.019 103.542 381.824 103.542 380.544V380.336ZM98.0855 380.336H104.102V381.408H98.0855V380.336ZM112.74 379.888H119.14V380.992H112.74V379.888ZM114.916 383.12H116.228V386.736H114.916V383.12ZM118.612 379.888H119.908V380.656C119.908 381.136 119.892 381.733 119.86 382.448C119.839 383.163 119.732 383.995 119.54 384.944L118.228 384.816C118.42 383.856 118.532 383.04 118.564 382.368C118.596 381.696 118.612 381.125 118.612 380.656V379.888ZM121.876 378.768H123.22V389.664H121.876V378.768ZM122.612 383.472H125.284V384.592H122.612V383.472ZM114.068 391.84H123.684V392.928H114.068V391.84ZM114.068 388.672H115.396V392.16H114.068V388.672ZM112.004 387.36L111.86 386.272C112.714 386.272 113.658 386.261 114.692 386.24C115.727 386.219 116.778 386.176 117.844 386.112C118.911 386.037 119.935 385.936 120.916 385.808L120.996 386.784C120.004 386.955 118.975 387.083 117.908 387.168C116.842 387.253 115.802 387.307 114.788 387.328C113.786 387.349 112.858 387.36 112.004 387.36Z" fill="#868686"/>
<g filter="url(#filter0_d_306_1909)">
<path d="M232.41 383.295L237 387.875L241.59 383.295L243 384.705L237 390.705L231 384.705L232.41 383.295Z" fill="#8C8C8C"/>
</g>
<path d="M88.76 224.3H91.56C91.56 225.94 91.22 227.407 90.54 228.7C89.86 229.98 88.88 231.067 87.6 231.96C86.32 232.84 84.7533 233.52 82.9 234L81.9 231.9C83.4333 231.527 84.7067 231.027 85.72 230.4C86.7333 229.773 87.4933 229.053 88 228.24C88.5067 227.413 88.76 226.547 88.76 225.64V224.3ZM82.96 224.3H90.48V226.4H82.96V224.3ZM94.54 223.24H97.2V233.56H94.54V223.24ZM84.94 234.36H97.2V241.58H84.94V234.36ZM94.58 236.44H87.56V239.48H94.58V236.44ZM112.418 223.22H115.098V241.8H112.418V223.22ZM114.018 230.16H117.278V232.36H114.018V230.16ZM100.578 235.06H101.518C102.225 235.06 102.878 235.047 103.478 235.02C104.092 234.993 104.745 234.913 105.438 234.78L105.638 236.94C104.905 237.073 104.218 237.16 103.578 237.2C102.952 237.227 102.265 237.24 101.518 237.24H100.578V235.06ZM100.578 225.1H105.338V227.22H103.198V236.06H100.578V225.1ZM106.278 235.06H107.258C107.965 235.06 108.558 235.053 109.038 235.04C109.532 235.027 109.972 235 110.358 234.96C110.745 234.907 111.125 234.833 111.498 234.74L111.718 236.9C111.305 237.007 110.898 237.087 110.498 237.14C110.112 237.18 109.658 237.207 109.138 237.22C108.632 237.233 108.005 237.24 107.258 237.24H106.278V235.06ZM106.278 225.1H111.278V227.22H108.898V236.1H106.278V225.1ZM118.597 232.18H135.357V234.28H118.597V232.18ZM125.637 230H128.277V232.76H125.637V230ZM126.937 235.16C128.95 235.16 130.524 235.453 131.657 236.04C132.79 236.613 133.357 237.427 133.357 238.48C133.357 239.547 132.79 240.36 131.657 240.92C130.524 241.493 128.95 241.78 126.937 241.78C124.937 241.78 123.364 241.493 122.217 240.92C121.084 240.36 120.517 239.547 120.517 238.48C120.517 237.427 121.084 236.613 122.217 236.04C123.364 235.453 124.937 235.16 126.937 235.16ZM126.937 237.16C126.11 237.16 125.417 237.207 124.857 237.3C124.31 237.393 123.897 237.54 123.617 237.74C123.337 237.927 123.197 238.173 123.197 238.48C123.197 238.773 123.337 239.02 123.617 239.22C123.897 239.407 124.31 239.553 124.857 239.66C125.417 239.753 126.11 239.8 126.937 239.8C127.777 239.8 128.47 239.753 129.017 239.66C129.564 239.553 129.977 239.407 130.257 239.22C130.537 239.02 130.677 238.773 130.677 238.48C130.677 238.173 130.537 237.927 130.257 237.74C129.977 237.54 129.564 237.393 129.017 237.3C128.47 237.207 127.777 237.16 126.937 237.16ZM120.737 223.78H123.357V225.34H130.597V223.78H133.237V230.8H120.737V223.78ZM123.357 227.32V228.72H130.597V227.32H123.357ZM149.735 223.24H152.395V233.62H149.735V223.24ZM138.055 224.32H140.695V231.94H138.055V224.32ZM138.055 230.54H139.655C141.269 230.54 142.755 230.493 144.115 230.4C145.489 230.293 146.855 230.087 148.215 229.78L148.535 231.92C147.122 232.24 145.702 232.46 144.275 232.58C142.862 232.687 141.322 232.74 139.655 232.74H138.055V230.54ZM140.075 234.4H152.395V241.58H140.075V234.4ZM149.795 236.5H142.675V239.48H149.795V236.5ZM168.963 225.92H173.683V228.04H168.963V225.92ZM168.963 229.62H173.763V231.74H168.963V229.62ZM172.843 223.26H175.523V234.1H172.843V223.26ZM160.763 224.58H169.523V233.1H160.763V224.58ZM166.923 226.68H163.383V231.02H166.923V226.68ZM169.243 234.58C171.203 234.58 172.75 234.9 173.883 235.54C175.016 236.167 175.583 237.04 175.583 238.16C175.583 239.307 175.016 240.193 173.883 240.82C172.75 241.46 171.203 241.78 169.243 241.78C167.283 241.78 165.736 241.46 164.603 240.82C163.47 240.193 162.903 239.307 162.903 238.16C162.903 237.04 163.47 236.167 164.603 235.54C165.736 234.9 167.283 234.58 169.243 234.58ZM169.243 236.62C168.443 236.62 167.77 236.673 167.223 236.78C166.676 236.887 166.256 237.06 165.963 237.3C165.683 237.527 165.543 237.82 165.543 238.18C165.543 238.527 165.683 238.82 165.963 239.06C166.256 239.287 166.676 239.46 167.223 239.58C167.77 239.687 168.443 239.74 169.243 239.74C170.043 239.74 170.716 239.687 171.263 239.58C171.81 239.46 172.223 239.287 172.503 239.06C172.783 238.82 172.923 238.527 172.923 238.18C172.923 237.82 172.783 237.527 172.503 237.3C172.223 237.06 171.81 236.887 171.263 236.78C170.716 236.673 170.043 236.62 169.243 236.62ZM184.382 224.48C185.342 224.48 186.208 224.673 186.982 225.06C187.755 225.447 188.362 225.987 188.802 226.68C189.242 227.36 189.462 228.147 189.462 229.04C189.462 229.92 189.242 230.707 188.802 231.4C188.362 232.093 187.755 232.633 186.982 233.02C186.208 233.407 185.342 233.6 184.382 233.6C183.408 233.6 182.535 233.407 181.762 233.02C180.988 232.633 180.375 232.093 179.922 231.4C179.482 230.707 179.262 229.92 179.262 229.04C179.262 228.147 179.482 227.36 179.922 226.68C180.375 225.987 180.988 225.447 181.762 225.06C182.535 224.673 183.408 224.48 184.382 224.48ZM184.382 226.76C183.902 226.76 183.468 226.853 183.082 227.04C182.708 227.213 182.408 227.473 182.182 227.82C181.968 228.153 181.862 228.56 181.862 229.04C181.862 229.52 181.968 229.933 182.182 230.28C182.408 230.627 182.708 230.893 183.082 231.08C183.468 231.253 183.902 231.34 184.382 231.34C184.848 231.34 185.268 231.253 185.642 231.08C186.015 230.893 186.308 230.627 186.522 230.28C186.748 229.933 186.862 229.52 186.862 229.04C186.862 228.56 186.748 228.153 186.522 227.82C186.308 227.473 186.015 227.213 185.642 227.04C185.268 226.853 184.848 226.76 184.382 226.76ZM191.202 223.22H193.862V241.8H191.202V223.22ZM178.802 238.06L178.502 235.9C179.582 235.9 180.775 235.893 182.082 235.88C183.402 235.853 184.755 235.8 186.142 235.72C187.542 235.627 188.895 235.487 190.202 235.3L190.382 237.22C189.048 237.487 187.695 237.68 186.322 237.8C184.948 237.907 183.622 237.98 182.342 238.02C181.062 238.047 179.882 238.06 178.802 238.06ZM202.78 224.48C203.74 224.48 204.607 224.673 205.38 225.06C206.153 225.447 206.76 225.987 207.2 226.68C207.64 227.36 207.86 228.147 207.86 229.04C207.86 229.92 207.64 230.707 207.2 231.4C206.76 232.093 206.153 232.633 205.38 233.02C204.607 233.407 203.74 233.6 202.78 233.6C201.807 233.6 200.933 233.407 200.16 233.02C199.387 232.633 198.773 232.093 198.32 231.4C197.88 230.707 197.66 229.92 197.66 229.04C197.66 228.147 197.88 227.36 198.32 226.68C198.773 225.987 199.387 225.447 200.16 225.06C200.933 224.673 201.807 224.48 202.78 224.48ZM202.78 226.76C202.3 226.76 201.867 226.853 201.48 227.04C201.107 227.213 200.807 227.473 200.58 227.82C200.367 228.153 200.26 228.56 200.26 229.04C200.26 229.52 200.367 229.933 200.58 230.28C200.807 230.627 201.107 230.893 201.48 231.08C201.867 231.253 202.3 231.34 202.78 231.34C203.247 231.34 203.667 231.253 204.04 231.08C204.413 230.893 204.707 230.627 204.92 230.28C205.147 229.933 205.26 229.52 205.26 229.04C205.26 228.56 205.147 228.153 204.92 227.82C204.707 227.473 204.413 227.213 204.04 227.04C203.667 226.853 203.247 226.76 202.78 226.76ZM209.6 223.22H212.26V241.8H209.6V223.22ZM197.2 238.06L196.9 235.9C197.98 235.9 199.173 235.893 200.48 235.88C201.8 235.853 203.153 235.8 204.54 235.72C205.94 235.627 207.293 235.487 208.6 235.3L208.78 237.22C207.447 237.487 206.093 237.68 204.72 237.8C203.347 237.907 202.02 237.98 200.74 238.02C199.46 238.047 198.28 238.06 197.2 238.06ZM83.88 254.08H95.6V256.18H83.88V254.08ZM81.82 260.74H98.6V262.84H81.82V260.74ZM94 254.08H96.62V255.56C96.62 256.347 96.6 257.193 96.56 258.1C96.52 259.007 96.36 260.06 96.08 261.26L93.42 261.24C93.7133 260.027 93.88 258.973 93.92 258.08C93.9733 257.187 94 256.347 94 255.56V254.08ZM83.78 264.78H96.54V271.58H83.78V264.78ZM93.94 266.86H86.4V269.48H93.94V266.86ZM103.918 262.8H106.578V266.44H103.918V262.8ZM110.598 262.8H113.258V266.44H110.598V262.8ZM100.198 261.56H116.958V263.66H100.198V261.56ZM108.538 265.02C110.538 265.02 112.112 265.313 113.258 265.9C114.405 266.487 114.978 267.32 114.978 268.4C114.978 269.493 114.405 270.333 113.258 270.92C112.112 271.507 110.538 271.8 108.538 271.8C106.538 271.8 104.965 271.507 103.818 270.92C102.685 270.333 102.118 269.493 102.118 268.4C102.118 267.32 102.685 266.487 103.818 265.9C104.965 265.313 106.538 265.02 108.538 265.02ZM108.538 267.02C107.712 267.02 107.018 267.073 106.458 267.18C105.912 267.287 105.498 267.44 105.218 267.64C104.938 267.84 104.798 268.093 104.798 268.4C104.798 268.72 104.938 268.987 105.218 269.2C105.498 269.4 105.912 269.547 106.458 269.64C107.018 269.733 107.712 269.78 108.538 269.78C109.365 269.78 110.052 269.733 110.598 269.64C111.158 269.547 111.578 269.4 111.858 269.2C112.138 268.987 112.278 268.72 112.278 268.4C112.278 268.093 112.138 267.84 111.858 267.64C111.578 267.44 111.158 267.287 110.598 267.18C110.052 267.073 109.365 267.02 108.538 267.02ZM108.598 253.56C109.958 253.56 111.138 253.707 112.138 254C113.152 254.28 113.932 254.687 114.478 255.22C115.025 255.753 115.298 256.387 115.298 257.12C115.298 257.853 115.025 258.487 114.478 259.02C113.932 259.553 113.152 259.967 112.138 260.26C111.138 260.54 109.958 260.68 108.598 260.68C107.238 260.68 106.052 260.54 105.038 260.26C104.025 259.967 103.245 259.553 102.698 259.02C102.152 258.487 101.878 257.853 101.878 257.12C101.878 256.387 102.152 255.753 102.698 255.22C103.245 254.687 104.025 254.28 105.038 254C106.052 253.707 107.238 253.56 108.598 253.56ZM108.598 255.58C107.758 255.58 107.038 255.64 106.438 255.76C105.838 255.867 105.385 256.033 105.078 256.26C104.785 256.487 104.638 256.773 104.638 257.12C104.638 257.467 104.785 257.753 105.078 257.98C105.385 258.207 105.838 258.38 106.438 258.5C107.038 258.607 107.758 258.66 108.598 258.66C109.438 258.66 110.152 258.607 110.738 258.5C111.325 258.38 111.772 258.207 112.078 257.98C112.385 257.753 112.538 257.467 112.538 257.12C112.538 256.773 112.385 256.487 112.078 256.26C111.772 256.033 111.325 255.867 110.738 255.76C110.152 255.64 109.438 255.58 108.598 255.58ZM131.377 253.24H134.037V271.76H131.377V253.24ZM125.917 255.16H128.537C128.537 256.573 128.397 257.927 128.117 259.22C127.85 260.5 127.397 261.707 126.757 262.84C126.13 263.973 125.264 265.027 124.157 266C123.064 266.96 121.697 267.84 120.057 268.64L118.657 266.54C120.444 265.673 121.864 264.72 122.917 263.68C123.984 262.627 124.75 261.44 125.217 260.12C125.684 258.787 125.917 257.293 125.917 255.64V255.16ZM119.657 255.16H127.157V257.28H119.657V255.16ZM137.835 254.6H145.755V256.72H137.835V254.6ZM140.115 258.92H142.735V263.54H140.115V258.92ZM144.715 254.6H147.335V255.76C147.335 256.413 147.315 257.193 147.275 258.1C147.249 258.993 147.122 260.027 146.895 261.2L144.315 260.9C144.515 259.767 144.629 258.787 144.655 257.96C144.695 257.133 144.715 256.4 144.715 255.76V254.6ZM149.115 253.24H151.795V267.1H149.115V253.24ZM150.735 258.9H154.015V261.08H150.735V258.9ZM139.435 269.32H152.395V271.46H139.435V269.32ZM139.435 265.88H142.115V269.98H139.435V265.88ZM136.975 264.64L136.735 262.52C137.802 262.52 138.982 262.513 140.275 262.5C141.569 262.473 142.889 262.42 144.235 262.34C145.582 262.247 146.875 262.113 148.115 261.94L148.295 263.84C147.015 264.067 145.709 264.24 144.375 264.36C143.042 264.467 141.742 264.54 140.475 264.58C139.209 264.607 138.042 264.627 136.975 264.64ZM167.163 258.14H170.903V260.24H167.163V258.14ZM167.063 262.76H170.843V264.88H167.063V262.76ZM173.423 253.24H175.963V271.76H173.423V253.24ZM169.623 253.64H172.103V270.94H169.623V253.64ZM165.443 255.42H167.983C167.983 257.18 167.776 258.82 167.363 260.34C166.963 261.847 166.27 263.233 165.283 264.5C164.31 265.767 162.963 266.907 161.243 267.92L159.743 266.06C161.143 265.22 162.256 264.307 163.083 263.32C163.923 262.32 164.523 261.22 164.883 260.02C165.256 258.807 165.443 257.453 165.443 255.96V255.42ZM160.803 255.42H166.323V257.56H160.803V255.42ZM182.602 255.44H184.762V256.46C184.762 257.567 184.575 258.607 184.202 259.58C183.828 260.553 183.255 261.407 182.482 262.14C181.722 262.86 180.755 263.393 179.582 263.74L178.282 261.66C179.295 261.367 180.115 260.953 180.742 260.42C181.382 259.873 181.848 259.26 182.142 258.58C182.448 257.9 182.602 257.193 182.602 256.46V255.44ZM183.142 255.44H185.302V256.46C185.302 257.127 185.448 257.78 185.742 258.42C186.035 259.06 186.495 259.633 187.122 260.14C187.748 260.647 188.548 261.047 189.522 261.34L188.262 263.38C187.115 263.047 186.162 262.54 185.402 261.86C184.642 261.167 184.075 260.36 183.702 259.44C183.328 258.507 183.142 257.513 183.142 256.46V255.44ZM178.962 254.7H188.962V256.86H178.962V254.7ZM182.642 262.92H185.282V266.92H182.642V262.92ZM192.222 260.56H195.482V262.76H192.222V260.56ZM190.382 253.24H193.042V271.76H190.382V253.24ZM178.522 268.26L178.222 266.1C179.275 266.1 180.435 266.1 181.702 266.1C182.968 266.087 184.262 266.047 185.582 265.98C186.902 265.9 188.182 265.78 189.422 265.62L189.622 267.54C188.328 267.78 187.028 267.953 185.722 268.06C184.415 268.153 183.148 268.213 181.922 268.24C180.695 268.253 179.562 268.26 178.522 268.26ZM196.82 261.56H213.58V263.48H196.82V261.56ZM198.7 264.42H211.6V268.82H201.36V270.4H198.72V267.14H208.98V266.22H198.7V264.42ZM198.72 269.82H212.12V271.62H198.72V269.82ZM198.86 253.56H211.54V257.94H201.52V259.44H198.9V256.26H208.92V255.36H198.86V253.56ZM198.9 258.9H211.88V260.7H198.9V258.9ZM232.548 253.26H235.208V266.56H232.548V253.26ZM222.868 269.32H235.688V271.46H222.868V269.32ZM222.868 265.24H225.528V270.2H222.868V265.24ZM225.128 254.44C226.074 254.44 226.928 254.64 227.688 255.04C228.448 255.44 229.048 255.993 229.488 256.7C229.941 257.407 230.168 258.22 230.168 259.14C230.168 260.033 229.941 260.84 229.488 261.56C229.048 262.267 228.448 262.827 227.688 263.24C226.928 263.64 226.074 263.84 225.128 263.84C224.181 263.84 223.328 263.64 222.568 263.24C221.808 262.827 221.201 262.267 220.748 261.56C220.308 260.84 220.088 260.033 220.088 259.14C220.088 258.22 220.308 257.407 220.748 256.7C221.201 255.993 221.808 255.44 222.568 255.04C223.328 254.64 224.181 254.44 225.128 254.44ZM225.128 256.72C224.674 256.72 224.261 256.82 223.888 257.02C223.514 257.207 223.221 257.48 223.008 257.84C222.794 258.187 222.688 258.62 222.688 259.14C222.688 259.633 222.794 260.06 223.008 260.42C223.221 260.767 223.514 261.04 223.888 261.24C224.261 261.427 224.674 261.52 225.128 261.52C225.581 261.52 225.994 261.427 226.368 261.24C226.741 261.04 227.034 260.767 227.248 260.42C227.461 260.06 227.568 259.633 227.568 259.14C227.568 258.62 227.461 258.187 227.248 257.84C227.034 257.48 226.741 257.207 226.368 257.02C225.994 256.82 225.581 256.72 225.128 256.72ZM238.206 261.8H254.966V263.9H238.206V261.8ZM246.546 264.92C248.546 264.92 250.12 265.22 251.266 265.82C252.413 266.42 252.986 267.26 252.986 268.34C252.986 269.433 252.413 270.28 251.266 270.88C250.12 271.48 248.546 271.78 246.546 271.78C244.546 271.78 242.973 271.48 241.826 270.88C240.693 270.28 240.126 269.433 240.126 268.34C240.126 267.26 240.693 266.42 241.826 265.82C242.973 265.22 244.546 264.92 246.546 264.92ZM246.546 266.96C245.72 266.96 245.026 267.013 244.466 267.12C243.92 267.213 243.506 267.36 243.226 267.56C242.946 267.76 242.806 268.02 242.806 268.34C242.806 268.66 242.946 268.927 243.226 269.14C243.506 269.34 243.92 269.487 244.466 269.58C245.026 269.673 245.72 269.72 246.546 269.72C247.373 269.72 248.06 269.673 248.606 269.58C249.166 269.487 249.586 269.34 249.866 269.14C250.146 268.927 250.286 268.66 250.286 268.34C250.286 268.02 250.146 267.76 249.866 267.56C249.586 267.36 249.166 267.213 248.606 267.12C248.06 267.013 247.373 266.96 246.546 266.96ZM244.766 255.16H247.126V255.6C247.126 256.147 247.026 256.68 246.826 257.2C246.626 257.707 246.326 258.18 245.926 258.62C245.54 259.047 245.053 259.433 244.466 259.78C243.88 260.113 243.2 260.393 242.426 260.62C241.653 260.847 240.793 261.007 239.846 261.1L238.926 259.02C239.74 258.953 240.46 258.84 241.086 258.68C241.726 258.507 242.273 258.307 242.726 258.08C243.193 257.84 243.573 257.587 243.866 257.32C244.173 257.053 244.4 256.773 244.546 256.48C244.693 256.173 244.766 255.88 244.766 255.6V255.16ZM246.066 255.16H248.406V255.6C248.406 255.893 248.48 256.187 248.626 256.48C248.773 256.773 248.993 257.06 249.286 257.34C249.593 257.607 249.973 257.86 250.426 258.1C250.893 258.327 251.44 258.52 252.066 258.68C252.706 258.84 253.433 258.953 254.246 259.02L253.326 261.1C252.38 261.007 251.52 260.853 250.746 260.64C249.973 260.413 249.293 260.127 248.706 259.78C248.133 259.433 247.646 259.047 247.246 258.62C246.86 258.18 246.566 257.707 246.366 257.2C246.166 256.693 246.066 256.16 246.066 255.6V255.16ZM239.746 254.12H253.466V256.22H239.746V254.12ZM256.605 256.04H265.465V258.14H256.605V256.04ZM261.065 258.98C261.851 258.98 262.545 259.167 263.145 259.54C263.758 259.913 264.238 260.433 264.585 261.1C264.945 261.753 265.125 262.513 265.125 263.38C265.125 264.247 264.945 265.013 264.585 265.68C264.238 266.333 263.758 266.847 263.145 267.22C262.545 267.593 261.851 267.78 261.065 267.78C260.278 267.78 259.578 267.593 258.965 267.22C258.351 266.847 257.871 266.333 257.525 265.68C257.178 265.013 257.005 264.247 257.005 263.38C257.005 262.513 257.178 261.753 257.525 261.1C257.871 260.433 258.351 259.913 258.965 259.54C259.591 259.167 260.291 258.98 261.065 258.98ZM261.065 261.18C260.745 261.18 260.451 261.267 260.185 261.44C259.918 261.613 259.711 261.867 259.565 262.2C259.418 262.52 259.345 262.913 259.345 263.38C259.345 263.847 259.418 264.247 259.565 264.58C259.711 264.913 259.918 265.167 260.185 265.34C260.451 265.5 260.745 265.58 261.065 265.58C261.398 265.58 261.691 265.5 261.945 265.34C262.198 265.167 262.398 264.913 262.545 264.58C262.691 264.247 262.765 263.847 262.765 263.38C262.765 262.913 262.691 262.52 262.545 262.2C262.398 261.867 262.198 261.613 261.945 261.44C261.691 261.267 261.398 261.18 261.065 261.18ZM270.005 253.24H272.525V271.76H270.005V253.24ZM267.785 260.78H270.825V262.92H267.785V260.78ZM266.105 253.58H268.585V270.98H266.105V253.58ZM259.765 253.74H262.385V257.36H259.765V253.74ZM281.863 255.3H284.183V255.86C284.183 256.5 284.076 257.12 283.863 257.72C283.663 258.32 283.356 258.88 282.943 259.4C282.53 259.907 282.023 260.367 281.423 260.78C280.836 261.18 280.156 261.52 279.383 261.8C278.61 262.08 277.75 262.28 276.803 262.4L275.823 260.34C276.65 260.233 277.383 260.073 278.023 259.86C278.676 259.633 279.243 259.373 279.723 259.08C280.203 258.773 280.603 258.447 280.923 258.1C281.243 257.753 281.476 257.387 281.623 257C281.783 256.613 281.863 256.233 281.863 255.86V255.3ZM282.643 255.3H284.943V255.86C284.943 256.233 285.016 256.613 285.163 257C285.323 257.387 285.563 257.753 285.883 258.1C286.203 258.447 286.603 258.773 287.083 259.08C287.576 259.373 288.143 259.633 288.783 259.86C289.423 260.073 290.156 260.233 290.983 260.34L290.003 262.4C289.056 262.28 288.196 262.08 287.423 261.8C286.65 261.52 285.963 261.18 285.363 260.78C284.776 260.367 284.276 259.907 283.863 259.4C283.463 258.88 283.156 258.32 282.943 257.72C282.743 257.12 282.643 256.5 282.643 255.86V255.3ZM282.003 265H284.663V271.78H282.003V265ZM275.023 263.46H291.783V265.6H275.023V263.46ZM276.503 254.2H290.243V256.3H276.503V254.2ZM300.702 259.48H303.782V261.64H300.702V259.48ZM296.762 254.86H298.782V257.96C298.782 259.013 298.708 260.047 298.562 261.06C298.415 262.073 298.175 263.027 297.842 263.92C297.522 264.813 297.095 265.62 296.562 266.34C296.042 267.047 295.408 267.627 294.662 268.08L293.062 266.08C293.755 265.667 294.335 265.16 294.802 264.56C295.268 263.96 295.648 263.3 295.942 262.58C296.235 261.86 296.442 261.113 296.562 260.34C296.695 259.553 296.762 258.76 296.762 257.96V254.86ZM297.342 254.86H299.322V257.84C299.322 258.6 299.375 259.353 299.482 260.1C299.602 260.847 299.788 261.56 300.042 262.24C300.295 262.92 300.628 263.547 301.042 264.12C301.468 264.693 302.002 265.187 302.642 265.6L301.182 267.68C300.462 267.227 299.848 266.653 299.342 265.96C298.848 265.253 298.455 264.46 298.162 263.58C297.868 262.7 297.655 261.773 297.522 260.8C297.402 259.827 297.342 258.84 297.342 257.84V254.86ZM306.782 253.24H309.322V271.76H306.782V253.24ZM303.022 253.54H305.502V270.94H303.022V253.54ZM315.5 262.66H318.16V267.84H315.5V262.66ZM322.22 262.66H324.88V267.84H322.22V262.66ZM311.82 267.46H328.6V269.62H311.82V267.46ZM320.18 254.16C321.513 254.16 322.7 254.367 323.74 254.78C324.793 255.193 325.613 255.773 326.2 256.52C326.8 257.253 327.1 258.127 327.1 259.14C327.1 260.14 326.8 261.013 326.2 261.76C325.613 262.493 324.793 263.067 323.74 263.48C322.7 263.893 321.513 264.1 320.18 264.1C318.86 264.1 317.673 263.893 316.62 263.48C315.58 263.067 314.76 262.493 314.16 261.76C313.56 261.013 313.26 260.14 313.26 259.14C313.26 258.127 313.56 257.253 314.16 256.52C314.76 255.773 315.58 255.193 316.62 254.78C317.673 254.367 318.86 254.16 320.18 254.16ZM320.18 256.22C319.327 256.22 318.573 256.34 317.92 256.58C317.28 256.807 316.78 257.133 316.42 257.56C316.06 257.987 315.88 258.513 315.88 259.14C315.88 259.74 316.06 260.26 316.42 260.7C316.78 261.127 317.28 261.46 317.92 261.7C318.573 261.927 319.327 262.04 320.18 262.04C321.047 262.04 321.8 261.927 322.44 261.7C323.093 261.46 323.593 261.127 323.94 260.7C324.3 260.26 324.48 259.74 324.48 259.14C324.48 258.513 324.3 257.987 323.94 257.56C323.593 257.133 323.093 256.807 322.44 256.58C321.8 256.34 321.047 256.22 320.18 256.22ZM330.639 268.604C330.639 268.174 330.782 267.816 331.068 267.529C331.355 267.236 331.742 267.09 332.23 267.09C332.719 267.09 333.106 267.236 333.393 267.529C333.679 267.816 333.822 268.174 333.822 268.604C333.822 269.033 333.679 269.391 333.393 269.678C333.106 269.964 332.719 270.107 332.23 270.107C331.742 270.107 331.355 269.964 331.068 269.678C330.782 269.391 330.639 269.033 330.639 268.604Z" fill="black"/>
<path d="M27.416 12.0469V12.7578L23.2939 22H21.9609L26.0762 13.0859H20.6895V12.0469H27.416ZM28.9404 21.3301C28.9404 21.1159 29.0065 20.9359 29.1387 20.79C29.2754 20.6396 29.4714 20.5645 29.7266 20.5645C29.9818 20.5645 30.1755 20.6396 30.3076 20.79C30.4443 20.9359 30.5127 21.1159 30.5127 21.3301C30.5127 21.5397 30.4443 21.7174 30.3076 21.8633C30.1755 22.0091 29.9818 22.082 29.7266 22.082C29.4714 22.082 29.2754 22.0091 29.1387 21.8633C29.0065 21.7174 28.9404 21.5397 28.9404 21.3301ZM28.9473 15.2939C28.9473 15.0798 29.0133 14.8997 29.1455 14.7539C29.2822 14.6035 29.4782 14.5283 29.7334 14.5283C29.9886 14.5283 30.1823 14.6035 30.3145 14.7539C30.4512 14.8997 30.5195 15.0798 30.5195 15.2939C30.5195 15.5036 30.4512 15.6813 30.3145 15.8271C30.1823 15.973 29.9886 16.0459 29.7334 16.0459C29.4782 16.0459 29.2822 15.973 29.1455 15.8271C29.0133 15.6813 28.9473 15.5036 28.9473 15.2939ZM34.0947 16.4014H34.9971C35.4391 16.4014 35.8037 16.3285 36.0908 16.1826C36.3825 16.0322 36.599 15.8294 36.7402 15.5742C36.8861 15.3145 36.959 15.0228 36.959 14.6992C36.959 14.3164 36.8952 13.9951 36.7676 13.7354C36.64 13.4756 36.4486 13.2796 36.1934 13.1475C35.9382 13.0153 35.6146 12.9492 35.2227 12.9492C34.8672 12.9492 34.5527 13.0199 34.2793 13.1611C34.0104 13.2979 33.7985 13.4938 33.6436 13.749C33.4932 14.0042 33.418 14.305 33.418 14.6514H32.1533C32.1533 14.1455 32.2809 13.6852 32.5361 13.2705C32.7913 12.8558 33.1491 12.5254 33.6094 12.2793C34.0742 12.0332 34.612 11.9102 35.2227 11.9102C35.8242 11.9102 36.3506 12.0173 36.8018 12.2314C37.2529 12.4411 37.6038 12.7555 37.8545 13.1748C38.1051 13.5895 38.2305 14.1068 38.2305 14.7266C38.2305 14.9772 38.1712 15.2461 38.0527 15.5332C37.9388 15.8158 37.7588 16.0801 37.5127 16.3262C37.2712 16.5723 36.9567 16.7751 36.5693 16.9346C36.182 17.0895 35.7171 17.167 35.1748 17.167H34.0947V16.4014ZM34.0947 17.4404V16.6816H35.1748C35.8083 16.6816 36.3324 16.7568 36.7471 16.9072C37.1618 17.0576 37.4876 17.2581 37.7246 17.5088C37.9661 17.7594 38.1348 18.0352 38.2305 18.3359C38.3307 18.6322 38.3809 18.9284 38.3809 19.2246C38.3809 19.6895 38.3011 20.1019 38.1416 20.4619C37.9867 20.8219 37.7656 21.1273 37.4785 21.3779C37.196 21.6286 36.8633 21.8177 36.4805 21.9453C36.0977 22.0729 35.6807 22.1367 35.2295 22.1367C34.7965 22.1367 34.3887 22.0752 34.0059 21.9521C33.6276 21.8291 33.2926 21.6514 33.001 21.4189C32.7093 21.182 32.4814 20.8926 32.3174 20.5508C32.1533 20.2044 32.0713 19.8102 32.0713 19.3682H33.3359C33.3359 19.7145 33.4111 20.0176 33.5615 20.2773C33.7165 20.5371 33.9352 20.7399 34.2178 20.8857C34.5049 21.027 34.8421 21.0977 35.2295 21.0977C35.6169 21.0977 35.9495 21.0316 36.2275 20.8994C36.5101 20.7627 36.7266 20.5576 36.877 20.2842C37.0319 20.0107 37.1094 19.6667 37.1094 19.252C37.1094 18.8372 37.0228 18.4977 36.8496 18.2334C36.6764 17.9645 36.4303 17.7663 36.1113 17.6387C35.7969 17.5065 35.4255 17.4404 34.9971 17.4404H34.0947ZM46.3721 16.2305V17.748C46.3721 18.5638 46.2992 19.252 46.1533 19.8125C46.0075 20.373 45.7979 20.8242 45.5244 21.166C45.251 21.5078 44.9206 21.7562 44.5332 21.9111C44.1504 22.0615 43.7174 22.1367 43.2344 22.1367C42.8516 22.1367 42.4984 22.0889 42.1748 21.9932C41.8512 21.8975 41.5596 21.7448 41.2998 21.5352C41.0446 21.321 40.8258 21.043 40.6436 20.7012C40.4613 20.3594 40.3223 19.9447 40.2266 19.457C40.1309 18.9694 40.083 18.3997 40.083 17.748V16.2305C40.083 15.4147 40.1559 14.7311 40.3018 14.1797C40.4521 13.6283 40.6641 13.1862 40.9375 12.8535C41.2109 12.5163 41.5391 12.2747 41.9219 12.1289C42.3092 11.9831 42.7422 11.9102 43.2207 11.9102C43.6081 11.9102 43.9635 11.958 44.2871 12.0537C44.6152 12.1449 44.9069 12.293 45.1621 12.498C45.4173 12.6986 45.6338 12.9674 45.8115 13.3047C45.9938 13.6374 46.1328 14.0452 46.2285 14.5283C46.3242 15.0114 46.3721 15.5788 46.3721 16.2305ZM45.1006 17.9531V16.0186C45.1006 15.5719 45.0732 15.18 45.0186 14.8428C44.9684 14.501 44.8932 14.2093 44.793 13.9678C44.6927 13.7262 44.5651 13.5303 44.4102 13.3799C44.2598 13.2295 44.0843 13.1201 43.8838 13.0518C43.6878 12.9788 43.4668 12.9424 43.2207 12.9424C42.9199 12.9424 42.6533 12.9993 42.4209 13.1133C42.1885 13.2227 41.9925 13.3981 41.833 13.6396C41.6781 13.8812 41.5596 14.1979 41.4775 14.5898C41.3955 14.9818 41.3545 15.458 41.3545 16.0186V17.9531C41.3545 18.3997 41.3796 18.7939 41.4297 19.1357C41.4844 19.4775 41.5641 19.7738 41.6689 20.0244C41.7738 20.2705 41.9014 20.4733 42.0518 20.6328C42.2021 20.7923 42.3753 20.9108 42.5713 20.9883C42.7718 21.0612 42.9928 21.0977 43.2344 21.0977C43.5443 21.0977 43.8154 21.0384 44.0479 20.9199C44.2803 20.8014 44.474 20.6169 44.6289 20.3662C44.7884 20.111 44.9069 19.7852 44.9844 19.3887C45.0618 18.9876 45.1006 18.5091 45.1006 17.9531ZM55.4844 12.9287L52.1895 22H50.8428L54.6367 12.0469H55.5049L55.4844 12.9287ZM58.2461 22L54.9443 12.9287L54.9238 12.0469H55.792L59.5996 22H58.2461ZM58.0752 18.3154V19.3955H52.4834V18.3154H58.0752ZM61.3496 12.0469H62.6279L65.8887 20.1611L69.1426 12.0469H70.4277L66.3809 22H65.3828L61.3496 12.0469ZM60.9326 12.0469H62.0605L62.2451 18.1172V22H60.9326V12.0469ZM69.71 12.0469H70.8379V22H69.5254V18.1172L69.71 12.0469Z" fill="#0C0C0C"/>
<path d="M322.792 12.9478L324.375 14.5311C328.31 10.5966 334.69 10.5966 338.625 14.5311L340.208 12.9478C335.403 8.1424 327.605 8.1424 322.792 12.9478ZM329.125 19.2811L331.5 21.6561L333.875 19.2811C332.569 17.967 330.439 17.967 329.125 19.2811ZM325.958 16.1145L327.542 17.6978C329.727 15.5128 333.273 15.5128 335.458 17.6978L337.042 16.1145C333.986 13.0586 329.022 13.0586 325.958 16.1145Z" fill="#0C0C0C"/>
<path d="M362.75 9.3335H365.25V22.6668H362.75V9.3335ZM352.75 17.6668H355.25V22.6668H352.75V17.6668ZM357.75 13.5002H360.25V22.6668H357.75V13.5002Z" fill="#0C0C0C"/>
<path d="M391.362 9.55847L391.1 24.4572L382.823 24.3114L383.085 9.41273L385.568 9.45645L385.598 7.80104L388.908 7.85934L388.879 9.51475L391.362 9.55847ZM389.678 11.1847L384.712 11.0973L384.653 14.4081L389.62 14.4956L389.678 11.1847Z" fill="#0C0C0C"/>
<g opacity="0.4">
<rect x="47" y="769" width="317" height="50" rx="8" fill="#8C8C8C"/>
<path d="M134.965 788.98H138.965V790.34H134.965V788.98ZM134.825 793.52H138.925V794.88H134.825V793.52ZM141.725 783.96H143.325V802.06H141.725V783.96ZM138.085 784.44H139.665V801.14H138.085V784.44ZM134.065 786.26H135.665C135.665 787.833 135.439 789.347 134.985 790.8C134.532 792.24 133.805 793.587 132.805 794.84C131.819 796.08 130.519 797.187 128.905 798.16L127.925 796.96C129.339 796.107 130.499 795.147 131.405 794.08C132.312 793 132.979 791.833 133.405 790.58C133.845 789.313 134.065 787.973 134.065 786.56V786.26ZM128.725 786.26H134.705V787.62H128.725V786.26ZM150.984 786.14H152.344V787.2C152.344 788.253 152.13 789.233 151.704 790.14C151.277 791.033 150.684 791.807 149.924 792.46C149.164 793.113 148.277 793.607 147.264 793.94L146.424 792.64C147.33 792.347 148.124 791.933 148.804 791.4C149.484 790.853 150.017 790.22 150.404 789.5C150.79 788.78 150.984 788.013 150.984 787.2V786.14ZM151.304 786.14H152.664V787.2C152.664 787.96 152.844 788.68 153.204 789.36C153.577 790.04 154.097 790.64 154.764 791.16C155.444 791.667 156.224 792.06 157.104 792.34L156.304 793.64C155.304 793.32 154.43 792.847 153.684 792.22C152.937 791.593 152.35 790.853 151.924 790C151.51 789.133 151.304 788.2 151.304 787.2V786.14ZM146.964 785.64H156.664V787.02H146.964V785.64ZM151.004 793.2H152.664V797.4H151.004V793.2ZM159.764 791.46H163.104V792.88H159.764V791.46ZM158.584 783.96H160.224V802.06H158.584V783.96ZM146.364 798.28L146.124 796.9C147.19 796.9 148.364 796.893 149.644 796.88C150.924 796.853 152.23 796.807 153.564 796.74C154.91 796.66 156.204 796.533 157.444 796.36L157.564 797.58C156.284 797.807 154.977 797.973 153.644 798.08C152.324 798.173 151.037 798.233 149.784 798.26C148.544 798.273 147.404 798.28 146.364 798.28ZM182.863 783.98H184.523V797.18H182.863V783.98ZM172.903 800.3H185.083V801.66H172.903V800.3ZM172.903 795.84H174.563V800.76H172.903V795.84ZM174.823 785.24C175.73 785.24 176.536 785.427 177.243 785.8C177.95 786.173 178.51 786.7 178.923 787.38C179.336 788.047 179.543 788.813 179.543 789.68C179.543 790.547 179.336 791.32 178.923 792C178.51 792.667 177.95 793.193 177.243 793.58C176.536 793.953 175.73 794.14 174.823 794.14C173.93 794.14 173.123 793.953 172.403 793.58C171.696 793.193 171.136 792.667 170.723 792C170.31 791.32 170.103 790.547 170.103 789.68C170.103 788.813 170.31 788.047 170.723 787.38C171.136 786.7 171.696 786.173 172.403 785.8C173.123 785.427 173.93 785.24 174.823 785.24ZM174.823 786.68C174.236 786.68 173.71 786.807 173.243 787.06C172.776 787.313 172.403 787.667 172.123 788.12C171.856 788.573 171.723 789.093 171.723 789.68C171.723 790.28 171.856 790.807 172.123 791.26C172.403 791.7 172.776 792.047 173.243 792.3C173.71 792.553 174.236 792.68 174.823 792.68C175.41 792.68 175.936 792.553 176.403 792.3C176.883 792.047 177.256 791.7 177.523 791.26C177.79 790.807 177.923 790.28 177.923 789.68C177.923 789.093 177.79 788.573 177.523 788.12C177.256 787.667 176.883 787.313 176.403 787.06C175.936 786.807 175.41 786.68 174.823 786.68ZM188.102 792.56H204.442V793.92H188.102V792.56ZM196.262 795.48C198.195 795.48 199.708 795.767 200.802 796.34C201.895 796.913 202.442 797.72 202.442 798.76C202.442 799.8 201.895 800.6 200.802 801.16C199.708 801.733 198.195 802.02 196.262 802.02C194.328 802.02 192.808 801.733 191.702 801.16C190.608 800.6 190.062 799.8 190.062 798.76C190.062 797.72 190.608 796.913 191.702 796.34C192.808 795.767 194.328 795.48 196.262 795.48ZM196.262 796.8C195.315 796.8 194.502 796.873 193.822 797.02C193.155 797.167 192.642 797.387 192.282 797.68C191.922 797.973 191.742 798.333 191.742 798.76C191.742 799.173 191.922 799.527 192.282 799.82C192.642 800.1 193.155 800.32 193.822 800.48C194.502 800.627 195.315 800.7 196.262 800.7C197.208 800.7 198.015 800.627 198.682 800.48C199.362 800.32 199.882 800.1 200.242 799.82C200.602 799.527 200.782 799.173 200.782 798.76C200.782 798.333 200.602 797.973 200.242 797.68C199.882 797.387 199.362 797.167 198.682 797.02C198.015 796.873 197.208 796.8 196.262 796.8ZM195.202 785.6H196.662V786.14C196.662 786.727 196.535 787.273 196.282 787.78C196.042 788.273 195.702 788.727 195.262 789.14C194.822 789.553 194.302 789.92 193.702 790.24C193.115 790.56 192.475 790.827 191.782 791.04C191.088 791.24 190.362 791.387 189.602 791.48L189.002 790.16C189.655 790.093 190.282 789.973 190.882 789.8C191.495 789.627 192.062 789.42 192.582 789.18C193.115 788.927 193.575 788.647 193.962 788.34C194.348 788.02 194.648 787.68 194.862 787.32C195.088 786.947 195.202 786.553 195.202 786.14V785.6ZM195.882 785.6H197.342V786.14C197.342 786.553 197.448 786.947 197.662 787.32C197.888 787.68 198.195 788.02 198.582 788.34C198.968 788.66 199.422 788.947 199.942 789.2C200.475 789.44 201.042 789.647 201.642 789.82C202.255 789.98 202.888 790.093 203.542 790.16L202.942 791.48C202.182 791.387 201.455 791.24 200.762 791.04C200.068 790.827 199.422 790.56 198.822 790.24C198.235 789.92 197.722 789.553 197.282 789.14C196.842 788.727 196.495 788.267 196.242 787.76C196.002 787.253 195.882 786.713 195.882 786.14V785.6ZM189.602 784.88H202.962V786.24H189.602V784.88ZM215.481 793.28H217.121V798.68H215.481V793.28ZM222.161 793.28H223.821V798.68H222.161V793.28ZM211.461 798.36H227.861V799.74H211.461V798.36ZM219.621 785.1C220.901 785.1 222.034 785.293 223.021 785.68C224.008 786.067 224.781 786.607 225.341 787.3C225.914 787.993 226.201 788.813 226.201 789.76C226.201 790.693 225.914 791.513 225.341 792.22C224.781 792.913 224.008 793.453 223.021 793.84C222.034 794.213 220.901 794.4 219.621 794.4C218.354 794.4 217.221 794.213 216.221 793.84C215.234 793.453 214.461 792.913 213.901 792.22C213.341 791.513 213.061 790.693 213.061 789.76C213.061 788.813 213.341 787.993 213.901 787.3C214.461 786.607 215.234 786.067 216.221 785.68C217.221 785.293 218.354 785.1 219.621 785.1ZM219.621 786.42C218.661 786.42 217.808 786.56 217.061 786.84C216.314 787.12 215.728 787.513 215.301 788.02C214.874 788.513 214.661 789.093 214.661 789.76C214.661 790.427 214.874 791.013 215.301 791.52C215.728 792.013 216.314 792.4 217.061 792.68C217.808 792.96 218.661 793.1 219.621 793.1C220.594 793.1 221.454 792.96 222.201 792.68C222.948 792.4 223.534 792.013 223.961 791.52C224.388 791.013 224.601 790.427 224.601 789.76C224.601 789.093 224.388 788.513 223.961 788.02C223.534 787.513 222.948 787.12 222.201 786.84C221.454 786.56 220.594 786.42 219.621 786.42ZM234.379 787.06H235.719V787.82C235.719 788.873 235.513 789.853 235.099 790.76C234.686 791.653 234.099 792.44 233.339 793.12C232.593 793.787 231.713 794.293 230.699 794.64L229.899 793.34C230.793 793.047 231.573 792.627 232.239 792.08C232.906 791.52 233.426 790.873 233.799 790.14C234.186 789.407 234.379 788.633 234.379 787.82V787.06ZM234.659 787.06H236.019V787.82C236.019 788.38 236.126 788.92 236.339 789.44C236.566 789.96 236.879 790.447 237.279 790.9C237.679 791.34 238.159 791.727 238.719 792.06C239.279 792.393 239.893 792.66 240.559 792.86L239.779 794.16C238.766 793.853 237.873 793.393 237.099 792.78C236.339 792.153 235.739 791.42 235.299 790.58C234.873 789.727 234.659 788.807 234.659 787.82V787.06ZM230.359 786.14H240.019V787.48H230.359V786.14ZM234.379 783.88H236.039V786.62H234.379V783.88ZM239.459 789.12H243.539V790.48H239.459V789.12ZM243.079 783.96H244.739V794.92H243.079V783.96ZM238.779 795.4C240.659 795.4 242.133 795.693 243.199 796.28C244.266 796.853 244.799 797.66 244.799 798.7C244.799 799.74 244.266 800.553 243.199 801.14C242.133 801.727 240.659 802.02 238.779 802.02C236.913 802.02 235.439 801.727 234.359 801.14C233.293 800.553 232.759 799.74 232.759 798.7C232.759 797.66 233.293 796.853 234.359 796.28C235.439 795.693 236.913 795.4 238.779 795.4ZM238.779 796.7C237.873 796.7 237.093 796.78 236.439 796.94C235.786 797.087 235.279 797.313 234.919 797.62C234.573 797.913 234.399 798.273 234.399 798.7C234.399 799.127 234.573 799.493 234.919 799.8C235.279 800.093 235.786 800.32 236.439 800.48C237.093 800.64 237.873 800.72 238.779 800.72C239.699 800.72 240.479 800.64 241.119 800.48C241.773 800.32 242.273 800.093 242.619 799.8C242.979 799.493 243.159 799.127 243.159 798.7C243.159 798.273 242.979 797.913 242.619 797.62C242.273 797.313 241.773 797.087 241.119 796.94C240.479 796.78 239.699 796.7 238.779 796.7ZM260.518 783.96H262.158V802.06H260.518V783.96ZM261.778 791.4H265.118V792.8H261.778V791.4ZM248.158 786.86H258.818V788.22H248.158V786.86ZM253.578 789.7C254.431 789.7 255.184 789.88 255.838 790.24C256.504 790.6 257.024 791.093 257.398 791.72C257.784 792.333 257.978 793.047 257.978 793.86C257.978 794.673 257.784 795.393 257.398 796.02C257.024 796.647 256.504 797.14 255.838 797.5C255.184 797.847 254.431 798.02 253.578 798.02C252.724 798.02 251.964 797.847 251.298 797.5C250.644 797.14 250.124 796.647 249.738 796.02C249.351 795.393 249.158 794.673 249.158 793.86C249.158 793.047 249.351 792.333 249.738 791.72C250.124 791.093 250.644 790.6 251.298 790.24C251.964 789.88 252.724 789.7 253.578 789.7ZM253.578 791.08C253.031 791.08 252.544 791.2 252.118 791.44C251.691 791.68 251.351 792.007 251.098 792.42C250.858 792.833 250.738 793.313 250.738 793.86C250.738 794.407 250.858 794.893 251.098 795.32C251.351 795.733 251.691 796.06 252.118 796.3C252.544 796.527 253.031 796.64 253.578 796.64C254.111 796.64 254.591 796.527 255.018 796.3C255.444 796.06 255.778 795.733 256.018 795.32C256.271 794.893 256.398 794.407 256.398 793.86C256.398 793.313 256.271 792.833 256.018 792.42C255.778 792.007 255.444 791.68 255.018 791.44C254.591 791.2 254.111 791.08 253.578 791.08ZM252.718 784.18H254.378V787.46H252.718V784.18ZM279.836 783.96H281.496V802.06H279.836V783.96ZM274.536 785.92H276.176C276.176 787.227 276.016 788.487 275.696 789.7C275.39 790.913 274.903 792.067 274.236 793.16C273.57 794.24 272.703 795.247 271.636 796.18C270.57 797.113 269.276 797.947 267.756 798.68L266.876 797.34C268.623 796.5 270.063 795.52 271.196 794.4C272.33 793.28 273.17 792.033 273.716 790.66C274.263 789.273 274.536 787.78 274.536 786.18V785.92ZM267.716 785.92H275.236V787.26H267.716V785.92Z" fill="white"/>
</g>
<defs>
<filter id="filter0_d_306_1909" x="227" y="383.295" width="20" height="15.4099" filterUnits="userSpaceOnUse" color-interpolation-filters="sRGB">
<feFlood flood-opacity="0" result="BackgroundImageFix"/>
<feColorMatrix in="SourceAlpha" type="matrix" values="0 0 0 0 0 0 0 0 0 0 0 0 0 0 0 0 0 0 127 0" result="hardAlpha"/>
<feOffset dy="4"/>
<feGaussianBlur stdDeviation="2"/>
<feComposite in2="hardAlpha" operator="out"/>
<feColorMatrix type="matrix" values="0 0 0 0 0 0 0 0 0 0 0 0 0 0 0 0 0 0 0.25 0"/>
<feBlend mode="normal" in2="BackgroundImageFix" result="effect1_dropShadow_306_1909"/>
<feBlend mode="normal" in="SourceGraphic" in2="effect1_dropShadow_306_1909" result="shape"/>
</filter>
</defs>
</svg>
