<svg width="412" height="917" viewBox="0 0 412 917" fill="none" xmlns="http://www.w3.org/2000/svg">
<rect width="412" height="917" fill="white"/>
<path d="M56.496 336.088H57.492V344.008H56.496V336.088ZM50.52 345.88H57.828V346.696H50.52V345.88ZM50.52 343.204H51.516V346.156H50.52V343.204ZM51.672 336.844C52.216 336.844 52.7 336.956 53.124 337.18C53.548 337.404 53.884 337.72 54.132 338.128C54.38 338.528 54.504 338.988 54.504 339.508C54.504 340.028 54.38 340.492 54.132 340.9C53.884 341.3 53.548 341.616 53.124 341.848C52.7 342.072 52.216 342.184 51.672 342.184C51.136 342.184 50.652 342.072 50.22 341.848C49.796 341.616 49.46 341.3 49.212 340.9C48.964 340.492 48.84 340.028 48.84 339.508C48.84 338.988 48.964 338.528 49.212 338.128C49.46 337.72 49.796 337.404 50.22 337.18C50.652 336.956 51.136 336.844 51.672 336.844ZM51.672 337.708C51.32 337.708 51.004 337.784 50.724 337.936C50.444 338.088 50.22 338.3 50.052 338.572C49.892 338.844 49.812 339.156 49.812 339.508C49.812 339.868 49.892 340.184 50.052 340.456C50.22 340.72 50.444 340.928 50.724 341.08C51.004 341.232 51.32 341.308 51.672 341.308C52.024 341.308 52.34 341.232 52.62 341.08C52.908 340.928 53.132 340.72 53.292 340.456C53.452 340.184 53.532 339.868 53.532 339.508C53.532 339.156 53.452 338.844 53.292 338.572C53.132 338.3 52.908 338.088 52.62 337.936C52.34 337.784 52.024 337.708 51.672 337.708ZM59.6391 341.236H69.4431V342.052H59.6391V341.236ZM64.5351 342.988C65.6951 342.988 66.6031 343.16 67.2591 343.504C67.9151 343.848 68.2431 344.332 68.2431 344.956C68.2431 345.58 67.9151 346.06 67.2591 346.396C66.6031 346.74 65.6951 346.912 64.5351 346.912C63.3751 346.912 62.4631 346.74 61.7991 346.396C61.1431 346.06 60.8151 345.58 60.8151 344.956C60.8151 344.332 61.1431 343.848 61.7991 343.504C62.4631 343.16 63.3751 342.988 64.5351 342.988ZM64.5351 343.78C63.9671 343.78 63.4791 343.824 63.0711 343.912C62.6711 344 62.3631 344.132 62.1471 344.308C61.9311 344.484 61.8231 344.7 61.8231 344.956C61.8231 345.204 61.9311 345.416 62.1471 345.592C62.3631 345.76 62.6711 345.892 63.0711 345.988C63.4791 346.076 63.9671 346.12 64.5351 346.12C65.1031 346.12 65.5871 346.076 65.9871 345.988C66.3951 345.892 66.7071 345.76 66.9231 345.592C67.1391 345.416 67.2471 345.204 67.2471 344.956C67.2471 344.7 67.1391 344.484 66.9231 344.308C66.7071 344.132 66.3951 344 65.9871 343.912C65.5871 343.824 65.1031 343.78 64.5351 343.78ZM63.8991 337.06H64.7751V337.384C64.7751 337.736 64.6991 338.064 64.5471 338.368C64.4031 338.664 64.1991 338.936 63.9351 339.184C63.6711 339.432 63.3591 339.652 62.9991 339.844C62.6471 340.036 62.2631 340.196 61.8471 340.324C61.4311 340.444 60.9951 340.532 60.5391 340.588L60.1791 339.796C60.5711 339.756 60.9471 339.684 61.3071 339.58C61.6751 339.476 62.0151 339.352 62.3271 339.208C62.6471 339.056 62.9231 338.888 63.1551 338.704C63.3871 338.512 63.5671 338.308 63.6951 338.092C63.8311 337.868 63.8991 337.632 63.8991 337.384V337.06ZM64.3071 337.06H65.1831V337.384C65.1831 337.632 65.2471 337.868 65.3751 338.092C65.5111 338.308 65.6951 338.512 65.9271 338.704C66.1591 338.896 66.4311 339.068 66.7431 339.22C67.0631 339.364 67.4031 339.488 67.7631 339.592C68.1311 339.688 68.5111 339.756 68.9031 339.796L68.5431 340.588C68.0871 340.532 67.6511 340.444 67.2351 340.324C66.8191 340.196 66.4311 340.036 66.0711 339.844C65.7191 339.652 65.4111 339.432 65.1471 339.184C64.8831 338.936 64.6751 338.66 64.5231 338.356C64.3791 338.052 64.3071 337.728 64.3071 337.384V337.06ZM60.5391 336.628H68.5551V337.444H60.5391V336.628ZM78.9779 339.136H82.0859V339.952H78.9779V339.136ZM81.7859 336.088H82.7819V344.116H81.7859V336.088ZM75.8099 345.88H83.0339V346.696H75.8099V345.88ZM75.8099 343.336H76.8059V346.288H75.8099V343.336ZM74.3819 336.808H75.3779V338.716H78.3059V336.808H79.2899V342.268H74.3819V336.808ZM75.3779 339.496V341.464H78.3059V339.496H75.3779ZM85.373 337.672H94.193V338.488H85.373V337.672ZM84.893 344.848H94.733V345.664H84.893V344.848ZM89.297 343.12H90.281V345.16H89.297V343.12ZM89.789 339.208C90.517 339.208 91.145 339.292 91.673 339.46C92.209 339.62 92.621 339.852 92.909 340.156C93.197 340.46 93.341 340.832 93.341 341.272C93.341 341.704 93.197 342.076 92.909 342.388C92.621 342.7 92.209 342.94 91.673 343.108C91.145 343.268 90.517 343.348 89.789 343.348C89.061 343.348 88.429 343.268 87.893 343.108C87.365 342.94 86.957 342.7 86.669 342.388C86.381 342.076 86.237 341.704 86.237 341.272C86.237 340.832 86.381 340.46 86.669 340.156C86.957 339.852 87.365 339.62 87.893 339.46C88.429 339.292 89.061 339.208 89.789 339.208ZM89.789 340C89.261 340 88.805 340.052 88.421 340.156C88.045 340.252 87.753 340.396 87.545 340.588C87.345 340.772 87.245 341 87.245 341.272C87.245 341.536 87.345 341.764 87.545 341.956C87.753 342.148 88.045 342.296 88.421 342.4C88.805 342.496 89.261 342.544 89.789 342.544C90.317 342.544 90.769 342.496 91.145 342.4C91.521 342.296 91.813 342.148 92.021 341.956C92.229 341.764 92.333 341.536 92.333 341.272C92.333 341 92.229 340.772 92.021 340.588C91.813 340.396 91.521 340.252 91.145 340.156C90.769 340.052 90.317 340 89.789 340ZM89.297 336.256H90.281V338.164H89.297V336.256Z" fill="#404040"/>
<rect x="48" y="353" width="29" height="39" rx="8" fill="#FBFCFB"/>
<path d="M66.2969 366.625V367.438L61.5859 378H60.0625L64.7656 367.812H58.6094V366.625H66.2969Z" fill="black"/>
<rect x="106" y="353" width="29" height="39" rx="8" fill="#FBFCFB"/>
<path d="M124.633 374.172V375.359H116.414V374.508L121.508 366.625H122.688L121.422 368.906L118.055 374.172H124.633ZM123.047 366.625V378H121.602V366.625H123.047Z" fill="black"/>
<rect x="164" y="353" width="29" height="39" rx="8" fill="#FBFCFB"/>
<path d="M182.398 376.812V378H174.953V376.961L178.68 372.812C179.138 372.302 179.492 371.87 179.742 371.516C179.997 371.156 180.174 370.836 180.273 370.555C180.378 370.268 180.43 369.977 180.43 369.68C180.43 369.305 180.352 368.966 180.195 368.664C180.044 368.357 179.82 368.112 179.523 367.93C179.227 367.747 178.867 367.656 178.445 367.656C177.94 367.656 177.518 367.755 177.18 367.953C176.846 368.146 176.596 368.417 176.43 368.766C176.263 369.115 176.18 369.516 176.18 369.969H174.734C174.734 369.328 174.875 368.742 175.156 368.211C175.438 367.68 175.854 367.258 176.406 366.945C176.958 366.628 177.638 366.469 178.445 366.469C179.164 366.469 179.779 366.596 180.289 366.852C180.799 367.102 181.19 367.456 181.461 367.914C181.737 368.367 181.875 368.898 181.875 369.508C181.875 369.841 181.818 370.18 181.703 370.523C181.594 370.862 181.44 371.201 181.242 371.539C181.049 371.878 180.823 372.211 180.562 372.539C180.307 372.867 180.034 373.19 179.742 373.508L176.695 376.812H182.398Z" fill="black"/>
<rect x="222" y="353" width="29" height="39" rx="8" fill="#FBFCFB"/>
<path d="M234.773 372.586L233.617 372.289L234.188 366.625H240.023V367.961H235.414L235.07 371.055C235.279 370.935 235.542 370.823 235.859 370.719C236.182 370.615 236.552 370.562 236.969 370.562C237.495 370.562 237.966 370.654 238.383 370.836C238.799 371.013 239.154 371.268 239.445 371.602C239.742 371.935 239.969 372.336 240.125 372.805C240.281 373.273 240.359 373.797 240.359 374.375C240.359 374.922 240.284 375.424 240.133 375.883C239.987 376.341 239.766 376.742 239.469 377.086C239.172 377.424 238.797 377.688 238.344 377.875C237.896 378.062 237.367 378.156 236.758 378.156C236.299 378.156 235.865 378.094 235.453 377.969C235.047 377.839 234.682 377.643 234.359 377.383C234.042 377.117 233.781 376.789 233.578 376.398C233.38 376.003 233.255 375.539 233.203 375.008H234.578C234.641 375.435 234.766 375.794 234.953 376.086C235.141 376.378 235.385 376.599 235.688 376.75C235.995 376.896 236.352 376.969 236.758 376.969C237.102 376.969 237.406 376.909 237.672 376.789C237.938 376.669 238.161 376.497 238.344 376.273C238.526 376.049 238.664 375.779 238.758 375.461C238.857 375.143 238.906 374.786 238.906 374.391C238.906 374.031 238.857 373.698 238.758 373.391C238.659 373.083 238.51 372.815 238.312 372.586C238.12 372.357 237.883 372.18 237.602 372.055C237.32 371.924 236.997 371.859 236.633 371.859C236.148 371.859 235.781 371.924 235.531 372.055C235.286 372.185 235.034 372.362 234.773 372.586Z" fill="black"/>
<g filter="url(#filter0_d_291_1535)">
<rect x="280" y="353" width="29" height="39" rx="8" fill="#FBFCFB" shape-rendering="crispEdges"/>
<rect x="280.5" y="353.5" width="28" height="38" rx="7.5" stroke="#2383BD" shape-rendering="crispEdges"/>
<path d="M298.086 371.406V373.141C298.086 374.073 298.003 374.859 297.836 375.5C297.669 376.141 297.43 376.656 297.117 377.047C296.805 377.438 296.427 377.721 295.984 377.898C295.547 378.07 295.052 378.156 294.5 378.156C294.062 378.156 293.659 378.102 293.289 377.992C292.919 377.883 292.586 377.708 292.289 377.469C291.997 377.224 291.747 376.906 291.539 376.516C291.331 376.125 291.172 375.651 291.062 375.094C290.953 374.536 290.898 373.885 290.898 373.141V371.406C290.898 370.474 290.982 369.693 291.148 369.062C291.32 368.432 291.562 367.927 291.875 367.547C292.188 367.161 292.562 366.885 293 366.719C293.443 366.552 293.938 366.469 294.484 366.469C294.927 366.469 295.333 366.523 295.703 366.633C296.078 366.737 296.411 366.906 296.703 367.141C296.995 367.37 297.242 367.677 297.445 368.062C297.654 368.443 297.812 368.909 297.922 369.461C298.031 370.013 298.086 370.661 298.086 371.406ZM296.633 373.375V371.164C296.633 370.654 296.602 370.206 296.539 369.82C296.482 369.43 296.396 369.096 296.281 368.82C296.167 368.544 296.021 368.32 295.844 368.148C295.672 367.977 295.471 367.852 295.242 367.773C295.018 367.69 294.766 367.648 294.484 367.648C294.141 367.648 293.836 367.714 293.57 367.844C293.305 367.969 293.081 368.169 292.898 368.445C292.721 368.721 292.586 369.083 292.492 369.531C292.398 369.979 292.352 370.523 292.352 371.164V373.375C292.352 373.885 292.38 374.336 292.438 374.727C292.5 375.117 292.591 375.456 292.711 375.742C292.831 376.023 292.977 376.255 293.148 376.438C293.32 376.62 293.518 376.755 293.742 376.844C293.971 376.927 294.224 376.969 294.5 376.969C294.854 376.969 295.164 376.901 295.43 376.766C295.695 376.63 295.917 376.419 296.094 376.133C296.276 375.841 296.411 375.469 296.5 375.016C296.589 374.557 296.633 374.01 296.633 373.375Z" fill="black"/>
</g>
<rect x="338" y="353" width="29" height="39" rx="8" fill="#FBFCFB"/>
<path d="M85.5673 219.26H88.2273V232.56H85.5673V219.26ZM75.8873 235.32H88.7073V237.46H75.8873V235.32ZM75.8873 231.24H78.5473V236.2H75.8873V231.24ZM78.1473 220.44C79.094 220.44 79.9473 220.64 80.7073 221.04C81.4673 221.44 82.0673 221.993 82.5073 222.7C82.9607 223.407 83.1873 224.22 83.1873 225.14C83.1873 226.033 82.9607 226.84 82.5073 227.56C82.0673 228.267 81.4673 228.827 80.7073 229.24C79.9473 229.64 79.094 229.84 78.1473 229.84C77.2007 229.84 76.3473 229.64 75.5873 229.24C74.8273 228.827 74.2207 228.267 73.7673 227.56C73.3273 226.84 73.1073 226.033 73.1073 225.14C73.1073 224.22 73.3273 223.407 73.7673 222.7C74.2207 221.993 74.8273 221.44 75.5873 221.04C76.3473 220.64 77.2007 220.44 78.1473 220.44ZM78.1473 222.72C77.694 222.72 77.2807 222.82 76.9073 223.02C76.534 223.207 76.2407 223.48 76.0273 223.84C75.814 224.187 75.7073 224.62 75.7073 225.14C75.7073 225.633 75.814 226.06 76.0273 226.42C76.2407 226.767 76.534 227.04 76.9073 227.24C77.2807 227.427 77.694 227.52 78.1473 227.52C78.6007 227.52 79.014 227.427 79.3873 227.24C79.7607 227.04 80.054 226.767 80.2673 226.42C80.4807 226.06 80.5873 225.633 80.5873 225.14C80.5873 224.62 80.4807 224.187 80.2673 223.84C80.054 223.48 79.7607 223.207 79.3873 223.02C79.014 222.82 78.6007 222.72 78.1473 222.72ZM91.2258 227.8H107.986V229.9H91.2258V227.8ZM99.5658 230.92C101.566 230.92 103.139 231.22 104.286 231.82C105.432 232.42 106.006 233.26 106.006 234.34C106.006 235.433 105.432 236.28 104.286 236.88C103.139 237.48 101.566 237.78 99.5658 237.78C97.5658 237.78 95.9924 237.48 94.8458 236.88C93.7124 236.28 93.1458 235.433 93.1458 234.34C93.1458 233.26 93.7124 232.42 94.8458 231.82C95.9924 231.22 97.5658 230.92 99.5658 230.92ZM99.5658 232.96C98.7391 232.96 98.0458 233.013 97.4858 233.12C96.9391 233.213 96.5258 233.36 96.2458 233.56C95.9658 233.76 95.8258 234.02 95.8258 234.34C95.8258 234.66 95.9658 234.927 96.2458 235.14C96.5258 235.34 96.9391 235.487 97.4858 235.58C98.0458 235.673 98.7391 235.72 99.5658 235.72C100.392 235.72 101.079 235.673 101.626 235.58C102.186 235.487 102.606 235.34 102.886 235.14C103.166 234.927 103.306 234.66 103.306 234.34C103.306 234.02 103.166 233.76 102.886 233.56C102.606 233.36 102.186 233.213 101.626 233.12C101.079 233.013 100.392 232.96 99.5658 232.96ZM97.7858 221.16H100.146V221.6C100.146 222.147 100.046 222.68 99.8458 223.2C99.6458 223.707 99.3458 224.18 98.9458 224.62C98.5591 225.047 98.0724 225.433 97.4858 225.78C96.8991 226.113 96.2191 226.393 95.4458 226.62C94.6724 226.847 93.8124 227.007 92.8658 227.1L91.9458 225.02C92.7591 224.953 93.4791 224.84 94.1058 224.68C94.7458 224.507 95.2924 224.307 95.7458 224.08C96.2124 223.84 96.5924 223.587 96.8858 223.32C97.1924 223.053 97.4191 222.773 97.5658 222.48C97.7124 222.173 97.7858 221.88 97.7858 221.6V221.16ZM99.0858 221.16H101.426V221.6C101.426 221.893 101.499 222.187 101.646 222.48C101.792 222.773 102.012 223.06 102.306 223.34C102.612 223.607 102.992 223.86 103.446 224.1C103.912 224.327 104.459 224.52 105.086 224.68C105.726 224.84 106.452 224.953 107.266 225.02L106.346 227.1C105.399 227.007 104.539 226.853 103.766 226.64C102.992 226.413 102.312 226.127 101.726 225.78C101.152 225.433 100.666 225.047 100.266 224.62C99.8791 224.18 99.5858 223.707 99.3858 223.2C99.1858 222.693 99.0858 222.16 99.0858 221.6V221.16ZM92.7658 220.12H106.486V222.22H92.7658V220.12ZM122.994 224.16H127.754V226.3H122.994V224.16ZM127.074 219.26H129.754V232.92H127.074V219.26ZM117.494 235.32H130.154V237.46H117.494V235.32ZM117.494 231.58H120.154V236.54H117.494V231.58ZM115.014 220.48H117.654V223.28H121.174V220.48H123.794V230.04H115.014V220.48ZM117.654 225.32V227.92H121.174V225.32H117.654ZM133.372 221.56H148.632V223.68H133.372V221.56ZM132.652 233.78H149.432V235.92H132.652V233.78ZM139.672 231.32H142.332V234.62H139.672V231.32ZM140.992 224.46C142.272 224.46 143.379 224.607 144.312 224.9C145.259 225.18 145.985 225.593 146.492 226.14C146.999 226.673 147.252 227.32 147.252 228.08C147.252 228.84 146.999 229.493 146.492 230.04C145.985 230.573 145.259 230.987 144.312 231.28C143.379 231.56 142.265 231.7 140.972 231.7C139.692 231.7 138.579 231.56 137.632 231.28C136.699 230.987 135.979 230.573 135.472 230.04C134.965 229.493 134.712 228.84 134.712 228.08C134.712 227.32 134.965 226.673 135.472 226.14C135.979 225.593 136.699 225.18 137.632 224.9C138.579 224.607 139.699 224.46 140.992 224.46ZM140.972 226.52C140.212 226.52 139.565 226.58 139.032 226.7C138.499 226.807 138.092 226.973 137.812 227.2C137.545 227.427 137.412 227.72 137.412 228.08C137.412 228.427 137.545 228.72 137.812 228.96C138.092 229.187 138.499 229.353 139.032 229.46C139.565 229.567 140.212 229.62 140.972 229.62C141.759 229.62 142.412 229.567 142.932 229.46C143.452 229.353 143.845 229.187 144.112 228.96C144.392 228.72 144.532 228.427 144.532 228.08C144.532 227.72 144.392 227.427 144.112 227.2C143.845 226.973 143.452 226.807 142.932 226.7C142.412 226.58 141.759 226.52 140.972 226.52ZM139.672 219.44H142.332V222.88H139.672V219.44ZM161.988 221.625H162.35V223.949H162.223C161.604 223.949 161.064 224.057 160.602 224.271C160.146 224.48 159.765 224.786 159.459 225.189C159.16 225.587 158.935 226.068 158.785 226.635C158.635 227.195 158.561 227.823 158.561 228.52V230.912C158.561 231.407 158.593 231.843 158.658 232.221C158.73 232.598 158.831 232.914 158.961 233.168C159.098 233.415 159.254 233.601 159.43 233.725C159.612 233.848 159.811 233.91 160.025 233.91C160.247 233.91 160.449 233.845 160.631 233.715C160.813 233.585 160.969 233.406 161.1 233.178C161.23 232.943 161.327 232.673 161.393 232.367C161.464 232.055 161.5 231.71 161.5 231.332C161.5 230.954 161.464 230.609 161.393 230.297C161.321 229.978 161.22 229.704 161.09 229.477C160.96 229.249 160.8 229.073 160.611 228.949C160.429 228.819 160.224 228.754 159.996 228.754C159.664 228.754 159.381 228.855 159.146 229.057C158.912 229.252 158.733 229.506 158.609 229.818C158.486 230.124 158.417 230.447 158.404 230.785L157.584 230.199C157.61 229.704 157.701 229.239 157.857 228.803C158.02 228.36 158.242 227.963 158.521 227.611C158.801 227.26 159.137 226.986 159.527 226.791C159.918 226.589 160.357 226.488 160.846 226.488C161.406 226.488 161.897 226.615 162.32 226.869C162.75 227.123 163.105 227.471 163.385 227.914C163.671 228.357 163.883 228.868 164.02 229.447C164.163 230.027 164.234 230.648 164.234 231.312C164.234 232.003 164.137 232.644 163.941 233.236C163.746 233.829 163.469 234.346 163.111 234.789C162.753 235.232 162.317 235.577 161.803 235.824C161.295 236.072 160.722 236.195 160.084 236.195C159.433 236.195 158.844 236.059 158.316 235.785C157.796 235.512 157.346 235.124 156.969 234.623C156.598 234.115 156.314 233.516 156.119 232.826C155.924 232.136 155.826 231.374 155.826 230.541V229.438C155.826 228.292 155.96 227.243 156.227 226.293C156.493 225.336 156.887 224.509 157.408 223.812C157.936 223.116 158.58 222.579 159.342 222.201C160.11 221.817 160.992 221.625 161.988 221.625ZM169.917 222.18H172.017V224.26C172.017 225.287 171.904 226.313 171.677 227.34C171.464 228.367 171.144 229.333 170.717 230.24C170.29 231.133 169.75 231.933 169.097 232.64C168.457 233.347 167.71 233.9 166.857 234.3L165.357 232.2C166.13 231.84 166.797 231.367 167.357 230.78C167.93 230.193 168.404 229.54 168.777 228.82C169.164 228.1 169.45 227.353 169.637 226.58C169.824 225.793 169.917 225.02 169.917 224.26V222.18ZM170.477 222.18H172.577V224.26C172.577 224.953 172.67 225.667 172.857 226.4C173.044 227.133 173.317 227.84 173.677 228.52C174.05 229.2 174.517 229.82 175.077 230.38C175.65 230.927 176.317 231.373 177.077 231.72L175.597 233.84C174.744 233.44 173.997 232.907 173.357 232.24C172.73 231.56 172.197 230.793 171.757 229.94C171.33 229.073 171.01 228.16 170.797 227.2C170.584 226.227 170.477 225.247 170.477 224.26V222.18ZM166.077 221.02H176.257V223.22H166.077V221.02ZM177.597 219.26H180.277V237.78H177.597V219.26ZM179.697 226.32H182.957V228.5H179.697V226.32ZM196.915 219.22H199.595V237.8H196.915V219.22ZM185.175 231.32H186.815C187.909 231.32 188.942 231.307 189.915 231.28C190.889 231.24 191.842 231.18 192.775 231.1C193.709 231.007 194.662 230.873 195.635 230.7L195.915 232.84C194.422 233.107 192.949 233.287 191.495 233.38C190.055 233.46 188.495 233.5 186.815 233.5H185.175V231.32ZM185.135 220.8H193.875V227.98H187.875V232.14H185.175V225.88H191.175V222.94H185.135V220.8ZM202.574 227.56H219.334V229.48H202.574V227.56ZM204.454 230.42H217.354V234.82H207.114V236.4H204.474V233.14H214.734V232.22H204.454V230.42ZM204.474 235.82H217.874V237.62H204.474V235.82ZM204.614 219.56H217.294V223.94H207.274V225.44H204.654V222.26H214.674V221.36H204.614V219.56ZM204.654 224.9H217.634V226.7H204.654V224.9ZM238.302 219.26H240.962V229.2H238.302V219.26ZM228.662 230.02H231.282V231.74H238.322V230.02H240.962V237.58H228.662V230.02ZM231.282 233.78V235.46H238.322V233.78H231.282ZM230.882 220.02C231.842 220.02 232.702 220.207 233.462 220.58C234.222 220.953 234.822 221.467 235.262 222.12C235.702 222.773 235.922 223.527 235.922 224.38C235.922 225.233 235.702 225.993 235.262 226.66C234.822 227.313 234.222 227.827 233.462 228.2C232.702 228.573 231.842 228.76 230.882 228.76C229.922 228.76 229.062 228.573 228.302 228.2C227.542 227.827 226.942 227.313 226.502 226.66C226.062 225.993 225.842 225.233 225.842 224.38C225.842 223.527 226.062 222.773 226.502 222.12C226.942 221.467 227.542 220.953 228.302 220.58C229.062 220.207 229.922 220.02 230.882 220.02ZM230.882 222.2C230.415 222.2 229.995 222.287 229.622 222.46C229.248 222.633 228.955 222.887 228.742 223.22C228.542 223.54 228.442 223.927 228.442 224.38C228.442 224.847 228.542 225.247 228.742 225.58C228.955 225.9 229.248 226.147 229.622 226.32C229.995 226.48 230.415 226.56 230.882 226.56C231.348 226.56 231.762 226.48 232.122 226.32C232.495 226.147 232.788 225.9 233.002 225.58C233.215 225.247 233.322 224.847 233.322 224.38C233.322 223.927 233.215 223.54 233.002 223.22C232.788 222.887 232.495 222.633 232.122 222.46C231.762 222.287 231.348 222.2 230.882 222.2ZM244.68 228.06H246.08C247.24 228.06 248.233 228.053 249.06 228.04C249.9 228.013 250.667 227.967 251.36 227.9C252.053 227.833 252.74 227.74 253.42 227.62L253.7 229.74C253.153 229.833 252.613 229.913 252.08 229.98C251.56 230.047 251 230.093 250.4 230.12C249.813 230.147 249.167 230.167 248.46 230.18C247.767 230.193 246.973 230.2 246.08 230.2H244.68V228.06ZM244.64 220.3H252.78V226.14H247.32V229.48H244.68V224.16H250.16V222.42H244.64V220.3ZM256.8 219.26H259.48V230.68H256.8V219.26ZM253.84 221.82H257.3V223.94H253.84V221.82ZM253.84 225.76H257.3V227.88H253.84V225.76ZM246.78 231.52H259.48V237.78H256.8V233.62H246.78V231.52ZM262.359 222.04H271.219V224.14H262.359V222.04ZM266.819 224.98C267.605 224.98 268.299 225.167 268.899 225.54C269.512 225.913 269.992 226.433 270.339 227.1C270.699 227.753 270.879 228.513 270.879 229.38C270.879 230.247 270.699 231.013 270.339 231.68C269.992 232.333 269.512 232.847 268.899 233.22C268.299 233.593 267.605 233.78 266.819 233.78C266.032 233.78 265.332 233.593 264.719 233.22C264.105 232.847 263.625 232.333 263.279 231.68C262.932 231.013 262.759 230.247 262.759 229.38C262.759 228.513 262.932 227.753 263.279 227.1C263.625 226.433 264.105 225.913 264.719 225.54C265.345 225.167 266.045 224.98 266.819 224.98ZM266.819 227.18C266.499 227.18 266.205 227.267 265.939 227.44C265.672 227.613 265.465 227.867 265.319 228.2C265.172 228.52 265.099 228.913 265.099 229.38C265.099 229.847 265.172 230.247 265.319 230.58C265.465 230.913 265.672 231.167 265.939 231.34C266.205 231.5 266.499 231.58 266.819 231.58C267.152 231.58 267.445 231.5 267.699 231.34C267.952 231.167 268.152 230.913 268.299 230.58C268.445 230.247 268.519 229.847 268.519 229.38C268.519 228.913 268.445 228.52 268.299 228.2C268.152 227.867 267.952 227.613 267.699 227.44C267.445 227.267 267.152 227.18 266.819 227.18ZM275.759 219.24H278.279V237.76H275.759V219.24ZM273.539 226.78H276.579V228.92H273.539V226.78ZM271.859 219.58H274.339V236.98H271.859V219.58ZM265.519 219.74H268.139V223.36H265.519V219.74ZM287.617 221.3H289.937V221.86C289.937 222.5 289.83 223.12 289.617 223.72C289.417 224.32 289.11 224.88 288.697 225.4C288.284 225.907 287.777 226.367 287.177 226.78C286.59 227.18 285.91 227.52 285.137 227.8C284.364 228.08 283.504 228.28 282.557 228.4L281.577 226.34C282.404 226.233 283.137 226.073 283.777 225.86C284.43 225.633 284.997 225.373 285.477 225.08C285.957 224.773 286.357 224.447 286.677 224.1C286.997 223.753 287.23 223.387 287.377 223C287.537 222.613 287.617 222.233 287.617 221.86V221.3ZM288.397 221.3H290.697V221.86C290.697 222.233 290.77 222.613 290.917 223C291.077 223.387 291.317 223.753 291.637 224.1C291.957 224.447 292.357 224.773 292.837 225.08C293.33 225.373 293.897 225.633 294.537 225.86C295.177 226.073 295.91 226.233 296.737 226.34L295.757 228.4C294.81 228.28 293.95 228.08 293.177 227.8C292.404 227.52 291.717 227.18 291.117 226.78C290.53 226.367 290.03 225.907 289.617 225.4C289.217 224.88 288.91 224.32 288.697 223.72C288.497 223.12 288.397 222.5 288.397 221.86V221.3ZM287.757 231H290.417V237.78H287.757V231ZM280.777 229.46H297.537V231.6H280.777V229.46ZM282.257 220.2H295.997V222.3H282.257V220.2ZM306.455 225.48H309.535V227.64H306.455V225.48ZM302.515 220.86H304.535V223.96C304.535 225.013 304.462 226.047 304.315 227.06C304.169 228.073 303.929 229.027 303.595 229.92C303.275 230.813 302.849 231.62 302.315 232.34C301.795 233.047 301.162 233.627 300.415 234.08L298.815 232.08C299.509 231.667 300.089 231.16 300.555 230.56C301.022 229.96 301.402 229.3 301.695 228.58C301.989 227.86 302.195 227.113 302.315 226.34C302.449 225.553 302.515 224.76 302.515 223.96V220.86ZM303.095 220.86H305.075V223.84C305.075 224.6 305.129 225.353 305.235 226.1C305.355 226.847 305.542 227.56 305.795 228.24C306.049 228.92 306.382 229.547 306.795 230.12C307.222 230.693 307.755 231.187 308.395 231.6L306.935 233.68C306.215 233.227 305.602 232.653 305.095 231.96C304.602 231.253 304.209 230.46 303.915 229.58C303.622 228.7 303.409 227.773 303.275 226.8C303.155 225.827 303.095 224.84 303.095 223.84V220.86ZM312.535 219.24H315.075V237.76H312.535V219.24ZM308.775 219.54H311.255V236.94H308.775V219.54ZM321.254 228.66H323.914V233.84H321.254V228.66ZM327.974 228.66H330.634V233.84H327.974V228.66ZM317.574 233.46H334.354V235.62H317.574V233.46ZM325.934 220.16C327.267 220.16 328.454 220.367 329.494 220.78C330.547 221.193 331.367 221.773 331.954 222.52C332.554 223.253 332.854 224.127 332.854 225.14C332.854 226.14 332.554 227.013 331.954 227.76C331.367 228.493 330.547 229.067 329.494 229.48C328.454 229.893 327.267 230.1 325.934 230.1C324.614 230.1 323.427 229.893 322.374 229.48C321.334 229.067 320.514 228.493 319.914 227.76C319.314 227.013 319.014 226.14 319.014 225.14C319.014 224.127 319.314 223.253 319.914 222.52C320.514 221.773 321.334 221.193 322.374 220.78C323.427 220.367 324.614 220.16 325.934 220.16ZM325.934 222.22C325.081 222.22 324.327 222.34 323.674 222.58C323.034 222.807 322.534 223.133 322.174 223.56C321.814 223.987 321.634 224.513 321.634 225.14C321.634 225.74 321.814 226.26 322.174 226.7C322.534 227.127 323.034 227.46 323.674 227.7C324.327 227.927 325.081 228.04 325.934 228.04C326.801 228.04 327.554 227.927 328.194 227.7C328.847 227.46 329.347 227.127 329.694 226.7C330.054 226.26 330.234 225.74 330.234 225.14C330.234 224.513 330.054 223.987 329.694 223.56C329.347 223.133 328.847 222.807 328.194 222.58C327.554 222.34 326.801 222.22 325.934 222.22ZM336.393 234.604C336.393 234.174 336.536 233.816 336.822 233.529C337.109 233.236 337.496 233.09 337.984 233.09C338.473 233.09 338.86 233.236 339.146 233.529C339.433 233.816 339.576 234.174 339.576 234.604C339.576 235.033 339.433 235.391 339.146 235.678C338.86 235.964 338.473 236.107 337.984 236.107C337.496 236.107 337.109 235.964 336.822 235.678C336.536 235.391 336.393 235.033 336.393 234.604Z" fill="black"/>
<path d="M27.416 12.0469V12.7578L23.2939 22H21.9609L26.0762 13.0859H20.6895V12.0469H27.416ZM28.9404 21.3301C28.9404 21.1159 29.0065 20.9359 29.1387 20.79C29.2754 20.6396 29.4714 20.5645 29.7266 20.5645C29.9818 20.5645 30.1755 20.6396 30.3076 20.79C30.4443 20.9359 30.5127 21.1159 30.5127 21.3301C30.5127 21.5397 30.4443 21.7174 30.3076 21.8633C30.1755 22.0091 29.9818 22.082 29.7266 22.082C29.4714 22.082 29.2754 22.0091 29.1387 21.8633C29.0065 21.7174 28.9404 21.5397 28.9404 21.3301ZM28.9473 15.2939C28.9473 15.0798 29.0133 14.8997 29.1455 14.7539C29.2822 14.6035 29.4782 14.5283 29.7334 14.5283C29.9886 14.5283 30.1823 14.6035 30.3145 14.7539C30.4512 14.8997 30.5195 15.0798 30.5195 15.2939C30.5195 15.5036 30.4512 15.6813 30.3145 15.8271C30.1823 15.973 29.9886 16.0459 29.7334 16.0459C29.4782 16.0459 29.2822 15.973 29.1455 15.8271C29.0133 15.6813 28.9473 15.5036 28.9473 15.2939ZM34.0947 16.4014H34.9971C35.4391 16.4014 35.8037 16.3285 36.0908 16.1826C36.3825 16.0322 36.599 15.8294 36.7402 15.5742C36.8861 15.3145 36.959 15.0228 36.959 14.6992C36.959 14.3164 36.8952 13.9951 36.7676 13.7354C36.64 13.4756 36.4486 13.2796 36.1934 13.1475C35.9382 13.0153 35.6146 12.9492 35.2227 12.9492C34.8672 12.9492 34.5527 13.0199 34.2793 13.1611C34.0104 13.2979 33.7985 13.4938 33.6436 13.749C33.4932 14.0042 33.418 14.305 33.418 14.6514H32.1533C32.1533 14.1455 32.2809 13.6852 32.5361 13.2705C32.7913 12.8558 33.1491 12.5254 33.6094 12.2793C34.0742 12.0332 34.612 11.9102 35.2227 11.9102C35.8242 11.9102 36.3506 12.0173 36.8018 12.2314C37.2529 12.4411 37.6038 12.7555 37.8545 13.1748C38.1051 13.5895 38.2305 14.1068 38.2305 14.7266C38.2305 14.9772 38.1712 15.2461 38.0527 15.5332C37.9388 15.8158 37.7588 16.0801 37.5127 16.3262C37.2712 16.5723 36.9567 16.7751 36.5693 16.9346C36.182 17.0895 35.7171 17.167 35.1748 17.167H34.0947V16.4014ZM34.0947 17.4404V16.6816H35.1748C35.8083 16.6816 36.3324 16.7568 36.7471 16.9072C37.1618 17.0576 37.4876 17.2581 37.7246 17.5088C37.9661 17.7594 38.1348 18.0352 38.2305 18.3359C38.3307 18.6322 38.3809 18.9284 38.3809 19.2246C38.3809 19.6895 38.3011 20.1019 38.1416 20.4619C37.9867 20.8219 37.7656 21.1273 37.4785 21.3779C37.196 21.6286 36.8633 21.8177 36.4805 21.9453C36.0977 22.0729 35.6807 22.1367 35.2295 22.1367C34.7965 22.1367 34.3887 22.0752 34.0059 21.9521C33.6276 21.8291 33.2926 21.6514 33.001 21.4189C32.7093 21.182 32.4814 20.8926 32.3174 20.5508C32.1533 20.2044 32.0713 19.8102 32.0713 19.3682H33.3359C33.3359 19.7145 33.4111 20.0176 33.5615 20.2773C33.7165 20.5371 33.9352 20.7399 34.2178 20.8857C34.5049 21.027 34.8421 21.0977 35.2295 21.0977C35.6169 21.0977 35.9495 21.0316 36.2275 20.8994C36.5101 20.7627 36.7266 20.5576 36.877 20.2842C37.0319 20.0107 37.1094 19.6667 37.1094 19.252C37.1094 18.8372 37.0228 18.4977 36.8496 18.2334C36.6764 17.9645 36.4303 17.7663 36.1113 17.6387C35.7969 17.5065 35.4255 17.4404 34.9971 17.4404H34.0947ZM46.3721 16.2305V17.748C46.3721 18.5638 46.2992 19.252 46.1533 19.8125C46.0075 20.373 45.7979 20.8242 45.5244 21.166C45.251 21.5078 44.9206 21.7562 44.5332 21.9111C44.1504 22.0615 43.7174 22.1367 43.2344 22.1367C42.8516 22.1367 42.4984 22.0889 42.1748 21.9932C41.8512 21.8975 41.5596 21.7448 41.2998 21.5352C41.0446 21.321 40.8258 21.043 40.6436 20.7012C40.4613 20.3594 40.3223 19.9447 40.2266 19.457C40.1309 18.9694 40.083 18.3997 40.083 17.748V16.2305C40.083 15.4147 40.1559 14.7311 40.3018 14.1797C40.4521 13.6283 40.6641 13.1862 40.9375 12.8535C41.2109 12.5163 41.5391 12.2747 41.9219 12.1289C42.3092 11.9831 42.7422 11.9102 43.2207 11.9102C43.6081 11.9102 43.9635 11.958 44.2871 12.0537C44.6152 12.1449 44.9069 12.293 45.1621 12.498C45.4173 12.6986 45.6338 12.9674 45.8115 13.3047C45.9938 13.6374 46.1328 14.0452 46.2285 14.5283C46.3242 15.0114 46.3721 15.5788 46.3721 16.2305ZM45.1006 17.9531V16.0186C45.1006 15.5719 45.0732 15.18 45.0186 14.8428C44.9684 14.501 44.8932 14.2093 44.793 13.9678C44.6927 13.7262 44.5651 13.5303 44.4102 13.3799C44.2598 13.2295 44.0843 13.1201 43.8838 13.0518C43.6878 12.9788 43.4668 12.9424 43.2207 12.9424C42.9199 12.9424 42.6533 12.9993 42.4209 13.1133C42.1885 13.2227 41.9925 13.3981 41.833 13.6396C41.6781 13.8812 41.5596 14.1979 41.4775 14.5898C41.3955 14.9818 41.3545 15.458 41.3545 16.0186V17.9531C41.3545 18.3997 41.3796 18.7939 41.4297 19.1357C41.4844 19.4775 41.5641 19.7738 41.6689 20.0244C41.7738 20.2705 41.9014 20.4733 42.0518 20.6328C42.2021 20.7923 42.3753 20.9108 42.5713 20.9883C42.7718 21.0612 42.9928 21.0977 43.2344 21.0977C43.5443 21.0977 43.8154 21.0384 44.0479 20.9199C44.2803 20.8014 44.474 20.6169 44.6289 20.3662C44.7884 20.111 44.9069 19.7852 44.9844 19.3887C45.0618 18.9876 45.1006 18.5091 45.1006 17.9531ZM55.4844 12.9287L52.1895 22H50.8428L54.6367 12.0469H55.5049L55.4844 12.9287ZM58.2461 22L54.9443 12.9287L54.9238 12.0469H55.792L59.5996 22H58.2461ZM58.0752 18.3154V19.3955H52.4834V18.3154H58.0752ZM61.3496 12.0469H62.6279L65.8887 20.1611L69.1426 12.0469H70.4277L66.3809 22H65.3828L61.3496 12.0469ZM60.9326 12.0469H62.0605L62.2451 18.1172V22H60.9326V12.0469ZM69.71 12.0469H70.8379V22H69.5254V18.1172L69.71 12.0469Z" fill="#0C0C0C"/>
<path d="M322.792 12.9478L324.375 14.5311C328.31 10.5966 334.69 10.5966 338.625 14.5311L340.208 12.9478C335.403 8.1424 327.605 8.1424 322.792 12.9478ZM329.125 19.2811L331.5 21.6561L333.875 19.2811C332.569 17.967 330.439 17.967 329.125 19.2811ZM325.958 16.1145L327.542 17.6978C329.727 15.5128 333.273 15.5128 335.458 17.6978L337.042 16.1145C333.986 13.0586 329.022 13.0586 325.958 16.1145Z" fill="#0C0C0C"/>
<path d="M362.75 9.3335H365.25V22.6668H362.75V9.3335ZM352.75 17.6668H355.25V22.6668H352.75V17.6668ZM357.75 13.5002H360.25V22.6668H357.75V13.5002Z" fill="#0C0C0C"/>
<path d="M391.362 9.55847L391.1 24.4572L382.823 24.3114L383.085 9.41273L385.568 9.45645L385.598 7.80104L388.908 7.85934L388.879 9.51475L391.362 9.55847ZM389.678 11.1847L384.712 11.0973L384.653 14.4081L389.62 14.4956L389.678 11.1847Z" fill="#0C0C0C"/>
<g opacity="0.4">
<rect x="47" y="590" width="317" height="50" rx="8" fill="#8C8C8C"/>
<path d="M192.842 613.46H194.482V615.76H192.842V613.46ZM200.462 604.98H202.122V617.1H200.462V604.98ZM201.422 610.44H204.762V611.82H201.422V610.44ZM188.202 616.58L188.002 615.24C189.082 615.24 190.262 615.233 191.542 615.22C192.835 615.193 194.155 615.14 195.502 615.06C196.848 614.98 198.142 614.853 199.382 614.68L199.502 615.86C198.222 616.087 196.908 616.253 195.562 616.36C194.228 616.453 192.928 616.513 191.662 616.54C190.408 616.567 189.255 616.58 188.202 616.58ZM190.222 618.02H202.122V623.06H200.462V619.34H190.222V618.02ZM188.462 606.6H198.842V607.86H188.462V606.6ZM193.642 608.54C194.922 608.54 195.942 608.78 196.702 609.26C197.475 609.74 197.862 610.393 197.862 611.22C197.862 612.047 197.475 612.7 196.702 613.18C195.942 613.66 194.922 613.9 193.642 613.9C192.375 613.9 191.355 613.66 190.582 613.18C189.808 612.7 189.422 612.047 189.422 611.22C189.422 610.393 189.808 609.74 190.582 609.26C191.355 608.78 192.375 608.54 193.642 608.54ZM193.642 609.7C192.842 609.7 192.202 609.833 191.722 610.1C191.242 610.367 191.002 610.74 191.002 611.22C191.002 611.673 191.242 612.047 191.722 612.34C192.202 612.62 192.842 612.76 193.642 612.76C194.442 612.76 195.082 612.62 195.562 612.34C196.042 612.047 196.282 611.673 196.282 611.22C196.282 610.74 196.042 610.367 195.562 610.1C195.082 609.833 194.442 609.7 193.642 609.7ZM192.842 604.82H194.482V607.22H192.842V604.82ZM219.66 604.98H221.32V618.18H219.66V604.98ZM209.7 621.3H221.88V622.66H209.7V621.3ZM209.7 616.84H211.36V621.76H209.7V616.84ZM211.62 606.24C212.527 606.24 213.333 606.427 214.04 606.8C214.747 607.173 215.307 607.7 215.72 608.38C216.133 609.047 216.34 609.813 216.34 610.68C216.34 611.547 216.133 612.32 215.72 613C215.307 613.667 214.747 614.193 214.04 614.58C213.333 614.953 212.527 615.14 211.62 615.14C210.727 615.14 209.92 614.953 209.2 614.58C208.493 614.193 207.933 613.667 207.52 613C207.107 612.32 206.9 611.547 206.9 610.68C206.9 609.813 207.107 609.047 207.52 608.38C207.933 607.7 208.493 607.173 209.2 606.8C209.92 606.427 210.727 606.24 211.62 606.24ZM211.62 607.68C211.033 607.68 210.507 607.807 210.04 608.06C209.573 608.313 209.2 608.667 208.92 609.12C208.653 609.573 208.52 610.093 208.52 610.68C208.52 611.28 208.653 611.807 208.92 612.26C209.2 612.7 209.573 613.047 210.04 613.3C210.507 613.553 211.033 613.68 211.62 613.68C212.207 613.68 212.733 613.553 213.2 613.3C213.68 613.047 214.053 612.7 214.32 612.26C214.587 611.807 214.72 611.28 214.72 610.68C214.72 610.093 214.587 609.573 214.32 609.12C214.053 608.667 213.68 608.313 213.2 608.06C212.733 607.807 212.207 607.68 211.62 607.68Z" fill="white"/>
</g>
<path d="M298.878 441.145C298.205 441.142 297.629 440.964 297.152 440.612C296.675 440.26 296.31 439.747 296.057 439.074C295.804 438.401 295.678 437.589 295.678 436.641C295.678 435.695 295.804 434.886 296.057 434.216C296.313 433.545 296.679 433.034 297.156 432.682C297.636 432.33 298.21 432.153 298.878 432.153C299.545 432.153 300.118 432.331 300.595 432.686C301.072 433.038 301.438 433.55 301.69 434.22C301.946 434.888 302.074 435.695 302.074 436.641C302.074 437.592 301.947 438.405 301.695 439.078C301.442 439.749 301.077 440.261 300.599 440.616C300.122 440.969 299.548 441.145 298.878 441.145ZM298.878 440.007C299.469 440.007 299.93 439.719 300.263 439.142C300.598 438.565 300.766 437.732 300.766 436.641C300.766 435.916 300.689 435.304 300.536 434.804C300.385 434.301 300.168 433.92 299.884 433.662C299.602 433.401 299.267 433.27 298.878 433.27C298.29 433.27 297.828 433.56 297.493 434.139C297.158 434.719 296.989 435.553 296.986 436.641C296.986 437.368 297.061 437.983 297.212 438.486C297.365 438.986 297.582 439.365 297.864 439.624C298.145 439.879 298.483 440.007 298.878 440.007ZM303.586 441V440.045L306.539 436.986C306.854 436.653 307.114 436.362 307.319 436.112C307.526 435.859 307.681 435.619 307.783 435.392C307.885 435.165 307.936 434.923 307.936 434.668C307.936 434.378 307.868 434.128 307.732 433.918C307.596 433.705 307.409 433.541 307.174 433.428C306.938 433.311 306.672 433.253 306.377 433.253C306.064 433.253 305.792 433.317 305.559 433.445C305.326 433.572 305.147 433.753 305.022 433.986C304.897 434.219 304.834 434.491 304.834 434.804H303.577C303.577 434.273 303.699 433.808 303.944 433.411C304.188 433.013 304.523 432.705 304.949 432.486C305.375 432.264 305.86 432.153 306.402 432.153C306.951 432.153 307.434 432.263 307.851 432.482C308.272 432.697 308.6 432.993 308.836 433.368C309.071 433.74 309.189 434.161 309.189 434.629C309.189 434.953 309.128 435.27 309.006 435.58C308.887 435.889 308.678 436.234 308.38 436.615C308.081 436.993 307.667 437.452 307.135 437.991L305.401 439.807V439.871H309.33V441H303.586ZM311.801 439.918C311.569 439.918 311.368 439.835 311.201 439.67C311.033 439.503 310.949 439.301 310.949 439.065C310.949 438.832 311.033 438.634 311.201 438.469C311.368 438.301 311.569 438.217 311.801 438.217C312.034 438.217 312.235 438.301 312.402 438.469C312.57 438.634 312.654 438.832 312.654 439.065C312.654 439.222 312.614 439.365 312.534 439.496C312.458 439.624 312.355 439.726 312.228 439.803C312.1 439.879 311.958 439.918 311.801 439.918ZM311.801 435.545C311.569 435.545 311.368 435.463 311.201 435.298C311.033 435.131 310.949 434.929 310.949 434.693C310.949 434.46 311.033 434.261 311.201 434.097C311.368 433.929 311.569 433.845 311.801 433.845C312.034 433.845 312.235 433.929 312.402 434.097C312.57 434.261 312.654 434.46 312.654 434.693C312.654 434.849 312.614 434.993 312.534 435.124C312.458 435.251 312.355 435.354 312.228 435.43C312.1 435.507 311.958 435.545 311.801 435.545ZM314.16 439.295V438.23L317.931 432.273H318.771V433.841H318.238L315.541 438.111V438.179H320.71V439.295H314.16ZM318.298 441V438.972L318.306 438.486V432.273H319.555V441H318.298ZM325.144 441.119C324.533 441.119 323.993 441.014 323.525 440.804C323.059 440.594 322.694 440.304 322.429 439.935C322.165 439.565 322.034 439.145 322.037 438.673C322.034 438.304 322.11 437.964 322.263 437.655C322.419 437.342 322.631 437.082 322.898 436.875C323.165 436.665 323.463 436.531 323.793 436.474V436.423C323.358 436.318 323.01 436.085 322.749 435.724C322.488 435.364 322.358 434.949 322.361 434.48C322.358 434.034 322.476 433.636 322.715 433.287C322.956 432.935 323.287 432.658 323.708 432.456C324.128 432.254 324.607 432.153 325.144 432.153C325.675 432.153 326.15 432.256 326.567 432.46C326.988 432.662 327.319 432.939 327.56 433.291C327.801 433.641 327.924 434.037 327.926 434.48C327.924 434.949 327.79 435.364 327.526 435.724C327.262 436.085 326.918 436.318 326.495 436.423V436.474C326.821 436.531 327.115 436.665 327.377 436.875C327.641 437.082 327.851 437.342 328.007 437.655C328.167 437.964 328.248 438.304 328.25 438.673C328.248 439.145 328.114 439.565 327.85 439.935C327.586 440.304 327.219 440.594 326.75 440.804C326.284 441.014 325.749 441.119 325.144 441.119ZM325.144 440.041C325.505 440.041 325.817 439.982 326.081 439.862C326.346 439.74 326.55 439.571 326.695 439.355C326.84 439.136 326.914 438.881 326.917 438.588C326.914 438.284 326.834 438.016 326.678 437.783C326.525 437.55 326.316 437.366 326.051 437.233C325.787 437.099 325.485 437.033 325.144 437.033C324.8 437.033 324.495 437.099 324.228 437.233C323.961 437.366 323.75 437.55 323.597 437.783C323.444 438.016 323.368 438.284 323.371 438.588C323.368 438.881 323.438 439.136 323.58 439.355C323.725 439.571 323.931 439.74 324.198 439.862C324.465 439.982 324.78 440.041 325.144 440.041ZM325.144 435.98C325.434 435.98 325.691 435.922 325.915 435.805C326.14 435.689 326.316 435.527 326.444 435.32C326.574 435.112 326.641 434.869 326.644 434.591C326.641 434.318 326.576 434.08 326.448 433.875C326.323 433.67 326.148 433.513 325.924 433.402C325.699 433.288 325.439 433.232 325.144 433.232C324.843 433.232 324.578 433.288 324.351 433.402C324.127 433.513 323.952 433.67 323.827 433.875C323.702 434.08 323.641 434.318 323.644 434.591C323.641 434.869 323.703 435.112 323.831 435.32C323.959 435.527 324.135 435.689 324.36 435.805C324.587 435.922 324.848 435.98 325.144 435.98ZM344.181 431.076H345.141V441.936H344.181V431.076ZM342.465 435.456H344.553V436.296H342.465V435.456ZM341.817 431.304H342.765V441.384H341.817V431.304ZM338.133 432.756H338.901V434.016C338.901 434.656 338.849 435.268 338.745 435.852C338.641 436.436 338.481 436.972 338.265 437.46C338.057 437.948 337.797 438.384 337.485 438.768C337.173 439.144 336.809 439.456 336.393 439.704L335.769 438.936C336.297 438.648 336.733 438.26 337.077 437.772C337.421 437.276 337.681 436.708 337.857 436.068C338.041 435.428 338.133 434.744 338.133 434.016V432.756ZM338.313 432.756H339.093V434.016C339.093 434.672 339.181 435.296 339.357 435.888C339.533 436.48 339.793 437.008 340.137 437.472C340.481 437.928 340.909 438.288 341.421 438.552L340.833 439.32C340.281 439.008 339.817 438.588 339.441 438.06C339.065 437.532 338.781 436.924 338.589 436.236C338.405 435.548 338.313 434.808 338.313 434.016V432.756ZM336.033 432.36H341.061V433.176H336.033V432.36ZM352.676 434.076H355.424V434.892H352.676V434.076ZM354.86 431.088H355.856V439.044H354.86V431.088ZM348.932 440.88H356.156V441.696H348.932V440.88ZM348.932 438.336H349.916V441.288H348.932V438.336ZM349.688 432.432H350.504V433.308C350.504 433.964 350.376 434.584 350.12 435.168C349.872 435.744 349.52 436.248 349.064 436.68C348.608 437.104 348.08 437.432 347.48 437.664L346.964 436.86C347.364 436.716 347.728 436.524 348.056 436.284C348.392 436.044 348.684 435.768 348.932 435.456C349.18 435.144 349.368 434.804 349.496 434.436C349.624 434.068 349.688 433.692 349.688 433.308V432.432ZM349.88 432.432H350.696V433.308C350.696 433.772 350.804 434.224 351.02 434.664C351.236 435.104 351.544 435.496 351.944 435.84C352.344 436.176 352.804 436.436 353.324 436.62L352.82 437.412C352.228 437.196 351.712 436.884 351.272 436.476C350.832 436.06 350.488 435.58 350.24 435.036C350 434.492 349.88 433.916 349.88 433.308V432.432ZM347.276 431.964H353.072V432.78H347.276V431.964ZM362.371 434.88H363.355V436.896H362.371V434.88ZM362.359 431.244H363.211V431.736C363.211 432.12 363.135 432.484 362.983 432.828C362.831 433.172 362.615 433.488 362.335 433.776C362.063 434.064 361.747 434.32 361.387 434.544C361.027 434.76 360.639 434.948 360.223 435.108C359.807 435.26 359.375 435.372 358.927 435.444L358.555 434.652C358.939 434.596 359.315 434.508 359.683 434.388C360.059 434.26 360.407 434.108 360.727 433.932C361.047 433.748 361.327 433.54 361.567 433.308C361.815 433.076 362.007 432.828 362.143 432.564C362.287 432.3 362.359 432.024 362.359 431.736V431.244ZM362.515 431.244H363.367V431.736C363.367 432.024 363.435 432.3 363.571 432.564C363.707 432.828 363.899 433.076 364.147 433.308C364.395 433.532 364.679 433.736 364.999 433.92C365.319 434.104 365.663 434.26 366.031 434.388C366.407 434.508 366.787 434.596 367.171 434.652L366.787 435.444C366.347 435.372 365.919 435.26 365.503 435.108C365.095 434.948 364.707 434.756 364.339 434.532C363.979 434.308 363.659 434.056 363.379 433.776C363.107 433.488 362.895 433.176 362.743 432.84C362.591 432.496 362.515 432.128 362.515 431.736V431.244ZM357.967 436.464H367.771V437.268H357.967V436.464ZM362.863 438.156C364.023 438.156 364.931 438.32 365.587 438.648C366.243 438.976 366.571 439.44 366.571 440.04C366.571 440.64 366.243 441.1 365.587 441.42C364.931 441.748 364.023 441.912 362.863 441.912C361.695 441.912 360.783 441.748 360.127 441.42C359.471 441.1 359.143 440.64 359.143 440.04C359.143 439.44 359.471 438.976 360.127 438.648C360.783 438.32 361.695 438.156 362.863 438.156ZM362.863 438.936C362.007 438.936 361.339 439.032 360.859 439.224C360.387 439.408 360.151 439.68 360.151 440.04C360.151 440.392 360.387 440.664 360.859 440.856C361.339 441.048 362.007 441.144 362.863 441.144C363.711 441.144 364.375 441.048 364.855 440.856C365.335 440.664 365.575 440.392 365.575 440.04C365.575 439.68 365.335 439.408 364.855 439.224C364.375 439.032 363.711 438.936 362.863 438.936Z" fill="#2383BD"/>
<defs>
<filter id="filter0_d_291_1535" x="276" y="353" width="37" height="47" filterUnits="userSpaceOnUse" color-interpolation-filters="sRGB">
<feFlood flood-opacity="0" result="BackgroundImageFix"/>
<feColorMatrix in="SourceAlpha" type="matrix" values="0 0 0 0 0 0 0 0 0 0 0 0 0 0 0 0 0 0 127 0" result="hardAlpha"/>
<feOffset dy="4"/>
<feGaussianBlur stdDeviation="2"/>
<feComposite in2="hardAlpha" operator="out"/>
<feColorMatrix type="matrix" values="0 0 0 0 0.137255 0 0 0 0 0.513726 0 0 0 0 0.741176 0 0 0 1 0"/>
<feBlend mode="normal" in2="BackgroundImageFix" result="effect1_dropShadow_291_1535"/>
<feBlend mode="normal" in="SourceGraphic" in2="effect1_dropShadow_291_1535" result="shape"/>
</filter>
</defs>
</svg>
