<svg width="412" height="917" viewBox="0 0 412 917" fill="none" xmlns="http://www.w3.org/2000/svg">
<rect width="412" height="917" fill="white"/>
<path d="M55.484 490.076H56.48V500.948H55.484V490.076ZM50.756 490.916C51.292 490.916 51.764 491.072 52.172 491.384C52.588 491.688 52.912 492.124 53.144 492.692C53.384 493.26 53.504 493.928 53.504 494.696C53.504 495.464 53.384 496.132 53.144 496.7C52.912 497.268 52.588 497.708 52.172 498.02C51.764 498.332 51.292 498.488 50.756 498.488C50.22 498.488 49.744 498.332 49.328 498.02C48.912 497.708 48.584 497.268 48.344 496.7C48.112 496.132 47.996 495.464 47.996 494.696C47.996 493.928 48.112 493.26 48.344 492.692C48.584 492.124 48.912 491.688 49.328 491.384C49.744 491.072 50.22 490.916 50.756 490.916ZM50.756 491.804C50.396 491.804 50.08 491.924 49.808 492.164C49.544 492.396 49.336 492.732 49.184 493.172C49.032 493.604 48.956 494.112 48.956 494.696C48.956 495.28 49.032 495.792 49.184 496.232C49.336 496.664 49.544 497 49.808 497.24C50.08 497.48 50.396 497.6 50.756 497.6C51.108 497.6 51.416 497.48 51.68 497.24C51.952 497 52.164 496.664 52.316 496.232C52.468 495.792 52.544 495.28 52.544 494.696C52.544 494.112 52.468 493.604 52.316 493.172C52.164 492.732 51.952 492.396 51.68 492.164C51.416 491.924 51.108 491.804 50.756 491.804ZM58.6271 495.68H68.4671V496.484H58.6271V495.68ZM59.8751 490.34H67.2071V492.92H60.8831V494.348H59.8991V492.176H66.2231V491.132H59.8751V490.34ZM59.8991 493.976H67.4351V494.756H59.8991V493.976ZM59.9591 497.468H67.2191V500.792H59.9591V497.468ZM66.2351 498.272H60.9311V499.976H66.2351V498.272Z" fill="#404040"/>
<rect x="47" y="507" width="320" height="40" rx="8" fill="#FBFCFB"/>
<path d="M69.976 520.212H71.368C71.368 521.428 71.0853 522.527 70.52 523.508C69.9653 524.489 69.176 525.321 68.152 526.004C67.128 526.687 65.9067 527.22 64.488 527.604L63.96 526.548C65.2187 526.217 66.296 525.775 67.192 525.22C68.088 524.655 68.776 523.999 69.256 523.252C69.736 522.495 69.976 521.673 69.976 520.788V520.212ZM64.728 520.212H70.744V521.268H64.728V520.212ZM74.328 519.284H75.656V527.444H74.328V519.284ZM66.312 528.148H75.656V533.54H66.312V528.148ZM74.36 529.204H67.608V532.468H74.36V529.204ZM88.5508 519.252H89.8788V533.748H88.5508V519.252ZM89.2868 524.948H91.9588V526.068H89.2868V524.948ZM78.9348 528.852H79.5748C79.9908 528.852 80.4654 528.836 80.9988 528.804C81.5428 528.772 82.1241 528.687 82.7428 528.548L82.8708 529.652C82.2094 529.791 81.6068 529.876 81.0628 529.908C80.5188 529.94 80.0228 529.956 79.5748 529.956H78.9348V528.852ZM78.9348 520.788H82.5988V521.876H80.2628V529.38H78.9348V520.788ZM83.4148 528.852H84.1028C84.5828 528.852 85.0201 528.847 85.4148 528.836C85.8094 528.815 86.1881 528.783 86.5508 528.74C86.9241 528.687 87.3028 528.612 87.6868 528.516L87.8148 529.62C87.4094 529.716 87.0201 529.791 86.6468 529.844C86.2734 529.887 85.8788 529.919 85.4628 529.94C85.0574 529.951 84.6041 529.956 84.1028 529.956H83.4148V528.852ZM83.4148 520.788H87.2388V521.876H84.7108V529.396H83.4148V520.788ZM93.2375 526.516H106.31V527.604H93.2375V526.516ZM99.1095 524.516H100.438V526.868H99.1095V524.516ZM99.7495 528.66C101.307 528.66 102.523 528.879 103.398 529.316C104.272 529.753 104.71 530.377 104.71 531.188C104.71 531.999 104.272 532.623 103.398 533.06C102.523 533.497 101.307 533.716 99.7495 533.716C98.2135 533.716 97.0082 533.497 96.1335 533.06C95.2588 532.623 94.8215 531.999 94.8215 531.188C94.8215 530.377 95.2588 529.753 96.1335 529.316C97.0082 528.879 98.2135 528.66 99.7495 528.66ZM99.7655 529.7C99.0082 529.7 98.3575 529.759 97.8135 529.876C97.2802 529.993 96.8695 530.164 96.5815 530.388C96.2935 530.601 96.1495 530.868 96.1495 531.188C96.1495 531.508 96.2935 531.78 96.5815 532.004C96.8695 532.228 97.2802 532.399 97.8135 532.516C98.3575 532.633 99.0082 532.692 99.7655 532.692C100.523 532.692 101.168 532.633 101.702 532.516C102.235 532.399 102.646 532.228 102.934 532.004C103.222 531.78 103.366 531.508 103.366 531.188C103.366 530.868 103.222 530.601 102.934 530.388C102.646 530.164 102.235 529.993 101.702 529.876C101.168 529.759 100.523 529.7 99.7655 529.7ZM94.9655 519.652H96.2775V521.252H103.286V519.652H104.598V524.98H94.9655V519.652ZM96.2775 522.292V523.924H103.286V522.292H96.2775Z" fill="black"/>
<path d="M51.944 418.156H52.808V418.612C52.808 418.996 52.732 419.36 52.58 419.704C52.428 420.048 52.216 420.368 51.944 420.664C51.672 420.952 51.356 421.208 50.996 421.432C50.636 421.656 50.248 421.848 49.832 422.008C49.424 422.16 49 422.272 48.56 422.344L48.176 421.552C48.56 421.504 48.932 421.416 49.292 421.288C49.66 421.152 50.004 420.992 50.324 420.808C50.644 420.624 50.924 420.416 51.164 420.184C51.412 419.952 51.604 419.704 51.74 419.44C51.876 419.168 51.944 418.892 51.944 418.612V418.156ZM52.196 418.156H53.06V418.612C53.06 418.892 53.128 419.168 53.264 419.44C53.4 419.704 53.588 419.952 53.828 420.184C54.076 420.416 54.36 420.624 54.68 420.808C55 420.992 55.34 421.152 55.7 421.288C56.068 421.416 56.444 421.504 56.828 421.552L56.456 422.344C56.016 422.272 55.588 422.16 55.172 422.008C54.756 421.848 54.368 421.656 54.008 421.432C53.648 421.208 53.332 420.952 53.06 420.664C52.788 420.368 52.576 420.048 52.424 419.704C52.272 419.36 52.196 418.996 52.196 418.612V418.156ZM51.992 423.796H52.976V427.924H51.992V423.796ZM47.6 423.256H57.404V424.072H47.6V423.256ZM48.524 417.748H56.468V418.552H48.524V417.748ZM59.2031 418.024H64.2671V423.076H59.2031V418.024ZM63.2951 418.828H60.1751V422.272H63.2951V418.828ZM66.5351 417.088H67.5311V424.888H66.5351V417.088ZM60.5591 426.76H67.8671V427.576H60.5591V426.76ZM60.5591 424.144H61.5551V427.096H60.5591V424.144ZM69.6781 422.236H79.4941V423.064H69.6781V422.236ZM70.9141 420.4H78.3421V421.216H70.9141V420.4ZM70.9141 417.508H78.2701V418.324H71.8981V420.784H70.9141V417.508ZM74.5741 424C75.7341 424 76.6421 424.172 77.2981 424.516C77.9541 424.86 78.2821 425.34 78.2821 425.956C78.2821 426.58 77.9541 427.06 77.2981 427.396C76.6421 427.74 75.7341 427.912 74.5741 427.912C73.4141 427.912 72.5021 427.74 71.8381 427.396C71.1821 427.06 70.8541 426.58 70.8541 425.956C70.8541 425.34 71.1821 424.86 71.8381 424.516C72.5021 424.172 73.4141 424 74.5741 424ZM74.5621 424.78C74.0021 424.78 73.5181 424.828 73.1101 424.924C72.7101 425.012 72.4021 425.144 72.1861 425.32C71.9701 425.496 71.8621 425.708 71.8621 425.956C71.8621 426.212 71.9701 426.428 72.1861 426.604C72.4021 426.772 72.7101 426.904 73.1101 427C73.5181 427.088 74.0021 427.132 74.5621 427.132C75.1381 427.132 75.6261 427.088 76.0261 427C76.4341 426.904 76.7461 426.772 76.9621 426.604C77.1781 426.428 77.2861 426.212 77.2861 425.956C77.2861 425.708 77.1781 425.496 76.9621 425.32C76.7461 425.144 76.4341 425.012 76.0261 424.924C75.6261 424.828 75.1381 424.78 74.5621 424.78ZM80.7052 423.052H90.5452V423.868H80.7052V423.052ZM81.9532 417.352H89.2852V419.992H82.9612V421.444H81.9772V419.248H88.3012V418.144H81.9532V417.352ZM81.9772 421.12H89.5132V421.912H81.9772V421.12ZM85.1332 421.528H86.1172V423.448H85.1332V421.528ZM81.8092 424.696H89.3452V427.828H88.3492V425.5H81.8092V424.696ZM96.8803 420.136H99.9883V420.952H96.8803V420.136ZM99.6883 417.088H100.684V425.116H99.6883V417.088ZM93.7123 426.88H100.936V427.696H93.7123V426.88ZM93.7123 424.336H94.7083V427.288H93.7123V424.336ZM92.2843 417.808H93.2803V419.716H96.2083V417.808H97.1923V423.268H92.2843V417.808ZM93.2803 420.496V422.464H96.2083V420.496H93.2803ZM103.275 418.672H112.095V419.488H103.275V418.672ZM102.795 425.848H112.635V426.664H102.795V425.848ZM107.199 424.12H108.183V426.16H107.199V424.12ZM107.691 420.208C108.419 420.208 109.047 420.292 109.575 420.46C110.111 420.62 110.523 420.852 110.811 421.156C111.099 421.46 111.243 421.832 111.243 422.272C111.243 422.704 111.099 423.076 110.811 423.388C110.523 423.7 110.111 423.94 109.575 424.108C109.047 424.268 108.419 424.348 107.691 424.348C106.963 424.348 106.331 424.268 105.795 424.108C105.267 423.94 104.859 423.7 104.571 423.388C104.283 423.076 104.139 422.704 104.139 422.272C104.139 421.832 104.283 421.46 104.571 421.156C104.859 420.852 105.267 420.62 105.795 420.46C106.331 420.292 106.963 420.208 107.691 420.208ZM107.691 421C107.163 421 106.707 421.052 106.323 421.156C105.947 421.252 105.655 421.396 105.447 421.588C105.247 421.772 105.147 422 105.147 422.272C105.147 422.536 105.247 422.764 105.447 422.956C105.655 423.148 105.947 423.296 106.323 423.4C106.707 423.496 107.163 423.544 107.691 423.544C108.219 423.544 108.671 423.496 109.047 423.4C109.423 423.296 109.715 423.148 109.923 422.956C110.131 422.764 110.235 422.536 110.235 422.272C110.235 422 110.131 421.772 109.923 421.588C109.715 421.396 109.423 421.252 109.047 421.156C108.671 421.052 108.219 421 107.691 421ZM107.199 417.256H108.183V419.164H107.199V417.256Z" fill="#404040"/>
<rect x="48" y="434" width="145" height="40" rx="8" fill="#FBFCFB"/>
<path d="M72.0859 452.906V454.641C72.0859 455.573 72.0026 456.359 71.8359 457C71.6693 457.641 71.4297 458.156 71.1172 458.547C70.8047 458.938 70.4271 459.221 69.9844 459.398C69.5469 459.57 69.0521 459.656 68.5 459.656C68.0625 459.656 67.6589 459.602 67.2891 459.492C66.9193 459.383 66.5859 459.208 66.2891 458.969C65.9974 458.724 65.7474 458.406 65.5391 458.016C65.3307 457.625 65.1719 457.151 65.0625 456.594C64.9531 456.036 64.8984 455.385 64.8984 454.641V452.906C64.8984 451.974 64.9818 451.193 65.1484 450.562C65.3203 449.932 65.5625 449.427 65.875 449.047C66.1875 448.661 66.5625 448.385 67 448.219C67.4427 448.052 67.9375 447.969 68.4844 447.969C68.9271 447.969 69.3333 448.023 69.7031 448.133C70.0781 448.237 70.4115 448.406 70.7031 448.641C70.9948 448.87 71.2422 449.177 71.4453 449.562C71.6536 449.943 71.8125 450.409 71.9219 450.961C72.0312 451.513 72.0859 452.161 72.0859 452.906ZM70.6328 454.875V452.664C70.6328 452.154 70.6016 451.706 70.5391 451.32C70.4818 450.93 70.3958 450.596 70.2812 450.32C70.1667 450.044 70.0208 449.82 69.8438 449.648C69.6719 449.477 69.4714 449.352 69.2422 449.273C69.0182 449.19 68.7656 449.148 68.4844 449.148C68.1406 449.148 67.8359 449.214 67.5703 449.344C67.3047 449.469 67.0807 449.669 66.8984 449.945C66.7214 450.221 66.5859 450.583 66.4922 451.031C66.3984 451.479 66.3516 452.023 66.3516 452.664V454.875C66.3516 455.385 66.3802 455.836 66.4375 456.227C66.5 456.617 66.5911 456.956 66.7109 457.242C66.8307 457.523 66.9766 457.755 67.1484 457.938C67.3203 458.12 67.5182 458.255 67.7422 458.344C67.9714 458.427 68.224 458.469 68.5 458.469C68.8542 458.469 69.1641 458.401 69.4297 458.266C69.6953 458.13 69.9167 457.919 70.0938 457.633C70.276 457.341 70.4115 456.969 70.5 456.516C70.5885 456.057 70.6328 455.51 70.6328 454.875ZM78.6953 448.062V459.5H77.25V449.867L74.3359 450.93V449.625L78.4688 448.062H78.6953ZM87.6953 448.062V459.5H86.25V449.867L83.3359 450.93V449.625L87.4688 448.062H87.6953ZM99.0859 452.906V454.641C99.0859 455.573 99.0026 456.359 98.8359 457C98.6693 457.641 98.4297 458.156 98.1172 458.547C97.8047 458.938 97.4271 459.221 96.9844 459.398C96.5469 459.57 96.0521 459.656 95.5 459.656C95.0625 459.656 94.6589 459.602 94.2891 459.492C93.9193 459.383 93.5859 459.208 93.2891 458.969C92.9974 458.724 92.7474 458.406 92.5391 458.016C92.3307 457.625 92.1719 457.151 92.0625 456.594C91.9531 456.036 91.8984 455.385 91.8984 454.641V452.906C91.8984 451.974 91.9818 451.193 92.1484 450.562C92.3203 449.932 92.5625 449.427 92.875 449.047C93.1875 448.661 93.5625 448.385 94 448.219C94.4427 448.052 94.9375 447.969 95.4844 447.969C95.9271 447.969 96.3333 448.023 96.7031 448.133C97.0781 448.237 97.4115 448.406 97.7031 448.641C97.9948 448.87 98.2422 449.177 98.4453 449.562C98.6536 449.943 98.8125 450.409 98.9219 450.961C99.0312 451.513 99.0859 452.161 99.0859 452.906ZM97.6328 454.875V452.664C97.6328 452.154 97.6016 451.706 97.5391 451.32C97.4818 450.93 97.3958 450.596 97.2812 450.32C97.1667 450.044 97.0208 449.82 96.8438 449.648C96.6719 449.477 96.4714 449.352 96.2422 449.273C96.0182 449.19 95.7656 449.148 95.4844 449.148C95.1406 449.148 94.8359 449.214 94.5703 449.344C94.3047 449.469 94.0807 449.669 93.8984 449.945C93.7214 450.221 93.5859 450.583 93.4922 451.031C93.3984 451.479 93.3516 452.023 93.3516 452.664V454.875C93.3516 455.385 93.3802 455.836 93.4375 456.227C93.5 456.617 93.5911 456.956 93.7109 457.242C93.8307 457.523 93.9766 457.755 94.1484 457.938C94.3203 458.12 94.5182 458.255 94.7422 458.344C94.9714 458.427 95.224 458.469 95.5 458.469C95.8542 458.469 96.1641 458.401 96.4297 458.266C96.6953 458.13 96.9167 457.919 97.0938 457.633C97.276 457.341 97.4115 456.969 97.5 456.516C97.5885 456.057 97.6328 455.51 97.6328 454.875ZM108.086 452.906V454.641C108.086 455.573 108.003 456.359 107.836 457C107.669 457.641 107.43 458.156 107.117 458.547C106.805 458.938 106.427 459.221 105.984 459.398C105.547 459.57 105.052 459.656 104.5 459.656C104.062 459.656 103.659 459.602 103.289 459.492C102.919 459.383 102.586 459.208 102.289 458.969C101.997 458.724 101.747 458.406 101.539 458.016C101.331 457.625 101.172 457.151 101.062 456.594C100.953 456.036 100.898 455.385 100.898 454.641V452.906C100.898 451.974 100.982 451.193 101.148 450.562C101.32 449.932 101.562 449.427 101.875 449.047C102.188 448.661 102.562 448.385 103 448.219C103.443 448.052 103.938 447.969 104.484 447.969C104.927 447.969 105.333 448.023 105.703 448.133C106.078 448.237 106.411 448.406 106.703 448.641C106.995 448.87 107.242 449.177 107.445 449.562C107.654 449.943 107.812 450.409 107.922 450.961C108.031 451.513 108.086 452.161 108.086 452.906ZM106.633 454.875V452.664C106.633 452.154 106.602 451.706 106.539 451.32C106.482 450.93 106.396 450.596 106.281 450.32C106.167 450.044 106.021 449.82 105.844 449.648C105.672 449.477 105.471 449.352 105.242 449.273C105.018 449.19 104.766 449.148 104.484 449.148C104.141 449.148 103.836 449.214 103.57 449.344C103.305 449.469 103.081 449.669 102.898 449.945C102.721 450.221 102.586 450.583 102.492 451.031C102.398 451.479 102.352 452.023 102.352 452.664V454.875C102.352 455.385 102.38 455.836 102.438 456.227C102.5 456.617 102.591 456.956 102.711 457.242C102.831 457.523 102.977 457.755 103.148 457.938C103.32 458.12 103.518 458.255 103.742 458.344C103.971 458.427 104.224 458.469 104.5 458.469C104.854 458.469 105.164 458.401 105.43 458.266C105.695 458.13 105.917 457.919 106.094 457.633C106.276 457.341 106.411 456.969 106.5 456.516C106.589 456.057 106.633 455.51 106.633 454.875ZM111.383 458.289H111.531C112.365 458.289 113.042 458.172 113.562 457.938C114.083 457.703 114.484 457.388 114.766 456.992C115.047 456.596 115.24 456.151 115.344 455.656C115.448 455.156 115.5 454.643 115.5 454.117V452.375C115.5 451.859 115.44 451.401 115.32 451C115.206 450.599 115.044 450.263 114.836 449.992C114.633 449.721 114.401 449.516 114.141 449.375C113.88 449.234 113.604 449.164 113.312 449.164C112.979 449.164 112.68 449.232 112.414 449.367C112.154 449.497 111.932 449.682 111.75 449.922C111.573 450.161 111.438 450.443 111.344 450.766C111.25 451.089 111.203 451.44 111.203 451.82C111.203 452.159 111.245 452.487 111.328 452.805C111.411 453.122 111.539 453.409 111.711 453.664C111.883 453.919 112.096 454.122 112.352 454.273C112.612 454.419 112.917 454.492 113.266 454.492C113.589 454.492 113.891 454.43 114.172 454.305C114.458 454.174 114.711 454 114.93 453.781C115.154 453.557 115.331 453.305 115.461 453.023C115.596 452.742 115.674 452.448 115.695 452.141H116.383C116.383 452.573 116.297 453 116.125 453.422C115.958 453.839 115.724 454.219 115.422 454.562C115.12 454.906 114.766 455.182 114.359 455.391C113.953 455.594 113.51 455.695 113.031 455.695C112.469 455.695 111.982 455.586 111.57 455.367C111.159 455.148 110.82 454.857 110.555 454.492C110.294 454.128 110.099 453.721 109.969 453.273C109.844 452.82 109.781 452.362 109.781 451.898C109.781 451.357 109.857 450.849 110.008 450.375C110.159 449.901 110.383 449.484 110.68 449.125C110.977 448.76 111.344 448.477 111.781 448.273C112.224 448.07 112.734 447.969 113.312 447.969C113.964 447.969 114.518 448.099 114.977 448.359C115.435 448.62 115.807 448.969 116.094 449.406C116.385 449.844 116.599 450.336 116.734 450.883C116.87 451.43 116.938 451.992 116.938 452.57V453.094C116.938 453.682 116.898 454.281 116.82 454.891C116.747 455.495 116.604 456.073 116.391 456.625C116.182 457.177 115.878 457.672 115.477 458.109C115.076 458.542 114.552 458.885 113.906 459.141C113.266 459.391 112.474 459.516 111.531 459.516H111.383V458.289Z" fill="black"/>
<rect x="222" y="434" width="146" height="40" rx="8" fill="#FBFCFB"/>
<path d="M246.633 455.672V456.859H238.414V456.008L243.508 448.125H244.688L243.422 450.406L240.055 455.672H246.633ZM245.047 448.125V459.5H243.602V448.125H245.047Z" fill="black"/>
<circle cx="260" cy="454" r="5" fill="#424242"/>
<circle cx="330" cy="454" r="5" fill="#424242"/>
<circle cx="316" cy="454" r="5" fill="#424242"/>
<circle cx="302" cy="454" r="5" fill="#424242"/>
<circle cx="288" cy="454" r="5" fill="#424242"/>
<circle cx="274" cy="454" r="5" fill="#424242"/>
<path d="M208.109 455.57V456.758H204.297V455.57H208.109Z" fill="black"/>
<path d="M51.144 343.528H52.14V346.948H51.144V343.528ZM54.876 343.528H55.872V346.948H54.876V343.528ZM49.116 337.276H57.84V338.08H49.116V337.276ZM48.6 343.024H58.44V343.84H48.6V343.024ZM53.496 338.704C54.6 338.704 55.464 338.86 56.088 339.172C56.712 339.476 57.024 339.916 57.024 340.492C57.024 341.06 56.712 341.504 56.088 341.824C55.464 342.136 54.6 342.292 53.496 342.292C52.392 342.292 51.528 342.136 50.904 341.824C50.28 341.504 49.968 341.06 49.968 340.492C49.968 339.916 50.28 339.476 50.904 339.172C51.528 338.86 52.392 338.704 53.496 338.704ZM53.496 339.46C52.704 339.46 52.088 339.548 51.648 339.724C51.216 339.9 51 340.156 51 340.492C51 340.82 51.216 341.076 51.648 341.26C52.088 341.436 52.704 341.524 53.496 341.524C54.288 341.524 54.9 341.436 55.332 341.26C55.772 341.076 55.992 340.82 55.992 340.492C55.992 340.156 55.772 339.9 55.332 339.724C54.9 339.548 54.288 339.46 53.496 339.46ZM53.004 336.016H53.988V337.852H53.004V336.016ZM67.8951 336.076H68.8431V346.936H67.8951V336.076ZM66.0591 340.432H68.1471V341.248H66.0591V340.432ZM65.4351 336.316H66.3591V346.372H65.4351V336.316ZM60.0231 343.42H60.7311C61.2671 343.42 61.7511 343.416 62.1831 343.408C62.6231 343.392 63.0391 343.36 63.4311 343.312C63.8311 343.264 64.2391 343.196 64.6551 343.108L64.7511 343.936C64.3191 344.024 63.8991 344.092 63.4911 344.14C63.0911 344.188 62.6671 344.22 62.2191 344.236C61.7791 344.252 61.2831 344.26 60.7311 344.26H60.0231V343.42ZM60.0231 337.396H64.0551V338.212H61.0191V343.804H60.0231V337.396ZM71.5901 336.568H79.5461V337.384H71.5901V336.568ZM71.6261 339.844H79.5101V340.636H71.6261V339.844ZM73.2221 336.952H74.2181V340.204H73.2221V336.952ZM76.9181 336.952H77.9141V340.204H76.9181V336.952ZM70.6781 341.956H80.4821V342.76H70.6781V341.956ZM75.0821 340.372H76.0781V342.448H75.0821V340.372ZM71.9381 345.88H79.3901V346.696H71.9381V345.88ZM71.9381 343.708H72.9341V346.144H71.9381V343.708ZM90.017 339.136H93.125V339.952H90.017V339.136ZM92.825 336.088H93.821V344.116H92.825V336.088ZM86.849 345.88H94.073V346.696H86.849V345.88ZM86.849 343.336H87.845V346.288H86.849V343.336ZM85.421 336.808H86.417V338.716H89.345V336.808H90.329V342.268H85.421V336.808ZM86.417 339.496V341.464H89.345V339.496H86.417ZM96.412 337.672H105.232V338.488H96.412V337.672ZM95.932 344.848H105.772V345.664H95.932V344.848ZM100.336 343.12H101.32V345.16H100.336V343.12ZM100.828 339.208C101.556 339.208 102.184 339.292 102.712 339.46C103.248 339.62 103.66 339.852 103.948 340.156C104.236 340.46 104.38 340.832 104.38 341.272C104.38 341.704 104.236 342.076 103.948 342.388C103.66 342.7 103.248 342.94 102.712 343.108C102.184 343.268 101.556 343.348 100.828 343.348C100.1 343.348 99.468 343.268 98.932 343.108C98.404 342.94 97.996 342.7 97.708 342.388C97.42 342.076 97.276 341.704 97.276 341.272C97.276 340.832 97.42 340.46 97.708 340.156C97.996 339.852 98.404 339.62 98.932 339.46C99.468 339.292 100.1 339.208 100.828 339.208ZM100.828 340C100.3 340 99.844 340.052 99.46 340.156C99.084 340.252 98.792 340.396 98.584 340.588C98.384 340.772 98.284 341 98.284 341.272C98.284 341.536 98.384 341.764 98.584 341.956C98.792 342.148 99.084 342.296 99.46 342.4C99.844 342.496 100.3 342.544 100.828 342.544C101.356 342.544 101.808 342.496 102.184 342.4C102.56 342.296 102.852 342.148 103.06 341.956C103.268 341.764 103.372 341.536 103.372 341.272C103.372 341 103.268 340.772 103.06 340.588C102.852 340.396 102.56 340.252 102.184 340.156C101.808 340.052 101.356 340 100.828 340ZM100.336 336.256H101.32V338.164H100.336V336.256Z" fill="#404040"/>
<rect x="140" y="353" width="228" height="40" rx="8" fill="#FBFCFB"/>
<path d="M163.086 372.406V374.141C163.086 375.073 163.003 375.859 162.836 376.5C162.669 377.141 162.43 377.656 162.117 378.047C161.805 378.438 161.427 378.721 160.984 378.898C160.547 379.07 160.052 379.156 159.5 379.156C159.062 379.156 158.659 379.102 158.289 378.992C157.919 378.883 157.586 378.708 157.289 378.469C156.997 378.224 156.747 377.906 156.539 377.516C156.331 377.125 156.172 376.651 156.062 376.094C155.953 375.536 155.898 374.885 155.898 374.141V372.406C155.898 371.474 155.982 370.693 156.148 370.062C156.32 369.432 156.562 368.927 156.875 368.547C157.188 368.161 157.562 367.885 158 367.719C158.443 367.552 158.938 367.469 159.484 367.469C159.927 367.469 160.333 367.523 160.703 367.633C161.078 367.737 161.411 367.906 161.703 368.141C161.995 368.37 162.242 368.677 162.445 369.062C162.654 369.443 162.812 369.909 162.922 370.461C163.031 371.013 163.086 371.661 163.086 372.406ZM161.633 374.375V372.164C161.633 371.654 161.602 371.206 161.539 370.82C161.482 370.43 161.396 370.096 161.281 369.82C161.167 369.544 161.021 369.32 160.844 369.148C160.672 368.977 160.471 368.852 160.242 368.773C160.018 368.69 159.766 368.648 159.484 368.648C159.141 368.648 158.836 368.714 158.57 368.844C158.305 368.969 158.081 369.169 157.898 369.445C157.721 369.721 157.586 370.083 157.492 370.531C157.398 370.979 157.352 371.523 157.352 372.164V374.375C157.352 374.885 157.38 375.336 157.438 375.727C157.5 376.117 157.591 376.456 157.711 376.742C157.831 377.023 157.977 377.255 158.148 377.438C158.32 377.62 158.518 377.755 158.742 377.844C158.971 377.927 159.224 377.969 159.5 377.969C159.854 377.969 160.164 377.901 160.43 377.766C160.695 377.63 160.917 377.419 161.094 377.133C161.276 376.841 161.411 376.469 161.5 376.016C161.589 375.557 161.633 375.01 161.633 374.375ZM169.695 367.562V379H168.25V369.367L165.336 370.43V369.125L169.469 367.562H169.695ZM181.086 372.406V374.141C181.086 375.073 181.003 375.859 180.836 376.5C180.669 377.141 180.43 377.656 180.117 378.047C179.805 378.438 179.427 378.721 178.984 378.898C178.547 379.07 178.052 379.156 177.5 379.156C177.062 379.156 176.659 379.102 176.289 378.992C175.919 378.883 175.586 378.708 175.289 378.469C174.997 378.224 174.747 377.906 174.539 377.516C174.331 377.125 174.172 376.651 174.062 376.094C173.953 375.536 173.898 374.885 173.898 374.141V372.406C173.898 371.474 173.982 370.693 174.148 370.062C174.32 369.432 174.562 368.927 174.875 368.547C175.188 368.161 175.562 367.885 176 367.719C176.443 367.552 176.938 367.469 177.484 367.469C177.927 367.469 178.333 367.523 178.703 367.633C179.078 367.737 179.411 367.906 179.703 368.141C179.995 368.37 180.242 368.677 180.445 369.062C180.654 369.443 180.812 369.909 180.922 370.461C181.031 371.013 181.086 371.661 181.086 372.406ZM179.633 374.375V372.164C179.633 371.654 179.602 371.206 179.539 370.82C179.482 370.43 179.396 370.096 179.281 369.82C179.167 369.544 179.021 369.32 178.844 369.148C178.672 368.977 178.471 368.852 178.242 368.773C178.018 368.69 177.766 368.648 177.484 368.648C177.141 368.648 176.836 368.714 176.57 368.844C176.305 368.969 176.081 369.169 175.898 369.445C175.721 369.721 175.586 370.083 175.492 370.531C175.398 370.979 175.352 371.523 175.352 372.164V374.375C175.352 374.885 175.38 375.336 175.438 375.727C175.5 376.117 175.591 376.456 175.711 376.742C175.831 377.023 175.977 377.255 176.148 377.438C176.32 377.62 176.518 377.755 176.742 377.844C176.971 377.927 177.224 377.969 177.5 377.969C177.854 377.969 178.164 377.901 178.43 377.766C178.695 377.63 178.917 377.419 179.094 377.133C179.276 376.841 179.411 376.469 179.5 376.016C179.589 375.557 179.633 375.01 179.633 374.375ZM186.109 373.57V374.758H182.297V373.57H186.109ZM188.5 370.547L190.352 373.625L192.227 370.547H193.922L191.156 374.719L194.008 379H192.336L190.383 375.828L188.43 379H186.75L189.594 374.719L186.836 370.547H188.5ZM196.438 370.547L198.289 373.625L200.164 370.547H201.859L199.094 374.719L201.945 379H200.273L198.32 375.828L196.367 379H194.688L197.531 374.719L194.773 370.547H196.438ZM204.375 370.547L206.227 373.625L208.102 370.547H209.797L207.031 374.719L209.883 379H208.211L206.258 375.828L204.305 379H202.625L205.469 374.719L202.711 370.547H204.375ZM212.312 370.547L214.164 373.625L216.039 370.547H217.734L214.969 374.719L217.82 379H216.148L214.195 375.828L212.242 379H210.562L213.406 374.719L210.648 370.547H212.312ZM222.281 373.57V374.758H218.469V373.57H222.281ZM224.672 370.547L226.523 373.625L228.398 370.547H230.094L227.328 374.719L230.18 379H228.508L226.555 375.828L224.602 379H222.922L225.766 374.719L223.008 370.547H224.672ZM232.609 370.547L234.461 373.625L236.336 370.547H238.031L235.266 374.719L238.117 379H236.445L234.492 375.828L232.539 379H230.859L233.703 374.719L230.945 370.547H232.609ZM240.547 370.547L242.398 373.625L244.273 370.547H245.969L243.203 374.719L246.055 379H244.383L242.43 375.828L240.477 379H238.797L241.641 374.719L238.883 370.547H240.547ZM248.484 370.547L250.336 373.625L252.211 370.547H253.906L251.141 374.719L253.992 379H252.32L250.367 375.828L248.414 379H246.734L249.578 374.719L246.82 370.547H248.484Z" fill="black"/>
<rect x="48" y="353" width="80" height="40" rx="8" fill="#FBFCFB"/>
<path d="M60.8281 367.625V379H59.3203V367.625H60.8281ZM67.6953 367.625L62.9688 372.93L60.3125 375.688L60.0625 374.078L62.0625 371.875L65.8828 367.625H67.6953ZM66.2422 379L62.0312 373.453L62.9297 372.258L68.0391 379H66.2422ZM73.5703 367.625V379H72.0859V367.625H73.5703ZM77.2266 367.625V368.859H68.4375V367.625H77.2266Z" fill="black"/>
<path d="M92.7698 232.76H95.4298V237.82H92.7698V232.76ZM99.1698 232.76H101.83V237.82H99.1698V232.76ZM89.6898 221.1H104.79V223.18H89.6898V221.1ZM88.9098 231.1H105.69V233.22H88.9098V231.1ZM97.2898 223.9C99.2765 223.9 100.83 224.173 101.95 224.72C103.07 225.267 103.63 226.04 103.63 227.04C103.63 228.067 103.07 228.853 101.95 229.4C100.83 229.947 99.2698 230.22 97.2698 230.22C95.2832 230.22 93.7298 229.947 92.6098 229.4C91.4898 228.853 90.9298 228.067 90.9298 227.04C90.9298 226.04 91.4898 225.267 92.6098 224.72C93.7298 224.173 95.2898 223.9 97.2898 223.9ZM97.2698 225.86C96.0698 225.86 95.1698 225.953 94.5698 226.14C93.9832 226.327 93.6898 226.627 93.6898 227.04C93.6898 227.453 93.9832 227.76 94.5698 227.96C95.1698 228.147 96.0698 228.24 97.2698 228.24C98.4832 228.24 99.3832 228.147 99.9698 227.96C100.57 227.76 100.87 227.453 100.87 227.04C100.87 226.627 100.57 226.327 99.9698 226.14C99.3832 225.953 98.4832 225.86 97.2698 225.86ZM95.9498 219.24H98.5898V222.56H95.9498V219.24ZM120.668 219.24H123.208V237.76H120.668V219.24ZM118.208 226.38H121.288V228.52H118.208V226.38ZM116.528 219.56H118.988V236.9H116.528V219.56ZM107.828 231.4H109.108C109.882 231.4 110.615 231.393 111.308 231.38C112.002 231.353 112.688 231.307 113.368 231.24C114.062 231.16 114.768 231.06 115.488 230.94L115.708 233.1C114.962 233.233 114.235 233.34 113.528 233.42C112.822 233.5 112.108 233.553 111.388 233.58C110.668 233.593 109.908 233.6 109.108 233.6H107.828V231.4ZM107.828 221.4H114.648V223.54H110.448V232.46H107.828V221.4ZM127.147 219.94H140.967V222.04H127.147V219.94ZM127.287 225.16H140.807V227.26H127.287V225.16ZM129.507 220.76H132.167V226.24H129.507V220.76ZM135.947 220.76H138.607V226.24H135.947V220.76ZM125.687 228.92H142.447V231.04H125.687V228.92ZM132.727 226.58H135.367V230.18H132.727V226.58ZM127.727 235.32H140.567V237.46H127.727V235.32ZM127.727 232.22H130.387V236.08H127.727V232.22ZM157.455 224.16H162.215V226.3H157.455V224.16ZM161.535 219.26H164.215V232.92H161.535V219.26ZM151.955 235.32H164.615V237.46H151.955V235.32ZM151.955 231.58H154.615V236.54H151.955V231.58ZM149.475 220.48H152.115V223.28H155.635V220.48H158.255V230.04H149.475V220.48ZM152.115 225.32V227.92H155.635V225.32H152.115ZM167.833 221.56H183.093V223.68H167.833V221.56ZM167.113 233.78H183.893V235.92H167.113V233.78ZM174.133 231.32H176.793V234.62H174.133V231.32ZM175.453 224.46C176.733 224.46 177.84 224.607 178.773 224.9C179.72 225.18 180.446 225.593 180.953 226.14C181.46 226.673 181.713 227.32 181.713 228.08C181.713 228.84 181.46 229.493 180.953 230.04C180.446 230.573 179.72 230.987 178.773 231.28C177.84 231.56 176.726 231.7 175.433 231.7C174.153 231.7 173.04 231.56 172.093 231.28C171.16 230.987 170.44 230.573 169.933 230.04C169.426 229.493 169.173 228.84 169.173 228.08C169.173 227.32 169.426 226.673 169.933 226.14C170.44 225.593 171.16 225.18 172.093 224.9C173.04 224.607 174.16 224.46 175.453 224.46ZM175.433 226.52C174.673 226.52 174.026 226.58 173.493 226.7C172.96 226.807 172.553 226.973 172.273 227.2C172.006 227.427 171.873 227.72 171.873 228.08C171.873 228.427 172.006 228.72 172.273 228.96C172.553 229.187 172.96 229.353 173.493 229.46C174.026 229.567 174.673 229.62 175.433 229.62C176.22 229.62 176.873 229.567 177.393 229.46C177.913 229.353 178.306 229.187 178.573 228.96C178.853 228.72 178.993 228.427 178.993 228.08C178.993 227.72 178.853 227.427 178.573 227.2C178.306 226.973 177.913 226.807 177.393 226.7C176.873 226.58 176.22 226.52 175.433 226.52ZM174.133 219.44H176.793V222.88H174.133V219.44ZM185.511 227.56H202.271V229.48H185.511V227.56ZM187.391 230.42H200.291V234.82H190.051V236.4H187.411V233.14H197.671V232.22H187.391V230.42ZM187.411 235.82H200.811V237.62H187.411V235.82ZM187.551 219.56H200.231V223.94H190.211V225.44H187.591V222.26H197.611V221.36H187.551V219.56ZM187.591 224.9H200.571V226.7H187.591V224.9ZM221.239 219.26H223.899V229.2H221.239V219.26ZM211.599 230.02H214.219V231.74H221.259V230.02H223.899V237.58H211.599V230.02ZM214.219 233.78V235.46H221.259V233.78H214.219ZM213.819 220.02C214.779 220.02 215.639 220.207 216.399 220.58C217.159 220.953 217.759 221.467 218.199 222.12C218.639 222.773 218.859 223.527 218.859 224.38C218.859 225.233 218.639 225.993 218.199 226.66C217.759 227.313 217.159 227.827 216.399 228.2C215.639 228.573 214.779 228.76 213.819 228.76C212.859 228.76 211.999 228.573 211.239 228.2C210.479 227.827 209.879 227.313 209.439 226.66C208.999 225.993 208.779 225.233 208.779 224.38C208.779 223.527 208.999 222.773 209.439 222.12C209.879 221.467 210.479 220.953 211.239 220.58C211.999 220.207 212.859 220.02 213.819 220.02ZM213.819 222.2C213.353 222.2 212.933 222.287 212.559 222.46C212.186 222.633 211.893 222.887 211.679 223.22C211.479 223.54 211.379 223.927 211.379 224.38C211.379 224.847 211.479 225.247 211.679 225.58C211.893 225.9 212.186 226.147 212.559 226.32C212.933 226.48 213.353 226.56 213.819 226.56C214.286 226.56 214.699 226.48 215.059 226.32C215.433 226.147 215.726 225.9 215.939 225.58C216.153 225.247 216.259 224.847 216.259 224.38C216.259 223.927 216.153 223.54 215.939 223.22C215.726 222.887 215.433 222.633 215.059 222.46C214.699 222.287 214.286 222.2 213.819 222.2ZM227.618 228.06H229.018C230.178 228.06 231.171 228.053 231.998 228.04C232.838 228.013 233.604 227.967 234.298 227.9C234.991 227.833 235.678 227.74 236.358 227.62L236.638 229.74C236.091 229.833 235.551 229.913 235.018 229.98C234.498 230.047 233.938 230.093 233.338 230.12C232.751 230.147 232.104 230.167 231.398 230.18C230.704 230.193 229.911 230.2 229.018 230.2H227.618V228.06ZM227.578 220.3H235.718V226.14H230.258V229.48H227.618V224.16H233.098V222.42H227.578V220.3ZM239.738 219.26H242.418V230.68H239.738V219.26ZM236.778 221.82H240.238V223.94H236.778V221.82ZM236.778 225.76H240.238V227.88H236.778V225.76ZM229.718 231.52H242.418V237.78H239.738V233.62H229.718V231.52ZM245.296 222.04H254.156V224.14H245.296V222.04ZM249.756 224.98C250.543 224.98 251.236 225.167 251.836 225.54C252.449 225.913 252.929 226.433 253.276 227.1C253.636 227.753 253.816 228.513 253.816 229.38C253.816 230.247 253.636 231.013 253.276 231.68C252.929 232.333 252.449 232.847 251.836 233.22C251.236 233.593 250.543 233.78 249.756 233.78C248.969 233.78 248.269 233.593 247.656 233.22C247.043 232.847 246.563 232.333 246.216 231.68C245.869 231.013 245.696 230.247 245.696 229.38C245.696 228.513 245.869 227.753 246.216 227.1C246.563 226.433 247.043 225.913 247.656 225.54C248.283 225.167 248.983 224.98 249.756 224.98ZM249.756 227.18C249.436 227.18 249.143 227.267 248.876 227.44C248.609 227.613 248.403 227.867 248.256 228.2C248.109 228.52 248.036 228.913 248.036 229.38C248.036 229.847 248.109 230.247 248.256 230.58C248.403 230.913 248.609 231.167 248.876 231.34C249.143 231.5 249.436 231.58 249.756 231.58C250.089 231.58 250.383 231.5 250.636 231.34C250.889 231.167 251.089 230.913 251.236 230.58C251.383 230.247 251.456 229.847 251.456 229.38C251.456 228.913 251.383 228.52 251.236 228.2C251.089 227.867 250.889 227.613 250.636 227.44C250.383 227.267 250.089 227.18 249.756 227.18ZM258.696 219.24H261.216V237.76H258.696V219.24ZM256.476 226.78H259.516V228.92H256.476V226.78ZM254.796 219.58H257.276V236.98H254.796V219.58ZM248.456 219.74H251.076V223.36H248.456V219.74ZM270.555 221.3H272.875V221.86C272.875 222.5 272.768 223.12 272.555 223.72C272.355 224.32 272.048 224.88 271.635 225.4C271.221 225.907 270.715 226.367 270.115 226.78C269.528 227.18 268.848 227.52 268.075 227.8C267.301 228.08 266.441 228.28 265.495 228.4L264.515 226.34C265.341 226.233 266.075 226.073 266.715 225.86C267.368 225.633 267.935 225.373 268.415 225.08C268.895 224.773 269.295 224.447 269.615 224.1C269.935 223.753 270.168 223.387 270.315 223C270.475 222.613 270.555 222.233 270.555 221.86V221.3ZM271.335 221.3H273.635V221.86C273.635 222.233 273.708 222.613 273.855 223C274.015 223.387 274.255 223.753 274.575 224.1C274.895 224.447 275.295 224.773 275.775 225.08C276.268 225.373 276.835 225.633 277.475 225.86C278.115 226.073 278.848 226.233 279.675 226.34L278.695 228.4C277.748 228.28 276.888 228.08 276.115 227.8C275.341 227.52 274.655 227.18 274.055 226.78C273.468 226.367 272.968 225.907 272.555 225.4C272.155 224.88 271.848 224.32 271.635 223.72C271.435 223.12 271.335 222.5 271.335 221.86V221.3ZM270.695 231H273.355V237.78H270.695V231ZM263.715 229.46H280.475V231.6H263.715V229.46ZM265.195 220.2H278.935V222.3H265.195V220.2ZM289.393 225.48H292.473V227.64H289.393V225.48ZM285.453 220.86H287.473V223.96C287.473 225.013 287.4 226.047 287.253 227.06C287.106 228.073 286.866 229.027 286.533 229.92C286.213 230.813 285.786 231.62 285.253 232.34C284.733 233.047 284.1 233.627 283.353 234.08L281.753 232.08C282.446 231.667 283.026 231.16 283.493 230.56C283.96 229.96 284.34 229.3 284.633 228.58C284.926 227.86 285.133 227.113 285.253 226.34C285.386 225.553 285.453 224.76 285.453 223.96V220.86ZM286.033 220.86H288.013V223.84C288.013 224.6 288.066 225.353 288.173 226.1C288.293 226.847 288.48 227.56 288.733 228.24C288.986 228.92 289.32 229.547 289.733 230.12C290.16 230.693 290.693 231.187 291.333 231.6L289.873 233.68C289.153 233.227 288.54 232.653 288.033 231.96C287.54 231.253 287.146 230.46 286.853 229.58C286.56 228.7 286.346 227.773 286.213 226.8C286.093 225.827 286.033 224.84 286.033 223.84V220.86ZM295.473 219.24H298.013V237.76H295.473V219.24ZM291.713 219.54H294.193V236.94H291.713V219.54ZM304.191 228.66H306.851V233.84H304.191V228.66ZM310.911 228.66H313.571V233.84H310.911V228.66ZM300.511 233.46H317.291V235.62H300.511V233.46ZM308.871 220.16C310.205 220.16 311.391 220.367 312.431 220.78C313.485 221.193 314.305 221.773 314.891 222.52C315.491 223.253 315.791 224.127 315.791 225.14C315.791 226.14 315.491 227.013 314.891 227.76C314.305 228.493 313.485 229.067 312.431 229.48C311.391 229.893 310.205 230.1 308.871 230.1C307.551 230.1 306.365 229.893 305.311 229.48C304.271 229.067 303.451 228.493 302.851 227.76C302.251 227.013 301.951 226.14 301.951 225.14C301.951 224.127 302.251 223.253 302.851 222.52C303.451 221.773 304.271 221.193 305.311 220.78C306.365 220.367 307.551 220.16 308.871 220.16ZM308.871 222.22C308.018 222.22 307.265 222.34 306.611 222.58C305.971 222.807 305.471 223.133 305.111 223.56C304.751 223.987 304.571 224.513 304.571 225.14C304.571 225.74 304.751 226.26 305.111 226.7C305.471 227.127 305.971 227.46 306.611 227.7C307.265 227.927 308.018 228.04 308.871 228.04C309.738 228.04 310.491 227.927 311.131 227.7C311.785 227.46 312.285 227.127 312.631 226.7C312.991 226.26 313.171 225.74 313.171 225.14C313.171 224.513 312.991 223.987 312.631 223.56C312.285 223.133 311.785 222.807 311.131 222.58C310.491 222.34 309.738 222.22 308.871 222.22ZM319.33 234.604C319.33 234.174 319.473 233.816 319.76 233.529C320.046 233.236 320.434 233.09 320.922 233.09C321.41 233.09 321.798 233.236 322.084 233.529C322.37 233.816 322.514 234.174 322.514 234.604C322.514 235.033 322.37 235.391 322.084 235.678C321.798 235.964 321.41 236.107 320.922 236.107C320.434 236.107 320.046 235.964 319.76 235.678C319.473 235.391 319.33 235.033 319.33 234.604Z" fill="black"/>
<path d="M27.416 12.0469V12.7578L23.2939 22H21.9609L26.0762 13.0859H20.6895V12.0469H27.416ZM28.9404 21.3301C28.9404 21.1159 29.0065 20.9359 29.1387 20.79C29.2754 20.6396 29.4714 20.5645 29.7266 20.5645C29.9818 20.5645 30.1755 20.6396 30.3076 20.79C30.4443 20.9359 30.5127 21.1159 30.5127 21.3301C30.5127 21.5397 30.4443 21.7174 30.3076 21.8633C30.1755 22.0091 29.9818 22.082 29.7266 22.082C29.4714 22.082 29.2754 22.0091 29.1387 21.8633C29.0065 21.7174 28.9404 21.5397 28.9404 21.3301ZM28.9473 15.2939C28.9473 15.0798 29.0133 14.8997 29.1455 14.7539C29.2822 14.6035 29.4782 14.5283 29.7334 14.5283C29.9886 14.5283 30.1823 14.6035 30.3145 14.7539C30.4512 14.8997 30.5195 15.0798 30.5195 15.2939C30.5195 15.5036 30.4512 15.6813 30.3145 15.8271C30.1823 15.973 29.9886 16.0459 29.7334 16.0459C29.4782 16.0459 29.2822 15.973 29.1455 15.8271C29.0133 15.6813 28.9473 15.5036 28.9473 15.2939ZM34.0947 16.4014H34.9971C35.4391 16.4014 35.8037 16.3285 36.0908 16.1826C36.3825 16.0322 36.599 15.8294 36.7402 15.5742C36.8861 15.3145 36.959 15.0228 36.959 14.6992C36.959 14.3164 36.8952 13.9951 36.7676 13.7354C36.64 13.4756 36.4486 13.2796 36.1934 13.1475C35.9382 13.0153 35.6146 12.9492 35.2227 12.9492C34.8672 12.9492 34.5527 13.0199 34.2793 13.1611C34.0104 13.2979 33.7985 13.4938 33.6436 13.749C33.4932 14.0042 33.418 14.305 33.418 14.6514H32.1533C32.1533 14.1455 32.2809 13.6852 32.5361 13.2705C32.7913 12.8558 33.1491 12.5254 33.6094 12.2793C34.0742 12.0332 34.612 11.9102 35.2227 11.9102C35.8242 11.9102 36.3506 12.0173 36.8018 12.2314C37.2529 12.4411 37.6038 12.7555 37.8545 13.1748C38.1051 13.5895 38.2305 14.1068 38.2305 14.7266C38.2305 14.9772 38.1712 15.2461 38.0527 15.5332C37.9388 15.8158 37.7588 16.0801 37.5127 16.3262C37.2712 16.5723 36.9567 16.7751 36.5693 16.9346C36.182 17.0895 35.7171 17.167 35.1748 17.167H34.0947V16.4014ZM34.0947 17.4404V16.6816H35.1748C35.8083 16.6816 36.3324 16.7568 36.7471 16.9072C37.1618 17.0576 37.4876 17.2581 37.7246 17.5088C37.9661 17.7594 38.1348 18.0352 38.2305 18.3359C38.3307 18.6322 38.3809 18.9284 38.3809 19.2246C38.3809 19.6895 38.3011 20.1019 38.1416 20.4619C37.9867 20.8219 37.7656 21.1273 37.4785 21.3779C37.196 21.6286 36.8633 21.8177 36.4805 21.9453C36.0977 22.0729 35.6807 22.1367 35.2295 22.1367C34.7965 22.1367 34.3887 22.0752 34.0059 21.9521C33.6276 21.8291 33.2926 21.6514 33.001 21.4189C32.7093 21.182 32.4814 20.8926 32.3174 20.5508C32.1533 20.2044 32.0713 19.8102 32.0713 19.3682H33.3359C33.3359 19.7145 33.4111 20.0176 33.5615 20.2773C33.7165 20.5371 33.9352 20.7399 34.2178 20.8857C34.5049 21.027 34.8421 21.0977 35.2295 21.0977C35.6169 21.0977 35.9495 21.0316 36.2275 20.8994C36.5101 20.7627 36.7266 20.5576 36.877 20.2842C37.0319 20.0107 37.1094 19.6667 37.1094 19.252C37.1094 18.8372 37.0228 18.4977 36.8496 18.2334C36.6764 17.9645 36.4303 17.7663 36.1113 17.6387C35.7969 17.5065 35.4255 17.4404 34.9971 17.4404H34.0947ZM46.3721 16.2305V17.748C46.3721 18.5638 46.2992 19.252 46.1533 19.8125C46.0075 20.373 45.7979 20.8242 45.5244 21.166C45.251 21.5078 44.9206 21.7562 44.5332 21.9111C44.1504 22.0615 43.7174 22.1367 43.2344 22.1367C42.8516 22.1367 42.4984 22.0889 42.1748 21.9932C41.8512 21.8975 41.5596 21.7448 41.2998 21.5352C41.0446 21.321 40.8258 21.043 40.6436 20.7012C40.4613 20.3594 40.3223 19.9447 40.2266 19.457C40.1309 18.9694 40.083 18.3997 40.083 17.748V16.2305C40.083 15.4147 40.1559 14.7311 40.3018 14.1797C40.4521 13.6283 40.6641 13.1862 40.9375 12.8535C41.2109 12.5163 41.5391 12.2747 41.9219 12.1289C42.3092 11.9831 42.7422 11.9102 43.2207 11.9102C43.6081 11.9102 43.9635 11.958 44.2871 12.0537C44.6152 12.1449 44.9069 12.293 45.1621 12.498C45.4173 12.6986 45.6338 12.9674 45.8115 13.3047C45.9938 13.6374 46.1328 14.0452 46.2285 14.5283C46.3242 15.0114 46.3721 15.5788 46.3721 16.2305ZM45.1006 17.9531V16.0186C45.1006 15.5719 45.0732 15.18 45.0186 14.8428C44.9684 14.501 44.8932 14.2093 44.793 13.9678C44.6927 13.7262 44.5651 13.5303 44.4102 13.3799C44.2598 13.2295 44.0843 13.1201 43.8838 13.0518C43.6878 12.9788 43.4668 12.9424 43.2207 12.9424C42.9199 12.9424 42.6533 12.9993 42.4209 13.1133C42.1885 13.2227 41.9925 13.3981 41.833 13.6396C41.6781 13.8812 41.5596 14.1979 41.4775 14.5898C41.3955 14.9818 41.3545 15.458 41.3545 16.0186V17.9531C41.3545 18.3997 41.3796 18.7939 41.4297 19.1357C41.4844 19.4775 41.5641 19.7738 41.6689 20.0244C41.7738 20.2705 41.9014 20.4733 42.0518 20.6328C42.2021 20.7923 42.3753 20.9108 42.5713 20.9883C42.7718 21.0612 42.9928 21.0977 43.2344 21.0977C43.5443 21.0977 43.8154 21.0384 44.0479 20.9199C44.2803 20.8014 44.474 20.6169 44.6289 20.3662C44.7884 20.111 44.9069 19.7852 44.9844 19.3887C45.0618 18.9876 45.1006 18.5091 45.1006 17.9531ZM55.4844 12.9287L52.1895 22H50.8428L54.6367 12.0469H55.5049L55.4844 12.9287ZM58.2461 22L54.9443 12.9287L54.9238 12.0469H55.792L59.5996 22H58.2461ZM58.0752 18.3154V19.3955H52.4834V18.3154H58.0752ZM61.3496 12.0469H62.6279L65.8887 20.1611L69.1426 12.0469H70.4277L66.3809 22H65.3828L61.3496 12.0469ZM60.9326 12.0469H62.0605L62.2451 18.1172V22H60.9326V12.0469ZM69.71 12.0469H70.8379V22H69.5254V18.1172L69.71 12.0469Z" fill="#0C0C0C"/>
<path d="M322.792 12.9478L324.375 14.5311C328.31 10.5966 334.69 10.5966 338.625 14.5311L340.208 12.9478C335.403 8.1424 327.605 8.1424 322.792 12.9478ZM329.125 19.2811L331.5 21.6561L333.875 19.2811C332.569 17.967 330.439 17.967 329.125 19.2811ZM325.958 16.1145L327.542 17.6978C329.727 15.5128 333.273 15.5128 335.458 17.6978L337.042 16.1145C333.986 13.0586 329.022 13.0586 325.958 16.1145Z" fill="#0C0C0C"/>
<path d="M362.75 9.3335H365.25V22.6668H362.75V9.3335ZM352.75 17.6668H355.25V22.6668H352.75V17.6668ZM357.75 13.5002H360.25V22.6668H357.75V13.5002Z" fill="#0C0C0C"/>
<path d="M391.362 9.55847L391.1 24.4572L382.823 24.3114L383.085 9.41273L385.568 9.45645L385.598 7.80104L388.908 7.85934L388.879 9.51475L391.362 9.55847ZM389.678 11.1847L384.712 11.0973L384.653 14.4081L389.62 14.4956L389.678 11.1847Z" fill="#0C0C0C"/>
<rect x="43" y="772" width="330" height="50" rx="8" fill="#2383BD"/>
<path d="M151.004 787.68H152.644V789.94H161.404V787.68H163.044V794.92H151.004V787.68ZM152.644 791.26V793.58H161.404V791.26H152.644ZM148.844 796.84H165.184V798.2H148.844V796.84ZM156.184 794.12H157.844V797.44H156.184V794.12ZM150.944 803.3H163.364V804.66H150.944V803.3ZM150.944 799.64H152.604V803.76H150.944V799.64ZM180.402 786.98H182.062V800.18H180.402V786.98ZM170.442 803.3H182.622V804.66H170.442V803.3ZM170.442 798.84H172.102V803.76H170.442V798.84ZM172.362 788.24C173.269 788.24 174.076 788.427 174.782 788.8C175.489 789.173 176.049 789.7 176.462 790.38C176.876 791.047 177.082 791.813 177.082 792.68C177.082 793.547 176.876 794.32 176.462 795C176.049 795.667 175.489 796.193 174.782 796.58C174.076 796.953 173.269 797.14 172.362 797.14C171.469 797.14 170.662 796.953 169.942 796.58C169.236 796.193 168.676 795.667 168.262 795C167.849 794.32 167.642 793.547 167.642 792.68C167.642 791.813 167.849 791.047 168.262 790.38C168.676 789.7 169.236 789.173 169.942 788.8C170.662 788.427 171.469 788.24 172.362 788.24ZM172.362 789.68C171.776 789.68 171.249 789.807 170.782 790.06C170.316 790.313 169.942 790.667 169.662 791.12C169.396 791.573 169.262 792.093 169.262 792.68C169.262 793.28 169.396 793.807 169.662 794.26C169.942 794.7 170.316 795.047 170.782 795.3C171.249 795.553 171.776 795.68 172.362 795.68C172.949 795.68 173.476 795.553 173.942 795.3C174.422 795.047 174.796 794.7 175.062 794.26C175.329 793.807 175.462 793.28 175.462 792.68C175.462 792.093 175.329 791.573 175.062 791.12C174.796 790.667 174.422 790.313 173.942 790.06C173.476 789.807 172.949 789.68 172.362 789.68ZM203.762 786.98H205.422V800.18H203.762V786.98ZM193.802 803.3H205.982V804.66H193.802V803.3ZM193.802 798.84H195.462V803.76H193.802V798.84ZM195.722 788.24C196.628 788.24 197.435 788.427 198.142 788.8C198.848 789.173 199.408 789.7 199.822 790.38C200.235 791.047 200.442 791.813 200.442 792.68C200.442 793.547 200.235 794.32 199.822 795C199.408 795.667 198.848 796.193 198.142 796.58C197.435 796.953 196.628 797.14 195.722 797.14C194.828 797.14 194.022 796.953 193.302 796.58C192.595 796.193 192.035 795.667 191.622 795C191.208 794.32 191.002 793.547 191.002 792.68C191.002 791.813 191.208 791.047 191.622 790.38C192.035 789.7 192.595 789.173 193.302 788.8C194.022 788.427 194.828 788.24 195.722 788.24ZM195.722 789.68C195.135 789.68 194.608 789.807 194.142 790.06C193.675 790.313 193.302 790.667 193.022 791.12C192.755 791.573 192.622 792.093 192.622 792.68C192.622 793.28 192.755 793.807 193.022 794.26C193.302 794.7 193.675 795.047 194.142 795.3C194.608 795.553 195.135 795.68 195.722 795.68C196.308 795.68 196.835 795.553 197.302 795.3C197.782 795.047 198.155 794.7 198.422 794.26C198.688 793.807 198.822 793.28 198.822 792.68C198.822 792.093 198.688 791.573 198.422 791.12C198.155 790.667 197.782 790.313 197.302 790.06C196.835 789.807 196.308 789.68 195.722 789.68ZM209 795.56H225.34V796.92H209V795.56ZM217.16 798.48C219.093 798.48 220.607 798.767 221.7 799.34C222.793 799.913 223.34 800.72 223.34 801.76C223.34 802.8 222.793 803.6 221.7 804.16C220.607 804.733 219.093 805.02 217.16 805.02C215.227 805.02 213.707 804.733 212.6 804.16C211.507 803.6 210.96 802.8 210.96 801.76C210.96 800.72 211.507 799.913 212.6 799.34C213.707 798.767 215.227 798.48 217.16 798.48ZM217.16 799.8C216.213 799.8 215.4 799.873 214.72 800.02C214.053 800.167 213.54 800.387 213.18 800.68C212.82 800.973 212.64 801.333 212.64 801.76C212.64 802.173 212.82 802.527 213.18 802.82C213.54 803.1 214.053 803.32 214.72 803.48C215.4 803.627 216.213 803.7 217.16 803.7C218.107 803.7 218.913 803.627 219.58 803.48C220.26 803.32 220.78 803.1 221.14 802.82C221.5 802.527 221.68 802.173 221.68 801.76C221.68 801.333 221.5 800.973 221.14 800.68C220.78 800.387 220.26 800.167 219.58 800.02C218.913 799.873 218.107 799.8 217.16 799.8ZM216.1 788.6H217.56V789.14C217.56 789.727 217.433 790.273 217.18 790.78C216.94 791.273 216.6 791.727 216.16 792.14C215.72 792.553 215.2 792.92 214.6 793.24C214.013 793.56 213.373 793.827 212.68 794.04C211.987 794.24 211.26 794.387 210.5 794.48L209.9 793.16C210.553 793.093 211.18 792.973 211.78 792.8C212.393 792.627 212.96 792.42 213.48 792.18C214.013 791.927 214.473 791.647 214.86 791.34C215.247 791.02 215.547 790.68 215.76 790.32C215.987 789.947 216.1 789.553 216.1 789.14V788.6ZM216.78 788.6H218.24V789.14C218.24 789.553 218.347 789.947 218.56 790.32C218.787 790.68 219.093 791.02 219.48 791.34C219.867 791.66 220.32 791.947 220.84 792.2C221.373 792.44 221.94 792.647 222.54 792.82C223.153 792.98 223.787 793.093 224.44 793.16L223.84 794.48C223.08 794.387 222.353 794.24 221.66 794.04C220.967 793.827 220.32 793.56 219.72 793.24C219.133 792.92 218.62 792.553 218.18 792.14C217.74 791.727 217.393 791.267 217.14 790.76C216.9 790.253 216.78 789.713 216.78 789.14V788.6ZM210.5 787.88H223.86V789.24H210.5V787.88ZM244.619 786.96H246.259V805.06H244.619V786.96ZM245.879 794.4H249.219V795.8H245.879V794.4ZM232.259 789.86H242.919V791.22H232.259V789.86ZM237.679 792.7C238.533 792.7 239.286 792.88 239.939 793.24C240.606 793.6 241.126 794.093 241.499 794.72C241.886 795.333 242.079 796.047 242.079 796.86C242.079 797.673 241.886 798.393 241.499 799.02C241.126 799.647 240.606 800.14 239.939 800.5C239.286 800.847 238.533 801.02 237.679 801.02C236.826 801.02 236.066 800.847 235.399 800.5C234.746 800.14 234.226 799.647 233.839 799.02C233.453 798.393 233.259 797.673 233.259 796.86C233.259 796.047 233.453 795.333 233.839 794.72C234.226 794.093 234.746 793.6 235.399 793.24C236.066 792.88 236.826 792.7 237.679 792.7ZM237.679 794.08C237.133 794.08 236.646 794.2 236.219 794.44C235.793 794.68 235.453 795.007 235.199 795.42C234.959 795.833 234.839 796.313 234.839 796.86C234.839 797.407 234.959 797.893 235.199 798.32C235.453 798.733 235.793 799.06 236.219 799.3C236.646 799.527 237.133 799.64 237.679 799.64C238.213 799.64 238.693 799.527 239.119 799.3C239.546 799.06 239.879 798.733 240.119 798.32C240.373 797.893 240.499 797.407 240.499 796.86C240.499 796.313 240.373 795.833 240.119 795.42C239.879 795.007 239.546 794.68 239.119 794.44C238.693 794.2 238.213 794.08 237.679 794.08ZM236.819 787.18H238.479V790.46H236.819V787.18ZM263.938 786.96H265.598V805.06H263.938V786.96ZM258.638 788.92H260.278C260.278 790.227 260.118 791.487 259.798 792.7C259.491 793.913 259.004 795.067 258.338 796.16C257.671 797.24 256.804 798.247 255.738 799.18C254.671 800.113 253.378 800.947 251.858 801.68L250.978 800.34C252.724 799.5 254.164 798.52 255.298 797.4C256.431 796.28 257.271 795.033 257.818 793.66C258.364 792.273 258.638 790.78 258.638 789.18V788.92ZM251.818 788.92H259.338V790.26H251.818V788.92Z" fill="white"/>
</svg>
