<svg width="412" height="917" viewBox="0 0 412 917" fill="none" xmlns="http://www.w3.org/2000/svg">
<g clip-path="url(#clip0_302_1535)">
<rect width="412" height="917" fill="#F9FAFC"/>
<rect width="412" height="32" fill="white"/>
<path d="M27.416 12.0469V12.7578L23.2939 22H21.9609L26.0762 13.0859H20.6895V12.0469H27.416ZM28.9404 21.3301C28.9404 21.1159 29.0065 20.9359 29.1387 20.79C29.2754 20.6396 29.4714 20.5645 29.7266 20.5645C29.9818 20.5645 30.1755 20.6396 30.3076 20.79C30.4443 20.9359 30.5127 21.1159 30.5127 21.3301C30.5127 21.5397 30.4443 21.7174 30.3076 21.8633C30.1755 22.0091 29.9818 22.082 29.7266 22.082C29.4714 22.082 29.2754 22.0091 29.1387 21.8633C29.0065 21.7174 28.9404 21.5397 28.9404 21.3301ZM28.9473 15.2939C28.9473 15.0798 29.0133 14.8997 29.1455 14.7539C29.2822 14.6035 29.4782 14.5283 29.7334 14.5283C29.9886 14.5283 30.1823 14.6035 30.3145 14.7539C30.4512 14.8997 30.5195 15.0798 30.5195 15.2939C30.5195 15.5036 30.4512 15.6813 30.3145 15.8271C30.1823 15.973 29.9886 16.0459 29.7334 16.0459C29.4782 16.0459 29.2822 15.973 29.1455 15.8271C29.0133 15.6813 28.9473 15.5036 28.9473 15.2939ZM34.0947 16.4014H34.9971C35.4391 16.4014 35.8037 16.3285 36.0908 16.1826C36.3825 16.0322 36.599 15.8294 36.7402 15.5742C36.8861 15.3145 36.959 15.0228 36.959 14.6992C36.959 14.3164 36.8952 13.9951 36.7676 13.7354C36.64 13.4756 36.4486 13.2796 36.1934 13.1475C35.9382 13.0153 35.6146 12.9492 35.2227 12.9492C34.8672 12.9492 34.5527 13.0199 34.2793 13.1611C34.0104 13.2979 33.7985 13.4938 33.6436 13.749C33.4932 14.0042 33.418 14.305 33.418 14.6514H32.1533C32.1533 14.1455 32.2809 13.6852 32.5361 13.2705C32.7913 12.8558 33.1491 12.5254 33.6094 12.2793C34.0742 12.0332 34.612 11.9102 35.2227 11.9102C35.8242 11.9102 36.3506 12.0173 36.8018 12.2314C37.2529 12.4411 37.6038 12.7555 37.8545 13.1748C38.1051 13.5895 38.2305 14.1068 38.2305 14.7266C38.2305 14.9772 38.1712 15.2461 38.0527 15.5332C37.9388 15.8158 37.7588 16.0801 37.5127 16.3262C37.2712 16.5723 36.9567 16.7751 36.5693 16.9346C36.182 17.0895 35.7171 17.167 35.1748 17.167H34.0947V16.4014ZM34.0947 17.4404V16.6816H35.1748C35.8083 16.6816 36.3324 16.7568 36.7471 16.9072C37.1618 17.0576 37.4876 17.2581 37.7246 17.5088C37.9661 17.7594 38.1348 18.0352 38.2305 18.3359C38.3307 18.6322 38.3809 18.9284 38.3809 19.2246C38.3809 19.6895 38.3011 20.1019 38.1416 20.4619C37.9867 20.8219 37.7656 21.1273 37.4785 21.3779C37.196 21.6286 36.8633 21.8177 36.4805 21.9453C36.0977 22.0729 35.6807 22.1367 35.2295 22.1367C34.7965 22.1367 34.3887 22.0752 34.0059 21.9521C33.6276 21.8291 33.2926 21.6514 33.001 21.4189C32.7093 21.182 32.4814 20.8926 32.3174 20.5508C32.1533 20.2044 32.0713 19.8102 32.0713 19.3682H33.3359C33.3359 19.7145 33.4111 20.0176 33.5615 20.2773C33.7165 20.5371 33.9352 20.7399 34.2178 20.8857C34.5049 21.027 34.8421 21.0977 35.2295 21.0977C35.6169 21.0977 35.9495 21.0316 36.2275 20.8994C36.5101 20.7627 36.7266 20.5576 36.877 20.2842C37.0319 20.0107 37.1094 19.6667 37.1094 19.252C37.1094 18.8372 37.0228 18.4977 36.8496 18.2334C36.6764 17.9645 36.4303 17.7663 36.1113 17.6387C35.7969 17.5065 35.4255 17.4404 34.9971 17.4404H34.0947ZM46.3721 16.2305V17.748C46.3721 18.5638 46.2992 19.252 46.1533 19.8125C46.0075 20.373 45.7979 20.8242 45.5244 21.166C45.251 21.5078 44.9206 21.7562 44.5332 21.9111C44.1504 22.0615 43.7174 22.1367 43.2344 22.1367C42.8516 22.1367 42.4984 22.0889 42.1748 21.9932C41.8512 21.8975 41.5596 21.7448 41.2998 21.5352C41.0446 21.321 40.8258 21.043 40.6436 20.7012C40.4613 20.3594 40.3223 19.9447 40.2266 19.457C40.1309 18.9694 40.083 18.3997 40.083 17.748V16.2305C40.083 15.4147 40.1559 14.7311 40.3018 14.1797C40.4521 13.6283 40.6641 13.1862 40.9375 12.8535C41.2109 12.5163 41.5391 12.2747 41.9219 12.1289C42.3092 11.9831 42.7422 11.9102 43.2207 11.9102C43.6081 11.9102 43.9635 11.958 44.2871 12.0537C44.6152 12.1449 44.9069 12.293 45.1621 12.498C45.4173 12.6986 45.6338 12.9674 45.8115 13.3047C45.9938 13.6374 46.1328 14.0452 46.2285 14.5283C46.3242 15.0114 46.3721 15.5788 46.3721 16.2305ZM45.1006 17.9531V16.0186C45.1006 15.5719 45.0732 15.18 45.0186 14.8428C44.9684 14.501 44.8932 14.2093 44.793 13.9678C44.6927 13.7262 44.5651 13.5303 44.4102 13.3799C44.2598 13.2295 44.0843 13.1201 43.8838 13.0518C43.6878 12.9788 43.4668 12.9424 43.2207 12.9424C42.9199 12.9424 42.6533 12.9993 42.4209 13.1133C42.1885 13.2227 41.9925 13.3981 41.833 13.6396C41.6781 13.8812 41.5596 14.1979 41.4775 14.5898C41.3955 14.9818 41.3545 15.458 41.3545 16.0186V17.9531C41.3545 18.3997 41.3796 18.7939 41.4297 19.1357C41.4844 19.4775 41.5641 19.7738 41.6689 20.0244C41.7738 20.2705 41.9014 20.4733 42.0518 20.6328C42.2021 20.7923 42.3753 20.9108 42.5713 20.9883C42.7718 21.0612 42.9928 21.0977 43.2344 21.0977C43.5443 21.0977 43.8154 21.0384 44.0479 20.9199C44.2803 20.8014 44.474 20.6169 44.6289 20.3662C44.7884 20.111 44.9069 19.7852 44.9844 19.3887C45.0618 18.9876 45.1006 18.5091 45.1006 17.9531ZM55.4844 12.9287L52.1895 22H50.8428L54.6367 12.0469H55.5049L55.4844 12.9287ZM58.2461 22L54.9443 12.9287L54.9238 12.0469H55.792L59.5996 22H58.2461ZM58.0752 18.3154V19.3955H52.4834V18.3154H58.0752ZM61.3496 12.0469H62.6279L65.8887 20.1611L69.1426 12.0469H70.4277L66.3809 22H65.3828L61.3496 12.0469ZM60.9326 12.0469H62.0605L62.2451 18.1172V22H60.9326V12.0469ZM69.71 12.0469H70.8379V22H69.5254V18.1172L69.71 12.0469Z" fill="#0C0C0C"/>
<path d="M322.792 12.9478L324.375 14.5311C328.31 10.5966 334.69 10.5966 338.625 14.5311L340.208 12.9478C335.403 8.1424 327.605 8.1424 322.792 12.9478ZM329.125 19.2811L331.5 21.6561L333.875 19.2811C332.569 17.967 330.439 17.967 329.125 19.2811ZM325.958 16.1145L327.542 17.6978C329.727 15.5128 333.273 15.5128 335.458 17.6978L337.042 16.1145C333.986 13.0586 329.022 13.0586 325.958 16.1145Z" fill="#0C0C0C"/>
<path d="M362.75 9.33301H365.25V22.6663H362.75V9.33301ZM352.75 17.6663H355.25V22.6663H352.75V17.6663ZM357.75 13.4997H360.25V22.6663H357.75V13.4997Z" fill="#0C0C0C"/>
<path d="M391.362 9.55896L391.1 24.4576L382.823 24.3119L383.085 9.41322L385.568 9.45694L385.598 7.80153L388.908 7.85983L388.879 9.51524L391.362 9.55896ZM389.678 11.1852L384.712 11.0978L384.653 14.4086L389.62 14.496L389.678 11.1852Z" fill="#0C0C0C"/>
<path d="M65.2578 297.047C65.2578 296.828 65.224 296.633 65.1562 296.461C65.0938 296.284 64.9766 296.125 64.8047 295.984C64.638 295.839 64.401 295.698 64.0938 295.562C63.7917 295.422 63.401 295.276 62.9219 295.125C62.3906 294.958 61.8958 294.771 61.4375 294.562C60.9792 294.354 60.5755 294.112 60.2266 293.836C59.8828 293.56 59.6146 293.242 59.4219 292.883C59.2292 292.518 59.1328 292.096 59.1328 291.617C59.1328 291.148 59.2318 290.721 59.4297 290.336C59.6328 289.951 59.9193 289.62 60.2891 289.344C60.6589 289.062 61.0938 288.846 61.5938 288.695C62.099 288.544 62.6562 288.469 63.2656 288.469C64.1094 288.469 64.8385 288.622 65.4531 288.93C66.0729 289.237 66.5521 289.654 66.8906 290.18C67.2292 290.706 67.3984 291.297 67.3984 291.953H65.2578C65.2578 291.599 65.1823 291.286 65.0312 291.016C64.8854 290.745 64.6615 290.531 64.3594 290.375C64.0625 290.219 63.6875 290.141 63.2344 290.141C62.7969 290.141 62.4323 290.206 62.1406 290.336C61.8542 290.466 61.638 290.643 61.4922 290.867C61.3516 291.091 61.2812 291.341 61.2812 291.617C61.2812 291.826 61.3307 292.013 61.4297 292.18C61.5286 292.341 61.6771 292.495 61.875 292.641C62.0729 292.781 62.3177 292.914 62.6094 293.039C62.9062 293.159 63.25 293.279 63.6406 293.398C64.2656 293.586 64.8125 293.794 65.2812 294.023C65.7552 294.253 66.1484 294.513 66.4609 294.805C66.7786 295.096 67.0156 295.424 67.1719 295.789C67.3333 296.154 67.4141 296.568 67.4141 297.031C67.4141 297.521 67.3177 297.958 67.125 298.344C66.9323 298.729 66.6562 299.057 66.2969 299.328C65.9375 299.599 65.5052 299.805 65 299.945C64.5 300.086 63.9401 300.156 63.3203 300.156C62.7682 300.156 62.2214 300.083 61.6797 299.938C61.1432 299.786 60.6562 299.562 60.2188 299.266C59.7812 298.964 59.4323 298.583 59.1719 298.125C58.9115 297.661 58.7812 297.12 58.7812 296.5H60.9375C60.9375 296.859 60.9948 297.167 61.1094 297.422C61.2292 297.672 61.3958 297.878 61.6094 298.039C61.8281 298.195 62.0833 298.31 62.375 298.383C62.6667 298.456 62.9818 298.492 63.3203 298.492C63.7578 298.492 64.1172 298.432 64.3984 298.312C64.6849 298.188 64.8984 298.016 65.0391 297.797C65.1849 297.578 65.2578 297.328 65.2578 297.047ZM71.1016 288V300H69.0312V288H71.1016ZM72.7031 295.859V295.695C72.7031 295.076 72.7917 294.505 72.9688 293.984C73.1458 293.458 73.4036 293.003 73.7422 292.617C74.0807 292.232 74.4948 291.932 74.9844 291.719C75.474 291.5 76.0312 291.391 76.6562 291.391C77.2917 291.391 77.8542 291.5 78.3438 291.719C78.8385 291.932 79.2552 292.232 79.5938 292.617C79.9323 293.003 80.1901 293.458 80.3672 293.984C80.5443 294.505 80.6328 295.076 80.6328 295.695V295.859C80.6328 296.474 80.5443 297.044 80.3672 297.57C80.1901 298.091 79.9323 298.547 79.5938 298.938C79.2552 299.323 78.8411 299.622 78.3516 299.836C77.862 300.049 77.3021 300.156 76.6719 300.156C76.0469 300.156 75.487 300.049 74.9922 299.836C74.4974 299.622 74.0807 299.323 73.7422 298.938C73.4036 298.547 73.1458 298.091 72.9688 297.57C72.7917 297.044 72.7031 296.474 72.7031 295.859ZM74.7656 295.695V295.859C74.7656 296.229 74.8021 296.576 74.875 296.898C74.9479 297.221 75.0599 297.505 75.2109 297.75C75.362 297.995 75.5573 298.188 75.7969 298.328C76.0417 298.464 76.3333 298.531 76.6719 298.531C77.0052 298.531 77.2917 298.464 77.5312 298.328C77.7708 298.188 77.9661 297.995 78.1172 297.75C78.2734 297.505 78.388 297.221 78.4609 296.898C78.5339 296.576 78.5703 296.229 78.5703 295.859V295.695C78.5703 295.331 78.5339 294.99 78.4609 294.672C78.388 294.349 78.2734 294.065 78.1172 293.82C77.9661 293.57 77.7682 293.375 77.5234 293.234C77.2839 293.089 76.9948 293.016 76.6562 293.016C76.3229 293.016 76.0365 293.089 75.7969 293.234C75.5573 293.375 75.362 293.57 75.2109 293.82C75.0599 294.065 74.9479 294.349 74.875 294.672C74.8021 294.99 74.7656 295.331 74.7656 295.695ZM86.1328 291.547V293.031H81.2891V291.547H86.1328ZM82.5859 289.469H84.6562V297.562C84.6562 297.812 84.6901 298.005 84.7578 298.141C84.8255 298.276 84.9271 298.367 85.0625 298.414C85.1979 298.461 85.3594 298.484 85.5469 298.484C85.6823 298.484 85.8073 298.477 85.9219 298.461C86.0365 298.445 86.1328 298.43 86.2109 298.414L86.2188 299.961C86.0469 300.018 85.8516 300.065 85.6328 300.102C85.4193 300.138 85.1771 300.156 84.9062 300.156C84.4427 300.156 84.0365 300.078 83.6875 299.922C83.3385 299.76 83.0677 299.503 82.875 299.148C82.6823 298.789 82.5859 298.315 82.5859 297.727V289.469ZM98.7705 288.768H102.419V290.464H98.7705V288.768ZM101.475 286.608H103.619V294.128H101.475V286.608ZM93.8265 294.736H103.619V298.736H95.9545V300.592H93.8425V297.2H101.507V296.384H93.8265V294.736ZM93.8425 299.6H104.035V301.264H93.8425V299.6ZM94.5945 287.072H96.3225V288.144C96.3225 289.061 96.1732 289.931 95.8745 290.752C95.5865 291.573 95.1385 292.288 94.5305 292.896C93.9225 293.493 93.1438 293.941 92.1945 294.24L91.1065 292.576C91.9278 292.32 92.5945 291.968 93.1065 291.52C93.6185 291.061 93.9918 290.539 94.2265 289.952C94.4718 289.365 94.5945 288.763 94.5945 288.144V287.072ZM95.0265 287.072H96.7385V288.144C96.7385 288.571 96.8025 288.997 96.9305 289.424C97.0692 289.851 97.2718 290.251 97.5385 290.624C97.8052 290.997 98.1465 291.328 98.5625 291.616C98.9892 291.904 99.4905 292.139 100.067 292.32L98.9785 293.952C98.0825 293.664 97.3412 293.232 96.7545 292.656C96.1678 292.08 95.7305 291.403 95.4425 290.624C95.1652 289.845 95.0265 289.019 95.0265 288.144V287.072ZM113.969 290.176H116.785V291.904H113.969V290.176ZM116.193 286.608H118.337V295.408H116.193V286.608ZM113.313 295.728C114.359 295.728 115.26 295.84 116.017 296.064C116.775 296.288 117.356 296.613 117.761 297.04C118.177 297.467 118.385 297.979 118.385 298.576C118.385 299.493 117.932 300.197 117.025 300.688C116.119 301.189 114.881 301.44 113.313 301.44C111.745 301.44 110.508 301.189 109.601 300.688C108.695 300.197 108.241 299.493 108.241 298.576C108.241 297.979 108.444 297.467 108.849 297.04C109.265 296.613 109.852 296.288 110.609 296.064C111.367 295.84 112.268 295.728 113.313 295.728ZM113.313 297.344C112.673 297.344 112.135 297.392 111.697 297.488C111.26 297.573 110.924 297.707 110.689 297.888C110.465 298.069 110.353 298.299 110.353 298.576C110.353 298.853 110.465 299.088 110.689 299.28C110.924 299.461 111.26 299.6 111.697 299.696C112.135 299.781 112.673 299.824 113.313 299.824C113.953 299.824 114.492 299.781 114.929 299.696C115.367 299.6 115.697 299.461 115.921 299.28C116.145 299.088 116.257 298.853 116.257 298.576C116.257 298.299 116.145 298.069 115.921 297.888C115.697 297.707 115.367 297.573 114.929 297.488C114.492 297.392 113.953 297.344 113.313 297.344ZM109.361 288.08H111.089V289.024C111.089 289.963 110.94 290.859 110.641 291.712C110.343 292.565 109.884 293.317 109.265 293.968C108.657 294.608 107.879 295.088 106.929 295.408L105.857 293.728C106.465 293.525 106.988 293.253 107.425 292.912C107.873 292.571 108.236 292.192 108.513 291.776C108.801 291.349 109.015 290.901 109.153 290.432C109.292 289.963 109.361 289.493 109.361 289.024V288.08ZM109.809 288.08H111.505V289.008C111.505 289.595 111.623 290.171 111.857 290.736C112.092 291.301 112.455 291.813 112.945 292.272C113.447 292.731 114.087 293.093 114.865 293.36L113.825 295.024C112.908 294.715 112.151 294.261 111.553 293.664C110.967 293.056 110.529 292.352 110.241 291.552C109.953 290.741 109.809 289.893 109.809 289.008V288.08ZM106.433 287.504H114.401V289.184H106.433V287.504Z" fill="black"/>
<path d="M334.691 287.28H336.451V288.688C336.451 289.616 336.296 290.507 335.987 291.36C335.677 292.203 335.208 292.939 334.579 293.568C333.949 294.197 333.155 294.667 332.195 294.976L331.155 293.28C331.773 293.088 332.307 292.832 332.755 292.512C333.203 292.181 333.565 291.813 333.843 291.408C334.131 290.992 334.344 290.555 334.483 290.096C334.621 289.627 334.691 289.157 334.691 288.688V287.28ZM335.123 287.28H336.851V288.688C336.851 289.147 336.92 289.6 337.059 290.048C337.197 290.485 337.4 290.901 337.667 291.296C337.944 291.68 338.301 292.021 338.739 292.32C339.176 292.619 339.699 292.859 340.307 293.04L339.267 294.72C338.317 294.421 337.533 293.973 336.915 293.376C336.307 292.779 335.853 292.08 335.555 291.28C335.267 290.469 335.123 289.605 335.123 288.688V287.28ZM333.427 296.08H343.523V301.424H341.395V297.776H333.427V296.08ZM341.395 286.608H343.523V295.44H341.395V286.608ZM356.097 286.576H358.225V301.44H356.097V286.576ZM346.657 287.76H348.769V291.376H351.841V287.76H353.953V297.984H346.657V287.76ZM348.769 293.024V296.288H351.841V293.024H348.769Z" fill="#109FF9"/>
<path d="M382.25 298.844L387.1 293.994L382.25 289.144C381.762 288.656 381.762 287.869 382.25 287.381C382.737 286.894 383.525 286.894 384.012 287.381L389.75 293.119C390.237 293.606 390.237 294.394 389.75 294.881L384.012 300.619C383.525 301.106 382.737 301.106 382.25 300.619C381.775 300.131 381.762 299.331 382.25 298.844Z" fill="#0C0C0C"/>
<path d="M68.0526 336.592H70.1966V344.032H68.0526V336.592ZM63.1246 337.152H65.4446C65.4446 338.464 65.1886 339.605 64.6766 340.576C64.1753 341.536 63.4233 342.331 62.4206 342.96C61.418 343.579 60.17 344.053 58.6766 344.384L57.9566 342.672C59.2046 342.427 60.202 342.091 60.9486 341.664C61.706 341.227 62.2553 340.725 62.5966 340.16C62.9486 339.584 63.1246 338.971 63.1246 338.32V337.152ZM58.8206 337.152H64.0046V338.848H58.8206V337.152ZM64.8686 338.448H68.3246V340.064H64.8686V338.448ZM64.7726 341.328H68.2606V342.928H64.7726V341.328ZM60.4046 344.576H70.1966V348.672H62.5486V350.496H60.4206V347.088H68.0526V346.24H60.4046V344.576ZM60.4206 349.6H70.4846V351.28H60.4206V349.6ZM83.2034 336.592H85.2354V351.408H83.2034V336.592ZM78.3234 341.664H80.7874V343.392H78.3234V341.664ZM80.2114 336.832H82.1954V350.736H80.2114V336.832ZM75.1394 339.008H76.7394V340.528C76.7394 341.36 76.6754 342.181 76.5474 342.992C76.43 343.803 76.2434 344.571 75.9874 345.296C75.7314 346.011 75.3954 346.656 74.9794 347.232C74.5634 347.808 74.062 348.283 73.4754 348.656L72.2114 347.088C72.9367 346.629 73.5127 346.053 73.9394 345.36C74.366 344.656 74.67 343.888 74.8514 343.056C75.0434 342.213 75.1394 341.371 75.1394 340.528V339.008ZM75.6194 339.008H77.2034V340.528C77.2034 341.349 77.294 342.16 77.4754 342.96C77.6567 343.76 77.9554 344.491 78.3714 345.152C78.7874 345.803 79.3527 346.336 80.0674 346.752L78.8354 348.288C78.046 347.819 77.4167 347.184 76.9474 346.384C76.478 345.584 76.1367 344.683 75.9234 343.68C75.7207 342.667 75.6194 341.616 75.6194 340.528V339.008ZM72.7554 338.08H79.3634V339.792H72.7554V338.08ZM96.8025 337.024H98.6585V337.728C98.6585 338.293 98.5678 338.843 98.3865 339.376C98.2158 339.899 97.9598 340.389 97.6185 340.848C97.2772 341.307 96.8612 341.717 96.3705 342.08C95.8798 342.443 95.3092 342.752 94.6585 343.008C94.0185 343.253 93.3145 343.44 92.5465 343.568L91.7145 341.856C92.3972 341.771 93.0052 341.627 93.5385 341.424C94.0825 341.221 94.5572 340.981 94.9625 340.704C95.3785 340.427 95.7198 340.123 95.9865 339.792C96.2532 339.461 96.4558 339.12 96.5945 338.768C96.7332 338.416 96.8025 338.069 96.8025 337.728V337.024ZM97.2025 337.024H99.0585V337.728C99.0585 338.069 99.1278 338.416 99.2665 338.768C99.4052 339.12 99.6078 339.461 99.8745 339.792C100.141 340.123 100.477 340.427 100.883 340.704C101.299 340.981 101.773 341.221 102.307 341.424C102.851 341.627 103.464 341.771 104.147 341.856L103.315 343.568C102.536 343.44 101.827 343.253 101.187 343.008C100.547 342.752 99.9812 342.443 99.4905 342.08C98.9998 341.707 98.5838 341.291 98.2425 340.832C97.9012 340.373 97.6398 339.883 97.4585 339.36C97.2878 338.837 97.2025 338.293 97.2025 337.728V337.024ZM96.8025 345.984H98.9305V351.424H96.8025V345.984ZM91.2185 344.64H104.627V346.368H91.2185V344.64ZM115.457 336.608H117.585V347.312H115.457V336.608ZM116.993 340.64H119.553V342.384H116.993V340.64ZM106.481 343.184H107.713C108.791 343.184 109.708 343.173 110.465 343.152C111.233 343.12 111.916 343.072 112.513 343.008C113.121 342.944 113.719 342.848 114.305 342.72L114.513 344.4C113.916 344.539 113.303 344.645 112.673 344.72C112.055 344.784 111.351 344.832 110.561 344.864C109.772 344.885 108.823 344.896 107.713 344.896H106.481V343.184ZM106.481 337.776H113.121V339.472H108.609V344.08H106.481V337.776ZM108.033 349.456H118.113V351.168H108.033V349.456ZM108.033 346.176H110.177V350.32H108.033V346.176Z" fill="black"/>
<path d="M262.24 341.016H264.304C264.304 342.168 264.214 343.267 264.032 344.312C263.862 345.357 263.542 346.349 263.072 347.288C262.603 348.227 261.936 349.107 261.072 349.928C260.208 350.749 259.083 351.512 257.696 352.216L256.56 350.584C257.712 350.008 258.656 349.395 259.392 348.744C260.139 348.083 260.715 347.379 261.12 346.632C261.536 345.875 261.824 345.053 261.984 344.168C262.155 343.283 262.24 342.323 262.24 341.288V341.016ZM257.488 341.016H263.488V342.712H257.488V341.016ZM262.288 344.648V346.28L256.976 346.792L256.704 344.984L262.288 344.648ZM266.096 339.576H268.24V354.392H266.096V339.576ZM267.696 345.256H270.304V347H267.696V345.256ZM276.959 341.016H279.023C279.023 342.168 278.932 343.267 278.751 344.312C278.58 345.357 278.26 346.349 277.791 347.288C277.322 348.227 276.655 349.107 275.791 349.928C274.927 350.749 273.802 351.512 272.415 352.216L271.279 350.584C272.431 350.008 273.375 349.395 274.111 348.744C274.858 348.083 275.434 347.379 275.839 346.632C276.255 345.875 276.543 345.053 276.703 344.168C276.874 343.283 276.959 342.323 276.959 341.288V341.016ZM272.207 341.016H278.207V342.712H272.207V341.016ZM277.007 344.648V346.28L271.695 346.792L271.423 344.984L277.007 344.648ZM280.815 339.576H282.959V354.392H280.815V339.576ZM282.415 345.256H285.023V347H282.415V345.256ZM291.71 347.928H293.822V351.304H291.71V347.928ZM292.766 340.36C293.822 340.36 294.766 340.531 295.598 340.872C296.441 341.203 297.102 341.672 297.582 342.28C298.062 342.888 298.302 343.608 298.302 344.44C298.302 345.261 298.062 345.981 297.582 346.6C297.102 347.219 296.441 347.699 295.598 348.04C294.766 348.371 293.822 348.536 292.766 348.536C291.721 348.536 290.777 348.371 289.934 348.04C289.102 347.699 288.441 347.219 287.95 346.6C287.47 345.981 287.23 345.261 287.23 344.44C287.23 343.608 287.47 342.888 287.95 342.28C288.441 341.672 289.102 341.203 289.934 340.872C290.777 340.531 291.721 340.36 292.766 340.36ZM292.766 342.04C292.094 342.04 291.497 342.136 290.974 342.328C290.462 342.52 290.057 342.792 289.758 343.144C289.47 343.496 289.326 343.928 289.326 344.44C289.326 344.941 289.47 345.373 289.758 345.736C290.057 346.088 290.462 346.36 290.974 346.552C291.497 346.744 292.094 346.84 292.766 346.84C293.449 346.84 294.046 346.744 294.558 346.552C295.081 346.36 295.486 346.088 295.774 345.736C296.062 345.373 296.206 344.941 296.206 344.44C296.206 343.928 296.062 343.496 295.774 343.144C295.486 342.792 295.081 342.52 294.558 342.328C294.046 342.136 293.449 342.04 292.766 342.04ZM286.078 350.968H299.502V352.696H286.078V350.968ZM301.309 340.568H303.309V342.568H305.197V340.568H307.165V347.624H301.309V340.568ZM303.309 344.216V345.96H305.197V344.216H303.309ZM311.389 339.608H313.421V348.584H311.389V339.608ZM309.613 343.176H311.965V344.904H309.613V343.176ZM308.269 339.88H310.253V348.184H308.269V339.88ZM308.397 348.808C309.431 348.808 310.327 348.92 311.085 349.144C311.853 349.368 312.445 349.693 312.861 350.12C313.277 350.536 313.485 351.037 313.485 351.624C313.485 352.2 313.277 352.696 312.861 353.112C312.445 353.539 311.853 353.864 311.085 354.088C310.327 354.323 309.431 354.44 308.397 354.44C307.362 354.44 306.461 354.323 305.693 354.088C304.925 353.864 304.333 353.539 303.917 353.112C303.501 352.696 303.293 352.2 303.293 351.624C303.293 351.037 303.501 350.536 303.917 350.12C304.333 349.693 304.925 349.368 305.693 349.144C306.461 348.92 307.362 348.808 308.397 348.808ZM308.397 350.424C307.437 350.424 306.695 350.525 306.173 350.728C305.661 350.931 305.405 351.229 305.405 351.624C305.405 352.019 305.661 352.317 306.173 352.52C306.695 352.723 307.437 352.824 308.397 352.824C309.026 352.824 309.559 352.781 309.997 352.696C310.445 352.6 310.781 352.467 311.005 352.296C311.239 352.115 311.357 351.891 311.357 351.624C311.357 351.357 311.239 351.139 311.005 350.968C310.781 350.787 310.445 350.653 309.997 350.568C309.559 350.472 309.026 350.424 308.397 350.424ZM317.019 340.888H326.363V342.6H317.019V340.888ZM315.515 350.936H328.923V352.68H315.515V350.936ZM325.467 340.888H327.563V342.616C327.563 343.331 327.553 344.056 327.531 344.792C327.51 345.517 327.451 346.307 327.355 347.16C327.259 348.003 327.099 348.963 326.875 350.04L324.763 349.848C324.998 348.856 325.163 347.944 325.259 347.112C325.355 346.28 325.414 345.496 325.435 344.76C325.457 344.024 325.467 343.309 325.467 342.616V340.888ZM325.899 344.952V346.52L316.859 346.968L316.587 345.256L325.899 344.952ZM340.251 345.208H342.587V346.936H340.251V345.208ZM336.795 343.72H338.411V344.104C338.411 344.872 338.347 345.635 338.219 346.392C338.101 347.139 337.909 347.848 337.643 348.52C337.387 349.181 337.051 349.784 336.635 350.328C336.229 350.861 335.728 351.299 335.131 351.64L333.947 350.04C334.469 349.731 334.912 349.357 335.275 348.92C335.637 348.472 335.931 347.987 336.155 347.464C336.389 346.931 336.555 346.381 336.651 345.816C336.747 345.24 336.795 344.669 336.795 344.104V343.72ZM337.211 343.72H338.827V344.104C338.827 344.648 338.875 345.197 338.971 345.752C339.077 346.307 339.243 346.829 339.467 347.32C339.691 347.811 339.984 348.264 340.347 348.68C340.709 349.085 341.152 349.427 341.675 349.704L340.523 351.288C339.733 350.872 339.093 350.296 338.603 349.56C338.112 348.813 337.755 347.971 337.531 347.032C337.317 346.083 337.211 345.107 337.211 344.104V343.72ZM334.491 342.088H341.099V343.8H334.491V342.088ZM336.795 340.088H338.827V343.464H336.795V340.088ZM344.907 339.592H346.939V354.408H344.907V339.592ZM341.915 339.832H343.899V353.736H341.915V339.832ZM350.441 340.888H359.785V342.6H350.441V340.888ZM348.937 350.936H362.345V352.68H348.937V350.936ZM358.889 340.888H360.985V342.616C360.985 343.331 360.975 344.056 360.953 344.792C360.932 345.517 360.873 346.307 360.777 347.16C360.681 348.003 360.521 348.963 360.297 350.04L358.185 349.848C358.42 348.856 358.585 347.944 358.681 347.112C358.777 346.28 358.836 345.496 358.857 344.76C358.879 344.024 358.889 343.309 358.889 342.616V340.888ZM359.321 344.952V346.52L350.281 346.968L350.009 345.256L359.321 344.952Z" fill="black"/>
<path d="M382.25 351.844L387.1 346.994L382.25 342.144C381.762 341.656 381.762 340.869 382.25 340.381C382.737 339.894 383.525 339.894 384.012 340.381L389.75 346.119C390.237 346.606 390.237 347.394 389.75 347.881L384.012 353.619C383.525 354.106 382.737 354.106 382.25 353.619C381.775 353.131 381.762 352.331 382.25 351.844Z" fill="#0C0C0C"/>
<line y1="269.5" x2="412" y2="269.5" stroke="#D9D9D9"/>
<line y1="320.5" x2="412" y2="320.5" stroke="#D9D9D9"/>
<line x1="-1" y1="371.5" x2="411" y2="371.5" stroke="#D9D9D9"/>
<line x1="-1" y1="422.5" x2="411" y2="422.5" stroke="#D9D9D9"/>
<path d="M66.8 131.28V133.3L55.46 133.86L55.16 131.62L66.8 131.28ZM55.76 127.26H67.38V129.38H55.76V127.26ZM53.82 136.04H70.58V138.18H53.82V136.04ZM60.86 137.74H63.5V144.74H60.86V137.74ZM66.16 127.26H68.74V128.94C68.74 129.62 68.7267 130.34 68.7 131.1C68.6867 131.847 68.6267 132.667 68.52 133.56C68.4133 134.453 68.24 135.453 68 136.56L65.44 136.28C65.8 134.72 66.0067 133.353 66.06 132.18C66.1267 131.007 66.16 129.92 66.16 128.92V127.26ZM72.5784 127.64H82.4784V129.76H72.5784V127.64ZM72.3784 136.68L72.0984 134.5C73.1384 134.5 74.2851 134.493 75.5384 134.48C76.7918 134.453 78.0718 134.407 79.3784 134.34C80.6851 134.26 81.9318 134.147 83.1184 134L83.2784 135.92C82.0651 136.147 80.8118 136.313 79.5184 136.42C78.2384 136.527 76.9851 136.6 75.7584 136.64C74.5318 136.667 73.4051 136.68 72.3784 136.68ZM74.0384 129.26H76.5984V135.38H74.0384V129.26ZM78.4584 129.26H81.0184V135.38H78.4584V129.26ZM80.6984 137.74C81.9918 137.74 83.1051 137.88 84.0384 138.16C84.9851 138.44 85.7051 138.84 86.1984 139.36C86.7051 139.88 86.9584 140.513 86.9584 141.26C86.9584 142.367 86.3984 143.227 85.2784 143.84C84.1718 144.467 82.6451 144.78 80.6984 144.78C79.4184 144.78 78.3051 144.64 77.3584 144.36C76.4251 144.08 75.7051 143.673 75.1984 143.14C74.6918 142.62 74.4384 141.993 74.4384 141.26C74.4384 140.513 74.6918 139.88 75.1984 139.36C75.7051 138.84 76.4251 138.44 77.3584 138.16C78.3051 137.88 79.4184 137.74 80.6984 137.74ZM80.6984 139.8C79.9118 139.8 79.2451 139.853 78.6984 139.96C78.1651 140.067 77.7584 140.227 77.4784 140.44C77.2118 140.653 77.0784 140.927 77.0784 141.26C77.0784 141.593 77.2118 141.867 77.4784 142.08C77.7584 142.293 78.1651 142.453 78.6984 142.56C79.2451 142.667 79.9118 142.72 80.6984 142.72C81.5118 142.72 82.1851 142.667 82.7184 142.56C83.2518 142.453 83.6518 142.293 83.9184 142.08C84.1984 141.867 84.3384 141.593 84.3384 141.26C84.3384 140.927 84.1984 140.653 83.9184 140.44C83.6518 140.227 83.2518 140.067 82.7184 139.96C82.1851 139.853 81.5118 139.8 80.6984 139.8ZM84.1184 126.26H86.7784V137.42H84.1184V126.26ZM86.0584 130.62H89.2384V132.82H86.0584V130.62Z" fill="black"/>
<path d="M63.3813 182.224V186.442H51.7578V182.224H63.3813ZM73.269 183.125L69.0503 182.092L70.7861 166.008H88.0347V170.49H75.1807L74.3018 178.334C74.7998 178.042 75.4883 177.756 76.3672 177.478C77.2461 177.185 78.2495 177.038 79.3774 177.038C80.8862 177.038 82.2339 177.287 83.4204 177.785C84.6216 178.269 85.6396 178.979 86.4746 179.917C87.3096 180.839 87.9468 181.967 88.3862 183.3C88.8257 184.619 89.0454 186.105 89.0454 187.761C89.0454 189.24 88.8257 190.625 88.3862 191.914C87.9614 193.203 87.3169 194.338 86.4526 195.319C85.5884 196.301 84.4971 197.07 83.1787 197.626C81.875 198.168 80.3296 198.439 78.5425 198.439C77.2095 198.439 75.9277 198.249 74.6973 197.868C73.4814 197.473 72.3901 196.894 71.4233 196.132C70.4565 195.356 69.6802 194.404 69.0942 193.276C68.5083 192.133 68.1714 190.822 68.0835 189.343H73.269C73.4009 190.383 73.6865 191.269 74.126 192.001C74.5801 192.719 75.1807 193.269 75.9277 193.649C76.6748 194.03 77.5391 194.221 78.5205 194.221C79.4141 194.221 80.1831 194.067 80.8276 193.759C81.4722 193.437 82.0068 192.983 82.4316 192.397C82.8711 191.796 83.1934 191.093 83.3984 190.288C83.6182 189.482 83.728 188.588 83.728 187.607C83.728 186.669 83.6035 185.812 83.3545 185.036C83.1201 184.26 82.7612 183.586 82.2778 183.015C81.8091 182.443 81.2158 182.004 80.498 181.696C79.7803 181.374 78.9526 181.213 78.0151 181.213C76.7554 181.213 75.7886 181.396 75.1147 181.762C74.4556 182.128 73.8403 182.583 73.269 183.125ZM114.138 179.323V184.553C114.138 187.058 113.889 189.196 113.391 190.969C112.908 192.727 112.205 194.155 111.282 195.253C110.359 196.352 109.253 197.158 107.964 197.67C106.689 198.183 105.261 198.439 103.679 198.439C102.419 198.439 101.248 198.278 100.164 197.956C99.0942 197.634 98.1274 197.128 97.2632 196.44C96.3989 195.751 95.6592 194.865 95.0439 193.781C94.4434 192.683 93.9746 191.372 93.6377 189.848C93.3154 188.325 93.1543 186.56 93.1543 184.553V179.323C93.1543 176.804 93.4033 174.68 93.9014 172.951C94.3994 171.208 95.1099 169.794 96.0327 168.71C96.9556 167.612 98.0542 166.813 99.3286 166.315C100.618 165.817 102.053 165.568 103.635 165.568C104.91 165.568 106.082 165.729 107.151 166.052C108.235 166.359 109.202 166.85 110.051 167.524C110.916 168.198 111.648 169.077 112.249 170.161C112.864 171.23 113.333 172.526 113.655 174.05C113.977 175.559 114.138 177.316 114.138 179.323ZM108.843 185.3V178.532C108.843 177.258 108.77 176.137 108.623 175.17C108.477 174.189 108.257 173.361 107.964 172.688C107.686 171.999 107.334 171.442 106.909 171.018C106.484 170.578 106.001 170.263 105.459 170.073C104.917 169.868 104.309 169.765 103.635 169.765C102.815 169.765 102.083 169.926 101.438 170.249C100.793 170.556 100.251 171.054 99.812 171.743C99.3726 172.431 99.0356 173.339 98.8013 174.467C98.5815 175.581 98.4717 176.936 98.4717 178.532V185.3C98.4717 186.589 98.5449 187.724 98.6914 188.706C98.8379 189.687 99.0576 190.529 99.3506 191.232C99.6436 191.921 99.9951 192.492 100.405 192.946C100.83 193.386 101.313 193.708 101.855 193.913C102.412 194.118 103.02 194.221 103.679 194.221C104.514 194.221 105.254 194.06 105.898 193.737C106.543 193.415 107.085 192.902 107.524 192.199C107.964 191.481 108.293 190.551 108.513 189.409C108.733 188.266 108.843 186.896 108.843 185.3ZM124.136 192.902L124.114 196.682C124.114 198.176 123.74 199.714 122.993 201.296C122.246 202.878 121.257 204.182 120.027 205.207L117.192 203.559C117.603 202.9 117.976 202.233 118.313 201.56C118.65 200.886 118.921 200.168 119.126 199.406C119.331 198.645 119.434 197.802 119.434 196.879V192.902H124.136ZM149.778 179.323V184.553C149.778 187.058 149.529 189.196 149.031 190.969C148.547 192.727 147.844 194.155 146.921 195.253C145.999 196.352 144.893 197.158 143.604 197.67C142.329 198.183 140.901 198.439 139.319 198.439C138.059 198.439 136.887 198.278 135.803 197.956C134.734 197.634 133.767 197.128 132.903 196.44C132.039 195.751 131.299 194.865 130.684 193.781C130.083 192.683 129.614 191.372 129.277 189.848C128.955 188.325 128.794 186.56 128.794 184.553V179.323C128.794 176.804 129.043 174.68 129.541 172.951C130.039 171.208 130.75 169.794 131.672 168.71C132.595 167.612 133.694 166.813 134.968 166.315C136.257 165.817 137.693 165.568 139.275 165.568C140.549 165.568 141.721 165.729 142.791 166.052C143.875 166.359 144.841 166.85 145.691 167.524C146.555 168.198 147.288 169.077 147.888 170.161C148.503 171.23 148.972 172.526 149.294 174.05C149.617 175.559 149.778 177.316 149.778 179.323ZM144.482 185.3V178.532C144.482 177.258 144.409 176.137 144.263 175.17C144.116 174.189 143.896 173.361 143.604 172.688C143.325 171.999 142.974 171.442 142.549 171.018C142.124 170.578 141.641 170.263 141.099 170.073C140.557 169.868 139.949 169.765 139.275 169.765C138.455 169.765 137.722 169.926 137.078 170.249C136.433 170.556 135.891 171.054 135.452 171.743C135.012 172.431 134.675 173.339 134.441 174.467C134.221 175.581 134.111 176.936 134.111 178.532V185.3C134.111 186.589 134.185 187.724 134.331 188.706C134.478 189.687 134.697 190.529 134.99 191.232C135.283 191.921 135.635 192.492 136.045 192.946C136.47 193.386 136.953 193.708 137.495 193.913C138.052 194.118 138.66 194.221 139.319 194.221C140.154 194.221 140.894 194.06 141.538 193.737C142.183 193.415 142.725 192.902 143.164 192.199C143.604 191.481 143.933 190.551 144.153 189.409C144.373 188.266 144.482 186.896 144.482 185.3ZM175.354 179.323V184.553C175.354 187.058 175.105 189.196 174.607 190.969C174.124 192.727 173.42 194.155 172.498 195.253C171.575 196.352 170.469 197.158 169.18 197.67C167.905 198.183 166.477 198.439 164.895 198.439C163.635 198.439 162.463 198.278 161.379 197.956C160.31 197.634 159.343 197.128 158.479 196.44C157.615 195.751 156.875 194.865 156.26 193.781C155.659 192.683 155.19 191.372 154.854 189.848C154.531 188.325 154.37 186.56 154.37 184.553V179.323C154.37 176.804 154.619 174.68 155.117 172.951C155.615 171.208 156.326 169.794 157.249 168.71C158.171 167.612 159.27 166.813 160.544 166.315C161.833 165.817 163.269 165.568 164.851 165.568C166.125 165.568 167.297 165.729 168.367 166.052C169.451 166.359 170.417 166.85 171.267 167.524C172.131 168.198 172.864 169.077 173.464 170.161C174.08 171.23 174.548 172.526 174.871 174.05C175.193 175.559 175.354 177.316 175.354 179.323ZM170.059 185.3V178.532C170.059 177.258 169.985 176.137 169.839 175.17C169.692 174.189 169.473 173.361 169.18 172.688C168.901 171.999 168.55 171.442 168.125 171.018C167.7 170.578 167.217 170.263 166.675 170.073C166.133 169.868 165.525 169.765 164.851 169.765C164.031 169.765 163.298 169.926 162.654 170.249C162.009 170.556 161.467 171.054 161.028 171.743C160.588 172.431 160.251 173.339 160.017 174.467C159.797 175.581 159.688 176.936 159.688 178.532V185.3C159.688 186.589 159.761 187.724 159.907 188.706C160.054 189.687 160.273 190.529 160.566 191.232C160.859 191.921 161.211 192.492 161.621 192.946C162.046 193.386 162.529 193.708 163.071 193.913C163.628 194.118 164.236 194.221 164.895 194.221C165.73 194.221 166.47 194.06 167.114 193.737C167.759 193.415 168.301 192.902 168.74 192.199C169.18 191.481 169.509 190.551 169.729 189.409C169.949 188.266 170.059 186.896 170.059 185.3ZM200.93 179.323V184.553C200.93 187.058 200.681 189.196 200.183 190.969C199.7 192.727 198.997 194.155 198.074 195.253C197.151 196.352 196.045 197.158 194.756 197.67C193.481 198.183 192.053 198.439 190.471 198.439C189.211 198.439 188.04 198.278 186.956 197.956C185.886 197.634 184.919 197.128 184.055 196.44C183.191 195.751 182.451 194.865 181.836 193.781C181.235 192.683 180.767 191.372 180.43 189.848C180.107 188.325 179.946 186.56 179.946 184.553V179.323C179.946 176.804 180.195 174.68 180.693 172.951C181.191 171.208 181.902 169.794 182.825 168.71C183.748 167.612 184.846 166.813 186.121 166.315C187.41 165.817 188.845 165.568 190.427 165.568C191.702 165.568 192.874 165.729 193.943 166.052C195.027 166.359 195.994 166.85 196.843 167.524C197.708 168.198 198.44 169.077 199.041 170.161C199.656 171.23 200.125 172.526 200.447 174.05C200.769 175.559 200.93 177.316 200.93 179.323ZM195.635 185.3V178.532C195.635 177.258 195.562 176.137 195.415 175.17C195.269 174.189 195.049 173.361 194.756 172.688C194.478 171.999 194.126 171.442 193.701 171.018C193.276 170.578 192.793 170.263 192.251 170.073C191.709 169.868 191.101 169.765 190.427 169.765C189.607 169.765 188.875 169.926 188.23 170.249C187.585 170.556 187.043 171.054 186.604 171.743C186.165 172.431 185.828 173.339 185.593 174.467C185.374 175.581 185.264 176.936 185.264 178.532V185.3C185.264 186.589 185.337 187.724 185.483 188.706C185.63 189.687 185.85 190.529 186.143 191.232C186.436 191.921 186.787 192.492 187.197 192.946C187.622 193.386 188.105 193.708 188.647 193.913C189.204 194.118 189.812 194.221 190.471 194.221C191.306 194.221 192.046 194.06 192.69 193.737C193.335 193.415 193.877 192.902 194.316 192.199C194.756 191.481 195.085 190.551 195.305 189.409C195.525 188.266 195.635 186.896 195.635 185.3ZM217.007 181.305H220.742V190.35H217.007V181.305ZM235.052 160.83H238.787V191.745H235.052V160.83ZM211.022 197.55H239.777V200.61H211.022V197.55ZM211.022 188.73H214.757V198.36H211.022V188.73ZM205.757 182.7L205.262 179.595C207.782 179.595 210.512 179.58 213.452 179.55C216.422 179.49 219.452 179.385 222.542 179.235C225.632 179.055 228.617 178.785 231.497 178.425L231.767 181.125C228.857 181.605 225.857 181.965 222.767 182.205C219.707 182.415 216.722 182.55 213.812 182.61C210.902 182.67 208.217 182.7 205.757 182.7ZM226.772 184.86H236.042V187.56H226.772V184.86ZM218.492 162.45C220.502 162.45 222.257 162.75 223.757 163.35C225.257 163.92 226.412 164.745 227.222 165.825C228.062 166.875 228.482 168.12 228.482 169.56C228.482 170.97 228.062 172.215 227.222 173.295C226.412 174.375 225.257 175.2 223.757 175.77C222.257 176.34 220.502 176.625 218.492 176.625C216.512 176.625 214.757 176.34 213.227 175.77C211.727 175.2 210.557 174.375 209.717 173.295C208.907 172.215 208.502 170.97 208.502 169.56C208.502 168.12 208.907 166.875 209.717 165.825C210.557 164.745 211.727 163.92 213.227 163.35C214.757 162.75 216.512 162.45 218.492 162.45ZM218.492 165.24C216.572 165.24 215.012 165.63 213.812 166.41C212.612 167.19 212.012 168.24 212.012 169.56C212.012 170.85 212.612 171.885 213.812 172.665C215.012 173.445 216.572 173.835 218.492 173.835C220.382 173.835 221.927 173.445 223.127 172.665C224.327 171.885 224.927 170.85 224.927 169.56C224.927 168.66 224.657 167.895 224.117 167.265C223.577 166.635 222.827 166.14 221.867 165.78C220.907 165.42 219.782 165.24 218.492 165.24Z" fill="black"/>
<path d="M72.037 388.592H74.181V396.032H72.037V388.592ZM67.109 389.152H69.429C69.429 390.464 69.173 391.605 68.661 392.576C68.1597 393.536 67.4077 394.331 66.405 394.96C65.4023 395.579 64.1543 396.053 62.661 396.384L61.941 394.672C63.189 394.427 64.1863 394.091 64.933 393.664C65.6903 393.227 66.2397 392.725 66.581 392.16C66.933 391.584 67.109 390.971 67.109 390.32V389.152ZM62.805 389.152H67.989V390.848H62.805V389.152ZM68.853 390.448H72.309V392.064H68.853V390.448ZM68.757 393.328H72.245V394.928H68.757V393.328ZM64.389 396.576H74.181V400.672H66.533V402.496H64.405V399.088H72.037V398.24H64.389V396.576ZM64.405 401.6H74.469V403.28H64.405V401.6ZM87.1878 388.592H89.2198V403.408H87.1878V388.592ZM82.3078 393.664H84.7718V395.392H82.3078V393.664ZM84.1958 388.832H86.1798V402.736H84.1958V388.832ZM79.1238 391.008H80.7238V392.528C80.7238 393.36 80.6598 394.181 80.5318 394.992C80.4144 395.803 80.2278 396.571 79.9718 397.296C79.7158 398.011 79.3798 398.656 78.9638 399.232C78.5478 399.808 78.0464 400.283 77.4598 400.656L76.1958 399.088C76.9211 398.629 77.4971 398.053 77.9238 397.36C78.3504 396.656 78.6544 395.888 78.8358 395.056C79.0278 394.213 79.1238 393.371 79.1238 392.528V391.008ZM79.6038 391.008H81.1878V392.528C81.1878 393.349 81.2784 394.16 81.4598 394.96C81.6411 395.76 81.9398 396.491 82.3558 397.152C82.7718 397.803 83.3371 398.336 84.0518 398.752L82.8198 400.288C82.0304 399.819 81.4011 399.184 80.9318 398.384C80.4624 397.584 80.1211 396.683 79.9078 395.68C79.7051 394.667 79.6038 393.616 79.6038 392.528V391.008ZM76.7398 390.08H83.3478V391.792H76.7398V390.08ZM95.3785 389.024C96.1465 389.024 96.8238 389.173 97.4105 389.472C98.0078 389.76 98.4772 390.16 98.8185 390.672C99.1705 391.173 99.3465 391.755 99.3465 392.416C99.3465 393.077 99.1705 393.664 98.8185 394.176C98.4772 394.677 98.0078 395.072 97.4105 395.36C96.8238 395.648 96.1465 395.792 95.3785 395.792C94.6318 395.792 93.9598 395.648 93.3625 395.36C92.7652 395.072 92.2905 394.677 91.9385 394.176C91.5972 393.664 91.4265 393.077 91.4265 392.416C91.4265 391.755 91.5972 391.168 91.9385 390.656C92.2905 390.144 92.7652 389.744 93.3625 389.456C93.9598 389.168 94.6318 389.024 95.3785 389.024ZM95.3945 390.752C95.0318 390.752 94.7065 390.821 94.4185 390.96C94.1305 391.088 93.9012 391.275 93.7305 391.52C93.5705 391.765 93.4905 392.064 93.4905 392.416C93.4905 392.768 93.5705 393.072 93.7305 393.328C93.9012 393.573 94.1252 393.76 94.4025 393.888C94.6905 394.016 95.0212 394.08 95.3945 394.08C95.7572 394.08 96.0772 394.016 96.3545 393.888C96.6425 393.76 96.8665 393.573 97.0265 393.328C97.1972 393.072 97.2825 392.768 97.2825 392.416C97.2825 392.064 97.1972 391.765 97.0265 391.52C96.8665 391.275 96.6425 391.088 96.3545 390.96C96.0665 390.821 95.7465 390.752 95.3945 390.752ZM101.395 388.608H103.523V396.016H101.395V388.608ZM93.6505 396.624H103.523V400.672H95.7625V402.48H93.6665V399.136H101.411V398.256H93.6505V396.624ZM93.6665 401.6H103.891V403.264H93.6665V401.6ZM109.537 389.744H111.281V391.888C111.281 392.848 111.196 393.771 111.025 394.656C110.855 395.531 110.593 396.352 110.241 397.12C109.9 397.877 109.457 398.549 108.913 399.136C108.38 399.712 107.745 400.171 107.009 400.512L105.745 398.752C106.396 398.464 106.956 398.085 107.425 397.616C107.905 397.136 108.3 396.592 108.609 395.984C108.919 395.365 109.148 394.709 109.297 394.016C109.457 393.323 109.537 392.613 109.537 391.888V389.744ZM109.953 389.744H111.681V391.888C111.681 392.581 111.756 393.259 111.905 393.92C112.055 394.581 112.279 395.205 112.577 395.792C112.887 396.379 113.271 396.901 113.729 397.36C114.199 397.808 114.748 398.165 115.377 398.432L114.145 400.16C113.431 399.829 112.807 399.387 112.273 398.832C111.751 398.277 111.319 397.637 110.977 396.912C110.636 396.176 110.38 395.387 110.209 394.544C110.039 393.691 109.953 392.805 109.953 391.888V389.744ZM116.097 388.576H118.225V403.44H116.097V388.576Z" fill="black"/>
<path d="M224.648 404.375V406H216.945V404.609L220.641 400.617C221.026 400.18 221.331 399.799 221.555 399.477C221.779 399.154 221.938 398.862 222.031 398.602C222.13 398.336 222.18 398.083 222.18 397.844C222.18 397.495 222.117 397.19 221.992 396.93C221.867 396.664 221.685 396.458 221.445 396.312C221.211 396.167 220.922 396.094 220.578 396.094C220.198 396.094 219.872 396.182 219.602 396.359C219.336 396.531 219.133 396.771 218.992 397.078C218.857 397.385 218.789 397.737 218.789 398.133H216.719C216.719 397.461 216.875 396.849 217.188 396.297C217.5 395.74 217.948 395.294 218.531 394.961C219.115 394.628 219.807 394.461 220.609 394.461C221.391 394.461 222.052 394.591 222.594 394.852C223.135 395.107 223.547 395.471 223.828 395.945C224.109 396.419 224.25 396.984 224.25 397.641C224.25 398.005 224.19 398.365 224.07 398.719C223.951 399.073 223.781 399.424 223.562 399.773C223.349 400.117 223.094 400.466 222.797 400.82C222.5 401.174 222.169 401.536 221.805 401.906L219.586 404.375H224.648ZM233.617 399.336V401.25C233.617 402.125 233.529 402.872 233.352 403.492C233.174 404.112 232.919 404.62 232.586 405.016C232.253 405.406 231.854 405.695 231.391 405.883C230.927 406.065 230.411 406.156 229.844 406.156C229.391 406.156 228.969 406.099 228.578 405.984C228.188 405.865 227.836 405.682 227.523 405.438C227.216 405.188 226.951 404.87 226.727 404.484C226.508 404.099 226.339 403.638 226.219 403.102C226.104 402.565 226.047 401.948 226.047 401.25V399.336C226.047 398.461 226.135 397.716 226.312 397.102C226.495 396.487 226.753 395.984 227.086 395.594C227.419 395.203 227.818 394.919 228.281 394.742C228.745 394.56 229.26 394.469 229.828 394.469C230.286 394.469 230.708 394.526 231.094 394.641C231.484 394.755 231.833 394.935 232.141 395.18C232.453 395.419 232.719 395.732 232.938 396.117C233.156 396.497 233.323 396.956 233.438 397.492C233.557 398.023 233.617 398.638 233.617 399.336ZM231.555 401.531V399.047C231.555 398.609 231.529 398.229 231.477 397.906C231.43 397.578 231.359 397.299 231.266 397.07C231.172 396.841 231.055 396.656 230.914 396.516C230.773 396.37 230.612 396.263 230.43 396.195C230.247 396.128 230.047 396.094 229.828 396.094C229.557 396.094 229.315 396.148 229.102 396.258C228.888 396.362 228.708 396.529 228.562 396.758C228.417 396.987 228.305 397.292 228.227 397.672C228.154 398.047 228.117 398.505 228.117 399.047V401.531C228.117 401.969 228.141 402.352 228.188 402.68C228.24 403.008 228.312 403.289 228.406 403.523C228.505 403.758 228.622 403.951 228.758 404.102C228.898 404.247 229.06 404.357 229.242 404.43C229.424 404.497 229.625 404.531 229.844 404.531C230.12 404.531 230.362 404.477 230.57 404.367C230.784 404.258 230.964 404.086 231.109 403.852C231.255 403.612 231.365 403.302 231.438 402.922C231.516 402.536 231.555 402.073 231.555 401.531ZM242.93 404.375V406H235.227V404.609L238.922 400.617C239.307 400.18 239.612 399.799 239.836 399.477C240.06 399.154 240.219 398.862 240.312 398.602C240.411 398.336 240.461 398.083 240.461 397.844C240.461 397.495 240.398 397.19 240.273 396.93C240.148 396.664 239.966 396.458 239.727 396.312C239.492 396.167 239.203 396.094 238.859 396.094C238.479 396.094 238.154 396.182 237.883 396.359C237.617 396.531 237.414 396.771 237.273 397.078C237.138 397.385 237.07 397.737 237.07 398.133H235C235 397.461 235.156 396.849 235.469 396.297C235.781 395.74 236.229 395.294 236.812 394.961C237.396 394.628 238.089 394.461 238.891 394.461C239.672 394.461 240.333 394.591 240.875 394.852C241.417 395.107 241.828 395.471 242.109 395.945C242.391 396.419 242.531 396.984 242.531 397.641C242.531 398.005 242.471 398.365 242.352 398.719C242.232 399.073 242.062 399.424 241.844 399.773C241.63 400.117 241.375 400.466 241.078 400.82C240.781 401.174 240.451 401.536 240.086 401.906L237.867 404.375H242.93ZM246.414 400.766L244.766 400.367L245.398 394.625H251.656V396.336H247.109L246.812 398.992C246.974 398.893 247.208 398.794 247.516 398.695C247.828 398.591 248.18 398.539 248.57 398.539C249.112 398.539 249.596 398.628 250.023 398.805C250.451 398.977 250.812 399.227 251.109 399.555C251.411 399.883 251.638 400.284 251.789 400.758C251.945 401.227 252.023 401.758 252.023 402.352C252.023 402.872 251.945 403.362 251.789 403.82C251.638 404.273 251.406 404.677 251.094 405.031C250.781 405.38 250.388 405.656 249.914 405.859C249.44 406.057 248.883 406.156 248.242 406.156C247.758 406.156 247.292 406.086 246.844 405.945C246.401 405.799 246.003 405.589 245.648 405.312C245.294 405.031 245.01 404.688 244.797 404.281C244.589 403.875 244.474 403.409 244.453 402.883H246.492C246.529 403.232 246.622 403.529 246.773 403.773C246.924 404.018 247.122 404.206 247.367 404.336C247.617 404.466 247.906 404.531 248.234 404.531C248.531 404.531 248.786 404.477 249 404.367C249.219 404.253 249.398 404.094 249.539 403.891C249.68 403.688 249.784 403.448 249.852 403.172C249.919 402.896 249.953 402.594 249.953 402.266C249.953 401.948 249.914 401.659 249.836 401.398C249.758 401.133 249.638 400.904 249.477 400.711C249.315 400.518 249.112 400.37 248.867 400.266C248.628 400.161 248.346 400.109 248.023 400.109C247.591 400.109 247.258 400.174 247.023 400.305C246.794 400.435 246.591 400.589 246.414 400.766ZM263.6 392.592H265.744V403.488H263.6V392.592ZM260.016 394.256H264.32V395.92H260.016V394.256ZM255.952 405.456H266.064V407.168H255.952V405.456ZM255.952 402.528H258.08V406.336H255.952V402.528ZM254.144 393.536H256.256V400.496H254.144V393.536ZM254.144 399.856H255.328C256.405 399.856 257.434 399.824 258.416 399.76C259.408 399.696 260.432 399.573 261.488 399.392L261.696 401.12C260.608 401.312 259.552 401.44 258.528 401.504C257.504 401.568 256.437 401.6 255.328 401.6H254.144V399.856ZM260.016 397.008H264.32V398.688H260.016V397.008ZM273.766 404.398H273.914C274.586 404.398 275.154 404.312 275.617 404.141C276.086 403.969 276.464 403.727 276.75 403.414C277.042 403.096 277.253 402.719 277.383 402.281C277.518 401.839 277.586 401.349 277.586 400.812V398.75C277.586 398.312 277.542 397.93 277.453 397.602C277.365 397.268 277.24 396.99 277.078 396.766C276.922 396.542 276.737 396.375 276.523 396.266C276.31 396.151 276.081 396.094 275.836 396.094C275.565 396.094 275.326 396.156 275.117 396.281C274.909 396.406 274.732 396.578 274.586 396.797C274.445 397.01 274.336 397.258 274.258 397.539C274.185 397.82 274.148 398.117 274.148 398.43C274.148 398.732 274.182 399.021 274.25 399.297C274.323 399.573 274.43 399.818 274.57 400.031C274.716 400.245 274.898 400.414 275.117 400.539C275.336 400.659 275.591 400.719 275.883 400.719C276.159 400.719 276.409 400.667 276.633 400.562C276.862 400.453 277.06 400.31 277.227 400.133C277.393 399.951 277.521 399.75 277.609 399.531C277.703 399.307 277.755 399.081 277.766 398.852L278.492 399.164C278.492 399.544 278.411 399.919 278.25 400.289C278.094 400.659 277.872 400.995 277.586 401.297C277.305 401.594 276.977 401.833 276.602 402.016C276.227 402.193 275.823 402.281 275.391 402.281C274.854 402.281 274.38 402.182 273.969 401.984C273.557 401.786 273.211 401.513 272.93 401.164C272.654 400.81 272.445 400.404 272.305 399.945C272.164 399.482 272.094 398.987 272.094 398.461C272.094 397.914 272.18 397.401 272.352 396.922C272.523 396.438 272.771 396.013 273.094 395.648C273.422 395.279 273.818 394.99 274.281 394.781C274.745 394.568 275.266 394.461 275.844 394.461C276.443 394.461 276.977 394.578 277.445 394.812C277.914 395.047 278.312 395.372 278.641 395.789C278.969 396.201 279.219 396.688 279.391 397.25C279.568 397.812 279.656 398.427 279.656 399.094V399.82C279.656 400.523 279.586 401.19 279.445 401.82C279.305 402.451 279.089 403.026 278.797 403.547C278.505 404.068 278.133 404.518 277.68 404.898C277.232 405.279 276.695 405.573 276.07 405.781C275.451 405.984 274.742 406.086 273.945 406.086H273.766V404.398ZM284.755 398.608H286.883V401.184H284.755V398.608ZM291.523 392.592H293.651V401.168H291.523V392.592ZM281.411 399.28L281.187 397.808C282.137 397.808 283.145 397.803 284.211 397.792C285.278 397.781 286.361 397.755 287.459 397.712C288.558 397.669 289.625 397.6 290.659 397.504L290.771 398.816C289.705 398.965 288.627 399.072 287.539 399.136C286.451 399.2 285.39 399.243 284.355 399.264C283.321 399.275 282.339 399.28 281.411 399.28ZM283.299 401.632H293.651V405.104H285.427V406.272H283.315V403.76H291.555V403.072H283.299V401.632ZM283.315 405.856H294.003V407.328H283.315V405.856ZM288.915 399.456H292.179V400.736H288.915V399.456ZM285.891 392.816C286.627 392.816 287.273 392.907 287.827 393.088C288.382 393.269 288.814 393.525 289.123 393.856C289.433 394.187 289.587 394.581 289.587 395.04C289.587 395.488 289.433 395.877 289.123 396.208C288.814 396.539 288.382 396.795 287.827 396.976C287.273 397.157 286.627 397.248 285.891 397.248C285.155 397.248 284.505 397.157 283.939 396.976C283.385 396.795 282.953 396.539 282.643 396.208C282.334 395.877 282.179 395.488 282.179 395.04C282.179 394.581 282.334 394.187 282.643 393.856C282.953 393.525 283.385 393.269 283.939 393.088C284.505 392.907 285.155 392.816 285.891 392.816ZM285.891 394.208C285.369 394.208 284.947 394.277 284.627 394.416C284.318 394.555 284.163 394.763 284.163 395.04C284.163 395.307 284.318 395.509 284.627 395.648C284.947 395.787 285.369 395.856 285.891 395.856C286.425 395.856 286.841 395.787 287.139 395.648C287.449 395.509 287.603 395.307 287.603 395.04C287.603 394.763 287.449 394.555 287.139 394.416C286.841 394.277 286.425 394.208 285.891 394.208ZM305.367 394.594V406H303.297V397.008L300.555 397.914V396.242L305.133 394.594H305.367ZM313.191 393.024C313.959 393.024 314.636 393.173 315.223 393.472C315.82 393.76 316.29 394.16 316.631 394.672C316.983 395.173 317.159 395.755 317.159 396.416C317.159 397.077 316.983 397.664 316.631 398.176C316.29 398.677 315.82 399.072 315.223 399.36C314.636 399.648 313.959 399.792 313.191 399.792C312.444 399.792 311.772 399.648 311.175 399.36C310.578 399.072 310.103 398.677 309.751 398.176C309.41 397.664 309.239 397.077 309.239 396.416C309.239 395.755 309.41 395.168 309.751 394.656C310.103 394.144 310.578 393.744 311.175 393.456C311.772 393.168 312.444 393.024 313.191 393.024ZM313.207 394.752C312.844 394.752 312.519 394.821 312.231 394.96C311.943 395.088 311.714 395.275 311.543 395.52C311.383 395.765 311.303 396.064 311.303 396.416C311.303 396.768 311.383 397.072 311.543 397.328C311.714 397.573 311.938 397.76 312.215 397.888C312.503 398.016 312.834 398.08 313.207 398.08C313.57 398.08 313.89 398.016 314.167 397.888C314.455 397.76 314.679 397.573 314.839 397.328C315.01 397.072 315.095 396.768 315.095 396.416C315.095 396.064 315.01 395.765 314.839 395.52C314.679 395.275 314.455 395.088 314.167 394.96C313.879 394.821 313.559 394.752 313.207 394.752ZM319.207 392.608H321.335V400.016H319.207V392.608ZM311.463 400.624H321.335V404.672H313.575V406.48H311.479V403.136H319.223V402.256H311.463V400.624ZM311.479 405.6H321.703V407.264H311.479V405.6ZM335.43 399.336V401.25C335.43 402.125 335.341 402.872 335.164 403.492C334.987 404.112 334.732 404.62 334.398 405.016C334.065 405.406 333.667 405.695 333.203 405.883C332.74 406.065 332.224 406.156 331.656 406.156C331.203 406.156 330.781 406.099 330.391 405.984C330 405.865 329.648 405.682 329.336 405.438C329.029 405.188 328.763 404.87 328.539 404.484C328.32 404.099 328.151 403.638 328.031 403.102C327.917 402.565 327.859 401.948 327.859 401.25V399.336C327.859 398.461 327.948 397.716 328.125 397.102C328.307 396.487 328.565 395.984 328.898 395.594C329.232 395.203 329.63 394.919 330.094 394.742C330.557 394.56 331.073 394.469 331.641 394.469C332.099 394.469 332.521 394.526 332.906 394.641C333.297 394.755 333.646 394.935 333.953 395.18C334.266 395.419 334.531 395.732 334.75 396.117C334.969 396.497 335.135 396.956 335.25 397.492C335.37 398.023 335.43 398.638 335.43 399.336ZM333.367 401.531V399.047C333.367 398.609 333.341 398.229 333.289 397.906C333.242 397.578 333.172 397.299 333.078 397.07C332.984 396.841 332.867 396.656 332.727 396.516C332.586 396.37 332.424 396.263 332.242 396.195C332.06 396.128 331.859 396.094 331.641 396.094C331.37 396.094 331.128 396.148 330.914 396.258C330.701 396.362 330.521 396.529 330.375 396.758C330.229 396.987 330.117 397.292 330.039 397.672C329.966 398.047 329.93 398.505 329.93 399.047V401.531C329.93 401.969 329.953 402.352 330 402.68C330.052 403.008 330.125 403.289 330.219 403.523C330.318 403.758 330.435 403.951 330.57 404.102C330.711 404.247 330.872 404.357 331.055 404.43C331.237 404.497 331.438 404.531 331.656 404.531C331.932 404.531 332.174 404.477 332.383 404.367C332.596 404.258 332.776 404.086 332.922 403.852C333.068 403.612 333.177 403.302 333.25 402.922C333.328 402.536 333.367 402.073 333.367 401.531ZM338.594 404.398H338.742C339.414 404.398 339.982 404.312 340.445 404.141C340.914 403.969 341.292 403.727 341.578 403.414C341.87 403.096 342.081 402.719 342.211 402.281C342.346 401.839 342.414 401.349 342.414 400.812V398.75C342.414 398.312 342.37 397.93 342.281 397.602C342.193 397.268 342.068 396.99 341.906 396.766C341.75 396.542 341.565 396.375 341.352 396.266C341.138 396.151 340.909 396.094 340.664 396.094C340.393 396.094 340.154 396.156 339.945 396.281C339.737 396.406 339.56 396.578 339.414 396.797C339.273 397.01 339.164 397.258 339.086 397.539C339.013 397.82 338.977 398.117 338.977 398.43C338.977 398.732 339.01 399.021 339.078 399.297C339.151 399.573 339.258 399.818 339.398 400.031C339.544 400.245 339.727 400.414 339.945 400.539C340.164 400.659 340.419 400.719 340.711 400.719C340.987 400.719 341.237 400.667 341.461 400.562C341.69 400.453 341.888 400.31 342.055 400.133C342.221 399.951 342.349 399.75 342.438 399.531C342.531 399.307 342.583 399.081 342.594 398.852L343.32 399.164C343.32 399.544 343.24 399.919 343.078 400.289C342.922 400.659 342.701 400.995 342.414 401.297C342.133 401.594 341.805 401.833 341.43 402.016C341.055 402.193 340.651 402.281 340.219 402.281C339.682 402.281 339.208 402.182 338.797 401.984C338.385 401.786 338.039 401.513 337.758 401.164C337.482 400.81 337.273 400.404 337.133 399.945C336.992 399.482 336.922 398.987 336.922 398.461C336.922 397.914 337.008 397.401 337.18 396.922C337.352 396.438 337.599 396.013 337.922 395.648C338.25 395.279 338.646 394.99 339.109 394.781C339.573 394.568 340.094 394.461 340.672 394.461C341.271 394.461 341.805 394.578 342.273 394.812C342.742 395.047 343.141 395.372 343.469 395.789C343.797 396.201 344.047 396.688 344.219 397.25C344.396 397.812 344.484 398.427 344.484 399.094V399.82C344.484 400.523 344.414 401.19 344.273 401.82C344.133 402.451 343.917 403.026 343.625 403.547C343.333 404.068 342.961 404.518 342.508 404.898C342.06 405.279 341.523 405.573 340.898 405.781C340.279 405.984 339.57 406.086 338.773 406.086H338.594V404.398ZM346.336 404.992C346.336 404.68 346.443 404.417 346.656 404.203C346.87 403.99 347.159 403.883 347.523 403.883C347.888 403.883 348.177 403.99 348.391 404.203C348.604 404.417 348.711 404.68 348.711 404.992C348.711 405.299 348.604 405.56 348.391 405.773C348.177 405.982 347.888 406.086 347.523 406.086C347.159 406.086 346.87 405.982 346.656 405.773C346.443 405.56 346.336 405.299 346.336 404.992ZM346.344 398.438C346.344 398.125 346.451 397.862 346.664 397.648C346.878 397.435 347.167 397.328 347.531 397.328C347.896 397.328 348.185 397.435 348.398 397.648C348.612 397.862 348.719 398.125 348.719 398.438C348.719 398.745 348.612 399.005 348.398 399.219C348.185 399.427 347.896 399.531 347.531 399.531C347.167 399.531 346.878 399.427 346.664 399.219C346.451 399.005 346.344 398.745 346.344 398.438ZM358.07 399.336V401.25C358.07 402.125 357.982 402.872 357.805 403.492C357.628 404.112 357.372 404.62 357.039 405.016C356.706 405.406 356.307 405.695 355.844 405.883C355.38 406.065 354.865 406.156 354.297 406.156C353.844 406.156 353.422 406.099 353.031 405.984C352.641 405.865 352.289 405.682 351.977 405.438C351.669 405.188 351.404 404.87 351.18 404.484C350.961 404.099 350.792 403.638 350.672 403.102C350.557 402.565 350.5 401.948 350.5 401.25V399.336C350.5 398.461 350.589 397.716 350.766 397.102C350.948 396.487 351.206 395.984 351.539 395.594C351.872 395.203 352.271 394.919 352.734 394.742C353.198 394.56 353.714 394.469 354.281 394.469C354.74 394.469 355.161 394.526 355.547 394.641C355.938 394.755 356.286 394.935 356.594 395.18C356.906 395.419 357.172 395.732 357.391 396.117C357.609 396.497 357.776 396.956 357.891 397.492C358.01 398.023 358.07 398.638 358.07 399.336ZM356.008 401.531V399.047C356.008 398.609 355.982 398.229 355.93 397.906C355.883 397.578 355.812 397.299 355.719 397.07C355.625 396.841 355.508 396.656 355.367 396.516C355.227 396.37 355.065 396.263 354.883 396.195C354.701 396.128 354.5 396.094 354.281 396.094C354.01 396.094 353.768 396.148 353.555 396.258C353.341 396.362 353.161 396.529 353.016 396.758C352.87 396.987 352.758 397.292 352.68 397.672C352.607 398.047 352.57 398.505 352.57 399.047V401.531C352.57 401.969 352.594 402.352 352.641 402.68C352.693 403.008 352.766 403.289 352.859 403.523C352.958 403.758 353.076 403.951 353.211 404.102C353.352 404.247 353.513 404.357 353.695 404.43C353.878 404.497 354.078 404.531 354.297 404.531C354.573 404.531 354.815 404.477 355.023 404.367C355.237 404.258 355.417 404.086 355.562 403.852C355.708 403.612 355.818 403.302 355.891 402.922C355.969 402.536 356.008 402.073 356.008 401.531ZM367.211 399.336V401.25C367.211 402.125 367.122 402.872 366.945 403.492C366.768 404.112 366.513 404.62 366.18 405.016C365.846 405.406 365.448 405.695 364.984 405.883C364.521 406.065 364.005 406.156 363.438 406.156C362.984 406.156 362.562 406.099 362.172 405.984C361.781 405.865 361.43 405.682 361.117 405.438C360.81 405.188 360.544 404.87 360.32 404.484C360.102 404.099 359.932 403.638 359.812 403.102C359.698 402.565 359.641 401.948 359.641 401.25V399.336C359.641 398.461 359.729 397.716 359.906 397.102C360.089 396.487 360.346 395.984 360.68 395.594C361.013 395.203 361.411 394.919 361.875 394.742C362.339 394.56 362.854 394.469 363.422 394.469C363.88 394.469 364.302 394.526 364.688 394.641C365.078 394.755 365.427 394.935 365.734 395.18C366.047 395.419 366.312 395.732 366.531 396.117C366.75 396.497 366.917 396.956 367.031 397.492C367.151 398.023 367.211 398.638 367.211 399.336ZM365.148 401.531V399.047C365.148 398.609 365.122 398.229 365.07 397.906C365.023 397.578 364.953 397.299 364.859 397.07C364.766 396.841 364.648 396.656 364.508 396.516C364.367 396.37 364.206 396.263 364.023 396.195C363.841 396.128 363.641 396.094 363.422 396.094C363.151 396.094 362.909 396.148 362.695 396.258C362.482 396.362 362.302 396.529 362.156 396.758C362.01 396.987 361.898 397.292 361.82 397.672C361.747 398.047 361.711 398.505 361.711 399.047V401.531C361.711 401.969 361.734 402.352 361.781 402.68C361.833 403.008 361.906 403.289 362 403.523C362.099 403.758 362.216 403.951 362.352 404.102C362.492 404.247 362.654 404.357 362.836 404.43C363.018 404.497 363.219 404.531 363.438 404.531C363.714 404.531 363.956 404.477 364.164 404.367C364.378 404.258 364.557 404.086 364.703 403.852C364.849 403.612 364.958 403.302 365.031 402.922C365.109 402.536 365.148 402.073 365.148 401.531Z" fill="black"/>
<line x1="-1" y1="473.5" x2="411" y2="473.5" stroke="#D9D9D9"/>
<path d="M79.8278 440.744H81.5398V442.888C81.5398 443.805 81.4598 444.701 81.2998 445.576C81.1398 446.44 80.8891 447.245 80.5477 447.992C80.2171 448.739 79.7958 449.405 79.2838 449.992C78.7718 450.568 78.1691 451.027 77.4758 451.368L76.1958 449.656C76.8251 449.368 77.3638 448.984 77.8118 448.504C78.2704 448.024 78.6491 447.48 78.9478 446.872C79.2464 446.264 79.4651 445.624 79.6038 444.952C79.7531 444.269 79.8278 443.581 79.8278 442.888V440.744ZM80.2438 440.744H81.9558V442.888C81.9558 443.56 82.0198 444.221 82.1478 444.872C82.2864 445.523 82.4944 446.141 82.7718 446.728C83.0598 447.304 83.4171 447.821 83.8438 448.28C84.2704 448.739 84.7824 449.117 85.3798 449.416L84.0838 451.112C83.4224 450.771 82.8464 450.323 82.3558 449.768C81.8758 449.203 81.4811 448.557 81.1718 447.832C80.8624 447.096 80.6278 446.312 80.4678 445.48C80.3184 444.637 80.2438 443.773 80.2438 442.888V440.744ZM85.9558 439.608H88.0998V454.424H85.9558V439.608ZM87.6358 445.304H90.2438V447.064H87.6358V445.304ZM94.2265 444.552H96.3385V447.272H94.2265V444.552ZM99.4265 444.552H101.555V447.272H99.4265V444.552ZM91.2025 446.632H104.611V448.296H91.2025V446.632ZM97.8745 449.048C99.4745 449.048 100.733 449.283 101.651 449.752C102.568 450.211 103.027 450.872 103.027 451.736C103.027 452.589 102.568 453.251 101.651 453.72C100.733 454.189 99.4745 454.424 97.8745 454.424C96.2745 454.424 95.0158 454.189 94.0985 453.72C93.1918 453.251 92.7385 452.589 92.7385 451.736C92.7385 450.872 93.1918 450.211 94.0985 449.752C95.0158 449.283 96.2745 449.048 97.8745 449.048ZM97.8745 450.648C97.2132 450.648 96.6585 450.691 96.2105 450.776C95.7732 450.851 95.4425 450.968 95.2185 451.128C94.9945 451.288 94.8825 451.491 94.8825 451.736C94.8825 451.981 94.9945 452.189 95.2185 452.36C95.4425 452.52 95.7732 452.637 96.2105 452.712C96.6585 452.787 97.2132 452.824 97.8745 452.824C98.5358 452.824 99.0852 452.787 99.5225 452.712C99.9705 452.637 100.307 452.52 100.531 452.36C100.755 452.189 100.867 451.981 100.867 451.736C100.867 451.491 100.755 451.288 100.531 451.128C100.307 450.968 99.9705 450.851 99.5225 450.776C99.0852 450.691 98.5358 450.648 97.8745 450.648ZM97.9065 439.816C99.0052 439.816 99.9545 439.933 100.755 440.168C101.565 440.392 102.189 440.717 102.627 441.144C103.064 441.571 103.283 442.077 103.283 442.664C103.283 443.251 103.064 443.757 102.627 444.184C102.189 444.6 101.565 444.925 100.755 445.16C99.9545 445.384 99.0052 445.496 97.9065 445.496C96.8292 445.496 95.8852 445.384 95.0745 445.16C94.2638 444.925 93.6398 444.6 93.2025 444.184C92.7652 443.757 92.5465 443.251 92.5465 442.664C92.5465 442.077 92.7652 441.571 93.2025 441.144C93.6398 440.717 94.2638 440.392 95.0745 440.168C95.8852 439.933 96.8292 439.816 97.9065 439.816ZM97.9065 441.432C97.2452 441.432 96.6745 441.48 96.1945 441.576C95.7145 441.661 95.3518 441.795 95.1065 441.976C94.8718 442.157 94.7545 442.387 94.7545 442.664C94.7545 442.931 94.8718 443.155 95.1065 443.336C95.3518 443.517 95.7145 443.656 96.1945 443.752C96.6745 443.837 97.2452 443.88 97.9065 443.88C98.5892 443.88 99.1652 443.837 99.6345 443.752C100.104 443.656 100.461 443.517 100.707 443.336C100.952 443.155 101.075 442.931 101.075 442.664C101.075 442.387 100.952 442.157 100.707 441.976C100.461 441.795 100.104 441.661 99.6345 441.576C99.1652 441.48 98.5892 441.432 97.9065 441.432ZM116.241 439.576H118.369V454.44H116.241V439.576ZM113.617 445.272H116.721V447H113.617V445.272ZM109.361 443.448H111.009V444.216C111.009 444.995 110.924 445.763 110.753 446.52C110.593 447.277 110.343 447.992 110.001 448.664C109.671 449.336 109.249 449.933 108.737 450.456C108.236 450.979 107.649 451.389 106.977 451.688L105.841 450.04C106.439 449.773 106.956 449.427 107.393 449C107.841 448.563 108.209 448.083 108.497 447.56C108.785 447.027 108.999 446.477 109.137 445.912C109.287 445.336 109.361 444.771 109.361 444.216V443.448ZM109.809 443.448H111.473V444.216C111.473 444.739 111.543 445.277 111.681 445.832C111.831 446.376 112.049 446.904 112.337 447.416C112.625 447.917 112.988 448.376 113.425 448.792C113.873 449.208 114.396 449.549 114.993 449.816L113.889 451.432C113.207 451.144 112.609 450.749 112.097 450.248C111.596 449.747 111.175 449.171 110.833 448.52C110.492 447.869 110.236 447.181 110.065 446.456C109.895 445.72 109.809 444.973 109.809 444.216V443.448ZM106.337 442.008H114.417V443.688H106.337V442.008ZM109.345 439.944H111.473V442.888H109.345V439.944Z" fill="black"/>
<path d="M344.603 447.624V449.24L335.531 449.688L335.291 447.896L344.603 447.624ZM335.771 444.408H345.067V446.104H335.771V444.408ZM334.219 451.432H347.627V453.144H334.219V451.432ZM339.851 452.792H341.963V458.392H339.851V452.792ZM344.091 444.408H346.155V445.752C346.155 446.296 346.144 446.872 346.123 447.48C346.112 448.077 346.064 448.733 345.979 449.448C345.893 450.163 345.755 450.963 345.563 451.848L343.515 451.624C343.803 450.376 343.968 449.283 344.011 448.344C344.064 447.405 344.091 446.536 344.091 445.736V444.408ZM349.225 444.712H357.145V446.408H349.225V444.712ZM349.065 451.944L348.841 450.2C349.673 450.2 350.591 450.195 351.593 450.184C352.596 450.163 353.62 450.125 354.665 450.072C355.711 450.008 356.708 449.917 357.657 449.8L357.785 451.336C356.815 451.517 355.812 451.651 354.777 451.736C353.753 451.821 352.751 451.88 351.769 451.912C350.788 451.933 349.887 451.944 349.065 451.944ZM350.393 446.008H352.441V450.904H350.393V446.008ZM353.929 446.008H355.977V450.904H353.929V446.008ZM355.721 452.792C356.756 452.792 357.647 452.904 358.393 453.128C359.151 453.352 359.727 453.672 360.121 454.088C360.527 454.504 360.729 455.011 360.729 455.608C360.729 456.493 360.281 457.181 359.385 457.672C358.5 458.173 357.279 458.424 355.721 458.424C354.697 458.424 353.807 458.312 353.049 458.088C352.303 457.864 351.727 457.539 351.321 457.112C350.916 456.696 350.713 456.195 350.713 455.608C350.713 455.011 350.916 454.504 351.321 454.088C351.727 453.672 352.303 453.352 353.049 453.128C353.807 452.904 354.697 452.792 355.721 452.792ZM355.721 454.44C355.092 454.44 354.559 454.483 354.121 454.568C353.695 454.653 353.369 454.781 353.145 454.952C352.932 455.123 352.825 455.341 352.825 455.608C352.825 455.875 352.932 456.093 353.145 456.264C353.369 456.435 353.695 456.563 354.121 456.648C354.559 456.733 355.092 456.776 355.721 456.776C356.372 456.776 356.911 456.733 357.337 456.648C357.764 456.563 358.084 456.435 358.297 456.264C358.521 456.093 358.633 455.875 358.633 455.608C358.633 455.341 358.521 455.123 358.297 454.952C358.084 454.781 357.764 454.653 357.337 454.568C356.911 454.483 356.372 454.44 355.721 454.44ZM358.457 443.608H360.585V452.536H358.457V443.608ZM360.009 447.096H362.553V448.856H360.009V447.096Z" fill="black"/>
<path d="M76 695.5C76 682.521 86.5213 672 99.5 672H291.5C304.479 672 315 682.521 315 695.5V704.5C315 717.479 304.479 728 291.5 728H99.5C86.5213 728 76 717.479 76 704.5V695.5Z" fill="#D9D9D9"/>
<path d="M76 695.5C76 682.521 86.5213 672 99.5 672H291.5C304.479 672 315 682.521 315 695.5V704.5C315 717.479 304.479 728 291.5 728H99.5C86.5213 728 76 717.479 76 704.5V695.5Z" fill="#D9D9D9"/>
<path d="M76 765.5C76 752.521 86.5213 742 99.5 742H291.5C304.479 742 315 752.521 315 765.5V774.5C315 787.479 304.479 798 291.5 798H99.5C86.5213 798 76 787.479 76 774.5V765.5Z" fill="#D9D9D9"/>
<path d="M159.015 692.264H168.391V693.944H159.015V692.264ZM157.367 697.592H170.791V699.272H157.367V697.592ZM167.111 692.264H169.207V693.448C169.207 694.077 169.191 694.755 169.159 695.48C169.127 696.205 168.999 697.048 168.775 698.008L166.647 697.992C166.882 697.021 167.015 696.179 167.047 695.464C167.09 694.749 167.111 694.077 167.111 693.448V692.264ZM158.935 700.824H169.143V706.264H158.935V700.824ZM167.063 702.488H161.031V704.584H167.063V702.488ZM175.51 692.504C176.171 692.504 176.752 692.659 177.254 692.968C177.766 693.267 178.166 693.688 178.454 694.232C178.752 694.776 178.902 695.405 178.902 696.12C178.902 696.824 178.752 697.453 178.454 698.008C178.166 698.552 177.766 698.979 177.254 699.288C176.752 699.587 176.171 699.736 175.51 699.736C174.859 699.736 174.278 699.587 173.766 699.288C173.254 698.979 172.854 698.552 172.566 698.008C172.278 697.453 172.134 696.824 172.134 696.12C172.134 695.405 172.278 694.776 172.566 694.232C172.854 693.688 173.254 693.267 173.766 692.968C174.278 692.659 174.859 692.504 175.51 692.504ZM175.51 694.28C175.222 694.28 174.966 694.355 174.742 694.504C174.518 694.653 174.347 694.861 174.23 695.128C174.112 695.395 174.054 695.725 174.054 696.12C174.054 696.504 174.112 696.835 174.23 697.112C174.347 697.389 174.518 697.603 174.742 697.752C174.966 697.891 175.222 697.96 175.51 697.96C175.798 697.96 176.054 697.891 176.278 697.752C176.502 697.603 176.672 697.389 176.79 697.112C176.918 696.835 176.982 696.504 176.982 696.12C176.982 695.725 176.918 695.395 176.79 695.128C176.672 694.861 176.502 694.653 176.278 694.504C176.054 694.355 175.798 694.28 175.51 694.28ZM182.678 691.608H184.71V700.44H182.678V691.608ZM180.918 695.192H183.27V696.904H180.918V695.192ZM179.574 691.864H181.558V700.392H179.574V691.864ZM174.518 701.112H184.71V706.424H182.582V702.808H174.518V701.112ZM201.845 697.192H204.453V698.952H201.845V697.192ZM200.245 691.576H202.389V706.392H200.245V691.576ZM191.237 693H193.349V702.216H191.237V693ZM191.237 701.016H192.501C193.557 701.016 194.655 700.973 195.797 700.888C196.938 700.803 198.106 700.643 199.301 700.408L199.525 702.136C198.287 702.392 197.082 702.568 195.909 702.664C194.735 702.749 193.599 702.792 192.501 702.792H191.237V701.016ZM207.172 696.216H217.524V697.896H207.172V696.216ZM205.508 699.592H218.932V701.304H205.508V699.592ZM211.092 700.6H213.204V706.424H211.092V700.6ZM207.172 692.264H209.3V697H207.172V692.264ZM230.434 691.592H232.562V706.408H230.434V691.592ZM226.066 693.128H228.162C228.162 694.259 228.05 695.341 227.826 696.376C227.613 697.4 227.25 698.365 226.738 699.272C226.237 700.179 225.544 701.021 224.658 701.8C223.784 702.568 222.69 703.272 221.378 703.912L220.258 702.232C221.688 701.539 222.824 700.776 223.666 699.944C224.52 699.101 225.133 698.152 225.506 697.096C225.88 696.029 226.066 694.835 226.066 693.512V693.128ZM221.058 693.128H227.058V694.824H221.058V693.128Z" fill="white"/>
<path d="M167.423 773.128H168.623C169.497 773.128 170.281 773.117 170.975 773.096C171.679 773.075 172.345 773.037 172.975 772.984C173.604 772.92 174.239 772.829 174.878 772.712L175.087 774.44C174.415 774.557 173.753 774.648 173.103 774.712C172.463 774.776 171.78 774.819 171.055 774.84C170.34 774.861 169.529 774.872 168.623 774.872H167.423V773.128ZM167.423 764.904H174.127V766.6H169.551V773.8H167.423V764.904ZM177.023 763.592H179.151V778.456H177.023V763.592ZM173.407 768.712H177.935V770.44H173.407V768.712ZM191.597 763.592H193.741V778.408H191.597V763.592ZM185.069 767.448H186.765V768.216C186.765 768.995 186.675 769.768 186.493 770.536C186.323 771.293 186.061 772.008 185.709 772.68C185.368 773.352 184.936 773.949 184.413 774.472C183.901 774.984 183.309 775.389 182.637 775.688L181.501 774.04C182.109 773.773 182.632 773.427 183.069 773C183.517 772.563 183.891 772.083 184.189 771.56C184.488 771.037 184.707 770.488 184.845 769.912C184.995 769.336 185.069 768.771 185.069 768.216V767.448ZM185.549 767.448H187.197V768.216C187.197 768.739 187.272 769.277 187.421 769.832C187.571 770.387 187.795 770.92 188.093 771.432C188.392 771.933 188.765 772.392 189.213 772.808C189.672 773.213 190.205 773.549 190.813 773.816L189.693 775.432C189.011 775.155 188.408 774.765 187.885 774.264C187.373 773.763 186.941 773.187 186.589 772.536C186.237 771.885 185.976 771.192 185.805 770.456C185.635 769.72 185.549 768.973 185.549 768.216V767.448ZM181.997 766.008H190.221V767.688H181.997V766.008ZM185.069 763.944H187.213V766.888H185.069V763.944ZM206.988 763.608H209.004V778.424H206.988V763.608ZM202.636 769H204.62V770.856H202.636V769ZM204.044 763.88H206.028V777.72H204.044V763.88ZM196.252 765.272H203.004V766.968H196.252V765.272ZM196.236 775.064L196.012 773.32C196.471 773.32 196.999 773.32 197.596 773.32C198.193 773.309 198.817 773.293 199.468 773.272C200.119 773.24 200.764 773.203 201.404 773.16C202.055 773.107 202.663 773.043 203.228 772.968L203.356 774.504C202.599 774.675 201.783 774.803 200.908 774.888C200.033 774.963 199.185 775.011 198.364 775.032C197.553 775.053 196.844 775.064 196.236 775.064ZM197.164 766.344H199.084V773.784H197.164V766.344ZM200.156 766.344H202.06V773.784H200.156V766.344ZM221.035 763.576H223.163V778.44H221.035V763.576ZM215.179 764.616C215.936 764.616 216.608 764.835 217.195 765.272C217.781 765.699 218.24 766.312 218.571 767.112C218.912 767.901 219.083 768.835 219.083 769.912C219.083 771 218.912 771.944 218.571 772.744C218.24 773.533 217.781 774.147 217.195 774.584C216.608 775.011 215.936 775.224 215.179 775.224C214.432 775.224 213.765 775.011 213.179 774.584C212.592 774.147 212.128 773.533 211.787 772.744C211.456 771.944 211.291 771 211.291 769.912C211.291 768.835 211.456 767.901 211.787 767.112C212.128 766.312 212.592 765.699 213.179 765.272C213.765 764.835 214.432 764.616 215.179 764.616ZM215.179 766.552C214.816 766.552 214.496 766.68 214.219 766.936C213.941 767.192 213.723 767.571 213.563 768.072C213.413 768.563 213.339 769.176 213.339 769.912C213.339 770.637 213.413 771.256 213.563 771.768C213.723 772.269 213.941 772.648 214.219 772.904C214.496 773.16 214.816 773.288 215.179 773.288C215.552 773.288 215.877 773.16 216.155 772.904C216.432 772.648 216.645 772.269 216.795 771.768C216.955 771.256 217.035 770.637 217.035 769.912C217.035 769.176 216.955 768.563 216.795 768.072C216.645 767.571 216.432 767.192 216.155 766.936C215.877 766.68 215.552 766.552 215.179 766.552Z" fill="white"/>
<rect width="412" height="35" transform="translate(0 32)" fill="white"/>
<path opacity="0.9" d="M164.434 39.088H167.05V41.08C167.05 42.536 166.826 43.92 166.378 45.232C165.946 46.528 165.274 47.664 164.362 48.64C163.45 49.616 162.29 50.344 160.882 50.824L159.202 48.328C160.45 47.896 161.458 47.312 162.226 46.576C162.994 45.824 163.554 44.968 163.906 44.008C164.258 43.048 164.434 42.072 164.434 41.08V39.088ZM165.082 39.088H167.65V41.368C167.65 42.04 167.746 42.696 167.938 43.336C168.146 43.976 168.45 44.576 168.85 45.136C169.25 45.696 169.762 46.2 170.386 46.648C171.01 47.08 171.762 47.432 172.642 47.704L170.986 50.2C169.642 49.752 168.53 49.088 167.65 48.208C166.786 47.328 166.138 46.304 165.706 45.136C165.29 43.968 165.082 42.712 165.082 41.368V39.088ZM173.842 37.912H177.034V51.04H173.842V37.912ZM176.17 43.048H179.986V45.688H176.17V43.048ZM169.786 51.544C171.338 51.544 172.674 51.72 173.794 52.072C174.914 52.408 175.778 52.896 176.386 53.536C176.994 54.16 177.298 54.928 177.298 55.84C177.298 56.736 176.994 57.504 176.386 58.144C175.778 58.784 174.914 59.272 173.794 59.608C172.674 59.96 171.338 60.136 169.786 60.136C168.25 60.136 166.914 59.96 165.778 59.608C164.658 59.272 163.786 58.784 163.162 58.144C162.554 57.504 162.25 56.736 162.25 55.84C162.25 54.928 162.554 54.16 163.162 53.536C163.786 52.896 164.658 52.408 165.778 52.072C166.914 51.72 168.25 51.544 169.786 51.544ZM169.786 54.016C168.842 54.016 168.05 54.088 167.41 54.232C166.77 54.36 166.282 54.56 165.946 54.832C165.61 55.088 165.442 55.424 165.442 55.84C165.442 56.24 165.61 56.576 165.946 56.848C166.282 57.12 166.77 57.328 167.41 57.472C168.05 57.6 168.842 57.664 169.786 57.664C170.73 57.664 171.522 57.6 172.162 57.472C172.818 57.328 173.306 57.12 173.626 56.848C173.962 56.576 174.13 56.24 174.13 55.84C174.13 55.424 173.962 55.088 173.626 54.832C173.306 54.56 172.818 54.36 172.162 54.232C171.522 54.088 170.73 54.016 169.786 54.016ZM190.376 45.376H194.072V47.968H190.376V45.376ZM185.648 39.832H188.072V43.552C188.072 44.816 187.984 46.056 187.808 47.272C187.632 48.488 187.344 49.632 186.944 50.704C186.56 51.776 186.048 52.744 185.408 53.608C184.784 54.456 184.024 55.152 183.128 55.696L181.208 53.296C182.04 52.8 182.736 52.192 183.296 51.472C183.856 50.752 184.312 49.96 184.664 49.096C185.016 48.232 185.264 47.336 185.408 46.408C185.568 45.464 185.648 44.512 185.648 43.552V39.832ZM186.344 39.832H188.72V43.408C188.72 44.32 188.784 45.224 188.912 46.12C189.056 47.016 189.28 47.872 189.584 48.688C189.888 49.504 190.288 50.256 190.784 50.944C191.296 51.632 191.936 52.224 192.704 52.72L190.952 55.216C190.088 54.672 189.352 53.984 188.744 53.152C188.152 52.304 187.68 51.352 187.328 50.296C186.976 49.24 186.72 48.128 186.56 46.96C186.416 45.792 186.344 44.608 186.344 43.408V39.832ZM197.672 37.888H200.72V60.112H197.672V37.888ZM193.16 38.248H196.136V59.128H193.16V38.248ZM225.234 37.888H228.258V60.112H225.234V37.888ZM222.33 46.456H226.026V49.024H222.33V46.456ZM220.266 38.272H223.242V59.08H220.266V38.272ZM210.114 40.36H213.306V53.2H210.114V40.36ZM210.114 51.976H211.65C212.722 51.976 213.874 51.944 215.106 51.88C216.354 51.8 217.666 51.624 219.042 51.352L219.33 54.088C217.89 54.344 216.53 54.512 215.25 54.592C213.97 54.672 212.77 54.712 211.65 54.712H210.114V51.976ZM241.144 40.888H247.72V43.432H241.144V40.888ZM241.144 45.712H247.72V48.256H241.144V45.712ZM234.76 52.072H249.928V60.136H246.712V54.592H234.76V52.072ZM246.712 37.912H249.928V51.064H246.712V37.912ZM237.472 39.04C238.576 39.04 239.568 39.28 240.448 39.76C241.328 40.224 242.024 40.872 242.536 41.704C243.064 42.536 243.328 43.488 243.328 44.56C243.328 45.616 243.064 46.568 242.536 47.416C242.024 48.248 241.328 48.904 240.448 49.384C239.568 49.848 238.576 50.08 237.472 50.08C236.368 50.08 235.368 49.848 234.472 49.384C233.592 48.904 232.888 48.248 232.36 47.416C231.848 46.568 231.592 45.616 231.592 44.56C231.592 43.488 231.848 42.536 232.36 41.704C232.888 40.872 233.592 40.224 234.472 39.76C235.368 39.28 236.368 39.04 237.472 39.04ZM237.448 41.776C236.92 41.776 236.44 41.888 236.008 42.112C235.576 42.32 235.232 42.632 234.976 43.048C234.736 43.464 234.616 43.968 234.616 44.56C234.616 45.136 234.736 45.64 234.976 46.072C235.232 46.488 235.576 46.808 236.008 47.032C236.44 47.256 236.92 47.368 237.448 47.368C237.992 47.368 238.472 47.256 238.888 47.032C239.32 46.808 239.656 46.488 239.896 46.072C240.152 45.64 240.28 45.136 240.28 44.56C240.28 43.968 240.152 43.464 239.896 43.048C239.656 42.632 239.32 42.32 238.888 42.112C238.472 41.888 237.992 41.776 237.448 41.776Z" fill="#0C0C0C"/>
<path d="M32.6313 54.7375L26.9063 49L32.6313 43.2625L30.8688 41.5L23.3688 49L30.8688 56.5L32.6313 54.7375Z" fill="#0C0C0C"/>
</g>
<defs>
<clipPath id="clip0_302_1535">
<rect width="412" height="917" fill="white"/>
</clipPath>
</defs>
</svg>
