<svg width="360" height="800" viewBox="0 0 360 800" fill="none" xmlns="http://www.w3.org/2000/svg">
<g clip-path="url(#clip0_106_339)">
<rect width="360" height="800" fill="#F7F8FB"/>
<rect x="33" y="432" width="294" height="53" rx="26.5" fill="#143D60"/>
<path d="M177.588 456.391H179.494V457.828H177.588V461.828H175.854V452.281H177.588V456.391ZM166.276 460.141C167.588 460.141 168.776 460.128 169.838 460.102V459.234C169.046 459.135 168.421 458.906 167.963 458.547C167.505 458.182 167.276 457.724 167.276 457.172C167.276 456.745 167.416 456.372 167.698 456.055C167.979 455.737 168.377 455.495 168.893 455.328C169.408 455.156 170.005 455.073 170.682 455.078C171.364 455.073 171.961 455.156 172.471 455.328C172.987 455.495 173.385 455.737 173.666 456.055C173.948 456.372 174.088 456.745 174.088 457.172C174.088 457.719 173.864 458.172 173.416 458.531C172.968 458.891 172.354 459.122 171.573 459.227V460.031C172.88 459.974 174.062 459.875 175.119 459.734L175.26 460.938C173.921 461.172 172.541 461.326 171.119 461.398C169.703 461.466 168.151 461.5 166.463 461.5L166.276 460.141ZM177.588 466.391H175.854V463.797H168.057V462.438H177.588V466.391ZM174.744 454.672H166.635V453.391H169.838V452.156H171.573V453.391H174.744V454.672ZM170.682 456.25C170.13 456.24 169.7 456.315 169.393 456.477C169.091 456.638 168.942 456.87 168.948 457.172C168.937 457.464 169.088 457.695 169.401 457.867C169.713 458.034 170.14 458.115 170.682 458.109C171.224 458.115 171.651 458.034 171.963 457.867C172.276 457.695 172.432 457.464 172.432 457.172C172.432 456.87 172.278 456.638 171.971 456.477C171.664 456.315 171.234 456.24 170.682 456.25ZM192.474 462.484H190.724V452.281H192.474V462.484ZM192.865 466.109H183.131V461.453H184.881V464.703H192.865V466.109ZM184.771 453.203C185.48 453.203 186.123 453.357 186.701 453.664C187.279 453.966 187.735 454.385 188.068 454.922C188.401 455.458 188.568 456.062 188.568 456.734C188.568 457.417 188.401 458.029 188.068 458.57C187.735 459.107 187.279 459.526 186.701 459.828C186.123 460.13 185.48 460.281 184.771 460.281C184.058 460.281 183.409 460.13 182.826 459.828C182.248 459.526 181.792 459.107 181.459 458.57C181.125 458.029 180.959 457.417 180.959 456.734C180.959 456.062 181.125 455.458 181.459 454.922C181.792 454.385 182.248 453.966 182.826 453.664C183.409 453.357 184.058 453.203 184.771 453.203ZM184.771 454.719C184.37 454.719 184.008 454.802 183.685 454.969C183.362 455.135 183.11 455.372 182.928 455.68C182.745 455.987 182.657 456.339 182.662 456.734C182.657 457.141 182.745 457.497 182.928 457.805C183.11 458.112 183.362 458.349 183.685 458.516C184.008 458.682 184.37 458.766 184.771 458.766C185.162 458.766 185.516 458.682 185.834 458.516C186.151 458.349 186.401 458.112 186.584 457.805C186.771 457.497 186.865 457.141 186.865 456.734C186.865 456.339 186.771 455.987 186.584 455.68C186.401 455.372 186.151 455.135 185.834 454.969C185.516 454.802 185.162 454.719 184.771 454.719Z" fill="white"/>
<path d="M46.4629 96.6562C46.4629 99.1562 46.8535 101.363 47.6348 103.277C48.4258 105.191 49.7051 106.617 51.4727 107.555L49.2754 110.514C47.0977 109.332 45.5352 107.311 44.5879 104.449C44.0898 105.982 43.4307 107.335 42.6104 108.507C41.79 109.669 40.7988 110.602 39.6367 111.305L37.293 108.58C39.1777 107.447 40.5645 105.841 41.4531 103.761C42.3516 101.671 42.8105 99.3906 42.8301 96.9199V92.3203H46.4629V96.6562ZM60.9062 116.695H57.332V103.424H55.0176V115.465H51.502V90.416H55.0176V100.436H57.332V90.0352H60.9062V116.695ZM88.123 113.736H63.7188V110.66H74.002V106.646H66.5312V97.6816H81.6191V94.752H66.502V91.7637H85.3105V100.611H70.2812V103.6H85.9258V106.646H77.7227V110.66H88.123V113.736ZM114.021 106.002H103.914V110.631H100.135V106.002H89.6172V103.014H114.021V106.002ZM111.326 116.227H92.5176V108.258H96.2969V113.209H111.326V116.227ZM101.805 90.5332C103.719 90.543 105.398 90.7773 106.844 91.2363C108.299 91.6855 109.427 92.3252 110.228 93.1553C111.028 93.9854 111.434 94.957 111.443 96.0703C111.434 97.1934 111.028 98.1699 110.228 99C109.427 99.8301 108.299 100.47 106.844 100.919C105.398 101.358 103.719 101.578 101.805 101.578C99.8809 101.578 98.1865 101.358 96.7217 100.919C95.2666 100.47 94.1387 99.8301 93.3379 99C92.5371 98.1699 92.1367 97.1934 92.1367 96.0703C92.1367 94.957 92.5371 93.9854 93.3379 93.1553C94.1387 92.3252 95.2666 91.6855 96.7217 91.2363C98.1865 90.7773 99.8809 90.543 101.805 90.5332ZM101.805 93.4922C100.037 93.4922 98.6553 93.7168 97.6592 94.166C96.6631 94.6055 96.1699 95.2402 96.1797 96.0703C96.1699 96.8809 96.6631 97.5059 97.6592 97.9453C98.665 98.375 100.047 98.5898 101.805 98.5898C103.543 98.5898 104.915 98.375 105.921 97.9453C106.927 97.5059 107.43 96.8809 107.43 96.0703C107.43 95.2402 106.927 94.6055 105.921 94.166C104.925 93.7168 103.553 93.4922 101.805 93.4922ZM144.812 116.754H141.033V90.0352H144.812V116.754ZM127.557 98.6484H133.299V92.1445H136.99V110.514H123.807V92.1445H127.557V98.6484ZM133.299 107.496V101.549H127.557V107.496H133.299ZM162.801 102.604H149.764V91.3535H162.801V102.604ZM153.455 99.7324H159.08V94.3418H153.455V99.7324ZM170.711 103.512H166.99V90.0352H170.711V103.512ZM170.711 111.832H156.59V113.561H171.414V116.52H152.869V109.195H167.049V107.555H152.869V104.654H170.711V111.832ZM196.814 109.723H193.094V100.113H188.172V105.504H175.486V91.793H179.236V95.8945H184.48V91.793H188.172V97.125H193.094V90.0645H196.814V109.723ZM197.371 116.227H179.061V107.76H182.84V113.238H197.371V116.227ZM184.48 102.574V98.7363H179.236V102.574H184.48ZM223.504 96.3926H201.326V93.4043H210.555V90.2988H214.246V93.4043H223.504V96.3926ZM224.676 113.971H200.271V110.982H210.555V107.921C209.041 107.794 207.737 107.506 206.644 107.057C205.55 106.598 204.715 106.002 204.139 105.27C203.562 104.537 203.279 103.688 203.289 102.721C203.279 101.656 203.641 100.733 204.373 99.9521C205.115 99.1709 206.17 98.5752 207.537 98.165C208.914 97.7549 210.535 97.5547 212.4 97.5645C214.236 97.5547 215.838 97.7549 217.205 98.165C218.572 98.5752 219.627 99.1709 220.369 99.9521C221.111 100.733 221.482 101.656 221.482 102.721C221.482 103.688 221.189 104.537 220.604 105.27C220.027 106.002 219.197 106.593 218.113 107.042C217.029 107.491 215.74 107.784 214.246 107.921V110.982H224.676V113.971ZM212.4 100.465C210.652 100.465 209.334 100.655 208.445 101.036C207.557 101.407 207.117 101.969 207.127 102.721C207.117 103.502 207.552 104.078 208.431 104.449C209.319 104.82 210.643 105.006 212.4 105.006C215.896 105.006 217.645 104.244 217.645 102.721C217.645 101.969 217.195 101.407 216.297 101.036C215.408 100.655 214.109 100.465 212.4 100.465ZM250.574 104.771H226.17V101.988H250.574V104.771ZM247.645 112.389H232.703V113.912H248.436V116.461H228.982V110.016H243.953V108.668H228.953V106.09H247.645V112.389ZM247.615 96.7734H232.938V98.209H248.084V100.729H229.217V94.4004H243.865V93.0527H229.158V90.5039H247.615V96.7734ZM58.5742 140.004H55.0742V126.633H58.5742V140.004ZM45.3672 143.422H55.1016V141.098H58.5742V151.242H41.9219V141.098H45.3672V143.422ZM55.1016 148.426V146.129H45.3672V148.426H55.1016ZM44.9297 127.672C46.2148 127.663 47.3724 127.909 48.4023 128.41C49.4414 128.911 50.2572 129.613 50.8496 130.516C51.4421 131.409 51.7383 132.43 51.7383 133.578C51.7383 134.69 51.4421 135.688 50.8496 136.572C50.2572 137.456 49.4414 138.149 48.4023 138.65C47.3724 139.152 46.2148 139.402 44.9297 139.402C43.6445 139.402 42.4824 139.152 41.4434 138.65C40.4134 138.149 39.6022 137.456 39.0098 136.572C38.4173 135.688 38.1211 134.69 38.1211 133.578C38.1211 132.43 38.4173 131.409 39.0098 130.516C39.6022 129.613 40.4134 128.911 41.4434 128.41C42.4824 127.909 43.6445 127.663 44.9297 127.672ZM44.9297 130.57C44.2643 130.57 43.6719 130.693 43.1523 130.939C42.6419 131.176 42.2409 131.523 41.9492 131.979C41.6667 132.425 41.5299 132.958 41.5391 133.578C41.5299 134.189 41.6667 134.717 41.9492 135.164C42.2409 135.602 42.6419 135.939 43.1523 136.176C43.6719 136.413 44.2643 136.531 44.9297 136.531C45.5768 136.531 46.1556 136.413 46.666 136.176C47.1764 135.939 47.5729 135.602 47.8555 135.164C48.1471 134.717 48.293 134.189 48.293 133.578C48.293 132.958 48.1471 132.425 47.8555 131.979C47.5729 131.523 47.1764 131.176 46.666 130.939C46.1556 130.693 45.5768 130.57 44.9297 130.57ZM73.8867 135.848H66.3672V138.5C68.2812 138.5 69.8535 138.459 71.084 138.377C72.3236 138.286 73.5586 138.126 74.7891 137.898L75.1172 140.688C73.7409 140.934 72.319 141.098 70.8516 141.18C69.3932 141.253 67.3698 141.289 64.7812 141.289H62.9219V133.25H70.3867V130.816H62.8672V128.082H73.8867V135.848ZM82.9102 141.973H79.4375V138.145H75.3086V135.383H79.4375V132.867H75.3086V130.105H79.4375V126.66H82.9102V141.973ZM82.9102 151.516H79.4375V145.883H65.7656V143.094H82.9102V151.516ZM98.1406 133.195H86.1094V130.434H90.4297V127.316H93.875V130.434H98.1406V133.195ZM92.1797 134.316C93.2279 134.316 94.1621 134.572 94.9824 135.082C95.8118 135.583 96.459 136.281 96.9238 137.174C97.3978 138.067 97.6393 139.083 97.6484 140.223C97.6393 141.362 97.3978 142.383 96.9238 143.285C96.459 144.188 95.8118 144.894 94.9824 145.404C94.1621 145.906 93.2279 146.156 92.1797 146.156C91.1315 146.156 90.1882 145.906 89.3496 145.404C88.5202 144.894 87.8685 144.188 87.3945 143.285C86.9206 142.383 86.6836 141.362 86.6836 140.223C86.6836 139.092 86.9206 138.081 87.3945 137.188C87.8685 136.285 88.5202 135.583 89.3496 135.082C90.1882 134.572 91.1315 134.316 92.1797 134.316ZM92.1797 137.215C91.4414 137.215 90.849 137.484 90.4023 138.021C89.9648 138.559 89.7461 139.293 89.7461 140.223C89.7461 141.152 89.9648 141.882 90.4023 142.41C90.849 142.939 91.4414 143.203 92.1797 143.203C92.8906 143.203 93.4648 142.939 93.9023 142.41C94.349 141.882 94.5768 141.152 94.5859 140.223C94.5768 139.293 94.349 138.559 93.9023 138.021C93.4648 137.484 92.8906 137.215 92.1797 137.215ZM107.656 151.516H104.348V139.539H102.324V150.449H99.0703V127.125H102.324V136.75H104.348V126.633H107.656V151.516ZM133.031 143.148H123.352V151.516H119.906V143.148H110.336V140.359H133.031V143.148ZM131.008 130.68H123.748C123.867 131.518 124.258 132.32 124.924 133.086C125.589 133.842 126.519 134.499 127.713 135.055C128.907 135.602 130.324 135.975 131.965 136.176L130.707 138.91C128.556 138.618 126.706 138.035 125.156 137.16C123.616 136.285 122.463 135.196 121.697 133.893C120.923 135.196 119.77 136.285 118.238 137.16C116.707 138.035 114.875 138.618 112.742 138.91L111.457 136.176C113.07 135.975 114.469 135.602 115.654 135.055C116.848 134.499 117.778 133.842 118.443 133.086C119.118 132.32 119.519 131.518 119.646 130.68H112.387V127.945H131.008V130.68ZM142.52 132.895C142.52 135.118 142.875 137.146 143.586 138.979C144.297 140.811 145.445 142.237 147.031 143.258L145.145 145.965C143.139 144.753 141.704 142.761 140.838 139.99C140.373 141.449 139.758 142.738 138.992 143.859C138.227 144.971 137.297 145.855 136.203 146.512L134.07 143.941C135.811 142.857 137.087 141.348 137.898 139.416C138.719 137.475 139.129 135.355 139.129 133.059V128.766H142.52V132.895ZM156.109 151.516H152.773V126.633H156.109V151.516ZM150.887 150.367H147.633V137.871H144.406V135.027H147.633V126.988H150.887V150.367ZM181.512 148.617H158.734V145.746H163.82V139.662C162.836 139.07 162.075 138.34 161.537 137.475C160.999 136.6 160.73 135.62 160.73 134.535C160.73 133.214 161.132 132.047 161.934 131.035C162.736 130.023 163.843 129.24 165.256 128.684C166.678 128.118 168.286 127.836 170.082 127.836C171.868 127.836 173.468 128.118 174.881 128.684C176.303 129.24 177.419 130.023 178.23 131.035C179.042 132.047 179.452 133.214 179.461 134.535C179.452 135.592 179.183 136.554 178.654 137.42C178.135 138.277 177.401 139.001 176.453 139.594V145.746H181.512V148.617ZM170.082 130.598C168.897 130.598 167.858 130.753 166.965 131.062C166.081 131.372 165.393 131.824 164.9 132.416C164.417 132.999 164.176 133.706 164.176 134.535C164.176 135.337 164.417 136.035 164.9 136.627C165.393 137.219 166.085 137.675 166.979 137.994C167.872 138.313 168.906 138.473 170.082 138.473C171.249 138.473 172.279 138.313 173.172 137.994C174.065 137.675 174.758 137.219 175.25 136.627C175.751 136.035 176.007 135.337 176.016 134.535C176.007 133.715 175.756 133.008 175.264 132.416C174.771 131.824 174.079 131.372 173.186 131.062C172.292 130.753 171.258 130.598 170.082 130.598ZM172.926 145.746V140.92C171.987 141.093 171.039 141.18 170.082 141.18C169.061 141.18 168.122 141.093 167.266 140.92V145.746H172.926Z" fill="black"/>
<path d="M50.382 31.5484C49.5609 30.8172 48.237 30.8172 47.4159 31.5484L33.4902 43.948C32.8366 44.53 32.8366 45.47 33.4902 46.052L47.4159 58.4516C48.237 59.1828 49.5609 59.1828 50.382 58.4516C51.2032 57.7205 51.2032 56.5417 50.382 55.8106L38.2494 44.9925L50.3988 34.1745C51.2032 33.4583 51.2032 32.2646 50.382 31.5484Z" fill="#1E1E1E"/>
<rect width="360" height="296" transform="translate(-1 504)" fill="#FEF7FF"/>
<rect x="125" y="786" width="108" height="4" rx="2" fill="#1D1B20"/>
<path fill-rule="evenodd" clip-rule="evenodd" d="M327.857 769H325.571V771.222H327.857V769ZM321 769H323.286V771.222H321V769ZM333.571 777.889H324.429V779H333.571V777.889ZM330.143 769H332.429V771.222H330.143V769ZM327.857 773.444H325.571V775.667H327.857V773.444ZM321 773.444H323.286V775.667H321V773.444ZM332.429 773.444H330.143V775.667H332.429V773.444ZM334.714 769H337V771.222H334.714V769ZM337 773.444H334.714V775.667H337V773.444Z" fill="#1D1B20"/>
<path d="M28.9999 777.675L23.4082 772.092L24.5915 770.908L28.9999 775.325L33.4082 770.908L34.5915 772.092L28.9999 777.675Z" fill="#1D1B20"/>
<rect x="7" y="556" width="29.7059" height="46" rx="6" fill="white"/>
<path d="M24.3139 588.266V575.038L24.4779 572.905H26.2211V588.266H24.3139ZM16.8593 578.576V578.36C16.8593 577.513 16.9584 576.744 17.1566 576.053C17.3549 575.356 17.6454 574.758 18.0282 574.259C18.411 573.76 18.8725 573.377 19.4125 573.11C19.9594 572.837 20.5815 572.7 21.2787 572.7C21.976 572.7 22.5878 572.823 23.1142 573.069C23.6474 573.309 24.0985 573.661 24.4677 574.125C24.8437 574.583 25.141 575.137 25.3598 575.787C25.5785 576.436 25.7289 577.171 25.8109 577.991V578.935C25.7357 579.748 25.5888 580.479 25.37 581.129C25.1513 581.778 24.8539 582.332 24.4779 582.79C24.1088 583.248 23.6542 583.6 23.1142 583.846C22.581 584.085 21.9623 584.205 21.2582 584.205C20.5746 584.205 19.9594 584.065 19.4125 583.785C18.8725 583.504 18.411 583.111 18.0282 582.605C17.6523 582.1 17.3617 581.505 17.1566 580.821C16.9584 580.131 16.8593 579.382 16.8593 578.576ZM18.7665 578.36V578.576C18.7665 579.129 18.8246 579.652 18.9408 580.145C19.057 580.63 19.2348 581.061 19.474 581.437C19.7201 581.812 20.0277 582.11 20.3969 582.329C20.7729 582.541 21.2172 582.646 21.7299 582.646C22.3588 582.646 22.8817 582.51 23.2987 582.236C23.7226 581.963 24.0609 581.604 24.3139 581.16C24.5668 580.708 24.7616 580.227 24.8983 579.714V577.243C24.8232 576.867 24.7035 576.501 24.5395 576.146C24.3822 575.79 24.1772 575.472 23.9242 575.192C23.6713 574.905 23.3637 574.679 23.0014 574.515C22.6459 574.344 22.2289 574.259 21.7504 574.259C21.2309 574.259 20.7831 574.368 20.4071 574.587C20.0312 574.806 19.7201 575.106 19.474 575.489C19.2348 575.865 19.057 576.299 18.9408 576.792C18.8246 577.284 18.7665 577.807 18.7665 578.36Z" fill="#1D1B20"/>
<rect x="41.9216" y="556" width="29.7059" height="46" rx="6" fill="white"/>
<path d="M53.1344 584.031L55.985 574.905H57.236L56.9899 576.72L54.088 586H52.8678L53.1344 584.031ZM51.2169 574.905L53.6471 584.134L53.8214 586H52.5397L49.3199 574.905H51.2169ZM59.9635 584.062L62.2809 574.905H64.1676L60.9479 586H59.6764L59.9635 584.062ZM57.5128 574.905L60.3019 583.877L60.6198 586H59.4098L56.4259 576.7L56.1798 574.905H57.5128Z" fill="#1D1B20"/>
<rect x="76.8432" y="556" width="29.7059" height="46" rx="6" fill="white"/>
<path d="M92.1781 586.205C91.4056 586.205 90.7049 586.075 90.076 585.815C89.4539 585.549 88.9173 585.176 88.4662 584.698C88.0218 584.219 87.68 583.652 87.4408 582.996C87.2015 582.339 87.0819 581.622 87.0819 580.842V580.412C87.0819 579.509 87.2152 578.706 87.4818 578.002C87.7484 577.291 88.1107 576.689 88.5687 576.197C89.0267 575.705 89.5462 575.333 90.1273 575.08C90.7083 574.827 91.3099 574.7 91.932 574.7C92.7249 574.7 93.4085 574.837 93.9828 575.11C94.5638 575.384 95.0389 575.767 95.4081 576.259C95.7772 576.744 96.0506 577.318 96.2284 577.981C96.4061 578.638 96.495 579.355 96.495 580.135V580.986H88.2098V579.438H94.598V579.294C94.5706 578.802 94.4681 578.323 94.2904 577.858C94.1195 577.394 93.846 577.011 93.4701 576.71C93.0941 576.409 92.5814 576.259 91.932 576.259C91.5013 576.259 91.1048 576.351 90.7425 576.536C90.3802 576.713 90.0692 576.98 89.8094 577.335C89.5497 577.691 89.348 578.125 89.2044 578.638C89.0609 579.15 88.9891 579.742 88.9891 580.412V580.842C88.9891 581.369 89.0609 581.864 89.2044 582.329C89.3548 582.787 89.5702 583.19 89.8504 583.539C90.1375 583.888 90.4828 584.161 90.8861 584.359C91.2962 584.558 91.7611 584.657 92.2806 584.657C92.9505 584.657 93.5179 584.52 93.9828 584.247C94.4476 583.973 94.8543 583.607 95.203 583.149L96.3514 584.062C96.1122 584.424 95.808 584.77 95.4388 585.098C95.0697 585.426 94.6151 585.692 94.075 585.897C93.5418 586.103 92.9095 586.205 92.1781 586.205Z" fill="#1D1B20"/>
<rect x="111.765" y="556" width="29.7059" height="46" rx="6" fill="white"/>
<path d="M126.402 576.648V586H124.505V574.905H126.351L126.402 576.648ZM129.868 574.844L129.858 576.607C129.701 576.573 129.55 576.553 129.407 576.546C129.27 576.532 129.113 576.525 128.935 576.525C128.498 576.525 128.111 576.594 127.776 576.73C127.441 576.867 127.158 577.059 126.925 577.305C126.693 577.551 126.508 577.845 126.372 578.187C126.242 578.521 126.156 578.891 126.115 579.294L125.582 579.602C125.582 578.932 125.647 578.303 125.777 577.715C125.914 577.127 126.122 576.607 126.402 576.156C126.683 575.698 127.038 575.343 127.469 575.09C127.906 574.83 128.426 574.7 129.027 574.7C129.164 574.7 129.321 574.717 129.499 574.751C129.677 574.779 129.8 574.81 129.868 574.844Z" fill="#1D1B20"/>
<rect x="146.686" y="556" width="29.7059" height="46" rx="6" fill="white"/>
<path d="M164.195 574.905V576.361H158.197V574.905H164.195ZM160.227 572.208H162.124V583.252C162.124 583.628 162.182 583.912 162.298 584.103C162.414 584.294 162.565 584.421 162.749 584.482C162.934 584.544 163.132 584.575 163.344 584.575C163.501 584.575 163.665 584.561 163.836 584.534C164.014 584.5 164.147 584.472 164.236 584.452L164.246 586C164.096 586.048 163.898 586.092 163.652 586.133C163.412 586.181 163.122 586.205 162.78 586.205C162.315 586.205 161.888 586.113 161.498 585.928C161.109 585.744 160.798 585.436 160.565 585.005C160.34 584.568 160.227 583.98 160.227 583.242V572.208Z" fill="#1D1B20"/>
<rect x="181.608" y="556" width="29.7059" height="46" rx="6" fill="white"/>
<path d="M196.051 584.852L199.137 574.905H201.167L196.717 587.712C196.615 587.986 196.478 588.28 196.307 588.594C196.143 588.916 195.931 589.22 195.671 589.507C195.412 589.794 195.097 590.026 194.728 590.204C194.366 590.389 193.932 590.481 193.426 590.481C193.275 590.481 193.084 590.46 192.852 590.419C192.619 590.378 192.455 590.344 192.359 590.317L192.349 588.779C192.404 588.786 192.489 588.792 192.605 588.799C192.728 588.813 192.814 588.82 192.862 588.82C193.292 588.82 193.658 588.762 193.959 588.646C194.26 588.536 194.513 588.348 194.718 588.082C194.93 587.822 195.111 587.463 195.261 587.005L196.051 584.852ZM193.785 574.905L196.666 583.519L197.158 585.518L195.794 586.215L191.713 574.905H193.785Z" fill="#1D1B20"/>
<rect x="216.53" y="556" width="29.7059" height="46" rx="6" fill="white"/>
<path d="M233.823 583.437V574.905H235.73V586H233.915L233.823 583.437ZM234.182 581.099L234.971 581.078C234.971 581.816 234.893 582.5 234.736 583.129C234.585 583.751 234.339 584.291 233.997 584.749C233.655 585.207 233.208 585.566 232.654 585.826C232.1 586.079 231.427 586.205 230.634 586.205C230.094 586.205 229.598 586.126 229.147 585.969C228.703 585.812 228.32 585.569 227.999 585.241C227.677 584.913 227.428 584.486 227.25 583.959C227.079 583.433 226.994 582.801 226.994 582.062V574.905H228.891V582.083C228.891 582.582 228.945 582.996 229.055 583.324C229.171 583.645 229.325 583.901 229.516 584.093C229.715 584.277 229.933 584.407 230.173 584.482C230.419 584.558 230.672 584.595 230.931 584.595C231.738 584.595 232.377 584.441 232.849 584.134C233.32 583.819 233.659 583.399 233.864 582.873C234.076 582.339 234.182 581.748 234.182 581.099Z" fill="#1D1B20"/>
<rect x="251.451" y="556" width="29.7059" height="46" rx="6" fill="white"/>
<path d="M267.258 574.905V586H265.35V574.905H267.258ZM265.207 571.962C265.207 571.655 265.299 571.395 265.484 571.183C265.675 570.971 265.955 570.865 266.325 570.865C266.687 570.865 266.964 570.971 267.155 571.183C267.353 571.395 267.453 571.655 267.453 571.962C267.453 572.256 267.353 572.509 267.155 572.721C266.964 572.926 266.687 573.029 266.325 573.029C265.955 573.029 265.675 572.926 265.484 572.721C265.299 572.509 265.207 572.256 265.207 571.962Z" fill="#1D1B20"/>
<rect x="286.373" y="556" width="29.7059" height="46" rx="6" fill="white"/>
<path d="M296.181 580.576V580.34C296.181 579.54 296.297 578.798 296.529 578.115C296.762 577.424 297.097 576.826 297.534 576.32C297.972 575.808 298.502 575.411 299.124 575.131C299.746 574.844 300.443 574.7 301.215 574.7C301.995 574.7 302.695 574.844 303.317 575.131C303.946 575.411 304.48 575.808 304.917 576.32C305.361 576.826 305.7 577.424 305.932 578.115C306.165 578.798 306.281 579.54 306.281 580.34V580.576C306.281 581.375 306.165 582.117 305.932 582.801C305.7 583.484 305.361 584.083 304.917 584.595C304.48 585.101 303.95 585.498 303.328 585.785C302.712 586.065 302.015 586.205 301.236 586.205C300.457 586.205 299.756 586.065 299.134 585.785C298.512 585.498 297.979 585.101 297.534 584.595C297.097 584.083 296.762 583.484 296.529 582.801C296.297 582.117 296.181 581.375 296.181 580.576ZM298.078 580.34V580.576C298.078 581.129 298.143 581.652 298.273 582.145C298.402 582.63 298.597 583.061 298.857 583.437C299.124 583.812 299.455 584.11 299.852 584.329C300.248 584.541 300.71 584.646 301.236 584.646C301.755 584.646 302.21 584.541 302.6 584.329C302.996 584.11 303.324 583.812 303.584 583.437C303.844 583.061 304.039 582.63 304.169 582.145C304.305 581.652 304.374 581.129 304.374 580.576V580.34C304.374 579.793 304.305 579.277 304.169 578.792C304.039 578.299 303.84 577.865 303.574 577.489C303.314 577.106 302.986 576.806 302.589 576.587C302.2 576.368 301.742 576.259 301.215 576.259C300.696 576.259 300.238 576.368 299.841 576.587C299.452 576.806 299.124 577.106 298.857 577.489C298.597 577.865 298.402 578.299 298.273 578.792C298.143 579.277 298.078 579.793 298.078 580.34Z" fill="#1D1B20"/>
<rect x="321.294" y="556" width="29.7059" height="46" rx="6" fill="white"/>
<path d="M333.594 577.038V590.266H331.687V574.905H333.43L333.594 577.038ZM341.069 580.36V580.576C341.069 581.382 340.973 582.131 340.782 582.821C340.591 583.505 340.31 584.1 339.941 584.605C339.579 585.111 339.131 585.504 338.598 585.785C338.065 586.065 337.453 586.205 336.762 586.205C336.058 586.205 335.436 586.089 334.896 585.856C334.356 585.624 333.898 585.286 333.522 584.841C333.146 584.397 332.845 583.864 332.62 583.242C332.401 582.62 332.251 581.919 332.169 581.14V579.991C332.251 579.171 332.405 578.436 332.63 577.787C332.856 577.137 333.153 576.583 333.522 576.125C333.898 575.661 334.353 575.309 334.886 575.069C335.419 574.823 336.034 574.7 336.732 574.7C337.429 574.7 338.048 574.837 338.588 575.11C339.128 575.377 339.582 575.76 339.951 576.259C340.321 576.758 340.597 577.356 340.782 578.053C340.973 578.744 341.069 579.513 341.069 580.36ZM339.162 580.576V580.36C339.162 579.807 339.104 579.287 338.988 578.802C338.871 578.31 338.69 577.879 338.444 577.51C338.205 577.134 337.897 576.84 337.521 576.628C337.145 576.409 336.698 576.3 336.178 576.3C335.699 576.3 335.282 576.382 334.927 576.546C334.578 576.71 334.281 576.932 334.035 577.212C333.789 577.486 333.587 577.8 333.43 578.156C333.28 578.504 333.167 578.867 333.092 579.243V581.898C333.228 582.377 333.42 582.828 333.666 583.252C333.912 583.669 334.24 584.007 334.65 584.267C335.06 584.52 335.576 584.646 336.198 584.646C336.711 584.646 337.152 584.541 337.521 584.329C337.897 584.11 338.205 583.812 338.444 583.437C338.69 583.061 338.871 582.63 338.988 582.145C339.104 581.652 339.162 581.129 339.162 580.576Z" fill="#1D1B20"/>
<rect x="25.2424" y="614" width="29.5354" height="46" rx="6" fill="white"/>
<path d="M42.2865 642.103V636.392C42.2865 635.954 42.1976 635.575 42.0199 635.253C41.849 634.925 41.5892 634.672 41.2406 634.495C40.892 634.317 40.4613 634.228 39.9486 634.228C39.4701 634.228 39.0497 634.31 38.6874 634.474C38.3319 634.638 38.0516 634.854 37.8466 635.12C37.6483 635.387 37.5492 635.674 37.5492 635.981H35.6522C35.6522 635.585 35.7548 635.192 35.9598 634.802C36.1649 634.413 36.4589 634.061 36.8417 633.746C37.2313 633.425 37.6962 633.172 38.2362 632.987C38.7831 632.796 39.3915 632.7 40.0614 632.7C40.868 632.7 41.579 632.837 42.1942 633.11C42.8163 633.384 43.3016 633.797 43.6503 634.351C44.0057 634.898 44.1835 635.585 44.1835 636.412V641.58C44.1835 641.949 44.2142 642.342 44.2758 642.759C44.3441 643.176 44.4432 643.535 44.5731 643.836V644H42.5941C42.4984 643.781 42.4232 643.491 42.3685 643.128C42.3138 642.759 42.2865 642.417 42.2865 642.103ZM42.6146 637.273L42.6351 638.606H40.7177C40.1776 638.606 39.6957 638.651 39.2719 638.74C38.848 638.822 38.4926 638.948 38.2054 639.119C37.9183 639.29 37.6996 639.505 37.5492 639.765C37.3988 640.018 37.3236 640.315 37.3236 640.657C37.3236 641.006 37.4022 641.324 37.5594 641.611C37.7167 641.898 37.9525 642.127 38.267 642.298C38.5883 642.462 38.9813 642.544 39.4462 642.544C40.0272 642.544 40.5399 642.421 40.9843 642.175C41.4286 641.929 41.7806 641.628 42.0404 641.272C42.307 640.917 42.4506 640.572 42.4711 640.237L43.2811 641.149C43.2333 641.437 43.1034 641.754 42.8915 642.103C42.6796 642.452 42.3959 642.787 42.0404 643.108C41.6918 643.422 41.2748 643.686 40.7894 643.897C40.3109 644.103 39.7709 644.205 39.1693 644.205C38.4174 644.205 37.7577 644.058 37.1903 643.764C36.6298 643.47 36.1923 643.077 35.8778 642.585C35.5702 642.086 35.4164 641.529 35.4164 640.914C35.4164 640.319 35.5326 639.796 35.765 639.345C35.9974 638.887 36.3324 638.507 36.7699 638.207C37.2074 637.899 37.7338 637.667 38.349 637.509C38.9642 637.352 39.6512 637.273 40.41 637.273H42.6146Z" fill="#1D1B20"/>
<rect x="59.9899" y="614" width="29.5354" height="46" rx="6" fill="white"/>
<path d="M77.2391 641.057C77.2391 640.784 77.1776 640.531 77.0545 640.298C76.9383 640.059 76.6956 639.844 76.3265 639.652C75.9642 639.454 75.4173 639.283 74.6859 639.14C74.0706 639.01 73.5135 638.856 73.0145 638.678C72.5223 638.5 72.1019 638.285 71.7532 638.032C71.4114 637.779 71.1483 637.482 70.9637 637.14C70.7791 636.798 70.6868 636.398 70.6868 635.94C70.6868 635.503 70.7825 635.089 70.9739 634.7C71.1722 634.31 71.449 633.965 71.8045 633.664C72.1668 633.363 72.6009 633.127 73.1068 632.957C73.6126 632.786 74.1766 632.7 74.7986 632.7C75.6873 632.7 76.4461 632.857 77.075 633.172C77.7039 633.486 78.1859 633.907 78.5208 634.433C78.8558 634.953 79.0233 635.53 79.0233 636.166H77.1263C77.1263 635.858 77.034 635.561 76.8494 635.274C76.6717 634.98 76.4085 634.737 76.0599 634.546C75.7181 634.354 75.2977 634.259 74.7986 634.259C74.2723 634.259 73.845 634.341 73.5169 634.505C73.1956 634.662 72.9598 634.864 72.8094 635.11C72.6658 635.356 72.5941 635.616 72.5941 635.889C72.5941 636.094 72.6282 636.279 72.6966 636.443C72.7718 636.6 72.9017 636.747 73.0862 636.884C73.2708 637.014 73.5306 637.137 73.8655 637.253C74.2005 637.369 74.6277 637.485 75.1473 637.602C76.0565 637.807 76.805 638.053 77.3929 638.34C77.9808 638.627 78.4183 638.979 78.7054 639.396C78.9925 639.813 79.136 640.319 79.136 640.914C79.136 641.399 79.0335 641.843 78.8284 642.247C78.6302 642.65 78.3397 642.999 77.9568 643.292C77.5809 643.58 77.1297 643.805 76.6033 643.969C76.0838 644.126 75.4993 644.205 74.8499 644.205C73.8724 644.205 73.0452 644.031 72.3685 643.682C71.6917 643.333 71.179 642.882 70.8304 642.329C70.4818 641.775 70.3074 641.19 70.3074 640.575H72.2147C72.242 641.095 72.3924 641.508 72.6658 641.816C72.9393 642.117 73.2742 642.332 73.6707 642.462C74.0672 642.585 74.4603 642.646 74.8499 642.646C75.3694 642.646 75.8035 642.578 76.1522 642.441C76.5076 642.305 76.7776 642.117 76.9622 641.877C77.1468 641.638 77.2391 641.365 77.2391 641.057Z" fill="#1D1B20"/>
<rect x="94.7374" y="614" width="29.5354" height="46" rx="6" fill="white"/>
<path d="M112.017 641.847V628.25H113.925V644H112.181L112.017 641.847ZM104.552 638.576V638.36C104.552 637.513 104.655 636.744 104.86 636.053C105.072 635.356 105.369 634.758 105.752 634.259C106.142 633.76 106.603 633.377 107.136 633.11C107.677 632.837 108.278 632.7 108.941 632.7C109.638 632.7 110.247 632.823 110.766 633.069C111.293 633.309 111.737 633.661 112.099 634.125C112.469 634.583 112.759 635.137 112.971 635.787C113.183 636.436 113.33 637.171 113.412 637.991V638.935C113.337 639.748 113.19 640.479 112.971 641.129C112.759 641.778 112.469 642.332 112.099 642.79C111.737 643.248 111.293 643.6 110.766 643.846C110.24 644.085 109.625 644.205 108.921 644.205C108.271 644.205 107.677 644.065 107.136 643.785C106.603 643.504 106.142 643.111 105.752 642.605C105.369 642.1 105.072 641.505 104.86 640.821C104.655 640.131 104.552 639.382 104.552 638.576ZM106.46 638.36V638.576C106.46 639.129 106.514 639.649 106.624 640.134C106.74 640.62 106.918 641.047 107.157 641.416C107.396 641.785 107.7 642.076 108.07 642.288C108.439 642.493 108.88 642.595 109.392 642.595C110.021 642.595 110.537 642.462 110.941 642.195C111.351 641.929 111.679 641.577 111.925 641.139C112.171 640.702 112.363 640.227 112.499 639.714V637.243C112.417 636.867 112.298 636.504 112.14 636.156C111.99 635.8 111.792 635.486 111.546 635.212C111.306 634.932 111.009 634.71 110.654 634.546C110.305 634.382 109.891 634.3 109.413 634.3C108.893 634.3 108.446 634.409 108.07 634.628C107.7 634.84 107.396 635.134 107.157 635.51C106.918 635.879 106.74 636.31 106.624 636.802C106.514 637.287 106.46 637.807 106.46 638.36Z" fill="#1D1B20"/>
<rect x="129.485" y="614" width="29.5354" height="46" rx="6" fill="white"/>
<path d="M144.878 644H142.981V631.736C142.981 630.937 143.125 630.263 143.412 629.716C143.706 629.163 144.126 628.746 144.673 628.465C145.22 628.178 145.869 628.035 146.621 628.035C146.84 628.035 147.059 628.048 147.278 628.076C147.503 628.103 147.722 628.144 147.934 628.199L147.831 629.747C147.688 629.713 147.524 629.689 147.339 629.675C147.161 629.662 146.984 629.655 146.806 629.655C146.403 629.655 146.054 629.737 145.76 629.901C145.473 630.058 145.254 630.291 145.104 630.598C144.953 630.906 144.878 631.285 144.878 631.736V644ZM147.237 632.905V634.361H141.228V632.905H147.237Z" fill="#1D1B20"/>
<rect x="164.232" y="614" width="29.5354" height="46" rx="6" fill="white"/>
<path d="M181.738 632.905H183.461V643.764C183.461 644.742 183.262 645.576 182.866 646.266C182.469 646.957 181.916 647.479 181.205 647.835C180.501 648.197 179.687 648.378 178.764 648.378C178.381 648.378 177.93 648.317 177.411 648.194C176.898 648.078 176.392 647.876 175.893 647.589C175.401 647.309 174.987 646.929 174.652 646.451L175.647 645.323C176.112 645.883 176.597 646.273 177.103 646.492C177.616 646.71 178.122 646.82 178.621 646.82C179.222 646.82 179.742 646.707 180.179 646.481C180.617 646.256 180.955 645.921 181.194 645.477C181.441 645.039 181.564 644.499 181.564 643.856V635.346L181.738 632.905ZM174.099 638.576V638.36C174.099 637.513 174.198 636.744 174.396 636.053C174.601 635.356 174.892 634.758 175.268 634.259C175.651 633.76 176.112 633.377 176.652 633.11C177.192 632.837 177.8 632.7 178.477 632.7C179.174 632.7 179.783 632.823 180.302 633.069C180.829 633.309 181.273 633.661 181.635 634.125C182.005 634.583 182.295 635.137 182.507 635.787C182.719 636.436 182.866 637.171 182.948 637.991V638.935C182.873 639.748 182.726 640.479 182.507 641.129C182.295 641.778 182.005 642.332 181.635 642.79C181.273 643.248 180.829 643.6 180.302 643.846C179.776 644.085 179.161 644.205 178.457 644.205C177.794 644.205 177.192 644.065 176.652 643.785C176.119 643.504 175.661 643.111 175.278 642.605C174.895 642.1 174.601 641.505 174.396 640.821C174.198 640.131 174.099 639.382 174.099 638.576ZM175.996 638.36V638.576C175.996 639.129 176.05 639.649 176.16 640.134C176.276 640.62 176.45 641.047 176.683 641.416C176.922 641.785 177.226 642.076 177.595 642.288C177.964 642.493 178.405 642.595 178.918 642.595C179.547 642.595 180.067 642.462 180.477 642.195C180.887 641.929 181.212 641.577 181.451 641.139C181.697 640.702 181.888 640.227 182.025 639.714V637.243C181.95 636.867 181.834 636.504 181.676 636.156C181.526 635.8 181.328 635.486 181.082 635.212C180.842 634.932 180.545 634.71 180.19 634.546C179.834 634.382 179.417 634.3 178.939 634.3C178.419 634.3 177.971 634.409 177.595 634.628C177.226 634.84 176.922 635.134 176.683 635.51C176.45 635.879 176.276 636.31 176.16 636.802C176.05 637.287 175.996 637.807 175.996 638.36Z" fill="#1D1B20"/>
<rect x="198.98" y="614" width="29.5354" height="46" rx="6" fill="white"/>
<path d="M211.307 628.25V644H209.41V628.25H211.307ZM210.856 638.032L210.066 638.001C210.073 637.243 210.186 636.542 210.405 635.899C210.624 635.25 210.931 634.686 211.328 634.208C211.724 633.729 212.196 633.36 212.743 633.1C213.296 632.833 213.908 632.7 214.578 632.7C215.125 632.7 215.617 632.775 216.055 632.926C216.492 633.069 216.865 633.302 217.172 633.623C217.487 633.944 217.726 634.361 217.89 634.874C218.054 635.38 218.136 635.999 218.136 636.73V644H216.229V636.709C216.229 636.128 216.144 635.664 215.973 635.315C215.802 634.959 215.552 634.703 215.224 634.546C214.896 634.382 214.493 634.3 214.014 634.3C213.543 634.3 213.112 634.399 212.722 634.597C212.339 634.795 212.008 635.069 211.728 635.417C211.454 635.766 211.239 636.166 211.082 636.617C210.931 637.062 210.856 637.533 210.856 638.032Z" fill="#1D1B20"/>
<rect x="233.727" y="614" width="29.5354" height="46" rx="6" fill="white"/>
<path d="M247.48 632.905H249.387V645.323C249.387 646 249.278 646.574 249.059 647.045C248.847 647.517 248.526 647.873 248.095 648.112C247.671 648.358 247.135 648.481 246.485 648.481C246.314 648.481 246.116 648.464 245.891 648.43C245.658 648.396 245.463 648.354 245.306 648.307L245.316 646.779C245.446 646.806 245.593 646.827 245.757 646.84C245.921 646.861 246.065 646.871 246.188 646.871C246.468 646.871 246.704 646.82 246.896 646.717C247.087 646.615 247.23 646.451 247.326 646.225C247.429 646 247.48 645.699 247.48 645.323V632.905ZM247.285 629.962C247.285 629.655 247.381 629.395 247.572 629.183C247.764 628.971 248.041 628.865 248.403 628.865C248.772 628.865 249.052 628.971 249.244 629.183C249.435 629.395 249.531 629.655 249.531 629.962C249.531 630.256 249.435 630.509 249.244 630.721C249.052 630.926 248.772 631.029 248.403 631.029C248.041 631.029 247.764 630.926 247.572 630.721C247.381 630.509 247.285 630.256 247.285 629.962Z" fill="#1D1B20"/>
<rect x="268.475" y="614" width="29.5354" height="46" rx="6" fill="white"/>
<path d="M281.274 628.25V644H279.367V628.25H281.274ZM288.052 632.905L283.212 638.083L280.505 640.893L280.351 638.873L282.289 636.556L285.734 632.905H288.052ZM286.319 644L282.361 638.709L283.345 637.017L288.554 644H286.319Z" fill="#1D1B20"/>
<rect x="303.222" y="614" width="29.5354" height="46" rx="6" fill="white"/>
<path d="M318.944 628.25V644H317.036V628.25H318.944Z" fill="#1D1B20"/>
<rect x="7" y="672" width="47.7778" height="46" rx="6" fill="#E6E0E9"/>
<path fill-rule="evenodd" clip-rule="evenodd" d="M38.6719 695.94C39.6019 695.94 40.0283 694.782 39.3202 694.179L30.8888 687L22.4575 694.179C21.7493 694.782 22.1757 695.94 23.1058 695.94H25.6388V702C25.6388 702.552 26.0865 703 26.6388 703H35.1388C35.6911 703 36.1388 702.552 36.1388 702V695.94H38.6719Z" stroke="#49454F" stroke-width="2"/>
<rect x="59.9899" y="672" width="29.5354" height="46" rx="6" fill="white"/>
<path d="M79.2591 700.441V702H71.1893V700.441H79.2591ZM78.9617 692.249L71.6199 702H70.4612V700.605L77.7518 690.905H78.9617V692.249ZM78.1209 690.905V692.474H70.5433V690.905H78.1209Z" fill="#1D1B20"/>
<rect x="94.7374" y="672" width="29.5354" height="46" rx="6" fill="white"/>
<path d="M107.024 690.905L109.454 694.945L111.915 690.905H114.14L110.51 696.381L114.253 702H112.058L109.495 697.837L106.931 702H104.727L108.459 696.381L104.84 690.905H107.024Z" fill="#1D1B20"/>
<rect x="129.485" y="672" width="29.5354" height="46" rx="6" fill="white"/>
<path d="M144.642 700.646C145.093 700.646 145.51 700.554 145.893 700.37C146.276 700.185 146.591 699.932 146.837 699.611C147.083 699.283 147.223 698.91 147.257 698.493H149.062C149.028 699.149 148.805 699.761 148.395 700.329C147.992 700.889 147.462 701.344 146.806 701.692C146.15 702.034 145.428 702.205 144.642 702.205C143.808 702.205 143.08 702.058 142.458 701.764C141.843 701.47 141.33 701.067 140.92 700.554C140.517 700.042 140.213 699.454 140.008 698.791C139.809 698.121 139.71 697.413 139.71 696.668V696.237C139.71 695.492 139.809 694.788 140.008 694.125C140.213 693.455 140.517 692.864 140.92 692.351C141.33 691.838 141.843 691.435 142.458 691.141C143.08 690.847 143.808 690.7 144.642 690.7C145.51 690.7 146.269 690.878 146.919 691.233C147.568 691.582 148.077 692.061 148.446 692.669C148.822 693.271 149.028 693.954 149.062 694.72H147.257C147.223 694.262 147.093 693.848 146.867 693.479C146.649 693.11 146.348 692.816 145.965 692.597C145.589 692.372 145.148 692.259 144.642 692.259C144.061 692.259 143.572 692.375 143.176 692.607C142.786 692.833 142.475 693.141 142.243 693.53C142.017 693.913 141.853 694.34 141.751 694.812C141.655 695.277 141.607 695.752 141.607 696.237V696.668C141.607 697.153 141.655 697.632 141.751 698.104C141.846 698.575 142.007 699.002 142.233 699.385C142.465 699.768 142.776 700.076 143.166 700.308C143.562 700.534 144.054 700.646 144.642 700.646Z" fill="#1D1B20"/>
<rect x="164.232" y="672" width="29.5354" height="46" rx="6" fill="white"/>
<path d="M178.734 700.288L181.769 690.905H183.707L179.718 702H178.446L178.734 700.288ZM176.201 690.905L179.328 700.339L179.544 702H178.272L174.253 690.905H176.201Z" fill="#1D1B20"/>
<rect x="198.98" y="672" width="29.5354" height="46" rx="6" fill="white"/>
<path d="M209.287 686.25H211.194V699.847L211.03 702H209.287V686.25ZM218.69 696.36V696.576C218.69 697.382 218.594 698.131 218.403 698.821C218.211 699.505 217.931 700.1 217.562 700.605C217.193 701.111 216.742 701.504 216.209 701.785C215.675 702.065 215.064 702.205 214.373 702.205C213.669 702.205 213.05 702.085 212.517 701.846C211.991 701.6 211.546 701.248 211.184 700.79C210.822 700.332 210.531 699.778 210.313 699.129C210.101 698.479 209.954 697.748 209.872 696.935V695.991C209.954 695.171 210.101 694.436 210.313 693.787C210.531 693.137 210.822 692.583 211.184 692.125C211.546 691.661 211.991 691.309 212.517 691.069C213.044 690.823 213.655 690.7 214.353 690.7C215.05 690.7 215.669 690.837 216.209 691.11C216.749 691.377 217.2 691.76 217.562 692.259C217.931 692.758 218.211 693.356 218.403 694.053C218.594 694.744 218.69 695.513 218.69 696.36ZM216.783 696.576V696.36C216.783 695.807 216.732 695.287 216.629 694.802C216.526 694.31 216.362 693.879 216.137 693.51C215.911 693.134 215.614 692.84 215.245 692.628C214.876 692.409 214.421 692.3 213.881 692.3C213.402 692.3 212.985 692.382 212.63 692.546C212.281 692.71 211.984 692.932 211.738 693.212C211.492 693.486 211.29 693.8 211.133 694.156C210.982 694.504 210.87 694.867 210.794 695.243V697.714C210.904 698.192 211.082 698.654 211.328 699.098C211.581 699.536 211.916 699.895 212.333 700.175C212.756 700.455 213.279 700.595 213.901 700.595C214.414 700.595 214.852 700.493 215.214 700.288C215.583 700.076 215.88 699.785 216.106 699.416C216.338 699.047 216.509 698.62 216.619 698.134C216.728 697.649 216.783 697.129 216.783 696.576Z" fill="#1D1B20"/>
<rect x="233.727" y="672" width="29.5354" height="46" rx="6" fill="white"/>
<path d="M246.034 693.274V702H244.137V690.905H245.932L246.034 693.274ZM245.583 696.032L244.793 696.001C244.8 695.243 244.913 694.542 245.132 693.899C245.351 693.25 245.658 692.686 246.055 692.208C246.451 691.729 246.923 691.36 247.47 691.1C248.023 690.833 248.635 690.7 249.305 690.7C249.852 690.7 250.344 690.775 250.782 690.926C251.219 691.069 251.592 691.302 251.899 691.623C252.214 691.944 252.453 692.361 252.617 692.874C252.781 693.38 252.863 693.999 252.863 694.73V702H250.956V694.709C250.956 694.128 250.871 693.664 250.7 693.315C250.529 692.959 250.279 692.703 249.951 692.546C249.623 692.382 249.22 692.3 248.741 692.3C248.27 692.3 247.839 692.399 247.449 692.597C247.066 692.795 246.735 693.069 246.455 693.417C246.181 693.766 245.966 694.166 245.809 694.617C245.658 695.062 245.583 695.533 245.583 696.032Z" fill="#1D1B20"/>
<rect x="268.475" y="672" width="29.5354" height="46" rx="6" fill="white"/>
<path d="M277.367 693.11V702H275.46V690.905H277.265L277.367 693.11ZM276.977 696.032L276.096 696.001C276.102 695.243 276.202 694.542 276.393 693.899C276.584 693.25 276.868 692.686 277.244 692.208C277.62 691.729 278.088 691.36 278.649 691.1C279.209 690.833 279.859 690.7 280.597 690.7C281.117 690.7 281.595 690.775 282.033 690.926C282.47 691.069 282.85 691.298 283.171 691.613C283.492 691.927 283.742 692.331 283.919 692.823C284.097 693.315 284.186 693.91 284.186 694.607V702H282.289V694.699C282.289 694.118 282.19 693.653 281.992 693.305C281.8 692.956 281.527 692.703 281.171 692.546C280.816 692.382 280.399 692.3 279.92 692.3C279.36 692.3 278.892 692.399 278.516 692.597C278.14 692.795 277.839 693.069 277.613 693.417C277.388 693.766 277.224 694.166 277.121 694.617C277.025 695.062 276.977 695.533 276.977 696.032ZM284.165 694.986L282.894 695.376C282.901 694.768 283 694.183 283.191 693.623C283.39 693.062 283.673 692.563 284.042 692.125C284.418 691.688 284.88 691.343 285.427 691.09C285.974 690.83 286.599 690.7 287.303 690.7C287.898 690.7 288.424 690.779 288.882 690.936C289.347 691.093 289.737 691.336 290.051 691.664C290.372 691.985 290.615 692.399 290.779 692.905C290.943 693.411 291.025 694.012 291.025 694.709V702H289.118V694.689C289.118 694.067 289.019 693.585 288.821 693.243C288.629 692.895 288.356 692.652 288 692.515C287.652 692.372 287.235 692.3 286.749 692.3C286.332 692.3 285.963 692.372 285.642 692.515C285.321 692.659 285.051 692.857 284.832 693.11C284.613 693.356 284.446 693.64 284.33 693.961C284.22 694.282 284.165 694.624 284.165 694.986Z" fill="#1D1B20"/>
<rect x="303.222" y="672" width="47.7778" height="46" rx="6" fill="#E6E0E9"/>
<path fill-rule="evenodd" clip-rule="evenodd" d="M322.659 686H336.3C337.86 686 339.111 687.231 339.111 688.737V701.263C339.111 702.769 337.86 704 336.3 704H322.659C321.711 704 320.903 703.536 320.375 702.771L315.111 694.996L320.38 687.213C320.902 686.457 321.711 686 322.659 686ZM337.128 688.737C337.128 688.265 336.752 687.895 336.301 687.895H322.66C322.411 687.895 322.208 688.01 322.042 688.249L317.475 694.995L317.127 694.481V695.51L317.475 694.995L322.038 701.735C322.212 701.987 322.418 702.105 322.66 702.105H336.301C336.752 702.105 337.128 701.735 337.128 701.263V688.737Z" fill="#49454F"/>
<path fill-rule="evenodd" clip-rule="evenodd" d="M333.658 698.013L332.346 699.264L329.021 696.094L325.697 699.264L324.385 698.013L327.709 694.843L324.385 691.673L325.697 690.422L329.021 693.592L332.346 690.422L333.658 691.673L330.333 694.843L333.658 698.013Z" fill="#49454F"/>
<rect x="7" y="730" width="47.7778" height="46" rx="23" fill="#E8DEF8"/>
<path d="M19.3196 755.067H17.7952C17.7997 754.644 17.8362 754.288 17.9045 754.001C17.9729 753.709 18.0868 753.445 18.2463 753.208C18.4104 752.971 18.6269 752.72 18.8958 752.456C19.1054 752.256 19.2945 752.066 19.4631 751.889C19.6318 751.706 19.7662 751.515 19.8665 751.314C19.9667 751.109 20.0168 750.875 20.0168 750.61C20.0168 750.323 19.969 750.079 19.8733 749.879C19.7776 749.678 19.6363 749.526 19.4495 749.421C19.2672 749.316 19.0393 749.264 18.7659 749.264C18.538 749.264 18.3238 749.309 18.1233 749.4C17.9228 749.487 17.761 749.624 17.6379 749.811C17.5149 749.993 17.4488 750.234 17.4397 750.535H15.7922C15.8014 749.961 15.9381 749.478 16.2024 749.086C16.4667 748.694 16.8222 748.4 17.2688 748.204C17.7154 748.008 18.2144 747.91 18.7659 747.91C19.3765 747.91 19.8984 748.015 20.3313 748.225C20.7642 748.43 21.0946 748.73 21.3225 749.127C21.5549 749.519 21.6711 749.993 21.6711 750.549C21.6711 750.95 21.5914 751.314 21.4319 751.643C21.2724 751.966 21.065 752.269 20.8098 752.552C20.5546 752.83 20.2789 753.108 19.9827 753.386C19.7275 753.618 19.5543 753.871 19.4631 754.145C19.372 754.413 19.3241 754.721 19.3196 755.067ZM17.6584 757.2C17.6584 756.954 17.7428 756.747 17.9114 756.578C18.08 756.405 18.3101 756.318 18.6018 756.318C18.8935 756.318 19.1236 756.405 19.2922 756.578C19.4609 756.747 19.5452 756.954 19.5452 757.2C19.5452 757.446 19.4609 757.656 19.2922 757.829C19.1236 757.998 18.8935 758.082 18.6018 758.082C18.3101 758.082 18.08 757.998 17.9114 757.829C17.7428 757.656 17.6584 757.446 17.6584 757.2ZM27.4475 748.013V758H25.8V749.968L23.3596 750.795V749.435L27.2493 748.013H27.4475ZM37.5784 756.688V758H30.9065V756.872L34.1467 753.338C34.5022 752.937 34.7825 752.59 34.9875 752.299C35.1926 752.007 35.3362 751.745 35.4182 751.513C35.5048 751.276 35.5481 751.046 35.5481 750.822C35.5481 750.508 35.4889 750.232 35.3704 749.995C35.2564 749.754 35.0878 749.564 34.8645 749.428C34.6412 749.286 34.37 749.216 34.051 749.216C33.6819 749.216 33.372 749.296 33.1213 749.455C32.8707 749.615 32.6816 749.836 32.554 750.118C32.4264 750.396 32.3625 750.715 32.3625 751.075H30.7151C30.7151 750.496 30.8472 749.968 31.1116 749.489C31.3759 749.006 31.7587 748.623 32.26 748.341C32.7613 748.054 33.3652 747.91 34.0715 747.91C34.7369 747.91 35.302 748.022 35.7668 748.245C36.2317 748.468 36.5849 748.785 36.8264 749.195C37.0725 749.605 37.1956 750.091 37.1956 750.651C37.1956 750.961 37.1454 751.269 37.0452 751.574C36.9449 751.88 36.8014 752.185 36.6145 752.49C36.4322 752.791 36.2157 753.094 35.9651 753.399C35.7144 753.7 35.4387 754.006 35.1379 754.315L32.9846 756.688H37.5784ZM40.7981 752.278H41.7825C42.1653 752.278 42.482 752.212 42.7327 752.08C42.9879 751.948 43.177 751.766 43.3 751.533C43.4231 751.301 43.4846 751.034 43.4846 750.733C43.4846 750.419 43.4277 750.15 43.3137 749.927C43.2043 749.699 43.0357 749.523 42.8079 749.4C42.5846 749.277 42.2997 749.216 41.9534 749.216C41.6617 749.216 41.3974 749.275 41.1604 749.394C40.928 749.507 40.7434 749.672 40.6067 749.886C40.47 750.095 40.4016 750.346 40.4016 750.638H38.7473C38.7473 750.109 38.8863 749.64 39.1643 749.229C39.4423 748.819 39.8206 748.498 40.2991 748.266C40.7821 748.029 41.3245 747.91 41.926 747.91C42.5686 747.91 43.1292 748.017 43.6077 748.231C44.0907 748.441 44.4667 748.756 44.7356 749.175C45.0045 749.594 45.1389 750.114 45.1389 750.733C45.1389 751.016 45.0728 751.303 44.9407 751.595C44.8085 751.886 44.6125 752.153 44.3528 752.395C44.093 752.632 43.7694 752.825 43.3821 752.976C42.9947 753.121 42.5458 753.194 42.0354 753.194H40.7981V752.278ZM40.7981 753.563V752.661H42.0354C42.6187 752.661 43.1155 752.729 43.5256 752.866C43.9403 753.003 44.2776 753.192 44.5374 753.434C44.7971 753.671 44.9862 753.942 45.1047 754.247C45.2278 754.552 45.2893 754.876 45.2893 755.218C45.2893 755.683 45.205 756.097 45.0364 756.462C44.8723 756.822 44.6376 757.127 44.3323 757.378C44.0269 757.629 43.6692 757.818 43.259 757.945C42.8534 758.073 42.4114 758.137 41.9329 758.137C41.5045 758.137 41.0943 758.077 40.7024 757.959C40.3105 757.84 39.9596 757.665 39.6497 757.433C39.3398 757.196 39.0937 756.902 38.9114 756.551C38.7336 756.195 38.6448 755.785 38.6448 755.32H40.2922C40.2922 755.617 40.3606 755.879 40.4973 756.106C40.6386 756.33 40.8346 756.505 41.0852 756.633C41.3404 756.76 41.6321 756.824 41.9602 756.824C42.3066 756.824 42.6051 756.763 42.8557 756.64C43.1064 756.517 43.2978 756.334 43.4299 756.093C43.5667 755.851 43.635 755.56 43.635 755.218C43.635 754.83 43.5598 754.516 43.4094 754.274C43.259 754.033 43.0448 753.855 42.7668 753.741C42.4889 753.623 42.1607 753.563 41.7825 753.563H40.7981Z" fill="#4A4459"/>
<rect x="59.9899" y="730" width="29.5354" height="46" rx="6" fill="#E6E0E9"/>
<path d="M75.8548 761.744V763.272C75.8548 763.894 75.6976 764.55 75.3831 765.241C75.0687 765.938 74.6277 766.519 74.0604 766.984L72.9837 766.235C73.2025 765.935 73.387 765.627 73.5374 765.312C73.6878 765.005 73.8006 764.684 73.8758 764.349C73.9578 764.021 73.9988 763.672 73.9988 763.303V761.744H75.8548Z" fill="#49454F"/>
<path fill-rule="evenodd" clip-rule="evenodd" d="M74.7578 741.2C72.1112 741.2 69.9578 743.354 69.9578 746C69.9578 748.647 72.1112 750.8 74.7578 750.8C77.4045 750.8 79.5579 748.647 79.5579 746C79.5579 743.354 77.4045 741.2 74.7578 741.2ZM74.7576 752C71.4492 752 68.7576 749.308 68.7576 746C68.7576 742.692 71.4492 740 74.7576 740C78.066 740 80.7576 742.692 80.7576 746C80.7576 749.308 78.066 752 74.7576 752Z" fill="#49454F"/>
<path d="M76.4553 747.579C76.6476 747.361 76.9797 747.341 77.1965 747.533C77.4134 747.726 77.4334 748.057 77.2415 748.274C76.61 748.988 75.7013 749.397 74.7483 749.397C73.7952 749.397 72.8866 748.988 72.2551 748.274C72.0631 748.057 72.0832 747.726 72.3 747.533C72.5172 747.341 72.849 747.362 73.0413 747.579C73.4733 748.067 74.0958 748.348 74.7483 748.348C75.4008 748.348 76.0233 748.067 76.4553 747.579ZM72.6487 744.2C73.1458 744.2 73.5491 744.603 73.5491 745.101C73.549 745.598 73.1458 746.001 72.6487 746.001C72.1515 746.001 71.7484 745.598 71.7483 745.101C71.7483 744.603 72.1515 744.2 72.6487 744.2ZM76.8489 744.2C77.346 744.2 77.7493 744.603 77.7493 745.101C77.7492 745.598 77.346 746.001 76.8489 746.001C76.3517 746.001 75.9486 745.598 75.9485 745.101C75.9485 744.603 76.3517 744.2 76.8489 744.2Z" fill="#49454F"/>
<rect x="94.7374" y="730" width="29.5354" height="46" rx="6" fill="white"/>
<path d="M109.505 763C108.138 763 106.847 762.737 105.63 762.212C104.413 761.688 103.351 760.971 102.443 760.062C101.534 759.154 100.818 758.092 100.293 756.875C99.7676 755.658 99.5051 754.367 99.5051 753C99.5051 751.617 99.7676 750.321 100.293 749.113C100.818 747.904 101.534 746.846 102.443 745.938C103.351 745.029 104.413 744.312 105.63 743.788C106.847 743.262 108.138 743 109.505 743C110.888 743 112.184 743.262 113.393 743.788C114.601 744.312 115.659 745.029 116.568 745.938C117.476 746.846 118.193 747.904 118.718 749.113C119.243 750.321 119.505 751.617 119.505 753C119.505 754.367 119.243 755.658 118.718 756.875C118.193 758.092 117.476 759.154 116.568 760.062C115.659 760.971 114.601 761.688 113.393 762.212C112.184 762.737 110.888 763 109.505 763ZM109.505 760.95C109.938 760.35 110.313 759.725 110.63 759.075C110.947 758.425 111.205 757.733 111.405 757H107.605C107.805 757.733 108.063 758.425 108.38 759.075C108.697 759.725 109.072 760.35 109.505 760.95ZM106.905 760.55C106.605 760 106.343 759.429 106.118 758.838C105.893 758.246 105.705 757.633 105.555 757H102.605C103.088 757.833 103.693 758.558 104.418 759.175C105.143 759.792 105.972 760.25 106.905 760.55ZM112.105 760.55C113.038 760.25 113.868 759.792 114.593 759.175C115.318 758.558 115.922 757.833 116.405 757H113.455C113.305 757.633 113.118 758.246 112.893 758.838C112.668 759.429 112.405 760 112.105 760.55ZM101.755 755H105.155C105.105 754.667 105.068 754.337 105.043 754.012C105.018 753.688 105.005 753.35 105.005 753C105.005 752.65 105.018 752.312 105.043 751.988C105.068 751.663 105.105 751.333 105.155 751H101.755C101.672 751.333 101.609 751.663 101.568 751.988C101.526 752.312 101.505 752.65 101.505 753C101.505 753.35 101.526 753.688 101.568 754.012C101.609 754.337 101.672 754.667 101.755 755ZM107.155 755H111.855C111.905 754.667 111.943 754.337 111.968 754.012C111.993 753.688 112.005 753.35 112.005 753C112.005 752.65 111.993 752.312 111.968 751.988C111.943 751.663 111.905 751.333 111.855 751H107.155C107.105 751.333 107.068 751.663 107.043 751.988C107.018 752.312 107.005 752.65 107.005 753C107.005 753.35 107.018 753.688 107.043 754.012C107.068 754.337 107.105 754.667 107.155 755ZM113.855 755H117.255C117.338 754.667 117.401 754.337 117.443 754.012C117.484 753.688 117.505 753.35 117.505 753C117.505 752.65 117.484 752.312 117.443 751.988C117.401 751.663 117.338 751.333 117.255 751H113.855C113.905 751.333 113.943 751.663 113.968 751.988C113.993 752.312 114.005 752.65 114.005 753C114.005 753.35 113.993 753.688 113.968 754.012C113.943 754.337 113.905 754.667 113.855 755ZM113.455 749H116.405C115.922 748.167 115.318 747.442 114.593 746.825C113.868 746.208 113.038 745.75 112.105 745.45C112.405 746 112.668 746.571 112.893 747.162C113.118 747.754 113.305 748.367 113.455 749ZM107.605 749H111.405C111.205 748.267 110.947 747.575 110.63 746.925C110.313 746.275 109.938 745.65 109.505 745.05C109.072 745.65 108.697 746.275 108.38 746.925C108.063 747.575 107.805 748.267 107.605 749ZM102.605 749H105.555C105.705 748.367 105.893 747.754 106.118 747.162C106.343 746.571 106.605 746 106.905 745.45C105.972 745.75 105.143 746.208 104.418 746.825C103.693 747.442 103.088 748.167 102.605 749Z" fill="#1D1B20"/>
<path fill-rule="evenodd" clip-rule="evenodd" d="M129.485 736C129.485 732.686 132.171 730 135.485 730H257.263C260.576 730 263.263 732.686 263.263 736V770C263.263 773.314 260.576 776 257.263 776H216.281H135.485C132.171 776 129.485 773.314 129.485 770V736Z" fill="white"/>
<rect x="268.475" y="730" width="29.5354" height="46" rx="6" fill="#E6E0E9"/>
<path d="M281.951 759.495C281.951 759.174 282.05 758.904 282.248 758.685C282.453 758.459 282.747 758.347 283.13 758.347C283.513 758.347 283.803 758.459 284.001 758.685C284.206 758.904 284.309 759.174 284.309 759.495C284.309 759.81 284.206 760.076 284.001 760.295C283.803 760.514 283.513 760.623 283.13 760.623C282.747 760.623 282.453 760.514 282.248 760.295C282.05 760.076 281.951 759.81 281.951 759.495Z" fill="#49454F"/>
<rect x="303.222" y="730" width="47.7778" height="46" rx="23" fill="#D0BCFF"/>
<path d="M324.111 759L318.111 753L324.111 747L325.511 748.4L321.911 752H334.111V748H336.111V754H321.911L325.511 757.6L324.111 759Z" fill="#4F378A"/>
<rect x="7" y="513" width="26" height="26" rx="13" fill="#EADDFF"/>
<path d="M19.4 526L24 530.6L22.6 532L16.6 526L22.6 520L24 521.4L19.4 526Z" fill="#4F378A"/>
<path d="M68.1429 521H70.7143V531.286H68.1429V521ZM63.8571 521H58.7143C57.6857 521 57 521.857 57 522.714V529.571C57 530.429 57.6857 531.286 58.7143 531.286H63.8571C64.8857 531.286 65.5714 530.429 65.5714 529.571V526.143H63V528.714H59.5714V523.571H65.5714V522.714C65.5714 521.857 64.8857 521 63.8571 521ZM81 523.571V521H73.2857V531.286H75.8571V527.857H79.2857V525.286H75.8571V523.571H81Z" fill="#1D1B20"/>
<path d="M112.583 536L112.183 532.8C111.967 532.717 111.763 532.617 111.571 532.5C111.379 532.383 111.192 532.258 111.008 532.125L108.033 533.375L105.283 528.625L107.858 526.675C107.842 526.558 107.833 526.446 107.833 526.338V525.663C107.833 525.554 107.842 525.442 107.858 525.325L105.283 523.375L108.033 518.625L111.008 519.875C111.192 519.742 111.383 519.617 111.583 519.5C111.783 519.383 111.983 519.283 112.183 519.2L112.583 516H118.083L118.483 519.2C118.7 519.283 118.904 519.383 119.096 519.5C119.288 519.617 119.475 519.742 119.658 519.875L122.633 518.625L125.383 523.375L122.808 525.325C122.825 525.442 122.833 525.554 122.833 525.663V526.338C122.833 526.446 122.817 526.558 122.783 526.675L125.358 528.625L122.608 533.375L119.658 532.125C119.475 532.258 119.283 532.383 119.083 532.5C118.883 532.617 118.683 532.717 118.483 532.8L118.083 536H112.583ZM115.383 529.5C116.35 529.5 117.175 529.158 117.858 528.475C118.542 527.792 118.883 526.967 118.883 526C118.883 525.033 118.542 524.208 117.858 523.525C117.175 522.842 116.35 522.5 115.383 522.5C114.4 522.5 113.571 522.842 112.896 523.525C112.221 524.208 111.883 525.033 111.883 526C111.883 526.967 112.221 527.792 112.896 528.475C113.571 529.158 114.4 529.5 115.383 529.5Z" fill="#1D1B20"/>
<path d="M161.667 536L160.667 533H153.667C153.117 533 152.646 532.804 152.254 532.413C151.863 532.021 151.667 531.55 151.667 531V518C151.667 517.45 151.863 516.979 152.254 516.588C152.646 516.196 153.117 516 153.667 516H159.667L160.542 519H169.667C170.25 519 170.729 519.188 171.104 519.562C171.479 519.938 171.667 520.417 171.667 521V534C171.667 534.55 171.479 535.021 171.104 535.413C170.729 535.804 170.25 536 169.667 536H161.667ZM156.817 528.6C157.967 528.6 158.913 528.229 159.654 527.488C160.396 526.746 160.767 525.783 160.767 524.6C160.767 524.467 160.763 524.346 160.754 524.238C160.746 524.129 160.725 524.017 160.692 523.9H156.742V525.45H158.967C158.833 525.917 158.579 526.279 158.204 526.538C157.829 526.796 157.375 526.925 156.842 526.925C156.192 526.925 155.633 526.692 155.167 526.225C154.7 525.758 154.467 525.183 154.467 524.5C154.467 523.817 154.7 523.242 155.167 522.775C155.633 522.308 156.192 522.075 156.842 522.075C157.142 522.075 157.425 522.129 157.692 522.238C157.958 522.346 158.2 522.508 158.417 522.725L159.642 521.55C159.292 521.183 158.871 520.9 158.379 520.7C157.888 520.5 157.367 520.4 156.817 520.4C155.7 520.4 154.746 520.796 153.954 521.588C153.163 522.379 152.767 523.35 152.767 524.5C152.767 525.65 153.163 526.621 153.954 527.413C154.746 528.204 155.7 528.6 156.817 528.6ZM163.517 529.1L164.067 528.575C163.833 528.292 163.621 528.017 163.429 527.75C163.238 527.483 163.05 527.2 162.867 526.9L163.517 529.1ZM164.767 527.825C165.233 527.275 165.588 526.75 165.829 526.25C166.071 525.75 166.233 525.358 166.317 525.075H162.342L162.642 526.125H163.642C163.775 526.375 163.933 526.646 164.117 526.938C164.3 527.229 164.517 527.525 164.767 527.825ZM162.667 535H169.667C169.967 535 170.208 534.904 170.392 534.712C170.575 534.521 170.667 534.283 170.667 534V521C170.667 520.7 170.575 520.458 170.392 520.275C170.208 520.092 169.967 520 169.667 520H160.842L162.017 524.05H163.992V523H165.017V524.05H168.667V525.075H167.392C167.225 525.708 166.975 526.325 166.642 526.925C166.308 527.525 165.917 528.083 165.467 528.6L168.192 531.275L167.467 532L164.767 529.3L163.867 530.225L164.667 533L162.667 535Z" fill="#1D1B20"/>
<path d="M217.25 529.7V519.987C217.25 518.196 215.804 516.75 214.012 516.75H201.987C200.196 516.75 198.75 518.196 198.75 519.987V532.012C198.75 533.804 200.196 535.25 201.987 535.25H211.7L217.25 529.7ZM201.987 533.4C201.222 533.4 200.6 532.778 200.6 532.012V519.987C200.6 519.222 201.222 518.6 201.987 518.6H214.012C214.778 518.6 215.4 519.222 215.4 519.987V528.775H214.012C212.221 528.775 210.775 530.221 210.775 532.012V533.4H201.987ZM205.931 523.948C205.688 523.09 204.796 522.586 203.938 522.83C203.081 523.074 202.576 523.965 202.82 524.831C202.887 525.067 203.005 525.277 203.156 525.453L205.965 524.663C206.007 524.427 205.999 524.184 205.931 523.948ZM211.717 522.317C211.481 521.459 210.582 520.955 209.724 521.198C208.866 521.442 208.362 522.334 208.605 523.2C208.673 523.435 208.79 523.645 208.942 523.822L211.75 523.032C211.792 522.796 211.784 522.552 211.717 522.317ZM212.541 525.21L203.627 527.724C204.83 529.313 206.915 530.087 208.942 529.515C210.968 528.943 212.339 527.186 212.541 525.21Z" fill="#1D1B20"/>
<rect x="252" y="514" width="1" height="24" fill="#CAC4D0"/>
<path d="M279 528C278.45 528 277.979 527.804 277.588 527.413C277.196 527.021 277 526.55 277 526C277 525.45 277.196 524.979 277.588 524.588C277.979 524.196 278.45 524 279 524C279.55 524 280.021 524.196 280.413 524.588C280.804 524.979 281 525.45 281 526C281 526.55 280.804 527.021 280.413 527.413C280.021 527.804 279.55 528 279 528ZM285 528C284.45 528 283.979 527.804 283.588 527.413C283.196 527.021 283 526.55 283 526C283 525.45 283.196 524.979 283.588 524.588C283.979 524.196 284.45 524 285 524C285.55 524 286.021 524.196 286.413 524.588C286.804 524.979 287 525.45 287 526C287 526.55 286.804 527.021 286.413 527.413C286.021 527.804 285.55 528 285 528ZM291 528C290.45 528 289.979 527.804 289.588 527.413C289.196 527.021 289 526.55 289 526C289 525.45 289.196 524.979 289.588 524.588C289.979 524.196 290.45 524 291 524C291.55 524 292.021 524.196 292.413 524.588C292.804 524.979 293 525.45 293 526C293 526.55 292.804 527.021 292.413 527.413C292.021 527.804 291.55 528 291 528Z" fill="#1D1B20"/>
<path d="M339 528C338.167 528 337.458 527.708 336.875 527.125C336.292 526.542 336 525.833 336 525V519C336 518.167 336.292 517.458 336.875 516.875C337.458 516.292 338.167 516 339 516C339.833 516 340.542 516.292 341.125 516.875C341.708 517.458 342 518.167 342 519V525C342 525.833 341.708 526.542 341.125 527.125C340.542 527.708 339.833 528 339 528ZM338 535V531.925C336.267 531.692 334.833 530.917 333.7 529.6C332.567 528.283 332 526.75 332 525H334C334 526.383 334.488 527.562 335.463 528.538C336.438 529.513 337.617 530 339 530C340.383 530 341.562 529.513 342.538 528.538C343.513 527.562 344 526.383 344 525H346C346 526.75 345.433 528.283 344.3 529.6C343.167 530.917 341.733 531.692 340 531.925V535H338Z" fill="#1D1B20"/>
<path d="M29 213C29 208.582 32.5817 205 37 205H315C319.418 205 323 208.582 323 213V259C323 263.418 319.418 267 315 267H37C32.5817 267 29 263.418 29 259V213Z" fill="white"/>
<path d="M37 205V205.5H315V205V204.5H37V205ZM323 213H322.5V259H323H323.5V213H323ZM315 267V266.5H37V267V267.5H315V267ZM29 259H29.5V213H29H28.5V259H29ZM37 267V266.5C32.8579 266.5 29.5 263.142 29.5 259H29H28.5C28.5 263.694 32.3056 267.5 37 267.5V267ZM323 259H322.5C322.5 263.142 319.142 266.5 315 266.5V267V267.5C319.694 267.5 323.5 263.694 323.5 259H323ZM315 205V205.5C319.142 205.5 322.5 208.858 322.5 213H323H323.5C323.5 208.306 319.694 204.5 315 204.5V205ZM37 205V204.5C32.3056 204.5 28.5 208.306 28.5 213H29H29.5C29.5 208.858 32.8579 205.5 37 205.5V205Z" fill="#FF0000"/>
<path d="M69.3031 227.082V244.758H67.1156V227.082H69.3031ZM57.7211 228.527V232.941H61.9984V228.527H64.1469V240.598H55.5531V228.527H57.7211ZM57.7211 238.82H61.9984V234.641H57.7211V238.82ZM81.9148 228V235.363H73.3992V228H81.9148ZM75.5477 229.738V233.664H79.7664V229.738H75.5477ZM87.1687 227.082V236.066H85.0203V227.082H87.1687ZM87.1687 236.867V241.438H77.657V242.863H87.6961V244.582H75.5086V239.875H85.0594V238.566H75.4891V236.867H87.1687ZM105.171 227.102V240.129H103.003V233.625H99.4484V237.258H91.1867V228.254H93.3547V231.105H97.3V228.254H99.4484V231.867H103.003V227.102H105.171ZM105.562 242.629V244.387H93.5305V238.84H95.7375V242.629H105.562ZM93.3547 235.539H97.3V232.785H93.3547V235.539ZM123.584 229.445V231.203H108.994V229.445H115.224V227.316H117.373V229.445H123.584ZM124.404 241.086V242.844H108.271V241.086H115.224V238.918C112.168 238.674 110.322 237.453 110.341 235.5C110.322 233.371 112.607 232.102 116.298 232.102C119.931 232.102 122.236 233.371 122.236 235.5C122.236 237.443 120.38 238.664 117.373 238.898V241.086H124.404ZM116.298 233.801C113.896 233.82 112.548 234.387 112.568 235.5C112.548 236.633 113.896 237.199 116.298 237.219C118.662 237.199 120.009 236.633 120.009 235.5C120.009 234.387 118.662 233.82 116.298 233.801Z" fill="#757575"/>
<path d="M43.5098 285.269H38.251V286.616H36.6396V285.269H31.4395V283.95H43.5098V285.269ZM38.2656 287.466C38.2656 287.876 38.439 288.259 38.7856 288.616C39.1372 288.972 39.6401 289.272 40.2944 289.517C40.9536 289.761 41.7275 289.922 42.6162 290L42.1182 291.23C41.0195 291.128 40.0649 290.894 39.2544 290.527C38.4438 290.161 37.8359 289.695 37.4307 289.128C37.0205 289.69 36.415 290.154 35.6143 290.52C34.8135 290.891 33.8711 291.128 32.7871 291.23L32.2451 290C33.124 289.922 33.8906 289.758 34.5449 289.509C35.2041 289.26 35.7095 288.958 36.061 288.601C36.4175 288.24 36.5957 287.861 36.5957 287.466V287.158H38.2656V287.466ZM38.3096 278.721C38.3096 279.199 38.5 279.666 38.8809 280.12C39.2617 280.574 39.7988 280.962 40.4922 281.284C41.1904 281.606 41.9863 281.816 42.8799 281.914L42.3086 283.174C41.2051 283.037 40.231 282.744 39.3862 282.295C38.5415 281.841 37.9043 281.279 37.4746 280.61C37.0449 281.279 36.4077 281.841 35.563 282.295C34.7183 282.744 33.7441 283.037 32.6406 283.174L32.0693 281.914C32.9678 281.816 33.7612 281.609 34.4497 281.292C35.1431 280.969 35.6802 280.581 36.061 280.127C36.4419 279.673 36.6348 279.204 36.6396 278.721V278.223H38.3096V278.721ZM49.5994 281.826C49.5994 282.52 49.7312 283.218 49.9949 283.921C50.2635 284.624 50.6468 285.264 51.1448 285.84C51.6478 286.416 52.2361 286.86 52.91 287.173L52.0018 288.462C51.2742 288.12 50.637 287.62 50.0901 286.96C49.5433 286.296 49.116 285.537 48.8084 284.683C48.5008 285.615 48.0638 286.443 47.4974 287.166C46.931 287.888 46.2742 288.428 45.5271 288.784L44.575 287.51C45.2537 287.188 45.8494 286.721 46.3621 286.111C46.8797 285.5 47.2752 284.819 47.5486 284.067C47.827 283.315 47.9686 282.568 47.9734 281.826V280.713H45.0877V279.365H52.368V280.713H49.5994V281.826ZM55.2244 283.218H57.2605V284.58H55.2244V291.304H53.5984V278.062H55.2244V283.218ZM59.6295 291.597H57.9889L61.4166 278.896H63.0426L59.6295 291.597ZM67.7699 278.809C68.2973 278.809 68.7855 278.901 69.2348 279.087C69.6889 279.268 70.0746 279.526 70.392 279.863H73.5561V278.062H75.182V285.854H73.5561V284.17H70.3847C70.0722 284.502 69.6889 284.761 69.2348 284.946C68.7855 285.127 68.2973 285.215 67.7699 285.21C67.1156 285.215 66.5199 285.081 65.9828 284.807C65.4506 284.534 65.0307 284.153 64.723 283.665C64.4203 283.176 64.2689 282.627 64.2689 282.017C64.2689 281.401 64.4203 280.85 64.723 280.361C65.0307 279.873 65.4506 279.492 65.9828 279.219C66.515 278.945 67.1107 278.809 67.7699 278.809ZM67.7699 280.2C67.3891 280.2 67.0521 280.276 66.7592 280.427C66.4662 280.574 66.2367 280.784 66.0707 281.057C65.9047 281.331 65.8217 281.65 65.8217 282.017C65.8217 282.373 65.9047 282.69 66.0707 282.969C66.2367 283.242 66.4662 283.455 66.7592 283.606C67.057 283.757 67.3939 283.833 67.7699 283.833C68.1312 283.833 68.456 283.757 68.744 283.606C69.037 283.455 69.2665 283.242 69.4325 282.969C69.5985 282.69 69.684 282.373 69.6889 282.017C69.684 281.65 69.5985 281.331 69.4325 281.057C69.2665 280.784 69.0395 280.574 68.7514 280.427C68.4633 280.276 68.1361 280.2 67.7699 280.2ZM70.6996 286.133C71.6225 286.133 72.4232 286.235 73.102 286.44C73.7855 286.646 74.3104 286.941 74.6767 287.327C75.0429 287.712 75.226 288.174 75.226 288.711C75.226 289.248 75.0429 289.709 74.6767 290.095C74.3104 290.481 73.7855 290.776 73.102 290.981C72.4232 291.187 71.6225 291.289 70.6996 291.289C69.7768 291.289 68.976 291.187 68.2973 290.981C67.6234 290.776 67.1034 290.481 66.7372 290.095C66.3759 289.709 66.1977 289.248 66.2025 288.711C66.1977 288.174 66.3759 287.712 66.7372 287.327C67.1034 286.941 67.6234 286.646 68.2973 286.44C68.976 286.235 69.7768 286.133 70.6996 286.133ZM70.6996 287.378C69.7719 287.378 69.0541 287.493 68.5463 287.722C68.0434 287.952 67.7943 288.281 67.7992 288.711C67.7943 289.126 68.0434 289.448 68.5463 289.678C69.0541 289.902 69.7719 290.015 70.6996 290.015C71.6371 290.015 72.3598 289.902 72.8676 289.678C73.3754 289.448 73.6293 289.126 73.6293 288.711C73.6293 288.281 73.3754 287.952 72.8676 287.722C72.3646 287.493 71.642 287.378 70.6996 287.378ZM71.1244 281.167C71.2025 281.455 71.2416 281.738 71.2416 282.017C71.2416 282.28 71.205 282.559 71.1317 282.852H73.5561V281.167H71.1244ZM81.1252 279.028C81.7209 279.028 82.258 279.187 82.7365 279.504C83.215 279.822 83.6057 280.276 83.9084 280.867C84.2111 281.453 84.3991 282.144 84.4724 282.939H86.9992V278.062H88.6105V291.318H86.9992V284.258H84.4943C84.4357 285.098 84.2575 285.83 83.9597 286.455C83.6618 287.075 83.2687 287.554 82.7805 287.891C82.2922 288.223 81.7404 288.389 81.1252 288.389C80.4611 288.389 79.8728 288.198 79.3601 287.817C78.8474 287.437 78.447 286.892 78.1589 286.184C77.8708 285.476 77.7268 284.648 77.7268 283.701C77.7268 282.764 77.8708 281.943 78.1589 281.24C78.447 280.532 78.8474 279.988 79.3601 279.607C79.8776 279.221 80.466 279.028 81.1252 279.028ZM81.1252 280.493C80.759 280.493 80.4367 280.623 80.1584 280.881C79.8801 281.135 79.6652 281.504 79.5139 281.987C79.3625 282.466 79.2893 283.037 79.2941 283.701C79.2893 284.37 79.3625 284.946 79.5139 285.43C79.6652 285.913 79.8801 286.284 80.1584 286.543C80.4367 286.797 80.759 286.924 81.1252 286.924C81.4914 286.924 81.8112 286.797 82.0847 286.543C82.363 286.284 82.5778 285.913 82.7292 285.43C82.8854 284.946 82.966 284.37 82.9709 283.701C82.966 283.037 82.8854 282.463 82.7292 281.98C82.5778 281.497 82.363 281.128 82.0847 280.874C81.8112 280.62 81.4914 280.493 81.1252 280.493ZM92.2832 291.597H90.6426L94.0703 278.896H95.6963L92.2832 291.597ZM108.817 286.265H96.7176V284.99H108.817V286.265ZM107.294 291.304H105.653V288.579H98.0799V287.275H107.294V291.304ZM107.47 284.009H98.2703V278.384H107.367V279.658H99.8963V280.566H107.045V281.782H99.8963V282.764H107.47V284.009ZM117.06 279.16C117.06 279.717 117.255 280.259 117.646 280.786C118.042 281.313 118.593 281.765 119.301 282.141C120.014 282.517 120.83 282.764 121.748 282.881L121.103 284.199C119.99 284.033 119.004 283.691 118.144 283.174C117.285 282.651 116.638 282.014 116.203 281.262C115.769 282.014 115.124 282.651 114.27 283.174C113.415 283.691 112.436 284.033 111.333 284.199L110.688 282.881C111.596 282.764 112.404 282.517 113.112 282.141C113.82 281.765 114.37 281.313 114.76 280.786C115.151 280.259 115.346 279.717 115.346 279.16V278.486H117.06V279.16ZM122.231 286.689H116.972V291.304H115.361V286.689H110.161V285.342H122.231V286.689ZM135.66 285.986H130.547V288.418H128.936V285.986H123.56V284.683H135.66V285.986ZM134.107 283.452H125.098V278.662H134.107V283.452ZM126.68 282.178H132.496V279.937H126.68V282.178ZM134.327 291.04H125.025V287.202H126.651V289.722H134.327V291.04ZM141.735 281.826C141.735 282.52 141.866 283.218 142.13 283.921C142.399 284.624 142.782 285.264 143.28 285.84C143.783 286.416 144.371 286.86 145.045 287.173L144.137 288.462C143.409 288.12 142.772 287.62 142.225 286.96C141.678 286.296 141.251 285.537 140.944 284.683C140.636 285.615 140.199 286.443 139.633 287.166C139.066 287.888 138.409 288.428 137.662 288.784L136.71 287.51C137.389 287.188 137.985 286.721 138.497 286.111C139.015 285.5 139.41 284.819 139.684 284.067C139.962 283.315 140.104 282.568 140.109 281.826V280.713H137.223V279.365H144.503V280.713H141.735V281.826ZM147.36 283.218H149.396V284.58H147.36V291.304H145.734V278.062H147.36V283.218ZM162.487 285.298H150.388V284.067H162.487V285.298ZM161.022 289.106H153.435V290.029H161.418V291.157H151.809V288.052H159.411V287.231H151.794V286.089H161.022V289.106ZM160.993 281.343H153.537V282.207H161.228V283.32H151.926V280.288H159.367V279.482H151.882V278.354H160.993V281.343ZM178.871 284.888H177.245V278.062H178.871V284.888ZM178.871 288.857H171.634V289.897H179.296V291.187H170.023V287.671H177.259V286.719H169.994V285.444H178.871V288.857ZM175.589 280.171H174.403V283.057C175.023 283.003 175.604 282.944 176.146 282.881L176.219 284.053C174.086 284.385 171.42 284.551 168.221 284.551L168.046 283.262L169.554 283.247V280.171H168.397V278.911H175.589V280.171ZM171.122 283.218C171.698 283.203 172.274 283.181 172.85 283.152V280.171H171.122V283.218ZM188.139 279.16C188.139 279.717 188.334 280.259 188.725 280.786C189.121 281.313 189.672 281.765 190.38 282.141C191.093 282.517 191.909 282.764 192.827 282.881L192.182 284.199C191.069 284.033 190.082 283.691 189.223 283.174C188.364 282.651 187.717 282.014 187.282 281.262C186.848 282.014 186.203 282.651 185.349 283.174C184.494 283.691 183.515 284.033 182.412 284.199L181.767 282.881C182.675 282.764 183.483 282.517 184.191 282.141C184.899 281.765 185.449 281.313 185.839 280.786C186.23 280.259 186.425 279.717 186.425 279.16V278.486H188.139V279.16ZM193.31 286.689H188.051V291.304H186.44V286.689H181.24V285.342H193.31V286.689ZM206.753 289.766H194.654V288.418H199.868V286.265H196.089V281.929H203.706V280.288H196.06V278.97H205.318V283.218H197.715V284.932H205.625V286.265H201.48V288.418H206.753V289.766ZM214.465 282.705C215.407 282.695 216.308 282.654 217.167 282.581C218.032 282.502 218.903 282.383 219.782 282.222L219.972 283.54C218.967 283.735 217.975 283.872 216.999 283.95C216.022 284.028 214.992 284.067 213.908 284.067H212.809V278.706H214.465V282.705ZM223.166 285.005H221.54V281.152H218.024V279.849H221.54V278.062H223.166V285.005ZM223.429 286.924H213.893V285.664H217.848V284.492H219.474V285.664H223.429V286.924ZM218.654 287.349C219.435 287.354 220.109 287.434 220.676 287.59C221.242 287.742 221.677 287.964 221.979 288.257C222.287 288.55 222.443 288.901 222.448 289.312C222.443 289.731 222.287 290.088 221.979 290.381C221.677 290.679 221.242 290.903 220.676 291.055C220.109 291.211 219.435 291.289 218.654 291.289C217.883 291.289 217.211 291.211 216.64 291.055C216.074 290.903 215.637 290.679 215.329 290.381C215.026 290.088 214.875 289.731 214.875 289.312C214.875 288.901 215.026 288.55 215.329 288.257C215.637 287.964 216.074 287.742 216.64 287.59C217.211 287.434 217.883 287.354 218.654 287.349ZM218.654 288.535C217.966 288.525 217.431 288.589 217.05 288.726C216.674 288.862 216.486 289.058 216.486 289.312C216.486 289.58 216.674 289.785 217.05 289.927C217.426 290.063 217.961 290.132 218.654 290.132C219.347 290.132 219.88 290.063 220.251 289.927C220.622 289.785 220.807 289.58 220.807 289.312C220.807 289.058 220.619 288.862 220.243 288.726C219.872 288.589 219.343 288.525 218.654 288.535ZM229.109 279.028C229.705 279.028 230.242 279.187 230.72 279.504C231.199 279.822 231.589 280.276 231.892 280.867C232.195 281.453 232.383 282.144 232.456 282.939H234.983V278.062H236.594V291.318H234.983V284.258H232.478C232.42 285.098 232.241 285.83 231.943 286.455C231.646 287.075 231.253 287.554 230.764 287.891C230.276 288.223 229.724 288.389 229.109 288.389C228.445 288.389 227.857 288.198 227.344 287.817C226.831 287.437 226.431 286.892 226.143 286.184C225.855 285.476 225.711 284.648 225.711 283.701C225.711 282.764 225.855 281.943 226.143 281.24C226.431 280.532 226.831 279.988 227.344 279.607C227.861 279.221 228.45 279.028 229.109 279.028ZM229.109 280.493C228.743 280.493 228.421 280.623 228.142 280.881C227.864 281.135 227.649 281.504 227.498 281.987C227.346 282.466 227.273 283.037 227.278 283.701C227.273 284.37 227.346 284.946 227.498 285.43C227.649 285.913 227.864 286.284 228.142 286.543C228.421 286.797 228.743 286.924 229.109 286.924C229.475 286.924 229.795 286.797 230.068 286.543C230.347 286.284 230.562 285.913 230.713 285.43C230.869 284.946 230.95 284.37 230.955 283.701C230.95 283.037 230.869 282.463 230.713 281.98C230.562 281.497 230.347 281.128 230.068 280.874C229.795 280.62 229.475 280.493 229.109 280.493ZM242.464 279.028C243.128 279.028 243.719 279.221 244.237 279.607C244.754 279.988 245.16 280.532 245.453 281.24C245.75 281.943 245.902 282.764 245.907 283.701C245.902 284.648 245.75 285.476 245.453 286.184C245.16 286.892 244.754 287.437 244.237 287.817C243.719 288.198 243.128 288.389 242.464 288.389C241.795 288.389 241.2 288.198 240.677 287.817C240.155 287.432 239.747 286.885 239.454 286.177C239.161 285.469 239.017 284.644 239.022 283.701C239.017 282.769 239.161 281.948 239.454 281.24C239.747 280.532 240.155 279.988 240.677 279.607C241.2 279.221 241.795 279.028 242.464 279.028ZM242.464 280.493C242.093 280.493 241.766 280.623 241.483 280.881C241.2 281.135 240.98 281.504 240.824 281.987C240.667 282.466 240.589 283.037 240.589 283.701C240.589 284.37 240.667 284.946 240.824 285.43C240.98 285.913 241.2 286.284 241.483 286.543C241.766 286.797 242.093 286.924 242.464 286.924C242.84 286.924 243.17 286.797 243.453 286.543C243.736 286.284 243.954 285.913 244.105 285.43C244.261 284.946 244.339 284.37 244.339 283.701C244.339 283.037 244.261 282.463 244.105 281.98C243.954 281.497 243.736 281.128 243.453 280.874C243.17 280.62 242.84 280.493 242.464 280.493ZM251.239 282.588H249.276V285.137H251.239V286.47H249.276V291.304H247.65V278.062H249.276V281.226H251.239V282.588ZM266.772 281.328H268.618V282.676H266.772V285.796H265.146V278.062H266.772V281.328ZM259.829 287.466H265.146V286.323H266.772V291.143H258.218V286.323H259.829V287.466ZM265.146 289.854V288.726H259.829V289.854H265.146ZM264.194 280.596H256.343V279.292H259.463V277.959H261.089V279.292H264.194V280.596ZM260.269 281.05C260.903 281.05 261.465 281.147 261.953 281.343C262.441 281.533 262.82 281.804 263.088 282.156C263.362 282.507 263.501 282.915 263.506 283.379C263.501 283.843 263.362 284.25 263.088 284.602C262.82 284.954 262.441 285.227 261.953 285.422C261.465 285.613 260.903 285.708 260.269 285.708C259.629 285.708 259.062 285.613 258.569 285.422C258.081 285.227 257.7 284.954 257.427 284.602C257.153 284.25 257.017 283.843 257.017 283.379C257.017 282.915 257.153 282.507 257.427 282.156C257.7 281.804 258.081 281.533 258.569 281.343C259.062 281.147 259.629 281.05 260.269 281.05ZM260.269 282.251C259.761 282.251 259.355 282.351 259.053 282.551C258.75 282.751 258.599 283.027 258.599 283.379C258.599 283.735 258.748 284.014 259.045 284.214C259.348 284.409 259.756 284.507 260.269 284.507C260.781 284.507 261.189 284.407 261.492 284.207C261.799 284.006 261.953 283.73 261.953 283.379C261.953 283.032 261.799 282.759 261.492 282.559C261.184 282.354 260.776 282.251 260.269 282.251ZM280.787 291.304H279.176V278.062H280.787V291.304ZM272.115 286.587C274.171 286.553 276.129 286.353 277.989 285.986L278.194 287.349C277.096 287.578 276.007 287.742 274.928 287.839C273.853 287.932 272.76 287.979 271.646 287.979H270.504V279.351H272.115V286.587ZM293.527 283.086H295.563V284.419H293.527V291.318H291.901V278.062H293.527V283.086ZM289.894 280.64H285.324V286.719C286.393 286.719 287.358 286.687 288.217 286.624C289.076 286.56 289.948 286.45 290.832 286.294L291.022 287.671C290.065 287.837 289.118 287.947 288.18 288C287.248 288.054 286.12 288.081 284.796 288.081H283.698V279.321H289.894V280.64Z" fill="#FF0000"/>
<path d="M29 316C29 311.582 32.5817 308 37 308H315C319.418 308 323 311.582 323 316V362C323 366.418 319.418 370 315 370H37C32.5817 370 29 366.418 29 362V316Z" fill="white"/>
<path d="M37 308V308.5H315V308V307.5H37V308ZM323 316H322.5V362H323H323.5V316H323ZM315 370V369.5H37V370V370.5H315V370ZM29 362H29.5V316H29H28.5V362H29ZM37 370V369.5C32.8579 369.5 29.5 366.142 29.5 362H29H28.5C28.5 366.694 32.3056 370.5 37 370.5V370ZM323 362H322.5C322.5 366.142 319.142 369.5 315 369.5V370V370.5C319.694 370.5 323.5 366.694 323.5 362H323ZM315 308V308.5C319.142 308.5 322.5 311.858 322.5 316H323H323.5C323.5 311.306 319.694 307.5 315 307.5V308ZM37 308V307.5C32.3056 307.5 28.5 311.306 28.5 316H29H29.5C29.5 311.858 32.8579 308.5 37 308.5V308Z" fill="#32C375"/>
<path d="M67.7449 347.758H65.5574V330.082H67.7449V347.758ZM56.1629 335.941H60.4402V331.527H62.5887V343.598H53.9949V331.527H56.1629V335.941ZM60.4402 341.82V337.641H56.1629V341.82H60.4402ZM80.3566 338.363H71.841V331H80.3566V338.363ZM73.9895 336.664H78.2082V332.738H73.9895V336.664ZM85.6105 339.066H83.4621V330.082H85.6105V339.066ZM85.6105 344.438H76.0988V345.863H86.1379V347.582H73.9504V342.875H83.5012V341.566H73.9309V339.867H85.6105V344.438ZM103.613 343.129H101.445V336.625H97.8902V340.258H89.6285V331.254H91.7965V334.105H95.7418V331.254H97.8902V334.867H101.445V330.102H103.613V343.129ZM104.004 347.387H91.9723V341.84H94.1793V345.629H104.004V347.387ZM95.7418 338.539V335.785H91.7965V338.539H95.7418ZM122.025 334.203H107.436V332.445H113.666V330.316H115.814V332.445H122.025V334.203ZM122.846 345.844H106.713V344.086H113.666V341.918C112.644 341.833 111.765 341.648 111.029 341.361C110.3 341.068 109.74 340.681 109.35 340.199C108.965 339.711 108.777 339.145 108.783 338.5C108.777 337.797 109.011 337.191 109.486 336.684C109.968 336.169 110.658 335.779 111.557 335.512C112.455 335.238 113.516 335.102 114.74 335.102C115.945 335.102 116.993 335.238 117.885 335.512C118.783 335.779 119.473 336.169 119.955 336.684C120.437 337.191 120.678 337.797 120.678 338.5C120.678 339.138 120.482 339.701 120.092 340.189C119.701 340.671 119.141 341.059 118.412 341.352C117.683 341.638 116.817 341.824 115.814 341.908V344.086H122.846V345.844ZM114.74 336.801C113.523 336.814 112.595 336.964 111.957 337.25C111.319 337.53 111.003 337.947 111.01 338.5C111.003 339.06 111.319 339.483 111.957 339.77C112.595 340.056 113.523 340.206 114.74 340.219C115.938 340.206 116.856 340.056 117.494 339.77C118.132 339.483 118.451 339.06 118.451 338.5C118.451 337.947 118.132 337.53 117.494 337.25C116.856 336.964 115.938 336.814 114.74 336.801ZM143.929 335.238H146.311V337.035H143.929V342.035H141.761V330.102H143.929V335.238ZM129.788 339.926C131.429 339.926 132.913 339.91 134.241 339.877V338.793C133.251 338.669 132.47 338.383 131.897 337.934C131.324 337.478 131.038 336.905 131.038 336.215C131.038 335.681 131.214 335.215 131.565 334.818C131.917 334.421 132.415 334.118 133.059 333.91C133.704 333.695 134.449 333.591 135.296 333.598C136.149 333.591 136.894 333.695 137.532 333.91C138.177 334.118 138.675 334.421 139.026 334.818C139.378 335.215 139.554 335.681 139.554 336.215C139.554 336.898 139.274 337.465 138.714 337.914C138.154 338.363 137.386 338.653 136.409 338.783V339.789C138.043 339.717 139.521 339.594 140.843 339.418L141.018 340.922C139.345 341.215 137.62 341.407 135.843 341.498C134.072 341.583 132.132 341.625 130.022 341.625L129.788 339.926ZM143.929 347.738H141.761V344.496H132.014V342.797H143.929V347.738ZM140.374 333.09H130.237V331.488H134.241V329.945H136.409V331.488H140.374V333.09ZM135.296 335.062C134.606 335.049 134.068 335.144 133.684 335.346C133.307 335.548 133.121 335.837 133.128 336.215C133.115 336.579 133.304 336.869 133.694 337.084C134.085 337.292 134.619 337.393 135.296 337.387C135.973 337.393 136.507 337.292 136.897 337.084C137.288 336.869 137.483 336.579 137.483 336.215C137.483 335.837 137.291 335.548 136.907 335.346C136.523 335.144 135.986 335.049 135.296 335.062ZM162.536 342.855H160.349V330.102H162.536V342.855ZM163.025 347.387H150.857V341.566H153.044V345.629H163.025V347.387ZM152.907 331.254C153.793 331.254 154.597 331.446 155.32 331.83C156.042 332.208 156.612 332.732 157.029 333.402C157.445 334.073 157.654 334.828 157.654 335.668C157.654 336.521 157.445 337.286 157.029 337.963C156.612 338.633 156.042 339.158 155.32 339.535C154.597 339.913 153.793 340.102 152.907 340.102C152.015 340.102 151.205 339.913 150.476 339.535C149.753 339.158 149.183 338.633 148.767 337.963C148.35 337.286 148.142 336.521 148.142 335.668C148.142 334.828 148.35 334.073 148.767 333.402C149.183 332.732 149.753 332.208 150.476 331.83C151.205 331.446 152.015 331.254 152.907 331.254ZM152.907 333.148C152.406 333.148 151.954 333.253 151.55 333.461C151.146 333.669 150.831 333.965 150.603 334.35C150.375 334.734 150.264 335.173 150.271 335.668C150.264 336.176 150.375 336.622 150.603 337.006C150.831 337.39 151.146 337.686 151.55 337.895C151.954 338.103 152.406 338.207 152.907 338.207C153.396 338.207 153.838 338.103 154.236 337.895C154.633 337.686 154.945 337.39 155.173 337.006C155.407 336.622 155.525 336.176 155.525 335.668C155.525 335.173 155.407 334.734 155.173 334.35C154.945 333.965 154.633 333.669 154.236 333.461C153.838 333.253 153.396 333.148 152.907 333.148Z" fill="#757575"/>
<path d="M42.4551 396.318H40.8145V383.062H42.4551V396.318ZM33.7686 387.456H36.9766V384.146H38.5879V393.198H32.1426V384.146H33.7686V387.456ZM36.9766 391.865V388.73H33.7686V391.865H36.9766ZM51.9139 389.272H45.5271V383.75H51.9139V389.272ZM47.1385 387.998H50.3025V385.054H47.1385V387.998ZM55.8543 389.8H54.243V383.062H55.8543V389.8ZM55.8543 393.828H48.7205V394.897H56.2498V396.187H47.1092V392.656H54.2723V391.675H47.0945V390.4H55.8543V393.828ZM69.3561 392.847H67.7301V387.969H65.0641V390.693H58.8678V383.94H60.4937V386.079H63.4527V383.94H65.0641V386.65H67.7301V383.076H69.3561V392.847ZM69.649 396.04H60.6256V391.88H62.2809V394.722H69.649V396.04ZM63.4527 389.404V387.339H60.4937V389.404H63.4527ZM83.1654 386.152H72.223V384.834H76.8959V383.237H78.5072V384.834H83.1654V386.152ZM83.7807 394.883H71.6811V393.564H76.8959V391.938C76.1293 391.875 75.4701 391.736 74.9184 391.521C74.3715 391.301 73.9516 391.011 73.6586 390.649C73.3705 390.283 73.2289 389.858 73.2338 389.375C73.2289 388.848 73.4047 388.394 73.7611 388.013C74.1225 387.627 74.64 387.334 75.3139 387.134C75.9877 386.929 76.7836 386.826 77.7016 386.826C78.6049 386.826 79.391 386.929 80.06 387.134C80.7338 387.334 81.2514 387.627 81.6127 388.013C81.974 388.394 82.1547 388.848 82.1547 389.375C82.1547 389.854 82.0082 390.276 81.7152 390.642C81.4223 391.003 81.0023 391.294 80.4555 391.514C79.9086 391.729 79.2592 391.868 78.5072 391.931V393.564H83.7807V394.883ZM77.7016 388.101C76.7885 388.11 76.0927 388.223 75.6142 388.438C75.1356 388.647 74.8988 388.96 74.9037 389.375C74.8988 389.795 75.1356 390.112 75.6142 390.327C76.0927 390.542 76.7885 390.654 77.7016 390.664C78.6 390.654 79.2885 390.542 79.767 390.327C80.2455 390.112 80.4848 389.795 80.4848 389.375C80.4848 388.96 80.2455 388.647 79.767 388.438C79.2885 388.223 78.6 388.11 77.7016 388.101ZM95.466 388.232H97.4289V389.595H95.466V396.274H93.84V383.062H95.466V388.232ZM91.965 384.438C91.965 388.784 89.9582 391.943 85.9445 393.916L85.0217 392.656C86.633 391.855 87.8757 390.886 88.7497 389.749C89.6286 388.611 90.1511 387.29 90.3171 385.786H85.7395V384.438H91.965ZM106.268 383.486C106.932 383.486 107.531 383.616 108.063 383.875C108.595 384.128 109.012 384.482 109.315 384.937C109.623 385.391 109.779 385.903 109.784 386.475C109.779 387.051 109.623 387.566 109.315 388.02C109.012 388.474 108.595 388.828 108.063 389.082C107.531 389.336 106.932 389.463 106.268 389.463C105.599 389.463 104.996 389.336 104.459 389.082C103.927 388.828 103.51 388.474 103.207 388.02C102.904 387.566 102.753 387.051 102.753 386.475C102.753 385.903 102.904 385.391 103.207 384.937C103.51 384.482 103.929 384.128 104.467 383.875C105.004 383.616 105.604 383.486 106.268 383.486ZM106.268 384.834C105.897 384.834 105.565 384.902 105.272 385.039C104.979 385.171 104.75 385.361 104.584 385.61C104.418 385.854 104.335 386.143 104.335 386.475C104.335 386.812 104.418 387.107 104.584 387.361C104.75 387.61 104.979 387.803 105.272 387.939C105.565 388.076 105.897 388.145 106.268 388.145C106.639 388.145 106.971 388.076 107.264 387.939C107.557 387.803 107.787 387.61 107.953 387.361C108.119 387.107 108.202 386.812 108.202 386.475C108.202 386.143 108.119 385.854 107.953 385.61C107.787 385.361 107.557 385.171 107.264 385.039C106.971 384.902 106.639 384.834 106.268 384.834ZM113.549 389.756H111.908V383.062H113.549V389.756ZM113.549 393.784H106.386V394.854H113.944V396.143H104.789V392.583H111.923V391.602H104.76V390.327H113.549V393.784ZM126.933 396.304H125.307V383.062H126.933V396.304ZM121.015 387.266C121.015 387.944 121.15 388.618 121.418 389.287C121.687 389.956 122.075 390.559 122.583 391.096C123.09 391.633 123.691 392.046 124.384 392.334L123.491 393.579C122.744 393.267 122.089 392.8 121.528 392.18C120.971 391.56 120.537 390.842 120.224 390.027C119.921 390.891 119.487 391.655 118.921 392.319C118.359 392.979 117.7 393.472 116.943 393.799L116.064 392.539C116.748 392.236 117.341 391.807 117.844 391.25C118.347 390.688 118.73 390.061 118.994 389.368C119.257 388.674 119.389 387.974 119.389 387.266V386.577H116.474V385.273H119.389V383.34H121.001V385.273H123.857V386.577H121.015V387.266ZM139.79 386.328H141.636V387.676H139.79V390.796H138.164V383.062H139.79V386.328ZM132.847 392.466H138.164V391.323H139.79V396.143H131.236V391.323H132.847V392.466ZM138.164 394.854V393.726H132.847V394.854H138.164ZM137.212 385.596H129.361V384.292H132.481V382.959H134.107V384.292H137.212V385.596ZM133.287 386.05C133.921 386.05 134.483 386.147 134.971 386.343C135.459 386.533 135.838 386.804 136.106 387.156C136.38 387.507 136.519 387.915 136.524 388.379C136.519 388.843 136.38 389.25 136.106 389.602C135.838 389.954 135.459 390.227 134.971 390.422C134.483 390.613 133.921 390.708 133.287 390.708C132.647 390.708 132.08 390.613 131.587 390.422C131.099 390.227 130.718 389.954 130.445 389.602C130.171 389.25 130.035 388.843 130.035 388.379C130.035 387.915 130.171 387.507 130.445 387.156C130.718 386.804 131.099 386.533 131.587 386.343C132.08 386.147 132.647 386.05 133.287 386.05ZM133.287 387.251C132.779 387.251 132.373 387.351 132.071 387.551C131.768 387.751 131.617 388.027 131.617 388.379C131.617 388.735 131.766 389.014 132.063 389.214C132.366 389.409 132.774 389.507 133.287 389.507C133.799 389.507 134.207 389.407 134.51 389.207C134.817 389.006 134.971 388.73 134.971 388.379C134.971 388.032 134.817 387.759 134.51 387.559C134.202 387.354 133.794 387.251 133.287 387.251ZM153.805 396.304H152.194V383.062H153.805V396.304ZM145.133 391.587C147.189 391.553 149.147 391.353 151.007 390.986L151.212 392.349C150.113 392.578 149.025 392.742 147.946 392.839C146.871 392.932 145.778 392.979 144.664 392.979H143.522V384.351H145.133V391.587ZM166.545 388.086H168.581V389.419H166.545V396.318H164.919V383.062H166.545V388.086ZM162.912 385.64H158.342V391.719C159.411 391.719 160.375 391.687 161.235 391.624C162.094 391.56 162.966 391.45 163.85 391.294L164.04 392.671C163.083 392.837 162.136 392.947 161.198 393C160.266 393.054 159.138 393.081 157.814 393.081H156.716V384.321H162.912V385.64Z" fill="#32C375"/>
</g>
<defs>
<clipPath id="clip0_106_339">
<rect width="360" height="800" fill="white"/>
</clipPath>
</defs>
</svg>
