<svg width="360" height="800" viewBox="0 0 360 800" fill="none" xmlns="http://www.w3.org/2000/svg">
<rect width="360" height="800" fill="#F7F8FB"/>
<path d="M33 171C33 166.582 36.5817 163 41 163H319C323.418 163 327 166.582 327 171V217C327 221.418 323.418 225 319 225H41C36.5817 225 33 221.418 33 217V171Z" fill="white"/>
<path d="M41 163V163.5H319V163V162.5H41V163ZM327 171H326.5V217H327H327.5V171H327ZM319 225V224.5H41V225V225.5H319V225ZM33 217H33.5V171H33H32.5V217H33ZM41 225V224.5C36.8579 224.5 33.5 221.142 33.5 217H33H32.5C32.5 221.694 36.3056 225.5 41 225.5V225ZM327 217H326.5C326.5 221.142 323.142 224.5 319 224.5V225V225.5C323.694 225.5 327.5 221.694 327.5 217H327ZM319 163V163.5C323.142 163.5 326.5 166.858 326.5 171H327H327.5C327.5 166.306 323.694 162.5 319 162.5V163ZM41 163V162.5C36.3056 162.5 32.5 166.306 32.5 171H33H33.5C33.5 166.858 36.8579 163.5 41 163.5V163Z" fill="#D9D9D9"/>
<path d="M71.7457 202.758H69.5582V185.082H71.7457V202.758ZM62.234 186.371C63.1194 186.371 63.9072 186.628 64.5973 187.143C65.2939 187.65 65.8408 188.376 66.2379 189.32C66.635 190.258 66.8368 191.352 66.8434 192.602C66.8368 193.858 66.635 194.958 66.2379 195.902C65.8473 196.846 65.3036 197.576 64.607 198.09C63.9104 198.598 63.1194 198.852 62.234 198.852C61.3421 198.852 60.5478 198.598 59.8512 198.09C59.1546 197.576 58.6077 196.846 58.2105 195.902C57.8199 194.958 57.6246 193.858 57.6246 192.602C57.6246 191.352 57.8199 190.258 58.2105 189.32C58.6077 188.376 59.1546 187.65 59.8512 187.143C60.5478 186.628 61.3421 186.371 62.234 186.371ZM62.234 188.324C61.7327 188.324 61.29 188.493 60.9059 188.832C60.5283 189.171 60.2353 189.662 60.027 190.307C59.8186 190.951 59.7145 191.716 59.7145 192.602C59.7145 193.493 59.8186 194.262 60.027 194.906C60.2353 195.551 60.5283 196.046 60.9059 196.391C61.29 196.729 61.7327 196.898 62.234 196.898C62.7288 196.898 63.165 196.729 63.5426 196.391C63.9202 196.046 64.2132 195.551 64.4215 194.906C64.6298 194.262 64.734 193.493 64.734 192.602C64.734 191.716 64.6298 190.954 64.4215 190.316C64.2132 189.672 63.9202 189.18 63.5426 188.842C63.165 188.497 62.7288 188.324 62.234 188.324ZM82.4238 191.586H84.4746V185.395H86.5449V201.879H84.4746V193.344H82.4238V198.188H75.4902V186.996H82.4238V191.586ZM77.5215 196.469H80.3926V188.715H77.5215V196.469ZM90.1777 202.738H88.0879V185.082H90.1777V202.738ZM97.8285 185.648C98.7139 185.648 99.5115 185.821 100.221 186.166C100.931 186.505 101.487 186.977 101.891 187.582C102.301 188.188 102.51 188.871 102.516 189.633C102.51 190.401 102.301 191.088 101.891 191.693C101.487 192.299 100.931 192.771 100.221 193.109C99.5115 193.448 98.7139 193.617 97.8285 193.617C96.9366 193.617 96.1326 193.448 95.4164 193.109C94.7068 192.771 94.1501 192.299 93.7465 191.693C93.3428 191.088 93.141 190.401 93.141 189.633C93.141 188.871 93.3428 188.188 93.7465 187.582C94.1501 186.977 94.71 186.505 95.4262 186.166C96.1423 185.821 96.9431 185.648 97.8285 185.648ZM97.8285 187.445C97.3337 187.445 96.891 187.536 96.5004 187.719C96.1098 187.895 95.8038 188.148 95.5824 188.48C95.3611 188.806 95.2504 189.19 95.2504 189.633C95.2504 190.082 95.3611 190.476 95.5824 190.814C95.8038 191.146 96.1098 191.404 96.5004 191.586C96.891 191.768 97.3337 191.859 97.8285 191.859C98.3233 191.859 98.766 191.768 99.1566 191.586C99.5473 191.404 99.8533 191.146 100.075 190.814C100.296 190.476 100.407 190.082 100.407 189.633C100.407 189.19 100.296 188.806 100.075 188.48C99.8533 188.148 99.5473 187.895 99.1566 187.719C98.766 187.536 98.3233 187.445 97.8285 187.445ZM107.536 194.008H105.348V185.082H107.536V194.008ZM107.536 199.379H97.9848V200.805H108.063V202.523H95.8559V197.777H105.368V196.469H95.8168V194.77H107.536V199.379Z" fill="#757575"/>
<path d="M33 253C33 248.582 36.5817 245 41 245H319C323.418 245 327 248.582 327 253V299C327 303.418 323.418 307 319 307H41C36.5817 307 33 303.418 33 299V253Z" fill="white"/>
<path d="M41 245V245.5H319V245V244.5H41V245ZM327 253H326.5V299H327H327.5V253H327ZM319 307V306.5H41V307V307.5H319V307ZM33 299H33.5V253H33H32.5V299H33ZM41 307V306.5C36.8579 306.5 33.5 303.142 33.5 299H33H32.5C32.5 303.694 36.3056 307.5 41 307.5V307ZM327 299H326.5C326.5 303.142 323.142 306.5 319 306.5V307V307.5C323.694 307.5 327.5 303.694 327.5 299H327ZM319 245V245.5C323.142 245.5 326.5 248.858 326.5 253H327H327.5C327.5 248.306 323.694 244.5 319 244.5V245ZM41 245V244.5C36.3056 244.5 32.5 248.306 32.5 253H33H33.5C33.5 248.858 36.8579 245.5 41 245.5V245Z" fill="#D9D9D9"/>
<path d="M72.3031 267.082V284.758H70.1156V267.082H72.3031ZM60.7211 268.527V272.941H64.9984V268.527H67.1469V280.598H58.5531V268.527H60.7211ZM60.7211 278.82H64.9984V274.641H60.7211V278.82ZM84.9148 268V275.363H76.3992V268H84.9148ZM78.5477 269.738V273.664H82.7664V269.738H78.5477ZM90.1687 267.082V276.066H88.0203V267.082H90.1687ZM90.1687 276.867V281.438H80.657V282.863H90.6961V284.582H78.5086V279.875H88.0594V278.566H78.4891V276.867H90.1687ZM108.171 267.102V280.129H106.003V273.625H102.448V277.258H94.1867V268.254H96.3547V271.105H100.3V268.254H102.448V271.867H106.003V267.102H108.171ZM108.562 282.629V284.387H96.5305V278.84H98.7375V282.629H108.562ZM96.3547 275.539H100.3V272.785H96.3547V275.539ZM126.584 269.445V271.203H111.994V269.445H118.224V267.316H120.373V269.445H126.584ZM127.404 281.086V282.844H111.271V281.086H118.224V278.918C115.168 278.674 113.322 277.453 113.341 275.5C113.322 273.371 115.607 272.102 119.298 272.102C122.931 272.102 125.236 273.371 125.236 275.5C125.236 277.443 123.38 278.664 120.373 278.898V281.086H127.404ZM119.298 273.801C116.896 273.82 115.548 274.387 115.568 275.5C115.548 276.633 116.896 277.199 119.298 277.219C121.662 277.199 123.009 276.633 123.009 275.5C123.009 274.387 121.662 273.82 119.298 273.801Z" fill="#757575"/>
<rect x="37" y="429" width="294" height="53" rx="26.5" fill="#143D60"/>
<path d="M176.215 461.859H163.2V460.219H168.684V458.078H164.7V453.297H172.747V451.734H164.684V450.141H174.715V454.859H166.7V456.453H175.043V458.078H170.668V460.219H176.215V461.859ZM188.883 452.234C188.883 453.099 188.872 453.836 188.852 454.445C188.836 455.055 188.792 455.747 188.719 456.523C188.646 457.299 188.529 458.146 188.367 459.062L186.352 458.891C186.513 458.068 186.633 457.286 186.711 456.547C186.789 455.807 186.839 455.141 186.859 454.547C186.88 453.953 186.893 453.24 186.898 452.406V452.234V452.125H178.852V450.531H188.883V452.234ZM190.477 461.578H177.508V459.938H190.477V461.578ZM203.722 459.453H201.722V449.234H203.722V459.453ZM204.097 463.188H194.191V458.422H196.207V461.594H204.097V463.188ZM195.925 450.141C196.649 450.141 197.306 450.294 197.894 450.602C198.488 450.909 198.957 451.336 199.3 451.883C199.644 452.424 199.816 453.036 199.816 453.719C199.816 454.411 199.644 455.034 199.3 455.586C198.962 456.133 198.496 456.56 197.902 456.867C197.308 457.174 196.649 457.328 195.925 457.328C195.201 457.328 194.543 457.174 193.949 456.867C193.355 456.56 192.886 456.133 192.543 455.586C192.204 455.034 192.035 454.411 192.035 453.719C192.035 453.036 192.207 452.424 192.55 451.883C192.894 451.336 193.36 450.909 193.949 450.602C194.543 450.294 195.201 450.141 195.925 450.141ZM195.925 451.875C195.556 451.87 195.222 451.943 194.925 452.094C194.628 452.24 194.397 452.453 194.23 452.734C194.063 453.016 193.983 453.344 193.988 453.719C193.983 454.104 194.063 454.44 194.23 454.727C194.397 455.008 194.626 455.224 194.918 455.375C195.214 455.521 195.55 455.594 195.925 455.594C196.29 455.594 196.615 455.521 196.902 455.375C197.194 455.224 197.423 455.008 197.589 454.727C197.761 454.44 197.847 454.104 197.847 453.719C197.847 453.344 197.761 453.016 197.589 452.734C197.423 452.453 197.194 452.24 196.902 452.094C196.61 451.943 196.285 451.87 195.925 451.875Z" fill="white"/>
<path d="M66.1953 121.736H41.791V118.66H52.0742V114.646H44.6035V105.682H59.6914V102.752H44.5742V99.7637H63.3828V108.611H48.3535V111.6H63.998V114.646H55.7949V118.66H66.1953V121.736ZM89.0469 103.689C89.0469 105.311 89.0273 106.692 88.9883 107.835C88.959 108.978 88.876 110.276 88.7393 111.731C88.6025 113.187 88.3828 114.773 88.0801 116.492L84.3008 116.17C84.6035 114.627 84.8281 113.162 84.9746 111.775C85.1211 110.389 85.2139 109.139 85.2529 108.025C85.292 106.912 85.3164 105.574 85.3262 104.012V103.689V103.484H70.2383V100.496H89.0469V103.689ZM92.0352 121.209H67.7188V118.133H92.0352V121.209ZM115.971 117.225H112.221V98.0645H115.971V117.225ZM116.674 124.227H98.0996V115.291H101.879V121.238H116.674V124.227ZM101.352 99.7637C102.709 99.7637 103.939 100.052 105.043 100.628C106.156 101.204 107.035 102.005 107.68 103.03C108.324 104.046 108.646 105.193 108.646 106.473C108.646 107.771 108.324 108.938 107.68 109.974C107.045 110.999 106.171 111.8 105.058 112.376C103.944 112.952 102.709 113.24 101.352 113.24C99.9941 113.24 98.7588 112.952 97.6455 112.376C96.5322 111.8 95.6533 110.999 95.0088 109.974C94.374 108.938 94.0566 107.771 94.0566 106.473C94.0566 105.193 94.3789 104.046 95.0234 103.03C95.668 102.005 96.542 101.204 97.6455 100.628C98.7588 100.052 99.9941 99.7637 101.352 99.7637ZM101.352 103.016C100.658 103.006 100.033 103.143 99.4766 103.426C98.9199 103.699 98.4854 104.1 98.1729 104.627C97.8604 105.154 97.709 105.77 97.7188 106.473C97.709 107.195 97.8604 107.825 98.1729 108.362C98.4854 108.89 98.915 109.295 99.4619 109.578C100.019 109.852 100.648 109.988 101.352 109.988C102.035 109.988 102.646 109.852 103.183 109.578C103.729 109.295 104.159 108.89 104.472 108.362C104.794 107.825 104.955 107.195 104.955 106.473C104.955 105.77 104.794 105.154 104.472 104.627C104.159 104.1 103.729 103.699 103.183 103.426C102.636 103.143 102.025 103.006 101.352 103.016Z" fill="black"/>
<path d="M50.382 31.5484C49.5609 30.8172 48.237 30.8172 47.4159 31.5484L33.4902 43.948C32.8366 44.53 32.8366 45.47 33.4902 46.052L47.4159 58.4516C48.237 59.1828 49.5609 59.1828 50.382 58.4516C51.2032 57.7205 51.2032 56.5417 50.382 55.8106L38.2494 44.9925L50.3988 34.1745C51.2032 33.4583 51.2032 32.2646 50.382 31.5484Z" fill="#757575"/>
<rect width="360" height="296" transform="translate(0 504)" fill="#FEF7FF"/>
<rect x="126" y="786" width="108" height="4" rx="2" fill="#1D1B20"/>
<path fill-rule="evenodd" clip-rule="evenodd" d="M328.857 769H326.571V771.222H328.857V769ZM322 769H324.286V771.222H322V769ZM334.571 777.889H325.429V779H334.571V777.889ZM331.143 769H333.429V771.222H331.143V769ZM328.857 773.444H326.571V775.667H328.857V773.444ZM322 773.444H324.286V775.667H322V773.444ZM333.429 773.444H331.143V775.667H333.429V773.444ZM335.714 769H338V771.222H335.714V769ZM338 773.444H335.714V775.667H338V773.444Z" fill="#1D1B20"/>
<path d="M29.9999 777.675L24.4082 772.092L25.5915 770.908L29.9999 775.325L34.4082 770.908L35.5915 772.092L29.9999 777.675Z" fill="#1D1B20"/>
<rect x="8" y="556" width="29.7059" height="46" rx="6" fill="#F7F2FA"/>
<path d="M25.3139 588.266V575.038L25.4779 572.905H27.2211V588.266H25.3139ZM17.8593 578.576V578.36C17.8593 577.513 17.9584 576.744 18.1566 576.053C18.3549 575.356 18.6454 574.758 19.0282 574.259C19.411 573.76 19.8725 573.377 20.4125 573.11C20.9594 572.837 21.5815 572.7 22.2787 572.7C22.976 572.7 23.5878 572.823 24.1142 573.069C24.6474 573.309 25.0985 573.661 25.4677 574.125C25.8437 574.583 26.141 575.137 26.3598 575.787C26.5785 576.436 26.7289 577.171 26.8109 577.991V578.935C26.7357 579.748 26.5888 580.479 26.37 581.129C26.1513 581.778 25.8539 582.332 25.4779 582.79C25.1088 583.248 24.6542 583.6 24.1142 583.846C23.581 584.085 22.9623 584.205 22.2582 584.205C21.5746 584.205 20.9594 584.065 20.4125 583.785C19.8725 583.504 19.411 583.111 19.0282 582.605C18.6523 582.1 18.3617 581.505 18.1566 580.821C17.9584 580.131 17.8593 579.382 17.8593 578.576ZM19.7665 578.36V578.576C19.7665 579.129 19.8246 579.652 19.9408 580.145C20.057 580.63 20.2348 581.061 20.474 581.437C20.7201 581.812 21.0277 582.11 21.3969 582.329C21.7729 582.541 22.2172 582.646 22.7299 582.646C23.3588 582.646 23.8817 582.51 24.2987 582.236C24.7226 581.963 25.0609 581.604 25.3139 581.16C25.5668 580.708 25.7616 580.227 25.8983 579.714V577.243C25.8232 576.867 25.7035 576.501 25.5395 576.146C25.3822 575.79 25.1772 575.472 24.9242 575.192C24.6713 574.905 24.3637 574.679 24.0014 574.515C23.6459 574.344 23.2289 574.259 22.7504 574.259C22.2309 574.259 21.7831 574.368 21.4071 574.587C21.0312 574.806 20.7201 575.106 20.474 575.489C20.2348 575.865 20.057 576.299 19.9408 576.792C19.8246 577.284 19.7665 577.807 19.7665 578.36Z" fill="#1D1B20"/>
<rect x="42.9216" y="556" width="29.7059" height="46" rx="6" fill="#F7F2FA"/>
<path d="M54.1344 584.031L56.985 574.905H58.236L57.9899 576.72L55.088 586H53.8678L54.1344 584.031ZM52.2169 574.905L54.6471 584.134L54.8214 586H53.5397L50.3199 574.905H52.2169ZM60.9635 584.062L63.2809 574.905H65.1676L61.9479 586H60.6764L60.9635 584.062ZM58.5128 574.905L61.3019 583.877L61.6198 586H60.4098L57.4259 576.7L57.1798 574.905H58.5128Z" fill="#1D1B20"/>
<rect x="77.8432" y="556" width="29.7059" height="46" rx="6" fill="#F7F2FA"/>
<path d="M93.1781 586.205C92.4056 586.205 91.7049 586.075 91.076 585.815C90.4539 585.549 89.9173 585.176 89.4662 584.698C89.0218 584.219 88.68 583.652 88.4408 582.996C88.2015 582.339 88.0819 581.622 88.0819 580.842V580.412C88.0819 579.509 88.2152 578.706 88.4818 578.002C88.7484 577.291 89.1107 576.689 89.5687 576.197C90.0267 575.705 90.5462 575.333 91.1273 575.08C91.7083 574.827 92.3099 574.7 92.932 574.7C93.7249 574.7 94.4085 574.837 94.9828 575.11C95.5638 575.384 96.0389 575.767 96.4081 576.259C96.7772 576.744 97.0506 577.318 97.2284 577.981C97.4061 578.638 97.495 579.355 97.495 580.135V580.986H89.2098V579.438H95.598V579.294C95.5706 578.802 95.4681 578.323 95.2904 577.858C95.1195 577.394 94.846 577.011 94.4701 576.71C94.0941 576.409 93.5814 576.259 92.932 576.259C92.5013 576.259 92.1048 576.351 91.7425 576.536C91.3802 576.713 91.0692 576.98 90.8094 577.335C90.5497 577.691 90.348 578.125 90.2044 578.638C90.0609 579.15 89.9891 579.742 89.9891 580.412V580.842C89.9891 581.369 90.0609 581.864 90.2044 582.329C90.3548 582.787 90.5702 583.19 90.8504 583.539C91.1375 583.888 91.4828 584.161 91.8861 584.359C92.2962 584.558 92.7611 584.657 93.2806 584.657C93.9505 584.657 94.5179 584.52 94.9828 584.247C95.4476 583.973 95.8543 583.607 96.203 583.149L97.3514 584.062C97.1122 584.424 96.808 584.77 96.4388 585.098C96.0697 585.426 95.6151 585.692 95.075 585.897C94.5418 586.103 93.9095 586.205 93.1781 586.205Z" fill="#1D1B20"/>
<rect x="112.765" y="556" width="29.7059" height="46" rx="6" fill="#F7F2FA"/>
<path d="M127.402 576.648V586H125.505V574.905H127.351L127.402 576.648ZM130.868 574.844L130.858 576.607C130.701 576.573 130.55 576.553 130.407 576.546C130.27 576.532 130.113 576.525 129.935 576.525C129.498 576.525 129.111 576.594 128.776 576.73C128.441 576.867 128.158 577.059 127.925 577.305C127.693 577.551 127.508 577.845 127.372 578.187C127.242 578.521 127.156 578.891 127.115 579.294L126.582 579.602C126.582 578.932 126.647 578.303 126.777 577.715C126.914 577.127 127.122 576.607 127.402 576.156C127.683 575.698 128.038 575.343 128.469 575.09C128.906 574.83 129.426 574.7 130.027 574.7C130.164 574.7 130.321 574.717 130.499 574.751C130.677 574.779 130.8 574.81 130.868 574.844Z" fill="#1D1B20"/>
<rect x="147.686" y="556" width="29.7059" height="46" rx="6" fill="#F7F2FA"/>
<path d="M165.195 574.905V576.361H159.197V574.905H165.195ZM161.227 572.208H163.124V583.252C163.124 583.628 163.182 583.912 163.298 584.103C163.414 584.294 163.565 584.421 163.749 584.482C163.934 584.544 164.132 584.575 164.344 584.575C164.501 584.575 164.665 584.561 164.836 584.534C165.014 584.5 165.147 584.472 165.236 584.452L165.246 586C165.096 586.048 164.898 586.092 164.652 586.133C164.412 586.181 164.122 586.205 163.78 586.205C163.315 586.205 162.888 586.113 162.498 585.928C162.109 585.744 161.798 585.436 161.565 585.005C161.34 584.568 161.227 583.98 161.227 583.242V572.208Z" fill="#1D1B20"/>
<rect x="182.608" y="556" width="29.7059" height="46" rx="6" fill="#F7F2FA"/>
<path d="M197.051 584.852L200.137 574.905H202.167L197.717 587.712C197.615 587.986 197.478 588.28 197.307 588.594C197.143 588.916 196.931 589.22 196.671 589.507C196.412 589.794 196.097 590.026 195.728 590.204C195.366 590.389 194.932 590.481 194.426 590.481C194.275 590.481 194.084 590.46 193.852 590.419C193.619 590.378 193.455 590.344 193.359 590.317L193.349 588.779C193.404 588.786 193.489 588.792 193.605 588.799C193.728 588.813 193.814 588.82 193.862 588.82C194.292 588.82 194.658 588.762 194.959 588.646C195.26 588.536 195.513 588.348 195.718 588.082C195.93 587.822 196.111 587.463 196.261 587.005L197.051 584.852ZM194.785 574.905L197.666 583.519L198.158 585.518L196.794 586.215L192.713 574.905H194.785Z" fill="#1D1B20"/>
<rect x="217.53" y="556" width="29.7059" height="46" rx="6" fill="#F7F2FA"/>
<path d="M234.823 583.437V574.905H236.73V586H234.915L234.823 583.437ZM235.182 581.099L235.971 581.078C235.971 581.816 235.893 582.5 235.736 583.129C235.585 583.751 235.339 584.291 234.997 584.749C234.655 585.207 234.208 585.566 233.654 585.826C233.1 586.079 232.427 586.205 231.634 586.205C231.094 586.205 230.598 586.126 230.147 585.969C229.703 585.812 229.32 585.569 228.999 585.241C228.677 584.913 228.428 584.486 228.25 583.959C228.079 583.433 227.994 582.801 227.994 582.062V574.905H229.891V582.083C229.891 582.582 229.945 582.996 230.055 583.324C230.171 583.645 230.325 583.901 230.516 584.093C230.715 584.277 230.933 584.407 231.173 584.482C231.419 584.558 231.672 584.595 231.931 584.595C232.738 584.595 233.377 584.441 233.849 584.134C234.32 583.819 234.659 583.399 234.864 582.873C235.076 582.339 235.182 581.748 235.182 581.099Z" fill="#1D1B20"/>
<rect x="252.451" y="556" width="29.7059" height="46" rx="6" fill="#F7F2FA"/>
<path d="M268.258 574.905V586H266.35V574.905H268.258ZM266.207 571.962C266.207 571.655 266.299 571.395 266.484 571.183C266.675 570.971 266.955 570.865 267.325 570.865C267.687 570.865 267.964 570.971 268.155 571.183C268.353 571.395 268.453 571.655 268.453 571.962C268.453 572.256 268.353 572.509 268.155 572.721C267.964 572.926 267.687 573.029 267.325 573.029C266.955 573.029 266.675 572.926 266.484 572.721C266.299 572.509 266.207 572.256 266.207 571.962Z" fill="#1D1B20"/>
<rect x="287.373" y="556" width="29.7059" height="46" rx="6" fill="#F7F2FA"/>
<path d="M297.181 580.576V580.34C297.181 579.54 297.297 578.798 297.529 578.115C297.762 577.424 298.097 576.826 298.534 576.32C298.972 575.808 299.502 575.411 300.124 575.131C300.746 574.844 301.443 574.7 302.215 574.7C302.995 574.7 303.695 574.844 304.317 575.131C304.946 575.411 305.48 575.808 305.917 576.32C306.361 576.826 306.7 577.424 306.932 578.115C307.165 578.798 307.281 579.54 307.281 580.34V580.576C307.281 581.375 307.165 582.117 306.932 582.801C306.7 583.484 306.361 584.083 305.917 584.595C305.48 585.101 304.95 585.498 304.328 585.785C303.712 586.065 303.015 586.205 302.236 586.205C301.457 586.205 300.756 586.065 300.134 585.785C299.512 585.498 298.979 585.101 298.534 584.595C298.097 584.083 297.762 583.484 297.529 582.801C297.297 582.117 297.181 581.375 297.181 580.576ZM299.078 580.34V580.576C299.078 581.129 299.143 581.652 299.273 582.145C299.402 582.63 299.597 583.061 299.857 583.437C300.124 583.812 300.455 584.11 300.852 584.329C301.248 584.541 301.71 584.646 302.236 584.646C302.755 584.646 303.21 584.541 303.6 584.329C303.996 584.11 304.324 583.812 304.584 583.437C304.844 583.061 305.039 582.63 305.169 582.145C305.305 581.652 305.374 581.129 305.374 580.576V580.34C305.374 579.793 305.305 579.277 305.169 578.792C305.039 578.299 304.84 577.865 304.574 577.489C304.314 577.106 303.986 576.806 303.589 576.587C303.2 576.368 302.742 576.259 302.215 576.259C301.696 576.259 301.238 576.368 300.841 576.587C300.452 576.806 300.124 577.106 299.857 577.489C299.597 577.865 299.402 578.299 299.273 578.792C299.143 579.277 299.078 579.793 299.078 580.34Z" fill="#1D1B20"/>
<rect x="322.294" y="556" width="29.7059" height="46" rx="6" fill="#F7F2FA"/>
<path d="M334.594 577.038V590.266H332.687V574.905H334.43L334.594 577.038ZM342.069 580.36V580.576C342.069 581.382 341.973 582.131 341.782 582.821C341.591 583.505 341.31 584.1 340.941 584.605C340.579 585.111 340.131 585.504 339.598 585.785C339.065 586.065 338.453 586.205 337.762 586.205C337.058 586.205 336.436 586.089 335.896 585.856C335.356 585.624 334.898 585.286 334.522 584.841C334.146 584.397 333.845 583.864 333.62 583.242C333.401 582.62 333.251 581.919 333.169 581.14V579.991C333.251 579.171 333.405 578.436 333.63 577.787C333.856 577.137 334.153 576.583 334.522 576.125C334.898 575.661 335.353 575.309 335.886 575.069C336.419 574.823 337.034 574.7 337.732 574.7C338.429 574.7 339.048 574.837 339.588 575.11C340.128 575.377 340.582 575.76 340.951 576.259C341.321 576.758 341.597 577.356 341.782 578.053C341.973 578.744 342.069 579.513 342.069 580.36ZM340.162 580.576V580.36C340.162 579.807 340.104 579.287 339.988 578.802C339.871 578.31 339.69 577.879 339.444 577.51C339.205 577.134 338.897 576.84 338.521 576.628C338.145 576.409 337.698 576.3 337.178 576.3C336.699 576.3 336.282 576.382 335.927 576.546C335.578 576.71 335.281 576.932 335.035 577.212C334.789 577.486 334.587 577.8 334.43 578.156C334.28 578.504 334.167 578.867 334.092 579.243V581.898C334.228 582.377 334.42 582.828 334.666 583.252C334.912 583.669 335.24 584.007 335.65 584.267C336.06 584.52 336.576 584.646 337.198 584.646C337.711 584.646 338.152 584.541 338.521 584.329C338.897 584.11 339.205 583.812 339.444 583.437C339.69 583.061 339.871 582.63 339.988 582.145C340.104 581.652 340.162 581.129 340.162 580.576Z" fill="#1D1B20"/>
<rect x="26.2424" y="614" width="29.5354" height="46" rx="6" fill="#F7F2FA"/>
<path d="M43.2865 642.103V636.392C43.2865 635.954 43.1976 635.575 43.0199 635.253C42.849 634.925 42.5892 634.672 42.2406 634.495C41.892 634.317 41.4613 634.228 40.9486 634.228C40.4701 634.228 40.0497 634.31 39.6874 634.474C39.3319 634.638 39.0516 634.854 38.8466 635.12C38.6483 635.387 38.5492 635.674 38.5492 635.981H36.6522C36.6522 635.585 36.7548 635.192 36.9598 634.802C37.1649 634.413 37.4589 634.061 37.8417 633.746C38.2313 633.425 38.6962 633.172 39.2362 632.987C39.7831 632.796 40.3915 632.7 41.0614 632.7C41.868 632.7 42.579 632.837 43.1942 633.11C43.8163 633.384 44.3016 633.797 44.6503 634.351C45.0057 634.898 45.1835 635.585 45.1835 636.412V641.58C45.1835 641.949 45.2142 642.342 45.2758 642.759C45.3441 643.176 45.4432 643.535 45.5731 643.836V644H43.5941C43.4984 643.781 43.4232 643.491 43.3685 643.128C43.3138 642.759 43.2865 642.417 43.2865 642.103ZM43.6146 637.273L43.6351 638.606H41.7177C41.1776 638.606 40.6957 638.651 40.2719 638.74C39.848 638.822 39.4926 638.948 39.2054 639.119C38.9183 639.29 38.6996 639.505 38.5492 639.765C38.3988 640.018 38.3236 640.315 38.3236 640.657C38.3236 641.006 38.4022 641.324 38.5594 641.611C38.7167 641.898 38.9525 642.127 39.267 642.298C39.5883 642.462 39.9813 642.544 40.4462 642.544C41.0272 642.544 41.5399 642.421 41.9843 642.175C42.4286 641.929 42.7806 641.628 43.0404 641.272C43.307 640.917 43.4506 640.572 43.4711 640.237L44.2811 641.149C44.2333 641.437 44.1034 641.754 43.8915 642.103C43.6796 642.452 43.3959 642.787 43.0404 643.108C42.6918 643.422 42.2748 643.686 41.7894 643.897C41.3109 644.103 40.7709 644.205 40.1693 644.205C39.4174 644.205 38.7577 644.058 38.1903 643.764C37.6298 643.47 37.1923 643.077 36.8778 642.585C36.5702 642.086 36.4164 641.529 36.4164 640.914C36.4164 640.319 36.5326 639.796 36.765 639.345C36.9974 638.887 37.3324 638.507 37.7699 638.207C38.2074 637.899 38.7338 637.667 39.349 637.509C39.9642 637.352 40.6512 637.273 41.41 637.273H43.6146Z" fill="#1D1B20"/>
<rect x="60.9899" y="614" width="29.5354" height="46" rx="6" fill="#F7F2FA"/>
<path d="M78.2391 641.057C78.2391 640.784 78.1776 640.531 78.0545 640.298C77.9383 640.059 77.6956 639.844 77.3265 639.652C76.9642 639.454 76.4173 639.283 75.6859 639.14C75.0706 639.01 74.5135 638.856 74.0145 638.678C73.5223 638.5 73.1019 638.285 72.7532 638.032C72.4114 637.779 72.1483 637.482 71.9637 637.14C71.7791 636.798 71.6868 636.398 71.6868 635.94C71.6868 635.503 71.7825 635.089 71.9739 634.7C72.1722 634.31 72.449 633.965 72.8045 633.664C73.1668 633.363 73.6009 633.127 74.1068 632.957C74.6126 632.786 75.1766 632.7 75.7986 632.7C76.6873 632.7 77.4461 632.857 78.075 633.172C78.7039 633.486 79.1859 633.907 79.5208 634.433C79.8558 634.953 80.0233 635.53 80.0233 636.166H78.1263C78.1263 635.858 78.034 635.561 77.8494 635.274C77.6717 634.98 77.4085 634.737 77.0599 634.546C76.7181 634.354 76.2977 634.259 75.7986 634.259C75.2723 634.259 74.845 634.341 74.5169 634.505C74.1956 634.662 73.9598 634.864 73.8094 635.11C73.6658 635.356 73.5941 635.616 73.5941 635.889C73.5941 636.094 73.6282 636.279 73.6966 636.443C73.7718 636.6 73.9017 636.747 74.0862 636.884C74.2708 637.014 74.5306 637.137 74.8655 637.253C75.2005 637.369 75.6277 637.485 76.1473 637.602C77.0565 637.807 77.805 638.053 78.3929 638.34C78.9808 638.627 79.4183 638.979 79.7054 639.396C79.9925 639.813 80.136 640.319 80.136 640.914C80.136 641.399 80.0335 641.843 79.8284 642.247C79.6302 642.65 79.3397 642.999 78.9568 643.292C78.5809 643.58 78.1297 643.805 77.6033 643.969C77.0838 644.126 76.4993 644.205 75.8499 644.205C74.8724 644.205 74.0452 644.031 73.3685 643.682C72.6917 643.333 72.179 642.882 71.8304 642.329C71.4818 641.775 71.3074 641.19 71.3074 640.575H73.2147C73.242 641.095 73.3924 641.508 73.6658 641.816C73.9393 642.117 74.2742 642.332 74.6707 642.462C75.0672 642.585 75.4603 642.646 75.8499 642.646C76.3694 642.646 76.8035 642.578 77.1522 642.441C77.5076 642.305 77.7776 642.117 77.9622 641.877C78.1468 641.638 78.2391 641.365 78.2391 641.057Z" fill="#1D1B20"/>
<rect x="95.7374" y="614" width="29.5354" height="46" rx="6" fill="#F7F2FA"/>
<path d="M113.017 641.847V628.25H114.925V644H113.181L113.017 641.847ZM105.552 638.576V638.36C105.552 637.513 105.655 636.744 105.86 636.053C106.072 635.356 106.369 634.758 106.752 634.259C107.142 633.76 107.603 633.377 108.136 633.11C108.677 632.837 109.278 632.7 109.941 632.7C110.638 632.7 111.247 632.823 111.766 633.069C112.293 633.309 112.737 633.661 113.099 634.125C113.469 634.583 113.759 635.137 113.971 635.787C114.183 636.436 114.33 637.171 114.412 637.991V638.935C114.337 639.748 114.19 640.479 113.971 641.129C113.759 641.778 113.469 642.332 113.099 642.79C112.737 643.248 112.293 643.6 111.766 643.846C111.24 644.085 110.625 644.205 109.921 644.205C109.271 644.205 108.677 644.065 108.136 643.785C107.603 643.504 107.142 643.111 106.752 642.605C106.369 642.1 106.072 641.505 105.86 640.821C105.655 640.131 105.552 639.382 105.552 638.576ZM107.46 638.36V638.576C107.46 639.129 107.514 639.649 107.624 640.134C107.74 640.62 107.918 641.047 108.157 641.416C108.396 641.785 108.7 642.076 109.07 642.288C109.439 642.493 109.88 642.595 110.392 642.595C111.021 642.595 111.537 642.462 111.941 642.195C112.351 641.929 112.679 641.577 112.925 641.139C113.171 640.702 113.363 640.227 113.499 639.714V637.243C113.417 636.867 113.298 636.504 113.14 636.156C112.99 635.8 112.792 635.486 112.546 635.212C112.306 634.932 112.009 634.71 111.654 634.546C111.305 634.382 110.891 634.3 110.413 634.3C109.893 634.3 109.446 634.409 109.07 634.628C108.7 634.84 108.396 635.134 108.157 635.51C107.918 635.879 107.74 636.31 107.624 636.802C107.514 637.287 107.46 637.807 107.46 638.36Z" fill="#1D1B20"/>
<rect x="130.485" y="614" width="29.5354" height="46" rx="6" fill="#F7F2FA"/>
<path d="M145.878 644H143.981V631.736C143.981 630.937 144.125 630.263 144.412 629.716C144.706 629.163 145.126 628.746 145.673 628.465C146.22 628.178 146.869 628.035 147.621 628.035C147.84 628.035 148.059 628.048 148.278 628.076C148.503 628.103 148.722 628.144 148.934 628.199L148.831 629.747C148.688 629.713 148.524 629.689 148.339 629.675C148.161 629.662 147.984 629.655 147.806 629.655C147.403 629.655 147.054 629.737 146.76 629.901C146.473 630.058 146.254 630.291 146.104 630.598C145.953 630.906 145.878 631.285 145.878 631.736V644ZM148.237 632.905V634.361H142.228V632.905H148.237Z" fill="#1D1B20"/>
<rect x="165.232" y="614" width="29.5354" height="46" rx="6" fill="#F7F2FA"/>
<path d="M182.738 632.905H184.461V643.764C184.461 644.742 184.262 645.576 183.866 646.266C183.469 646.957 182.916 647.479 182.205 647.835C181.501 648.197 180.687 648.378 179.764 648.378C179.381 648.378 178.93 648.317 178.411 648.194C177.898 648.078 177.392 647.876 176.893 647.589C176.401 647.309 175.987 646.929 175.652 646.451L176.647 645.323C177.112 645.883 177.597 646.273 178.103 646.492C178.616 646.71 179.122 646.82 179.621 646.82C180.222 646.82 180.742 646.707 181.179 646.481C181.617 646.256 181.955 645.921 182.194 645.477C182.441 645.039 182.564 644.499 182.564 643.856V635.346L182.738 632.905ZM175.099 638.576V638.36C175.099 637.513 175.198 636.744 175.396 636.053C175.601 635.356 175.892 634.758 176.268 634.259C176.651 633.76 177.112 633.377 177.652 633.11C178.192 632.837 178.8 632.7 179.477 632.7C180.174 632.7 180.783 632.823 181.302 633.069C181.829 633.309 182.273 633.661 182.635 634.125C183.005 634.583 183.295 635.137 183.507 635.787C183.719 636.436 183.866 637.171 183.948 637.991V638.935C183.873 639.748 183.726 640.479 183.507 641.129C183.295 641.778 183.005 642.332 182.635 642.79C182.273 643.248 181.829 643.6 181.302 643.846C180.776 644.085 180.161 644.205 179.457 644.205C178.794 644.205 178.192 644.065 177.652 643.785C177.119 643.504 176.661 643.111 176.278 642.605C175.895 642.1 175.601 641.505 175.396 640.821C175.198 640.131 175.099 639.382 175.099 638.576ZM176.996 638.36V638.576C176.996 639.129 177.05 639.649 177.16 640.134C177.276 640.62 177.45 641.047 177.683 641.416C177.922 641.785 178.226 642.076 178.595 642.288C178.964 642.493 179.405 642.595 179.918 642.595C180.547 642.595 181.067 642.462 181.477 642.195C181.887 641.929 182.212 641.577 182.451 641.139C182.697 640.702 182.888 640.227 183.025 639.714V637.243C182.95 636.867 182.834 636.504 182.676 636.156C182.526 635.8 182.328 635.486 182.082 635.212C181.842 634.932 181.545 634.71 181.19 634.546C180.834 634.382 180.417 634.3 179.939 634.3C179.419 634.3 178.971 634.409 178.595 634.628C178.226 634.84 177.922 635.134 177.683 635.51C177.45 635.879 177.276 636.31 177.16 636.802C177.05 637.287 176.996 637.807 176.996 638.36Z" fill="#1D1B20"/>
<rect x="199.98" y="614" width="29.5354" height="46" rx="6" fill="#F7F2FA"/>
<path d="M212.307 628.25V644H210.41V628.25H212.307ZM211.856 638.032L211.066 638.001C211.073 637.243 211.186 636.542 211.405 635.899C211.624 635.25 211.931 634.686 212.328 634.208C212.724 633.729 213.196 633.36 213.743 633.1C214.296 632.833 214.908 632.7 215.578 632.7C216.125 632.7 216.617 632.775 217.055 632.926C217.492 633.069 217.865 633.302 218.172 633.623C218.487 633.944 218.726 634.361 218.89 634.874C219.054 635.38 219.136 635.999 219.136 636.73V644H217.229V636.709C217.229 636.128 217.144 635.664 216.973 635.315C216.802 634.959 216.552 634.703 216.224 634.546C215.896 634.382 215.493 634.3 215.014 634.3C214.543 634.3 214.112 634.399 213.722 634.597C213.339 634.795 213.008 635.069 212.728 635.417C212.454 635.766 212.239 636.166 212.082 636.617C211.931 637.062 211.856 637.533 211.856 638.032Z" fill="#1D1B20"/>
<rect x="234.727" y="614" width="29.5354" height="46" rx="6" fill="#F7F2FA"/>
<path d="M248.48 632.905H250.387V645.323C250.387 646 250.278 646.574 250.059 647.045C249.847 647.517 249.526 647.873 249.095 648.112C248.671 648.358 248.135 648.481 247.485 648.481C247.314 648.481 247.116 648.464 246.891 648.43C246.658 648.396 246.463 648.354 246.306 648.307L246.316 646.779C246.446 646.806 246.593 646.827 246.757 646.84C246.921 646.861 247.065 646.871 247.188 646.871C247.468 646.871 247.704 646.82 247.896 646.717C248.087 646.615 248.23 646.451 248.326 646.225C248.429 646 248.48 645.699 248.48 645.323V632.905ZM248.285 629.962C248.285 629.655 248.381 629.395 248.572 629.183C248.764 628.971 249.041 628.865 249.403 628.865C249.772 628.865 250.052 628.971 250.244 629.183C250.435 629.395 250.531 629.655 250.531 629.962C250.531 630.256 250.435 630.509 250.244 630.721C250.052 630.926 249.772 631.029 249.403 631.029C249.041 631.029 248.764 630.926 248.572 630.721C248.381 630.509 248.285 630.256 248.285 629.962Z" fill="#1D1B20"/>
<rect x="269.475" y="614" width="29.5354" height="46" rx="6" fill="#F7F2FA"/>
<path d="M282.274 628.25V644H280.367V628.25H282.274ZM289.052 632.905L284.212 638.083L281.505 640.893L281.351 638.873L283.289 636.556L286.734 632.905H289.052ZM287.319 644L283.361 638.709L284.345 637.017L289.554 644H287.319Z" fill="#1D1B20"/>
<rect x="304.222" y="614" width="29.5354" height="46" rx="6" fill="#F7F2FA"/>
<path d="M319.944 628.25V644H318.036V628.25H319.944Z" fill="#1D1B20"/>
<rect x="8" y="672" width="47.7778" height="46" rx="6" fill="#E6E0E9"/>
<path fill-rule="evenodd" clip-rule="evenodd" d="M39.6719 695.94C40.6019 695.94 41.0283 694.782 40.3202 694.179L31.8888 687L23.4575 694.179C22.7493 694.782 23.1757 695.94 24.1058 695.94H26.6388V702C26.6388 702.552 27.0865 703 27.6388 703H36.1388C36.6911 703 37.1388 702.552 37.1388 702V695.94H39.6719Z" stroke="#49454F" stroke-width="2"/>
<rect x="60.9899" y="672" width="29.5354" height="46" rx="6" fill="#F7F2FA"/>
<path d="M80.2591 700.441V702H72.1893V700.441H80.2591ZM79.9617 692.249L72.6199 702H71.4612V700.605L78.7518 690.905H79.9617V692.249ZM79.1209 690.905V692.474H71.5433V690.905H79.1209Z" fill="#1D1B20"/>
<rect x="95.7374" y="672" width="29.5354" height="46" rx="6" fill="#F7F2FA"/>
<path d="M108.024 690.905L110.454 694.945L112.915 690.905H115.14L111.51 696.381L115.253 702H113.058L110.495 697.837L107.931 702H105.727L109.459 696.381L105.84 690.905H108.024Z" fill="#1D1B20"/>
<rect x="130.485" y="672" width="29.5354" height="46" rx="6" fill="#F7F2FA"/>
<path d="M145.642 700.646C146.093 700.646 146.51 700.554 146.893 700.37C147.276 700.185 147.591 699.932 147.837 699.611C148.083 699.283 148.223 698.91 148.257 698.493H150.062C150.028 699.149 149.805 699.761 149.395 700.329C148.992 700.889 148.462 701.344 147.806 701.692C147.15 702.034 146.428 702.205 145.642 702.205C144.808 702.205 144.08 702.058 143.458 701.764C142.843 701.47 142.33 701.067 141.92 700.554C141.517 700.042 141.213 699.454 141.008 698.791C140.809 698.121 140.71 697.413 140.71 696.668V696.237C140.71 695.492 140.809 694.788 141.008 694.125C141.213 693.455 141.517 692.864 141.92 692.351C142.33 691.838 142.843 691.435 143.458 691.141C144.08 690.847 144.808 690.7 145.642 690.7C146.51 690.7 147.269 690.878 147.919 691.233C148.568 691.582 149.077 692.061 149.446 692.669C149.822 693.271 150.028 693.954 150.062 694.72H148.257C148.223 694.262 148.093 693.848 147.867 693.479C147.649 693.11 147.348 692.816 146.965 692.597C146.589 692.372 146.148 692.259 145.642 692.259C145.061 692.259 144.572 692.375 144.176 692.607C143.786 692.833 143.475 693.141 143.243 693.53C143.017 693.913 142.853 694.34 142.751 694.812C142.655 695.277 142.607 695.752 142.607 696.237V696.668C142.607 697.153 142.655 697.632 142.751 698.104C142.846 698.575 143.007 699.002 143.233 699.385C143.465 699.768 143.776 700.076 144.166 700.308C144.562 700.534 145.054 700.646 145.642 700.646Z" fill="#1D1B20"/>
<rect x="165.232" y="672" width="29.5354" height="46" rx="6" fill="#F7F2FA"/>
<path d="M179.734 700.288L182.769 690.905H184.707L180.718 702H179.446L179.734 700.288ZM177.201 690.905L180.328 700.339L180.544 702H179.272L175.253 690.905H177.201Z" fill="#1D1B20"/>
<rect x="199.98" y="672" width="29.5354" height="46" rx="6" fill="#F7F2FA"/>
<path d="M210.287 686.25H212.194V699.847L212.03 702H210.287V686.25ZM219.69 696.36V696.576C219.69 697.382 219.594 698.131 219.403 698.821C219.211 699.505 218.931 700.1 218.562 700.605C218.193 701.111 217.742 701.504 217.209 701.785C216.675 702.065 216.064 702.205 215.373 702.205C214.669 702.205 214.05 702.085 213.517 701.846C212.991 701.6 212.546 701.248 212.184 700.79C211.822 700.332 211.531 699.778 211.313 699.129C211.101 698.479 210.954 697.748 210.872 696.935V695.991C210.954 695.171 211.101 694.436 211.313 693.787C211.531 693.137 211.822 692.583 212.184 692.125C212.546 691.661 212.991 691.309 213.517 691.069C214.044 690.823 214.655 690.7 215.353 690.7C216.05 690.7 216.669 690.837 217.209 691.11C217.749 691.377 218.2 691.76 218.562 692.259C218.931 692.758 219.211 693.356 219.403 694.053C219.594 694.744 219.69 695.513 219.69 696.36ZM217.783 696.576V696.36C217.783 695.807 217.732 695.287 217.629 694.802C217.526 694.31 217.362 693.879 217.137 693.51C216.911 693.134 216.614 692.84 216.245 692.628C215.876 692.409 215.421 692.3 214.881 692.3C214.402 692.3 213.985 692.382 213.63 692.546C213.281 692.71 212.984 692.932 212.738 693.212C212.492 693.486 212.29 693.8 212.133 694.156C211.982 694.504 211.87 694.867 211.794 695.243V697.714C211.904 698.192 212.082 698.654 212.328 699.098C212.581 699.536 212.916 699.895 213.333 700.175C213.756 700.455 214.279 700.595 214.901 700.595C215.414 700.595 215.852 700.493 216.214 700.288C216.583 700.076 216.88 699.785 217.106 699.416C217.338 699.047 217.509 698.62 217.619 698.134C217.728 697.649 217.783 697.129 217.783 696.576Z" fill="#1D1B20"/>
<rect x="234.727" y="672" width="29.5354" height="46" rx="6" fill="#F7F2FA"/>
<path d="M247.034 693.274V702H245.137V690.905H246.932L247.034 693.274ZM246.583 696.032L245.793 696.001C245.8 695.243 245.913 694.542 246.132 693.899C246.351 693.25 246.658 692.686 247.055 692.208C247.451 691.729 247.923 691.36 248.47 691.1C249.023 690.833 249.635 690.7 250.305 690.7C250.852 690.7 251.344 690.775 251.782 690.926C252.219 691.069 252.592 691.302 252.899 691.623C253.214 691.944 253.453 692.361 253.617 692.874C253.781 693.38 253.863 693.999 253.863 694.73V702H251.956V694.709C251.956 694.128 251.871 693.664 251.7 693.315C251.529 692.959 251.279 692.703 250.951 692.546C250.623 692.382 250.22 692.3 249.741 692.3C249.27 692.3 248.839 692.399 248.449 692.597C248.066 692.795 247.735 693.069 247.455 693.417C247.181 693.766 246.966 694.166 246.809 694.617C246.658 695.062 246.583 695.533 246.583 696.032Z" fill="#1D1B20"/>
<rect x="269.475" y="672" width="29.5354" height="46" rx="6" fill="#F7F2FA"/>
<path d="M278.367 693.11V702H276.46V690.905H278.265L278.367 693.11ZM277.977 696.032L277.096 696.001C277.102 695.243 277.202 694.542 277.393 693.899C277.584 693.25 277.868 692.686 278.244 692.208C278.62 691.729 279.088 691.36 279.649 691.1C280.209 690.833 280.859 690.7 281.597 690.7C282.117 690.7 282.595 690.775 283.033 690.926C283.47 691.069 283.85 691.298 284.171 691.613C284.492 691.927 284.742 692.331 284.919 692.823C285.097 693.315 285.186 693.91 285.186 694.607V702H283.289V694.699C283.289 694.118 283.19 693.653 282.992 693.305C282.8 692.956 282.527 692.703 282.171 692.546C281.816 692.382 281.399 692.3 280.92 692.3C280.36 692.3 279.892 692.399 279.516 692.597C279.14 692.795 278.839 693.069 278.613 693.417C278.388 693.766 278.224 694.166 278.121 694.617C278.025 695.062 277.977 695.533 277.977 696.032ZM285.165 694.986L283.894 695.376C283.901 694.768 284 694.183 284.191 693.623C284.39 693.062 284.673 692.563 285.042 692.125C285.418 691.688 285.88 691.343 286.427 691.09C286.974 690.83 287.599 690.7 288.303 690.7C288.898 690.7 289.424 690.779 289.882 690.936C290.347 691.093 290.737 691.336 291.051 691.664C291.372 691.985 291.615 692.399 291.779 692.905C291.943 693.411 292.025 694.012 292.025 694.709V702H290.118V694.689C290.118 694.067 290.019 693.585 289.821 693.243C289.629 692.895 289.356 692.652 289 692.515C288.652 692.372 288.235 692.3 287.749 692.3C287.332 692.3 286.963 692.372 286.642 692.515C286.321 692.659 286.051 692.857 285.832 693.11C285.613 693.356 285.446 693.64 285.33 693.961C285.22 694.282 285.165 694.624 285.165 694.986Z" fill="#1D1B20"/>
<rect x="304.222" y="672" width="47.7778" height="46" rx="6" fill="#E6E0E9"/>
<path fill-rule="evenodd" clip-rule="evenodd" d="M323.659 686H337.3C338.86 686 340.111 687.231 340.111 688.737V701.263C340.111 702.769 338.86 704 337.3 704H323.659C322.711 704 321.903 703.536 321.375 702.771L316.111 694.996L321.38 687.213C321.902 686.457 322.711 686 323.659 686ZM338.128 688.737C338.128 688.265 337.752 687.895 337.301 687.895H323.66C323.411 687.895 323.208 688.01 323.042 688.249L318.475 694.995L318.127 694.481V695.51L318.475 694.995L323.038 701.735C323.212 701.987 323.418 702.105 323.66 702.105H337.301C337.752 702.105 338.128 701.735 338.128 701.263V688.737Z" fill="#49454F"/>
<path fill-rule="evenodd" clip-rule="evenodd" d="M334.658 698.013L333.346 699.264L330.021 696.094L326.697 699.264L325.385 698.013L328.709 694.843L325.385 691.673L326.697 690.422L330.021 693.592L333.346 690.422L334.658 691.673L331.333 694.843L334.658 698.013Z" fill="#49454F"/>
<rect x="8" y="730" width="47.7778" height="46" rx="23" fill="#E8DEF8"/>
<path d="M20.3196 755.067H18.7952C18.7997 754.644 18.8362 754.288 18.9045 754.001C18.9729 753.709 19.0868 753.445 19.2463 753.208C19.4104 752.971 19.6269 752.72 19.8958 752.456C20.1054 752.256 20.2945 752.066 20.4631 751.889C20.6318 751.706 20.7662 751.515 20.8665 751.314C20.9667 751.109 21.0168 750.875 21.0168 750.61C21.0168 750.323 20.969 750.079 20.8733 749.879C20.7776 749.678 20.6363 749.526 20.4495 749.421C20.2672 749.316 20.0393 749.264 19.7659 749.264C19.538 749.264 19.3238 749.309 19.1233 749.4C18.9228 749.487 18.761 749.624 18.6379 749.811C18.5149 749.993 18.4488 750.234 18.4397 750.535H16.7922C16.8014 749.961 16.9381 749.478 17.2024 749.086C17.4667 748.694 17.8222 748.4 18.2688 748.204C18.7154 748.008 19.2144 747.91 19.7659 747.91C20.3765 747.91 20.8984 748.015 21.3313 748.225C21.7642 748.43 22.0946 748.73 22.3225 749.127C22.5549 749.519 22.6711 749.993 22.6711 750.549C22.6711 750.95 22.5914 751.314 22.4319 751.643C22.2724 751.966 22.065 752.269 21.8098 752.552C21.5546 752.83 21.2789 753.108 20.9827 753.386C20.7275 753.618 20.5543 753.871 20.4631 754.145C20.372 754.413 20.3241 754.721 20.3196 755.067ZM18.6584 757.2C18.6584 756.954 18.7428 756.747 18.9114 756.578C19.08 756.405 19.3101 756.318 19.6018 756.318C19.8935 756.318 20.1236 756.405 20.2922 756.578C20.4609 756.747 20.5452 756.954 20.5452 757.2C20.5452 757.446 20.4609 757.656 20.2922 757.829C20.1236 757.998 19.8935 758.082 19.6018 758.082C19.3101 758.082 19.08 757.998 18.9114 757.829C18.7428 757.656 18.6584 757.446 18.6584 757.2ZM28.4475 748.013V758H26.8V749.968L24.3596 750.795V749.435L28.2493 748.013H28.4475ZM38.5784 756.688V758H31.9065V756.872L35.1467 753.338C35.5022 752.937 35.7825 752.59 35.9875 752.299C36.1926 752.007 36.3362 751.745 36.4182 751.513C36.5048 751.276 36.5481 751.046 36.5481 750.822C36.5481 750.508 36.4889 750.232 36.3704 749.995C36.2564 749.754 36.0878 749.564 35.8645 749.428C35.6412 749.286 35.37 749.216 35.051 749.216C34.6819 749.216 34.372 749.296 34.1213 749.455C33.8707 749.615 33.6816 749.836 33.554 750.118C33.4264 750.396 33.3625 750.715 33.3625 751.075H31.7151C31.7151 750.496 31.8472 749.968 32.1116 749.489C32.3759 749.006 32.7587 748.623 33.26 748.341C33.7613 748.054 34.3652 747.91 35.0715 747.91C35.7369 747.91 36.302 748.022 36.7668 748.245C37.2317 748.468 37.5849 748.785 37.8264 749.195C38.0725 749.605 38.1956 750.091 38.1956 750.651C38.1956 750.961 38.1454 751.269 38.0452 751.574C37.9449 751.88 37.8014 752.185 37.6145 752.49C37.4322 752.791 37.2157 753.094 36.9651 753.399C36.7144 753.7 36.4387 754.006 36.1379 754.315L33.9846 756.688H38.5784ZM41.7981 752.278H42.7825C43.1653 752.278 43.482 752.212 43.7327 752.08C43.9879 751.948 44.177 751.766 44.3 751.533C44.4231 751.301 44.4846 751.034 44.4846 750.733C44.4846 750.419 44.4277 750.15 44.3137 749.927C44.2043 749.699 44.0357 749.523 43.8079 749.4C43.5846 749.277 43.2997 749.216 42.9534 749.216C42.6617 749.216 42.3974 749.275 42.1604 749.394C41.928 749.507 41.7434 749.672 41.6067 749.886C41.47 750.095 41.4016 750.346 41.4016 750.638H39.7473C39.7473 750.109 39.8863 749.64 40.1643 749.229C40.4423 748.819 40.8206 748.498 41.2991 748.266C41.7821 748.029 42.3245 747.91 42.926 747.91C43.5686 747.91 44.1292 748.017 44.6077 748.231C45.0907 748.441 45.4667 748.756 45.7356 749.175C46.0045 749.594 46.1389 750.114 46.1389 750.733C46.1389 751.016 46.0728 751.303 45.9407 751.595C45.8085 751.886 45.6125 752.153 45.3528 752.395C45.093 752.632 44.7694 752.825 44.3821 752.976C43.9947 753.121 43.5458 753.194 43.0354 753.194H41.7981V752.278ZM41.7981 753.563V752.661H43.0354C43.6187 752.661 44.1155 752.729 44.5256 752.866C44.9403 753.003 45.2776 753.192 45.5374 753.434C45.7971 753.671 45.9862 753.942 46.1047 754.247C46.2278 754.552 46.2893 754.876 46.2893 755.218C46.2893 755.683 46.205 756.097 46.0364 756.462C45.8723 756.822 45.6376 757.127 45.3323 757.378C45.0269 757.629 44.6692 757.818 44.259 757.945C43.8534 758.073 43.4114 758.137 42.9329 758.137C42.5045 758.137 42.0943 758.077 41.7024 757.959C41.3105 757.84 40.9596 757.665 40.6497 757.433C40.3398 757.196 40.0937 756.902 39.9114 756.551C39.7336 756.195 39.6448 755.785 39.6448 755.32H41.2922C41.2922 755.617 41.3606 755.879 41.4973 756.106C41.6386 756.33 41.8346 756.505 42.0852 756.633C42.3404 756.76 42.6321 756.824 42.9602 756.824C43.3066 756.824 43.6051 756.763 43.8557 756.64C44.1064 756.517 44.2978 756.334 44.4299 756.093C44.5667 755.851 44.635 755.56 44.635 755.218C44.635 754.83 44.5598 754.516 44.4094 754.274C44.259 754.033 44.0448 753.855 43.7668 753.741C43.4889 753.623 43.1607 753.563 42.7825 753.563H41.7981Z" fill="#4A4459"/>
<rect x="60.9899" y="730" width="29.5354" height="46" rx="6" fill="#E6E0E9"/>
<path d="M76.8548 761.744V763.272C76.8548 763.894 76.6976 764.55 76.3831 765.241C76.0687 765.938 75.6277 766.519 75.0604 766.984L73.9837 766.235C74.2025 765.935 74.387 765.627 74.5374 765.312C74.6878 765.005 74.8006 764.684 74.8758 764.349C74.9578 764.021 74.9988 763.672 74.9988 763.303V761.744H76.8548Z" fill="#49454F"/>
<path fill-rule="evenodd" clip-rule="evenodd" d="M75.7578 741.2C73.1112 741.2 70.9578 743.354 70.9578 746C70.9578 748.647 73.1112 750.8 75.7578 750.8C78.4045 750.8 80.5579 748.647 80.5579 746C80.5579 743.354 78.4045 741.2 75.7578 741.2ZM75.7576 752C72.4492 752 69.7576 749.308 69.7576 746C69.7576 742.692 72.4492 740 75.7576 740C79.066 740 81.7576 742.692 81.7576 746C81.7576 749.308 79.066 752 75.7576 752Z" fill="#49454F"/>
<path d="M77.4553 747.579C77.6476 747.361 77.9797 747.341 78.1965 747.533C78.4134 747.726 78.4334 748.057 78.2415 748.274C77.61 748.988 76.7013 749.397 75.7483 749.397C74.7952 749.397 73.8866 748.988 73.2551 748.274C73.0631 748.057 73.0832 747.726 73.3 747.533C73.5172 747.341 73.849 747.362 74.0413 747.579C74.4733 748.067 75.0958 748.348 75.7483 748.348C76.4008 748.348 77.0233 748.067 77.4553 747.579ZM73.6487 744.2C74.1458 744.2 74.5491 744.603 74.5491 745.101C74.549 745.598 74.1458 746.001 73.6487 746.001C73.1515 746.001 72.7484 745.598 72.7483 745.101C72.7483 744.603 73.1515 744.2 73.6487 744.2ZM77.8489 744.2C78.346 744.2 78.7493 744.603 78.7493 745.101C78.7492 745.598 78.346 746.001 77.8489 746.001C77.3517 746.001 76.9486 745.598 76.9485 745.101C76.9485 744.603 77.3517 744.2 77.8489 744.2Z" fill="#49454F"/>
<rect x="95.7374" y="730" width="29.5354" height="46" rx="6" fill="#F7F2FA"/>
<path d="M110.505 763C109.138 763 107.847 762.737 106.63 762.212C105.413 761.688 104.351 760.971 103.443 760.062C102.534 759.154 101.818 758.092 101.293 756.875C100.768 755.658 100.505 754.367 100.505 753C100.505 751.617 100.768 750.321 101.293 749.113C101.818 747.904 102.534 746.846 103.443 745.938C104.351 745.029 105.413 744.312 106.63 743.788C107.847 743.262 109.138 743 110.505 743C111.888 743 113.184 743.262 114.393 743.788C115.601 744.312 116.659 745.029 117.568 745.938C118.476 746.846 119.193 747.904 119.718 749.113C120.243 750.321 120.505 751.617 120.505 753C120.505 754.367 120.243 755.658 119.718 756.875C119.193 758.092 118.476 759.154 117.568 760.062C116.659 760.971 115.601 761.688 114.393 762.212C113.184 762.737 111.888 763 110.505 763ZM110.505 760.95C110.938 760.35 111.313 759.725 111.63 759.075C111.947 758.425 112.205 757.733 112.405 757H108.605C108.805 757.733 109.063 758.425 109.38 759.075C109.697 759.725 110.072 760.35 110.505 760.95ZM107.905 760.55C107.605 760 107.343 759.429 107.118 758.838C106.893 758.246 106.705 757.633 106.555 757H103.605C104.088 757.833 104.693 758.558 105.418 759.175C106.143 759.792 106.972 760.25 107.905 760.55ZM113.105 760.55C114.038 760.25 114.868 759.792 115.593 759.175C116.318 758.558 116.922 757.833 117.405 757H114.455C114.305 757.633 114.118 758.246 113.893 758.838C113.668 759.429 113.405 760 113.105 760.55ZM102.755 755H106.155C106.105 754.667 106.068 754.337 106.043 754.012C106.018 753.688 106.005 753.35 106.005 753C106.005 752.65 106.018 752.312 106.043 751.988C106.068 751.663 106.105 751.333 106.155 751H102.755C102.672 751.333 102.609 751.663 102.568 751.988C102.526 752.312 102.505 752.65 102.505 753C102.505 753.35 102.526 753.688 102.568 754.012C102.609 754.337 102.672 754.667 102.755 755ZM108.155 755H112.855C112.905 754.667 112.943 754.337 112.968 754.012C112.993 753.688 113.005 753.35 113.005 753C113.005 752.65 112.993 752.312 112.968 751.988C112.943 751.663 112.905 751.333 112.855 751H108.155C108.105 751.333 108.068 751.663 108.043 751.988C108.018 752.312 108.005 752.65 108.005 753C108.005 753.35 108.018 753.688 108.043 754.012C108.068 754.337 108.105 754.667 108.155 755ZM114.855 755H118.255C118.338 754.667 118.401 754.337 118.443 754.012C118.484 753.688 118.505 753.35 118.505 753C118.505 752.65 118.484 752.312 118.443 751.988C118.401 751.663 118.338 751.333 118.255 751H114.855C114.905 751.333 114.943 751.663 114.968 751.988C114.993 752.312 115.005 752.65 115.005 753C115.005 753.35 114.993 753.688 114.968 754.012C114.943 754.337 114.905 754.667 114.855 755ZM114.455 749H117.405C116.922 748.167 116.318 747.442 115.593 746.825C114.868 746.208 114.038 745.75 113.105 745.45C113.405 746 113.668 746.571 113.893 747.162C114.118 747.754 114.305 748.367 114.455 749ZM108.605 749H112.405C112.205 748.267 111.947 747.575 111.63 746.925C111.313 746.275 110.938 745.65 110.505 745.05C110.072 745.65 109.697 746.275 109.38 746.925C109.063 747.575 108.805 748.267 108.605 749ZM103.605 749H106.555C106.705 748.367 106.893 747.754 107.118 747.162C107.343 746.571 107.605 746 107.905 745.45C106.972 745.75 106.143 746.208 105.418 746.825C104.693 747.442 104.088 748.167 103.605 749Z" fill="#1D1B20"/>
<path fill-rule="evenodd" clip-rule="evenodd" d="M130.485 736C130.485 732.686 133.171 730 136.485 730H258.263C261.576 730 264.263 732.686 264.263 736V770C264.263 773.314 261.576 776 258.263 776H217.281H136.485C133.171 776 130.485 773.314 130.485 770V736Z" fill="#F7F2FA"/>
<rect x="269.475" y="730" width="29.5354" height="46" rx="6" fill="#E6E0E9"/>
<path d="M282.951 759.495C282.951 759.174 283.05 758.904 283.248 758.685C283.453 758.459 283.747 758.347 284.13 758.347C284.513 758.347 284.803 758.459 285.001 758.685C285.206 758.904 285.309 759.174 285.309 759.495C285.309 759.81 285.206 760.076 285.001 760.295C284.803 760.514 284.513 760.623 284.13 760.623C283.747 760.623 283.453 760.514 283.248 760.295C283.05 760.076 282.951 759.81 282.951 759.495Z" fill="#49454F"/>
<rect x="304.222" y="730" width="47.7778" height="46" rx="23" fill="#D0BCFF"/>
<path d="M325.111 759L319.111 753L325.111 747L326.511 748.4L322.911 752H335.111V748H337.111V754H322.911L326.511 757.6L325.111 759Z" fill="#4F378A"/>
<rect x="8" y="513" width="26" height="26" rx="13" fill="#EADDFF"/>
<path d="M20.4 526L25 530.6L23.6 532L17.6 526L23.6 520L25 521.4L20.4 526Z" fill="#4F378A"/>
<path d="M69.1429 521H71.7143V531.286H69.1429V521ZM64.8571 521H59.7143C58.6857 521 58 521.857 58 522.714V529.571C58 530.429 58.6857 531.286 59.7143 531.286H64.8571C65.8857 531.286 66.5714 530.429 66.5714 529.571V526.143H64V528.714H60.5714V523.571H66.5714V522.714C66.5714 521.857 65.8857 521 64.8571 521ZM82 523.571V521H74.2857V531.286H76.8571V527.857H80.2857V525.286H76.8571V523.571H82Z" fill="#1D1B20"/>
<path d="M113.583 536L113.183 532.8C112.967 532.717 112.763 532.617 112.571 532.5C112.379 532.383 112.192 532.258 112.008 532.125L109.033 533.375L106.283 528.625L108.858 526.675C108.842 526.558 108.833 526.446 108.833 526.338V525.663C108.833 525.554 108.842 525.442 108.858 525.325L106.283 523.375L109.033 518.625L112.008 519.875C112.192 519.742 112.383 519.617 112.583 519.5C112.783 519.383 112.983 519.283 113.183 519.2L113.583 516H119.083L119.483 519.2C119.7 519.283 119.904 519.383 120.096 519.5C120.288 519.617 120.475 519.742 120.658 519.875L123.633 518.625L126.383 523.375L123.808 525.325C123.825 525.442 123.833 525.554 123.833 525.663V526.338C123.833 526.446 123.817 526.558 123.783 526.675L126.358 528.625L123.608 533.375L120.658 532.125C120.475 532.258 120.283 532.383 120.083 532.5C119.883 532.617 119.683 532.717 119.483 532.8L119.083 536H113.583ZM116.383 529.5C117.35 529.5 118.175 529.158 118.858 528.475C119.542 527.792 119.883 526.967 119.883 526C119.883 525.033 119.542 524.208 118.858 523.525C118.175 522.842 117.35 522.5 116.383 522.5C115.4 522.5 114.571 522.842 113.896 523.525C113.221 524.208 112.883 525.033 112.883 526C112.883 526.967 113.221 527.792 113.896 528.475C114.571 529.158 115.4 529.5 116.383 529.5Z" fill="#1D1B20"/>
<path d="M162.667 536L161.667 533H154.667C154.117 533 153.646 532.804 153.254 532.413C152.863 532.021 152.667 531.55 152.667 531V518C152.667 517.45 152.863 516.979 153.254 516.588C153.646 516.196 154.117 516 154.667 516H160.667L161.542 519H170.667C171.25 519 171.729 519.188 172.104 519.562C172.479 519.938 172.667 520.417 172.667 521V534C172.667 534.55 172.479 535.021 172.104 535.413C171.729 535.804 171.25 536 170.667 536H162.667ZM157.817 528.6C158.967 528.6 159.913 528.229 160.654 527.488C161.396 526.746 161.767 525.783 161.767 524.6C161.767 524.467 161.763 524.346 161.754 524.238C161.746 524.129 161.725 524.017 161.692 523.9H157.742V525.45H159.967C159.833 525.917 159.579 526.279 159.204 526.538C158.829 526.796 158.375 526.925 157.842 526.925C157.192 526.925 156.633 526.692 156.167 526.225C155.7 525.758 155.467 525.183 155.467 524.5C155.467 523.817 155.7 523.242 156.167 522.775C156.633 522.308 157.192 522.075 157.842 522.075C158.142 522.075 158.425 522.129 158.692 522.238C158.958 522.346 159.2 522.508 159.417 522.725L160.642 521.55C160.292 521.183 159.871 520.9 159.379 520.7C158.888 520.5 158.367 520.4 157.817 520.4C156.7 520.4 155.746 520.796 154.954 521.588C154.163 522.379 153.767 523.35 153.767 524.5C153.767 525.65 154.163 526.621 154.954 527.413C155.746 528.204 156.7 528.6 157.817 528.6ZM164.517 529.1L165.067 528.575C164.833 528.292 164.621 528.017 164.429 527.75C164.238 527.483 164.05 527.2 163.867 526.9L164.517 529.1ZM165.767 527.825C166.233 527.275 166.588 526.75 166.829 526.25C167.071 525.75 167.233 525.358 167.317 525.075H163.342L163.642 526.125H164.642C164.775 526.375 164.933 526.646 165.117 526.938C165.3 527.229 165.517 527.525 165.767 527.825ZM163.667 535H170.667C170.967 535 171.208 534.904 171.392 534.712C171.575 534.521 171.667 534.283 171.667 534V521C171.667 520.7 171.575 520.458 171.392 520.275C171.208 520.092 170.967 520 170.667 520H161.842L163.017 524.05H164.992V523H166.017V524.05H169.667V525.075H168.392C168.225 525.708 167.975 526.325 167.642 526.925C167.308 527.525 166.917 528.083 166.467 528.6L169.192 531.275L168.467 532L165.767 529.3L164.867 530.225L165.667 533L163.667 535Z" fill="#1D1B20"/>
<path d="M218.25 529.7V519.987C218.25 518.196 216.804 516.75 215.012 516.75H202.987C201.196 516.75 199.75 518.196 199.75 519.987V532.012C199.75 533.804 201.196 535.25 202.987 535.25H212.7L218.25 529.7ZM202.987 533.4C202.222 533.4 201.6 532.778 201.6 532.012V519.987C201.6 519.222 202.222 518.6 202.987 518.6H215.012C215.778 518.6 216.4 519.222 216.4 519.987V528.775H215.012C213.221 528.775 211.775 530.221 211.775 532.012V533.4H202.987ZM206.931 523.948C206.688 523.09 205.796 522.586 204.938 522.83C204.081 523.074 203.576 523.965 203.82 524.831C203.887 525.067 204.005 525.277 204.156 525.453L206.965 524.663C207.007 524.427 206.999 524.184 206.931 523.948ZM212.717 522.317C212.481 521.459 211.582 520.955 210.724 521.198C209.866 521.442 209.362 522.334 209.605 523.2C209.673 523.435 209.79 523.645 209.942 523.822L212.75 523.032C212.792 522.796 212.784 522.552 212.717 522.317ZM213.541 525.21L204.627 527.724C205.83 529.313 207.915 530.087 209.942 529.515C211.968 528.943 213.339 527.186 213.541 525.21Z" fill="#1D1B20"/>
<rect x="253" y="514" width="1" height="24" fill="#CAC4D0"/>
<path d="M280 528C279.45 528 278.979 527.804 278.588 527.413C278.196 527.021 278 526.55 278 526C278 525.45 278.196 524.979 278.588 524.588C278.979 524.196 279.45 524 280 524C280.55 524 281.021 524.196 281.413 524.588C281.804 524.979 282 525.45 282 526C282 526.55 281.804 527.021 281.413 527.413C281.021 527.804 280.55 528 280 528ZM286 528C285.45 528 284.979 527.804 284.588 527.413C284.196 527.021 284 526.55 284 526C284 525.45 284.196 524.979 284.588 524.588C284.979 524.196 285.45 524 286 524C286.55 524 287.021 524.196 287.413 524.588C287.804 524.979 288 525.45 288 526C288 526.55 287.804 527.021 287.413 527.413C287.021 527.804 286.55 528 286 528ZM292 528C291.45 528 290.979 527.804 290.588 527.413C290.196 527.021 290 526.55 290 526C290 525.45 290.196 524.979 290.588 524.588C290.979 524.196 291.45 524 292 524C292.55 524 293.021 524.196 293.413 524.588C293.804 524.979 294 525.45 294 526C294 526.55 293.804 527.021 293.413 527.413C293.021 527.804 292.55 528 292 528Z" fill="#1D1B20"/>
<path d="M340 528C339.167 528 338.458 527.708 337.875 527.125C337.292 526.542 337 525.833 337 525V519C337 518.167 337.292 517.458 337.875 516.875C338.458 516.292 339.167 516 340 516C340.833 516 341.542 516.292 342.125 516.875C342.708 517.458 343 518.167 343 519V525C343 525.833 342.708 526.542 342.125 527.125C341.542 527.708 340.833 528 340 528ZM339 535V531.925C337.267 531.692 335.833 530.917 334.7 529.6C333.567 528.283 333 526.75 333 525H335C335 526.383 335.488 527.562 336.463 528.538C337.438 529.513 338.617 530 340 530C341.383 530 342.562 529.513 343.538 528.538C344.513 527.562 345 526.383 345 525H347C347 526.75 346.433 528.283 345.3 529.6C344.167 530.917 342.733 531.692 341 531.925V535H339Z" fill="#1D1B20"/>
</svg>
