<svg width="360" height="800" viewBox="0 0 360 800" fill="none" xmlns="http://www.w3.org/2000/svg">
<rect width="360" height="800" fill="#F7F8FB"/>
<path d="M33 198C33 193.582 36.5817 190 41 190H319C323.418 190 327 193.582 327 198V244C327 248.418 323.418 252 319 252H41C36.5817 252 33 248.418 33 244V198Z" fill="white"/>
<path d="M41 190V190.5H319V190V189.5H41V190ZM327 198H326.5V244H327H327.5V198H327ZM319 252V251.5H41V252V252.5H319V252ZM33 244H33.5V198H33H32.5V244H33ZM41 252V251.5C36.8579 251.5 33.5 248.142 33.5 244H33H32.5C32.5 248.694 36.3056 252.5 41 252.5V252ZM327 244H326.5C326.5 248.142 323.142 251.5 319 251.5V252V252.5C323.694 252.5 327.5 248.694 327.5 244H327ZM319 190V190.5C323.142 190.5 326.5 193.858 326.5 198H327H327.5C327.5 193.306 323.694 189.5 319 189.5V190ZM41 190V189.5C36.3056 189.5 32.5 193.306 32.5 198H33H33.5C33.5 193.858 36.8579 190.5 41 190.5V190Z" fill="white"/>
<path d="M67.2734 229.758H65.0859V212.082H67.2734V229.758ZM55.6914 217.941H59.9688V213.527H62.1172V225.598H53.5234V213.527H55.6914V217.941ZM59.9688 223.82V219.641H55.6914V223.82H59.9688ZM79.8852 220.363H71.3695V213H79.8852V220.363ZM73.518 218.664H77.7367V214.738H73.518V218.664ZM85.1391 221.066H82.9906V212.082H85.1391V221.066ZM85.1391 226.438H75.6273V227.863H85.6664V229.582H73.4789V224.875H83.0297V223.566H73.4594V221.867H85.1391V226.438ZM103.141 225.129H100.973V218.625H97.4188V222.258H89.157V213.254H91.325V216.105H95.2703V213.254H97.4188V216.867H100.973V212.102H103.141V225.129ZM103.532 229.387H91.5008V223.84H93.7078V227.629H103.532V229.387ZM95.2703 220.539V217.785H91.325V220.539H95.2703ZM121.554 216.203H106.964V214.445H113.195V212.316H115.343V214.445H121.554V216.203ZM122.374 227.844H106.241V226.086H113.195V223.918C112.172 223.833 111.293 223.648 110.558 223.361C109.829 223.068 109.269 222.681 108.878 222.199C108.494 221.711 108.305 221.145 108.312 220.5C108.305 219.797 108.54 219.191 109.015 218.684C109.497 218.169 110.187 217.779 111.085 217.512C111.984 217.238 113.045 217.102 114.269 217.102C115.473 217.102 116.521 217.238 117.413 217.512C118.312 217.779 119.002 218.169 119.484 218.684C119.965 219.191 120.206 219.797 120.206 220.5C120.206 221.138 120.011 221.701 119.62 222.189C119.23 222.671 118.67 223.059 117.941 223.352C117.211 223.638 116.346 223.824 115.343 223.908V226.086H122.374V227.844ZM114.269 218.801C113.051 218.814 112.124 218.964 111.486 219.25C110.848 219.53 110.532 219.947 110.538 220.5C110.532 221.06 110.848 221.483 111.486 221.77C112.124 222.056 113.051 222.206 114.269 222.219C115.467 222.206 116.385 222.056 117.023 221.77C117.661 221.483 117.98 221.06 117.98 220.5C117.98 219.947 117.661 219.53 117.023 219.25C116.385 218.964 115.467 218.814 114.269 218.801ZM144.258 225.129H142.09V220.695H138.535V222.258H130.273V213.254H132.441V216.105H136.387V213.254H138.535V215.148H142.09V212.102H144.258V225.129ZM144.648 229.387H132.617V223.84H134.824V227.629H144.648V229.387ZM136.387 220.539V217.785H132.441V220.539H136.387ZM142.09 218.938V216.906H138.535V218.938H142.09ZM162.143 222.414H159.975V220.461H155.776V218.703H159.975V216.809H155.942C155.388 218.208 154.477 219.4 153.207 220.383C151.944 221.359 150.346 222.115 148.412 222.648L147.534 220.93C149.565 220.376 151.14 219.598 152.26 218.596C153.38 217.593 154.028 216.424 154.204 215.09H148.471V213.332H156.577C156.577 213.964 156.524 214.549 156.42 215.09H159.975V212.102H162.143V222.414ZM156.303 222.609C157.488 222.609 158.53 222.753 159.428 223.039C160.327 223.326 161.023 223.732 161.518 224.26C162.013 224.787 162.26 225.409 162.26 226.125C162.26 226.841 162.013 227.463 161.518 227.99C161.023 228.518 160.327 228.924 159.428 229.211C158.53 229.497 157.488 229.641 156.303 229.641C155.105 229.641 154.054 229.497 153.149 229.211C152.244 228.924 151.544 228.518 151.049 227.99C150.554 227.463 150.307 226.841 150.307 226.125C150.307 225.409 150.554 224.787 151.049 224.26C151.544 223.732 152.244 223.326 153.149 223.039C154.054 222.753 155.105 222.609 156.303 222.609ZM156.303 224.309C155.099 224.309 154.158 224.468 153.481 224.787C152.81 225.1 152.475 225.546 152.475 226.125C152.475 226.698 152.814 227.141 153.491 227.453C154.168 227.766 155.105 227.922 156.303 227.922C157.475 227.922 158.399 227.766 159.077 227.453C159.754 227.141 160.092 226.698 160.092 226.125C160.092 225.546 159.754 225.1 159.077 224.787C158.406 224.468 157.482 224.309 156.303 224.309Z" fill="#757575"/>
<path d="M33 272C33 267.582 36.5817 264 41 264H319C323.418 264 327 267.582 327 272V318C327 322.418 323.418 326 319 326H41C36.5817 326 33 322.418 33 318V272Z" fill="white"/>
<path d="M41 264V264.5H319V264V263.5H41V264ZM327 272H326.5V318H327H327.5V272H327ZM319 326V325.5H41V326V326.5H319V326ZM33 318H33.5V272H33H32.5V318H33ZM41 326V325.5C36.8579 325.5 33.5 322.142 33.5 318H33H32.5C32.5 322.694 36.3056 326.5 41 326.5V326ZM327 318H326.5C326.5 322.142 323.142 325.5 319 325.5V326V326.5C323.694 326.5 327.5 322.694 327.5 318H327ZM319 264V264.5C323.142 264.5 326.5 267.858 326.5 272H327H327.5C327.5 267.306 323.694 263.5 319 263.5V264ZM41 264V263.5C36.3056 263.5 32.5 267.306 32.5 272H33H33.5C33.5 267.858 36.8579 264.5 41 264.5V264Z" fill="white"/>
<path d="M52.3906 302L57.3711 287.859H60.4961L65.4961 302H62.7812L61.5996 298.504H56.2773L55.1055 302H52.3906ZM60.916 296.453L58.9922 290.75H58.875L56.9609 296.453H60.916ZM70.3148 302H67.7758V287.859H70.3148V302ZM92.882 299.051H90.6945V286.102H92.882V299.051ZM93.3703 303.387H81.2023V297.879H83.3898V301.629H93.3703V303.387ZM84.8742 290.203C84.8742 290.906 85.0402 291.583 85.3723 292.234C85.7108 292.879 86.2056 293.452 86.8566 293.953C87.5142 294.448 88.2987 294.826 89.2102 295.086L88.175 296.805C87.1659 296.505 86.2935 296.059 85.5578 295.467C84.8221 294.868 84.246 294.161 83.8293 293.348C83.4257 294.233 82.8495 295.001 82.1008 295.652C81.3586 296.297 80.4732 296.779 79.4445 297.098L78.3898 295.398C79.3078 295.118 80.0891 294.715 80.7336 294.188C81.3846 293.654 81.8762 293.045 82.2082 292.361C82.5402 291.678 82.7062 290.958 82.7062 290.203V289.969H78.9367V288.25H82.7062V286.18H84.8937V288.25H88.6437V289.969H84.8742V290.203ZM110.181 288.738C110.181 289.865 110.155 290.864 110.103 291.736C110.051 292.602 109.921 293.589 109.713 294.695H112.154V296.453H105.142V303.758H102.955V296.453H96.0602V294.695H107.505C107.72 293.628 107.857 292.658 107.916 291.785C107.981 290.913 108.013 289.956 108.013 288.914H97.9547V287.156H110.181V288.738ZM134.077 299.129H131.909V294.695H128.354V296.258H120.092V287.254H122.26V290.105H126.205V287.254H128.354V289.148H131.909V286.102H134.077V299.129ZM134.467 303.387H122.436V297.84H124.643V301.629H134.467V303.387ZM126.205 294.539V291.785H122.26V294.539H126.205ZM131.909 292.938V290.906H128.354V292.938H131.909ZM151.962 296.414H149.794V294.461H145.595V292.703H149.794V290.809H145.761C145.207 292.208 144.296 293.4 143.026 294.383C141.763 295.359 140.165 296.115 138.231 296.648L137.352 294.93C139.384 294.376 140.959 293.598 142.079 292.596C143.199 291.593 143.846 290.424 144.022 289.09H138.29V287.332H146.395C146.395 287.964 146.343 288.549 146.239 289.09H149.794V286.102H151.962V296.414ZM146.122 296.609C147.307 296.609 148.348 296.753 149.247 297.039C150.145 297.326 150.842 297.732 151.337 298.26C151.832 298.787 152.079 299.409 152.079 300.125C152.079 300.841 151.832 301.463 151.337 301.99C150.842 302.518 150.145 302.924 149.247 303.211C148.348 303.497 147.307 303.641 146.122 303.641C144.924 303.641 143.873 303.497 142.968 303.211C142.063 302.924 141.363 302.518 140.868 301.99C140.373 301.463 140.126 300.841 140.126 300.125C140.126 299.409 140.373 298.787 140.868 298.26C141.363 297.732 142.063 297.326 142.968 297.039C143.873 296.753 144.924 296.609 146.122 296.609ZM146.122 298.309C144.917 298.309 143.977 298.468 143.3 298.787C142.629 299.1 142.294 299.546 142.294 300.125C142.294 300.698 142.632 301.141 143.309 301.453C143.986 301.766 144.924 301.922 146.122 301.922C147.294 301.922 148.218 301.766 148.895 301.453C149.572 301.141 149.911 300.698 149.911 300.125C149.911 299.546 149.572 299.1 148.895 298.787C148.225 298.468 147.3 298.309 146.122 298.309Z" fill="#757575"/>
<path d="M33 346C33 341.582 36.5817 338 41 338H319C323.418 338 327 341.582 327 346V392C327 396.418 323.418 400 319 400H41C36.5817 400 33 396.418 33 392V346Z" fill="white"/>
<path d="M41 338V338.5H319V338V337.5H41V338ZM327 346H326.5V392H327H327.5V346H327ZM319 400V399.5H41V400V400.5H319V400ZM33 392H33.5V346H33H32.5V392H33ZM41 400V399.5C36.8579 399.5 33.5 396.142 33.5 392H33H32.5C32.5 396.694 36.3056 400.5 41 400.5V400ZM327 392H326.5C326.5 396.142 323.142 399.5 319 399.5V400V400.5C323.694 400.5 327.5 396.694 327.5 392H327ZM319 338V338.5C323.142 338.5 326.5 341.858 326.5 346H327H327.5C327.5 341.306 323.694 337.5 319 337.5V338ZM41 338V337.5C36.3056 337.5 32.5 341.306 32.5 346H33H33.5C33.5 341.858 36.8579 338.5 41 338.5V338Z" fill="white"/>
<path d="M62.4492 362.445V362.68C62.4362 363.578 62.4036 364.398 62.3516 365.141C62.2995 365.883 62.1888 366.716 62.0195 367.641L59.8711 367.445C60.0273 366.625 60.1348 365.883 60.1934 365.219C60.252 364.548 60.291 363.871 60.3105 363.188H53.4453V361.391H62.4492V362.445ZM57.9961 368.939C60.0859 368.848 61.8893 368.695 63.4062 368.48L63.5234 370.043C61.8958 370.336 60.1966 370.531 58.4258 370.629C56.6615 370.72 54.7148 370.772 52.5859 370.785L52.3906 369.047H52.7422L55.8477 369.008V365.414H57.9961V368.939ZM66.668 365.59H68.9531V367.406H66.668V373.305H64.4414V360.082H66.668V365.59ZM67.2344 377.387H55.0273V372.133H57.2148V375.629H67.2344V377.387ZM85.1781 370.082H82.9906V360.102H85.1781V370.082ZM85.1781 377.523H73.4594V370.961H85.1781V377.523ZM75.6078 375.766H83.0492V372.68H75.6078V375.766ZM77.0531 362.484C77.0531 363.24 77.2191 363.962 77.5512 364.652C77.8832 365.342 78.3682 365.954 79.0063 366.488C79.6443 367.022 80.4125 367.432 81.3109 367.719L80.2563 369.379C79.2536 369.066 78.3878 368.601 77.6586 367.982C76.9294 367.357 76.3598 366.615 75.9496 365.756C75.5395 366.687 74.96 367.497 74.2113 368.188C73.4691 368.871 72.5805 369.385 71.5453 369.73L70.4711 368.012C71.4021 367.712 72.1931 367.279 72.8441 366.713C73.4952 366.146 73.9835 365.499 74.309 364.77C74.641 364.034 74.807 363.272 74.807 362.484V360.766H77.0531V362.484ZM102.804 368.637H109.796V370.395H93.7023V368.637H100.655V366.391H102.804V368.637ZM101.73 371.527C103.006 371.527 104.099 371.648 105.011 371.889C105.922 372.123 106.619 372.471 107.101 372.934C107.589 373.396 107.836 373.956 107.843 374.613C107.836 375.271 107.589 375.831 107.101 376.293C106.619 376.762 105.922 377.117 105.011 377.357C104.099 377.598 103.006 377.719 101.73 377.719C100.447 377.719 99.3436 377.598 98.4191 377.357C97.5012 377.117 96.798 376.762 96.3098 376.293C95.8215 375.831 95.5773 375.271 95.5773 374.613C95.5773 373.956 95.8215 373.396 96.3098 372.934C96.798 372.471 97.5012 372.123 98.4191 371.889C99.3436 371.648 100.447 371.527 101.73 371.527ZM101.73 373.188C100.428 373.188 99.4413 373.308 98.7707 373.549C98.1066 373.79 97.7779 374.145 97.7844 374.613C97.7779 375.102 98.1066 375.469 98.7707 375.717C99.4413 375.958 100.428 376.078 101.73 376.078C103.006 376.078 103.979 375.954 104.65 375.707C105.327 375.46 105.668 375.095 105.675 374.613C105.668 374.145 105.327 373.79 104.65 373.549C103.979 373.308 103.006 373.188 101.73 373.188ZM108.351 362.602H103.263C103.387 363.083 103.696 363.539 104.191 363.969C104.692 364.392 105.356 364.753 106.183 365.053C107.016 365.346 107.967 365.544 109.034 365.648L108.253 367.348C106.665 367.185 105.301 366.811 104.161 366.225C103.022 365.632 102.211 364.89 101.73 363.998C101.248 364.896 100.441 365.639 99.3078 366.225C98.175 366.811 96.8143 367.185 95.2258 367.348L94.4641 365.648C95.5253 365.544 96.466 365.346 97.2863 365.053C98.1132 364.753 98.774 364.392 99.2687 363.969C99.7701 363.546 100.083 363.09 100.206 362.602H95.1672V360.863H108.351V362.602ZM125.63 366.938H120.709V368.793H127.681V370.551H111.588V368.793H118.521V366.938H113.619V360.805H125.63V366.938ZM115.728 365.219H123.482V362.504H115.728V365.219ZM125.709 377.738H123.541V373.754H113.365V372.035H125.709V377.738ZM149.604 373.129H147.436V368.695H143.881V370.258H135.62V361.254H137.787V364.105H141.733V361.254H143.881V363.148H147.436V360.102H149.604V373.129ZM149.995 377.387H137.963V371.84H140.17V375.629H149.995V377.387ZM141.733 368.539V365.785H137.787V368.539H141.733ZM147.436 366.938V364.906H143.881V366.938H147.436ZM167.489 370.414H165.321V368.461H161.122V366.703H165.321V364.809H161.288C160.735 366.208 159.823 367.4 158.554 368.383C157.29 369.359 155.692 370.115 153.759 370.648L152.88 368.93C154.911 368.376 156.486 367.598 157.606 366.596C158.726 365.593 159.374 364.424 159.55 363.09H153.817V361.332H161.923C161.923 361.964 161.871 362.549 161.766 363.09H165.321V360.102H167.489V370.414ZM161.649 370.609C162.834 370.609 163.876 370.753 164.774 371.039C165.673 371.326 166.369 371.732 166.864 372.26C167.359 372.787 167.606 373.409 167.606 374.125C167.606 374.841 167.359 375.463 166.864 375.99C166.369 376.518 165.673 376.924 164.774 377.211C163.876 377.497 162.834 377.641 161.649 377.641C160.451 377.641 159.4 377.497 158.495 377.211C157.59 376.924 156.89 376.518 156.395 375.99C155.901 375.463 155.653 374.841 155.653 374.125C155.653 373.409 155.901 372.787 156.395 372.26C156.89 371.732 157.59 371.326 158.495 371.039C159.4 370.753 160.451 370.609 161.649 370.609ZM161.649 372.309C160.445 372.309 159.504 372.468 158.827 372.787C158.156 373.1 157.821 373.546 157.821 374.125C157.821 374.698 158.16 375.141 158.837 375.453C159.514 375.766 160.451 375.922 161.649 375.922C162.821 375.922 163.746 375.766 164.423 375.453C165.1 375.141 165.438 374.698 165.438 374.125C165.438 373.546 165.1 373.1 164.423 372.787C163.752 372.468 162.828 372.309 161.649 372.309Z" fill="#757575"/>
<path d="M33 420C33 415.582 36.5817 412 41 412H319C323.418 412 327 415.582 327 420V466C327 470.418 323.418 474 319 474H41C36.5817 474 33 470.418 33 466V420Z" fill="white"/>
<path d="M41 412V412.5H319V412V411.5H41V412ZM327 420H326.5V466H327H327.5V420H327ZM319 474V473.5H41V474V474.5H319V474ZM33 466H33.5V420H33H32.5V466H33ZM41 474V473.5C36.8579 473.5 33.5 470.142 33.5 466H33H32.5C32.5 470.694 36.3056 474.5 41 474.5V474ZM327 466H326.5C326.5 470.142 323.142 473.5 319 473.5V474V474.5C323.694 474.5 327.5 470.694 327.5 466H327ZM319 412V412.5C323.142 412.5 326.5 415.858 326.5 420H327H327.5C327.5 415.306 323.694 411.5 319 411.5V412ZM41 412V411.5C36.3056 411.5 32.5 415.306 32.5 420H33H33.5C33.5 415.858 36.8579 412.5 41 412.5V412Z" fill="white"/>
<path d="M68.7188 449.688H52.5859V447.891H59.5391V445.02H54.5V439.238H64.6562V437.051H54.4609V435.293H66.8047V440.957H56.668V443.242H67.2148V445.02H61.6875V447.891H68.7188V449.688ZM84.5141 437.793C84.5141 438.848 84.501 439.756 84.475 440.518C84.4555 441.273 84.4001 442.139 84.309 443.115C84.2178 444.092 84.0714 445.156 83.8695 446.309L81.6625 446.113C81.8773 445.039 82.0336 444.023 82.1313 443.066C82.2289 442.103 82.2875 441.243 82.307 440.488C82.3331 439.727 82.3461 438.828 82.3461 437.793V437.559H72.1703V435.801H84.5141V437.793ZM86.5648 449.316H70.4711V447.539H86.5648V449.316ZM93.1023 435.371C93.9878 435.371 94.7755 435.628 95.4656 436.143C96.1557 436.65 96.6961 437.376 97.0867 438.32C97.4839 439.258 97.6857 440.352 97.6922 441.602C97.6857 442.865 97.4839 443.968 97.0867 444.912C96.6961 445.856 96.1557 446.582 95.4656 447.09C94.7755 447.598 93.9878 447.852 93.1023 447.852C92.2104 447.852 91.4161 447.598 90.7195 447.09C90.0229 446.576 89.4793 445.846 89.0887 444.902C88.698 443.958 88.506 442.858 88.5125 441.602C88.506 440.358 88.698 439.264 89.0887 438.32C89.4793 437.376 90.0229 436.65 90.7195 436.143C91.4161 435.628 92.2104 435.371 93.1023 435.371ZM93.1023 437.324C92.6076 437.324 92.1714 437.497 91.7938 437.842C91.4161 438.18 91.1232 438.672 90.9148 439.316C90.7065 439.954 90.6023 440.716 90.6023 441.602C90.6023 442.493 90.7065 443.262 90.9148 443.906C91.1232 444.551 91.4161 445.046 91.7938 445.391C92.1714 445.729 92.6076 445.898 93.1023 445.898C93.6036 445.898 94.0431 445.729 94.4207 445.391C94.7983 445.046 95.088 444.551 95.2898 443.906C95.4982 443.262 95.6023 442.493 95.6023 441.602C95.6023 440.716 95.4982 439.951 95.2898 439.307C95.088 438.662 94.7983 438.171 94.4207 437.832C94.0431 437.493 93.6036 437.324 93.1023 437.324ZM102.184 440.859H104.899V442.695H102.184V451.738H100.016V434.082H102.184V440.859ZM122.335 443.73H115.323V445.488H113.175V443.73H106.241V441.934H122.335V443.73ZM115.343 446.621C115.343 447.168 115.574 447.679 116.036 448.154C116.505 448.63 117.176 449.03 118.048 449.355C118.927 449.681 119.959 449.896 121.144 450L120.48 451.641C119.015 451.504 117.742 451.191 116.661 450.703C115.581 450.215 114.77 449.593 114.23 448.838C113.683 449.587 112.876 450.205 111.808 450.693C110.74 451.188 109.484 451.504 108.038 451.641L107.316 450C108.487 449.896 109.51 449.678 110.382 449.346C111.261 449.014 111.935 448.61 112.404 448.135C112.879 447.653 113.116 447.148 113.116 446.621V446.211H115.343V446.621ZM114.269 434.316C115.577 434.316 116.707 434.447 117.657 434.707C118.608 434.961 119.34 435.335 119.855 435.83C120.369 436.325 120.629 436.921 120.636 437.617C120.629 438.307 120.369 438.9 119.855 439.395C119.34 439.889 118.605 440.267 117.648 440.527C116.697 440.781 115.571 440.905 114.269 440.898C112.973 440.905 111.847 440.781 110.89 440.527C109.933 440.267 109.194 439.889 108.673 439.395C108.159 438.9 107.902 438.307 107.902 437.617C107.902 436.921 108.159 436.325 108.673 435.83C109.194 435.335 109.933 434.961 110.89 434.707C111.847 434.447 112.973 434.316 114.269 434.316ZM114.269 435.957C112.96 435.944 111.948 436.084 111.232 436.377C110.515 436.67 110.161 437.083 110.167 437.617C110.154 438.138 110.506 438.542 111.222 438.828C111.945 439.115 112.96 439.258 114.269 439.258C115.571 439.258 116.583 439.115 117.306 438.828C118.029 438.535 118.39 438.132 118.39 437.617C118.39 437.083 118.029 436.67 117.306 436.377C116.583 436.084 115.571 435.944 114.269 435.957Z" fill="#757575"/>
<path d="M33 494C33 489.582 36.5817 486 41 486H319C323.418 486 327 489.582 327 494V540C327 544.418 323.418 548 319 548H41C36.5817 548 33 544.418 33 540V494Z" fill="white"/>
<path d="M41 486V486.5H319V486V485.5H41V486ZM327 494H326.5V540H327H327.5V494H327ZM319 548V547.5H41V548V548.5H319V548ZM33 540H33.5V494H33H32.5V540H33ZM41 548V547.5C36.8579 547.5 33.5 544.142 33.5 540H33H32.5C32.5 544.694 36.3056 548.5 41 548.5V548ZM327 540H326.5C326.5 544.142 323.142 547.5 319 547.5V548V548.5C323.694 548.5 327.5 544.694 327.5 540H327ZM319 486V486.5C323.142 486.5 326.5 489.858 326.5 494H327H327.5C327.5 489.306 323.694 485.5 319 485.5V486ZM41 486V485.5C36.3056 485.5 32.5 489.306 32.5 494H33H33.5C33.5 489.858 36.8579 486.5 41 486.5V486Z" fill="white"/>
<path d="M61.5703 510.582H55.4766V511.949H61.2188V513.59H55.4766V515.074C57.1693 515.068 58.5299 515.038 59.5586 514.986C60.5938 514.934 61.6354 514.833 62.6836 514.684L62.8789 516.363C61.7331 516.546 60.5807 516.666 59.4219 516.725C58.2695 516.783 56.7005 516.812 54.7148 516.812H53.3086V508.844H61.5703V510.582ZM66.5117 511.695H68.9727V513.453H66.5117V517.203H64.3438V508.082H66.5117V511.695ZM66.5117 522.496H57.1367V523.902H67.0586V525.582H54.9883V520.914H64.3438V519.664H54.9688V517.965H66.5117V522.496ZM81.0766 518.043H77.4242V520.484C79.0909 520.387 80.6013 520.243 81.9555 520.055L82.1313 521.617C80.9529 521.852 79.7289 522.027 78.4594 522.145C77.1964 522.255 76.0245 522.327 74.9438 522.359C73.8695 522.392 72.6 522.411 71.1352 522.418H70.8227L70.5492 520.641C72.6 520.628 74.169 520.605 75.2563 520.572V518.043H71.8383V509.586H81.018V511.324H74.0258V512.965H80.6664V514.645H74.0258V516.324H81.0766V518.043ZM85.1781 525.758H83.0102V508.082H85.1781V525.758ZM102.184 515.113H104.899V516.91H102.184V525.738H100.036V508.082H102.184V515.113ZM98.6688 512.535H88.2586V510.797H92.4383V508.336H94.6063V510.797H98.6688V512.535ZM93.532 513.688C94.3719 513.688 95.1271 513.867 95.7977 514.225C96.4747 514.576 97.0053 515.068 97.3895 515.699C97.7736 516.331 97.9656 517.047 97.9656 517.848C97.9656 518.648 97.7736 519.365 97.3895 519.996C97.0053 520.621 96.4747 521.109 95.7977 521.461C95.1271 521.812 94.3719 521.988 93.532 521.988C92.6792 521.988 91.9142 521.812 91.2371 521.461C90.56 521.109 90.0294 520.621 89.6453 519.996C89.2612 519.365 89.0724 518.648 89.0789 517.848C89.0724 517.047 89.2612 516.331 89.6453 515.699C90.0294 515.068 90.56 514.576 91.2371 514.225C91.9142 513.867 92.6792 513.688 93.532 513.688ZM93.532 515.465C93.0698 515.465 92.6564 515.562 92.2918 515.758C91.9337 515.953 91.6538 516.233 91.452 516.598C91.2501 516.956 91.1492 517.372 91.1492 517.848C91.1492 518.323 91.2501 518.74 91.452 519.098C91.6538 519.449 91.9337 519.723 92.2918 519.918C92.6564 520.107 93.0698 520.198 93.532 520.191C93.9813 520.198 94.3816 520.107 94.7332 519.918C95.0913 519.723 95.3712 519.449 95.573 519.098C95.7814 518.74 95.8888 518.323 95.8953 517.848C95.8888 517.372 95.7814 516.956 95.573 516.598C95.3712 516.24 95.0913 515.963 94.7332 515.768C94.3816 515.566 93.9813 515.465 93.532 515.465ZM120.987 525.738H118.8V508.082H120.987V525.738ZM115.714 509.957C115.714 512.763 115.079 515.227 113.81 517.35C112.54 519.465 110.434 521.22 107.491 522.613L106.359 520.875C108.631 519.794 110.34 518.502 111.486 516.998C112.638 515.488 113.312 513.714 113.507 511.676H107.257V509.957H115.714Z" fill="#757575"/>
<path d="M48.382 31.5484C47.5609 30.8172 46.237 30.8172 45.4159 31.5484L31.4902 43.948C30.8366 44.53 30.8366 45.47 31.4902 46.052L45.4159 58.4516C46.237 59.1828 47.5609 59.1828 48.382 58.4516C49.2032 57.7205 49.2032 56.5417 48.382 55.8106L36.2494 44.9925L48.3988 34.1745C49.2032 33.4583 49.2032 32.2646 48.382 31.5484Z" fill="#1E1E1E"/>
</svg>
