<svg width="360" height="800" viewBox="0 0 360 800" fill="none" xmlns="http://www.w3.org/2000/svg">
<rect width="360" height="800" fill="#F7F8FB"/>
<path d="M51.5859 122.711C51.5859 123.805 51.5586 124.832 51.5039 125.793C51.4492 126.746 51.3125 127.805 51.0938 128.969L48.1641 128.688C48.4609 127.055 48.625 125.43 48.6562 123.812H40.6172V121.375H51.5859V122.711ZM46.2891 130.387C48.7109 130.277 50.8125 130.094 52.5938 129.836L52.7578 131.992C50.7969 132.352 48.7539 132.59 46.6289 132.707C44.5039 132.824 42.1641 132.891 39.6094 132.906L39.3516 130.516C41.0469 130.516 42.3672 130.504 43.3125 130.48V126.297H46.2891V130.387ZM56.8125 126.32H59.3906V128.828H56.8125V135.789H53.7422V119.828H56.8125V126.32ZM57.4688 140.781H42.4922V134.359H45.4922V138.391H57.4688V140.781ZM78.9544 131.875H75.9544V119.852H78.9544V131.875ZM78.9544 140.922H64.6575V132.859H78.9544V140.922ZM67.6106 138.531H76.0247V135.227H67.6106V138.531ZM69.2747 122.688C69.2669 123.578 69.4427 124.426 69.802 125.23C70.1692 126.027 70.7239 126.738 71.4661 127.363C72.2161 127.988 73.1497 128.477 74.2669 128.828L72.8137 131.102C71.6262 130.75 70.6028 130.227 69.7434 129.531C68.8919 128.828 68.22 127.988 67.7278 127.012C67.2278 128.074 66.5364 128.992 65.6536 129.766C64.7708 130.539 63.7122 131.117 62.4778 131.5L61.0247 129.156C62.1653 128.812 63.1184 128.309 63.8841 127.645C64.6575 126.973 65.2278 126.211 65.595 125.359C65.97 124.5 66.1575 123.609 66.1575 122.688V120.625H69.2747V122.688ZM99.9881 130.023H108.262V132.438H88.8084V130.023H97.035V127.469H99.9881V130.023ZM98.5116 133.609C100.058 133.609 101.387 133.758 102.496 134.055C103.605 134.344 104.453 134.77 105.039 135.332C105.633 135.895 105.933 136.578 105.941 137.383C105.933 138.188 105.633 138.871 105.039 139.434C104.453 139.996 103.605 140.422 102.496 140.711C101.387 141.008 100.058 141.156 98.5116 141.156C96.9491 141.156 95.6092 141.008 94.492 140.711C93.3748 140.422 92.5194 139.996 91.9256 139.434C91.3319 138.871 91.035 138.188 91.035 137.383C91.035 136.578 91.3319 135.895 91.9256 135.332C92.5194 134.77 93.3748 134.344 94.492 134.055C95.6092 133.758 96.9491 133.609 98.5116 133.609ZM98.5116 135.883C95.535 135.883 94.0584 136.383 94.0819 137.383C94.0741 137.906 94.4334 138.297 95.16 138.555C95.8944 138.805 97.0116 138.93 98.5116 138.93C99.9725 138.93 101.074 138.805 101.816 138.555C102.558 138.297 102.933 137.906 102.941 137.383C102.918 136.383 101.441 135.883 98.5116 135.883ZM106.504 123.086H100.703C100.89 123.594 101.262 124.074 101.816 124.527C102.379 124.973 103.133 125.359 104.078 125.688C105.023 126.008 106.137 126.227 107.418 126.344L106.363 128.688C104.394 128.492 102.738 128.051 101.394 127.363C100.051 126.668 99.0897 125.793 98.5116 124.738C97.9256 125.793 96.9686 126.668 95.6405 127.363C94.3123 128.051 92.6678 128.492 90.7069 128.688L89.6522 126.344C90.9256 126.227 92.0311 126.008 92.9686 125.688C93.9139 125.367 94.6678 124.984 95.2303 124.539C95.7928 124.086 96.1639 123.602 96.3436 123.086H90.5897V120.742H106.504V123.086ZM127.263 128.172H121.474V130.211H129.724V132.625H110.271V130.211H118.474V128.172H112.685V120.672H127.263V128.172ZM115.614 125.828H124.333V122.992H115.614V125.828ZM127.357 141.156H124.38V136.539H112.427V134.195H127.357V141.156ZM157.437 135.039H149.164V141.18H146.211V135.039H137.984V132.602H157.437V135.039ZM155.656 124.633H149.257C149.375 125.289 149.726 125.93 150.312 126.555C150.898 127.18 151.711 127.723 152.75 128.184C153.789 128.645 155.007 128.953 156.406 129.109L155.328 131.453C153.57 131.25 152.039 130.812 150.734 130.141C149.437 129.469 148.429 128.629 147.711 127.621C147 128.629 145.988 129.469 144.675 130.141C143.371 130.812 141.828 131.25 140.047 131.453L138.968 129.109C140.367 128.953 141.586 128.645 142.625 128.184C143.672 127.723 144.492 127.18 145.086 126.555C145.679 125.93 146.039 125.289 146.164 124.633H139.742V122.289H146.211V119.852H149.164V122.289H155.656V124.633ZM167.298 124.844C167.298 125.664 167.481 126.461 167.849 127.234C168.216 128.008 168.774 128.703 169.524 129.32C170.282 129.938 171.22 130.414 172.337 130.75L170.907 133.07C169.743 132.742 168.735 132.234 167.884 131.547C167.032 130.852 166.356 130.027 165.856 129.074C165.372 130.105 164.7 130.996 163.841 131.746C162.989 132.488 161.962 133.047 160.759 133.422L159.306 131.078C160.423 130.75 161.356 130.266 162.106 129.625C162.856 128.977 163.411 128.242 163.77 127.422C164.138 126.602 164.321 125.742 164.321 124.844V124.68H160.032V122.336H164.321V119.969H167.345V122.336H171.61V124.68H167.298V124.844ZM177.423 135.672H174.446V128.477H170.907V126.062H174.446V119.852H177.423V135.672ZM177.938 140.781H163.267V134.312H166.267V138.391H177.938V140.781ZM190.635 120.133C192.268 120.133 193.662 120.273 194.819 120.555C195.975 120.836 196.858 121.25 197.467 121.797C198.076 122.336 198.385 122.992 198.393 123.766C198.385 124.547 198.076 125.211 197.467 125.758C196.858 126.305 195.975 126.719 194.819 127C193.662 127.281 192.268 127.422 190.635 127.422C188.994 127.422 187.592 127.281 186.428 127C185.264 126.719 184.377 126.305 183.768 125.758C183.158 125.211 182.854 124.547 182.854 123.766C182.854 122.992 183.158 122.336 183.768 121.797C184.377 121.25 185.264 120.836 186.428 120.555C187.592 120.273 188.994 120.133 190.635 120.133ZM190.635 122.312C189.08 122.312 187.912 122.438 187.131 122.688C186.358 122.93 185.979 123.289 185.994 123.766C185.987 124.281 186.358 124.652 187.108 124.879C187.858 125.105 189.033 125.219 190.635 125.219C192.244 125.219 193.424 125.105 194.174 124.879C194.924 124.652 195.299 124.281 195.299 123.766C195.299 123.289 194.912 122.93 194.139 122.688C193.365 122.438 192.197 122.312 190.635 122.312ZM200.362 130.797H180.908V128.43H200.362V130.797ZM197.994 137.477H186.112V138.766H198.557V141.016H183.182V135.391H195.041V134.219H183.158V132.039H197.994V137.477ZM215.583 120.719C216.661 120.711 217.626 120.898 218.477 121.281C219.329 121.656 219.997 122.191 220.481 122.887C220.966 123.574 221.208 124.359 221.208 125.242C221.208 126.117 220.966 126.902 220.481 127.598C219.997 128.285 219.325 128.82 218.466 129.203C217.614 129.586 216.653 129.773 215.583 129.766C214.505 129.773 213.54 129.586 212.688 129.203C211.837 128.82 211.169 128.285 210.684 127.598C210.208 126.902 209.973 126.117 209.981 125.242C209.973 124.359 210.208 123.574 210.684 122.887C211.169 122.191 211.837 121.656 212.688 121.281C213.54 120.898 214.505 120.711 215.583 120.719ZM215.583 123.109C214.77 123.109 214.114 123.301 213.614 123.684C213.114 124.059 212.864 124.578 212.864 125.242C212.864 125.898 213.114 126.414 213.614 126.789C214.114 127.164 214.77 127.344 215.583 127.328C216.419 127.344 217.091 127.164 217.598 126.789C218.114 126.414 218.372 125.898 218.372 125.242C218.372 124.578 218.114 124.059 217.598 123.684C217.091 123.301 216.419 123.109 215.583 123.109ZM226.598 141.156H223.645V119.852H226.598V141.156ZM208.669 131.078C214.341 131.078 218.903 130.82 222.356 130.305L222.544 132.508C220.927 132.828 219.145 133.066 217.2 133.223V140.523H214.223V133.398C212.848 133.461 211.403 133.492 209.887 133.492C209.7 133.508 209.419 133.516 209.044 133.516L208.669 131.078ZM247.006 126.391H249.889V128.828H247.006V135.766H244.006V119.852H247.006V126.391ZM242.74 124.445H230.084V122.078H234.936V119.805H237.912V122.078H242.74V124.445ZM236.412 125.195C237.436 125.195 238.342 125.367 239.131 125.711C239.928 126.055 240.549 126.539 240.994 127.164C241.44 127.789 241.662 128.508 241.662 129.32C241.662 130.133 241.44 130.848 240.994 131.465C240.557 132.074 239.94 132.551 239.143 132.895C238.346 133.23 237.436 133.398 236.412 133.398C235.381 133.398 234.463 133.23 233.658 132.895C232.861 132.551 232.236 132.074 231.783 131.465C231.338 130.848 231.115 130.133 231.115 129.32C231.115 128.508 231.338 127.789 231.783 127.164C232.236 126.539 232.861 126.055 233.658 125.711C234.463 125.367 235.381 125.195 236.412 125.195ZM236.412 127.469C235.686 127.484 235.107 127.652 234.678 127.973C234.248 128.293 234.037 128.742 234.045 129.32C234.037 129.898 234.244 130.344 234.666 130.656C235.096 130.969 235.678 131.125 236.412 131.125C237.147 131.125 237.732 130.969 238.17 130.656C238.607 130.336 238.826 129.891 238.826 129.32C238.826 128.742 238.607 128.293 238.17 127.973C237.732 127.652 237.147 127.484 236.412 127.469ZM247.779 140.781H233.178V134.547H236.154V138.391H247.779V140.781ZM56.5547 159.805H59.4375V162.266H56.5547V169.109H53.5312V153.828H56.5547V159.805ZM50.7422 155.422C50.7422 157.328 50.3516 159.047 49.5703 160.578C48.7969 162.102 47.6641 163.406 46.1719 164.492C44.6797 165.578 42.8672 166.422 40.7344 167.023L39.4922 164.656C41.8438 164 43.6953 163.082 45.0469 161.902C46.4062 160.723 47.207 159.375 47.4492 157.859H40.4297V155.422H50.7422ZM57.2812 174.781H42.6797V167.539H45.7031V172.391H57.2812V174.781ZM78.0169 159.641H80.8997V162.102H78.0169V169.25H75.0169V153.828H78.0169V159.641ZM71.5481 157.93H64.9153V163.32C66.9387 163.305 68.552 163.254 69.7552 163.168C70.9583 163.082 72.1341 162.914 73.2825 162.664L73.5872 165.055C72.2981 165.328 70.9505 165.512 69.5442 165.605C68.138 165.691 66.1966 165.734 63.72 165.734H61.9153V155.539H71.5481V157.93ZM78.7903 174.781H64.1887V167.609H67.1653V172.391H78.7903V174.781ZM99.4791 160.391H102.362V162.828H99.4791V169.766H96.4791V153.852H99.4791V160.391ZM95.2134 158.445H82.5572V156.078H87.4087V153.805H90.3853V156.078H95.2134V158.445ZM88.8853 159.195C89.9087 159.195 90.815 159.367 91.6041 159.711C92.4009 160.055 93.022 160.539 93.4673 161.164C93.9127 161.789 94.1353 162.508 94.1353 163.32C94.1353 164.133 93.9127 164.848 93.4673 165.465C93.0298 166.074 92.4127 166.551 91.6158 166.895C90.8189 167.23 89.9087 167.398 88.8853 167.398C87.8541 167.398 86.9361 167.23 86.1314 166.895C85.3345 166.551 84.7095 166.074 84.2564 165.465C83.8111 164.848 83.5884 164.133 83.5884 163.32C83.5884 162.508 83.8111 161.789 84.2564 161.164C84.7095 160.539 85.3345 160.055 86.1314 159.711C86.9361 159.367 87.8541 159.195 88.8853 159.195ZM88.8853 161.469C88.1587 161.484 87.5806 161.652 87.1509 161.973C86.7212 162.293 86.5103 162.742 86.5181 163.32C86.5103 163.898 86.7173 164.344 87.1392 164.656C87.5689 164.969 88.1509 165.125 88.8853 165.125C89.6197 165.125 90.2056 164.969 90.6431 164.656C91.0806 164.336 91.2994 163.891 91.2994 163.32C91.2994 162.742 91.0806 162.293 90.6431 161.973C90.2056 161.652 89.6197 161.484 88.8853 161.469ZM100.252 174.781H85.6509V168.547H88.6275V172.391H100.252V174.781ZM128.247 164.68H125.271V159.383H121.263V157.016H125.271V153.828H128.247V164.68ZM128.247 171.266H117.044V172.578H128.857V174.922H114.091V169.086H125.294V167.867H114.067V165.57H128.247V171.266ZM118.263 156.078C118.255 156.953 118.423 157.789 118.767 158.586C119.118 159.375 119.661 160.078 120.396 160.695C121.13 161.305 122.044 161.773 123.138 162.102L121.567 164.398C120.45 164.039 119.489 163.52 118.685 162.84C117.88 162.152 117.239 161.336 116.763 160.391C116.286 161.445 115.618 162.355 114.759 163.121C113.907 163.887 112.872 164.461 111.653 164.844L110.107 162.477C111.247 162.141 112.2 161.652 112.966 161.012C113.732 160.363 114.298 159.617 114.665 158.773C115.04 157.93 115.232 157.031 115.239 156.078V154.531H118.263V156.078ZM151.233 166.742H143.194V170.422H140.241V166.742H131.709V164.375H151.233V166.742ZM148.725 162.617H134.147V154.766H148.725V162.617ZM137.077 160.297H145.795V157.086H137.077V160.297ZM149.077 174.781H134.006V168.57H136.983V172.391H149.077V174.781ZM162.922 154.133C164.554 154.133 165.949 154.273 167.105 154.555C168.261 154.836 169.144 155.25 169.754 155.797C170.363 156.336 170.672 156.992 170.679 157.766C170.672 158.547 170.363 159.211 169.754 159.758C169.144 160.305 168.261 160.719 167.105 161C165.949 161.281 164.554 161.422 162.922 161.422C161.281 161.422 159.879 161.281 158.715 161C157.55 160.719 156.664 160.305 156.054 159.758C155.445 159.211 155.14 158.547 155.14 157.766C155.14 156.992 155.445 156.336 156.054 155.797C156.664 155.25 157.55 154.836 158.715 154.555C159.879 154.273 161.281 154.133 162.922 154.133ZM162.922 156.312C161.367 156.312 160.199 156.438 159.418 156.688C158.644 156.93 158.265 157.289 158.281 157.766C158.273 158.281 158.644 158.652 159.394 158.879C160.144 159.105 161.32 159.219 162.922 159.219C164.531 159.219 165.711 159.105 166.461 158.879C167.211 158.652 167.586 158.281 167.586 157.766C167.586 157.289 167.199 156.93 166.425 156.688C165.652 156.438 164.484 156.312 162.922 156.312ZM172.648 164.797H153.195V162.43H172.648V164.797ZM170.281 171.477H158.398V172.766H170.843V175.016H155.468V169.391H167.328V168.219H155.445V166.039H170.281V171.477ZM189.229 158.047C189.229 158.93 189.412 159.781 189.78 160.602C190.155 161.414 190.721 162.145 191.479 162.793C192.244 163.434 193.19 163.922 194.315 164.258L192.791 166.602C191.627 166.234 190.619 165.688 189.768 164.961C188.916 164.234 188.244 163.375 187.752 162.383C187.252 163.461 186.565 164.398 185.69 165.195C184.815 165.992 183.768 166.594 182.549 167L181.002 164.656C182.143 164.289 183.1 163.762 183.873 163.074C184.647 162.387 185.225 161.609 185.608 160.742C185.99 159.875 186.182 158.977 186.182 158.047V157.742H181.799V155.352H193.518V157.742H189.229V158.047ZM198.768 169.273H195.768V153.852H198.768V169.273ZM199.33 174.781H184.471V167.867H187.494V172.391H199.33V174.781ZM220.699 167.211H217.863V161.539H216.152V166.508H213.363V154.227H216.152V159.102H217.863V153.828H220.699V167.211ZM212.73 158.352H202.253V156.031H206.027V154.016H209.003V156.031H212.73V158.352ZM207.527 159.055C208.425 159.055 209.226 159.211 209.929 159.523C210.632 159.836 211.183 160.273 211.582 160.836C211.98 161.398 212.183 162.047 212.191 162.781C212.183 163.508 211.98 164.152 211.582 164.715C211.183 165.27 210.632 165.703 209.929 166.016C209.226 166.328 208.425 166.484 207.527 166.484C206.644 166.484 205.851 166.328 205.148 166.016C204.445 165.703 203.894 165.27 203.496 164.715C203.105 164.152 202.91 163.508 202.91 162.781C202.91 162.055 203.105 161.41 203.496 160.848C203.894 160.277 204.445 159.836 205.148 159.523C205.851 159.211 206.644 159.055 207.527 159.055ZM207.527 161.211C206.933 161.211 206.46 161.352 206.109 161.633C205.757 161.914 205.582 162.297 205.582 162.781C205.582 163.273 205.757 163.664 206.109 163.953C206.468 164.234 206.941 164.367 207.527 164.352C208.113 164.367 208.585 164.234 208.945 163.953C209.304 163.664 209.488 163.273 209.496 162.781C209.488 162.289 209.304 161.906 208.945 161.633C208.593 161.352 208.121 161.211 207.527 161.211ZM213.41 167.398C214.949 167.398 216.269 167.551 217.371 167.855C218.48 168.16 219.328 168.605 219.914 169.191C220.507 169.77 220.808 170.469 220.816 171.289C220.808 172.102 220.507 172.797 219.914 173.375C219.328 173.953 218.48 174.395 217.371 174.699C216.261 175.004 214.941 175.156 213.41 175.156C211.878 175.156 210.558 175.004 209.449 174.699C208.347 174.395 207.5 173.953 206.906 173.375C206.32 172.797 206.027 172.102 206.027 171.289C206.027 170.469 206.32 169.77 206.906 169.191C207.5 168.605 208.347 168.16 209.449 167.855C210.558 167.551 211.878 167.398 213.41 167.398ZM213.41 169.648C210.464 169.648 209.003 170.195 209.027 171.289C209.019 171.828 209.386 172.234 210.128 172.508C210.871 172.773 211.964 172.906 213.41 172.906C216.332 172.906 217.792 172.367 217.792 171.289C217.792 170.734 217.429 170.324 216.703 170.059C215.976 169.785 214.878 169.648 213.41 169.648ZM240.755 158.422H243.637V160.812H240.755V165.336H237.755V153.781H240.755V158.422ZM240.755 171.594H229.575V172.812H241.364V175.016H226.645V169.555H237.778V168.359H226.598V166.203H240.755V171.594ZM236.489 157.695H223.833V155.422H228.684V153.688H231.661V155.422H236.489V157.695ZM230.161 158.211C231.216 158.211 232.137 158.355 232.927 158.645C233.723 158.926 234.337 159.332 234.766 159.863C235.196 160.387 235.411 161 235.411 161.703C235.411 162.422 235.196 163.043 234.766 163.566C234.337 164.09 233.723 164.492 232.927 164.773C232.137 165.055 231.216 165.195 230.161 165.195C229.098 165.195 228.169 165.055 227.372 164.773C226.575 164.492 225.958 164.09 225.52 163.566C225.083 163.043 224.864 162.422 224.864 161.703C224.864 161 225.083 160.387 225.52 159.863C225.958 159.332 226.575 158.926 227.372 158.645C228.177 158.355 229.106 158.211 230.161 158.211ZM230.161 160.32C229.411 160.32 228.825 160.441 228.403 160.684C227.989 160.926 227.786 161.266 227.794 161.703C227.786 162.148 227.989 162.488 228.403 162.723C228.817 162.949 229.403 163.062 230.161 163.062C230.919 163.062 231.509 162.949 231.93 162.723C232.36 162.488 232.575 162.148 232.575 161.703C232.575 161.266 232.36 160.926 231.93 160.684C231.501 160.441 230.911 160.32 230.161 160.32ZM263.787 175.156H260.975V153.828H263.787V175.156ZM259.24 174.219H256.451V164.422H252.959C252.334 165.672 251.51 166.82 250.486 167.867C249.463 168.914 248.209 169.867 246.725 170.727L245.037 168.617C247.147 167.359 248.721 165.938 249.76 164.352C250.807 162.766 251.436 160.906 251.647 158.773H246.209V156.359H254.623C254.607 158.523 254.361 160.422 253.885 162.055H256.451V154.297H259.24V174.219ZM286.281 172.672H266.757V170.211H271.117V164.996C270.273 164.488 269.62 163.863 269.16 163.121C268.699 162.371 268.468 161.531 268.468 160.602C268.468 159.469 268.812 158.469 269.499 157.602C270.187 156.734 271.136 156.062 272.347 155.586C273.566 155.102 274.945 154.859 276.484 154.859C278.015 154.859 279.386 155.102 280.597 155.586C281.816 156.062 282.773 156.734 283.468 157.602C284.163 158.469 284.515 159.469 284.523 160.602C284.515 161.508 284.285 162.332 283.831 163.074C283.386 163.809 282.757 164.43 281.945 164.938V170.211H286.281V172.672ZM276.484 157.227C275.468 157.227 274.577 157.359 273.812 157.625C273.054 157.891 272.464 158.277 272.042 158.785C271.628 159.285 271.421 159.891 271.421 160.602C271.421 161.289 271.628 161.887 272.042 162.395C272.464 162.902 273.058 163.293 273.824 163.566C274.589 163.84 275.476 163.977 276.484 163.977C277.484 163.977 278.367 163.84 279.132 163.566C279.898 163.293 280.492 162.902 280.913 162.395C281.343 161.887 281.562 161.289 281.57 160.602C281.562 159.898 281.347 159.293 280.925 158.785C280.503 158.277 279.91 157.891 279.144 157.625C278.378 157.359 277.492 157.227 276.484 157.227ZM278.921 170.211V166.074C278.117 166.223 277.304 166.297 276.484 166.297C275.609 166.297 274.804 166.223 274.07 166.074V170.211H278.921ZM292.766 167.914H289.766L289.462 156.031H293.071L292.766 167.914ZM291.29 173.211C290.93 173.211 290.598 173.121 290.294 172.941C289.989 172.762 289.747 172.523 289.567 172.227C289.395 171.922 289.313 171.594 289.321 171.242C289.313 170.891 289.395 170.566 289.567 170.27C289.747 169.973 289.989 169.738 290.294 169.566C290.598 169.387 290.93 169.297 291.29 169.297C291.626 169.297 291.942 169.387 292.239 169.566C292.544 169.738 292.786 169.973 292.965 170.27C293.145 170.566 293.235 170.891 293.235 171.242C293.235 171.594 293.145 171.922 292.965 172.227C292.786 172.523 292.544 172.762 292.239 172.941C291.942 173.121 291.626 173.211 291.29 173.211Z" fill="black"/>
<path d="M54.3711 202.539H52.2031V199.062H49.5859V197.324H52.2031V195.352H49.5859V193.594H52.2031V189.102H54.3711V202.539ZM49.4883 192.793H39.625V191.055H43.5703V189.082H45.7383V191.055H49.4883V192.793ZM44.625 193.516C45.4193 193.516 46.1289 193.662 46.7539 193.955C47.3789 194.242 47.8672 194.645 48.2188 195.166C48.5768 195.687 48.7591 196.283 48.7656 196.953C48.7591 197.624 48.5768 198.219 48.2188 198.74C47.8672 199.261 47.3789 199.668 46.7539 199.961C46.1289 200.247 45.4193 200.391 44.625 200.391C43.8372 200.391 43.1309 200.247 42.5059 199.961C41.8874 199.668 41.4023 199.261 41.0508 198.74C40.7057 198.213 40.5365 197.617 40.543 196.953C40.5365 196.289 40.7057 195.697 41.0508 195.176C41.4023 194.648 41.8874 194.242 42.5059 193.955C43.1309 193.662 43.8372 193.516 44.625 193.516ZM44.625 195.215C44.0065 195.228 43.5085 195.391 43.1309 195.703C42.7533 196.009 42.5677 196.426 42.5742 196.953C42.5677 197.5 42.7533 197.93 43.1309 198.242C43.5085 198.555 44.0065 198.711 44.625 198.711C45.2435 198.711 45.7448 198.555 46.1289 198.242C46.5195 197.93 46.7148 197.5 46.7148 196.953C46.7148 196.426 46.5195 196.009 46.1289 195.703C45.7448 195.391 45.2435 195.228 44.625 195.215ZM54.7617 206.387H42.7305V201.387H44.9375V204.629H54.7617V206.387ZM72.7836 206.738H70.7133V197.793H68.8969V205.879H66.8461V189.395H68.8969V195.996H70.7133V189.082H72.7836V206.738ZM62.9594 193.594C62.9594 195.267 63.2589 196.755 63.8578 198.057C64.4568 199.359 65.3813 200.332 66.6313 200.977L65.3617 202.637C64.5414 202.201 63.848 201.611 63.2816 200.869C62.7217 200.127 62.279 199.261 61.9535 198.271C61.6475 199.404 61.2081 200.394 60.6352 201.24C60.0688 202.087 59.3591 202.76 58.5063 203.262L57.1781 201.602C58.4281 200.892 59.3526 199.837 59.9516 198.438C60.5505 197.031 60.85 195.417 60.85 193.594V192.754H57.7055V191.016H65.85V192.754H62.9594V193.594ZM85.5266 190.371C86.3208 190.371 87.037 190.583 87.675 191.006C88.313 191.429 88.8339 192.035 89.2375 192.822C89.6411 193.604 89.8918 194.525 89.9895 195.586H93.3586V189.082H95.507V206.758H93.3586V197.344H90.0187C89.9406 198.464 89.703 199.44 89.3059 200.273C88.9087 201.1 88.3846 201.738 87.7336 202.188C87.0826 202.63 86.3469 202.852 85.5266 202.852C84.6411 202.852 83.8566 202.598 83.173 202.09C82.4895 201.582 81.9556 200.856 81.5715 199.912C81.1874 198.968 80.9953 197.865 80.9953 196.602C80.9953 195.352 81.1874 194.258 81.5715 193.32C81.9556 192.376 82.4895 191.65 83.173 191.143C83.8632 190.628 84.6477 190.371 85.5266 190.371ZM85.5266 192.324C85.0383 192.324 84.6086 192.497 84.2375 192.842C83.8664 193.18 83.5799 193.672 83.3781 194.316C83.1763 194.954 83.0786 195.716 83.0852 196.602C83.0786 197.493 83.1763 198.262 83.3781 198.906C83.5799 199.551 83.8664 200.046 84.2375 200.391C84.6086 200.729 85.0383 200.898 85.5266 200.898C86.0148 200.898 86.4413 200.729 86.8059 200.391C87.177 200.046 87.4634 199.551 87.6652 198.906C87.8736 198.262 87.981 197.493 87.9875 196.602C87.981 195.716 87.8736 194.951 87.6652 194.307C87.4634 193.662 87.177 193.171 86.8059 192.832C86.4413 192.493 86.0148 192.324 85.5266 192.324ZM113.998 206.387H101.42V200.801H103.588V204.629H113.998V206.387ZM113.529 201.875H111.4V195.586H108.685V193.828H111.4V189.102H113.529V201.875ZM103.509 192.227H101.068V197.52C101.986 197.474 102.845 197.363 103.646 197.188L103.822 198.945C103.164 199.095 102.549 199.189 101.976 199.229C101.41 199.261 100.671 199.277 99.7594 199.277H98.9391V190.469H103.509V192.227ZM109.349 192.227H106.556V197.529C107.253 197.516 107.849 197.484 108.343 197.432C108.838 197.373 109.336 197.285 109.838 197.168L110.052 198.926C109.388 199.076 108.734 199.173 108.089 199.219C107.445 199.258 106.53 199.277 105.345 199.277H104.408V190.469H109.349V192.227ZM128.147 192.207C128.14 192.988 128.297 193.74 128.616 194.463C128.941 195.179 129.423 195.814 130.061 196.367C130.699 196.921 131.467 197.344 132.366 197.637L131.233 199.355C130.269 199.03 129.439 198.551 128.743 197.92C128.052 197.282 127.509 196.53 127.112 195.664C126.708 196.621 126.142 197.448 125.412 198.145C124.69 198.841 123.824 199.368 122.815 199.727L121.604 198.008C122.548 197.702 123.345 197.256 123.996 196.67C124.648 196.077 125.136 195.397 125.461 194.629C125.793 193.854 125.959 193.04 125.959 192.188V190.176H128.147V192.207ZM135.745 194.297H138.205V196.133H135.745V202.051H133.577V189.082H135.745V194.297ZM136.448 206.387H124.436V200.781H126.662V204.629H136.448V206.387ZM144.606 189.863C145.361 189.857 146.055 189.99 146.686 190.264C147.318 190.531 147.845 190.911 148.268 191.406C148.698 191.895 148.985 192.461 149.128 193.105H152.321V189.082H154.489V198.555H152.321V194.863H149.147C149.004 195.521 148.718 196.1 148.288 196.602C147.865 197.103 147.334 197.493 146.696 197.773C146.058 198.047 145.361 198.184 144.606 198.184C143.714 198.184 142.914 198.005 142.204 197.646C141.494 197.288 140.938 196.794 140.534 196.162C140.137 195.524 139.938 194.805 139.938 194.004C139.938 193.21 140.137 192.497 140.534 191.865C140.938 191.234 141.494 190.742 142.204 190.391C142.914 190.033 143.714 189.857 144.606 189.863ZM144.606 191.68C144.098 191.68 143.649 191.774 143.259 191.963C142.868 192.152 142.562 192.422 142.341 192.773C142.119 193.125 142.009 193.535 142.009 194.004C142.009 194.466 142.119 194.876 142.341 195.234C142.562 195.586 142.868 195.859 143.259 196.055C143.656 196.25 144.105 196.348 144.606 196.348C145.095 196.348 145.531 196.25 145.915 196.055C146.305 195.859 146.608 195.586 146.823 195.234C147.044 194.876 147.158 194.466 147.165 194.004C147.158 193.535 147.044 193.125 146.823 192.773C146.608 192.422 146.309 192.152 145.925 191.963C145.54 191.774 145.101 191.68 144.606 191.68ZM144.997 201.25H152.321V199.375H154.489V206.523H142.848V199.375H144.997V201.25ZM152.321 204.766V202.93H144.997V204.766H152.321ZM172.823 206.738H170.734V189.082H172.823V206.738ZM169.191 205.879H167.12V197.48H165.441C165.376 198.62 165.174 199.609 164.835 200.449C164.503 201.283 164.057 201.924 163.497 202.373C162.937 202.816 162.296 203.034 161.573 203.027C160.812 203.034 160.141 202.783 159.562 202.275C158.989 201.761 158.546 201.029 158.234 200.078C157.921 199.121 157.765 198.001 157.765 196.719C157.765 195.436 157.921 194.323 158.234 193.379C158.546 192.428 158.989 191.699 159.562 191.191C160.141 190.684 160.812 190.43 161.573 190.43C162.283 190.43 162.911 190.641 163.458 191.064C164.012 191.488 164.454 192.096 164.786 192.891C165.125 193.685 165.336 194.629 165.421 195.723H167.12V189.395H169.191V205.879ZM161.573 192.48C161.202 192.474 160.88 192.633 160.607 192.959C160.333 193.285 160.125 193.766 159.982 194.404C159.838 195.042 159.77 195.814 159.777 196.719C159.77 197.624 159.838 198.395 159.982 199.033C160.125 199.671 160.333 200.153 160.607 200.479C160.88 200.804 161.202 200.964 161.573 200.957C162.166 200.97 162.625 200.609 162.95 199.873C163.282 199.137 163.448 198.086 163.448 196.719C163.448 195.352 163.282 194.3 162.95 193.564C162.625 192.829 162.166 192.467 161.573 192.48ZM190.684 191.445V191.68C190.671 192.578 190.638 193.398 190.586 194.141C190.534 194.883 190.423 195.716 190.254 196.641L188.105 196.445C188.262 195.625 188.369 194.883 188.428 194.219C188.486 193.548 188.525 192.871 188.545 192.188H181.68V190.391H190.684V191.445ZM186.23 197.939C188.32 197.848 190.124 197.695 191.641 197.48L191.758 199.043C190.13 199.336 188.431 199.531 186.66 199.629C184.896 199.72 182.949 199.772 180.82 199.785L180.625 198.047H180.977L184.082 198.008V194.414H186.23V197.939ZM194.902 194.59H197.188V196.406H194.902V202.305H192.676V189.082H194.902V194.59ZM195.469 206.387H183.262V201.133H185.449V204.629H195.469V206.387ZM213.413 199.082H211.225V189.102H213.413V199.082ZM213.413 206.523H201.694V199.961H213.413V206.523ZM203.842 204.766H211.284V201.68H203.842V204.766ZM205.288 191.484C205.288 192.24 205.454 192.962 205.786 193.652C206.118 194.342 206.603 194.954 207.241 195.488C207.879 196.022 208.647 196.432 209.545 196.719L208.491 198.379C207.488 198.066 206.622 197.601 205.893 196.982C205.164 196.357 204.594 195.615 204.184 194.756C203.774 195.687 203.194 196.497 202.446 197.188C201.704 197.871 200.815 198.385 199.78 198.73L198.705 197.012C199.636 196.712 200.427 196.279 201.079 195.713C201.73 195.146 202.218 194.499 202.543 193.77C202.875 193.034 203.041 192.272 203.041 191.484V189.766H205.288V191.484ZM231.278 206.758H229.091V189.082H231.278V206.758ZM221.766 190.371C222.652 190.371 223.44 190.628 224.13 191.143C224.826 191.65 225.373 192.376 225.77 193.32C226.167 194.258 226.369 195.352 226.376 196.602C226.369 197.858 226.167 198.958 225.77 199.902C225.38 200.846 224.836 201.576 224.139 202.09C223.443 202.598 222.652 202.852 221.766 202.852C220.874 202.852 220.08 202.598 219.384 202.09C218.687 201.576 218.14 200.846 217.743 199.902C217.352 198.958 217.157 197.858 217.157 196.602C217.157 195.352 217.352 194.258 217.743 193.32C218.14 192.376 218.687 191.65 219.384 191.143C220.08 190.628 220.874 190.371 221.766 190.371ZM221.766 192.324C221.265 192.324 220.822 192.493 220.438 192.832C220.061 193.171 219.768 193.662 219.559 194.307C219.351 194.951 219.247 195.716 219.247 196.602C219.247 197.493 219.351 198.262 219.559 198.906C219.768 199.551 220.061 200.046 220.438 200.391C220.822 200.729 221.265 200.898 221.766 200.898C222.261 200.898 222.697 200.729 223.075 200.391C223.453 200.046 223.746 199.551 223.954 198.906C224.162 198.262 224.266 197.493 224.266 196.602C224.266 195.716 224.162 194.954 223.954 194.316C223.746 193.672 223.453 193.18 223.075 192.842C222.697 192.497 222.261 192.324 221.766 192.324ZM246.091 200.566C246.091 201.341 246.274 202.083 246.638 202.793C247.009 203.496 247.556 204.079 248.279 204.541C249.008 204.046 249.565 203.441 249.949 202.725C250.333 202.002 250.532 201.283 250.545 200.566V199.844H252.673V200.566C252.667 201.198 252.787 201.797 253.035 202.363C253.282 202.93 253.66 203.431 254.168 203.867C254.682 204.303 255.317 204.642 256.072 204.883L255.017 206.465C254.177 206.185 253.468 205.778 252.888 205.244C252.309 204.71 251.86 204.082 251.541 203.359C251.241 204.089 250.821 204.736 250.281 205.303C249.747 205.876 249.099 206.315 248.337 206.621C247.53 206.328 246.853 205.905 246.306 205.352C245.759 204.798 245.339 204.154 245.046 203.418C244.727 204.115 244.282 204.723 243.709 205.244C243.142 205.771 242.459 206.178 241.658 206.465L240.584 204.883C241.319 204.622 241.941 204.268 242.449 203.818C242.957 203.363 243.337 202.855 243.591 202.295C243.845 201.735 243.976 201.159 243.982 200.566V199.844H246.091V200.566ZM254.529 199.102H252.341V189.102H254.529V199.102ZM244.9 190.039C245.798 190.039 246.609 190.218 247.332 190.576C248.054 190.928 248.621 191.423 249.031 192.061C249.441 192.699 249.646 193.424 249.646 194.238C249.646 195.046 249.441 195.768 249.031 196.406C248.621 197.038 248.054 197.533 247.332 197.891C246.609 198.242 245.798 198.418 244.9 198.418C243.995 198.418 243.181 198.242 242.459 197.891C241.736 197.533 241.166 197.038 240.75 196.406C240.339 195.768 240.134 195.046 240.134 194.238C240.134 193.424 240.339 192.699 240.75 192.061C241.166 191.423 241.736 190.928 242.459 190.576C243.181 190.218 243.995 190.039 244.9 190.039ZM244.9 191.875C244.386 191.875 243.927 191.973 243.523 192.168C243.126 192.363 242.813 192.64 242.586 192.998C242.364 193.35 242.257 193.763 242.263 194.238C242.257 194.714 242.364 195.13 242.586 195.488C242.813 195.846 243.126 196.126 243.523 196.328C243.927 196.523 244.386 196.621 244.9 196.621C245.408 196.621 245.857 196.523 246.248 196.328C246.645 196.133 246.954 195.856 247.175 195.498C247.403 195.133 247.517 194.714 247.517 194.238C247.517 193.763 247.407 193.35 247.185 192.998C246.964 192.64 246.655 192.363 246.257 192.168C245.86 191.973 245.408 191.875 244.9 191.875ZM274.152 197.676H271.535V206.699H269.367V189.082H271.535V195.898H274.152V197.676ZM260.48 200.547C263.156 200.501 265.663 200.234 268 199.746L268.234 201.582C265.663 202.09 262.857 202.344 259.816 202.344H258.332V190.801H260.48V200.547ZM291.725 204.59H275.592V202.812H279.323V198.35C278.607 197.933 278.05 197.415 277.653 196.797C277.262 196.178 277.07 195.482 277.077 194.707C277.07 193.789 277.347 192.975 277.907 192.266C278.467 191.556 279.245 191.009 280.241 190.625C281.237 190.234 282.363 190.039 283.62 190.039C284.883 190.039 286.012 190.234 287.008 190.625C288.011 191.009 288.792 191.556 289.352 192.266C289.918 192.969 290.202 193.783 290.202 194.707C290.202 195.462 290.01 196.149 289.625 196.768C289.248 197.38 288.711 197.891 288.014 198.301V202.812H291.725V204.59ZM283.62 191.758C282.741 191.758 281.966 191.878 281.295 192.119C280.631 192.354 280.114 192.692 279.743 193.135C279.378 193.577 279.199 194.102 279.205 194.707C279.199 195.306 279.378 195.827 279.743 196.27C280.114 196.712 280.635 197.054 281.305 197.295C281.976 197.536 282.747 197.656 283.62 197.656C284.492 197.656 285.263 197.536 285.934 197.295C286.611 197.054 287.135 196.712 287.506 196.27C287.884 195.827 288.073 195.306 288.073 194.707C288.073 194.108 287.884 193.587 287.506 193.145C287.135 192.695 286.614 192.354 285.944 192.119C285.273 191.878 284.498 191.758 283.62 191.758ZM285.807 202.812V199.131C285.117 199.281 284.388 199.355 283.62 199.355C282.884 199.355 282.168 199.284 281.471 199.141V202.812H285.807ZM296.466 200.664C296.472 199.863 296.55 199.215 296.7 198.721C296.85 198.226 297.058 197.832 297.325 197.539C297.598 197.24 297.963 196.947 298.419 196.66C298.881 196.367 299.239 196.048 299.493 195.703C299.753 195.352 299.884 194.948 299.884 194.492C299.884 194.134 299.799 193.822 299.63 193.555C299.46 193.281 299.229 193.07 298.936 192.92C298.65 192.77 298.328 192.695 297.97 192.695C297.631 192.695 297.315 192.767 297.022 192.91C296.729 193.053 296.488 193.271 296.3 193.564C296.117 193.857 296.016 194.212 295.997 194.629H293.555C293.575 193.783 293.783 193.063 294.18 192.471C294.578 191.872 295.108 191.423 295.772 191.123C296.436 190.817 297.175 190.664 297.989 190.664C298.861 190.664 299.633 190.82 300.304 191.133C300.981 191.439 301.505 191.878 301.876 192.451C302.253 193.024 302.442 193.691 302.442 194.453C302.442 195.208 302.263 195.859 301.905 196.406C301.554 196.953 301.042 197.428 300.372 197.832C299.981 198.066 299.669 198.311 299.434 198.564C299.207 198.812 299.037 199.102 298.927 199.434C298.816 199.766 298.757 200.176 298.751 200.664V200.84H296.466V200.664ZM297.677 205.156C297.403 205.156 297.149 205.088 296.915 204.951C296.68 204.814 296.495 204.629 296.358 204.395C296.221 204.16 296.153 203.906 296.153 203.633C296.153 203.366 296.221 203.118 296.358 202.891C296.495 202.656 296.68 202.471 296.915 202.334C297.149 202.197 297.403 202.129 297.677 202.129C297.937 202.129 298.181 202.197 298.409 202.334C298.643 202.471 298.829 202.656 298.966 202.891C299.109 203.118 299.18 203.366 299.18 203.633C299.18 203.906 299.109 204.16 298.966 204.395C298.829 204.629 298.643 204.814 298.409 204.951C298.181 205.088 297.937 205.156 297.677 205.156Z" fill="#757575"/>
<rect x="33" y="719" width="294" height="53" rx="26.5" fill="#143D60"/>
<path d="M177.573 744.5H179.666V746.125H177.573V753.469H175.573V739.219H177.573V744.5ZM173.588 742.141H168.901V748.375C170.02 748.365 171.02 748.326 171.901 748.258C172.781 748.19 173.666 748.078 174.557 747.922L174.776 749.594C173.823 749.755 172.882 749.867 171.955 749.93C171.033 749.987 169.974 750.016 168.776 750.016H168.119H166.916V740.531H173.588V742.141ZM187.146 739.484C188.193 739.484 189.105 739.596 189.881 739.82C190.657 740.044 191.256 740.365 191.678 740.781C192.099 741.198 192.313 741.693 192.318 742.266C192.313 742.833 192.099 743.326 191.678 743.742C191.256 744.159 190.657 744.477 189.881 744.695C189.105 744.914 188.193 745.021 187.146 745.016C186.105 745.021 185.193 744.914 184.412 744.695C183.631 744.471 183.026 744.154 182.599 743.742C182.172 743.326 181.959 742.833 181.959 742.266C181.959 741.693 182.172 741.198 182.599 740.781C183.026 740.365 183.631 740.044 184.412 739.82C185.193 739.596 186.105 739.484 187.146 739.484ZM187.146 741.031C186.146 741.031 185.375 741.138 184.834 741.352C184.297 741.56 184.032 741.865 184.037 742.266C184.032 742.661 184.297 742.961 184.834 743.164C185.37 743.367 186.141 743.469 187.146 743.469C188.141 743.469 188.907 743.367 189.443 743.164C189.985 742.961 190.256 742.661 190.256 742.266C190.256 741.865 189.985 741.56 189.443 741.352C188.907 741.138 188.141 741.031 187.146 741.031ZM192.084 753.281H182.162V748.438H192.084V753.281ZM184.131 751.688H190.131V750.016H184.131V751.688ZM193.631 747.438H180.662V745.844H193.631V747.438Z" fill="white"/>
<path d="M50.382 40.5484C49.5609 39.8172 48.237 39.8172 47.4159 40.5484L33.4902 52.948C32.8366 53.53 32.8366 54.47 33.4902 55.052L47.4159 67.4516C48.237 68.1828 49.5609 68.1828 50.382 67.4516C51.2032 66.7205 51.2032 65.5417 50.382 64.8106L38.2494 53.9925L50.3988 43.1745C51.2032 42.4583 51.2032 41.2646 50.382 40.5484Z" fill="#757575"/>
<path d="M33 276C33 271.582 36.5817 268 41 268H115C119.418 268 123 271.582 123 276V310C123 314.418 119.418 318 115 318H41C36.5817 318 33 314.418 33 310V276Z" fill="white"/>
<path d="M41 268V268.5H115V268V267.5H41V268ZM123 276H122.5V310H123H123.5V276H123ZM115 318V317.5H41V318V318.5H115V318ZM33 310H33.5V276H33H32.5V310H33ZM41 318V317.5C36.8579 317.5 33.5 314.142 33.5 310H33H32.5C32.5 314.694 36.3056 318.5 41 318.5V318ZM123 310H122.5C122.5 314.142 119.142 317.5 115 317.5V318V318.5C119.694 318.5 123.5 314.694 123.5 310H123ZM115 268V268.5C119.142 268.5 122.5 271.858 122.5 276H123H123.5C123.5 271.306 119.694 267.5 115 267.5V268ZM41 268V267.5C36.3056 267.5 32.5 271.306 32.5 276H33H33.5C33.5 271.858 36.8579 268.5 41 268.5V268Z" fill="#D9D9D9"/>
<path d="M75.7469 301.738H73.5594V284.082H75.7469V301.738ZM70.4734 285.957C70.4734 288.763 69.8387 291.227 68.5691 293.35C67.2996 295.465 65.1935 297.22 62.2508 298.613L61.118 296.875C63.3901 295.794 65.0991 294.502 66.2449 292.998C67.3973 291.488 68.0711 289.714 68.2664 287.676H62.0164V285.957H70.4734ZM88.0461 284.648C88.0461 285.28 88.3 285.876 88.8078 286.436C89.3156 286.995 90.0318 287.471 90.9563 287.861C91.8807 288.252 92.9419 288.516 94.1398 288.652L93.4172 290.293C91.9263 290.124 90.6112 289.756 89.4719 289.189C88.3391 288.617 87.4862 287.904 86.9133 287.051C86.3469 287.904 85.4973 288.617 84.3645 289.189C83.2316 289.756 81.9263 290.124 80.4484 290.293L79.7063 288.652C80.9172 288.516 81.9849 288.252 82.9094 287.861C83.8339 287.471 84.5467 286.995 85.048 286.436C85.5559 285.876 85.813 285.28 85.8195 284.648V284.18H88.0461V284.648ZM94.9797 292.891H87.9875V294.258H92.968V298.633H82.9289V299.922H93.4563V301.582H80.8V297.07H90.8391V295.918H80.7805V294.258H85.8195V292.891H78.8859V291.172H94.9797V292.891Z" fill="#757575"/>
<path d="M237 336C237 331.582 240.582 328 245 328H319C323.418 328 327 331.582 327 336V370C327 374.418 323.418 378 319 378H245C240.582 378 237 374.418 237 370V336Z" fill="white"/>
<path d="M245 328V328.5H319V328V327.5H245V328ZM327 336H326.5V370H327H327.5V336H327ZM319 378V377.5H245V378V378.5H319V378ZM237 370H237.5V336H237H236.5V370H237ZM245 378V377.5C240.858 377.5 237.5 374.142 237.5 370H237H236.5C236.5 374.694 240.306 378.5 245 378.5V378ZM327 370H326.5C326.5 374.142 323.142 377.5 319 377.5V378V378.5C323.694 378.5 327.5 374.694 327.5 370H327ZM319 328V328.5C323.142 328.5 326.5 331.858 326.5 336H327H327.5C327.5 331.306 323.694 327.5 319 327.5V328ZM245 328V327.5C240.306 327.5 236.5 331.306 236.5 336H237H237.5C237.5 331.858 240.858 328.5 245 328.5V328Z" fill="#D9D9D9"/>
<path d="M279.786 353.027H277.618V351.484H273.36V349.824H277.618V348.086H273.585C272.498 350.749 269.968 352.526 265.997 353.418L265.235 351.641C267.26 351.224 268.813 350.583 269.893 349.717C270.981 348.851 271.602 347.812 271.759 346.602H266.212V344.844H274.18C274.18 345.358 274.138 345.885 274.054 346.426H277.618V344.082H279.786V353.027ZM279.786 358.359H270.352V359.824H280.255V361.562H268.184V356.738H277.618V355.43H268.165V353.711H279.786V358.359ZM298.081 361.738H296.011V344.082H298.081V361.738ZM294.488 360.879H292.437V351.992H289.898V350.234H292.437V344.414H294.488V360.879ZM288.335 348.906C288.335 349.941 288.462 350.934 288.716 351.885C288.976 352.835 289.374 353.698 289.907 354.473C290.448 355.247 291.122 355.866 291.929 356.328L290.64 357.93C289.846 357.454 289.172 356.82 288.618 356.025C288.065 355.225 287.629 354.303 287.31 353.262C286.991 354.388 286.545 355.391 285.972 356.27C285.399 357.142 284.709 357.832 283.902 358.34L282.573 356.719C283.394 356.224 284.077 355.563 284.624 354.736C285.178 353.91 285.585 352.998 285.845 352.002C286.112 350.999 286.245 349.967 286.245 348.906V347.734H283.179V345.977H291.187V347.734H288.335V348.906Z" fill="#757575"/>
<path d="M33 516C33 511.582 36.5817 508 41 508H115C119.418 508 123 511.582 123 516V550C123 554.418 119.418 558 115 558H41C36.5817 558 33 554.418 33 550V516Z" fill="white"/>
<path d="M41 508V508.5H115V508V507.5H41V508ZM123 516H122.5V550H123H123.5V516H123ZM115 558V557.5H41V558V558.5H115V558ZM33 550H33.5V516H33H32.5V550H33ZM41 558V557.5C36.8579 557.5 33.5 554.142 33.5 550H33H32.5C32.5 554.694 36.3056 558.5 41 558.5V558ZM123 550H122.5C122.5 554.142 119.142 557.5 115 557.5V558V558.5C119.694 558.5 123.5 554.694 123.5 550H123ZM115 508V508.5C119.142 508.5 122.5 511.858 122.5 516H123H123.5C123.5 511.306 119.694 507.5 115 507.5V508ZM41 508V507.5C36.3056 507.5 32.5 511.306 32.5 516H33H33.5C33.5 511.858 36.8579 508.5 41 508.5V508Z" fill="#D9D9D9"/>
<path d="M77.1336 539.609H61.0008V537.832H67.9539V534.395H62.7781V525.254H64.9461V528.145H73.1297V525.254H75.2977V534.395H70.1023V537.832H77.1336V539.609ZM73.1297 532.637V529.883H64.9461V532.637H73.1297ZM93.6711 534.766H91.5031V531.113H88.9836V529.316H91.5031V524.082H93.6711V534.766ZM93.6711 541.523H81.9328V535.566H93.6711V541.523ZM84.1008 539.766H91.5422V537.285H84.1008V539.766ZM89.2766 527.48H78.925V525.723H83.0266V523.945H85.175V525.723H89.2766V527.48ZM84.1008 528.164C84.9081 528.164 85.6275 528.301 86.259 528.574C86.897 528.841 87.3951 529.215 87.7531 529.697C88.1112 530.173 88.2935 530.716 88.3 531.328C88.2935 531.96 88.1112 532.516 87.7531 532.998C87.4016 533.473 86.9068 533.841 86.2688 534.102C85.6372 534.362 84.9146 534.492 84.1008 534.492C83.2935 534.492 82.5708 534.362 81.9328 534.102C81.3013 533.841 80.8065 533.47 80.4484 532.988C80.0969 532.507 79.9211 531.953 79.9211 531.328C79.9211 530.716 80.1001 530.173 80.4582 529.697C80.8163 529.215 81.3111 528.841 81.9426 528.574C82.5741 528.301 83.2935 528.164 84.1008 528.164ZM84.1008 529.805C83.4628 529.805 82.9517 529.941 82.5676 530.215C82.1835 530.488 81.9914 530.859 81.9914 531.328C81.9914 531.81 82.1802 532.188 82.5578 532.461C82.9419 532.734 83.4563 532.871 84.1008 532.871C84.7453 532.871 85.2564 532.734 85.634 532.461C86.0181 532.188 86.2102 531.81 86.2102 531.328C86.2102 530.859 86.0181 530.488 85.634 530.215C85.2499 529.941 84.7388 529.805 84.1008 529.805Z" fill="#757575"/>
<path d="M140 336C140 331.582 143.582 328 148 328H222C226.418 328 230 331.582 230 336V370C230 374.418 226.418 378 222 378H148C143.582 378 140 374.418 140 370V336Z" fill="white"/>
<path d="M148 328V328.5H222V328V327.5H148V328ZM230 336H229.5V370H230H230.5V336H230ZM222 378V377.5H148V378V378.5H222V378ZM140 370H140.5V336H140H139.5V370H140ZM148 378V377.5C143.858 377.5 140.5 374.142 140.5 370H140H139.5C139.5 374.694 143.306 378.5 148 378.5V378ZM230 370H229.5C229.5 374.142 226.142 377.5 222 377.5V378V378.5C226.694 378.5 230.5 374.694 230.5 370H230ZM222 328V328.5C226.142 328.5 229.5 331.858 229.5 336H230H230.5C230.5 331.306 226.694 327.5 222 327.5V328ZM148 328V327.5C143.306 327.5 139.5 331.306 139.5 336H140H140.5C140.5 331.858 143.858 328.5 148 328.5V328Z" fill="#D9D9D9"/>
<path d="M172.161 345.41C172.851 345.41 173.479 345.557 174.046 345.85C174.612 346.143 175.078 346.559 175.442 347.1C175.813 347.633 176.054 348.255 176.165 348.965H177.571V344.395H179.583V356.719H177.571V350.742H176.145C176.028 351.426 175.784 352.028 175.413 352.549C175.042 353.07 174.576 353.473 174.016 353.76C173.457 354.04 172.838 354.18 172.161 354.18C171.386 354.18 170.693 353.994 170.081 353.623C169.469 353.252 168.987 352.734 168.636 352.07C168.29 351.406 168.118 350.651 168.118 349.805C168.118 348.945 168.29 348.184 168.636 347.52C168.981 346.849 169.459 346.331 170.071 345.967C170.69 345.596 171.386 345.41 172.161 345.41ZM172.161 347.266C171.751 347.266 171.386 347.37 171.067 347.578C170.748 347.786 170.501 348.083 170.325 348.467C170.149 348.851 170.065 349.297 170.071 349.805C170.065 350.312 170.149 350.755 170.325 351.133C170.501 351.51 170.748 351.8 171.067 352.002C171.386 352.204 171.751 352.305 172.161 352.305C172.565 352.305 172.926 352.204 173.245 352.002C173.564 351.8 173.815 351.51 173.997 351.133C174.186 350.749 174.283 350.306 174.29 349.805C174.283 349.297 174.186 348.851 173.997 348.467C173.815 348.083 173.564 347.786 173.245 347.578C172.926 347.37 172.565 347.266 172.161 347.266ZM183.098 357.246H181.028V344.082H183.098V357.246ZM183.587 361.387H171.282V355.547H173.45V359.629H183.587V361.387ZM200.691 361.758H198.542V352.227H195.222V350.469H198.542V344.082H200.691V361.758ZM194.948 347.383H188.874V350.547H194.245V352.266H188.874V355.898C190.32 355.892 191.573 355.856 192.634 355.791C193.702 355.726 194.773 355.605 195.847 355.43L196.062 357.188C194.838 357.376 193.624 357.507 192.419 357.578C191.215 357.643 189.766 357.682 188.073 357.695H186.687V345.605H194.948V347.383Z" fill="#757575"/>
<path d="M237 276C237 271.582 240.582 268 245 268H319C323.418 268 327 271.582 327 276V310C327 314.418 323.418 318 319 318H245C240.582 318 237 314.418 237 310V276Z" fill="white"/>
<path d="M245 268V268.5H319V268V267.5H245V268ZM327 276H326.5V310H327H327.5V276H327ZM319 318V317.5H245V318V318.5H319V318ZM237 310H237.5V276H237H236.5V310H237ZM245 318V317.5C240.858 317.5 237.5 314.142 237.5 310H237H236.5C236.5 314.694 240.306 318.5 245 318.5V318ZM327 310H326.5C326.5 314.142 323.142 317.5 319 317.5V318V318.5C323.694 318.5 327.5 314.694 327.5 310H327ZM319 268V268.5C323.142 268.5 326.5 271.858 326.5 276H327H327.5C327.5 271.306 323.694 267.5 319 267.5V268ZM245 268V267.5C240.306 267.5 236.5 271.306 236.5 276H237H237.5C237.5 271.858 240.858 268.5 245 268.5V268Z" fill="#D9D9D9"/>
<path d="M278.927 288.73H281.388V290.547H278.927V295.352H276.759V284.082H278.927V288.73ZM273.223 295.508C274.421 295.508 275.463 295.632 276.348 295.879C277.24 296.126 277.924 296.484 278.399 296.953C278.881 297.415 279.122 297.969 279.122 298.613C279.122 299.251 278.881 299.801 278.399 300.264C277.924 300.732 277.24 301.09 276.348 301.338C275.463 301.592 274.421 301.719 273.223 301.719C272.006 301.719 270.951 301.595 270.059 301.348C269.174 301.1 268.494 300.742 268.018 300.273C267.55 299.805 267.318 299.251 267.325 298.613C267.318 297.969 267.55 297.415 268.018 296.953C268.494 296.484 269.174 296.126 270.059 295.879C270.951 295.632 272.006 295.508 273.223 295.508ZM273.223 297.168C271.993 297.168 271.059 297.288 270.421 297.529C269.783 297.77 269.467 298.132 269.473 298.613C269.46 299.082 269.779 299.443 270.43 299.697C271.082 299.951 272.013 300.078 273.223 300.078C274.415 300.078 275.333 299.951 275.977 299.697C276.628 299.443 276.954 299.082 276.954 298.613C276.954 298.132 276.635 297.77 275.997 297.529C275.359 297.288 274.434 297.168 273.223 297.168ZM275.489 287.578H265.02V285.879H269.18V283.965H271.348V285.879H275.489V287.578ZM270.255 288.281C271.101 288.281 271.85 288.415 272.501 288.682C273.152 288.942 273.656 289.313 274.014 289.795C274.379 290.27 274.565 290.82 274.571 291.445C274.565 292.07 274.379 292.62 274.014 293.096C273.656 293.571 273.152 293.939 272.501 294.199C271.85 294.46 271.101 294.59 270.255 294.59C269.402 294.59 268.647 294.46 267.989 294.199C267.338 293.939 266.83 293.571 266.466 293.096C266.101 292.62 265.919 292.07 265.919 291.445C265.919 290.82 266.101 290.27 266.466 289.795C266.83 289.313 267.338 288.942 267.989 288.682C268.647 288.415 269.402 288.281 270.255 288.281ZM270.255 289.883C269.578 289.883 269.037 290.023 268.634 290.303C268.23 290.583 268.028 290.964 268.028 291.445C268.028 291.921 268.227 292.292 268.624 292.559C269.027 292.819 269.571 292.949 270.255 292.949C270.938 292.949 271.482 292.816 271.886 292.549C272.296 292.282 272.501 291.914 272.501 291.445C272.501 290.964 272.296 290.583 271.886 290.303C271.482 290.023 270.938 289.883 270.255 289.883ZM290.835 295.117C292.111 295.124 293.218 295.26 294.155 295.527C295.093 295.788 295.816 296.165 296.323 296.66C296.838 297.155 297.098 297.747 297.105 298.438C297.098 299.115 296.838 299.697 296.323 300.186C295.816 300.68 295.09 301.058 294.146 301.318C293.208 301.585 292.105 301.719 290.835 301.719C289.572 301.719 288.469 301.585 287.525 301.318C286.587 301.058 285.861 300.68 285.347 300.186C284.839 299.697 284.585 299.115 284.585 298.438C284.585 297.747 284.839 297.155 285.347 296.66C285.861 296.165 286.587 295.788 287.525 295.527C288.462 295.26 289.566 295.124 290.835 295.117ZM290.835 296.758C289.559 296.758 288.56 296.904 287.837 297.197C287.121 297.49 286.766 297.904 286.773 298.438C286.766 298.952 287.121 299.349 287.837 299.629C288.553 299.902 289.553 300.039 290.835 300.039C292.124 300.039 293.13 299.902 293.853 299.629C294.582 299.349 294.95 298.952 294.956 298.438C294.95 297.904 294.582 297.49 293.853 297.197C293.13 296.904 292.124 296.758 290.835 296.758ZM296.988 286.387C296.988 287.324 296.958 288.138 296.9 288.828C296.848 289.518 296.714 290.267 296.499 291.074L294.351 290.879C294.546 290.104 294.673 289.404 294.732 288.779C294.79 288.148 294.82 287.435 294.82 286.641H284.761V284.922H296.988V286.387ZM298.941 293.848H282.925V292.09H289.136V288.887H291.284V292.09H298.941V293.848Z" fill="#757575"/>
<path d="M130 276C130 271.582 133.582 268 138 268H222C226.418 268 230 271.582 230 276V310C230 314.418 226.418 318 222 318H138C133.582 318 130 314.418 130 310V276Z" fill="white"/>
<path d="M138 268V268.5H222V268V267.5H138V268ZM230 276H229.5V310H230H230.5V276H230ZM222 318V317.5H138V318V318.5H222V318ZM130 310H130.5V276H130H129.5V310H130ZM138 318V317.5C133.858 317.5 130.5 314.142 130.5 310H130H129.5C129.5 314.694 133.306 318.5 138 318.5V318ZM230 310H229.5C229.5 314.142 226.142 317.5 222 317.5V318V318.5C226.694 318.5 230.5 314.694 230.5 310H230ZM222 268V268.5C226.142 268.5 229.5 271.858 229.5 276H230H230.5C230.5 271.306 226.694 267.5 222 267.5V268ZM138 268V267.5C133.306 267.5 129.5 271.306 129.5 276H130H130.5C130.5 271.858 133.858 268.5 138 268.5V268Z" fill="#D9D9D9"/>
<path d="M163.082 285.82C163.075 287.741 162.841 289.482 162.379 291.045C161.916 292.601 161.106 294.053 159.947 295.4C158.788 296.742 157.196 297.936 155.171 298.984L153.98 297.324C155.425 296.576 156.62 295.762 157.564 294.883C158.515 293.997 159.254 293.021 159.781 291.953L154.371 292.461L154.058 290.605L160.455 290.215C160.689 289.414 160.842 288.535 160.914 287.578H154.976V285.82H163.082ZM168.843 301.738H166.675V292.754H163.043V290.977H166.675V284.082H168.843V301.738ZM180.928 290.312H184.6V284.082H186.748V301.758H184.6V292.07H180.928V297.383H172.607V285.723H180.928V290.312ZM174.775 295.664H178.799V287.422H174.775V295.664ZM198.95 286.504C198.95 287.409 199.223 288.291 199.77 289.15C200.323 290.01 201.085 290.752 202.055 291.377C203.025 291.995 204.112 292.409 205.317 292.617L204.34 294.434C202.862 294.121 201.547 293.545 200.395 292.705C199.249 291.859 198.39 290.84 197.817 289.648C197.231 290.833 196.362 291.849 195.209 292.695C194.057 293.535 192.745 294.115 191.274 294.434L190.317 292.617C191.508 292.402 192.582 291.986 193.539 291.367C194.503 290.742 195.258 290 195.805 289.141C196.358 288.281 196.638 287.402 196.645 286.504V285.195H198.95V286.504ZM205.961 299.492H189.829V297.695H205.961V299.492Z" fill="#757575"/>
<path d="M130 516C130 511.582 133.582 508 138 508H222C226.418 508 230 511.582 230 516V550C230 554.418 226.418 558 222 558H138C133.582 558 130 554.418 130 550V516Z" fill="white"/>
<path d="M138 508V508.5H222V508V507.5H138V508ZM230 516H229.5V550H230H230.5V516H230ZM222 558V557.5H138V558V558.5H222V558ZM130 550H130.5V516H130H129.5V550H130ZM138 558V557.5C133.858 557.5 130.5 554.142 130.5 550H130H129.5C129.5 554.694 133.306 558.5 138 558.5V558ZM230 550H229.5C229.5 554.142 226.142 557.5 222 557.5V558V558.5C226.694 558.5 230.5 554.694 230.5 550H230ZM222 508V508.5C226.142 508.5 229.5 511.858 229.5 516H230H230.5C230.5 511.306 226.694 507.5 222 507.5V508ZM138 508V507.5C133.306 507.5 129.5 511.306 129.5 516H130H130.5C130.5 511.858 133.858 508.5 138 508.5V508Z" fill="#D9D9D9"/>
<path d="M170.191 539.551H154.058V537.793H160.972V533.711H163.121V537.793H170.191V539.551ZM163.179 526.445C163.179 527.331 163.453 528.19 164 529.023C164.553 529.857 165.315 530.573 166.285 531.172C167.261 531.764 168.355 532.155 169.566 532.344L168.629 534.141C167.138 533.861 165.81 533.317 164.644 532.51C163.485 531.696 162.613 530.713 162.027 529.561C161.636 530.322 161.115 531.019 160.464 531.65C159.813 532.275 159.061 532.803 158.209 533.232C157.356 533.656 156.441 533.958 155.464 534.141L154.527 532.344C155.725 532.155 156.806 531.764 157.769 531.172C158.739 530.573 159.498 529.857 160.045 529.023C160.591 528.184 160.868 527.324 160.875 526.445V525.156H163.179V526.445ZM186.631 541.758H184.443V524.082H186.631V541.758ZM175.049 529.941H179.326V525.527H181.475V537.598H172.881V525.527H175.049V529.941ZM179.326 535.82V531.641H175.049V535.82H179.326ZM205.141 541.738H203.071V532.793H201.254V540.879H199.204V524.395H201.254V530.996H203.071V524.082H205.141V541.738ZM195.317 528.594C195.317 530.267 195.616 531.755 196.215 533.057C196.814 534.359 197.739 535.332 198.989 535.977L197.719 537.637C196.899 537.201 196.205 536.611 195.639 535.869C195.079 535.127 194.636 534.261 194.311 533.271C194.005 534.404 193.565 535.394 192.993 536.24C192.426 537.087 191.717 537.76 190.864 538.262L189.536 536.602C190.786 535.892 191.71 534.837 192.309 533.438C192.908 532.031 193.207 530.417 193.207 528.594V527.754H190.063V526.016H198.207V527.754H195.317V528.594Z" fill="#757575"/>
<path d="M240 516C240 511.582 243.582 508 248 508H332C336.418 508 340 511.582 340 516V550C340 554.418 336.418 558 332 558H248C243.582 558 240 554.418 240 550V516Z" fill="white"/>
<path d="M248 508V508.5H332V508V507.5H248V508ZM340 516H339.5V550H340H340.5V516H340ZM332 558V557.5H248V558V558.5H332V558ZM240 550H240.5V516H240H239.5V550H240ZM248 558V557.5C243.858 557.5 240.5 554.142 240.5 550H240H239.5C239.5 554.694 243.306 558.5 248 558.5V558ZM340 550H339.5C339.5 554.142 336.142 557.5 332 557.5V558V558.5C336.694 558.5 340.5 554.694 340.5 550H340ZM332 508V508.5C336.142 508.5 339.5 511.858 339.5 516H340H340.5C340.5 511.306 336.694 507.5 332 507.5V508ZM248 508V507.5C243.306 507.5 239.5 511.306 239.5 516H240H240.5C240.5 511.858 243.858 508.5 248 508.5V508Z" fill="#D9D9D9"/>
<path d="M273.464 525.859H282.664V527.988H276.004V531.855H282.175V533.984H276.004V537.852H282.703V540H273.464V525.859ZM285.08 525.859H296.35V527.988H291.994V540H289.455V527.988H285.08V525.859ZM298.942 525.859H308.004V527.988H301.481V531.855H307.379V533.984H301.481V540H298.942V525.859Z" fill="#757575"/>
<path d="M157 396C157 391.582 160.582 388 165 388H249C253.418 388 257 391.582 257 396V430C257 434.418 253.418 438 249 438H165C160.582 438 157 434.418 157 430V396Z" fill="white"/>
<path d="M165 388V388.5H249V388V387.5H165V388ZM257 396H256.5V430H257H257.5V396H257ZM249 438V437.5H165V438V438.5H249V438ZM157 430H157.5V396H157H156.5V430H157ZM165 438V437.5C160.858 437.5 157.5 434.142 157.5 430H157H156.5C156.5 434.694 160.306 438.5 165 438.5V438ZM257 430H256.5C256.5 434.142 253.142 437.5 249 437.5V438V438.5C253.694 438.5 257.5 434.694 257.5 430H257ZM249 388V388.5C253.142 388.5 256.5 391.858 256.5 396H257H257.5C257.5 391.306 253.694 387.5 249 387.5V388ZM165 388V387.5C160.306 387.5 156.5 391.306 156.5 396H157H157.5C157.5 391.858 160.858 388.5 165 388.5V388Z" fill="#D9D9D9"/>
<path d="M195.765 421.758H193.617V404.082H195.765V421.758ZM190.336 412.246H184.261V415.801C185.752 415.788 187.119 415.736 188.363 415.645C189.613 415.553 190.889 415.397 192.191 415.176L192.386 416.953C190.987 417.201 189.61 417.367 188.255 417.451C186.901 417.536 185.342 417.578 183.578 417.578H182.035V410.527H188.129V407.383H182.015V405.625H190.336V412.246ZM206.131 407.832H201.6V410.859H205.389V412.539H201.6V415.967C202.687 415.954 203.628 415.918 204.422 415.859C205.216 415.794 206.033 415.69 206.873 415.547L207.068 417.285C206.124 417.467 205.2 417.585 204.295 417.637C203.39 417.689 202.186 417.715 200.682 417.715H199.529V406.113H206.131V407.832ZM214.178 421.738H212.068V404.082H214.178V421.738ZM210.467 420.879H208.436V412.363H206.248V410.605H208.436V404.434H210.467V420.879ZM221.829 404.648C222.714 404.648 223.511 404.821 224.221 405.166C224.931 405.505 225.487 405.977 225.891 406.582C226.301 407.188 226.51 407.871 226.516 408.633C226.51 409.401 226.301 410.088 225.891 410.693C225.487 411.299 224.931 411.771 224.221 412.109C223.511 412.448 222.714 412.617 221.829 412.617C220.937 412.617 220.133 412.448 219.416 412.109C218.707 411.771 218.15 411.299 217.746 410.693C217.343 410.088 217.141 409.401 217.141 408.633C217.141 407.871 217.343 407.188 217.746 406.582C218.15 405.977 218.71 405.505 219.426 405.166C220.142 404.821 220.943 404.648 221.829 404.648ZM221.829 406.445C221.334 406.445 220.891 406.536 220.5 406.719C220.11 406.895 219.804 407.148 219.582 407.48C219.361 407.806 219.25 408.19 219.25 408.633C219.25 409.082 219.361 409.476 219.582 409.814C219.804 410.146 220.11 410.404 220.5 410.586C220.891 410.768 221.334 410.859 221.829 410.859C222.323 410.859 222.766 410.768 223.157 410.586C223.547 410.404 223.853 410.146 224.075 409.814C224.296 409.476 224.407 409.082 224.407 408.633C224.407 408.19 224.296 407.806 224.075 407.48C223.853 407.148 223.547 406.895 223.157 406.719C222.766 406.536 222.323 406.445 221.829 406.445ZM231.536 413.008H229.348V404.082H231.536V413.008ZM231.536 418.379H221.985V419.805H232.063V421.523H219.856V416.777H229.368V415.469H219.817V413.77H231.536V418.379Z" fill="#757575"/>
<path d="M33 336C33 331.582 36.5817 328 41 328H125C129.418 328 133 331.582 133 336V370C133 374.418 129.418 378 125 378H41C36.5817 378 33 374.418 33 370V336Z" fill="white"/>
<path d="M41 328V328.5H125V328V327.5H41V328ZM133 336H132.5V370H133H133.5V336H133ZM125 378V377.5H41V378V378.5H125V378ZM33 370H33.5V336H33H32.5V370H33ZM41 378V377.5C36.8579 377.5 33.5 374.142 33.5 370H33H32.5C32.5 374.694 36.3056 378.5 41 378.5V378ZM133 370H132.5C132.5 374.142 129.142 377.5 125 377.5V378V378.5C129.694 378.5 133.5 374.694 133.5 370H133ZM125 328V328.5C129.142 328.5 132.5 331.858 132.5 336H133H133.5C133.5 331.306 129.694 327.5 125 327.5V328ZM41 328V327.5C36.3056 327.5 32.5 331.306 32.5 336H33H33.5C33.5 331.858 36.8579 328.5 41 328.5V328Z" fill="#D9D9D9"/>
<path d="M63.3863 349.102C63.3863 350.026 63.5621 350.957 63.9137 351.895C64.2717 352.832 64.7828 353.685 65.4469 354.453C66.1174 355.221 66.902 355.814 67.8004 356.23L66.5895 357.949C65.6194 357.493 64.7698 356.826 64.0406 355.947C63.3115 355.062 62.7418 354.049 62.3316 352.91C61.9215 354.154 61.3388 355.257 60.5836 356.221C59.8284 357.184 58.9527 357.904 57.9566 358.379L56.6871 356.68C57.5921 356.25 58.3863 355.628 59.0699 354.814C59.76 354.001 60.2874 353.092 60.652 352.09C61.023 351.087 61.2118 350.091 61.2184 349.102V347.617H57.3707V345.82H67.0777V347.617H63.3863V349.102ZM70.8863 350.957H73.6012V352.773H70.8863V361.738H68.7184V344.082H70.8863V350.957ZM91.0566 354.277H74.9434V352.539H81.9355V350.859H76.916V344.883H89.1035V346.582H79.084V349.141H89.2012V350.859H84.0645V352.539H91.0566V354.277ZM82.9707 355.293C84.2402 355.293 85.3307 355.42 86.2422 355.674C87.1536 355.921 87.8535 356.286 88.3418 356.768C88.8301 357.249 89.0775 357.832 89.084 358.516C89.0775 359.193 88.8301 359.772 88.3418 360.254C87.8535 360.736 87.1504 361.104 86.2324 361.357C85.321 361.611 84.2337 361.738 82.9707 361.738C81.6947 361.738 80.5944 361.611 79.6699 361.357C78.7454 361.104 78.0391 360.736 77.5508 360.254C77.0625 359.772 76.8184 359.193 76.8184 358.516C76.8184 357.832 77.0625 357.249 77.5508 356.768C78.0391 356.286 78.7422 355.921 79.6602 355.674C80.5846 355.42 81.6882 355.293 82.9707 355.293ZM82.9707 356.953C81.6816 356.953 80.6986 357.087 80.0215 357.354C79.3509 357.62 79.0189 358.008 79.0254 358.516C79.0189 359.023 79.3509 359.408 80.0215 359.668C80.6921 359.928 81.6751 360.059 82.9707 360.059C84.2402 360.059 85.2135 359.928 85.8906 359.668C86.5677 359.408 86.9095 359.023 86.916 358.516C86.9095 358.008 86.5645 357.62 85.8809 357.354C85.2038 357.087 84.2337 356.953 82.9707 356.953ZM99.0395 349.688C99.0395 350.573 99.2022 351.455 99.5277 352.334C99.8598 353.213 100.342 354.014 100.973 354.736C101.605 355.459 102.36 356.029 103.239 356.445L102.028 358.086C101.097 357.65 100.286 357.021 99.5961 356.201C98.9125 355.381 98.3786 354.44 97.9945 353.379C97.5974 354.525 97.0342 355.537 96.3051 356.416C95.5824 357.295 94.7296 357.956 93.7465 358.398L92.5551 356.719C93.4535 356.315 94.2283 355.739 94.8793 354.99C95.5368 354.242 96.0349 353.405 96.3734 352.48C96.7185 351.556 96.891 350.625 96.891 349.688V348.77H93.1215V347.031H96.891V344.453H99.059V347.031H102.77V348.77H99.0395V349.688ZM106.657 351.074H109.371V352.891H106.657V361.738H104.489V344.082H106.657V351.074Z" fill="#757575"/>
<path d="M33 396C33 391.582 36.5817 388 41 388H140C144.418 388 148 391.582 148 396V430C148 434.418 144.418 438 140 438H41C36.5817 438 33 434.418 33 430V396Z" fill="white"/>
<path d="M41 388V388.5H140V388V387.5H41V388ZM148 396H147.5V430H148H148.5V396H148ZM140 438V437.5H41V438V438.5H140V438ZM33 430H33.5V396H33H32.5V430H33ZM41 438V437.5C36.8579 437.5 33.5 434.142 33.5 430H33H32.5C32.5 434.694 36.3056 438.5 41 438.5V438ZM148 430H147.5C147.5 434.142 144.142 437.5 140 437.5V438V438.5C144.694 438.5 148.5 434.694 148.5 430H148ZM140 388V388.5C144.142 388.5 147.5 391.858 147.5 396H148H148.5C148.5 391.306 144.694 387.5 140 387.5V388ZM41 388V387.5C36.3056 387.5 32.5 391.306 32.5 396H33H33.5C33.5 391.858 36.8579 388.5 41 388.5V388Z" fill="#D9D9D9"/>
<path d="M59.0598 407.207C59.0533 407.988 59.2095 408.74 59.5285 409.463C59.854 410.179 60.3358 410.814 60.9738 411.367C61.6118 411.921 62.3801 412.344 63.2785 412.637L62.1457 414.355C61.1822 414.03 60.3521 413.551 59.6555 412.92C58.9654 412.282 58.4217 411.53 58.0246 410.664C57.621 411.621 57.0546 412.448 56.3254 413.145C55.6027 413.841 54.7368 414.368 53.7277 414.727L52.5168 413.008C53.4608 412.702 54.2583 412.256 54.9094 411.67C55.5604 411.077 56.0487 410.397 56.3742 409.629C56.7062 408.854 56.8723 408.04 56.8723 407.188V405.176H59.0598V407.207ZM66.6574 409.297H69.1184V411.133H66.6574V417.051H64.4895V404.082H66.6574V409.297ZM67.3605 421.387H55.3488V415.781H57.5754V419.629H67.3605V421.387ZM75.5191 404.863C76.2743 404.857 76.9677 404.99 77.5992 405.264C78.2307 405.531 78.7581 405.911 79.1812 406.406C79.6109 406.895 79.8974 407.461 80.0406 408.105H83.234V404.082H85.402V413.555H83.234V409.863H80.0602C79.9169 410.521 79.6305 411.1 79.2008 411.602C78.7776 412.103 78.247 412.493 77.609 412.773C76.971 413.047 76.2743 413.184 75.5191 413.184C74.6272 413.184 73.8264 413.005 73.1168 412.646C72.4072 412.288 71.8505 411.794 71.4469 411.162C71.0497 410.524 70.8512 409.805 70.8512 409.004C70.8512 408.21 71.0497 407.497 71.4469 406.865C71.8505 406.234 72.4072 405.742 73.1168 405.391C73.8264 405.033 74.6272 404.857 75.5191 404.863ZM75.5191 406.68C75.0113 406.68 74.5621 406.774 74.1715 406.963C73.7809 407.152 73.4749 407.422 73.2535 407.773C73.0322 408.125 72.9215 408.535 72.9215 409.004C72.9215 409.466 73.0322 409.876 73.2535 410.234C73.4749 410.586 73.7809 410.859 74.1715 411.055C74.5686 411.25 75.0178 411.348 75.5191 411.348C76.0074 411.348 76.4436 411.25 76.8277 411.055C77.2184 410.859 77.5211 410.586 77.7359 410.234C77.9573 409.876 78.0712 409.466 78.0777 409.004C78.0712 408.535 77.9573 408.125 77.7359 407.773C77.5211 407.422 77.2216 407.152 76.8375 406.963C76.4534 406.774 76.0139 406.68 75.5191 406.68ZM75.9098 416.25H83.234V414.375H85.402V421.523H73.7613V414.375H75.9098V416.25ZM83.234 419.766V417.93H75.9098V419.766H83.234ZM90.3184 422.129H88.1309L92.7012 405.195H94.8691L90.3184 422.129ZM112.364 412.969H105.371V414.297H110.352V418.633H100.313V419.922H110.84V421.582H98.184V417.07H108.223V415.938H98.1645V414.297H103.204V412.969H96.2699V411.25H112.364V412.969ZM110.293 410.137H98.3012V404.629H110.293V410.137ZM100.43 408.438H108.125V406.328H100.43V408.438ZM130.268 416.211H126.382V421.738H124.194V416.211H120.229V421.738H118.061V416.211H114.136V414.512H130.268V416.211ZM128.393 409.609H118.257V411.289H128.784V413.047H116.069V407.988H126.167V406.445H116.03V404.668H128.393V409.609Z" fill="#757575"/>
<path d="M33 456C33 451.582 36.5817 448 41 448H155C159.418 448 163 451.582 163 456V490C163 494.418 159.418 498 155 498H41C36.5817 498 33 494.418 33 490V456Z" fill="white"/>
<path d="M41 448V448.5H155V448V447.5H41V448ZM163 456H162.5V490H163H163.5V456H163ZM155 498V497.5H41V498V498.5H155V498ZM33 490H33.5V456H33H32.5V490H33ZM41 498V497.5C36.8579 497.5 33.5 494.142 33.5 490H33H32.5C32.5 494.694 36.3056 498.5 41 498.5V498ZM163 490H162.5C162.5 494.142 159.142 497.5 155 497.5V498V498.5C159.694 498.5 163.5 494.694 163.5 490H163ZM155 448V448.5C159.142 448.5 162.5 451.858 162.5 456H163H163.5C163.5 451.306 159.694 447.5 155 447.5V448ZM41 448V447.5C36.3056 447.5 32.5 451.306 32.5 456H33H33.5C33.5 451.858 36.8579 448.5 41 448.5V448Z" fill="#D9D9D9"/>
<path d="M69.1953 466.309C69.1953 467.253 69.1693 468.096 69.1172 468.838C69.0716 469.574 68.9544 470.404 68.7656 471.328H71.168V473.086H55.0352V471.328H66.5684C66.7572 470.469 66.8809 469.681 66.9395 468.965C66.998 468.249 67.0273 467.487 67.0273 466.68H57.0273V464.941H69.1953V466.309ZM69.1758 481.523H56.9688V475.137H69.1758V481.523ZM59.0977 479.766H67.0273V476.836H59.0977V479.766ZM89.0141 473.887H85.2836V476.104C85.8565 476.377 86.2927 476.719 86.5922 477.129C86.8982 477.533 87.0544 478.001 87.0609 478.535C87.0544 479.212 86.807 479.788 86.3188 480.264C85.8305 480.745 85.1306 481.11 84.2191 481.357C83.3077 481.611 82.2172 481.738 80.9477 481.738C79.6651 481.738 78.5616 481.611 77.6371 481.357C76.7191 481.11 76.016 480.745 75.5277 480.264C75.0395 479.788 74.7953 479.212 74.7953 478.535C74.7953 477.988 74.9548 477.507 75.2738 477.09C75.5928 476.673 76.0583 476.328 76.6703 476.055V473.887H72.9203V472.109H89.0141V473.887ZM80.9477 475.352C81.7419 475.352 82.4646 475.4 83.1156 475.498V473.887H78.8578V475.479C79.5479 475.394 80.2445 475.352 80.9477 475.352ZM80.9477 476.992C79.6521 476.992 78.669 477.122 77.9984 477.383C77.3279 477.643 76.9958 478.027 77.0023 478.535C76.9958 479.036 77.3279 479.417 77.9984 479.678C78.669 479.932 79.6521 480.059 80.9477 480.059C82.2172 480.059 83.1905 479.932 83.8676 479.678C84.5447 479.417 84.8865 479.036 84.893 478.535C84.8865 478.027 84.5447 477.643 83.8676 477.383C83.1905 477.122 82.2172 476.992 80.9477 476.992ZM80.9477 464.395C82.2367 464.395 83.3598 464.531 84.3168 464.805C85.2738 465.072 86.0095 465.459 86.5238 465.967C87.0447 466.475 87.3083 467.077 87.3148 467.773C87.3083 468.464 87.0447 469.059 86.5238 469.561C86.0095 470.062 85.2738 470.446 84.3168 470.713C83.3598 470.98 82.2367 471.113 80.9477 471.113C79.6586 471.113 78.5323 470.98 77.5688 470.713C76.6117 470.446 75.8728 470.062 75.352 469.561C74.8376 469.059 74.5805 468.464 74.5805 467.773C74.5805 467.077 74.8376 466.475 75.352 465.967C75.8728 465.459 76.6117 465.072 77.5688 464.805C78.5323 464.531 79.6586 464.395 80.9477 464.395ZM80.9477 466.094C79.6456 466.094 78.6332 466.24 77.9105 466.533C77.1944 466.82 76.8396 467.233 76.8461 467.773C76.8396 468.307 77.1944 468.717 77.9105 469.004C78.6332 469.29 79.6456 469.434 80.9477 469.434C82.2497 469.434 83.2621 469.29 83.9848 469.004C84.7074 468.717 85.0688 468.307 85.0688 467.773C85.0688 467.233 84.7074 466.82 83.9848 466.533C83.2621 466.24 82.2497 466.094 80.9477 466.094ZM91.8602 474.609C91.8602 471.159 92.8367 468.04 94.7898 465.254H97.1336C96.6714 465.911 96.2319 466.758 95.8152 467.793C95.4051 468.822 95.073 469.935 94.8191 471.133C94.5652 472.331 94.4383 473.49 94.4383 474.609C94.4383 475.729 94.5652 476.888 94.8191 478.086C95.073 479.284 95.4051 480.397 95.8152 481.426C96.2319 482.461 96.6714 483.314 97.1336 483.984H94.7898C93.8393 482.617 93.1134 481.162 92.6121 479.619C92.1108 478.07 91.8602 476.4 91.8602 474.609ZM114.98 474.941H98.8859V473.203H114.98V474.941ZM113.163 481.387H100.878V476.25H103.046V479.629H113.163V481.387ZM106.913 464.648C108.189 464.648 109.306 464.792 110.263 465.078C111.22 465.365 111.959 465.778 112.48 466.318C113.007 466.852 113.274 467.487 113.28 468.223C113.274 468.965 113.007 469.609 112.48 470.156C111.959 470.697 111.22 471.113 110.263 471.406C109.306 471.693 108.189 471.836 106.913 471.836C105.637 471.836 104.517 471.693 103.554 471.406C102.597 471.113 101.855 470.697 101.327 470.156C100.807 469.609 100.546 468.965 100.546 468.223C100.546 467.487 100.807 466.852 101.327 466.318C101.855 465.778 102.597 465.365 103.554 465.078C104.517 464.792 105.637 464.648 106.913 464.648ZM106.913 466.387C105.624 466.387 104.615 466.549 103.886 466.875C103.163 467.194 102.805 467.643 102.812 468.223C102.805 468.613 102.965 468.949 103.29 469.229C103.622 469.508 104.094 469.72 104.706 469.863C105.325 470 106.06 470.065 106.913 470.059C108.209 470.072 109.218 469.919 109.941 469.6C110.67 469.274 111.034 468.815 111.034 468.223C111.034 467.637 110.67 467.184 109.941 466.865C109.218 466.546 108.209 466.387 106.913 466.387ZM131.869 475.176H129.798V470.371H128.08V474.59H126.048V464.434H128.08V468.613H129.798V464.082H131.869V475.176ZM125.463 467.695H116.673V465.996H120.013V464.238H122.162V465.996H125.463V467.695ZM121.088 468.418C121.83 468.418 122.49 468.545 123.07 468.799C123.649 469.053 124.102 469.411 124.427 469.873C124.759 470.329 124.929 470.859 124.935 471.465C124.929 472.07 124.759 472.604 124.427 473.066C124.102 473.522 123.649 473.877 123.07 474.131C122.49 474.385 121.83 474.512 121.088 474.512C120.358 474.512 119.704 474.385 119.125 474.131C118.545 473.877 118.093 473.519 117.767 473.057C117.448 472.594 117.292 472.064 117.298 471.465C117.292 470.866 117.448 470.335 117.767 469.873C118.093 469.411 118.545 469.053 119.125 468.799C119.704 468.545 120.358 468.418 121.088 468.418ZM121.088 469.98C120.534 469.98 120.085 470.114 119.74 470.381C119.401 470.648 119.232 471.009 119.232 471.465C119.232 471.921 119.401 472.282 119.74 472.549C120.078 472.816 120.528 472.949 121.088 472.949C121.647 472.949 122.1 472.816 122.445 472.549C122.79 472.282 122.963 471.921 122.963 471.465C122.963 471.009 122.79 470.648 122.445 470.381C122.1 470.114 121.647 469.98 121.088 469.98ZM125.912 475.391C127.168 475.391 128.249 475.514 129.154 475.762C130.059 476.009 130.752 476.374 131.234 476.855C131.716 477.331 131.96 477.904 131.966 478.574C131.96 479.232 131.713 479.795 131.224 480.264C130.742 480.739 130.049 481.1 129.144 481.348C128.239 481.595 127.162 481.719 125.912 481.719C124.662 481.719 123.581 481.595 122.67 481.348C121.765 481.1 121.068 480.739 120.58 480.264C120.098 479.795 119.857 479.232 119.857 478.574C119.857 477.904 120.098 477.331 120.58 476.855C121.068 476.374 121.765 476.009 122.67 475.762C123.574 475.514 124.655 475.391 125.912 475.391ZM125.912 477.051C124.642 477.038 123.675 477.161 123.011 477.422C122.354 477.676 122.025 478.06 122.025 478.574C122.025 479.062 122.357 479.434 123.021 479.688C123.685 479.935 124.649 480.059 125.912 480.059C127.168 480.059 128.125 479.935 128.783 479.688C129.447 479.434 129.779 479.062 129.779 478.574C129.779 478.06 129.447 477.676 128.783 477.422C128.125 477.161 127.168 477.038 125.912 477.051ZM139.91 474.609C139.91 476.4 139.66 478.07 139.158 479.619C138.657 481.162 137.931 482.617 136.98 483.984H134.637C135.099 483.314 135.535 482.461 135.945 481.426C136.362 480.397 136.697 479.284 136.951 478.086C137.205 476.888 137.332 475.729 137.332 474.609C137.332 473.49 137.205 472.331 136.951 471.133C136.697 469.935 136.362 468.822 135.945 467.793C135.535 466.758 135.099 465.911 134.637 465.254H136.98C138.934 468.04 139.91 471.159 139.91 474.609Z" fill="#757575"/>
<path d="M170 456C170 451.582 173.582 448 178 448H282C286.418 448 290 451.582 290 456V490C290 494.418 286.418 498 282 498H178C173.582 498 170 494.418 170 490V456Z" fill="white"/>
<path d="M178 448V448.5H282V448V447.5H178V448ZM290 456H289.5V490H290H290.5V456H290ZM282 498V497.5H178V498V498.5H282V498ZM170 490H170.5V456H170H169.5V490H170ZM178 498V497.5C173.858 497.5 170.5 494.142 170.5 490H170H169.5C169.5 494.694 173.306 498.5 178 498.5V498ZM290 490H289.5C289.5 494.142 286.142 497.5 282 497.5V498V498.5C286.694 498.5 290.5 494.694 290.5 490H290ZM282 448V448.5C286.142 448.5 289.5 451.858 289.5 456H290H290.5C290.5 451.306 286.694 447.5 282 447.5V448ZM178 448V447.5C173.306 447.5 169.5 451.306 169.5 456H170H170.5C170.5 451.858 173.858 448.5 178 448.5V448Z" fill="#D9D9D9"/>
<path d="M210.084 466.309C210.084 467.253 210.058 468.096 210.006 468.838C209.96 469.574 209.843 470.404 209.654 471.328H212.057V473.086H195.924V471.328H207.457C207.646 470.469 207.77 469.681 207.828 468.965C207.887 468.249 207.916 467.487 207.916 466.68H197.916V464.941H210.084V466.309ZM210.064 481.523H197.857V475.137H210.064V481.523ZM199.986 479.766H207.916V476.836H199.986V479.766ZM229.903 473.887H226.172V476.104C226.745 476.377 227.181 476.719 227.481 477.129C227.787 477.533 227.943 478.001 227.95 478.535C227.943 479.212 227.696 479.788 227.207 480.264C226.719 480.745 226.019 481.11 225.108 481.357C224.196 481.611 223.106 481.738 221.836 481.738C220.554 481.738 219.45 481.611 218.526 481.357C217.608 481.11 216.905 480.745 216.416 480.264C215.928 479.788 215.684 479.212 215.684 478.535C215.684 477.988 215.843 477.507 216.163 477.09C216.482 476.673 216.947 476.328 217.559 476.055V473.887H213.809V472.109H229.903V473.887ZM221.836 475.352C222.631 475.352 223.353 475.4 224.004 475.498V473.887H219.746V475.479C220.437 475.394 221.133 475.352 221.836 475.352ZM221.836 476.992C220.541 476.992 219.558 477.122 218.887 477.383C218.217 477.643 217.885 478.027 217.891 478.535C217.885 479.036 218.217 479.417 218.887 479.678C219.558 479.932 220.541 480.059 221.836 480.059C223.106 480.059 224.079 479.932 224.756 479.678C225.433 479.417 225.775 479.036 225.782 478.535C225.775 478.027 225.433 477.643 224.756 477.383C224.079 477.122 223.106 476.992 221.836 476.992ZM221.836 464.395C223.125 464.395 224.248 464.531 225.205 464.805C226.163 465.072 226.898 465.459 227.413 465.967C227.933 466.475 228.197 467.077 228.204 467.773C228.197 468.464 227.933 469.059 227.413 469.561C226.898 470.062 226.163 470.446 225.205 470.713C224.248 470.98 223.125 471.113 221.836 471.113C220.547 471.113 219.421 470.98 218.457 470.713C217.5 470.446 216.761 470.062 216.241 469.561C215.726 469.059 215.469 468.464 215.469 467.773C215.469 467.077 215.726 466.475 216.241 465.967C216.761 465.459 217.5 465.072 218.457 464.805C219.421 464.531 220.547 464.395 221.836 464.395ZM221.836 466.094C220.534 466.094 219.522 466.24 218.799 466.533C218.083 466.82 217.728 467.233 217.735 467.773C217.728 468.307 218.083 468.717 218.799 469.004C219.522 469.29 220.534 469.434 221.836 469.434C223.138 469.434 224.151 469.29 224.873 469.004C225.596 468.717 225.957 468.307 225.957 467.773C225.957 467.233 225.596 466.82 224.873 466.533C224.151 466.24 223.138 466.094 221.836 466.094ZM232.749 474.609C232.749 471.159 233.725 468.04 235.679 465.254H238.022C237.56 465.911 237.121 466.758 236.704 467.793C236.294 468.822 235.962 469.935 235.708 471.133C235.454 472.331 235.327 473.49 235.327 474.609C235.327 475.729 235.454 476.888 235.708 478.086C235.962 479.284 236.294 480.397 236.704 481.426C237.121 482.461 237.56 483.314 238.022 483.984H235.679C234.728 482.617 234.002 481.162 233.501 479.619C232.999 478.07 232.749 476.4 232.749 474.609ZM243.036 480H240.497V465.859H243.036V480ZM246.273 465.859H251.683C252.679 465.859 253.519 466.016 254.203 466.328C254.893 466.641 255.41 467.074 255.755 467.627C256.101 468.18 256.273 468.815 256.273 469.531C256.273 470.345 256.045 471.006 255.589 471.514C255.134 472.021 254.535 472.363 253.793 472.539V472.676C254.307 472.702 254.795 472.858 255.257 473.145C255.726 473.431 256.104 473.835 256.39 474.355C256.677 474.87 256.82 475.469 256.82 476.152C256.82 476.901 256.638 477.565 256.273 478.145C255.915 478.724 255.375 479.18 254.652 479.512C253.929 479.837 253.044 480 251.996 480H246.273V465.859ZM251.605 477.871C252.497 477.871 253.158 477.699 253.588 477.354C254.024 477.008 254.242 476.543 254.242 475.957C254.242 475.534 254.134 475.153 253.92 474.814C253.711 474.469 253.412 474.199 253.021 474.004C252.63 473.809 252.178 473.711 251.664 473.711H248.812V477.871H251.605ZM251.371 471.875C251.82 471.875 252.224 471.794 252.582 471.631C252.94 471.462 253.22 471.224 253.421 470.918C253.63 470.612 253.734 470.254 253.734 469.844C253.734 469.277 253.535 468.825 253.138 468.486C252.741 468.141 252.171 467.969 251.429 467.969H248.812V471.875H251.371ZM264.021 474.609C264.021 476.4 263.771 478.07 263.27 479.619C262.768 481.162 262.042 482.617 261.092 483.984H258.748C259.21 483.314 259.646 482.461 260.057 481.426C260.473 480.397 260.809 479.284 261.062 478.086C261.316 476.888 261.443 475.729 261.443 474.609C261.443 473.49 261.316 472.331 261.062 471.133C260.809 469.935 260.473 468.822 260.057 467.793C259.646 466.758 259.21 465.911 258.748 465.254H261.092C263.045 468.04 264.021 471.159 264.021 474.609Z" fill="#757575"/>
</svg>
