<svg width="360" height="800" viewBox="0 0 360 800" fill="none" xmlns="http://www.w3.org/2000/svg">
<g clip-path="url(#clip0_82_154)">
<rect width="360" height="800" fill="#F7F8FB"/>
<path d="M33 259C33 254.582 36.5817 251 41 251H319C323.418 251 327 254.582 327 259V305C327 309.418 323.418 313 319 313H41C36.5817 313 33 309.418 33 305V259Z" fill="white"/>
<path d="M41 251V251.5H319V251V250.5H41V251ZM327 259H326.5V305H327H327.5V259H327ZM319 313V312.5H41V313V313.5H319V313ZM33 305H33.5V259H33H32.5V305H33ZM41 313V312.5C36.8579 312.5 33.5 309.142 33.5 305H33H32.5C32.5 309.694 36.3056 313.5 41 313.5V313ZM327 305H326.5C326.5 309.142 323.142 312.5 319 312.5V313V313.5C323.694 313.5 327.5 309.694 327.5 305H327ZM319 251V251.5C323.142 251.5 326.5 254.858 326.5 259H327H327.5C327.5 254.306 323.694 250.5 319 250.5V251ZM41 251V250.5C36.3056 250.5 32.5 254.306 32.5 259H33H33.5C33.5 254.858 36.8579 251.5 41 251.5V251Z" fill="#65D298"/>
<path d="M71.7457 290.758H69.5582V273.082H71.7457V290.758ZM62.234 274.371C63.1194 274.371 63.9072 274.628 64.5973 275.143C65.2939 275.65 65.8408 276.376 66.2379 277.32C66.635 278.258 66.8368 279.352 66.8434 280.602C66.8368 281.858 66.635 282.958 66.2379 283.902C65.8473 284.846 65.3036 285.576 64.607 286.09C63.9104 286.598 63.1194 286.852 62.234 286.852C61.3421 286.852 60.5478 286.598 59.8512 286.09C59.1546 285.576 58.6077 284.846 58.2105 283.902C57.8199 282.958 57.6246 281.858 57.6246 280.602C57.6246 279.352 57.8199 278.258 58.2105 277.32C58.6077 276.376 59.1546 275.65 59.8512 275.143C60.5478 274.628 61.3421 274.371 62.234 274.371ZM62.234 276.324C61.7327 276.324 61.29 276.493 60.9059 276.832C60.5283 277.171 60.2353 277.662 60.027 278.307C59.8186 278.951 59.7145 279.716 59.7145 280.602C59.7145 281.493 59.8186 282.262 60.027 282.906C60.2353 283.551 60.5283 284.046 60.9059 284.391C61.29 284.729 61.7327 284.898 62.234 284.898C62.7288 284.898 63.165 284.729 63.5426 284.391C63.9202 284.046 64.2132 283.551 64.4215 282.906C64.6298 282.262 64.734 281.493 64.734 280.602C64.734 279.716 64.6298 278.954 64.4215 278.316C64.2132 277.672 63.9202 277.18 63.5426 276.842C63.165 276.497 62.7288 276.324 62.234 276.324ZM82.4238 279.586H84.4746V273.395H86.5449V289.879H84.4746V281.344H82.4238V286.188H75.4902V274.996H82.4238V279.586ZM77.5215 284.469H80.3926V276.715H77.5215V284.469ZM90.1777 290.738H88.0879V273.082H90.1777V290.738ZM97.8285 273.648C98.7139 273.648 99.5115 273.821 100.221 274.166C100.931 274.505 101.487 274.977 101.891 275.582C102.301 276.188 102.51 276.871 102.516 277.633C102.51 278.401 102.301 279.088 101.891 279.693C101.487 280.299 100.931 280.771 100.221 281.109C99.5115 281.448 98.7139 281.617 97.8285 281.617C96.9366 281.617 96.1326 281.448 95.4164 281.109C94.7068 280.771 94.1501 280.299 93.7465 279.693C93.3428 279.088 93.141 278.401 93.141 277.633C93.141 276.871 93.3428 276.188 93.7465 275.582C94.1501 274.977 94.71 274.505 95.4262 274.166C96.1423 273.821 96.9431 273.648 97.8285 273.648ZM97.8285 275.445C97.3337 275.445 96.891 275.536 96.5004 275.719C96.1098 275.895 95.8038 276.148 95.5824 276.48C95.3611 276.806 95.2504 277.19 95.2504 277.633C95.2504 278.082 95.3611 278.476 95.5824 278.814C95.8038 279.146 96.1098 279.404 96.5004 279.586C96.891 279.768 97.3337 279.859 97.8285 279.859C98.3233 279.859 98.766 279.768 99.1566 279.586C99.5473 279.404 99.8533 279.146 100.075 278.814C100.296 278.476 100.407 278.082 100.407 277.633C100.407 277.19 100.296 276.806 100.075 276.48C99.8533 276.148 99.5473 275.895 99.1566 275.719C98.766 275.536 98.3233 275.445 97.8285 275.445ZM107.536 282.008H105.348V273.082H107.536V282.008ZM107.536 287.379H97.9848V288.805H108.063V290.523H95.8559V285.777H105.368V284.469H95.8168V282.77H107.536V287.379Z" fill="#757575"/>
<path d="M33 172C33 167.582 36.5817 164 41 164H319C323.418 164 327 167.582 327 172V218C327 222.418 323.418 226 319 226H41C36.5817 226 33 222.418 33 218V172Z" fill="white"/>
<path d="M41 164V164.5H319V164V163.5H41V164ZM327 172H326.5V218H327H327.5V172H327ZM319 226V225.5H41V226V226.5H319V226ZM33 218H33.5V172H33H32.5V218H33ZM41 226V225.5C36.8579 225.5 33.5 222.142 33.5 218H33H32.5C32.5 222.694 36.3056 226.5 41 226.5V226ZM327 218H326.5C326.5 222.142 323.142 225.5 319 225.5V226V226.5C323.694 226.5 327.5 222.694 327.5 218H327ZM319 164V164.5C323.142 164.5 326.5 167.858 326.5 172H327H327.5C327.5 167.306 323.694 163.5 319 163.5V164ZM41 164V163.5C36.3056 163.5 32.5 167.306 32.5 172H33H33.5C33.5 167.858 36.8579 164.5 41 164.5V164Z" fill="#D9D9D9"/>
<path d="M71.7652 203.758H69.5777V198.758H59.7145V196.98H71.7652V203.758ZM71.7652 196.199H69.5777V186.121H71.7652V196.199ZM60.2809 193.309C62.9762 193.263 65.5217 193.009 67.9176 192.547L68.191 194.305C65.5022 194.839 62.6376 195.105 59.5973 195.105H58.0934V187.059H60.2809V193.309ZM77.8535 197.547C78.7715 197.534 79.6374 197.488 80.4512 197.41C81.2715 197.332 82.1113 197.202 82.9707 197.02L83.2832 198.855C82.248 199.083 81.2389 199.236 80.2559 199.314C79.2728 199.386 78.1465 199.422 76.877 199.422H75.6855V187.84H77.8535V197.547ZM90.1777 203.738H88.1074V186.082H90.1777V203.738ZM86.3887 202.898H84.3379V193.543H80.6465V191.785H84.3379V186.453H86.3887V202.898ZM107.536 196.102H105.348V186.102H107.536V196.102ZM107.536 203.523H95.8168V196.961H107.536V203.523ZM97.9652 201.766H105.407V198.68H97.9652V201.766ZM97.9066 186.941C98.8051 186.941 99.6156 187.12 100.338 187.479C101.061 187.83 101.627 188.328 102.037 188.973C102.448 189.611 102.653 190.34 102.653 191.16C102.653 191.954 102.444 192.671 102.028 193.309C101.618 193.94 101.051 194.438 100.329 194.803C99.6059 195.161 98.7986 195.34 97.9066 195.34C97.0082 195.34 96.1944 195.161 95.4652 194.803C94.7426 194.445 94.1729 193.947 93.7562 193.309C93.3461 192.671 93.141 191.954 93.141 191.16C93.141 190.34 93.3461 189.611 93.7562 188.973C94.1729 188.328 94.7426 187.83 95.4652 187.479C96.1879 187.12 97.0017 186.941 97.9066 186.941ZM97.9066 188.777C97.3923 188.777 96.9333 188.875 96.5297 189.07C96.1326 189.266 95.8201 189.542 95.5922 189.9C95.3708 190.258 95.2634 190.678 95.2699 191.16C95.2634 191.629 95.3708 192.042 95.5922 192.4C95.8201 192.752 96.1326 193.025 96.5297 193.221C96.9333 193.41 97.3923 193.504 97.9066 193.504C98.4145 193.504 98.8637 193.41 99.2543 193.221C99.6514 193.025 99.9607 192.752 100.182 192.4C100.41 192.042 100.524 191.629 100.524 191.16C100.524 190.678 100.413 190.258 100.192 189.9C99.9704 189.542 99.6612 189.266 99.2641 189.07C98.8669 188.875 98.4145 188.777 97.9066 188.777Z" fill="#757575"/>
<path d="M33 360C33 355.582 36.5817 352 41 352H319C323.418 352 327 355.582 327 360V406C327 410.418 323.418 414 319 414H41C36.5817 414 33 410.418 33 406V360Z" fill="white"/>
<path d="M41 352V352.5H319V352V351.5H41V352ZM327 360H326.5V406H327H327.5V360H327ZM319 414V413.5H41V414V414.5H319V414ZM33 406H33.5V360H33H32.5V406H33ZM41 414V413.5C36.8579 413.5 33.5 410.142 33.5 406H33H32.5C32.5 410.694 36.3056 414.5 41 414.5V414ZM327 406H326.5C326.5 410.142 323.142 413.5 319 413.5V414V414.5C323.694 414.5 327.5 410.694 327.5 406H327ZM319 352V352.5C323.142 352.5 326.5 355.858 326.5 360H327H327.5C327.5 355.306 323.694 351.5 319 351.5V352ZM41 352V351.5C36.3056 351.5 32.5 355.306 32.5 360H33H33.5C33.5 355.858 36.8579 352.5 41 352.5V352Z" fill="#FF0000"/>
<path d="M73.3031 374.082V391.758H71.1156V374.082H73.3031ZM61.7211 375.527V379.941H65.9984V375.527H68.1469V387.598H59.5531V375.527H61.7211ZM61.7211 385.82H65.9984V381.641H61.7211V385.82ZM85.9148 375V382.363H77.3992V375H85.9148ZM79.5477 376.738V380.664H83.7664V376.738H79.5477ZM91.1687 374.082V383.066H89.0203V374.082H91.1687ZM91.1687 383.867V388.438H81.657V389.863H91.6961V391.582H79.5086V386.875H89.0594V385.566H79.4891V383.867H91.1687ZM109.171 374.102V387.129H107.003V380.625H103.448V384.258H95.1867V375.254H97.3547V378.105H101.3V375.254H103.448V378.867H107.003V374.102H109.171ZM109.562 389.629V391.387H97.5305V385.84H99.7375V389.629H109.562ZM97.3547 382.539H101.3V379.785H97.3547V382.539ZM127.584 376.445V378.203H112.994V376.445H119.224V374.316H121.373V376.445H127.584ZM128.404 388.086V389.844H112.271V388.086H119.224V385.918C116.168 385.674 114.322 384.453 114.341 382.5C114.322 380.371 116.607 379.102 120.298 379.102C123.931 379.102 126.236 380.371 126.236 382.5C126.236 384.443 124.38 385.664 121.373 385.898V388.086H128.404ZM120.298 380.801C117.896 380.82 116.548 381.387 116.568 382.5C116.548 383.633 117.896 384.199 120.298 384.219C122.662 384.199 124.009 383.633 124.009 382.5C124.009 381.387 122.662 380.82 120.298 380.801Z" fill="#757575"/>
<path d="M33 461C33 456.582 36.5817 453 41 453H319C323.418 453 327 456.582 327 461V507C327 511.418 323.418 515 319 515H41C36.5817 515 33 511.418 33 507V461Z" fill="white"/>
<path d="M41 453V453.5H319V453V452.5H41V453ZM327 461H326.5V507H327H327.5V461H327ZM319 515V514.5H41V515V515.5H319V515ZM33 507H33.5V461H33H32.5V507H33ZM41 515V514.5C36.8579 514.5 33.5 511.142 33.5 507H33H32.5C32.5 511.694 36.3056 515.5 41 515.5V515ZM327 507H326.5C326.5 511.142 323.142 514.5 319 514.5V515V515.5C323.694 515.5 327.5 511.694 327.5 507H327ZM319 453V453.5C323.142 453.5 326.5 456.858 326.5 461H327H327.5C327.5 456.306 323.694 452.5 319 452.5V453ZM41 453V452.5C36.3056 452.5 32.5 456.306 32.5 461H33H33.5C33.5 456.858 36.8579 453.5 41 453.5V453Z" fill="#32C375"/>
<path d="M71.7449 492.758H69.5574V475.082H71.7449V492.758ZM60.1629 480.941H64.4402V476.527H66.5887V488.598H57.9949V476.527H60.1629V480.941ZM64.4402 486.82V482.641H60.1629V486.82H64.4402ZM84.3566 483.363H75.841V476H84.3566V483.363ZM77.9895 481.664H82.2082V477.738H77.9895V481.664ZM89.6105 484.066H87.4621V475.082H89.6105V484.066ZM89.6105 489.438H80.0988V490.863H90.1379V492.582H77.9504V487.875H87.5012V486.566H77.9309V484.867H89.6105V489.438ZM107.613 488.129H105.445V481.625H101.89V485.258H93.6285V476.254H95.7965V479.105H99.7418V476.254H101.89V479.867H105.445V475.102H107.613V488.129ZM108.004 492.387H95.9723V486.84H98.1793V490.629H108.004V492.387ZM99.7418 483.539V480.785H95.7965V483.539H99.7418ZM126.025 479.203H111.436V477.445H117.666V475.316H119.814V477.445H126.025V479.203ZM126.846 490.844H110.713V489.086H117.666V486.918C116.644 486.833 115.765 486.648 115.029 486.361C114.3 486.068 113.74 485.681 113.35 485.199C112.965 484.711 112.777 484.145 112.783 483.5C112.777 482.797 113.011 482.191 113.486 481.684C113.968 481.169 114.658 480.779 115.557 480.512C116.455 480.238 117.516 480.102 118.74 480.102C119.945 480.102 120.993 480.238 121.885 480.512C122.783 480.779 123.473 481.169 123.955 481.684C124.437 482.191 124.678 482.797 124.678 483.5C124.678 484.138 124.482 484.701 124.092 485.189C123.701 485.671 123.141 486.059 122.412 486.352C121.683 486.638 120.817 486.824 119.814 486.908V489.086H126.846V490.844ZM118.74 481.801C117.523 481.814 116.595 481.964 115.957 482.25C115.319 482.53 115.003 482.947 115.01 483.5C115.003 484.06 115.319 484.483 115.957 484.77C116.595 485.056 117.523 485.206 118.74 485.219C119.938 485.206 120.856 485.056 121.494 484.77C122.132 484.483 122.451 484.06 122.451 483.5C122.451 482.947 122.132 482.53 121.494 482.25C120.856 481.964 119.938 481.814 118.74 481.801ZM147.929 480.238H150.311V482.035H147.929V487.035H145.761V475.102H147.929V480.238ZM133.788 484.926C135.429 484.926 136.913 484.91 138.241 484.877V483.793C137.251 483.669 136.47 483.383 135.897 482.934C135.324 482.478 135.038 481.905 135.038 481.215C135.038 480.681 135.214 480.215 135.565 479.818C135.917 479.421 136.415 479.118 137.059 478.91C137.704 478.695 138.449 478.591 139.296 478.598C140.149 478.591 140.894 478.695 141.532 478.91C142.177 479.118 142.675 479.421 143.026 479.818C143.378 480.215 143.554 480.681 143.554 481.215C143.554 481.898 143.274 482.465 142.714 482.914C142.154 483.363 141.386 483.653 140.409 483.783V484.789C142.043 484.717 143.521 484.594 144.843 484.418L145.018 485.922C143.345 486.215 141.62 486.407 139.843 486.498C138.072 486.583 136.132 486.625 134.022 486.625L133.788 484.926ZM147.929 492.738H145.761V489.496H136.014V487.797H147.929V492.738ZM144.374 478.09H134.237V476.488H138.241V474.945H140.409V476.488H144.374V478.09ZM139.296 480.062C138.606 480.049 138.068 480.144 137.684 480.346C137.307 480.548 137.121 480.837 137.128 481.215C137.115 481.579 137.304 481.869 137.694 482.084C138.085 482.292 138.619 482.393 139.296 482.387C139.973 482.393 140.507 482.292 140.897 482.084C141.288 481.869 141.483 481.579 141.483 481.215C141.483 480.837 141.291 480.548 140.907 480.346C140.523 480.144 139.986 480.049 139.296 480.062ZM166.536 487.855H164.349V475.102H166.536V487.855ZM167.025 492.387H154.857V486.566H157.044V490.629H167.025V492.387ZM156.907 476.254C157.793 476.254 158.597 476.446 159.32 476.83C160.042 477.208 160.612 477.732 161.029 478.402C161.445 479.073 161.654 479.828 161.654 480.668C161.654 481.521 161.445 482.286 161.029 482.963C160.612 483.633 160.042 484.158 159.32 484.535C158.597 484.913 157.793 485.102 156.907 485.102C156.015 485.102 155.205 484.913 154.476 484.535C153.753 484.158 153.183 483.633 152.767 482.963C152.35 482.286 152.142 481.521 152.142 480.668C152.142 479.828 152.35 479.073 152.767 478.402C153.183 477.732 153.753 477.208 154.476 476.83C155.205 476.446 156.015 476.254 156.907 476.254ZM156.907 478.148C156.406 478.148 155.954 478.253 155.55 478.461C155.146 478.669 154.831 478.965 154.603 479.35C154.375 479.734 154.264 480.173 154.271 480.668C154.264 481.176 154.375 481.622 154.603 482.006C154.831 482.39 155.146 482.686 155.55 482.895C155.954 483.103 156.406 483.207 156.907 483.207C157.396 483.207 157.838 483.103 158.236 482.895C158.633 482.686 158.945 482.39 159.173 482.006C159.407 481.622 159.525 481.176 159.525 480.668C159.525 480.173 159.407 479.734 159.173 479.35C158.945 478.965 158.633 478.669 158.236 478.461C157.838 478.253 157.396 478.148 156.907 478.148Z" fill="#757575"/>
<rect x="33" y="618" width="294" height="53" rx="26.5" fill="#143D60"/>
<path d="M163.999 652.438H162.014V638.219H163.999V652.438ZM152.842 648.422L155.733 648.383V647.18C155.212 647.086 154.757 646.919 154.366 646.68C153.981 646.44 153.684 646.143 153.475 645.789C153.267 645.43 153.165 645.031 153.171 644.594C153.165 644.068 153.311 643.604 153.608 643.203C153.905 642.797 154.322 642.482 154.858 642.258C155.395 642.034 156.009 641.922 156.702 641.922C157.4 641.922 158.02 642.034 158.561 642.258C159.103 642.482 159.525 642.797 159.827 643.203C160.129 643.604 160.28 644.068 160.28 644.594C160.28 645.031 160.173 645.43 159.96 645.789C159.751 646.143 159.452 646.44 159.061 646.68C158.676 646.919 158.223 647.086 157.702 647.18V648.32C159.035 648.253 160.212 648.151 161.233 648.016L161.374 649.484C159.994 649.719 158.577 649.872 157.124 649.945C155.676 650.013 154.092 650.047 152.374 650.047L152.108 648.422H152.842ZM161.03 641.359H152.389V639.797H155.733V638.281H157.717V639.797H161.03V641.359ZM156.702 643.438C156.207 643.438 155.809 643.542 155.507 643.75C155.204 643.953 155.056 644.234 155.061 644.594C155.056 644.958 155.202 645.242 155.499 645.445C155.801 645.648 156.202 645.75 156.702 645.75C157.212 645.75 157.619 645.651 157.921 645.453C158.223 645.25 158.374 644.964 158.374 644.594C158.374 644.229 158.22 643.945 157.913 643.742C157.611 643.539 157.207 643.438 156.702 643.438ZM178.401 648.969H176.401V647.844H173.682V646.484H176.401V638.234H178.401V648.969ZM178.713 652.188H168.119V647.938H170.104V646.047C169.135 646.089 167.947 646.109 166.541 646.109L166.307 644.531C168.14 644.521 169.789 644.49 171.252 644.438C172.716 644.385 174.109 644.276 175.432 644.109L175.541 645.531C174.458 645.714 173.312 645.849 172.104 645.938V648.641H170.104V650.594H178.713V652.188ZM170.932 638.719C171.614 638.714 172.224 638.818 172.76 639.031C173.296 639.245 173.716 639.547 174.018 639.938C174.325 640.323 174.479 640.766 174.479 641.266C174.479 641.76 174.328 642.198 174.026 642.578C173.724 642.958 173.302 643.253 172.76 643.461C172.224 643.664 171.614 643.766 170.932 643.766C170.234 643.766 169.614 643.664 169.072 643.461C168.531 643.253 168.109 642.961 167.807 642.586C167.505 642.206 167.354 641.766 167.354 641.266C167.354 640.766 167.502 640.323 167.799 639.938C168.101 639.547 168.523 639.245 169.065 639.031C169.612 638.818 170.234 638.714 170.932 638.719ZM170.932 640.172C170.416 640.172 170.005 640.268 169.697 640.461C169.39 640.654 169.239 640.922 169.244 641.266C169.239 641.604 169.388 641.867 169.69 642.055C169.997 642.237 170.411 642.328 170.932 642.328C171.421 642.328 171.817 642.234 172.119 642.047C172.427 641.859 172.583 641.599 172.588 641.266C172.583 640.922 172.427 640.654 172.119 640.461C171.817 640.268 171.421 640.172 170.932 640.172ZM191.881 643.672H193.896V645.312H191.881V652.406H189.881V638.219H191.881V643.672ZM188.084 639.672C188.073 641.938 187.563 643.94 186.552 645.68C185.547 647.414 183.907 648.839 181.631 649.953L180.506 648.422C182.198 647.573 183.498 646.568 184.404 645.406C185.316 644.245 185.865 642.875 186.052 641.297H181.318V639.672H188.084ZM206.876 645.859H204.876V638.219H206.876V645.859ZM199.329 647.812H204.892V646.484H206.876V652.281H197.361V646.484H199.329V647.812ZM204.892 650.672V649.359H199.329V650.672H204.892ZM199.079 638.812C199.814 638.807 200.475 638.948 201.064 639.234C201.658 639.521 202.124 639.922 202.462 640.438C202.801 640.948 202.97 641.531 202.97 642.188C202.97 642.823 202.801 643.393 202.462 643.898C202.124 644.404 201.658 644.799 201.064 645.086C200.475 645.372 199.814 645.516 199.079 645.516C198.345 645.516 197.681 645.372 197.087 645.086C196.499 644.799 196.035 644.404 195.697 643.898C195.358 643.393 195.189 642.823 195.189 642.188C195.189 641.531 195.358 640.948 195.697 640.438C196.035 639.922 196.499 639.521 197.087 639.234C197.681 638.948 198.345 638.807 199.079 638.812ZM199.079 640.469C198.699 640.469 198.361 640.539 198.064 640.68C197.772 640.815 197.543 641.013 197.376 641.273C197.215 641.529 197.137 641.833 197.142 642.188C197.137 642.536 197.215 642.839 197.376 643.094C197.543 643.344 197.772 643.536 198.064 643.672C198.361 643.807 198.699 643.875 199.079 643.875C199.449 643.875 199.78 643.807 200.072 643.672C200.363 643.536 200.59 643.344 200.751 643.094C200.918 642.839 201.001 642.536 201.001 642.188C201.001 641.833 200.918 641.529 200.751 641.273C200.59 641.013 200.363 640.815 200.072 640.68C199.78 640.539 199.449 640.469 199.079 640.469Z" fill="white"/>
<path d="M60.2031 138.695H56.4824V112.035H60.2031V138.695ZM39.2852 131.166L44.7051 131.093V128.837C43.7285 128.661 42.874 128.349 42.1416 127.899C41.4189 127.45 40.8623 126.894 40.4717 126.229C40.0811 125.556 39.8906 124.809 39.9004 123.988C39.8906 123.002 40.1641 122.133 40.7207 121.381C41.2773 120.619 42.0586 120.028 43.0645 119.608C44.0703 119.188 45.2227 118.979 46.5215 118.979C47.8301 118.979 48.9922 119.188 50.0078 119.608C51.0234 120.028 51.8145 120.619 52.3809 121.381C52.9473 122.133 53.2305 123.002 53.2305 123.988C53.2305 124.809 53.0303 125.556 52.6299 126.229C52.2393 126.894 51.6777 127.45 50.9453 127.899C50.2227 128.349 49.373 128.661 48.3965 128.837V130.976C50.8965 130.849 53.1035 130.658 55.0176 130.404L55.2812 133.158C52.6934 133.598 50.0371 133.886 47.3125 134.022C44.5977 134.149 41.6289 134.213 38.4062 134.213L37.9082 131.166H39.2852ZM54.6367 117.924H38.4355V114.994H44.7051V112.152H48.4258V114.994H54.6367V117.924ZM46.5215 121.82C45.5938 121.82 44.8467 122.016 44.2803 122.406C43.7139 122.787 43.4355 123.314 43.4453 123.988C43.4355 124.672 43.709 125.204 44.2656 125.585C44.832 125.966 45.584 126.156 46.5215 126.156C47.4785 126.156 48.2402 125.971 48.8066 125.6C49.373 125.219 49.6562 124.682 49.6562 123.988C49.6562 123.305 49.3682 122.772 48.792 122.392C48.2256 122.011 47.4688 121.82 46.5215 121.82ZM86.3066 132.191H82.5566V130.082H77.459V127.533H82.5566V112.064H86.3066V132.191ZM86.8926 138.227H67.0293V130.258H70.75V126.713C68.9336 126.791 66.707 126.83 64.0703 126.83L63.6309 123.871C67.0684 123.852 70.1592 123.793 72.9033 123.695C75.6475 123.598 78.2598 123.393 80.7402 123.08L80.9453 125.746C78.9141 126.088 76.7656 126.342 74.5 126.508V131.576H70.75V135.238H86.8926V138.227ZM72.3027 112.973C73.582 112.963 74.7246 113.158 75.7305 113.559C76.7363 113.959 77.5225 114.525 78.0889 115.258C78.665 115.98 78.9531 116.811 78.9531 117.748C78.9531 118.676 78.6699 119.496 78.1035 120.209C77.5371 120.922 76.7461 121.474 75.7305 121.864C74.7246 122.245 73.582 122.436 72.3027 122.436C70.9941 122.436 69.832 122.245 68.8164 121.864C67.8008 121.474 67.0098 120.927 66.4434 120.224C65.877 119.511 65.5938 118.686 65.5938 117.748C65.5938 116.811 65.8721 115.98 66.4287 115.258C66.9951 114.525 67.7861 113.959 68.8018 113.559C69.8271 113.158 70.9941 112.963 72.3027 112.973ZM72.3027 115.697C71.3359 115.697 70.5645 115.878 69.9883 116.239C69.4121 116.601 69.1289 117.104 69.1387 117.748C69.1289 118.383 69.4072 118.876 69.9736 119.228C70.5498 119.569 71.3262 119.74 72.3027 119.74C73.2207 119.74 73.9629 119.564 74.5293 119.213C75.1055 118.861 75.3984 118.373 75.4082 117.748C75.3984 117.104 75.1055 116.601 74.5293 116.239C73.9629 115.878 73.2207 115.697 72.3027 115.697ZM110.682 122.26H114.461V125.336H110.682V138.637H106.932V112.035H110.682V122.26ZM103.562 114.76C103.543 119.008 102.586 122.763 100.691 126.024C98.8066 129.276 95.7305 131.947 91.4629 134.037L89.3535 131.166C92.5273 129.574 94.9639 127.689 96.6631 125.512C98.3721 123.334 99.4023 120.766 99.7539 117.807H90.877V114.76H103.562ZM137.898 126.361H134.148V112.035H137.898V126.361ZM123.748 130.023H134.178V127.533H137.898V138.402H120.057V127.533H123.748V130.023ZM134.178 135.385V132.924H123.748V135.385H134.178ZM123.279 113.148C124.656 113.139 125.896 113.402 127 113.939C128.113 114.477 128.987 115.229 129.622 116.195C130.257 117.152 130.574 118.246 130.574 119.477C130.574 120.668 130.257 121.737 129.622 122.685C128.987 123.632 128.113 124.374 127 124.911C125.896 125.448 124.656 125.717 123.279 125.717C121.902 125.717 120.657 125.448 119.544 124.911C118.44 124.374 117.571 123.632 116.937 122.685C116.302 121.737 115.984 120.668 115.984 119.477C115.984 118.246 116.302 117.152 116.937 116.195C117.571 115.229 118.44 114.477 119.544 113.939C120.657 113.402 121.902 113.139 123.279 113.148ZM123.279 116.254C122.566 116.254 121.932 116.386 121.375 116.649C120.828 116.903 120.398 117.274 120.086 117.763C119.783 118.241 119.637 118.812 119.646 119.477C119.637 120.131 119.783 120.697 120.086 121.176C120.398 121.645 120.828 122.006 121.375 122.26C121.932 122.514 122.566 122.641 123.279 122.641C123.973 122.641 124.593 122.514 125.14 122.26C125.687 122.006 126.111 121.645 126.414 121.176C126.727 120.697 126.883 120.131 126.883 119.477C126.883 118.812 126.727 118.241 126.414 117.763C126.111 117.274 125.687 116.903 125.14 116.649C124.593 116.386 123.973 116.254 123.279 116.254Z" fill="black"/>
<path d="M46.4551 541.318H44.8145V528.062H46.4551V541.318ZM37.7686 532.456H40.9766V529.146H42.5879V538.198H36.1426V529.146H37.7686V532.456ZM40.9766 536.865V533.73H37.7686V536.865H40.9766ZM55.9139 534.272H49.5271V528.75H55.9139V534.272ZM51.1385 532.998H54.3025V530.054H51.1385V532.998ZM59.8543 534.8H58.243V528.062H59.8543V534.8ZM59.8543 538.828H52.7205V539.897H60.2498V541.187H51.1092V537.656H58.2723V536.675H51.0945V535.4H59.8543V538.828ZM73.3561 537.847H71.7301V532.969H69.0641V535.693H62.8678V528.94H64.4937V531.079H67.4527V528.94H69.0641V531.65H71.7301V528.076H73.3561V537.847ZM73.649 541.04H64.6256V536.88H66.2809V539.722H73.649V541.04ZM67.4527 534.404V532.339H64.4937V534.404H67.4527ZM87.1654 531.152H76.223V529.834H80.8959V528.237H82.5072V529.834H87.1654V531.152ZM87.7807 539.883H75.6811V538.564H80.8959V536.938C80.1293 536.875 79.4701 536.736 78.9184 536.521C78.3715 536.301 77.9516 536.011 77.6586 535.649C77.3705 535.283 77.2289 534.858 77.2338 534.375C77.2289 533.848 77.4047 533.394 77.7611 533.013C78.1225 532.627 78.64 532.334 79.3139 532.134C79.9877 531.929 80.7836 531.826 81.7016 531.826C82.6049 531.826 83.391 531.929 84.06 532.134C84.7338 532.334 85.2514 532.627 85.6127 533.013C85.974 533.394 86.1547 533.848 86.1547 534.375C86.1547 534.854 86.0082 535.276 85.7152 535.642C85.4223 536.003 85.0023 536.294 84.4555 536.514C83.9086 536.729 83.2592 536.868 82.5072 536.931V538.564H87.7807V539.883ZM81.7016 533.101C80.7885 533.11 80.0927 533.223 79.6142 533.438C79.1356 533.647 78.8988 533.96 78.9037 534.375C78.8988 534.795 79.1356 535.112 79.6142 535.327C80.0927 535.542 80.7885 535.654 81.7016 535.664C82.6 535.654 83.2885 535.542 83.767 535.327C84.2455 535.112 84.4848 534.795 84.4848 534.375C84.4848 533.96 84.2455 533.647 83.767 533.438C83.2885 533.223 82.6 533.11 81.7016 533.101ZM99.466 533.232H101.429V534.595H99.466V541.274H97.84V528.062H99.466V533.232ZM95.965 529.438C95.965 533.784 93.9582 536.943 89.9445 538.916L89.0217 537.656C90.633 536.855 91.8757 535.886 92.7497 534.749C93.6286 533.611 94.1511 532.29 94.3171 530.786H89.7395V529.438H95.965ZM110.268 528.486C110.932 528.486 111.531 528.616 112.063 528.875C112.595 529.128 113.012 529.482 113.315 529.937C113.623 530.391 113.779 530.903 113.784 531.475C113.779 532.051 113.623 532.566 113.315 533.02C113.012 533.474 112.595 533.828 112.063 534.082C111.531 534.336 110.932 534.463 110.268 534.463C109.599 534.463 108.996 534.336 108.459 534.082C107.927 533.828 107.51 533.474 107.207 533.02C106.904 532.566 106.753 532.051 106.753 531.475C106.753 530.903 106.904 530.391 107.207 529.937C107.51 529.482 107.929 529.128 108.467 528.875C109.004 528.616 109.604 528.486 110.268 528.486ZM110.268 529.834C109.897 529.834 109.565 529.902 109.272 530.039C108.979 530.171 108.75 530.361 108.584 530.61C108.418 530.854 108.335 531.143 108.335 531.475C108.335 531.812 108.418 532.107 108.584 532.361C108.75 532.61 108.979 532.803 109.272 532.939C109.565 533.076 109.897 533.145 110.268 533.145C110.639 533.145 110.971 533.076 111.264 532.939C111.557 532.803 111.787 532.61 111.953 532.361C112.119 532.107 112.202 531.812 112.202 531.475C112.202 531.143 112.119 530.854 111.953 530.61C111.787 530.361 111.557 530.171 111.264 530.039C110.971 529.902 110.639 529.834 110.268 529.834ZM117.549 534.756H115.908V528.062H117.549V534.756ZM117.549 538.784H110.386V539.854H117.944V541.143H108.789V537.583H115.923V536.602H108.76V535.327H117.549V538.784ZM130.933 541.304H129.307V528.062H130.933V541.304ZM125.015 532.266C125.015 532.944 125.15 533.618 125.418 534.287C125.687 534.956 126.075 535.559 126.583 536.096C127.09 536.633 127.691 537.046 128.384 537.334L127.491 538.579C126.744 538.267 126.089 537.8 125.528 537.18C124.971 536.56 124.537 535.842 124.224 535.027C123.921 535.891 123.487 536.655 122.921 537.319C122.359 537.979 121.7 538.472 120.943 538.799L120.064 537.539C120.748 537.236 121.341 536.807 121.844 536.25C122.347 535.688 122.73 535.061 122.994 534.368C123.257 533.674 123.389 532.974 123.389 532.266V531.577H120.474V530.273H123.389V528.34H125.001V530.273H127.857V531.577H125.015V532.266ZM143.79 531.328H145.636V532.676H143.79V535.796H142.164V528.062H143.79V531.328ZM136.847 537.466H142.164V536.323H143.79V541.143H135.236V536.323H136.847V537.466ZM142.164 539.854V538.726H136.847V539.854H142.164ZM141.212 530.596H133.361V529.292H136.481V527.959H138.107V529.292H141.212V530.596ZM137.287 531.05C137.921 531.05 138.483 531.147 138.971 531.343C139.459 531.533 139.838 531.804 140.106 532.156C140.38 532.507 140.519 532.915 140.524 533.379C140.519 533.843 140.38 534.25 140.106 534.602C139.838 534.954 139.459 535.227 138.971 535.422C138.483 535.613 137.921 535.708 137.287 535.708C136.647 535.708 136.08 535.613 135.587 535.422C135.099 535.227 134.718 534.954 134.445 534.602C134.171 534.25 134.035 533.843 134.035 533.379C134.035 532.915 134.171 532.507 134.445 532.156C134.718 531.804 135.099 531.533 135.587 531.343C136.08 531.147 136.647 531.05 137.287 531.05ZM137.287 532.251C136.779 532.251 136.373 532.351 136.071 532.551C135.768 532.751 135.617 533.027 135.617 533.379C135.617 533.735 135.766 534.014 136.063 534.214C136.366 534.409 136.774 534.507 137.287 534.507C137.799 534.507 138.207 534.407 138.51 534.207C138.817 534.006 138.971 533.73 138.971 533.379C138.971 533.032 138.817 532.759 138.51 532.559C138.202 532.354 137.794 532.251 137.287 532.251ZM157.805 541.304H156.194V528.062H157.805V541.304ZM149.133 536.587C151.189 536.553 153.147 536.353 155.007 535.986L155.212 537.349C154.113 537.578 153.025 537.742 151.946 537.839C150.871 537.932 149.778 537.979 148.664 537.979H147.522V529.351H149.133V536.587ZM170.545 533.086H172.581V534.419H170.545V541.318H168.919V528.062H170.545V533.086ZM166.912 530.64H162.342V536.719C163.411 536.719 164.375 536.687 165.235 536.624C166.094 536.56 166.966 536.45 167.85 536.294L168.04 537.671C167.083 537.837 166.136 537.947 165.198 538C164.266 538.054 163.138 538.081 161.814 538.081H160.716V529.321H166.912V530.64Z" fill="#32C375"/>
<path d="M47.5098 432.269H42.251V433.616H40.6396V432.269H35.4395V430.95H47.5098V432.269ZM42.2656 434.466C42.2656 434.876 42.439 435.259 42.7856 435.616C43.1372 435.972 43.6401 436.272 44.2944 436.517C44.9536 436.761 45.7275 436.922 46.6162 437L46.1182 438.23C45.0195 438.128 44.0649 437.894 43.2544 437.527C42.4438 437.161 41.8359 436.695 41.4307 436.128C41.0205 436.69 40.415 437.154 39.6143 437.52C38.8135 437.891 37.8711 438.128 36.7871 438.23L36.2451 437C37.124 436.922 37.8906 436.758 38.5449 436.509C39.2041 436.26 39.7095 435.958 40.061 435.601C40.4175 435.24 40.5957 434.861 40.5957 434.466V434.158H42.2656V434.466ZM42.3096 425.721C42.3096 426.199 42.5 426.666 42.8809 427.12C43.2617 427.574 43.7988 427.962 44.4922 428.284C45.1904 428.606 45.9863 428.816 46.8799 428.914L46.3086 430.174C45.2051 430.037 44.231 429.744 43.3862 429.295C42.5415 428.841 41.9043 428.279 41.4746 427.61C41.0449 428.279 40.4077 428.841 39.563 429.295C38.7183 429.744 37.7441 430.037 36.6406 430.174L36.0693 428.914C36.9678 428.816 37.7612 428.609 38.4497 428.292C39.1431 427.969 39.6802 427.581 40.061 427.127C40.4419 426.673 40.6348 426.204 40.6396 425.721V425.223H42.3096V425.721ZM53.5994 428.826C53.5994 429.52 53.7312 430.218 53.9949 430.921C54.2635 431.624 54.6468 432.264 55.1448 432.84C55.6478 433.416 56.2361 433.86 56.91 434.173L56.0018 435.462C55.2742 435.12 54.637 434.62 54.0901 433.96C53.5433 433.296 53.116 432.537 52.8084 431.683C52.5008 432.615 52.0638 433.443 51.4974 434.166C50.931 434.888 50.2742 435.428 49.5271 435.784L48.575 434.51C49.2537 434.188 49.8494 433.721 50.3621 433.111C50.8797 432.5 51.2752 431.819 51.5486 431.067C51.827 430.315 51.9686 429.568 51.9734 428.826V427.713H49.0877V426.365H56.368V427.713H53.5994V428.826ZM59.2244 430.218H61.2605V431.58H59.2244V438.304H57.5984V425.062H59.2244V430.218ZM63.6295 438.597H61.9889L65.4166 425.896H67.0426L63.6295 438.597ZM71.7699 425.809C72.2973 425.809 72.7855 425.901 73.2348 426.087C73.6889 426.268 74.0746 426.526 74.392 426.863H77.5561V425.062H79.182V432.854H77.5561V431.17H74.3847C74.0722 431.502 73.6889 431.761 73.2348 431.946C72.7855 432.127 72.2973 432.215 71.7699 432.21C71.1156 432.215 70.5199 432.081 69.9828 431.807C69.4506 431.534 69.0307 431.153 68.723 430.665C68.4203 430.176 68.2689 429.627 68.2689 429.017C68.2689 428.401 68.4203 427.85 68.723 427.361C69.0307 426.873 69.4506 426.492 69.9828 426.219C70.515 425.945 71.1107 425.809 71.7699 425.809ZM71.7699 427.2C71.3891 427.2 71.0521 427.276 70.7592 427.427C70.4662 427.574 70.2367 427.784 70.0707 428.057C69.9047 428.331 69.8217 428.65 69.8217 429.017C69.8217 429.373 69.9047 429.69 70.0707 429.969C70.2367 430.242 70.4662 430.455 70.7592 430.606C71.057 430.757 71.3939 430.833 71.7699 430.833C72.1312 430.833 72.456 430.757 72.744 430.606C73.037 430.455 73.2665 430.242 73.4325 429.969C73.5985 429.69 73.684 429.373 73.6889 429.017C73.684 428.65 73.5985 428.331 73.4325 428.057C73.2665 427.784 73.0395 427.574 72.7514 427.427C72.4633 427.276 72.1361 427.2 71.7699 427.2ZM74.6996 433.133C75.6225 433.133 76.4232 433.235 77.102 433.44C77.7855 433.646 78.3104 433.941 78.6767 434.327C79.0429 434.712 79.226 435.174 79.226 435.711C79.226 436.248 79.0429 436.709 78.6767 437.095C78.3104 437.481 77.7855 437.776 77.102 437.981C76.4232 438.187 75.6225 438.289 74.6996 438.289C73.7768 438.289 72.976 438.187 72.2973 437.981C71.6234 437.776 71.1034 437.481 70.7372 437.095C70.3759 436.709 70.1977 436.248 70.2025 435.711C70.1977 435.174 70.3759 434.712 70.7372 434.327C71.1034 433.941 71.6234 433.646 72.2973 433.44C72.976 433.235 73.7768 433.133 74.6996 433.133ZM74.6996 434.378C73.7719 434.378 73.0541 434.493 72.5463 434.722C72.0434 434.952 71.7943 435.281 71.7992 435.711C71.7943 436.126 72.0434 436.448 72.5463 436.678C73.0541 436.902 73.7719 437.015 74.6996 437.015C75.6371 437.015 76.3598 436.902 76.8676 436.678C77.3754 436.448 77.6293 436.126 77.6293 435.711C77.6293 435.281 77.3754 434.952 76.8676 434.722C76.3646 434.493 75.642 434.378 74.6996 434.378ZM75.1244 428.167C75.2025 428.455 75.2416 428.738 75.2416 429.017C75.2416 429.28 75.205 429.559 75.1317 429.852H77.5561V428.167H75.1244ZM85.1252 426.028C85.7209 426.028 86.258 426.187 86.7365 426.504C87.215 426.822 87.6057 427.276 87.9084 427.867C88.2111 428.453 88.3991 429.144 88.4724 429.939H90.9992V425.062H92.6105V438.318H90.9992V431.258H88.4943C88.4357 432.098 88.2575 432.83 87.9597 433.455C87.6618 434.075 87.2687 434.554 86.7805 434.891C86.2922 435.223 85.7404 435.389 85.1252 435.389C84.4611 435.389 83.8728 435.198 83.3601 434.817C82.8474 434.437 82.447 433.892 82.1589 433.184C81.8708 432.476 81.7268 431.648 81.7268 430.701C81.7268 429.764 81.8708 428.943 82.1589 428.24C82.447 427.532 82.8474 426.988 83.3601 426.607C83.8776 426.221 84.466 426.028 85.1252 426.028ZM85.1252 427.493C84.759 427.493 84.4367 427.623 84.1584 427.881C83.8801 428.135 83.6652 428.504 83.5139 428.987C83.3625 429.466 83.2893 430.037 83.2941 430.701C83.2893 431.37 83.3625 431.946 83.5139 432.43C83.6652 432.913 83.8801 433.284 84.1584 433.543C84.4367 433.797 84.759 433.924 85.1252 433.924C85.4914 433.924 85.8112 433.797 86.0847 433.543C86.363 433.284 86.5778 432.913 86.7292 432.43C86.8854 431.946 86.966 431.37 86.9709 430.701C86.966 430.037 86.8854 429.463 86.7292 428.98C86.5778 428.497 86.363 428.128 86.0847 427.874C85.8112 427.62 85.4914 427.493 85.1252 427.493ZM96.2832 438.597H94.6426L98.0703 425.896H99.6963L96.2832 438.597ZM112.817 433.265H100.718V431.99H112.817V433.265ZM111.294 438.304H109.653V435.579H102.08V434.275H111.294V438.304ZM111.47 431.009H102.27V425.384H111.367V426.658H103.896V427.566H111.045V428.782H103.896V429.764H111.47V431.009ZM121.06 426.16C121.06 426.717 121.255 427.259 121.646 427.786C122.042 428.313 122.593 428.765 123.301 429.141C124.014 429.517 124.83 429.764 125.748 429.881L125.103 431.199C123.99 431.033 123.004 430.691 122.144 430.174C121.285 429.651 120.638 429.014 120.203 428.262C119.769 429.014 119.124 429.651 118.27 430.174C117.415 430.691 116.436 431.033 115.333 431.199L114.688 429.881C115.596 429.764 116.404 429.517 117.112 429.141C117.82 428.765 118.37 428.313 118.76 427.786C119.151 427.259 119.346 426.717 119.346 426.16V425.486H121.06V426.16ZM126.231 433.689H120.972V438.304H119.361V433.689H114.161V432.342H126.231V433.689ZM139.66 432.986H134.547V435.418H132.936V432.986H127.56V431.683H139.66V432.986ZM138.107 430.452H129.098V425.662H138.107V430.452ZM130.68 429.178H136.496V426.937H130.68V429.178ZM138.327 438.04H129.025V434.202H130.651V436.722H138.327V438.04ZM145.735 428.826C145.735 429.52 145.866 430.218 146.13 430.921C146.399 431.624 146.782 432.264 147.28 432.84C147.783 433.416 148.371 433.86 149.045 434.173L148.137 435.462C147.409 435.12 146.772 434.62 146.225 433.96C145.678 433.296 145.251 432.537 144.944 431.683C144.636 432.615 144.199 433.443 143.633 434.166C143.066 434.888 142.409 435.428 141.662 435.784L140.71 434.51C141.389 434.188 141.985 433.721 142.497 433.111C143.015 432.5 143.41 431.819 143.684 431.067C143.962 430.315 144.104 429.568 144.109 428.826V427.713H141.223V426.365H148.503V427.713H145.735V428.826ZM151.36 430.218H153.396V431.58H151.36V438.304H149.734V425.062H151.36V430.218ZM166.487 432.298H154.388V431.067H166.487V432.298ZM165.022 436.106H157.435V437.029H165.418V438.157H155.809V435.052H163.411V434.231H155.794V433.089H165.022V436.106ZM164.993 428.343H157.537V429.207H165.228V430.32H155.926V427.288H163.367V426.482H155.882V425.354H164.993V428.343ZM182.871 431.888H181.245V425.062H182.871V431.888ZM182.871 435.857H175.634V436.897H183.296V438.187H174.023V434.671H181.259V433.719H173.994V432.444H182.871V435.857ZM179.589 427.171H178.403V430.057C179.023 430.003 179.604 429.944 180.146 429.881L180.219 431.053C178.086 431.385 175.42 431.551 172.221 431.551L172.046 430.262L173.554 430.247V427.171H172.397V425.911H179.589V427.171ZM175.122 430.218C175.698 430.203 176.274 430.181 176.85 430.152V427.171H175.122V430.218ZM192.139 426.16C192.139 426.717 192.334 427.259 192.725 427.786C193.121 428.313 193.672 428.765 194.38 429.141C195.093 429.517 195.909 429.764 196.827 429.881L196.182 431.199C195.069 431.033 194.082 430.691 193.223 430.174C192.364 429.651 191.717 429.014 191.282 428.262C190.848 429.014 190.203 429.651 189.349 430.174C188.494 430.691 187.515 431.033 186.412 431.199L185.767 429.881C186.675 429.764 187.483 429.517 188.191 429.141C188.899 428.765 189.449 428.313 189.839 427.786C190.23 427.259 190.425 426.717 190.425 426.16V425.486H192.139V426.16ZM197.31 433.689H192.051V438.304H190.44V433.689H185.24V432.342H197.31V433.689ZM210.753 436.766H198.654V435.418H203.868V433.265H200.089V428.929H207.706V427.288H200.06V425.97H209.318V430.218H201.715V431.932H209.625V433.265H205.48V435.418H210.753V436.766ZM218.465 429.705C219.407 429.695 220.308 429.654 221.167 429.581C222.032 429.502 222.903 429.383 223.782 429.222L223.972 430.54C222.967 430.735 221.975 430.872 220.999 430.95C220.022 431.028 218.992 431.067 217.908 431.067H216.809V425.706H218.465V429.705ZM227.166 432.005H225.54V428.152H222.024V426.849H225.54V425.062H227.166V432.005ZM227.429 433.924H217.893V432.664H221.848V431.492H223.474V432.664H227.429V433.924ZM222.654 434.349C223.435 434.354 224.109 434.434 224.676 434.59C225.242 434.742 225.677 434.964 225.979 435.257C226.287 435.55 226.443 435.901 226.448 436.312C226.443 436.731 226.287 437.088 225.979 437.381C225.677 437.679 225.242 437.903 224.676 438.055C224.109 438.211 223.435 438.289 222.654 438.289C221.883 438.289 221.211 438.211 220.64 438.055C220.074 437.903 219.637 437.679 219.329 437.381C219.026 437.088 218.875 436.731 218.875 436.312C218.875 435.901 219.026 435.55 219.329 435.257C219.637 434.964 220.074 434.742 220.64 434.59C221.211 434.434 221.883 434.354 222.654 434.349ZM222.654 435.535C221.966 435.525 221.431 435.589 221.05 435.726C220.674 435.862 220.486 436.058 220.486 436.312C220.486 436.58 220.674 436.785 221.05 436.927C221.426 437.063 221.961 437.132 222.654 437.132C223.347 437.132 223.88 437.063 224.251 436.927C224.622 436.785 224.807 436.58 224.807 436.312C224.807 436.058 224.619 435.862 224.243 435.726C223.872 435.589 223.343 435.525 222.654 435.535ZM233.109 426.028C233.705 426.028 234.242 426.187 234.72 426.504C235.199 426.822 235.589 427.276 235.892 427.867C236.195 428.453 236.383 429.144 236.456 429.939H238.983V425.062H240.594V438.318H238.983V431.258H236.478C236.42 432.098 236.241 432.83 235.943 433.455C235.646 434.075 235.253 434.554 234.764 434.891C234.276 435.223 233.724 435.389 233.109 435.389C232.445 435.389 231.857 435.198 231.344 434.817C230.831 434.437 230.431 433.892 230.143 433.184C229.855 432.476 229.711 431.648 229.711 430.701C229.711 429.764 229.855 428.943 230.143 428.24C230.431 427.532 230.831 426.988 231.344 426.607C231.861 426.221 232.45 426.028 233.109 426.028ZM233.109 427.493C232.743 427.493 232.421 427.623 232.142 427.881C231.864 428.135 231.649 428.504 231.498 428.987C231.346 429.466 231.273 430.037 231.278 430.701C231.273 431.37 231.346 431.946 231.498 432.43C231.649 432.913 231.864 433.284 232.142 433.543C232.421 433.797 232.743 433.924 233.109 433.924C233.475 433.924 233.795 433.797 234.068 433.543C234.347 433.284 234.562 432.913 234.713 432.43C234.869 431.946 234.95 431.37 234.955 430.701C234.95 430.037 234.869 429.463 234.713 428.98C234.562 428.497 234.347 428.128 234.068 427.874C233.795 427.62 233.475 427.493 233.109 427.493ZM246.464 426.028C247.128 426.028 247.719 426.221 248.237 426.607C248.754 426.988 249.16 427.532 249.453 428.24C249.75 428.943 249.902 429.764 249.907 430.701C249.902 431.648 249.75 432.476 249.453 433.184C249.16 433.892 248.754 434.437 248.237 434.817C247.719 435.198 247.128 435.389 246.464 435.389C245.795 435.389 245.2 435.198 244.677 434.817C244.155 434.432 243.747 433.885 243.454 433.177C243.161 432.469 243.017 431.644 243.022 430.701C243.017 429.769 243.161 428.948 243.454 428.24C243.747 427.532 244.155 426.988 244.677 426.607C245.2 426.221 245.795 426.028 246.464 426.028ZM246.464 427.493C246.093 427.493 245.766 427.623 245.483 427.881C245.2 428.135 244.98 428.504 244.824 428.987C244.667 429.466 244.589 430.037 244.589 430.701C244.589 431.37 244.667 431.946 244.824 432.43C244.98 432.913 245.2 433.284 245.483 433.543C245.766 433.797 246.093 433.924 246.464 433.924C246.84 433.924 247.17 433.797 247.453 433.543C247.736 433.284 247.954 432.913 248.105 432.43C248.261 431.946 248.339 431.37 248.339 430.701C248.339 430.037 248.261 429.463 248.105 428.98C247.954 428.497 247.736 428.128 247.453 427.874C247.17 427.62 246.84 427.493 246.464 427.493ZM255.239 429.588H253.276V432.137H255.239V433.47H253.276V438.304H251.65V425.062H253.276V428.226H255.239V429.588ZM270.772 428.328H272.618V429.676H270.772V432.796H269.146V425.062H270.772V428.328ZM263.829 434.466H269.146V433.323H270.772V438.143H262.218V433.323H263.829V434.466ZM269.146 436.854V435.726H263.829V436.854H269.146ZM268.194 427.596H260.343V426.292H263.463V424.959H265.089V426.292H268.194V427.596ZM264.269 428.05C264.903 428.05 265.465 428.147 265.953 428.343C266.441 428.533 266.82 428.804 267.088 429.156C267.362 429.507 267.501 429.915 267.506 430.379C267.501 430.843 267.362 431.25 267.088 431.602C266.82 431.954 266.441 432.227 265.953 432.422C265.465 432.613 264.903 432.708 264.269 432.708C263.629 432.708 263.062 432.613 262.569 432.422C262.081 432.227 261.7 431.954 261.427 431.602C261.153 431.25 261.017 430.843 261.017 430.379C261.017 429.915 261.153 429.507 261.427 429.156C261.7 428.804 262.081 428.533 262.569 428.343C263.062 428.147 263.629 428.05 264.269 428.05ZM264.269 429.251C263.761 429.251 263.355 429.351 263.053 429.551C262.75 429.751 262.599 430.027 262.599 430.379C262.599 430.735 262.748 431.014 263.045 431.214C263.348 431.409 263.756 431.507 264.269 431.507C264.781 431.507 265.189 431.407 265.492 431.207C265.799 431.006 265.953 430.73 265.953 430.379C265.953 430.032 265.799 429.759 265.492 429.559C265.184 429.354 264.776 429.251 264.269 429.251ZM284.787 438.304H283.176V425.062H284.787V438.304ZM276.115 433.587C278.171 433.553 280.129 433.353 281.989 432.986L282.194 434.349C281.096 434.578 280.007 434.742 278.928 434.839C277.853 434.932 276.76 434.979 275.646 434.979H274.504V426.351H276.115V433.587ZM297.527 430.086H299.563V431.419H297.527V438.318H295.901V425.062H297.527V430.086ZM293.894 427.64H289.324V433.719C290.393 433.719 291.358 433.687 292.217 433.624C293.076 433.56 293.948 433.45 294.832 433.294L295.022 434.671C294.065 434.837 293.118 434.947 292.18 435C291.248 435.054 290.12 435.081 288.796 435.081H287.698V426.321H293.894V427.64Z" fill="#FFB9B9"/>
<path d="M40.1709 327.24C40.166 328.031 40.2905 328.808 40.5444 329.569C40.8032 330.326 41.1768 331.005 41.665 331.605C42.1533 332.206 42.7295 332.665 43.3936 332.982L42.3975 334.286C41.6943 333.93 41.084 333.422 40.5664 332.763C40.0537 332.104 39.6533 331.342 39.3652 330.478C39.0674 331.4 38.6475 332.216 38.1055 332.924C37.5684 333.627 36.9287 334.164 36.1865 334.535L35.1904 333.231C35.8789 332.904 36.4746 332.428 36.9775 331.803C37.4854 331.173 37.8711 330.463 38.1348 329.672C38.4033 328.876 38.54 328.065 38.5449 327.24V325.131H40.1709V327.24ZM45.8105 329.247H47.8467V330.639H45.8105V337.304H44.1846V324.062H45.8105V329.247ZM60.9236 331.737H48.8533V330.434H51.6658V328.756C51.1629 328.542 50.7747 328.268 50.5013 327.936C50.2327 327.604 50.0984 327.226 50.0984 326.801C50.0984 326.278 50.2913 325.829 50.6771 325.453C51.0677 325.072 51.6219 324.782 52.3396 324.582C53.0623 324.381 53.907 324.281 54.8738 324.281C55.8406 324.281 56.6829 324.381 57.4007 324.582C58.1185 324.782 58.6702 325.072 59.056 325.453C59.4466 325.829 59.6443 326.278 59.6492 326.801C59.6443 327.23 59.5052 327.611 59.2317 327.943C58.9632 328.275 58.575 328.546 58.0672 328.756V330.434H60.9236V331.737ZM54.8738 332.543C55.826 332.538 56.6438 332.628 57.3274 332.814C58.011 332.995 58.5359 333.263 58.9021 333.62C59.2684 333.971 59.4539 334.398 59.4588 334.901C59.4539 335.409 59.2684 335.839 58.9021 336.19C58.5359 336.547 58.011 336.815 57.3274 336.996C56.6438 337.182 55.826 337.274 54.8738 337.274C53.9119 337.274 53.0843 337.182 52.3909 336.996C51.7024 336.815 51.1751 336.547 50.8089 336.19C50.4427 335.839 50.2596 335.409 50.2596 334.901C50.2596 334.398 50.4427 333.971 50.8089 333.62C51.1751 333.263 51.7024 332.995 52.3909 332.814C53.0843 332.628 53.9119 332.538 54.8738 332.543ZM54.8738 333.773C53.9021 333.773 53.1648 333.869 52.6619 334.059C52.159 334.25 51.91 334.53 51.9148 334.901C51.91 335.272 52.159 335.556 52.6619 335.751C53.1697 335.946 53.907 336.044 54.8738 336.044C55.8211 336.044 56.5486 335.946 57.0564 335.751C57.5691 335.556 57.8279 335.272 57.8328 334.901C57.8279 334.53 57.5716 334.25 57.0638 334.059C56.556 333.869 55.826 333.773 54.8738 333.773ZM54.8738 325.541C53.8875 325.541 53.1258 325.651 52.5887 325.871C52.0564 326.085 51.7928 326.396 51.7977 326.801C51.7928 327.201 52.0564 327.506 52.5887 327.716C53.1209 327.926 53.8826 328.031 54.8738 328.031C55.8553 328.031 56.6146 327.926 57.1517 327.716C57.6937 327.506 57.9646 327.201 57.9646 326.801C57.9646 326.396 57.6937 326.085 57.1517 325.871C56.6146 325.651 55.8553 325.541 54.8738 325.541ZM56.4412 330.434V329.174C55.948 329.242 55.4256 329.276 54.8738 329.276C54.3221 329.276 53.7996 329.242 53.3064 329.174V330.434H56.4412ZM76.6479 329.232H78.6107V330.595H76.6479V337.274H75.0219V324.062H76.6479V329.232ZM73.1469 325.438C73.1469 329.784 71.14 332.943 67.1264 334.916L66.2035 333.656C67.8148 332.855 69.0575 331.886 69.9315 330.749C70.8104 329.611 71.3329 328.29 71.4989 326.786H66.9213V325.438H73.1469ZM90.3986 328.822H81.258V324.296H82.884V327.504H90.3986V328.822ZM91.7756 331.415H79.6906V330.097H91.7756V331.415ZM85.7111 332.367C86.6633 332.372 87.4812 332.472 88.1647 332.667C88.8483 332.858 89.3732 333.136 89.7395 333.502C90.1057 333.864 90.2912 334.301 90.2961 334.813C90.2912 335.326 90.1057 335.763 89.7395 336.125C89.3732 336.491 88.8483 336.769 88.1647 336.959C87.4812 337.15 86.6633 337.245 85.7111 337.245C84.7492 337.245 83.9216 337.15 83.2282 336.959C82.5397 336.769 82.0124 336.491 81.6462 336.125C81.28 335.763 81.0969 335.326 81.0969 334.813C81.0969 334.301 81.28 333.864 81.6462 333.502C82.0124 333.136 82.5397 332.858 83.2282 332.667C83.9216 332.472 84.7492 332.372 85.7111 332.367ZM85.7111 333.642C83.7238 333.656 82.7375 334.047 82.7521 334.813C82.7424 335.194 82.9914 335.487 83.4992 335.692C84.007 335.897 84.7443 336 85.7111 336C86.6535 336 87.3786 335.897 87.8864 335.692C88.3991 335.487 88.6604 335.194 88.6701 334.813C88.6555 334.047 87.6691 333.656 85.7111 333.642ZM103.549 328.236H105.395V329.584H103.549V333.964H101.923V324.076H103.549V328.236ZM100.971 326.845H93.1191V325.541H96.2393V324.062H97.8652V325.541H100.971V326.845ZM97.0449 327.387C97.6748 327.387 98.2339 327.492 98.7222 327.702C99.2104 327.912 99.5913 328.209 99.8647 328.595C100.138 328.976 100.277 329.418 100.282 329.921C100.277 330.419 100.138 330.858 99.8647 331.239C99.5913 331.615 99.2104 331.908 98.7222 332.118C98.2339 332.323 97.6748 332.426 97.0449 332.426C96.4102 332.426 95.8462 332.323 95.353 332.118C94.8599 331.908 94.4766 331.615 94.2031 331.239C93.9297 330.858 93.793 330.419 93.793 329.921C93.793 329.418 93.9297 328.976 94.2031 328.595C94.4766 328.209 94.8599 327.912 95.353 327.702C95.8462 327.492 96.4102 327.387 97.0449 327.387ZM97.0449 328.646C96.5322 328.646 96.1245 328.759 95.8218 328.983C95.5239 329.208 95.375 329.521 95.375 329.921C95.375 330.312 95.5264 330.619 95.8291 330.844C96.1318 331.068 96.5371 331.176 97.0449 331.166C97.5527 331.176 97.9604 331.068 98.2681 330.844C98.5757 330.619 98.7295 330.312 98.7295 329.921C98.7295 329.521 98.5757 329.208 98.2681 328.983C97.9653 328.759 97.5576 328.646 97.0449 328.646ZM104.076 337.04H95.0674V333.188H96.6934V335.722H104.076V337.04ZM121.544 337.318H119.903V324.062H121.544V337.318ZM114.41 325.028C115.074 325.028 115.665 325.221 116.182 325.607C116.705 325.988 117.115 326.532 117.413 327.24C117.711 327.943 117.862 328.764 117.867 329.701C117.862 330.644 117.711 331.469 117.413 332.177C117.12 332.885 116.712 333.432 116.19 333.817C115.667 334.198 115.074 334.389 114.41 334.389C113.741 334.389 113.145 334.198 112.623 333.817C112.1 333.432 111.69 332.885 111.392 332.177C111.099 331.469 110.953 330.644 110.953 329.701C110.953 328.764 111.099 327.943 111.392 327.24C111.69 326.532 112.1 325.988 112.623 325.607C113.145 325.221 113.741 325.028 114.41 325.028ZM114.41 326.493C114.034 326.493 113.702 326.62 113.414 326.874C113.13 327.128 112.911 327.497 112.754 327.98C112.598 328.463 112.52 329.037 112.52 329.701C112.52 330.37 112.598 330.946 112.754 331.43C112.911 331.913 113.13 332.284 113.414 332.543C113.702 332.797 114.034 332.924 114.41 332.924C114.781 332.924 115.108 332.797 115.391 332.543C115.674 332.284 115.894 331.913 116.05 331.43C116.207 330.946 116.285 330.37 116.285 329.701C116.285 329.037 116.207 328.466 116.05 327.987C115.894 327.504 115.674 327.135 115.391 326.881C115.108 326.623 114.781 326.493 114.41 326.493ZM129.552 328.939H131.09V324.296H132.643V336.659H131.09V330.258H129.552V333.891H124.352V325.497H129.552V328.939ZM125.875 332.602H128.029V326.786H125.875V332.602ZM135.368 337.304H133.8V324.062H135.368V337.304ZM141.106 324.486C141.77 324.486 142.368 324.616 142.9 324.875C143.432 325.128 143.85 325.482 144.153 325.937C144.46 326.391 144.616 326.903 144.621 327.475C144.616 328.051 144.46 328.566 144.153 329.02C143.85 329.474 143.432 329.828 142.9 330.082C142.368 330.336 141.77 330.463 141.106 330.463C140.437 330.463 139.834 330.336 139.297 330.082C138.764 329.828 138.347 329.474 138.044 329.02C137.741 328.566 137.59 328.051 137.59 327.475C137.59 326.903 137.741 326.391 138.044 325.937C138.347 325.482 138.767 325.128 139.304 324.875C139.841 324.616 140.442 324.486 141.106 324.486ZM141.106 325.834C140.735 325.834 140.403 325.902 140.11 326.039C139.817 326.171 139.587 326.361 139.421 326.61C139.255 326.854 139.172 327.143 139.172 327.475C139.172 327.812 139.255 328.107 139.421 328.361C139.587 328.61 139.817 328.803 140.11 328.939C140.403 329.076 140.735 329.145 141.106 329.145C141.477 329.145 141.809 329.076 142.102 328.939C142.395 328.803 142.624 328.61 142.79 328.361C142.956 328.107 143.039 327.812 143.039 327.475C143.039 327.143 142.956 326.854 142.79 326.61C142.624 326.361 142.395 326.171 142.102 326.039C141.809 325.902 141.477 325.834 141.106 325.834ZM148.386 330.756H146.745V324.062H148.386V330.756ZM148.386 334.784H141.223V335.854H148.781V337.143H139.626V333.583H146.76V332.602H139.597V331.327H148.386V334.784ZM165.809 331.166H164.169V324.062H165.809V331.166ZM158.661 333.144H164.183V331.781H165.809V337.143H157.05V331.781H158.661V333.144ZM164.183 335.824V334.418H158.661V335.824H164.183ZM158.588 324.647C159.262 324.643 159.869 324.772 160.411 325.036C160.953 325.294 161.378 325.661 161.686 326.134C161.993 326.608 162.147 327.147 162.147 327.753C162.147 328.344 161.991 328.874 161.679 329.342C161.371 329.811 160.946 330.177 160.404 330.441C159.867 330.7 159.262 330.829 158.588 330.829C157.909 330.829 157.299 330.7 156.757 330.441C156.215 330.177 155.787 329.811 155.475 329.342C155.167 328.874 155.013 328.344 155.013 327.753C155.013 327.147 155.167 326.608 155.475 326.134C155.787 325.661 156.215 325.294 156.757 325.036C157.299 324.772 157.909 324.643 158.588 324.647ZM158.588 326.01C158.202 326.01 157.858 326.081 157.555 326.222C157.257 326.364 157.023 326.566 156.852 326.83C156.686 327.094 156.605 327.401 156.61 327.753C156.605 328.1 156.686 328.405 156.852 328.668C157.023 328.927 157.257 329.13 157.555 329.276C157.858 329.418 158.202 329.491 158.588 329.496C158.969 329.491 159.308 329.418 159.606 329.276C159.904 329.13 160.136 328.927 160.302 328.668C160.468 328.405 160.551 328.1 160.551 327.753C160.551 327.401 160.468 327.094 160.302 326.83C160.136 326.566 159.904 326.364 159.606 326.222C159.308 326.081 158.969 326.01 158.588 326.01ZM179.238 337.304H177.627V324.062H179.238V337.304ZM170.566 332.587C172.622 332.553 174.58 332.353 176.44 331.986L176.645 333.349C175.546 333.578 174.458 333.742 173.379 333.839C172.304 333.932 171.211 333.979 170.097 333.979H168.955V325.351H170.566V332.587ZM191.978 329.086H194.014V330.419H191.978V337.318H190.352V324.062H191.978V329.086ZM188.345 326.64H183.775V332.719C184.844 332.719 185.809 332.687 186.668 332.624C187.527 332.56 188.399 332.45 189.283 332.294L189.473 333.671C188.516 333.837 187.569 333.947 186.631 334C185.699 334.054 184.571 334.081 183.247 334.081H182.149V325.321H188.345V326.64Z" fill="#32C375"/>
<path d="M52.382 32.9327C51.5609 32.3388 50.237 32.3388 49.4159 32.9327L35.4902 43.0035C34.8366 43.4761 34.8366 44.2396 35.4902 44.7122L49.4159 54.7831C50.237 55.3769 51.5609 55.3769 52.382 54.7831C53.2032 54.1892 53.2032 53.2318 52.382 52.638L40.2494 43.8518L52.3988 35.0656C53.2032 34.4839 53.2032 33.5144 52.382 32.9327Z" fill="#757575"/>
<rect width="360" height="296" transform="translate(0 693)" fill="#FEF7FF"/>
<rect x="8" y="745" width="29.7059" height="46" rx="6" fill="#F7F2FA"/>
<path d="M25.3138 777.266V764.038L25.4779 761.905H27.2211V777.266H25.3138ZM17.8593 767.576V767.36C17.8593 766.513 17.9584 765.744 18.1566 765.053C18.3549 764.356 18.6454 763.758 19.0282 763.259C19.411 762.76 19.8724 762.377 20.4125 762.11C20.9594 761.837 21.5814 761.7 22.2787 761.7C22.976 761.7 23.5878 761.823 24.1141 762.069C24.6473 762.309 25.0985 762.661 25.4677 763.125C25.8436 763.583 26.141 764.137 26.3597 764.787C26.5785 765.436 26.7289 766.171 26.8109 766.991V767.935C26.7357 768.748 26.5887 769.479 26.37 770.129C26.1512 770.778 25.8539 771.332 25.4779 771.79C25.1088 772.248 24.6542 772.6 24.1141 772.846C23.5809 773.085 22.9623 773.205 22.2582 773.205C21.5746 773.205 20.9594 773.065 20.4125 772.785C19.8724 772.504 19.411 772.111 19.0282 771.605C18.6522 771.1 18.3617 770.505 18.1566 769.821C17.9584 769.131 17.8593 768.382 17.8593 767.576ZM19.7665 767.36V767.576C19.7665 768.129 19.8246 768.652 19.9408 769.145C20.057 769.63 20.2347 770.061 20.474 770.437C20.7201 770.812 21.0277 771.11 21.3969 771.329C21.7728 771.541 22.2172 771.646 22.7299 771.646C23.3588 771.646 23.8817 771.51 24.2987 771.236C24.7225 770.963 25.0609 770.604 25.3138 770.16C25.5668 769.708 25.7616 769.227 25.8983 768.714V766.243C25.8231 765.867 25.7035 765.501 25.5394 765.146C25.3822 764.79 25.1771 764.472 24.9242 764.192C24.6713 763.905 24.3636 763.679 24.0013 763.515C23.6459 763.344 23.2289 763.259 22.7504 763.259C22.2308 763.259 21.7831 763.368 21.4071 763.587C21.0311 763.806 20.7201 764.106 20.474 764.489C20.2347 764.865 20.057 765.299 19.9408 765.792C19.8246 766.284 19.7665 766.807 19.7665 767.36Z" fill="#1D1B20"/>
<rect x="42.9216" y="745" width="29.7059" height="46" rx="6" fill="#F7F2FA"/>
<path d="M54.1343 773.031L56.9849 763.905H58.2359L57.9898 765.72L55.088 775H53.8677L54.1343 773.031ZM52.2169 763.905L54.647 773.134L54.8214 775H53.5396L50.3199 763.905H52.2169ZM60.9634 773.062L63.2808 763.905H65.1675L61.9478 775H60.6763L60.9634 773.062ZM58.5128 763.905L61.3018 772.877L61.6197 775H60.4097L57.4258 765.7L57.1797 763.905H58.5128Z" fill="#1D1B20"/>
<rect x="77.8432" y="745" width="29.7059" height="46" rx="6" fill="#F7F2FA"/>
<path d="M93.178 775.205C92.4056 775.205 91.7049 775.075 91.076 774.815C90.4539 774.549 89.9173 774.176 89.4661 773.698C89.0218 773.219 88.68 772.652 88.4407 771.996C88.2015 771.339 88.0818 770.622 88.0818 769.842V769.412C88.0818 768.509 88.2151 767.706 88.4818 767.002C88.7484 766.291 89.1107 765.689 89.5687 765.197C90.0267 764.705 90.5462 764.333 91.1273 764.08C91.7083 763.827 92.3099 763.7 92.9319 763.7C93.7249 763.7 94.4085 763.837 94.9827 764.11C95.5638 764.384 96.0389 764.767 96.408 765.259C96.7772 765.744 97.0506 766.318 97.2283 766.981C97.4061 767.638 97.4949 768.355 97.4949 769.135V769.986H89.2098V768.438H95.598V768.294C95.5706 767.802 95.4681 767.323 95.2903 766.858C95.1194 766.394 94.846 766.011 94.47 765.71C94.0941 765.409 93.5814 765.259 92.9319 765.259C92.5013 765.259 92.1048 765.351 91.7425 765.536C91.3802 765.713 91.0692 765.98 90.8094 766.335C90.5496 766.691 90.348 767.125 90.2044 767.638C90.0609 768.15 89.9891 768.742 89.9891 769.412V769.842C89.9891 770.369 90.0609 770.864 90.2044 771.329C90.3548 771.787 90.5701 772.19 90.8504 772.539C91.1375 772.888 91.4827 773.161 91.886 773.359C92.2962 773.558 92.761 773.657 93.2806 773.657C93.9505 773.657 94.5179 773.52 94.9827 773.247C95.4476 772.973 95.8543 772.607 96.2029 772.149L97.3514 773.062C97.1121 773.424 96.8079 773.77 96.4388 774.098C96.0696 774.426 95.6151 774.692 95.075 774.897C94.5418 775.103 93.9095 775.205 93.178 775.205Z" fill="#1D1B20"/>
<rect x="112.765" y="745" width="29.7059" height="46" rx="6" fill="#F7F2FA"/>
<path d="M127.402 765.648V775H125.505V763.905H127.351L127.402 765.648ZM130.868 763.844L130.858 765.607C130.701 765.573 130.55 765.553 130.407 765.546C130.27 765.532 130.113 765.525 129.935 765.525C129.498 765.525 129.111 765.594 128.776 765.73C128.441 765.867 128.158 766.059 127.925 766.305C127.693 766.551 127.508 766.845 127.372 767.187C127.242 767.521 127.156 767.891 127.115 768.294L126.582 768.602C126.582 767.932 126.647 767.303 126.777 766.715C126.914 766.127 127.122 765.607 127.402 765.156C127.683 764.698 128.038 764.343 128.469 764.09C128.906 763.83 129.426 763.7 130.027 763.7C130.164 763.7 130.321 763.717 130.499 763.751C130.677 763.779 130.8 763.81 130.868 763.844Z" fill="#1D1B20"/>
<rect x="147.686" y="745" width="29.7059" height="46" rx="6" fill="#F7F2FA"/>
<path d="M165.195 763.905V765.361H159.197V763.905H165.195ZM161.227 761.208H163.124V772.252C163.124 772.628 163.182 772.912 163.298 773.103C163.414 773.294 163.565 773.421 163.749 773.482C163.934 773.544 164.132 773.575 164.344 773.575C164.501 773.575 164.665 773.561 164.836 773.534C165.014 773.5 165.147 773.472 165.236 773.452L165.246 775C165.096 775.048 164.898 775.092 164.652 775.133C164.412 775.181 164.122 775.205 163.78 775.205C163.315 775.205 162.888 775.113 162.498 774.928C162.109 774.744 161.798 774.436 161.565 774.005C161.34 773.568 161.227 772.98 161.227 772.242V761.208Z" fill="#1D1B20"/>
<rect x="182.608" y="745" width="29.7059" height="46" rx="6" fill="#F7F2FA"/>
<path d="M197.051 773.852L200.137 763.905H202.167L197.717 776.712C197.615 776.986 197.478 777.28 197.307 777.594C197.143 777.916 196.931 778.22 196.671 778.507C196.412 778.794 196.097 779.026 195.728 779.204C195.366 779.389 194.932 779.481 194.426 779.481C194.275 779.481 194.084 779.46 193.852 779.419C193.619 779.378 193.455 779.344 193.359 779.317L193.349 777.779C193.404 777.786 193.489 777.792 193.605 777.799C193.728 777.813 193.814 777.82 193.862 777.82C194.292 777.82 194.658 777.762 194.959 777.646C195.26 777.536 195.513 777.348 195.718 777.082C195.93 776.822 196.111 776.463 196.261 776.005L197.051 773.852ZM194.785 763.905L197.666 772.519L198.158 774.518L196.794 775.215L192.713 763.905H194.785Z" fill="#1D1B20"/>
<rect x="217.53" y="745" width="29.7059" height="46" rx="6" fill="#F7F2FA"/>
<path d="M234.823 772.437V763.905H236.73V775H234.915L234.823 772.437ZM235.182 770.099L235.971 770.078C235.971 770.816 235.893 771.5 235.736 772.129C235.585 772.751 235.339 773.291 234.997 773.749C234.655 774.207 234.208 774.566 233.654 774.826C233.1 775.079 232.427 775.205 231.634 775.205C231.094 775.205 230.598 775.126 230.147 774.969C229.703 774.812 229.32 774.569 228.999 774.241C228.677 773.913 228.428 773.486 228.25 772.959C228.079 772.433 227.994 771.801 227.994 771.062V763.905H229.891V771.083C229.891 771.582 229.945 771.996 230.055 772.324C230.171 772.645 230.325 772.901 230.516 773.093C230.715 773.277 230.933 773.407 231.173 773.482C231.419 773.558 231.672 773.595 231.931 773.595C232.738 773.595 233.377 773.441 233.849 773.134C234.32 772.819 234.659 772.399 234.864 771.873C235.076 771.339 235.182 770.748 235.182 770.099Z" fill="#1D1B20"/>
<rect x="252.451" y="745" width="29.7059" height="46" rx="6" fill="#F7F2FA"/>
<path d="M268.258 763.905V775H266.35V763.905H268.258ZM266.207 760.962C266.207 760.655 266.299 760.395 266.484 760.183C266.675 759.971 266.955 759.865 267.325 759.865C267.687 759.865 267.964 759.971 268.155 760.183C268.353 760.395 268.453 760.655 268.453 760.962C268.453 761.256 268.353 761.509 268.155 761.721C267.964 761.926 267.687 762.029 267.325 762.029C266.955 762.029 266.675 761.926 266.484 761.721C266.299 761.509 266.207 761.256 266.207 760.962Z" fill="#1D1B20"/>
<rect x="287.373" y="745" width="29.7059" height="46" rx="6" fill="#F7F2FA"/>
<path d="M297.181 769.576V769.34C297.181 768.54 297.297 767.798 297.529 767.115C297.762 766.424 298.097 765.826 298.534 765.32C298.972 764.808 299.502 764.411 300.124 764.131C300.746 763.844 301.443 763.7 302.215 763.7C302.995 763.7 303.695 763.844 304.317 764.131C304.946 764.411 305.48 764.808 305.917 765.32C306.361 765.826 306.7 766.424 306.932 767.115C307.165 767.798 307.281 768.54 307.281 769.34V769.576C307.281 770.375 307.165 771.117 306.932 771.801C306.7 772.484 306.361 773.083 305.917 773.595C305.48 774.101 304.95 774.498 304.328 774.785C303.712 775.065 303.015 775.205 302.236 775.205C301.457 775.205 300.756 775.065 300.134 774.785C299.512 774.498 298.979 774.101 298.534 773.595C298.097 773.083 297.762 772.484 297.529 771.801C297.297 771.117 297.181 770.375 297.181 769.576ZM299.078 769.34V769.576C299.078 770.129 299.143 770.652 299.273 771.145C299.402 771.63 299.597 772.061 299.857 772.437C300.124 772.812 300.455 773.11 300.852 773.329C301.248 773.541 301.71 773.646 302.236 773.646C302.755 773.646 303.21 773.541 303.6 773.329C303.996 773.11 304.324 772.812 304.584 772.437C304.844 772.061 305.039 771.63 305.169 771.145C305.305 770.652 305.374 770.129 305.374 769.576V769.34C305.374 768.793 305.305 768.277 305.169 767.792C305.039 767.299 304.84 766.865 304.574 766.489C304.314 766.106 303.986 765.806 303.589 765.587C303.2 765.368 302.742 765.259 302.215 765.259C301.696 765.259 301.238 765.368 300.841 765.587C300.452 765.806 300.124 766.106 299.857 766.489C299.597 766.865 299.402 767.299 299.273 767.792C299.143 768.277 299.078 768.793 299.078 769.34Z" fill="#1D1B20"/>
<rect x="322.294" y="745" width="29.7059" height="46" rx="6" fill="#F7F2FA"/>
<path d="M334.594 766.038V779.266H332.687V763.905H334.43L334.594 766.038ZM342.069 769.36V769.576C342.069 770.382 341.973 771.131 341.782 771.821C341.591 772.505 341.31 773.1 340.941 773.605C340.579 774.111 340.131 774.504 339.598 774.785C339.065 775.065 338.453 775.205 337.763 775.205C337.058 775.205 336.436 775.089 335.896 774.856C335.356 774.624 334.898 774.286 334.522 773.841C334.146 773.397 333.846 772.864 333.62 772.242C333.401 771.62 333.251 770.919 333.169 770.14V768.991C333.251 768.171 333.405 767.436 333.63 766.787C333.856 766.137 334.153 765.583 334.522 765.125C334.898 764.661 335.353 764.309 335.886 764.069C336.419 763.823 337.034 763.7 337.732 763.7C338.429 763.7 339.048 763.837 339.588 764.11C340.128 764.377 340.582 764.76 340.951 765.259C341.321 765.758 341.597 766.356 341.782 767.053C341.973 767.744 342.069 768.513 342.069 769.36ZM340.162 769.576V769.36C340.162 768.807 340.104 768.287 339.988 767.802C339.871 767.31 339.69 766.879 339.444 766.51C339.205 766.134 338.897 765.84 338.521 765.628C338.145 765.409 337.698 765.3 337.178 765.3C336.7 765.3 336.283 765.382 335.927 765.546C335.578 765.71 335.281 765.932 335.035 766.212C334.789 766.486 334.587 766.8 334.43 767.156C334.28 767.504 334.167 767.867 334.092 768.243V770.898C334.228 771.377 334.42 771.828 334.666 772.252C334.912 772.669 335.24 773.007 335.65 773.267C336.06 773.52 336.576 773.646 337.199 773.646C337.711 773.646 338.152 773.541 338.521 773.329C338.897 773.11 339.205 772.812 339.444 772.437C339.69 772.061 339.871 771.63 339.988 771.145C340.104 770.652 340.162 770.129 340.162 769.576Z" fill="#1D1B20"/>
<rect x="8" y="702" width="26" height="26" rx="13" fill="#EADDFF"/>
<path d="M20.4 715L25 719.6L23.6 721L17.6 715L23.6 709L25 710.4L20.4 715Z" fill="#4F378A"/>
<path d="M69.1429 710H71.7143V720.286H69.1429V710ZM64.8571 710H59.7143C58.6857 710 58 710.857 58 711.714V718.571C58 719.429 58.6857 720.286 59.7143 720.286H64.8571C65.8857 720.286 66.5714 719.429 66.5714 718.571V715.143H64V717.714H60.5714V712.571H66.5714V711.714C66.5714 710.857 65.8857 710 64.8571 710ZM82 712.571V710H74.2857V720.286H76.8571V716.857H80.2857V714.286H76.8571V712.571H82Z" fill="#1D1B20"/>
<path d="M113.583 725L113.183 721.8C112.967 721.717 112.762 721.617 112.571 721.5C112.379 721.383 112.192 721.258 112.008 721.125L109.033 722.375L106.283 717.625L108.858 715.675C108.842 715.558 108.833 715.446 108.833 715.338V714.663C108.833 714.554 108.842 714.442 108.858 714.325L106.283 712.375L109.033 707.625L112.008 708.875C112.192 708.742 112.383 708.617 112.583 708.5C112.783 708.383 112.983 708.283 113.183 708.2L113.583 705H119.083L119.483 708.2C119.7 708.283 119.904 708.383 120.096 708.5C120.287 708.617 120.475 708.742 120.658 708.875L123.633 707.625L126.383 712.375L123.808 714.325C123.825 714.442 123.833 714.554 123.833 714.663V715.338C123.833 715.446 123.817 715.558 123.783 715.675L126.358 717.625L123.608 722.375L120.658 721.125C120.475 721.258 120.283 721.383 120.083 721.5C119.883 721.617 119.683 721.717 119.483 721.8L119.083 725H113.583ZM116.383 718.5C117.35 718.5 118.175 718.158 118.858 717.475C119.542 716.792 119.883 715.967 119.883 715C119.883 714.033 119.542 713.208 118.858 712.525C118.175 711.842 117.35 711.5 116.383 711.5C115.4 711.5 114.571 711.842 113.896 712.525C113.221 713.208 112.883 714.033 112.883 715C112.883 715.967 113.221 716.792 113.896 717.475C114.571 718.158 115.4 718.5 116.383 718.5Z" fill="#1D1B20"/>
<path d="M162.667 725L161.667 722H154.667C154.117 722 153.646 721.804 153.254 721.413C152.863 721.021 152.667 720.55 152.667 720V707C152.667 706.45 152.863 705.979 153.254 705.588C153.646 705.196 154.117 705 154.667 705H160.667L161.542 708H170.667C171.25 708 171.729 708.188 172.104 708.562C172.479 708.938 172.667 709.417 172.667 710V723C172.667 723.55 172.479 724.021 172.104 724.413C171.729 724.804 171.25 725 170.667 725H162.667ZM157.817 717.6C158.967 717.6 159.913 717.229 160.654 716.488C161.396 715.746 161.767 714.783 161.767 713.6C161.767 713.467 161.763 713.346 161.754 713.238C161.746 713.129 161.725 713.017 161.692 712.9H157.742V714.45H159.967C159.833 714.917 159.579 715.279 159.204 715.538C158.829 715.796 158.375 715.925 157.842 715.925C157.192 715.925 156.633 715.692 156.167 715.225C155.7 714.758 155.467 714.183 155.467 713.5C155.467 712.817 155.7 712.242 156.167 711.775C156.633 711.308 157.192 711.075 157.842 711.075C158.142 711.075 158.425 711.129 158.692 711.238C158.958 711.346 159.2 711.508 159.417 711.725L160.642 710.55C160.292 710.183 159.871 709.9 159.379 709.7C158.888 709.5 158.367 709.4 157.817 709.4C156.7 709.4 155.746 709.796 154.954 710.588C154.163 711.379 153.767 712.35 153.767 713.5C153.767 714.65 154.163 715.621 154.954 716.413C155.746 717.204 156.7 717.6 157.817 717.6ZM164.517 718.1L165.067 717.575C164.833 717.292 164.621 717.017 164.429 716.75C164.238 716.483 164.05 716.2 163.867 715.9L164.517 718.1ZM165.767 716.825C166.233 716.275 166.588 715.75 166.829 715.25C167.071 714.75 167.233 714.358 167.317 714.075H163.342L163.642 715.125H164.642C164.775 715.375 164.933 715.646 165.117 715.938C165.3 716.229 165.517 716.525 165.767 716.825ZM163.667 724H170.667C170.967 724 171.208 723.904 171.392 723.712C171.575 723.521 171.667 723.283 171.667 723V710C171.667 709.7 171.575 709.458 171.392 709.275C171.208 709.092 170.967 709 170.667 709H161.842L163.017 713.05H164.992V712H166.017V713.05H169.667V714.075H168.392C168.225 714.708 167.975 715.325 167.642 715.925C167.308 716.525 166.917 717.083 166.467 717.6L169.192 720.275L168.467 721L165.767 718.3L164.867 719.225L165.667 722L163.667 724Z" fill="#1D1B20"/>
<path d="M218.25 718.7V708.987C218.25 707.196 216.804 705.75 215.012 705.75H202.987C201.196 705.75 199.75 707.196 199.75 708.987V721.012C199.75 722.804 201.196 724.25 202.987 724.25H212.7L218.25 718.7ZM202.987 722.4C202.222 722.4 201.6 721.778 201.6 721.012V708.987C201.6 708.222 202.222 707.6 202.987 707.6H215.012C215.778 707.6 216.4 708.222 216.4 708.987V717.775H215.012C213.221 717.775 211.775 719.221 211.775 721.012V722.4H202.987ZM206.931 712.948C206.688 712.09 205.796 711.586 204.938 711.83C204.081 712.074 203.576 712.965 203.82 713.831C203.887 714.067 204.005 714.277 204.156 714.453L206.965 713.663C207.007 713.427 206.999 713.184 206.931 712.948ZM212.717 711.317C212.481 710.459 211.582 709.955 210.724 710.198C209.866 710.442 209.362 711.334 209.605 712.2C209.673 712.435 209.79 712.645 209.942 712.822L212.75 712.032C212.792 711.796 212.784 711.552 212.717 711.317ZM213.541 714.21L204.627 716.724C205.83 718.313 207.915 719.087 209.942 718.515C211.968 717.943 213.339 716.186 213.541 714.21Z" fill="#1D1B20"/>
<rect x="253" y="703" width="1" height="24" fill="#CAC4D0"/>
<path d="M280 717C279.45 717 278.979 716.804 278.588 716.413C278.196 716.021 278 715.55 278 715C278 714.45 278.196 713.979 278.588 713.588C278.979 713.196 279.45 713 280 713C280.55 713 281.021 713.196 281.413 713.588C281.804 713.979 282 714.45 282 715C282 715.55 281.804 716.021 281.413 716.413C281.021 716.804 280.55 717 280 717ZM286 717C285.45 717 284.979 716.804 284.588 716.413C284.196 716.021 284 715.55 284 715C284 714.45 284.196 713.979 284.588 713.588C284.979 713.196 285.45 713 286 713C286.55 713 287.021 713.196 287.413 713.588C287.804 713.979 288 714.45 288 715C288 715.55 287.804 716.021 287.413 716.413C287.021 716.804 286.55 717 286 717ZM292 717C291.45 717 290.979 716.804 290.588 716.413C290.196 716.021 290 715.55 290 715C290 714.45 290.196 713.979 290.588 713.588C290.979 713.196 291.45 713 292 713C292.55 713 293.021 713.196 293.413 713.588C293.804 713.979 294 714.45 294 715C294 715.55 293.804 716.021 293.413 716.413C293.021 716.804 292.55 717 292 717Z" fill="#1D1B20"/>
<path d="M340 717C339.167 717 338.458 716.708 337.875 716.125C337.292 715.542 337 714.833 337 714V708C337 707.167 337.292 706.458 337.875 705.875C338.458 705.292 339.167 705 340 705C340.833 705 341.542 705.292 342.125 705.875C342.708 706.458 343 707.167 343 708V714C343 714.833 342.708 715.542 342.125 716.125C341.542 716.708 340.833 717 340 717ZM339 724V720.925C337.267 720.692 335.833 719.917 334.7 718.6C333.567 717.283 333 715.75 333 714H335C335 715.383 335.488 716.562 336.463 717.538C337.438 718.513 338.617 719 340 719C341.383 719 342.562 718.513 343.538 717.538C344.513 716.562 345 715.383 345 714H347C347 715.75 346.433 717.283 345.3 718.6C344.167 719.917 342.733 720.692 341 720.925V724H339Z" fill="#1D1B20"/>
</g>
<defs>
<clipPath id="clip0_82_154">
<rect width="360" height="800" fill="white"/>
</clipPath>
</defs>
</svg>
