<svg width="360" height="800" viewBox="0 0 360 800" fill="none" xmlns="http://www.w3.org/2000/svg">
<g clip-path="url(#clip0_431_1397)">
<rect width="360" height="800" fill="#F7F8FB"/>
<rect x="33" y="432" width="294" height="53" rx="26.5" fill="#143D60"/>
<path d="M177.588 456.391H179.494V457.828H177.588V461.828H175.854V452.281H177.588V456.391ZM166.276 460.141C167.588 460.141 168.776 460.128 169.838 460.102V459.234C169.046 459.135 168.421 458.906 167.963 458.547C167.505 458.182 167.276 457.724 167.276 457.172C167.276 456.745 167.416 456.372 167.697 456.055C167.979 455.737 168.377 455.495 168.893 455.328C169.408 455.156 170.005 455.073 170.682 455.078C171.364 455.073 171.96 455.156 172.471 455.328C172.987 455.495 173.385 455.737 173.666 456.055C173.947 456.372 174.088 456.745 174.088 457.172C174.088 457.719 173.864 458.172 173.416 458.531C172.968 458.891 172.354 459.122 171.572 459.227V460.031C172.88 459.974 174.062 459.875 175.119 459.734L175.26 460.938C173.921 461.172 172.541 461.326 171.119 461.398C169.703 461.466 168.151 461.5 166.463 461.5L166.276 460.141ZM177.588 466.391H175.854V463.797H168.057V462.438H177.588V466.391ZM174.744 454.672H166.635V453.391H169.838V452.156H171.572V453.391H174.744V454.672ZM170.682 456.25C170.13 456.24 169.7 456.315 169.393 456.477C169.091 456.638 168.942 456.87 168.947 457.172C168.937 457.464 169.088 457.695 169.401 457.867C169.713 458.034 170.14 458.115 170.682 458.109C171.223 458.115 171.651 458.034 171.963 457.867C172.276 457.695 172.432 457.464 172.432 457.172C172.432 456.87 172.278 456.638 171.971 456.477C171.664 456.315 171.234 456.24 170.682 456.25ZM192.474 462.484H190.724V452.281H192.474V462.484ZM192.865 466.109H183.131V461.453H184.881V464.703H192.865V466.109ZM184.771 453.203C185.48 453.203 186.123 453.357 186.701 453.664C187.279 453.966 187.735 454.385 188.068 454.922C188.401 455.458 188.568 456.062 188.568 456.734C188.568 457.417 188.401 458.029 188.068 458.57C187.735 459.107 187.279 459.526 186.701 459.828C186.123 460.13 185.48 460.281 184.771 460.281C184.058 460.281 183.409 460.13 182.826 459.828C182.248 459.526 181.792 459.107 181.459 458.57C181.125 458.029 180.959 457.417 180.959 456.734C180.959 456.062 181.125 455.458 181.459 454.922C181.792 454.385 182.248 453.966 182.826 453.664C183.409 453.357 184.058 453.203 184.771 453.203ZM184.771 454.719C184.37 454.719 184.008 454.802 183.685 454.969C183.362 455.135 183.11 455.372 182.927 455.68C182.745 455.987 182.657 456.339 182.662 456.734C182.657 457.141 182.745 457.497 182.927 457.805C183.11 458.112 183.362 458.349 183.685 458.516C184.008 458.682 184.37 458.766 184.771 458.766C185.162 458.766 185.516 458.682 185.834 458.516C186.151 458.349 186.401 458.112 186.584 457.805C186.771 457.497 186.865 457.141 186.865 456.734C186.865 456.339 186.771 455.987 186.584 455.68C186.401 455.372 186.151 455.135 185.834 454.969C185.516 454.802 185.162 454.719 184.771 454.719Z" fill="white"/>
<path d="M60.2617 110.367H56.541V105.328H52.9375V102.369H56.541V99.7031H52.9375V96.6855H56.541V90.0645H60.2617V110.367ZM52.6738 95.8066H37.8496V92.8477H43.5918V90.0059H47.3125V92.8477H52.6738V95.8066ZM45.4082 96.7441C46.6191 96.7441 47.7031 96.9688 48.6602 97.418C49.6172 97.8574 50.3643 98.4775 50.9014 99.2783C51.4482 100.069 51.7266 100.973 51.7363 101.988C51.7266 103.004 51.4482 103.907 50.9014 104.698C50.3643 105.489 49.6172 106.104 48.6602 106.544C47.7031 106.983 46.6191 107.203 45.4082 107.203C44.207 107.203 43.1279 106.983 42.1709 106.544C41.2236 106.104 40.4814 105.489 39.9443 104.698C39.417 103.897 39.1582 102.994 39.168 101.988C39.1582 100.982 39.417 100.079 39.9443 99.2783C40.4814 98.4775 41.2236 97.8574 42.1709 97.418C43.1279 96.9688 44.207 96.7441 45.4082 96.7441ZM45.4082 99.6445C44.5684 99.6641 43.8945 99.8789 43.3867 100.289C42.8887 100.689 42.6445 101.256 42.6543 101.988C42.6445 102.73 42.8887 103.312 43.3867 103.731C43.8945 104.151 44.5684 104.361 45.4082 104.361C46.2383 104.361 46.9121 104.151 47.4297 103.731C47.9473 103.312 48.2109 102.73 48.2207 101.988C48.2109 101.256 47.9473 100.689 47.4297 100.289C46.9121 99.8789 46.2383 99.6641 45.4082 99.6445ZM60.8184 116.227H42.5078V108.639H46.2871V113.238H60.8184V116.227ZM86.9805 116.695H83.4062V103.336H81.1504V115.465H77.6055V107.833L75.4961 110.631C73.1719 109.41 71.4971 107.325 70.4717 104.376C69.5244 107.774 67.8594 110.182 65.4766 111.598L63.1621 108.727C65.0664 107.652 66.4434 106.061 67.293 103.951C68.1523 101.832 68.582 99.3906 68.582 96.627V95.7773H64.0703V92.7891H76.2871V95.7773H72.2148V96.627C72.2148 99.1562 72.6396 101.402 73.4893 103.365C74.3486 105.328 75.7207 106.798 77.6055 107.774V90.416H81.1504V100.289H83.4062V90.0352H86.9805V116.695ZM118.885 116.754H115.105V90.0352H118.885V116.754ZM101.629 98.6484H107.371V92.1445H111.062V110.514H97.8789V92.1445H101.629V98.6484ZM107.371 107.496V101.549H101.629V107.496H107.371ZM136.873 102.604H123.836V91.3535H136.873V102.604ZM127.527 99.7324H133.152V94.3418H127.527V99.7324ZM144.783 103.512H141.062V90.0352H144.783V103.512ZM144.783 111.832H130.662V113.561H145.486V116.52H126.941V109.195H141.121V107.555H126.941V104.654H144.783V111.832ZM170.887 109.723H167.166V100.113H162.244V105.504H149.559V91.793H153.309V95.8945H158.553V91.793H162.244V97.125H167.166V90.0645H170.887V109.723ZM171.443 116.227H153.133V107.76H156.912V113.238H171.443V116.227ZM158.553 102.574V98.7363H153.309V102.574H158.553ZM197.576 96.3926H175.398V93.4043H184.627V90.2988H188.318V93.4043H197.576V96.3926ZM198.748 113.971H174.344V110.982H184.627V107.921C183.113 107.794 181.81 107.506 180.716 107.057C179.622 106.598 178.787 106.002 178.211 105.27C177.635 104.537 177.352 103.688 177.361 102.721C177.352 101.656 177.713 100.733 178.445 99.9521C179.188 99.1709 180.242 98.5752 181.609 98.165C182.986 97.7549 184.607 97.5547 186.473 97.5645C188.309 97.5547 189.91 97.7549 191.277 98.165C192.645 98.5752 193.699 99.1709 194.441 99.9521C195.184 100.733 195.555 101.656 195.555 102.721C195.555 103.688 195.262 104.537 194.676 105.27C194.1 106.002 193.27 106.593 192.186 107.042C191.102 107.491 189.812 107.784 188.318 107.921V110.982H198.748V113.971ZM186.473 100.465C184.725 100.465 183.406 100.655 182.518 101.036C181.629 101.407 181.189 101.969 181.199 102.721C181.189 103.502 181.624 104.078 182.503 104.449C183.392 104.82 184.715 105.006 186.473 105.006C189.969 105.006 191.717 104.244 191.717 102.721C191.717 101.969 191.268 101.407 190.369 101.036C189.48 100.655 188.182 100.465 186.473 100.465ZM224.646 104.771H200.242V101.988H224.646V104.771ZM221.717 112.389H206.775V113.912H222.508V116.461H203.055V110.016H218.025V108.668H203.025V106.09H221.717V112.389ZM221.688 96.7734H207.01V98.209H222.156V100.729H203.289V94.4004H217.938V93.0527H203.23V90.5039H221.688V96.7734ZM58.5742 140.004H55.0742V126.633H58.5742V140.004ZM45.3672 143.422H55.1016V141.098H58.5742V151.242H41.9219V141.098H45.3672V143.422ZM55.1016 148.426V146.129H45.3672V148.426H55.1016ZM44.9297 127.672C46.2148 127.663 47.3724 127.909 48.4023 128.41C49.4414 128.911 50.2572 129.613 50.8496 130.516C51.4421 131.409 51.7383 132.43 51.7383 133.578C51.7383 134.69 51.4421 135.688 50.8496 136.572C50.2572 137.456 49.4414 138.149 48.4023 138.65C47.3724 139.152 46.2148 139.402 44.9297 139.402C43.6445 139.402 42.4824 139.152 41.4434 138.65C40.4134 138.149 39.6022 137.456 39.0098 136.572C38.4173 135.688 38.1211 134.69 38.1211 133.578C38.1211 132.43 38.4173 131.409 39.0098 130.516C39.6022 129.613 40.4134 128.911 41.4434 128.41C42.4824 127.909 43.6445 127.663 44.9297 127.672ZM44.9297 130.57C44.2643 130.57 43.6719 130.693 43.1523 130.939C42.6419 131.176 42.2409 131.523 41.9492 131.979C41.6667 132.425 41.5299 132.958 41.5391 133.578C41.5299 134.189 41.6667 134.717 41.9492 135.164C42.2409 135.602 42.6419 135.939 43.1523 136.176C43.6719 136.413 44.2643 136.531 44.9297 136.531C45.5768 136.531 46.1556 136.413 46.666 136.176C47.1764 135.939 47.5729 135.602 47.8555 135.164C48.1471 134.717 48.293 134.189 48.293 133.578C48.293 132.958 48.1471 132.425 47.8555 131.979C47.5729 131.523 47.1764 131.176 46.666 130.939C46.1556 130.693 45.5768 130.57 44.9297 130.57ZM73.8867 135.848H66.3672V138.5C68.2812 138.5 69.8535 138.459 71.084 138.377C72.3236 138.286 73.5586 138.126 74.7891 137.898L75.1172 140.688C73.7409 140.934 72.319 141.098 70.8516 141.18C69.3932 141.253 67.3698 141.289 64.7812 141.289H62.9219V133.25H70.3867V130.816H62.8672V128.082H73.8867V135.848ZM82.9102 141.973H79.4375V138.145H75.3086V135.383H79.4375V132.867H75.3086V130.105H79.4375V126.66H82.9102V141.973ZM82.9102 151.516H79.4375V145.883H65.7656V143.094H82.9102V151.516ZM98.1406 133.195H86.1094V130.434H90.4297V127.316H93.875V130.434H98.1406V133.195ZM92.1797 134.316C93.2279 134.316 94.1621 134.572 94.9824 135.082C95.8118 135.583 96.459 136.281 96.9238 137.174C97.3978 138.067 97.6393 139.083 97.6484 140.223C97.6393 141.362 97.3978 142.383 96.9238 143.285C96.459 144.188 95.8118 144.894 94.9824 145.404C94.1621 145.906 93.2279 146.156 92.1797 146.156C91.1315 146.156 90.1882 145.906 89.3496 145.404C88.5202 144.894 87.8685 144.188 87.3945 143.285C86.9206 142.383 86.6836 141.362 86.6836 140.223C86.6836 139.092 86.9206 138.081 87.3945 137.188C87.8685 136.285 88.5202 135.583 89.3496 135.082C90.1882 134.572 91.1315 134.316 92.1797 134.316ZM92.1797 137.215C91.4414 137.215 90.849 137.484 90.4023 138.021C89.9648 138.559 89.7461 139.293 89.7461 140.223C89.7461 141.152 89.9648 141.882 90.4023 142.41C90.849 142.939 91.4414 143.203 92.1797 143.203C92.8906 143.203 93.4648 142.939 93.9023 142.41C94.349 141.882 94.5768 141.152 94.5859 140.223C94.5768 139.293 94.349 138.559 93.9023 138.021C93.4648 137.484 92.8906 137.215 92.1797 137.215ZM107.656 151.516H104.348V139.539H102.324V150.449H99.0703V127.125H102.324V136.75H104.348V126.633H107.656V151.516ZM133.031 143.148H123.352V151.516H119.906V143.148H110.336V140.359H133.031V143.148ZM131.008 130.68H123.748C123.867 131.518 124.258 132.32 124.924 133.086C125.589 133.842 126.519 134.499 127.713 135.055C128.907 135.602 130.324 135.975 131.965 136.176L130.707 138.91C128.556 138.618 126.706 138.035 125.156 137.16C123.616 136.285 122.463 135.196 121.697 133.893C120.923 135.196 119.77 136.285 118.238 137.16C116.707 138.035 114.875 138.618 112.742 138.91L111.457 136.176C113.07 135.975 114.469 135.602 115.654 135.055C116.848 134.499 117.778 133.842 118.443 133.086C119.118 132.32 119.519 131.518 119.646 130.68H112.387V127.945H131.008V130.68ZM142.52 132.895C142.52 135.118 142.875 137.146 143.586 138.979C144.297 140.811 145.445 142.237 147.031 143.258L145.145 145.965C143.139 144.753 141.704 142.761 140.838 139.99C140.373 141.449 139.758 142.738 138.992 143.859C138.227 144.971 137.297 145.855 136.203 146.512L134.07 143.941C135.811 142.857 137.087 141.348 137.898 139.416C138.719 137.475 139.129 135.355 139.129 133.059V128.766H142.52V132.895ZM156.109 151.516H152.773V126.633H156.109V151.516ZM150.887 150.367H147.633V137.871H144.406V135.027H147.633V126.988H150.887V150.367ZM181.512 148.617H158.734V145.746H163.82V139.662C162.836 139.07 162.075 138.34 161.537 137.475C160.999 136.6 160.73 135.62 160.73 134.535C160.73 133.214 161.132 132.047 161.934 131.035C162.736 130.023 163.843 129.24 165.256 128.684C166.678 128.118 168.286 127.836 170.082 127.836C171.868 127.836 173.468 128.118 174.881 128.684C176.303 129.24 177.419 130.023 178.23 131.035C179.042 132.047 179.452 133.214 179.461 134.535C179.452 135.592 179.183 136.554 178.654 137.42C178.135 138.277 177.401 139.001 176.453 139.594V145.746H181.512V148.617ZM170.082 130.598C168.897 130.598 167.858 130.753 166.965 131.062C166.081 131.372 165.393 131.824 164.9 132.416C164.417 132.999 164.176 133.706 164.176 134.535C164.176 135.337 164.417 136.035 164.9 136.627C165.393 137.219 166.085 137.675 166.979 137.994C167.872 138.313 168.906 138.473 170.082 138.473C171.249 138.473 172.279 138.313 173.172 137.994C174.065 137.675 174.758 137.219 175.25 136.627C175.751 136.035 176.007 135.337 176.016 134.535C176.007 133.715 175.756 133.008 175.264 132.416C174.771 131.824 174.079 131.372 173.186 131.062C172.292 130.753 171.258 130.598 170.082 130.598ZM172.926 145.746V140.92C171.987 141.093 171.039 141.18 170.082 141.18C169.061 141.18 168.122 141.093 167.266 140.92V145.746H172.926Z" fill="black"/>
<path d="M50.382 31.5484C49.5609 30.8172 48.237 30.8172 47.4159 31.5484L33.4902 43.948C32.8366 44.53 32.8366 45.47 33.4902 46.052L47.4159 58.4516C48.237 59.1828 49.5609 59.1828 50.382 58.4516C51.2032 57.7205 51.2032 56.5417 50.382 55.8106L38.2494 44.9925L50.3988 34.1745C51.2032 33.4583 51.2032 32.2646 50.382 31.5484Z" fill="#1E1E1E"/>
<rect width="360" height="296" transform="translate(-1 504)" fill="#FEF7FF"/>
<rect x="125" y="786" width="108" height="4" rx="2" fill="#1D1B20"/>
<path fill-rule="evenodd" clip-rule="evenodd" d="M327.857 769H325.571V771.222H327.857V769ZM321 769H323.286V771.222H321V769ZM333.571 777.889H324.429V779H333.571V777.889ZM330.143 769H332.429V771.222H330.143V769ZM327.857 773.444H325.571V775.667H327.857V773.444ZM321 773.444H323.286V775.667H321V773.444ZM332.429 773.444H330.143V775.667H332.429V773.444ZM334.714 769H337V771.222H334.714V769ZM337 773.444H334.714V775.667H337V773.444Z" fill="#1D1B20"/>
<path d="M28.9999 777.675L23.4082 772.092L24.5915 770.908L28.9999 775.325L33.4082 770.908L34.5915 772.092L28.9999 777.675Z" fill="#1D1B20"/>
<rect x="7" y="556" width="29.7059" height="46" rx="6" fill="white"/>
<path d="M24.314 588.266V575.038L24.478 572.905H26.2212V588.266H24.314ZM16.8594 578.576V578.36C16.8594 577.513 16.9585 576.744 17.1567 576.053C17.355 575.356 17.6455 574.758 18.0283 574.259C18.4111 573.76 18.8726 573.377 19.4126 573.11C19.9595 572.837 20.5815 572.7 21.2788 572.7C21.9761 572.7 22.5879 572.823 23.1143 573.069C23.6475 573.309 24.0986 573.661 24.4678 574.125C24.8438 574.583 25.1411 575.137 25.3599 575.787C25.5786 576.436 25.729 577.171 25.811 577.991V578.935C25.7358 579.748 25.5889 580.479 25.3701 581.129C25.1514 581.778 24.854 582.332 24.478 582.79C24.1089 583.248 23.6543 583.6 23.1143 583.846C22.5811 584.085 21.9624 584.205 21.2583 584.205C20.5747 584.205 19.9595 584.065 19.4126 583.785C18.8726 583.504 18.4111 583.111 18.0283 582.605C17.6523 582.1 17.3618 581.505 17.1567 580.821C16.9585 580.131 16.8594 579.382 16.8594 578.576ZM18.7666 578.36V578.576C18.7666 579.129 18.8247 579.652 18.9409 580.145C19.0571 580.63 19.2349 581.061 19.4741 581.437C19.7202 581.812 20.0278 582.11 20.397 582.329C20.7729 582.541 21.2173 582.646 21.73 582.646C22.3589 582.646 22.8818 582.51 23.2988 582.236C23.7227 581.963 24.061 581.604 24.314 581.16C24.5669 580.708 24.7617 580.227 24.8984 579.714V577.243C24.8232 576.867 24.7036 576.501 24.5396 576.146C24.3823 575.79 24.1772 575.472 23.9243 575.192C23.6714 574.905 23.3638 574.679 23.0015 574.515C22.646 574.344 22.229 574.259 21.7505 574.259C21.231 574.259 20.7832 574.368 20.4072 574.587C20.0312 574.806 19.7202 575.106 19.4741 575.489C19.2349 575.865 19.0571 576.299 18.9409 576.792C18.8247 577.284 18.7666 577.807 18.7666 578.36Z" fill="#1D1B20"/>
<rect x="41.9216" y="556" width="29.7059" height="46" rx="6" fill="white"/>
<path d="M53.1345 584.031L55.9851 574.905H57.2361L56.99 576.72L54.0881 586H52.8679L53.1345 584.031ZM51.217 574.905L53.6472 584.134L53.8215 586H52.5398L49.3201 574.905H51.217ZM59.9636 584.062L62.281 574.905H64.1677L60.948 586H59.6765L59.9636 584.062ZM57.5129 574.905L60.302 583.877L60.6199 586H59.4099L56.426 576.7L56.1799 574.905H57.5129Z" fill="#1D1B20"/>
<rect x="76.8433" y="556" width="29.7059" height="46" rx="6" fill="white"/>
<path d="M92.1782 586.205C91.4058 586.205 90.7051 586.075 90.0762 585.815C89.4541 585.549 88.9175 585.176 88.4663 584.698C88.022 584.219 87.6802 583.652 87.4409 582.996C87.2017 582.339 87.082 581.622 87.082 580.842V580.412C87.082 579.509 87.2153 578.706 87.4819 578.002C87.7485 577.291 88.1108 576.689 88.5688 576.197C89.0269 575.705 89.5464 575.333 90.1274 575.08C90.7085 574.827 91.3101 574.7 91.9321 574.7C92.7251 574.7 93.4087 574.837 93.9829 575.11C94.564 575.384 95.0391 575.767 95.4082 576.259C95.7773 576.744 96.0508 577.318 96.2285 577.981C96.4062 578.638 96.4951 579.355 96.4951 580.135V580.986H88.21V579.438H94.5981V579.294C94.5708 578.802 94.4683 578.323 94.2905 577.858C94.1196 577.394 93.8462 577.011 93.4702 576.71C93.0942 576.409 92.5815 576.259 91.9321 576.259C91.5015 576.259 91.105 576.351 90.7427 576.536C90.3804 576.713 90.0693 576.98 89.8096 577.335C89.5498 577.691 89.3481 578.125 89.2046 578.638C89.061 579.15 88.9893 579.742 88.9893 580.412V580.842C88.9893 581.369 89.061 581.864 89.2046 582.329C89.355 582.787 89.5703 583.19 89.8506 583.539C90.1377 583.888 90.4829 584.161 90.8862 584.359C91.2964 584.558 91.7612 584.657 92.2808 584.657C92.9507 584.657 93.5181 584.52 93.9829 584.247C94.4478 583.973 94.8545 583.607 95.2031 583.149L96.3516 584.062C96.1123 584.424 95.8081 584.77 95.439 585.098C95.0698 585.426 94.6152 585.692 94.0752 585.897C93.542 586.103 92.9097 586.205 92.1782 586.205Z" fill="#1D1B20"/>
<rect x="111.765" y="556" width="29.7059" height="46" rx="6" fill="white"/>
<path d="M126.403 576.648V586H124.506V574.905H126.351L126.403 576.648ZM129.868 574.844L129.858 576.607C129.701 576.573 129.551 576.553 129.407 576.546C129.27 576.532 129.113 576.525 128.935 576.525C128.498 576.525 128.112 576.594 127.777 576.73C127.442 576.867 127.158 577.059 126.926 577.305C126.693 577.551 126.509 577.845 126.372 578.187C126.242 578.521 126.156 578.891 126.115 579.294L125.582 579.602C125.582 578.932 125.647 578.303 125.777 577.715C125.914 577.127 126.122 576.607 126.403 576.156C126.683 575.698 127.038 575.343 127.469 575.09C127.906 574.83 128.426 574.7 129.028 574.7C129.164 574.7 129.322 574.717 129.499 574.751C129.677 574.779 129.8 574.81 129.868 574.844Z" fill="#1D1B20"/>
<rect x="146.686" y="556" width="29.7059" height="46" rx="6" fill="white"/>
<path d="M164.195 574.905V576.361H158.197V574.905H164.195ZM160.227 572.208H162.124V583.252C162.124 583.628 162.182 583.912 162.298 584.103C162.414 584.294 162.565 584.421 162.749 584.482C162.934 584.544 163.132 584.575 163.344 584.575C163.501 584.575 163.665 584.561 163.836 584.534C164.014 584.5 164.147 584.472 164.236 584.452L164.246 586C164.096 586.048 163.898 586.092 163.652 586.133C163.412 586.181 163.122 586.205 162.78 586.205C162.315 586.205 161.888 586.113 161.498 585.928C161.109 585.744 160.798 585.436 160.565 585.005C160.34 584.568 160.227 583.98 160.227 583.242V572.208Z" fill="#1D1B20"/>
<rect x="181.608" y="556" width="29.7059" height="46" rx="6" fill="white"/>
<path d="M196.051 584.852L199.137 574.905H201.167L196.717 587.712C196.615 587.986 196.478 588.28 196.307 588.594C196.143 588.916 195.931 589.22 195.671 589.507C195.412 589.794 195.097 590.026 194.728 590.204C194.366 590.389 193.932 590.481 193.426 590.481C193.275 590.481 193.084 590.46 192.852 590.419C192.619 590.378 192.455 590.344 192.359 590.317L192.349 588.779C192.404 588.786 192.489 588.792 192.605 588.799C192.729 588.813 192.814 588.82 192.862 588.82C193.292 588.82 193.658 588.762 193.959 588.646C194.26 588.536 194.513 588.348 194.718 588.082C194.93 587.822 195.111 587.463 195.261 587.005L196.051 584.852ZM193.785 574.905L196.666 583.519L197.158 585.518L195.794 586.215L191.713 574.905H193.785Z" fill="#1D1B20"/>
<rect x="216.53" y="556" width="29.7059" height="46" rx="6" fill="white"/>
<path d="M233.823 583.437V574.905H235.73V586H233.915L233.823 583.437ZM234.182 581.099L234.971 581.078C234.971 581.816 234.893 582.5 234.736 583.129C234.585 583.751 234.339 584.291 233.997 584.749C233.656 585.207 233.208 585.566 232.654 585.826C232.1 586.079 231.427 586.205 230.634 586.205C230.094 586.205 229.598 586.126 229.147 585.969C228.703 585.812 228.32 585.569 227.999 585.241C227.677 584.913 227.428 584.486 227.25 583.959C227.079 583.433 226.994 582.801 226.994 582.062V574.905H228.891V582.083C228.891 582.582 228.946 582.996 229.055 583.324C229.171 583.645 229.325 583.901 229.516 584.093C229.715 584.277 229.933 584.407 230.173 584.482C230.419 584.558 230.672 584.595 230.931 584.595C231.738 584.595 232.377 584.441 232.849 584.134C233.321 583.819 233.659 583.399 233.864 582.873C234.076 582.339 234.182 581.748 234.182 581.099Z" fill="#1D1B20"/>
<rect x="251.451" y="556" width="29.7059" height="46" rx="6" fill="white"/>
<path d="M267.258 574.905V586H265.351V574.905H267.258ZM265.207 571.962C265.207 571.655 265.299 571.395 265.484 571.183C265.675 570.971 265.956 570.865 266.325 570.865C266.687 570.865 266.964 570.971 267.155 571.183C267.354 571.395 267.453 571.655 267.453 571.962C267.453 572.256 267.354 572.509 267.155 572.721C266.964 572.926 266.687 573.029 266.325 573.029C265.956 573.029 265.675 572.926 265.484 572.721C265.299 572.509 265.207 572.256 265.207 571.962Z" fill="#1D1B20"/>
<rect x="286.373" y="556" width="29.7059" height="46" rx="6" fill="white"/>
<path d="M296.181 580.576V580.34C296.181 579.54 296.297 578.798 296.53 578.115C296.762 577.424 297.097 576.826 297.534 576.32C297.972 575.808 298.502 575.411 299.124 575.131C299.746 574.844 300.443 574.7 301.216 574.7C301.995 574.7 302.696 574.844 303.318 575.131C303.947 575.411 304.48 575.808 304.917 576.32C305.362 576.826 305.7 577.424 305.932 578.115C306.165 578.798 306.281 579.54 306.281 580.34V580.576C306.281 581.375 306.165 582.117 305.932 582.801C305.7 583.484 305.362 584.083 304.917 584.595C304.48 585.101 303.95 585.498 303.328 585.785C302.713 586.065 302.015 586.205 301.236 586.205C300.457 586.205 299.756 586.065 299.134 585.785C298.512 585.498 297.979 585.101 297.534 584.595C297.097 584.083 296.762 583.484 296.53 582.801C296.297 582.117 296.181 581.375 296.181 580.576ZM298.078 580.34V580.576C298.078 581.129 298.143 581.652 298.273 582.145C298.403 582.63 298.597 583.061 298.857 583.437C299.124 583.812 299.455 584.11 299.852 584.329C300.248 584.541 300.71 584.646 301.236 584.646C301.756 584.646 302.21 584.541 302.6 584.329C302.996 584.11 303.324 583.812 303.584 583.437C303.844 583.061 304.039 582.63 304.169 582.145C304.305 581.652 304.374 581.129 304.374 580.576V580.34C304.374 579.793 304.305 579.277 304.169 578.792C304.039 578.299 303.841 577.865 303.574 577.489C303.314 577.106 302.986 576.806 302.59 576.587C302.2 576.368 301.742 576.259 301.216 576.259C300.696 576.259 300.238 576.368 299.842 576.587C299.452 576.806 299.124 577.106 298.857 577.489C298.597 577.865 298.403 578.299 298.273 578.792C298.143 579.277 298.078 579.793 298.078 580.34Z" fill="#1D1B20"/>
<rect x="321.294" y="556" width="29.7059" height="46" rx="6" fill="white"/>
<path d="M333.594 577.038V590.266H331.687V574.905H333.43L333.594 577.038ZM341.069 580.36V580.576C341.069 581.382 340.974 582.131 340.782 582.821C340.591 583.505 340.311 584.1 339.941 584.605C339.579 585.111 339.131 585.504 338.598 585.785C338.065 586.065 337.453 586.205 336.763 586.205C336.059 586.205 335.437 586.089 334.896 585.856C334.356 585.624 333.898 585.286 333.522 584.841C333.146 584.397 332.846 583.864 332.62 583.242C332.401 582.62 332.251 581.919 332.169 581.14V579.991C332.251 579.171 332.405 578.436 332.63 577.787C332.856 577.137 333.153 576.583 333.522 576.125C333.898 575.661 334.353 575.309 334.886 575.069C335.419 574.823 336.035 574.7 336.732 574.7C337.429 574.7 338.048 574.837 338.588 575.11C339.128 575.377 339.583 575.76 339.952 576.259C340.321 576.758 340.598 577.356 340.782 578.053C340.974 578.744 341.069 579.513 341.069 580.36ZM339.162 580.576V580.36C339.162 579.807 339.104 579.287 338.988 578.802C338.872 578.31 338.69 577.879 338.444 577.51C338.205 577.134 337.897 576.84 337.521 576.628C337.146 576.409 336.698 576.3 336.178 576.3C335.7 576.3 335.283 576.382 334.927 576.546C334.579 576.71 334.281 576.932 334.035 577.212C333.789 577.486 333.587 577.8 333.43 578.156C333.28 578.504 333.167 578.867 333.092 579.243V581.898C333.229 582.377 333.42 582.828 333.666 583.252C333.912 583.669 334.24 584.007 334.65 584.267C335.061 584.52 335.577 584.646 336.199 584.646C336.711 584.646 337.152 584.541 337.521 584.329C337.897 584.11 338.205 583.812 338.444 583.437C338.69 583.061 338.872 582.63 338.988 582.145C339.104 581.652 339.162 581.129 339.162 580.576Z" fill="#1D1B20"/>
<rect x="25.2424" y="614" width="29.5354" height="46" rx="6" fill="white"/>
<path d="M42.2864 642.103V636.392C42.2864 635.954 42.1975 635.575 42.0198 635.253C41.8489 634.925 41.5891 634.672 41.2405 634.495C40.8918 634.317 40.4612 634.228 39.9485 634.228C39.47 634.228 39.0496 634.31 38.6873 634.474C38.3318 634.638 38.0515 634.854 37.8464 635.12C37.6482 635.387 37.5491 635.674 37.5491 635.981H35.6521C35.6521 635.585 35.7546 635.192 35.9597 634.802C36.1648 634.413 36.4587 634.061 36.8416 633.746C37.2312 633.425 37.696 633.172 38.2361 632.987C38.783 632.796 39.3914 632.7 40.0613 632.7C40.8679 632.7 41.5789 632.837 42.1941 633.11C42.8162 633.384 43.3015 633.797 43.6501 634.351C44.0056 634.898 44.1833 635.585 44.1833 636.412V641.58C44.1833 641.949 44.2141 642.342 44.2756 642.759C44.344 643.176 44.4431 643.535 44.573 643.836V644H42.594C42.4983 643.781 42.4231 643.491 42.3684 643.128C42.3137 642.759 42.2864 642.417 42.2864 642.103ZM42.6145 637.273L42.635 638.606H40.7175C40.1775 638.606 39.6956 638.651 39.2717 638.74C38.8479 638.822 38.4924 638.948 38.2053 639.119C37.9182 639.29 37.6995 639.505 37.5491 639.765C37.3987 640.018 37.3235 640.315 37.3235 640.657C37.3235 641.006 37.4021 641.324 37.5593 641.611C37.7166 641.898 37.9524 642.127 38.2668 642.298C38.5881 642.462 38.9812 642.544 39.446 642.544C40.0271 642.544 40.5398 642.421 40.9841 642.175C41.4285 641.929 41.7805 641.628 42.0403 641.272C42.3069 640.917 42.4504 640.572 42.4709 640.237L43.281 641.149C43.2332 641.437 43.1033 641.754 42.8914 642.103C42.6794 642.452 42.3958 642.787 42.0403 643.108C41.6917 643.422 41.2747 643.686 40.7893 643.897C40.3108 644.103 39.7708 644.205 39.1692 644.205C38.4172 644.205 37.7576 644.058 37.1902 643.764C36.6296 643.47 36.1921 643.077 35.8777 642.585C35.5701 642.086 35.4163 641.529 35.4163 640.914C35.4163 640.319 35.5325 639.796 35.7649 639.345C35.9973 638.887 36.3323 638.507 36.7698 638.207C37.2073 637.899 37.7336 637.667 38.3489 637.509C38.9641 637.352 39.6511 637.273 40.4099 637.273H42.6145Z" fill="#1D1B20"/>
<rect x="59.99" y="614" width="29.5354" height="46" rx="6" fill="white"/>
<path d="M77.239 641.057C77.239 640.784 77.1775 640.531 77.0544 640.298C76.9382 640.059 76.6956 639.844 76.3264 639.652C75.9641 639.454 75.4172 639.283 74.6858 639.14C74.0706 639.01 73.5134 638.856 73.0144 638.678C72.5222 638.5 72.1018 638.285 71.7532 638.032C71.4114 637.779 71.1482 637.482 70.9636 637.14C70.7791 636.798 70.6868 636.398 70.6868 635.94C70.6868 635.503 70.7825 635.089 70.9739 634.7C71.1721 634.31 71.449 633.965 71.8044 633.664C72.1667 633.363 72.6008 633.127 73.1067 632.957C73.6125 632.786 74.1765 632.7 74.7986 632.7C75.6873 632.7 76.446 632.857 77.075 633.172C77.7039 633.486 78.1858 633.907 78.5208 634.433C78.8557 634.953 79.0232 635.53 79.0232 636.166H77.1262C77.1262 635.858 77.0339 635.561 76.8494 635.274C76.6716 634.98 76.4084 634.737 76.0598 634.546C75.718 634.354 75.2976 634.259 74.7986 634.259C74.2722 634.259 73.845 634.341 73.5168 634.505C73.1956 634.662 72.9597 634.864 72.8093 635.11C72.6658 635.356 72.594 635.616 72.594 635.889C72.594 636.094 72.6282 636.279 72.6965 636.443C72.7717 636.6 72.9016 636.747 73.0862 636.884C73.2708 637.014 73.5305 637.137 73.8655 637.253C74.2004 637.369 74.6277 637.485 75.1472 637.602C76.0564 637.807 76.8049 638.053 77.3928 638.34C77.9807 638.627 78.4182 638.979 78.7053 639.396C78.9924 639.813 79.136 640.319 79.136 640.914C79.136 641.399 79.0334 641.843 78.8284 642.247C78.6301 642.65 78.3396 642.999 77.9568 643.292C77.5808 643.58 77.1296 643.805 76.6033 643.969C76.0837 644.126 75.4993 644.205 74.8499 644.205C73.8723 644.205 73.0452 644.031 72.3684 643.682C71.6917 643.333 71.179 642.882 70.8303 642.329C70.4817 641.775 70.3074 641.19 70.3074 640.575H72.2146C72.2419 641.095 72.3923 641.508 72.6658 641.816C72.9392 642.117 73.2742 642.332 73.6707 642.462C74.0671 642.585 74.4602 642.646 74.8499 642.646C75.3694 642.646 75.8035 642.578 76.1521 642.441C76.5076 642.305 76.7776 642.117 76.9622 641.877C77.1467 641.638 77.239 641.365 77.239 641.057Z" fill="#1D1B20"/>
<rect x="94.7373" y="614" width="29.5354" height="46" rx="6" fill="white"/>
<path d="M112.017 641.847V628.25H113.924V644H112.181L112.017 641.847ZM104.552 638.576V638.36C104.552 637.513 104.655 636.744 104.86 636.053C105.072 635.356 105.369 634.758 105.752 634.259C106.142 633.76 106.603 633.377 107.136 633.11C107.676 632.837 108.278 632.7 108.941 632.7C109.638 632.7 110.247 632.823 110.766 633.069C111.292 633.309 111.737 633.661 112.099 634.125C112.468 634.583 112.759 635.137 112.971 635.787C113.183 636.436 113.33 637.171 113.412 637.991V638.935C113.336 639.748 113.189 640.479 112.971 641.129C112.759 641.778 112.468 642.332 112.099 642.79C111.737 643.248 111.292 643.6 110.766 643.846C110.24 644.085 109.625 644.205 108.92 644.205C108.271 644.205 107.676 644.065 107.136 643.785C106.603 643.504 106.142 643.111 105.752 642.605C105.369 642.1 105.072 641.505 104.86 640.821C104.655 640.131 104.552 639.382 104.552 638.576ZM106.459 638.36V638.576C106.459 639.129 106.514 639.649 106.624 640.134C106.74 640.62 106.917 641.047 107.157 641.416C107.396 641.785 107.7 642.076 108.069 642.288C108.438 642.493 108.879 642.595 109.392 642.595C110.021 642.595 110.537 642.462 110.94 642.195C111.351 641.929 111.679 641.577 111.925 641.139C112.171 640.702 112.362 640.227 112.499 639.714V637.243C112.417 636.867 112.297 636.504 112.14 636.156C111.99 635.8 111.792 635.486 111.545 635.212C111.306 634.932 111.009 634.71 110.653 634.546C110.305 634.382 109.891 634.3 109.413 634.3C108.893 634.3 108.445 634.409 108.069 634.628C107.7 634.84 107.396 635.134 107.157 635.51C106.917 635.879 106.74 636.31 106.624 636.802C106.514 637.287 106.459 637.807 106.459 638.36Z" fill="#1D1B20"/>
<rect x="129.485" y="614" width="29.5354" height="46" rx="6" fill="white"/>
<path d="M144.878 644H142.981V631.736C142.981 630.937 143.125 630.263 143.412 629.716C143.706 629.163 144.126 628.746 144.673 628.465C145.22 628.178 145.869 628.035 146.621 628.035C146.84 628.035 147.059 628.048 147.277 628.076C147.503 628.103 147.722 628.144 147.934 628.199L147.831 629.747C147.688 629.713 147.523 629.689 147.339 629.675C147.161 629.662 146.983 629.655 146.806 629.655C146.402 629.655 146.054 629.737 145.76 629.901C145.473 630.058 145.254 630.291 145.104 630.598C144.953 630.906 144.878 631.285 144.878 631.736V644ZM147.236 632.905V634.361H141.228V632.905H147.236Z" fill="#1D1B20"/>
<rect x="164.232" y="614" width="29.5354" height="46" rx="6" fill="white"/>
<path d="M181.738 632.905H183.46V643.764C183.46 644.742 183.262 645.576 182.866 646.266C182.469 646.957 181.916 647.479 181.205 647.835C180.5 648.197 179.687 648.378 178.764 648.378C178.381 648.378 177.93 648.317 177.411 648.194C176.898 648.078 176.392 647.876 175.893 647.589C175.401 647.309 174.987 646.929 174.652 646.451L175.647 645.323C176.112 645.883 176.597 646.273 177.103 646.492C177.616 646.71 178.122 646.82 178.621 646.82C179.222 646.82 179.742 646.707 180.179 646.481C180.617 646.256 180.955 645.921 181.194 645.477C181.44 645.039 181.563 644.499 181.563 643.856V635.346L181.738 632.905ZM174.099 638.576V638.36C174.099 637.513 174.198 636.744 174.396 636.053C174.601 635.356 174.892 634.758 175.268 634.259C175.65 633.76 176.112 633.377 176.652 633.11C177.192 632.837 177.8 632.7 178.477 632.7C179.174 632.7 179.783 632.823 180.302 633.069C180.829 633.309 181.273 633.661 181.635 634.125C182.004 634.583 182.295 635.137 182.507 635.787C182.719 636.436 182.866 637.171 182.948 637.991V638.935C182.873 639.748 182.726 640.479 182.507 641.129C182.295 641.778 182.004 642.332 181.635 642.79C181.273 643.248 180.829 643.6 180.302 643.846C179.776 644.085 179.161 644.205 178.457 644.205C177.793 644.205 177.192 644.065 176.652 643.785C176.119 643.504 175.661 643.111 175.278 642.605C174.895 642.1 174.601 641.505 174.396 640.821C174.198 640.131 174.099 639.382 174.099 638.576ZM175.996 638.36V638.576C175.996 639.129 176.05 639.649 176.16 640.134C176.276 640.62 176.45 641.047 176.683 641.416C176.922 641.785 177.226 642.076 177.595 642.288C177.964 642.493 178.405 642.595 178.918 642.595C179.547 642.595 180.066 642.462 180.477 642.195C180.887 641.929 181.211 641.577 181.451 641.139C181.697 640.702 181.888 640.227 182.025 639.714V637.243C181.95 636.867 181.833 636.504 181.676 636.156C181.526 635.8 181.328 635.486 181.082 635.212C180.842 634.932 180.545 634.71 180.189 634.546C179.834 634.382 179.417 634.3 178.938 634.3C178.419 634.3 177.971 634.409 177.595 634.628C177.226 634.84 176.922 635.134 176.683 635.51C176.45 635.879 176.276 636.31 176.16 636.802C176.05 637.287 175.996 637.807 175.996 638.36Z" fill="#1D1B20"/>
<rect x="198.98" y="614" width="29.5354" height="46" rx="6" fill="white"/>
<path d="M211.307 628.25V644H209.41V628.25H211.307ZM210.856 638.032L210.066 638.001C210.073 637.243 210.186 636.542 210.405 635.899C210.624 635.25 210.931 634.686 211.328 634.208C211.724 633.729 212.196 633.36 212.743 633.1C213.296 632.833 213.908 632.7 214.578 632.7C215.125 632.7 215.617 632.775 216.055 632.926C216.492 633.069 216.865 633.302 217.172 633.623C217.487 633.944 217.726 634.361 217.89 634.874C218.054 635.38 218.136 635.999 218.136 636.73V644H216.229V636.709C216.229 636.128 216.144 635.664 215.973 635.315C215.802 634.959 215.552 634.703 215.224 634.546C214.896 634.382 214.493 634.3 214.014 634.3C213.542 634.3 213.112 634.399 212.722 634.597C212.339 634.795 212.008 635.069 211.728 635.417C211.454 635.766 211.239 636.166 211.082 636.617C210.931 637.062 210.856 637.533 210.856 638.032Z" fill="#1D1B20"/>
<rect x="233.728" y="614" width="29.5354" height="46" rx="6" fill="white"/>
<path d="M247.48 632.905H249.387V645.323C249.387 646 249.278 646.574 249.059 647.045C248.847 647.517 248.526 647.873 248.095 648.112C247.671 648.358 247.135 648.481 246.485 648.481C246.314 648.481 246.116 648.464 245.891 648.43C245.658 648.396 245.463 648.354 245.306 648.307L245.316 646.779C245.446 646.806 245.593 646.827 245.757 646.84C245.921 646.861 246.065 646.871 246.188 646.871C246.468 646.871 246.704 646.82 246.896 646.717C247.087 646.615 247.23 646.451 247.326 646.225C247.429 646 247.48 645.699 247.48 645.323V632.905ZM247.285 629.962C247.285 629.655 247.381 629.395 247.572 629.183C247.764 628.971 248.041 628.865 248.403 628.865C248.772 628.865 249.052 628.971 249.244 629.183C249.435 629.395 249.531 629.655 249.531 629.962C249.531 630.256 249.435 630.509 249.244 630.721C249.052 630.926 248.772 631.029 248.403 631.029C248.041 631.029 247.764 630.926 247.572 630.721C247.381 630.509 247.285 630.256 247.285 629.962Z" fill="#1D1B20"/>
<rect x="268.475" y="614" width="29.5354" height="46" rx="6" fill="white"/>
<path d="M281.274 628.25V644H279.366V628.25H281.274ZM288.052 632.905L283.212 638.083L280.505 640.893L280.351 638.873L282.289 636.556L285.734 632.905H288.052ZM286.319 644L282.361 638.709L283.345 637.017L288.554 644H286.319Z" fill="#1D1B20"/>
<rect x="303.222" y="614" width="29.5354" height="46" rx="6" fill="white"/>
<path d="M318.944 628.25V644H317.036V628.25H318.944Z" fill="#1D1B20"/>
<rect x="7" y="672" width="47.7778" height="46" rx="6" fill="#E6E0E9"/>
<path fill-rule="evenodd" clip-rule="evenodd" d="M38.6719 695.94C39.6019 695.94 40.0283 694.782 39.3202 694.179L30.8888 687L22.4575 694.179C21.7493 694.782 22.1757 695.94 23.1058 695.94H25.6388V702C25.6388 702.552 26.0865 703 26.6388 703H35.1388C35.6911 703 36.1388 702.552 36.1388 702V695.94H38.6719Z" stroke="#49454F" stroke-width="2"/>
<rect x="59.99" y="672" width="29.5354" height="46" rx="6" fill="white"/>
<path d="M79.259 700.441V702H71.1892V700.441H79.259ZM78.9617 692.249L71.6199 702H70.4612V700.605L77.7517 690.905H78.9617V692.249ZM78.1208 690.905V692.474H70.5432V690.905H78.1208Z" fill="#1D1B20"/>
<rect x="94.7375" y="672" width="29.5354" height="46" rx="6" fill="white"/>
<path d="M107.024 690.905L109.454 694.945L111.915 690.905H114.14L110.51 696.381L114.253 702H112.058L109.495 697.837L106.931 702H104.727L108.459 696.381L104.84 690.905H107.024Z" fill="#1D1B20"/>
<rect x="129.485" y="672" width="29.5354" height="46" rx="6" fill="white"/>
<path d="M144.642 700.646C145.093 700.646 145.51 700.554 145.893 700.37C146.276 700.185 146.59 699.932 146.836 699.611C147.083 699.283 147.223 698.91 147.257 698.493H149.062C149.027 699.149 148.805 699.761 148.395 700.329C147.992 700.889 147.462 701.344 146.806 701.692C146.149 702.034 145.428 702.205 144.642 702.205C143.808 702.205 143.08 702.058 142.458 701.764C141.843 701.47 141.33 701.067 140.92 700.554C140.517 700.042 140.212 699.454 140.007 698.791C139.809 698.121 139.71 697.413 139.71 696.668V696.237C139.71 695.492 139.809 694.788 140.007 694.125C140.212 693.455 140.517 692.864 140.92 692.351C141.33 691.838 141.843 691.435 142.458 691.141C143.08 690.847 143.808 690.7 144.642 690.7C145.51 690.7 146.269 690.878 146.918 691.233C147.568 691.582 148.077 692.061 148.446 692.669C148.822 693.271 149.027 693.954 149.062 694.72H147.257C147.223 694.262 147.093 693.848 146.867 693.479C146.648 693.11 146.348 692.816 145.965 692.597C145.589 692.372 145.148 692.259 144.642 692.259C144.061 692.259 143.572 692.375 143.176 692.607C142.786 692.833 142.475 693.141 142.243 693.53C142.017 693.913 141.853 694.34 141.75 694.812C141.655 695.277 141.607 695.752 141.607 696.237V696.668C141.607 697.153 141.655 697.632 141.75 698.104C141.846 698.575 142.007 699.002 142.232 699.385C142.465 699.768 142.776 700.076 143.166 700.308C143.562 700.534 144.054 700.646 144.642 700.646Z" fill="#1D1B20"/>
<rect x="164.232" y="672" width="29.5354" height="46" rx="6" fill="white"/>
<path d="M178.733 700.288L181.769 690.905H183.707L179.718 702H178.446L178.733 700.288ZM176.201 690.905L179.328 700.339L179.543 702H178.272L174.252 690.905H176.201Z" fill="#1D1B20"/>
<rect x="198.98" y="672" width="29.5354" height="46" rx="6" fill="white"/>
<path d="M209.287 686.25H211.194V699.847L211.03 702H209.287V686.25ZM218.69 696.36V696.576C218.69 697.382 218.594 698.131 218.403 698.821C218.211 699.505 217.931 700.1 217.562 700.605C217.193 701.111 216.742 701.504 216.208 701.785C215.675 702.065 215.063 702.205 214.373 702.205C213.669 702.205 213.05 702.085 212.517 701.846C211.991 701.6 211.546 701.248 211.184 700.79C210.822 700.332 210.531 699.778 210.312 699.129C210.101 698.479 209.954 697.748 209.872 696.935V695.991C209.954 695.171 210.101 694.436 210.312 693.787C210.531 693.137 210.822 692.583 211.184 692.125C211.546 691.661 211.991 691.309 212.517 691.069C213.043 690.823 213.655 690.7 214.353 690.7C215.05 690.7 215.668 690.837 216.208 691.11C216.749 691.377 217.2 691.76 217.562 692.259C217.931 692.758 218.211 693.356 218.403 694.053C218.594 694.744 218.69 695.513 218.69 696.36ZM216.783 696.576V696.36C216.783 695.807 216.731 695.287 216.629 694.802C216.526 694.31 216.362 693.879 216.137 693.51C215.911 693.134 215.614 692.84 215.245 692.628C214.875 692.409 214.421 692.3 213.881 692.3C213.402 692.3 212.985 692.382 212.63 692.546C212.281 692.71 211.984 692.932 211.738 693.212C211.492 693.486 211.29 693.8 211.133 694.156C210.982 694.504 210.87 694.867 210.794 695.243V697.714C210.904 698.192 211.082 698.654 211.328 699.098C211.581 699.536 211.916 699.895 212.333 700.175C212.756 700.455 213.279 700.595 213.901 700.595C214.414 700.595 214.852 700.493 215.214 700.288C215.583 700.076 215.88 699.785 216.106 699.416C216.338 699.047 216.509 698.62 216.619 698.134C216.728 697.649 216.783 697.129 216.783 696.576Z" fill="#1D1B20"/>
<rect x="233.728" y="672" width="29.5354" height="46" rx="6" fill="white"/>
<path d="M246.034 693.274V702H244.137V690.905H245.932L246.034 693.274ZM245.583 696.032L244.793 696.001C244.8 695.243 244.913 694.542 245.132 693.899C245.351 693.25 245.658 692.686 246.055 692.208C246.451 691.729 246.923 691.36 247.47 691.1C248.023 690.833 248.635 690.7 249.305 690.7C249.852 690.7 250.344 690.775 250.782 690.926C251.219 691.069 251.592 691.302 251.899 691.623C252.214 691.944 252.453 692.361 252.617 692.874C252.781 693.38 252.863 693.999 252.863 694.73V702H250.956V694.709C250.956 694.128 250.871 693.664 250.7 693.315C250.529 692.959 250.279 692.703 249.951 692.546C249.623 692.382 249.22 692.3 248.741 692.3C248.27 692.3 247.839 692.399 247.449 692.597C247.066 692.795 246.735 693.069 246.455 693.417C246.181 693.766 245.966 694.166 245.809 694.617C245.658 695.062 245.583 695.533 245.583 696.032Z" fill="#1D1B20"/>
<rect x="268.475" y="672" width="29.5354" height="46" rx="6" fill="white"/>
<path d="M277.367 693.11V702H275.46V690.905H277.265L277.367 693.11ZM276.978 696.032L276.096 696.001C276.103 695.243 276.202 694.542 276.393 693.899C276.584 693.25 276.868 692.686 277.244 692.208C277.62 691.729 278.088 691.36 278.649 691.1C279.209 690.833 279.859 690.7 280.597 690.7C281.117 690.7 281.595 690.775 282.033 690.926C282.47 691.069 282.85 691.298 283.171 691.613C283.492 691.927 283.742 692.331 283.919 692.823C284.097 693.315 284.186 693.91 284.186 694.607V702H282.289V694.699C282.289 694.118 282.19 693.653 281.992 693.305C281.8 692.956 281.527 692.703 281.171 692.546C280.816 692.382 280.399 692.3 279.92 692.3C279.36 692.3 278.892 692.399 278.516 692.597C278.14 692.795 277.839 693.069 277.613 693.417C277.388 693.766 277.224 694.166 277.121 694.617C277.025 695.062 276.978 695.533 276.978 696.032ZM284.166 694.986L282.894 695.376C282.901 694.768 283 694.183 283.191 693.623C283.39 693.062 283.673 692.563 284.042 692.125C284.418 691.688 284.88 691.343 285.427 691.09C285.974 690.83 286.599 690.7 287.303 690.7C287.898 690.7 288.424 690.779 288.882 690.936C289.347 691.093 289.737 691.336 290.051 691.664C290.373 691.985 290.615 692.399 290.779 692.905C290.943 693.411 291.025 694.012 291.025 694.709V702H289.118V694.689C289.118 694.067 289.019 693.585 288.821 693.243C288.629 692.895 288.356 692.652 288 692.515C287.652 692.372 287.235 692.3 286.75 692.3C286.333 692.3 285.963 692.372 285.642 692.515C285.321 692.659 285.051 692.857 284.832 693.11C284.613 693.356 284.446 693.64 284.33 693.961C284.22 694.282 284.166 694.624 284.166 694.986Z" fill="#1D1B20"/>
<rect x="303.222" y="672" width="47.7778" height="46" rx="6" fill="#E6E0E9"/>
<path fill-rule="evenodd" clip-rule="evenodd" d="M322.659 686H336.3C337.86 686 339.111 687.231 339.111 688.737V701.263C339.111 702.769 337.86 704 336.3 704H322.659C321.711 704 320.903 703.536 320.375 702.771L315.111 694.996L320.38 687.213C320.902 686.457 321.711 686 322.659 686ZM337.128 688.737C337.128 688.265 336.752 687.895 336.301 687.895H322.66C322.411 687.895 322.208 688.01 322.042 688.249L317.475 694.995L317.127 694.481V695.51L317.475 694.995L322.038 701.735C322.212 701.987 322.418 702.105 322.66 702.105H336.301C336.752 702.105 337.128 701.735 337.128 701.263V688.737Z" fill="#49454F"/>
<path fill-rule="evenodd" clip-rule="evenodd" d="M333.658 698.013L332.346 699.264L329.021 696.094L325.697 699.264L324.385 698.013L327.709 694.843L324.385 691.673L325.697 690.422L329.021 693.592L332.346 690.422L333.658 691.673L330.333 694.843L333.658 698.013Z" fill="#49454F"/>
<rect x="7" y="730" width="47.7778" height="46" rx="23" fill="#E8DEF8"/>
<path d="M19.3196 755.067H17.7952C17.7997 754.644 17.8362 754.288 17.9045 754.001C17.9729 753.709 18.0868 753.445 18.2463 753.208C18.4104 752.971 18.6269 752.72 18.8958 752.456C19.1054 752.256 19.2945 752.066 19.4631 751.889C19.6318 751.706 19.7662 751.515 19.8665 751.314C19.9667 751.109 20.0168 750.875 20.0168 750.61C20.0168 750.323 19.969 750.079 19.8733 749.879C19.7776 749.678 19.6363 749.526 19.4495 749.421C19.2672 749.316 19.0393 749.264 18.7659 749.264C18.538 749.264 18.3238 749.309 18.1233 749.4C17.9228 749.487 17.761 749.624 17.6379 749.811C17.5149 749.993 17.4488 750.234 17.4397 750.535H15.7922C15.8014 749.961 15.9381 749.478 16.2024 749.086C16.4667 748.694 16.8222 748.4 17.2688 748.204C17.7154 748.008 18.2144 747.91 18.7659 747.91C19.3765 747.91 19.8984 748.015 20.3313 748.225C20.7642 748.43 21.0946 748.73 21.3225 749.127C21.5549 749.519 21.6711 749.993 21.6711 750.549C21.6711 750.95 21.5914 751.314 21.4319 751.643C21.2724 751.966 21.065 752.269 20.8098 752.552C20.5546 752.83 20.2789 753.108 19.9827 753.386C19.7275 753.618 19.5543 753.871 19.4631 754.145C19.372 754.413 19.3241 754.721 19.3196 755.067ZM17.6584 757.2C17.6584 756.954 17.7428 756.747 17.9114 756.578C18.08 756.405 18.3101 756.318 18.6018 756.318C18.8935 756.318 19.1236 756.405 19.2922 756.578C19.4609 756.747 19.5452 756.954 19.5452 757.2C19.5452 757.446 19.4609 757.656 19.2922 757.829C19.1236 757.998 18.8935 758.082 18.6018 758.082C18.3101 758.082 18.08 757.998 17.9114 757.829C17.7428 757.656 17.6584 757.446 17.6584 757.2ZM27.4475 748.013V758H25.8V749.968L23.3596 750.795V749.435L27.2493 748.013H27.4475ZM37.5784 756.688V758H30.9065V756.872L34.1467 753.338C34.5022 752.937 34.7825 752.59 34.9875 752.299C35.1926 752.007 35.3362 751.745 35.4182 751.513C35.5048 751.276 35.5481 751.046 35.5481 750.822C35.5481 750.508 35.4889 750.232 35.3704 749.995C35.2564 749.754 35.0878 749.564 34.8645 749.428C34.6412 749.286 34.37 749.216 34.051 749.216C33.6819 749.216 33.372 749.296 33.1213 749.455C32.8707 749.615 32.6816 749.836 32.554 750.118C32.4264 750.396 32.3625 750.715 32.3625 751.075H30.7151C30.7151 750.496 30.8472 749.968 31.1116 749.489C31.3759 749.006 31.7587 748.623 32.26 748.341C32.7613 748.054 33.3652 747.91 34.0715 747.91C34.7369 747.91 35.302 748.022 35.7668 748.245C36.2317 748.468 36.5849 748.785 36.8264 749.195C37.0725 749.605 37.1956 750.091 37.1956 750.651C37.1956 750.961 37.1454 751.269 37.0452 751.574C36.9449 751.88 36.8014 752.185 36.6145 752.49C36.4322 752.791 36.2157 753.094 35.9651 753.399C35.7144 753.7 35.4387 754.006 35.1379 754.315L32.9846 756.688H37.5784ZM40.7981 752.278H41.7825C42.1653 752.278 42.482 752.212 42.7327 752.08C42.9879 751.948 43.177 751.766 43.3 751.533C43.4231 751.301 43.4846 751.034 43.4846 750.733C43.4846 750.419 43.4277 750.15 43.3137 749.927C43.2043 749.699 43.0357 749.523 42.8079 749.4C42.5846 749.277 42.2997 749.216 41.9534 749.216C41.6617 749.216 41.3974 749.275 41.1604 749.394C40.928 749.507 40.7434 749.672 40.6067 749.886C40.47 750.095 40.4016 750.346 40.4016 750.638H38.7473C38.7473 750.109 38.8863 749.64 39.1643 749.229C39.4423 748.819 39.8206 748.498 40.2991 748.266C40.7821 748.029 41.3245 747.91 41.926 747.91C42.5686 747.91 43.1292 748.017 43.6077 748.231C44.0907 748.441 44.4667 748.756 44.7356 749.175C45.0045 749.594 45.1389 750.114 45.1389 750.733C45.1389 751.016 45.0728 751.303 44.9407 751.595C44.8085 751.886 44.6125 752.153 44.3528 752.395C44.093 752.632 43.7694 752.825 43.3821 752.976C42.9947 753.121 42.5458 753.194 42.0354 753.194H40.7981V752.278ZM40.7981 753.563V752.661H42.0354C42.6187 752.661 43.1155 752.729 43.5256 752.866C43.9403 753.003 44.2776 753.192 44.5374 753.434C44.7971 753.671 44.9862 753.942 45.1047 754.247C45.2278 754.552 45.2893 754.876 45.2893 755.218C45.2893 755.683 45.205 756.097 45.0364 756.462C44.8723 756.822 44.6376 757.127 44.3323 757.378C44.0269 757.629 43.6692 757.818 43.259 757.945C42.8534 758.073 42.4114 758.137 41.9329 758.137C41.5045 758.137 41.0943 758.077 40.7024 757.959C40.3105 757.84 39.9596 757.665 39.6497 757.433C39.3398 757.196 39.0937 756.902 38.9114 756.551C38.7336 756.195 38.6448 755.785 38.6448 755.32H40.2922C40.2922 755.617 40.3606 755.879 40.4973 756.106C40.6386 756.33 40.8346 756.505 41.0852 756.633C41.3404 756.76 41.6321 756.824 41.9602 756.824C42.3066 756.824 42.6051 756.763 42.8557 756.64C43.1064 756.517 43.2978 756.334 43.4299 756.093C43.5667 755.851 43.635 755.56 43.635 755.218C43.635 754.83 43.5598 754.516 43.4094 754.274C43.259 754.033 43.0448 753.855 42.7668 753.741C42.4889 753.623 42.1607 753.563 41.7825 753.563H40.7981Z" fill="#4A4459"/>
<rect x="59.99" y="730" width="29.5354" height="46" rx="6" fill="#E6E0E9"/>
<path d="M75.8547 761.744V763.272C75.8547 763.894 75.6975 764.55 75.3831 765.241C75.0686 765.938 74.6277 766.519 74.0603 766.984L72.9836 766.235C73.2024 765.935 73.387 765.627 73.5374 765.312C73.6877 765.005 73.8005 764.684 73.8757 764.349C73.9578 764.021 73.9988 763.672 73.9988 763.303V761.744H75.8547Z" fill="#49454F"/>
<path fill-rule="evenodd" clip-rule="evenodd" d="M74.7578 741.2C72.1112 741.2 69.9578 743.354 69.9578 746C69.9578 748.647 72.1112 750.8 74.7578 750.8C77.4044 750.8 79.5578 748.647 79.5578 746C79.5578 743.354 77.4044 741.2 74.7578 741.2ZM74.7576 752C71.4492 752 68.7576 749.308 68.7576 746C68.7576 742.692 71.4492 740 74.7576 740C78.066 740 80.7576 742.692 80.7576 746C80.7576 749.308 78.066 752 74.7576 752Z" fill="#49454F"/>
<path d="M76.4553 747.579C76.6476 747.361 76.9797 747.341 77.1965 747.533C77.4134 747.726 77.4334 748.057 77.2415 748.274C76.61 748.988 75.7013 749.397 74.7483 749.397C73.7952 749.397 72.8866 748.988 72.2551 748.274C72.0631 748.057 72.0832 747.726 72.3 747.533C72.5172 747.341 72.849 747.362 73.0413 747.579C73.4733 748.067 74.0958 748.348 74.7483 748.348C75.4008 748.348 76.0233 748.067 76.4553 747.579ZM72.6487 744.2C73.1458 744.2 73.5491 744.603 73.5491 745.101C73.549 745.598 73.1458 746.001 72.6487 746.001C72.1515 746.001 71.7484 745.598 71.7483 745.101C71.7483 744.603 72.1515 744.2 72.6487 744.2ZM76.8489 744.2C77.346 744.2 77.7493 744.603 77.7493 745.101C77.7492 745.598 77.346 746.001 76.8489 746.001C76.3517 746.001 75.9486 745.598 75.9485 745.101C75.9485 744.603 76.3517 744.2 76.8489 744.2Z" fill="#49454F"/>
<rect x="94.7373" y="730" width="29.5354" height="46" rx="6" fill="white"/>
<path d="M109.505 763C108.138 763 106.847 762.737 105.63 762.212C104.413 761.688 103.351 760.971 102.442 760.062C101.534 759.154 100.817 758.092 100.292 756.875C99.7674 755.658 99.5049 754.367 99.5049 753C99.5049 751.617 99.7674 750.321 100.292 749.113C100.817 747.904 101.534 746.846 102.442 745.938C103.351 745.029 104.413 744.312 105.63 743.788C106.847 743.262 108.138 743 109.505 743C110.888 743 112.184 743.262 113.392 743.788C114.601 744.312 115.659 745.029 116.567 745.938C117.476 746.846 118.192 747.904 118.717 749.113C119.242 750.321 119.505 751.617 119.505 753C119.505 754.367 119.242 755.658 118.717 756.875C118.192 758.092 117.476 759.154 116.567 760.062C115.659 760.971 114.601 761.688 113.392 762.212C112.184 762.737 110.888 763 109.505 763ZM109.505 760.95C109.938 760.35 110.313 759.725 110.63 759.075C110.947 758.425 111.205 757.733 111.405 757H107.605C107.805 757.733 108.063 758.425 108.38 759.075C108.697 759.725 109.072 760.35 109.505 760.95ZM106.905 760.55C106.605 760 106.342 759.429 106.117 758.838C105.892 758.246 105.705 757.633 105.555 757H102.605C103.088 757.833 103.692 758.558 104.417 759.175C105.142 759.792 105.972 760.25 106.905 760.55ZM112.105 760.55C113.038 760.25 113.867 759.792 114.592 759.175C115.317 758.558 115.922 757.833 116.405 757H113.455C113.305 757.633 113.117 758.246 112.892 758.838C112.667 759.429 112.405 760 112.105 760.55ZM101.755 755H105.155C105.105 754.667 105.067 754.337 105.042 754.012C105.017 753.688 105.005 753.35 105.005 753C105.005 752.65 105.017 752.312 105.042 751.988C105.067 751.663 105.105 751.333 105.155 751H101.755C101.672 751.333 101.609 751.663 101.567 751.988C101.526 752.312 101.505 752.65 101.505 753C101.505 753.35 101.526 753.688 101.567 754.012C101.609 754.337 101.672 754.667 101.755 755ZM107.155 755H111.855C111.905 754.667 111.942 754.337 111.967 754.012C111.992 753.688 112.005 753.35 112.005 753C112.005 752.65 111.992 752.312 111.967 751.988C111.942 751.663 111.905 751.333 111.855 751H107.155C107.105 751.333 107.067 751.663 107.042 751.988C107.017 752.312 107.005 752.65 107.005 753C107.005 753.35 107.017 753.688 107.042 754.012C107.067 754.337 107.105 754.667 107.155 755ZM113.855 755H117.255C117.338 754.667 117.401 754.337 117.442 754.012C117.484 753.688 117.505 753.35 117.505 753C117.505 752.65 117.484 752.312 117.442 751.988C117.401 751.663 117.338 751.333 117.255 751H113.855C113.905 751.333 113.942 751.663 113.967 751.988C113.992 752.312 114.005 752.65 114.005 753C114.005 753.35 113.992 753.688 113.967 754.012C113.942 754.337 113.905 754.667 113.855 755ZM113.455 749H116.405C115.922 748.167 115.317 747.442 114.592 746.825C113.867 746.208 113.038 745.75 112.105 745.45C112.405 746 112.667 746.571 112.892 747.162C113.117 747.754 113.305 748.367 113.455 749ZM107.605 749H111.405C111.205 748.267 110.947 747.575 110.63 746.925C110.313 746.275 109.938 745.65 109.505 745.05C109.072 745.65 108.697 746.275 108.38 746.925C108.063 747.575 107.805 748.267 107.605 749ZM102.605 749H105.555C105.705 748.367 105.892 747.754 106.117 747.162C106.342 746.571 106.605 746 106.905 745.45C105.972 745.75 105.142 746.208 104.417 746.825C103.692 747.442 103.088 748.167 102.605 749Z" fill="#1D1B20"/>
<path fill-rule="evenodd" clip-rule="evenodd" d="M129.485 736C129.485 732.686 132.171 730 135.485 730H257.263C260.576 730 263.263 732.686 263.263 736V770C263.263 773.314 260.576 776 257.263 776H216.281H135.485C132.171 776 129.485 773.314 129.485 770V736Z" fill="white"/>
<rect x="268.475" y="730" width="29.5354" height="46" rx="6" fill="#E6E0E9"/>
<path d="M281.95 759.495C281.95 759.174 282.05 758.904 282.248 758.685C282.453 758.459 282.747 758.347 283.13 758.347C283.512 758.347 283.803 758.459 284.001 758.685C284.206 758.904 284.309 759.174 284.309 759.495C284.309 759.81 284.206 760.076 284.001 760.295C283.803 760.514 283.512 760.623 283.13 760.623C282.747 760.623 282.453 760.514 282.248 760.295C282.05 760.076 281.95 759.81 281.95 759.495Z" fill="#49454F"/>
<rect x="303.222" y="730" width="47.7778" height="46" rx="23" fill="#D0BCFF"/>
<path d="M324.111 759L318.111 753L324.111 747L325.511 748.4L321.911 752H334.111V748H336.111V754H321.911L325.511 757.6L324.111 759Z" fill="#4F378A"/>
<rect x="7" y="513" width="26" height="26" rx="13" fill="#EADDFF"/>
<path d="M19.4 526L24 530.6L22.6 532L16.6 526L22.6 520L24 521.4L19.4 526Z" fill="#4F378A"/>
<path d="M68.1429 521H70.7143V531.286H68.1429V521ZM63.8571 521H58.7143C57.6857 521 57 521.857 57 522.714V529.571C57 530.429 57.6857 531.286 58.7143 531.286H63.8571C64.8857 531.286 65.5714 530.429 65.5714 529.571V526.143H63V528.714H59.5714V523.571H65.5714V522.714C65.5714 521.857 64.8857 521 63.8571 521ZM81 523.571V521H73.2857V531.286H75.8571V527.857H79.2857V525.286H75.8571V523.571H81Z" fill="#1D1B20"/>
<path d="M112.583 536L112.183 532.8C111.967 532.717 111.762 532.617 111.571 532.5C111.379 532.383 111.192 532.258 111.008 532.125L108.033 533.375L105.283 528.625L107.858 526.675C107.842 526.558 107.833 526.446 107.833 526.338V525.663C107.833 525.554 107.842 525.442 107.858 525.325L105.283 523.375L108.033 518.625L111.008 519.875C111.192 519.742 111.383 519.617 111.583 519.5C111.783 519.383 111.983 519.283 112.183 519.2L112.583 516H118.083L118.483 519.2C118.7 519.283 118.904 519.383 119.096 519.5C119.287 519.617 119.475 519.742 119.658 519.875L122.633 518.625L125.383 523.375L122.808 525.325C122.825 525.442 122.833 525.554 122.833 525.663V526.338C122.833 526.446 122.817 526.558 122.783 526.675L125.358 528.625L122.608 533.375L119.658 532.125C119.475 532.258 119.283 532.383 119.083 532.5C118.883 532.617 118.683 532.717 118.483 532.8L118.083 536H112.583ZM115.383 529.5C116.35 529.5 117.175 529.158 117.858 528.475C118.542 527.792 118.883 526.967 118.883 526C118.883 525.033 118.542 524.208 117.858 523.525C117.175 522.842 116.35 522.5 115.383 522.5C114.4 522.5 113.571 522.842 112.896 523.525C112.221 524.208 111.883 525.033 111.883 526C111.883 526.967 112.221 527.792 112.896 528.475C113.571 529.158 114.4 529.5 115.383 529.5Z" fill="#1D1B20"/>
<path d="M161.667 536L160.667 533H153.667C153.117 533 152.646 532.804 152.254 532.413C151.863 532.021 151.667 531.55 151.667 531V518C151.667 517.45 151.863 516.979 152.254 516.588C152.646 516.196 153.117 516 153.667 516H159.667L160.542 519H169.667C170.25 519 170.729 519.188 171.104 519.562C171.479 519.938 171.667 520.417 171.667 521V534C171.667 534.55 171.479 535.021 171.104 535.413C170.729 535.804 170.25 536 169.667 536H161.667ZM156.817 528.6C157.967 528.6 158.913 528.229 159.654 527.488C160.396 526.746 160.767 525.783 160.767 524.6C160.767 524.467 160.763 524.346 160.754 524.238C160.746 524.129 160.725 524.017 160.692 523.9H156.742V525.45H158.967C158.833 525.917 158.579 526.279 158.204 526.538C157.829 526.796 157.375 526.925 156.842 526.925C156.192 526.925 155.633 526.692 155.167 526.225C154.7 525.758 154.467 525.183 154.467 524.5C154.467 523.817 154.7 523.242 155.167 522.775C155.633 522.308 156.192 522.075 156.842 522.075C157.142 522.075 157.425 522.129 157.692 522.238C157.958 522.346 158.2 522.508 158.417 522.725L159.642 521.55C159.292 521.183 158.871 520.9 158.379 520.7C157.888 520.5 157.367 520.4 156.817 520.4C155.7 520.4 154.746 520.796 153.954 521.588C153.163 522.379 152.767 523.35 152.767 524.5C152.767 525.65 153.163 526.621 153.954 527.413C154.746 528.204 155.7 528.6 156.817 528.6ZM163.517 529.1L164.067 528.575C163.833 528.292 163.621 528.017 163.429 527.75C163.238 527.483 163.05 527.2 162.867 526.9L163.517 529.1ZM164.767 527.825C165.233 527.275 165.588 526.75 165.829 526.25C166.071 525.75 166.233 525.358 166.317 525.075H162.342L162.642 526.125H163.642C163.775 526.375 163.933 526.646 164.117 526.938C164.3 527.229 164.517 527.525 164.767 527.825ZM162.667 535H169.667C169.967 535 170.208 534.904 170.392 534.712C170.575 534.521 170.667 534.283 170.667 534V521C170.667 520.7 170.575 520.458 170.392 520.275C170.208 520.092 169.967 520 169.667 520H160.842L162.017 524.05H163.992V523H165.017V524.05H168.667V525.075H167.392C167.225 525.708 166.975 526.325 166.642 526.925C166.308 527.525 165.917 528.083 165.467 528.6L168.192 531.275L167.467 532L164.767 529.3L163.867 530.225L164.667 533L162.667 535Z" fill="#1D1B20"/>
<path d="M217.25 529.7V519.987C217.25 518.196 215.804 516.75 214.012 516.75H201.987C200.196 516.75 198.75 518.196 198.75 519.987V532.012C198.75 533.804 200.196 535.25 201.987 535.25H211.7L217.25 529.7ZM201.987 533.4C201.222 533.4 200.6 532.778 200.6 532.012V519.987C200.6 519.222 201.222 518.6 201.987 518.6H214.012C214.778 518.6 215.4 519.222 215.4 519.987V528.775H214.012C212.221 528.775 210.775 530.221 210.775 532.012V533.4H201.987ZM205.931 523.948C205.688 523.09 204.796 522.586 203.938 522.83C203.081 523.074 202.576 523.965 202.82 524.831C202.887 525.067 203.005 525.277 203.156 525.453L205.965 524.663C206.007 524.427 205.999 524.184 205.931 523.948ZM211.717 522.317C211.481 521.459 210.582 520.955 209.724 521.198C208.866 521.442 208.362 522.334 208.605 523.2C208.673 523.435 208.79 523.645 208.942 523.822L211.75 523.032C211.792 522.796 211.784 522.552 211.717 522.317ZM212.541 525.21L203.627 527.724C204.83 529.313 206.915 530.087 208.942 529.515C210.968 528.943 212.339 527.186 212.541 525.21Z" fill="#1D1B20"/>
<rect x="252" y="514" width="1" height="24" fill="#CAC4D0"/>
<path d="M279 528C278.45 528 277.979 527.804 277.588 527.413C277.196 527.021 277 526.55 277 526C277 525.45 277.196 524.979 277.588 524.588C277.979 524.196 278.45 524 279 524C279.55 524 280.021 524.196 280.413 524.588C280.804 524.979 281 525.45 281 526C281 526.55 280.804 527.021 280.413 527.413C280.021 527.804 279.55 528 279 528ZM285 528C284.45 528 283.979 527.804 283.588 527.413C283.196 527.021 283 526.55 283 526C283 525.45 283.196 524.979 283.588 524.588C283.979 524.196 284.45 524 285 524C285.55 524 286.021 524.196 286.413 524.588C286.804 524.979 287 525.45 287 526C287 526.55 286.804 527.021 286.413 527.413C286.021 527.804 285.55 528 285 528ZM291 528C290.45 528 289.979 527.804 289.588 527.413C289.196 527.021 289 526.55 289 526C289 525.45 289.196 524.979 289.588 524.588C289.979 524.196 290.45 524 291 524C291.55 524 292.021 524.196 292.413 524.588C292.804 524.979 293 525.45 293 526C293 526.55 292.804 527.021 292.413 527.413C292.021 527.804 291.55 528 291 528Z" fill="#1D1B20"/>
<path d="M339 528C338.167 528 337.458 527.708 336.875 527.125C336.292 526.542 336 525.833 336 525V519C336 518.167 336.292 517.458 336.875 516.875C337.458 516.292 338.167 516 339 516C339.833 516 340.542 516.292 341.125 516.875C341.708 517.458 342 518.167 342 519V525C342 525.833 341.708 526.542 341.125 527.125C340.542 527.708 339.833 528 339 528ZM338 535V531.925C336.267 531.692 334.833 530.917 333.7 529.6C332.567 528.283 332 526.75 332 525H334C334 526.383 334.488 527.562 335.463 528.538C336.438 529.513 337.617 530 339 530C340.383 530 341.562 529.513 342.538 528.538C343.513 527.562 344 526.383 344 525H346C346 526.75 345.433 528.283 344.3 529.6C343.167 530.917 341.733 531.692 340 531.925V535H338Z" fill="#1D1B20"/>
<path d="M29 213C29 208.582 32.5817 205 37 205H315C319.418 205 323 208.582 323 213V259C323 263.418 319.418 267 315 267H37C32.5817 267 29 263.418 29 259V213Z" fill="white"/>
<path d="M69.3031 227.082V244.758H67.1156V227.082H69.3031ZM57.7211 228.527V232.941H61.9984V228.527H64.1469V240.598H55.5531V228.527H57.7211ZM57.7211 238.82H61.9984V234.641H57.7211V238.82ZM81.9148 228V235.363H73.3992V228H81.9148ZM75.5477 229.738V233.664H79.7664V229.738H75.5477ZM87.1687 227.082V236.066H85.0203V227.082H87.1687ZM87.1687 236.867V241.438H77.657V242.863H87.6961V244.582H75.5086V239.875H85.0594V238.566H75.4891V236.867H87.1687ZM105.171 227.102V240.129H103.003V233.625H99.4484V237.258H91.1867V228.254H93.3547V231.105H97.3V228.254H99.4484V231.867H103.003V227.102H105.171ZM105.562 242.629V244.387H93.5305V238.84H95.7375V242.629H105.562ZM93.3547 235.539H97.3V232.785H93.3547V235.539ZM123.584 229.445V231.203H108.994V229.445H115.224V227.316H117.373V229.445H123.584ZM124.404 241.086V242.844H108.271V241.086H115.224V238.918C112.168 238.674 110.322 237.453 110.341 235.5C110.322 233.371 112.607 232.102 116.298 232.102C119.931 232.102 122.236 233.371 122.236 235.5C122.236 237.443 120.38 238.664 117.373 238.898V241.086H124.404ZM116.298 233.801C113.896 233.82 112.548 234.387 112.568 235.5C112.548 236.633 113.896 237.199 116.298 237.219C118.662 237.199 120.009 236.633 120.009 235.5C120.009 234.387 118.662 233.82 116.298 233.801Z" fill="#757575"/>
<path d="M29 292C29 287.582 32.5817 284 37 284H315C319.418 284 323 287.582 323 292V338C323 342.418 319.418 346 315 346H37C32.5817 346 29 342.418 29 338V292Z" fill="white"/>
<path d="M37 284V284.5H315V284V283.5H37V284ZM323 292H322.5V338H323H323.5V292H323ZM315 346V345.5H37V346V346.5H315V346ZM29 338H29.5V292H29H28.5V338H29ZM37 346V345.5C32.8579 345.5 29.5 342.142 29.5 338H29H28.5C28.5 342.694 32.3056 346.5 37 346.5V346ZM323 338H322.5C322.5 342.142 319.142 345.5 315 345.5V346V346.5C319.694 346.5 323.5 342.694 323.5 338H323ZM315 284V284.5C319.142 284.5 322.5 287.858 322.5 292H323H323.5C323.5 287.306 319.694 283.5 315 283.5V284ZM37 284V283.5C32.3056 283.5 28.5 287.306 28.5 292H29H29.5C29.5 287.858 32.8579 284.5 37 284.5V284Z" fill="#32C375"/>
<path d="M67.7449 323.758H65.5574V306.082H67.7449V323.758ZM56.1629 311.941H60.4402V307.527H62.5887V319.598H53.9949V307.527H56.1629V311.941ZM60.4402 317.82V313.641H56.1629V317.82H60.4402ZM80.3566 314.363H71.841V307H80.3566V314.363ZM73.9895 312.664H78.2082V308.738H73.9895V312.664ZM85.6105 315.066H83.4621V306.082H85.6105V315.066ZM85.6105 320.438H76.0988V321.863H86.1379V323.582H73.9504V318.875H83.5012V317.566H73.9309V315.867H85.6105V320.438ZM103.613 319.129H101.445V312.625H97.8902V316.258H89.6285V307.254H91.7965V310.105H95.7418V307.254H97.8902V310.867H101.445V306.102H103.613V319.129ZM104.004 323.387H91.9723V317.84H94.1793V321.629H104.004V323.387ZM95.7418 314.539V311.785H91.7965V314.539H95.7418ZM122.025 310.203H107.436V308.445H113.666V306.316H115.814V308.445H122.025V310.203ZM122.846 321.844H106.713V320.086H113.666V317.918C112.644 317.833 111.765 317.648 111.029 317.361C110.3 317.068 109.74 316.681 109.35 316.199C108.965 315.711 108.777 315.145 108.783 314.5C108.777 313.797 109.011 313.191 109.486 312.684C109.968 312.169 110.658 311.779 111.557 311.512C112.455 311.238 113.516 311.102 114.74 311.102C115.945 311.102 116.993 311.238 117.885 311.512C118.783 311.779 119.473 312.169 119.955 312.684C120.437 313.191 120.678 313.797 120.678 314.5C120.678 315.138 120.482 315.701 120.092 316.189C119.701 316.671 119.141 317.059 118.412 317.352C117.683 317.638 116.817 317.824 115.814 317.908V320.086H122.846V321.844ZM114.74 312.801C113.523 312.814 112.595 312.964 111.957 313.25C111.319 313.53 111.003 313.947 111.01 314.5C111.003 315.06 111.319 315.483 111.957 315.77C112.595 316.056 113.523 316.206 114.74 316.219C115.938 316.206 116.856 316.056 117.494 315.77C118.132 315.483 118.451 315.06 118.451 314.5C118.451 313.947 118.132 313.53 117.494 313.25C116.856 312.964 115.938 312.814 114.74 312.801ZM143.929 311.238H146.311V313.035H143.929V318.035H141.761V306.102H143.929V311.238ZM129.788 315.926C131.429 315.926 132.913 315.91 134.241 315.877V314.793C133.251 314.669 132.47 314.383 131.897 313.934C131.324 313.478 131.038 312.905 131.038 312.215C131.038 311.681 131.214 311.215 131.565 310.818C131.917 310.421 132.415 310.118 133.059 309.91C133.704 309.695 134.449 309.591 135.296 309.598C136.149 309.591 136.894 309.695 137.532 309.91C138.177 310.118 138.675 310.421 139.026 310.818C139.378 311.215 139.554 311.681 139.554 312.215C139.554 312.898 139.274 313.465 138.714 313.914C138.154 314.363 137.386 314.653 136.409 314.783V315.789C138.043 315.717 139.521 315.594 140.843 315.418L141.018 316.922C139.345 317.215 137.62 317.407 135.843 317.498C134.072 317.583 132.132 317.625 130.022 317.625L129.788 315.926ZM143.929 323.738H141.761V320.496H132.014V318.797H143.929V323.738ZM140.374 309.09H130.237V307.488H134.241V305.945H136.409V307.488H140.374V309.09ZM135.296 311.062C134.606 311.049 134.068 311.144 133.684 311.346C133.307 311.548 133.121 311.837 133.128 312.215C133.115 312.579 133.304 312.869 133.694 313.084C134.085 313.292 134.619 313.393 135.296 313.387C135.973 313.393 136.507 313.292 136.897 313.084C137.288 312.869 137.483 312.579 137.483 312.215C137.483 311.837 137.291 311.548 136.907 311.346C136.523 311.144 135.986 311.049 135.296 311.062ZM162.536 318.855H160.349V306.102H162.536V318.855ZM163.025 323.387H150.857V317.566H153.044V321.629H163.025V323.387ZM152.907 307.254C153.793 307.254 154.597 307.446 155.32 307.83C156.042 308.208 156.612 308.732 157.029 309.402C157.445 310.073 157.654 310.828 157.654 311.668C157.654 312.521 157.445 313.286 157.029 313.963C156.612 314.633 156.042 315.158 155.32 315.535C154.597 315.913 153.793 316.102 152.907 316.102C152.015 316.102 151.205 315.913 150.476 315.535C149.753 315.158 149.183 314.633 148.767 313.963C148.35 313.286 148.142 312.521 148.142 311.668C148.142 310.828 148.35 310.073 148.767 309.402C149.183 308.732 149.753 308.208 150.476 307.83C151.205 307.446 152.015 307.254 152.907 307.254ZM152.907 309.148C152.406 309.148 151.954 309.253 151.55 309.461C151.146 309.669 150.831 309.965 150.603 310.35C150.375 310.734 150.264 311.173 150.271 311.668C150.264 312.176 150.375 312.622 150.603 313.006C150.831 313.39 151.146 313.686 151.55 313.895C151.954 314.103 152.406 314.207 152.907 314.207C153.396 314.207 153.838 314.103 154.236 313.895C154.633 313.686 154.945 313.39 155.173 313.006C155.407 312.622 155.525 312.176 155.525 311.668C155.525 311.173 155.407 310.734 155.173 310.35C154.945 309.965 154.633 309.669 154.236 309.461C153.838 309.253 153.396 309.148 152.907 309.148Z" fill="#757575"/>
<path d="M42.4551 372.318H40.8145V359.062H42.4551V372.318ZM33.7686 363.456H36.9766V360.146H38.5879V369.198H32.1426V360.146H33.7686V363.456ZM36.9766 367.865V364.73H33.7686V367.865H36.9766ZM51.9139 365.272H45.5271V359.75H51.9139V365.272ZM47.1385 363.998H50.3025V361.054H47.1385V363.998ZM55.8543 365.8H54.243V359.062H55.8543V365.8ZM55.8543 369.828H48.7205V370.897H56.2498V372.187H47.1092V368.656H54.2723V367.675H47.0945V366.4H55.8543V369.828ZM69.3561 368.847H67.7301V363.969H65.0641V366.693H58.8678V359.94H60.4937V362.079H63.4527V359.94H65.0641V362.65H67.7301V359.076H69.3561V368.847ZM69.649 372.04H60.6256V367.88H62.2809V370.722H69.649V372.04ZM63.4527 365.404V363.339H60.4937V365.404H63.4527ZM83.1654 362.152H72.223V360.834H76.8959V359.237H78.5072V360.834H83.1654V362.152ZM83.7807 370.883H71.6811V369.564H76.8959V367.938C76.1293 367.875 75.4701 367.736 74.9184 367.521C74.3715 367.301 73.9516 367.011 73.6586 366.649C73.3705 366.283 73.2289 365.858 73.2338 365.375C73.2289 364.848 73.4047 364.394 73.7611 364.013C74.1225 363.627 74.64 363.334 75.3139 363.134C75.9877 362.929 76.7836 362.826 77.7016 362.826C78.6049 362.826 79.391 362.929 80.06 363.134C80.7338 363.334 81.2514 363.627 81.6127 364.013C81.974 364.394 82.1547 364.848 82.1547 365.375C82.1547 365.854 82.0082 366.276 81.7152 366.642C81.4223 367.003 81.0023 367.294 80.4555 367.514C79.9086 367.729 79.2592 367.868 78.5072 367.931V369.564H83.7807V370.883ZM77.7016 364.101C76.7885 364.11 76.0927 364.223 75.6142 364.438C75.1356 364.647 74.8988 364.96 74.9037 365.375C74.8988 365.795 75.1356 366.112 75.6142 366.327C76.0927 366.542 76.7885 366.654 77.7016 366.664C78.6 366.654 79.2885 366.542 79.767 366.327C80.2455 366.112 80.4848 365.795 80.4848 365.375C80.4848 364.96 80.2455 364.647 79.767 364.438C79.2885 364.223 78.6 364.11 77.7016 364.101ZM95.466 364.232H97.4289V365.595H95.466V372.274H93.84V359.062H95.466V364.232ZM91.965 360.438C91.965 364.784 89.9582 367.943 85.9445 369.916L85.0217 368.656C86.633 367.855 87.8757 366.886 88.7497 365.749C89.6286 364.611 90.1511 363.29 90.3171 361.786H85.7395V360.438H91.965ZM106.268 359.486C106.932 359.486 107.531 359.616 108.063 359.875C108.595 360.128 109.012 360.482 109.315 360.937C109.623 361.391 109.779 361.903 109.784 362.475C109.779 363.051 109.623 363.566 109.315 364.02C109.012 364.474 108.595 364.828 108.063 365.082C107.531 365.336 106.932 365.463 106.268 365.463C105.599 365.463 104.996 365.336 104.459 365.082C103.927 364.828 103.51 364.474 103.207 364.02C102.904 363.566 102.753 363.051 102.753 362.475C102.753 361.903 102.904 361.391 103.207 360.937C103.51 360.482 103.929 360.128 104.467 359.875C105.004 359.616 105.604 359.486 106.268 359.486ZM106.268 360.834C105.897 360.834 105.565 360.902 105.272 361.039C104.979 361.171 104.75 361.361 104.584 361.61C104.418 361.854 104.335 362.143 104.335 362.475C104.335 362.812 104.418 363.107 104.584 363.361C104.75 363.61 104.979 363.803 105.272 363.939C105.565 364.076 105.897 364.145 106.268 364.145C106.639 364.145 106.971 364.076 107.264 363.939C107.557 363.803 107.787 363.61 107.953 363.361C108.119 363.107 108.202 362.812 108.202 362.475C108.202 362.143 108.119 361.854 107.953 361.61C107.787 361.361 107.557 361.171 107.264 361.039C106.971 360.902 106.639 360.834 106.268 360.834ZM113.549 365.756H111.908V359.062H113.549V365.756ZM113.549 369.784H106.386V370.854H113.944V372.143H104.789V368.583H111.923V367.602H104.76V366.327H113.549V369.784ZM126.933 372.304H125.307V359.062H126.933V372.304ZM121.015 363.266C121.015 363.944 121.15 364.618 121.418 365.287C121.687 365.956 122.075 366.559 122.583 367.096C123.09 367.633 123.691 368.046 124.384 368.334L123.491 369.579C122.744 369.267 122.089 368.8 121.528 368.18C120.971 367.56 120.537 366.842 120.224 366.027C119.921 366.891 119.487 367.655 118.921 368.319C118.359 368.979 117.7 369.472 116.943 369.799L116.064 368.539C116.748 368.236 117.341 367.807 117.844 367.25C118.347 366.688 118.73 366.061 118.994 365.368C119.257 364.674 119.389 363.974 119.389 363.266V362.577H116.474V361.273H119.389V359.34H121.001V361.273H123.857V362.577H121.015V363.266ZM139.79 362.328H141.636V363.676H139.79V366.796H138.164V359.062H139.79V362.328ZM132.847 368.466H138.164V367.323H139.79V372.143H131.236V367.323H132.847V368.466ZM138.164 370.854V369.726H132.847V370.854H138.164ZM137.212 361.596H129.361V360.292H132.481V358.959H134.107V360.292H137.212V361.596ZM133.287 362.05C133.921 362.05 134.483 362.147 134.971 362.343C135.459 362.533 135.838 362.804 136.106 363.156C136.38 363.507 136.519 363.915 136.524 364.379C136.519 364.843 136.38 365.25 136.106 365.602C135.838 365.954 135.459 366.227 134.971 366.422C134.483 366.613 133.921 366.708 133.287 366.708C132.647 366.708 132.08 366.613 131.587 366.422C131.099 366.227 130.718 365.954 130.445 365.602C130.171 365.25 130.035 364.843 130.035 364.379C130.035 363.915 130.171 363.507 130.445 363.156C130.718 362.804 131.099 362.533 131.587 362.343C132.08 362.147 132.647 362.05 133.287 362.05ZM133.287 363.251C132.779 363.251 132.373 363.351 132.071 363.551C131.768 363.751 131.617 364.027 131.617 364.379C131.617 364.735 131.766 365.014 132.063 365.214C132.366 365.409 132.774 365.507 133.287 365.507C133.799 365.507 134.207 365.407 134.51 365.207C134.817 365.006 134.971 364.73 134.971 364.379C134.971 364.032 134.817 363.759 134.51 363.559C134.202 363.354 133.794 363.251 133.287 363.251ZM153.805 372.304H152.194V359.062H153.805V372.304ZM145.133 367.587C147.189 367.553 149.147 367.353 151.007 366.986L151.212 368.349C150.113 368.578 149.025 368.742 147.946 368.839C146.871 368.932 145.778 368.979 144.664 368.979H143.522V360.351H145.133V367.587ZM166.545 364.086H168.581V365.419H166.545V372.318H164.919V359.062H166.545V364.086ZM162.912 361.64H158.342V367.719C159.411 367.719 160.375 367.687 161.235 367.624C162.094 367.56 162.966 367.45 163.85 367.294L164.04 368.671C163.083 368.837 162.136 368.947 161.198 369C160.266 369.054 159.138 369.081 157.814 369.081H156.716V360.321H162.912V361.64Z" fill="#32C375"/>
</g>
<defs>
<clipPath id="clip0_431_1397">
<rect width="360" height="800" fill="white"/>
</clipPath>
</defs>
</svg>
